G04*
G04 #@! TF.GenerationSoftware,Altium Limited,Altium Designer,24.5.2 (23)*
G04*
G04 Layer_Color=2752767*
%FSLAX44Y44*%
%MOMM*%
G71*
G04*
G04 #@! TF.SameCoordinates,1F493C1C-94EE-482F-B0B6-BA56A28CA170*
G04*
G04*
G04 #@! TF.FilePolarity,Positive*
G04*
G01*
G75*
%ADD11C,0.1270*%
%ADD25C,0.1693*%
D11*
X621100Y84120D02*
X616020Y94280D01*
X626180D01*
X621100Y84120D01*
X570700D02*
X565620Y94280D01*
X575780D01*
X570700Y84120D01*
X520300D02*
X515220Y94280D01*
X525380D01*
X520300Y84120D01*
X621100Y159720D02*
X616020Y169880D01*
X626180D01*
X621100Y159720D01*
X570700D02*
X565620Y169880D01*
X575780D01*
X570700Y159720D01*
X520300D02*
X515220Y169880D01*
X525380D01*
X520300Y159720D01*
X369100Y84120D02*
X364020Y94280D01*
X374180D01*
X369100Y84120D01*
Y159720D02*
X364020Y169880D01*
X374180D01*
X369100Y159720D01*
X355060Y291500D02*
X349980Y301660D01*
X360140D01*
X355060Y291500D01*
X405460D02*
X400380Y301660D01*
X410540D01*
X405460Y291500D01*
X455860D02*
X450780Y301660D01*
X460940D01*
X455860Y291500D01*
X355060Y215900D02*
X349980Y226060D01*
X360140D01*
X355060Y215900D01*
X405460D02*
X400380Y226060D01*
X410540D01*
X405460Y215900D01*
X455860D02*
X450780Y226060D01*
X460940D01*
X455860Y215900D01*
X607060Y291500D02*
X601980Y301660D01*
X612140D01*
X607060Y291500D01*
Y215900D02*
X601980Y226060D01*
X612140D01*
X607060Y215900D01*
X29140Y159720D02*
X24060Y169880D01*
X34220D01*
X29140Y159720D01*
X79540D02*
X74460Y169880D01*
X84620D01*
X79540Y159720D01*
X129940D02*
X124860Y169880D01*
X135020D01*
X129940Y159720D01*
X29140Y84120D02*
X24060Y94280D01*
X34220D01*
X29140Y84120D01*
X79540D02*
X74460Y94280D01*
X84620D01*
X79540Y84120D01*
X129940D02*
X124860Y94280D01*
X135020D01*
X129940Y84120D01*
X281140Y159720D02*
X276060Y169880D01*
X286220D01*
X281140Y159720D01*
Y84120D02*
X276060Y94280D01*
X286220D01*
X281140Y84120D01*
X295980Y216200D02*
X290900Y226360D01*
X301060D01*
X295980Y216200D01*
X245580D02*
X240500Y226360D01*
X250660D01*
X245580Y216200D01*
X195180D02*
X190100Y226360D01*
X200260D01*
X195180Y216200D01*
X295980Y291800D02*
X290900Y301960D01*
X301060D01*
X295980Y291800D01*
X245580D02*
X240500Y301960D01*
X250660D01*
X245580Y291800D01*
X195180D02*
X190100Y301960D01*
X200260D01*
X195180Y291800D01*
X43980Y216200D02*
X38900Y226360D01*
X49060D01*
X43980Y216200D01*
Y291800D02*
X38900Y301960D01*
X49060D01*
X43980Y291800D01*
X528320Y231140D02*
X530860Y236220D01*
X528320Y241300D01*
X533400Y238760D01*
X538480Y241300D01*
X535940Y236220D01*
X538480Y231140D01*
X533400Y233680D01*
X528320Y231140D01*
D25*
X276860Y20066D02*
G03*
X276860Y20066I-5080J0D01*
G01*
Y45466D02*
G03*
X276860Y45466I-5080J0D01*
G01*
X302260Y20066D02*
G03*
X302260Y20066I-5080J0D01*
G01*
Y45466D02*
G03*
X302260Y45466I-5080J0D01*
G01*
X327660Y20066D02*
G03*
X327660Y20066I-5080J0D01*
G01*
Y45466D02*
G03*
X327660Y45466I-5080J0D01*
G01*
X353060Y20066D02*
G03*
X353060Y20066I-5080J0D01*
G01*
Y45466D02*
G03*
X353060Y45466I-5080J0D01*
G01*
X378460Y20066D02*
G03*
X378460Y20066I-5080J0D01*
G01*
Y45466D02*
G03*
X378460Y45466I-5080J0D01*
G01*
X469900Y20066D02*
G03*
X469900Y20066I-5080J0D01*
G01*
Y45466D02*
G03*
X469900Y45466I-5080J0D01*
G01*
X495300Y20066D02*
G03*
X495300Y20066I-5080J0D01*
G01*
Y45466D02*
G03*
X495300Y45466I-5080J0D01*
G01*
X575310Y20066D02*
G03*
X575310Y20066I-5080J0D01*
G01*
Y45466D02*
G03*
X575310Y45466I-5080J0D01*
G01*
X600710Y20066D02*
G03*
X600710Y20066I-5080J0D01*
G01*
Y45466D02*
G03*
X600710Y45466I-5080J0D01*
G01*
X215880D02*
G03*
X215880Y45466I-5080J0D01*
G01*
Y20066D02*
G03*
X215880Y20066I-5080J0D01*
G01*
X190480Y45466D02*
G03*
X190480Y45466I-5080J0D01*
G01*
Y20066D02*
G03*
X190480Y20066I-5080J0D01*
G01*
X165080Y45466D02*
G03*
X165080Y45466I-5080J0D01*
G01*
Y20066D02*
G03*
X165080Y20066I-5080J0D01*
G01*
X34280D02*
G03*
X34280Y20066I-5080J0D01*
G01*
Y45466D02*
G03*
X34280Y45466I-5080J0D01*
G01*
X59680Y20066D02*
G03*
X59680Y20066I-5080J0D01*
G01*
Y45466D02*
G03*
X59680Y45466I-5080J0D01*
G01*
X85080Y20066D02*
G03*
X85080Y20066I-5080J0D01*
G01*
Y45466D02*
G03*
X85080Y45466I-5080J0D01*
G01*
M02*
