M48
;Layer_Color=9474304
;FILE_FORMAT=2:4
INCH
;TYPE=PLATED
T01F00S00C0.0300
T02F00S00C0.0354
%
T01
X011994Y058364
Y060136
X013766
Y058364
Y062264
X011994
Y064036
X013766
T02
X023980Y057750
X024980
X025980
X026980
X027980
X028980
Y060750
X027980
X026980
X025980
X024980
X023980
X024200Y065700
X023200
X022200
X021200
X020200
X019200
Y066700
X020200
X021200
X022200
X023200
X024200
X025200
Y065700
X026200
Y066700
X027200
Y065700
M30
