G04*
G04 #@! TF.GenerationSoftware,Altium Limited,Altium Designer,24.5.2 (23)*
G04*
G04 Layer_Color=16711935*
%FSLAX44Y44*%
%MOMM*%
G71*
G04*
G04 #@! TF.SameCoordinates,E6D3E557-3EFE-479C-B101-03A66C20DB95*
G04*
G04*
G04 #@! TF.FilePolarity,Negative*
G04*
G01*
G75*
%ADD32R,1.3032X1.2032*%
%ADD42R,1.2032X1.3032*%
%ADD46R,1.7032X1.7032*%
%ADD47C,1.7032*%
%ADD48C,2.7032*%
%ADD49C,0.9652*%
%ADD69O,0.8032X2.4032*%
%ADD70R,0.6032X1.5032*%
%ADD71O,0.5032X2.0032*%
%ADD72O,2.0032X0.5032*%
%ADD73R,1.7032X0.8032*%
%ADD74R,1.7032X1.5032*%
%ADD75R,1.3032X0.8532*%
D32*
X638420Y746760D02*
D03*
X621420D02*
D03*
X300600Y447040D02*
D03*
X283600D02*
D03*
X212480D02*
D03*
X229480D02*
D03*
X212480Y462280D02*
D03*
X229480D02*
D03*
D42*
X647700Y690000D02*
D03*
Y707000D02*
D03*
X632460Y724780D02*
D03*
Y707780D02*
D03*
Y689220D02*
D03*
Y672220D02*
D03*
X558800Y707000D02*
D03*
Y690000D02*
D03*
X353060Y449580D02*
D03*
Y466580D02*
D03*
X246380Y448700D02*
D03*
Y465700D02*
D03*
X238760Y410600D02*
D03*
Y427600D02*
D03*
X363220Y353940D02*
D03*
Y336940D02*
D03*
X322580Y466580D02*
D03*
Y449580D02*
D03*
X337820Y466580D02*
D03*
Y449580D02*
D03*
D46*
X95504Y245440D02*
D03*
X200406D02*
D03*
X394716D02*
D03*
X505968D02*
D03*
X585724Y220040D02*
D03*
X93980Y629996D02*
D03*
X173754Y604596D02*
D03*
X284480D02*
D03*
X478536D02*
D03*
X584200D02*
D03*
X462280Y544830D02*
D03*
X177800Y350520D02*
D03*
D47*
X95504Y220040D02*
D03*
X70104Y245440D02*
D03*
Y220040D02*
D03*
X200406D02*
D03*
X175006Y245440D02*
D03*
Y220040D02*
D03*
X394716D02*
D03*
X369316Y245440D02*
D03*
Y220040D02*
D03*
X343916Y245440D02*
D03*
Y220040D02*
D03*
X318516Y245440D02*
D03*
Y220040D02*
D03*
X293116Y245440D02*
D03*
Y220040D02*
D03*
X455168D02*
D03*
Y245440D02*
D03*
X480568Y220040D02*
D03*
Y245440D02*
D03*
X505968Y220040D02*
D03*
X636524Y245440D02*
D03*
Y220040D02*
D03*
X611124Y245440D02*
D03*
Y220040D02*
D03*
X585724Y245440D02*
D03*
X43180Y604596D02*
D03*
Y629996D02*
D03*
X68580Y604596D02*
D03*
Y629996D02*
D03*
X93980Y604596D02*
D03*
X224554Y629996D02*
D03*
Y604596D02*
D03*
X199154Y629996D02*
D03*
Y604596D02*
D03*
X173754Y629996D02*
D03*
X284480D02*
D03*
X309880Y604596D02*
D03*
Y629996D02*
D03*
X335280Y604596D02*
D03*
Y629996D02*
D03*
X360680Y604596D02*
D03*
Y629996D02*
D03*
X386080Y604596D02*
D03*
Y629996D02*
D03*
X478536D02*
D03*
X503936Y604596D02*
D03*
Y629996D02*
D03*
X584200D02*
D03*
X609600Y604596D02*
D03*
Y629996D02*
D03*
X462280Y519430D02*
D03*
X436880Y544830D02*
D03*
Y519430D02*
D03*
X411480Y544830D02*
D03*
Y519430D02*
D03*
X386080Y544830D02*
D03*
Y519430D02*
D03*
X360680Y544830D02*
D03*
Y519430D02*
D03*
X335280Y544830D02*
D03*
Y519430D02*
D03*
X309880Y544830D02*
D03*
Y519430D02*
D03*
X284480Y544830D02*
D03*
Y519430D02*
D03*
X259080Y544830D02*
D03*
Y519430D02*
D03*
X203200Y350520D02*
D03*
X228600D02*
D03*
D48*
X618852Y789051D02*
D03*
X568852D02*
D03*
X416414D02*
D03*
X366414D02*
D03*
X517252D02*
D03*
X467252D02*
D03*
X213360D02*
D03*
X264160D02*
D03*
X314960D02*
D03*
X162560D02*
D03*
X111760D02*
D03*
X60960D02*
D03*
X110979Y60960D02*
D03*
X60979D02*
D03*
X212198D02*
D03*
X162198D02*
D03*
X517398D02*
D03*
X466598D02*
D03*
X415798D02*
D03*
X263144D02*
D03*
X313944D02*
D03*
X364744D02*
D03*
X618598D02*
D03*
X568598D02*
D03*
D49*
X530860Y496570D02*
D03*
X568960Y746688D02*
D03*
X93831Y314996D02*
D03*
X500380Y355600D02*
D03*
X396091Y462316D02*
D03*
X363220Y419100D02*
D03*
X386666Y368240D02*
D03*
X264160Y480060D02*
D03*
X117148Y488642D02*
D03*
Y498802D02*
D03*
X114300Y373380D02*
D03*
X117148Y474980D02*
D03*
X656441Y455966D02*
D03*
X646430Y466090D02*
D03*
X476250Y441960D02*
D03*
X73660Y452120D02*
D03*
X166370Y499110D02*
D03*
X186400Y418242D02*
D03*
X514350Y511810D02*
D03*
X523240Y505460D02*
D03*
X505460Y519430D02*
D03*
X436880Y577850D02*
D03*
X411596Y578848D02*
D03*
X173990Y509270D02*
D03*
X116840D02*
D03*
X279400Y358140D02*
D03*
X292100D02*
D03*
X312420D02*
D03*
X322670Y358093D02*
D03*
X302260Y358140D02*
D03*
X114300Y386080D02*
D03*
Y398780D02*
D03*
Y411480D02*
D03*
X276860Y396240D02*
D03*
X609736Y328817D02*
D03*
X609600Y342900D02*
D03*
D69*
X576580Y723900D02*
D03*
X589280D02*
D03*
X601980D02*
D03*
X614680D02*
D03*
X576580Y675900D02*
D03*
X589280D02*
D03*
X601980D02*
D03*
X614680D02*
D03*
D70*
X595780Y764760D02*
D03*
X589280Y746760D02*
D03*
X602280D02*
D03*
D71*
X272220Y421500D02*
D03*
X277220D02*
D03*
X282220D02*
D03*
X287220D02*
D03*
X292220D02*
D03*
X297220D02*
D03*
X302220D02*
D03*
X307220D02*
D03*
X312220D02*
D03*
X317220D02*
D03*
X322220D02*
D03*
X327220D02*
D03*
Y340500D02*
D03*
X322220D02*
D03*
X317220D02*
D03*
X312220D02*
D03*
X307220D02*
D03*
X302220D02*
D03*
X297220D02*
D03*
X292220D02*
D03*
X287220D02*
D03*
X282220D02*
D03*
X277220D02*
D03*
X272220D02*
D03*
D72*
X340220Y408500D02*
D03*
Y403500D02*
D03*
Y398500D02*
D03*
Y393500D02*
D03*
Y388500D02*
D03*
Y383500D02*
D03*
Y378500D02*
D03*
Y373500D02*
D03*
Y368500D02*
D03*
Y363500D02*
D03*
Y358500D02*
D03*
Y353500D02*
D03*
X259220D02*
D03*
Y358500D02*
D03*
Y363500D02*
D03*
Y368500D02*
D03*
Y373500D02*
D03*
Y378500D02*
D03*
Y383500D02*
D03*
Y388500D02*
D03*
Y393500D02*
D03*
Y398500D02*
D03*
Y403500D02*
D03*
Y408500D02*
D03*
D73*
X285800Y471780D02*
D03*
X304800Y462280D02*
D03*
Y481280D02*
D03*
D74*
X264160Y447700D02*
D03*
Y466700D02*
D03*
D75*
X220980Y408940D02*
D03*
Y427940D02*
D03*
X196980D02*
D03*
Y418440D02*
D03*
Y408940D02*
D03*
M02*
