G04*
G04 #@! TF.GenerationSoftware,Altium Limited,Altium Designer,24.5.2 (23)*
G04*
G04 Layer_Physical_Order=2*
G04 Layer_Color=16711680*
%FSLAX44Y44*%
%MOMM*%
G71*
G04*
G04 #@! TF.SameCoordinates,1F493C1C-94EE-482F-B0B6-BA56A28CA170*
G04*
G04*
G04 #@! TF.FilePolarity,Positive*
G04*
G01*
G75*
%ADD16C,0.5080*%
%ADD18R,1.5000X1.5000*%
%ADD19C,1.5000*%
%ADD20C,2.5000*%
%ADD21C,0.7620*%
%ADD22R,0.5500X1.4500*%
D16*
X256540Y71120D02*
X264160Y63500D01*
X256540Y71120D02*
Y101900D01*
X137160Y221280D02*
X256540Y101900D01*
X264160Y63500D02*
X292100D01*
X297180Y58420D01*
X325120Y175260D02*
Y266700D01*
X561340D01*
X129540D02*
X325120D01*
Y175260D02*
X335580Y164800D01*
X369100D01*
X43980Y221280D02*
X137160D01*
X398780Y71120D02*
Y101600D01*
X533400Y236220D01*
X322580Y45466D02*
Y55880D01*
Y20066D02*
Y45466D01*
Y55880D02*
X330200Y63500D01*
X391160D01*
X398780Y71120D01*
X297180Y20066D02*
Y45466D01*
Y58420D01*
X561340Y266700D02*
X607060Y220980D01*
X99360Y296880D02*
X129540Y266700D01*
X43980Y296880D02*
X99360D01*
X43390Y221870D02*
Y247120D01*
X43180Y247330D02*
X43390Y247120D01*
Y221870D02*
X43980Y221280D01*
X43390Y296290D02*
X43980Y296880D01*
X43180Y270830D02*
X43390Y271040D01*
Y296290D01*
X607060Y270830D02*
Y296580D01*
Y220980D02*
Y247330D01*
X281730Y89790D02*
Y115040D01*
X281140Y89200D02*
X281730Y89790D01*
Y115040D02*
X281940Y115250D01*
X281140Y164800D02*
X281730Y164210D01*
Y138960D02*
X281940Y138750D01*
X281730Y138960D02*
Y164210D01*
X368510Y89790D02*
Y115040D01*
Y89790D02*
X369100Y89200D01*
X368300Y115250D02*
X368510Y115040D01*
X368300Y138750D02*
X368510Y138960D01*
Y164210D01*
X369100Y164800D01*
D18*
X271780Y20066D02*
D03*
X464820D02*
D03*
X570230D02*
D03*
X160000D02*
D03*
X80000Y45466D02*
D03*
D19*
X271780D02*
D03*
X297180Y20066D02*
D03*
Y45466D02*
D03*
X322580Y20066D02*
D03*
Y45466D02*
D03*
X347980Y20066D02*
D03*
Y45466D02*
D03*
X373380Y20066D02*
D03*
Y45466D02*
D03*
X464820D02*
D03*
X490220Y20066D02*
D03*
Y45466D02*
D03*
X570230D02*
D03*
X595630Y20066D02*
D03*
Y45466D02*
D03*
X210800D02*
D03*
Y20066D02*
D03*
X185400Y45466D02*
D03*
Y20066D02*
D03*
X160000Y45466D02*
D03*
X29200Y20066D02*
D03*
Y45466D02*
D03*
X54600Y20066D02*
D03*
Y45466D02*
D03*
X80000Y20066D02*
D03*
D20*
X621100Y89200D02*
D03*
X570700D02*
D03*
X520300D02*
D03*
X621100Y164800D02*
D03*
X570700D02*
D03*
X520300D02*
D03*
X369100Y89200D02*
D03*
Y164800D02*
D03*
X355060Y296580D02*
D03*
X405460D02*
D03*
X455860D02*
D03*
X355060Y220980D02*
D03*
X405460D02*
D03*
X455860D02*
D03*
X607060Y296580D02*
D03*
Y220980D02*
D03*
X29140Y164800D02*
D03*
X79540D02*
D03*
X129940D02*
D03*
X29140Y89200D02*
D03*
X79540D02*
D03*
X129940D02*
D03*
X281140Y164800D02*
D03*
Y89200D02*
D03*
X295980Y221280D02*
D03*
X245580D02*
D03*
X195180D02*
D03*
X295980Y296880D02*
D03*
X245580D02*
D03*
X195180D02*
D03*
X43980Y221280D02*
D03*
Y296880D02*
D03*
D21*
X533400Y236220D02*
D03*
D22*
X43180Y247330D02*
D03*
Y270830D02*
D03*
X607060D02*
D03*
Y247330D02*
D03*
X368300Y115250D02*
D03*
Y138750D02*
D03*
X281940D02*
D03*
Y115250D02*
D03*
M02*
