G04*
G04 #@! TF.GenerationSoftware,Altium Limited,Altium Designer,24.5.2 (23)*
G04*
G04 Layer_Color=16711935*
%FSLAX44Y44*%
%MOMM*%
G71*
G04*
G04 #@! TF.SameCoordinates,E6D3E557-3EFE-479C-B101-03A66C20DB95*
G04*
G04*
G04 #@! TF.FilePolarity,Positive*
G04*
G01*
G75*
%ADD10C,0.2540*%
D10*
X638852Y789051D02*
G03*
X638852Y789051I-20000J0D01*
G01*
X588452D02*
G03*
X588452Y789051I-20000J0D01*
G01*
X436414D02*
G03*
X436414Y789051I-20000J0D01*
G01*
X386014D02*
G03*
X386014Y789051I-20000J0D01*
G01*
X537252D02*
G03*
X537252Y789051I-20000J0D01*
G01*
X486852D02*
G03*
X486852Y789051I-20000J0D01*
G01*
X233760D02*
G03*
X233760Y789051I-20000J0D01*
G01*
X335360D02*
G03*
X335360Y789051I-20000J0D01*
G01*
X284160D02*
G03*
X284160Y789051I-20000J0D01*
G01*
X182160D02*
G03*
X182160Y789051I-20000J0D01*
G01*
X80560D02*
G03*
X80560Y789051I-20000J0D01*
G01*
X131760D02*
G03*
X131760Y789051I-20000J0D01*
G01*
X131379Y60960D02*
G03*
X131379Y60960I-20000J0D01*
G01*
X80979D02*
G03*
X80979Y60960I-20000J0D01*
G01*
X232598D02*
G03*
X232598Y60960I-20000J0D01*
G01*
X182198D02*
G03*
X182198Y60960I-20000J0D01*
G01*
X486598D02*
G03*
X486598Y60960I-20000J0D01*
G01*
X537798D02*
G03*
X537798Y60960I-20000J0D01*
G01*
X436198D02*
G03*
X436198Y60960I-20000J0D01*
G01*
X333944D02*
G03*
X333944Y60960I-20000J0D01*
G01*
X282744D02*
G03*
X282744Y60960I-20000J0D01*
G01*
X384344D02*
G03*
X384344Y60960I-20000J0D01*
G01*
X638998D02*
G03*
X638998Y60960I-20000J0D01*
G01*
X588598D02*
G03*
X588598Y60960I-20000J0D01*
G01*
X558292Y805561D02*
X584962Y778891D01*
X579882Y772541D02*
Y773811D01*
X553212Y800481D02*
X579882Y773811D01*
X607822Y772541D02*
X635127Y799846D01*
X604012Y777621D02*
X630682Y804291D01*
X355854Y805561D02*
X382524Y778891D01*
X377444Y772541D02*
Y773811D01*
X350774Y800481D02*
X377444Y773811D01*
X405384Y772541D02*
X432689Y799846D01*
X401574Y777621D02*
X428244Y804291D01*
X456692Y805561D02*
X483362Y778891D01*
X478282Y772541D02*
Y773811D01*
X451612Y800481D02*
X478282Y773811D01*
X506222Y772541D02*
X533527Y799846D01*
X502412Y777621D02*
X529082Y804291D01*
X197485Y778256D02*
X224790Y805561D01*
X201930Y773811D02*
X228600Y800481D01*
X299085Y778256D02*
X326390Y805561D01*
X303530Y773811D02*
X330200Y800481D01*
X247650Y799211D02*
X274320Y772541D01*
X252730Y804291D02*
X279400Y777621D01*
X151130Y772541D02*
X178435Y799846D01*
X147320Y777621D02*
X173990Y804291D01*
X49530Y772541D02*
X76835Y799846D01*
X45720Y777621D02*
X72390Y804291D01*
X101600Y805561D02*
X128270Y778891D01*
X96520Y800481D02*
X123190Y773811D01*
X49149Y45720D02*
X75819Y72390D01*
X44704Y50165D02*
X72009Y77470D01*
X99949Y76200D02*
X126619Y49530D01*
X99949Y76200D02*
Y77470D01*
X94869Y71120D02*
X121539Y44450D01*
X150368Y45720D02*
X177038Y72390D01*
X145923Y50165D02*
X173228Y77470D01*
X201168Y76200D02*
X227838Y49530D01*
X201168Y76200D02*
Y77470D01*
X196088Y71120D02*
X222758Y44450D01*
X455168Y76200D02*
X481838Y49530D01*
X450088Y71120D02*
X476758Y44450D01*
X505968Y45720D02*
X532638Y72390D01*
X501523Y50165D02*
X528828Y77470D01*
X404368Y45720D02*
X431038Y72390D01*
X399923Y50165D02*
X427228Y77470D01*
X298704Y72390D02*
X325374Y45720D01*
X303784Y77470D02*
X330454Y50800D01*
X247904Y49530D02*
X274574Y76200D01*
X251714Y44450D02*
X279019Y71755D01*
X349504Y49530D02*
X376174Y76200D01*
X353314Y44450D02*
X380619Y71755D01*
X556768Y45720D02*
X583438Y72390D01*
X552323Y50165D02*
X579628Y77470D01*
X607568Y76200D02*
X634238Y49530D01*
X607568Y76200D02*
Y77470D01*
X602488Y71120D02*
X629158Y44450D01*
M02*
