G04*
G04 #@! TF.GenerationSoftware,Altium Limited,Altium Designer,24.5.2 (23)*
G04*
G04 Layer_Physical_Order=1*
G04 Layer_Color=255*
%FSLAX44Y44*%
%MOMM*%
G71*
G04*
G04 #@! TF.SameCoordinates,B26EB2D3-40D5-4C0D-8AB9-A0D858DAE7C2*
G04*
G04*
G04 #@! TF.FilePolarity,Positive*
G04*
G01*
G75*
%ADD13R,1.1000X1.0000*%
%ADD14R,0.8000X0.8000*%
%ADD15R,1.0000X1.1000*%
%ADD24C,0.5080*%
%ADD25C,1.5240*%
%ADD26R,1.5000X1.5000*%
%ADD27C,1.5000*%
%ADD28R,1.5000X1.5000*%
%ADD29C,1.5000*%
D13*
X64652Y210058D02*
D03*
X81652D02*
D03*
X64652Y110998D02*
D03*
X81652D02*
D03*
D14*
X179832Y175418D02*
D03*
Y160418D02*
D03*
X225552Y175418D02*
D03*
Y160418D02*
D03*
X271272Y175418D02*
D03*
Y160418D02*
D03*
X316992Y175418D02*
D03*
Y160418D02*
D03*
X362712Y175418D02*
D03*
Y160418D02*
D03*
X408432Y175418D02*
D03*
Y160418D02*
D03*
X454152Y175418D02*
D03*
Y160418D02*
D03*
X499872Y175418D02*
D03*
Y160418D02*
D03*
D15*
X162052Y176158D02*
D03*
Y193158D02*
D03*
X207772Y176158D02*
D03*
Y193158D02*
D03*
X253492Y176158D02*
D03*
Y193158D02*
D03*
X297180Y177428D02*
D03*
Y194428D02*
D03*
X344932Y176158D02*
D03*
Y193158D02*
D03*
X390652Y176158D02*
D03*
Y193158D02*
D03*
X436372Y176158D02*
D03*
Y193158D02*
D03*
X482092Y176158D02*
D03*
Y193158D02*
D03*
D24*
X114300Y129646D02*
Y249428D01*
X147320Y282448D01*
X414020D01*
X95652Y243480D02*
X142240Y290068D01*
X424180D01*
X95652Y210338D02*
Y243480D01*
X414020Y282448D02*
X424180Y272288D01*
X81932Y210338D02*
X95652D01*
X424180Y246888D02*
Y272288D01*
Y246888D02*
X436880Y234188D01*
Y259588D02*
Y277368D01*
X424180Y290068D02*
X436880Y277368D01*
X347980Y246888D02*
X360680Y259588D01*
X347980Y213868D02*
Y246888D01*
X401320Y206248D02*
X414410Y193158D01*
X386080Y206248D02*
X401320D01*
X444500D02*
X457590Y193158D01*
X414410D02*
X436372D01*
X416560Y206248D02*
X444500D01*
X398780Y224028D02*
X416560Y206248D01*
X457590Y193158D02*
X482092D01*
X233680Y213868D02*
Y234188D01*
Y213868D02*
X241300Y206248D01*
Y160418D02*
X271272D01*
X225552D02*
X241300D01*
Y206248D01*
X233680Y234188D02*
X259080D01*
X179832Y71120D02*
Y160418D01*
X134620Y25908D02*
X179832Y71120D01*
X60960Y25908D02*
X134620D01*
X50652Y36216D02*
X60960Y25908D01*
X50652Y36216D02*
Y47858D01*
X297180Y191888D02*
Y246888D01*
X381390Y193158D02*
X390652D01*
X355600Y206248D02*
X368300D01*
X381390Y193158D01*
X347980Y213868D02*
X355600Y206248D01*
X398780Y224028D02*
Y246888D01*
X411480Y259588D01*
X162052Y193158D02*
Y203200D01*
X218440Y259588D01*
X233680D01*
X95652Y110998D02*
X114300Y129646D01*
X95652Y99442D02*
Y110998D01*
Y92858D02*
Y94802D01*
X81652Y110998D02*
X95250D01*
X95652Y94802D02*
Y99442D01*
X95250Y110998D02*
X95652Y110596D01*
Y191918D02*
Y210338D01*
Y146918D02*
Y191918D01*
X373380Y218948D02*
X386080Y206248D01*
X373380Y218948D02*
Y246888D01*
X386080Y259588D01*
X332740Y193548D02*
X344542D01*
X344932Y193158D01*
X322580Y203708D02*
X332740Y193548D01*
X322580Y246888D02*
X335280Y259588D01*
X322580Y203708D02*
Y246888D01*
X297180D02*
X309880Y259588D01*
X253492Y193158D02*
Y205740D01*
X271780Y224028D01*
Y246888D01*
X284480Y259588D01*
X207772Y193158D02*
Y233680D01*
X220980Y246888D02*
X246380D01*
X207772Y233680D02*
X220980Y246888D01*
X246380D02*
X259080Y259588D01*
X499872Y126238D02*
Y160418D01*
X482092Y108458D02*
X499872Y126238D01*
X456692Y108458D02*
X482092D01*
X431292D02*
X456692D01*
X405892D02*
X431292D01*
X380492D02*
X405892D01*
X355092D02*
X380492D01*
X95652Y47858D02*
Y92858D01*
X93708Y94802D02*
X95652Y92858D01*
X50652Y146918D02*
Y191918D01*
X54610Y110998D02*
X64652D01*
X50652Y114956D02*
Y146918D01*
Y114956D02*
X54610Y110998D01*
X50851Y102159D02*
X57481Y108789D01*
X62443D02*
X64652Y110998D01*
X50652Y92858D02*
X50851Y93057D01*
Y102159D01*
X57481Y108789D02*
X62443D01*
X50652Y47858D02*
Y92858D01*
X52596Y193862D02*
Y198502D01*
X64152Y210058D02*
X64652D01*
X52596Y198502D02*
X64152Y210058D01*
X50652Y191918D02*
X52596Y193862D01*
X454152Y160418D02*
X499872D01*
X408432D02*
X454152D01*
X362712D02*
X408432D01*
X316992D02*
X362712D01*
X271272D02*
X316992D01*
X179832D02*
X225552D01*
X482462Y175788D02*
X499502D01*
X482092Y176158D02*
X482462Y175788D01*
X499502D02*
X499872Y175418D01*
X453782Y175788D02*
X454152Y175418D01*
X436372Y176158D02*
X436742Y175788D01*
X453782D01*
X391022D02*
X408062D01*
X408432Y175418D01*
X390652Y176158D02*
X391022Y175788D01*
X345302D02*
X362342D01*
X344932Y176158D02*
X345302Y175788D01*
X362342D02*
X362712Y175418D01*
X299582Y175788D02*
X316622D01*
X299212Y176158D02*
X299582Y175788D01*
X316622D02*
X316992Y175418D01*
X253492Y176158D02*
X253862Y175788D01*
X270902D01*
X271272Y175418D01*
X208142Y175788D02*
X225182D01*
X207772Y176158D02*
X208142Y175788D01*
X225182D02*
X225552Y175418D01*
X162422Y175788D02*
X179462D01*
X162052Y176158D02*
X162422Y175788D01*
X179462D02*
X179832Y175418D01*
D25*
X50652Y191918D02*
D03*
X95652D02*
D03*
X50652Y146918D02*
D03*
X95652D02*
D03*
X50652Y92858D02*
D03*
X95652D02*
D03*
X50652Y47858D02*
D03*
X95652D02*
D03*
D26*
X436880Y259588D02*
D03*
D27*
X233680Y234188D02*
D03*
Y259588D02*
D03*
X259080Y234188D02*
D03*
Y259588D02*
D03*
X284480Y234188D02*
D03*
Y259588D02*
D03*
X309880Y234188D02*
D03*
Y259588D02*
D03*
X335280Y234188D02*
D03*
Y259588D02*
D03*
X360680Y234188D02*
D03*
Y259588D02*
D03*
X386080Y234188D02*
D03*
Y259588D02*
D03*
X411480Y234188D02*
D03*
Y259588D02*
D03*
X436880Y234188D02*
D03*
X482092Y32258D02*
D03*
X355092Y108458D02*
D03*
X380492D02*
D03*
X405892D02*
D03*
X431292D02*
D03*
X456692D02*
D03*
X482092D02*
D03*
D28*
X355092Y32258D02*
D03*
D29*
X380492D02*
D03*
X405892D02*
D03*
X431292D02*
D03*
X456692D02*
D03*
M02*
