G04*
G04 #@! TF.GenerationSoftware,Altium Limited,Altium Designer,24.5.2 (23)*
G04*
G04 Layer_Color=65535*
%FSLAX44Y44*%
%MOMM*%
G71*
G04*
G04 #@! TF.SameCoordinates,E6D3E557-3EFE-479C-B101-03A66C20DB95*
G04*
G04*
G04 #@! TF.FilePolarity,Positive*
G04*
G01*
G75*
%ADD10C,0.2540*%
%ADD11C,0.2500*%
%ADD12C,0.1520*%
%ADD13C,0.1524*%
%ADD14C,0.2000*%
%ADD15C,0.2032*%
%ADD16C,0.1500*%
%ADD17C,0.1270*%
G36*
X231155Y467872D02*
X228665D01*
Y477832D01*
X231155D01*
Y467872D01*
D02*
G37*
G36*
X634135Y456609D02*
X631045D01*
Y468969D01*
X634135D01*
Y456609D01*
D02*
G37*
G36*
X533690Y441767D02*
X525770D01*
Y443747D01*
X533690D01*
Y441767D01*
D02*
G37*
G36*
X476600Y443747D02*
X479570D01*
Y441767D01*
X476600D01*
Y436157D01*
X474621D01*
Y441767D01*
X471650D01*
Y443747D01*
X474621D01*
Y449356D01*
X476600D01*
Y443747D01*
D02*
G37*
G36*
X381009Y404613D02*
X373090D01*
Y406593D01*
X381009D01*
Y404613D01*
D02*
G37*
G36*
X231155Y406537D02*
X238210D01*
Y404047D01*
X231155D01*
Y400312D01*
X228665D01*
Y404047D01*
X221610D01*
Y406537D01*
X228665D01*
Y410272D01*
X231155D01*
Y406537D01*
D02*
G37*
G36*
X432160Y406593D02*
X435130D01*
Y404613D01*
X432160D01*
Y399003D01*
X430180D01*
Y404613D01*
X427210D01*
Y406593D01*
X430180D01*
Y412203D01*
X432160D01*
Y406593D01*
D02*
G37*
G36*
X114656Y378672D02*
X116187Y377151D01*
X117016Y375159D01*
X117016Y373001D01*
X116187Y371009D01*
X114656Y369488D01*
X112658Y368673D01*
X111579Y368680D01*
Y368680D01*
X110500Y368673D01*
X108502Y369488D01*
X106971Y371009D01*
X106142Y373001D01*
X106142Y375159D01*
X106971Y377151D01*
X108502Y378672D01*
X110500Y379488D01*
X111579Y379480D01*
X112658Y379488D01*
X114656Y378672D01*
D02*
G37*
G36*
X634135Y379874D02*
X642890D01*
Y376783D01*
X634135D01*
Y372149D01*
X631045D01*
Y376783D01*
X622290D01*
Y379874D01*
X631045D01*
Y384509D01*
X634135D01*
Y379874D01*
D02*
G37*
D10*
X506450Y381465D02*
G03*
X506450Y386215I0J2375D01*
G01*
X96109Y365760D02*
G03*
X76551Y365760I-9779J0D01*
G01*
X291490Y442072D02*
G03*
X291490Y442072I-640J0D01*
G01*
X506450Y381465D02*
Y389890D01*
Y377698D02*
Y386215D01*
Y377698D02*
X534950D01*
Y389890D01*
X506450D02*
X534950D01*
X51989Y365760D02*
Y482600D01*
X120569D01*
Y365760D02*
Y482600D01*
X96386Y365760D02*
X120569D01*
X51989D02*
X76551D01*
X315069Y421673D02*
Y430510D01*
X297469Y410091D02*
X313469Y410091D01*
X297669Y442270D02*
X313069D01*
X543052Y827151D02*
X644652D01*
X543052Y750951D02*
Y827151D01*
X644652Y750951D02*
Y827151D01*
X543052Y750951D02*
X644652D01*
X340614Y827151D02*
X442214D01*
X340614Y750951D02*
Y827151D01*
X442214Y750951D02*
Y827151D01*
X340614Y750951D02*
X442214D01*
X441452Y827151D02*
X543052D01*
X441452Y750951D02*
Y827151D01*
X543052Y750951D02*
Y827151D01*
X441452Y750951D02*
X543052D01*
X187960D02*
X340360D01*
X187960Y827151D02*
X340360D01*
X187960Y750951D02*
Y827151D01*
X340360Y750951D02*
Y827151D01*
X35560D02*
X187960D01*
X35560Y750951D02*
X187960D01*
Y827151D01*
X35560Y750951D02*
Y827151D01*
X35179Y99060D02*
X136779D01*
X35179Y22860D02*
Y99060D01*
X136779Y22860D02*
Y99060D01*
X35179Y22860D02*
X136779D01*
X136398Y99060D02*
X237998D01*
X136398Y22860D02*
Y99060D01*
X237998Y22860D02*
Y99060D01*
X136398Y22860D02*
X237998D01*
X542798D02*
Y99060D01*
X390398Y22860D02*
Y99060D01*
X542798D01*
X390398Y22860D02*
X542798D01*
X237744D02*
Y99060D01*
X390144Y22860D02*
Y99060D01*
X237744Y22860D02*
X390144D01*
X237744Y99060D02*
X390144D01*
X542798D02*
X644398D01*
X542798Y22860D02*
Y99060D01*
X644398Y22860D02*
Y99060D01*
X542798Y22860D02*
X644398D01*
X177038Y137414D02*
Y147571D01*
X179577D01*
X182116Y145031D01*
Y137414D01*
Y145031D01*
X184655Y147571D01*
X187195Y145031D01*
Y137414D01*
X199891D02*
X194812D01*
X192273Y139953D01*
Y145031D01*
X194812Y147571D01*
X199891D01*
X202430Y145031D01*
Y142492D01*
X192273D01*
X207508Y137414D02*
Y147571D01*
X210047D01*
X212586Y145031D01*
Y137414D01*
Y145031D01*
X215126Y147571D01*
X217665Y145031D01*
Y137414D01*
X222743Y152649D02*
Y137414D01*
X230361D01*
X232900Y139953D01*
Y142492D01*
Y145031D01*
X230361Y147571D01*
X222743D01*
X245596Y137414D02*
X240518D01*
X237978Y139953D01*
Y145031D01*
X240518Y147571D01*
X245596D01*
X248135Y145031D01*
Y142492D01*
X237978D01*
X253213Y147571D02*
Y137414D01*
Y142492D01*
X255753Y145031D01*
X258292Y147571D01*
X260831D01*
X286223Y137414D02*
X291301D01*
X293840Y139953D01*
Y145031D01*
X291301Y147571D01*
X286223D01*
X283683Y145031D01*
Y139953D01*
X286223Y137414D01*
X301458D02*
Y150110D01*
Y145031D01*
X298919D01*
X303997D01*
X301458D01*
Y150110D01*
X303997Y152649D01*
X326850Y137414D02*
X331928D01*
X329389D01*
Y147571D01*
X326850D01*
X339545Y137414D02*
Y152649D01*
X344624Y147571D01*
X349702Y152649D01*
Y137414D01*
X362398D02*
X357320D01*
X354781Y139953D01*
Y145031D01*
X357320Y147571D01*
X362398D01*
X364937Y145031D01*
Y142492D01*
X354781D01*
X380172Y152649D02*
Y137414D01*
X372555D01*
X370016Y139953D01*
Y145031D01*
X372555Y147571D01*
X380172D01*
X385251Y137414D02*
X390329D01*
X387790D01*
Y147571D01*
X385251D01*
X400486D02*
X405564D01*
X408103Y145031D01*
Y137414D01*
X400486D01*
X397947Y139953D01*
X400486Y142492D01*
X408103D01*
X438573Y150110D02*
X436034Y152649D01*
X430956D01*
X428417Y150110D01*
Y139953D01*
X430956Y137414D01*
X436034D01*
X438573Y139953D01*
Y145031D01*
X433495D01*
X443652Y147571D02*
Y137414D01*
Y142492D01*
X446191Y145031D01*
X448730Y147571D01*
X451269D01*
X461426Y137414D02*
X466504D01*
X469044Y139953D01*
Y145031D01*
X466504Y147571D01*
X461426D01*
X458887Y145031D01*
Y139953D01*
X461426Y137414D01*
X474122Y147571D02*
Y139953D01*
X476661Y137414D01*
X484279D01*
Y147571D01*
X489357Y132336D02*
Y147571D01*
X496974D01*
X499514Y145031D01*
Y139953D01*
X496974Y137414D01*
X489357D01*
X236728Y179829D02*
Y172211D01*
X239267Y169672D01*
X241806Y172211D01*
X244345Y169672D01*
X246885Y172211D01*
Y179829D01*
X251963D02*
Y172211D01*
X254502Y169672D01*
X257041Y172211D01*
X259581Y169672D01*
X262120Y172211D01*
Y179829D01*
X267198D02*
Y172211D01*
X269737Y169672D01*
X272276Y172211D01*
X274816Y169672D01*
X277355Y172211D01*
Y179829D01*
X282433Y169672D02*
Y172211D01*
X284972D01*
Y169672D01*
X282433D01*
X295129D02*
X300208D01*
X297668D01*
Y179829D01*
X295129D01*
X307825Y169672D02*
Y179829D01*
X310364D01*
X312903Y177290D01*
Y169672D01*
Y177290D01*
X315443Y179829D01*
X317982Y177290D01*
Y169672D01*
X330678D02*
X325599D01*
X323060Y172211D01*
Y177290D01*
X325599Y179829D01*
X330678D01*
X333217Y177290D01*
Y174750D01*
X323060D01*
X348452Y184907D02*
Y169672D01*
X340834D01*
X338295Y172211D01*
Y177290D01*
X340834Y179829D01*
X348452D01*
X353530Y169672D02*
X358609D01*
X356069D01*
Y179829D01*
X353530D01*
X368765D02*
X373844D01*
X376383Y177290D01*
Y169672D01*
X368765D01*
X366226Y172211D01*
X368765Y174750D01*
X376383D01*
X381461Y169672D02*
Y172211D01*
X384000D01*
Y169672D01*
X381461D01*
X394157Y184907D02*
Y169672D01*
X401775D01*
X404314Y172211D01*
Y174750D01*
Y177290D01*
X401775Y179829D01*
X394157D01*
X411931D02*
X417010D01*
X419549Y177290D01*
Y169672D01*
X411931D01*
X409392Y172211D01*
X411931Y174750D01*
X419549D01*
X519682Y300223D02*
X514603D01*
X512064Y297684D01*
Y287527D01*
X514603Y284988D01*
X519682D01*
X522221Y287527D01*
Y297684D01*
X519682Y300223D01*
X537456Y297684D02*
X534917Y300223D01*
X529838D01*
X527299Y297684D01*
Y287527D01*
X529838Y284988D01*
X534917D01*
X537456Y287527D01*
X542534Y300223D02*
X552691D01*
X547612D01*
Y284988D01*
X557769D02*
Y287527D01*
X560308D01*
Y284988D01*
X557769D01*
X595857D02*
X585700D01*
X595857Y295145D01*
Y297684D01*
X593318Y300223D01*
X588239D01*
X585700Y297684D01*
X600935D02*
X603474Y300223D01*
X608553D01*
X611092Y297684D01*
Y287527D01*
X608553Y284988D01*
X603474D01*
X600935Y287527D01*
Y297684D01*
X626327Y284988D02*
X616170D01*
X626327Y295145D01*
Y297684D01*
X623788Y300223D01*
X618709D01*
X616170Y297684D01*
X639023Y284988D02*
Y300223D01*
X631405Y292605D01*
X641562D01*
X646640Y284988D02*
Y287527D01*
X649180D01*
Y284988D01*
X646640D01*
X45717Y711703D02*
X40638D01*
X43177D01*
Y699007D01*
X40638Y696468D01*
X38099D01*
X35560Y699007D01*
X50795Y711703D02*
Y699007D01*
X53334Y696468D01*
X58413D01*
X60952Y699007D01*
Y711703D01*
X66030D02*
Y696468D01*
X73648D01*
X76187Y699007D01*
Y701546D01*
X73648Y704085D01*
X66030D01*
X73648D01*
X76187Y706625D01*
Y709164D01*
X73648Y711703D01*
X66030D01*
X91422D02*
X81265D01*
Y696468D01*
X91422D01*
X81265Y704085D02*
X86344D01*
X96500Y696468D02*
Y711703D01*
X104118D01*
X106657Y709164D01*
Y704085D01*
X104118Y701546D01*
X96500D01*
X101579D02*
X106657Y696468D01*
X111735D02*
Y706625D01*
X116814Y711703D01*
X121892Y706625D01*
Y696468D01*
Y704085D01*
X111735D01*
X152362Y711703D02*
Y696468D01*
X144745D01*
X142205Y699007D01*
Y704085D01*
X144745Y706625D01*
X152362D01*
X157441Y696468D02*
Y699007D01*
X159980D01*
Y696468D01*
X157441D01*
X172676D02*
X177754D01*
X180293Y699007D01*
Y704085D01*
X177754Y706625D01*
X172676D01*
X170137Y704085D01*
Y699007D01*
X172676Y696468D01*
X185371D02*
Y699007D01*
X187911D01*
Y696468D01*
X185371D01*
X200607D02*
X205685D01*
X208224Y699007D01*
Y704085D01*
X205685Y706625D01*
X200607D01*
X198067Y704085D01*
Y699007D01*
X200607Y696468D01*
X213302D02*
Y699007D01*
X215842D01*
Y696468D01*
X213302D01*
X251390Y709164D02*
X248851Y711703D01*
X243773D01*
X241234Y709164D01*
Y706625D01*
X243773Y704085D01*
X248851D01*
X251390Y701546D01*
Y699007D01*
X248851Y696468D01*
X243773D01*
X241234Y699007D01*
X259008Y706625D02*
X264086D01*
X266625Y704085D01*
Y696468D01*
X259008D01*
X256469Y699007D01*
X259008Y701546D01*
X266625D01*
X271704Y706625D02*
Y696468D01*
Y701546D01*
X274243Y704085D01*
X276782Y706625D01*
X279321D01*
X289478D02*
X294556D01*
X297095Y704085D01*
Y696468D01*
X289478D01*
X286939Y699007D01*
X289478Y701546D01*
X297095D01*
X302174Y691390D02*
X304713D01*
X307252Y693929D01*
Y706625D01*
X325026Y696468D02*
X319948D01*
X317409Y699007D01*
Y704085D01*
X319948Y706625D01*
X325026D01*
X327565Y704085D01*
Y701546D01*
X317409D01*
X332644Y706625D02*
X337722Y696468D01*
X342801Y706625D01*
X350418Y696468D02*
X355496D01*
X358036Y699007D01*
Y704085D01*
X355496Y706625D01*
X350418D01*
X347879Y704085D01*
Y699007D01*
X350418Y696468D01*
X35560Y682747D02*
Y667512D01*
X43177D01*
X45717Y670051D01*
Y672590D01*
X43177Y675129D01*
X35560D01*
X43177D01*
X45717Y677669D01*
Y680208D01*
X43177Y682747D01*
X35560D01*
X53334Y667512D02*
X58413D01*
X60952Y670051D01*
Y675129D01*
X58413Y677669D01*
X53334D01*
X50795Y675129D01*
Y670051D01*
X53334Y667512D01*
X66030D02*
X73648D01*
X76187Y670051D01*
X73648Y672590D01*
X68569D01*
X66030Y675129D01*
X68569Y677669D01*
X76187D01*
X81265Y667512D02*
Y677669D01*
X88883D01*
X91422Y675129D01*
Y667512D01*
X99039Y677669D02*
X104118D01*
X106657Y675129D01*
Y667512D01*
X99039D01*
X96500Y670051D01*
X99039Y672590D01*
X106657D01*
X126970Y667512D02*
X132049D01*
X129510D01*
Y677669D01*
X126970D01*
X154901Y682747D02*
Y667512D01*
Y675129D01*
X165058D01*
Y682747D01*
Y667512D01*
X177754D02*
X172676D01*
X170137Y670051D01*
Y675129D01*
X172676Y677669D01*
X177754D01*
X180293Y675129D01*
Y672590D01*
X170137D01*
X185371Y677669D02*
Y667512D01*
Y672590D01*
X187911Y675129D01*
X190450Y677669D01*
X192989D01*
X210763D02*
X203146D01*
X200607Y675129D01*
Y670051D01*
X203146Y667512D01*
X210763D01*
X223459D02*
X218381D01*
X215842Y670051D01*
Y675129D01*
X218381Y677669D01*
X223459D01*
X225998Y675129D01*
Y672590D01*
X215842D01*
X236155Y662434D02*
X238694D01*
X241234Y664973D01*
Y677669D01*
X233616D01*
X231077Y675129D01*
Y670051D01*
X233616Y667512D01*
X241234D01*
X248851D02*
X253929D01*
X256469Y670051D01*
Y675129D01*
X253929Y677669D01*
X248851D01*
X246312Y675129D01*
Y670051D01*
X248851Y667512D01*
X261547Y677669D02*
X266625Y667512D01*
X271704Y677669D01*
X276782Y667512D02*
X281860D01*
X279321D01*
Y677669D01*
X276782D01*
X289478Y667512D02*
Y677669D01*
X297095D01*
X299635Y675129D01*
Y667512D01*
X307252Y677669D02*
X312330D01*
X314870Y675129D01*
Y667512D01*
X307252D01*
X304713Y670051D01*
X307252Y672590D01*
X314870D01*
X50292Y300223D02*
Y284988D01*
X57909D01*
X60449Y287527D01*
Y297684D01*
X57909Y300223D01*
X50292D01*
X75684D02*
X65527D01*
Y284988D01*
X75684D01*
X65527Y292605D02*
X70605D01*
X80762D02*
X90919D01*
X106154Y284988D02*
X95997D01*
X106154Y295145D01*
Y297684D01*
X103615Y300223D01*
X98536D01*
X95997Y297684D01*
X111232Y284988D02*
X116311D01*
X113771D01*
Y300223D01*
X111232Y297684D01*
X123928Y284988D02*
X129007D01*
X126467D01*
Y300223D01*
X123928Y297684D01*
X136624D02*
X139163Y300223D01*
X144242D01*
X146781Y297684D01*
Y287527D01*
X144242Y284988D01*
X139163D01*
X136624Y287527D01*
Y297684D01*
X162016Y284988D02*
X151859D01*
X162016Y295145D01*
Y297684D01*
X159477Y300223D01*
X154398D01*
X151859Y297684D01*
X174712Y284988D02*
Y300223D01*
X167094Y292605D01*
X177251D01*
D11*
X363920Y485420D02*
G03*
X363920Y485420I-1250J0D01*
G01*
D12*
X556637Y472821D02*
X598848D01*
X618951D02*
X661162D01*
X618951Y368296D02*
X639800D01*
X578000D02*
X598848D01*
D13*
X556637Y389659D02*
Y472821D01*
Y389659D02*
X578000Y368296D01*
X661162Y389659D02*
Y472821D01*
X639800Y368296D02*
X661162Y389659D01*
X437871Y370623D02*
Y383565D01*
X423910Y356662D02*
X437871Y370623D01*
X370348Y356662D02*
X423910D01*
X370348D02*
X370415Y383346D01*
X437733Y397281D02*
X437866Y410235D01*
X423922Y424180D02*
X437866Y410235D01*
X370353Y424180D02*
X423922D01*
X370353D02*
X370553Y397816D01*
X218644Y481084D02*
X253082D01*
Y414422D02*
Y481084D01*
X235720Y397060D02*
X253082Y414422D01*
X218644Y397060D02*
X235720D01*
X168558Y481084D02*
X202996D01*
X168558Y414422D02*
Y481084D01*
Y414422D02*
X185920Y397060D01*
X202996D01*
X536227Y450544D02*
X536427Y424180D01*
X482858D02*
X536427D01*
X468914Y438125D02*
X482858Y424180D01*
X468914Y438125D02*
X469047Y451079D01*
X536365Y465014D02*
X536432Y491698D01*
X482870D02*
X536432D01*
X468909Y477737D02*
X482870Y491698D01*
X468909Y464795D02*
Y477737D01*
D14*
X537700Y410020D02*
Y418020D01*
Y351600D02*
Y359600D01*
X428170Y428920D02*
Y495920D01*
X391170Y428920D02*
X428170D01*
X391170D02*
Y495920D01*
X428170D01*
X316040Y374160D02*
X324040D01*
X266280Y414680D02*
Y418680D01*
X264280D02*
X266280D01*
X277280D02*
X279280D01*
X277280Y414680D02*
Y418680D01*
X279280Y414680D02*
Y433680D01*
X264280Y414680D02*
Y433680D01*
X277280D02*
X279280D01*
X277280Y414680D02*
X279280D01*
X264280Y433680D02*
X266280D01*
X264280Y414680D02*
X266280D01*
X181120Y379540D02*
Y387540D01*
X57404Y258140D02*
X108204D01*
X57404Y207340D02*
Y258140D01*
X108204Y207340D02*
Y258140D01*
X57404Y207340D02*
X108204D01*
X162306Y258140D02*
X213106D01*
X162306Y207340D02*
Y258140D01*
X213106Y207340D02*
Y258140D01*
X162306Y207340D02*
X213106D01*
X280416D02*
Y258140D01*
X407416Y207340D02*
Y258140D01*
X280416Y207340D02*
X407416D01*
X280416Y258140D02*
X407416D01*
X442468D02*
X491151D01*
X442468D02*
X518668D01*
X442468Y207340D02*
X518668D01*
Y258140D01*
X442468Y207340D02*
Y258140D01*
X600541Y207340D02*
X649224D01*
X573024D02*
X649224D01*
X573024Y258140D02*
X649224D01*
X573024Y207340D02*
Y258140D01*
X649224Y207340D02*
Y258140D01*
X30480Y642696D02*
X79163D01*
X30480D02*
X106680D01*
X30480Y591896D02*
X106680D01*
Y642696D01*
X30480Y591896D02*
Y642696D01*
X188571Y591896D02*
X237254D01*
X161054D02*
X237254D01*
X161054Y642696D02*
X237254D01*
X161054Y591896D02*
Y642696D01*
X237254Y591896D02*
Y642696D01*
X398780Y591896D02*
Y642696D01*
X271780Y591896D02*
Y642696D01*
X398780D01*
X271780Y591896D02*
X398780D01*
X465836D02*
X516636D01*
Y642696D01*
X465836Y591896D02*
Y642696D01*
X516636D01*
X571500Y591896D02*
X622300D01*
Y642696D01*
X571500Y591896D02*
Y642696D01*
X622300D01*
X246380Y506730D02*
Y557530D01*
X474980Y506730D02*
Y557530D01*
X246380Y506730D02*
X474980D01*
X246380Y557530D02*
X474980D01*
X165100Y337820D02*
X241300D01*
Y363220D01*
X165100D02*
X241300D01*
X165100Y337820D02*
Y363220D01*
X346520Y491980D02*
X354520D01*
X542100Y400540D02*
X550100D01*
X346520Y414800D02*
X354520D01*
D15*
X457110Y411990D02*
X457110Y371990D01*
X499110D02*
X499110Y411990D01*
X40640Y5080D02*
Y16506D01*
X48257Y5080D01*
Y16506D01*
X57779D02*
X53971D01*
X52066Y14602D01*
Y6984D01*
X53971Y5080D01*
X57779D01*
X59684Y6984D01*
Y14602D01*
X57779Y16506D01*
X69206Y5080D02*
Y16506D01*
X63493Y10793D01*
X71110D01*
X93963Y14602D02*
X92058Y16506D01*
X88250D01*
X86345Y14602D01*
Y6984D01*
X88250Y5080D01*
X92058D01*
X93963Y6984D01*
X103485Y16506D02*
X99676D01*
X97772Y14602D01*
Y6984D01*
X99676Y5080D01*
X103485D01*
X105389Y6984D01*
Y14602D01*
X103485Y16506D01*
X109198Y5080D02*
Y16506D01*
X113007Y12697D01*
X116815Y16506D01*
Y5080D01*
X126337D02*
Y16506D01*
X120624Y10793D01*
X128242D01*
X143477Y5080D02*
Y16506D01*
X151094Y5080D01*
Y16506D01*
X160616D02*
X156808D01*
X154903Y14602D01*
Y6984D01*
X156808Y5080D01*
X160616D01*
X162521Y6984D01*
Y14602D01*
X160616Y16506D01*
X166329Y14602D02*
X168234Y16506D01*
X172043D01*
X173947Y14602D01*
Y12697D01*
X172043Y10793D01*
X170138D01*
X172043D01*
X173947Y8889D01*
Y6984D01*
X172043Y5080D01*
X168234D01*
X166329Y6984D01*
X196800Y14602D02*
X194895Y16506D01*
X191087D01*
X189182Y14602D01*
Y6984D01*
X191087Y5080D01*
X194895D01*
X196800Y6984D01*
X206322Y16506D02*
X202513D01*
X200608Y14602D01*
Y6984D01*
X202513Y5080D01*
X206322D01*
X208226Y6984D01*
Y14602D01*
X206322Y16506D01*
X212035Y5080D02*
Y16506D01*
X215844Y12697D01*
X219652Y16506D01*
Y5080D01*
X223461Y14602D02*
X225366Y16506D01*
X229174D01*
X231079Y14602D01*
Y12697D01*
X229174Y10793D01*
X227270D01*
X229174D01*
X231079Y8889D01*
Y6984D01*
X229174Y5080D01*
X225366D01*
X223461Y6984D01*
X403860Y5080D02*
Y16506D01*
X411478Y5080D01*
Y16506D01*
X422904Y14602D02*
X420999Y16506D01*
X417191D01*
X415286Y14602D01*
Y6984D01*
X417191Y5080D01*
X420999D01*
X422904Y6984D01*
X426713Y5080D02*
X430521D01*
X428617D01*
Y16506D01*
X426713Y14602D01*
X455278D02*
X453374Y16506D01*
X449565D01*
X447661Y14602D01*
Y6984D01*
X449565Y5080D01*
X453374D01*
X455278Y6984D01*
X464800Y16506D02*
X460992D01*
X459087Y14602D01*
Y6984D01*
X460992Y5080D01*
X464800D01*
X466705Y6984D01*
Y14602D01*
X464800Y16506D01*
X470513Y5080D02*
Y16506D01*
X474322Y12697D01*
X478131Y16506D01*
Y5080D01*
X481940D02*
X485749D01*
X483844D01*
Y16506D01*
X481940Y14602D01*
X502888Y5080D02*
Y16506D01*
X510506Y5080D01*
Y16506D01*
X520028D02*
X516219D01*
X514314Y14602D01*
Y6984D01*
X516219Y5080D01*
X520028D01*
X521932Y6984D01*
Y14602D01*
X520028Y16506D01*
X525741Y5080D02*
X529549D01*
X527645D01*
Y16506D01*
X525741Y14602D01*
X548640Y10793D02*
X556258D01*
X552449Y14602D02*
Y6984D01*
X560066Y5080D02*
X563875D01*
X561971D01*
Y16506D01*
X560066Y14602D01*
X577206Y5080D02*
X569588D01*
X577206Y12697D01*
Y14602D01*
X575301Y16506D01*
X571493D01*
X569588Y14602D01*
X581015Y16506D02*
Y8889D01*
X584823Y5080D01*
X588632Y8889D01*
Y16506D01*
X611485Y14602D02*
X609580Y16506D01*
X605772D01*
X603867Y14602D01*
Y6984D01*
X605772Y5080D01*
X609580D01*
X611485Y6984D01*
Y10793D01*
X607676D01*
X615294Y5080D02*
Y16506D01*
X622911Y5080D01*
Y16506D01*
X626720D02*
Y5080D01*
X632433D01*
X634337Y6984D01*
Y14602D01*
X632433Y16506D01*
X626720D01*
X249472Y5080D02*
Y16506D01*
X257090Y5080D01*
Y16506D01*
X266612D02*
X262803D01*
X260899Y14602D01*
Y6984D01*
X262803Y5080D01*
X266612D01*
X268516Y6984D01*
Y14602D01*
X266612Y16506D01*
X279942Y5080D02*
X272325D01*
X279942Y12697D01*
Y14602D01*
X278038Y16506D01*
X274229D01*
X272325Y14602D01*
X302795D02*
X300891Y16506D01*
X297082D01*
X295178Y14602D01*
Y6984D01*
X297082Y5080D01*
X300891D01*
X302795Y6984D01*
X312317Y16506D02*
X308508D01*
X306604Y14602D01*
Y6984D01*
X308508Y5080D01*
X312317D01*
X314221Y6984D01*
Y14602D01*
X312317Y16506D01*
X318030Y5080D02*
Y16506D01*
X321839Y12697D01*
X325648Y16506D01*
Y5080D01*
X337074D02*
X329457D01*
X337074Y12697D01*
Y14602D01*
X335170Y16506D01*
X331361D01*
X329457Y14602D01*
X352309Y5080D02*
Y16506D01*
X359927Y5080D01*
Y16506D01*
X371353Y14602D02*
X369449Y16506D01*
X365640D01*
X363736Y14602D01*
Y6984D01*
X365640Y5080D01*
X369449D01*
X371353Y6984D01*
X382779Y5080D02*
X375162D01*
X382779Y12697D01*
Y14602D01*
X380875Y16506D01*
X377066D01*
X375162Y14602D01*
X535940Y843280D02*
Y831854D01*
X528322Y843280D01*
Y831854D01*
X518801D02*
X522609D01*
X524514Y833758D01*
Y841376D01*
X522609Y843280D01*
X518801D01*
X516896Y841376D01*
Y833758D01*
X518801Y831854D01*
X513087Y833758D02*
X511183Y831854D01*
X507374D01*
X505470Y833758D01*
Y835663D01*
X507374Y837567D01*
X505470Y839471D01*
Y841376D01*
X507374Y843280D01*
X511183D01*
X513087Y841376D01*
Y839471D01*
X511183Y837567D01*
X513087Y835663D01*
Y833758D01*
X511183Y837567D02*
X507374D01*
X482617Y833758D02*
X484522Y831854D01*
X488330D01*
X490235Y833758D01*
Y841376D01*
X488330Y843280D01*
X484522D01*
X482617Y841376D01*
X473095Y831854D02*
X476904D01*
X478808Y833758D01*
Y841376D01*
X476904Y843280D01*
X473095D01*
X471191Y841376D01*
Y833758D01*
X473095Y831854D01*
X467382Y843280D02*
Y831854D01*
X463573Y835663D01*
X459765Y831854D01*
Y843280D01*
X455956Y833758D02*
X454051Y831854D01*
X450243D01*
X448338Y833758D01*
Y835663D01*
X450243Y837567D01*
X448338Y839471D01*
Y841376D01*
X450243Y843280D01*
X454051D01*
X455956Y841376D01*
Y839471D01*
X454051Y837567D01*
X455956Y835663D01*
Y833758D01*
X454051Y837567D02*
X450243D01*
X433103Y843280D02*
Y831854D01*
X425486Y843280D01*
Y831854D01*
X415964D02*
X419772D01*
X421677Y833758D01*
Y841376D01*
X419772Y843280D01*
X415964D01*
X414059Y841376D01*
Y833758D01*
X415964Y831854D01*
X410251D02*
X402633D01*
Y833758D01*
X410251Y841376D01*
Y843280D01*
X379780Y833758D02*
X381685Y831854D01*
X385494D01*
X387398Y833758D01*
Y841376D01*
X385494Y843280D01*
X381685D01*
X379780Y841376D01*
X370258Y831854D02*
X374067D01*
X375972Y833758D01*
Y841376D01*
X374067Y843280D01*
X370258D01*
X368354Y841376D01*
Y833758D01*
X370258Y831854D01*
X364545Y843280D02*
Y831854D01*
X360737Y835663D01*
X356928Y831854D01*
Y843280D01*
X353119Y831854D02*
X345501D01*
Y833758D01*
X353119Y841376D01*
Y843280D01*
X333625D02*
Y831854D01*
X326008Y843280D01*
Y831854D01*
X316486D02*
X320295D01*
X322199Y833758D01*
Y841376D01*
X320295Y843280D01*
X316486D01*
X314582Y841376D01*
Y833758D01*
X316486Y831854D01*
X303155D02*
X306964Y833758D01*
X310773Y837567D01*
Y841376D01*
X308868Y843280D01*
X305060D01*
X303155Y841376D01*
Y839471D01*
X305060Y837567D01*
X310773D01*
X280303Y833758D02*
X282207Y831854D01*
X286016D01*
X287920Y833758D01*
Y841376D01*
X286016Y843280D01*
X282207D01*
X280303Y841376D01*
X270781Y831854D02*
X274589D01*
X276494Y833758D01*
Y841376D01*
X274589Y843280D01*
X270781D01*
X268876Y841376D01*
Y833758D01*
X270781Y831854D01*
X265068Y843280D02*
Y831854D01*
X261259Y835663D01*
X257450Y831854D01*
Y843280D01*
X246024Y831854D02*
X249832Y833758D01*
X253641Y837567D01*
Y841376D01*
X251737Y843280D01*
X247928D01*
X246024Y841376D01*
Y839471D01*
X247928Y837567D01*
X253641D01*
X230789Y843280D02*
Y831854D01*
X223171Y843280D01*
Y831854D01*
X211745Y833758D02*
X213649Y831854D01*
X217458D01*
X219362Y833758D01*
Y841376D01*
X217458Y843280D01*
X213649D01*
X211745Y841376D01*
X200318Y831854D02*
X204127Y833758D01*
X207936Y837567D01*
Y841376D01*
X206031Y843280D01*
X202223D01*
X200318Y841376D01*
Y839471D01*
X202223Y837567D01*
X207936D01*
X180340Y843280D02*
Y831854D01*
X172722Y843280D01*
Y831854D01*
X161296Y833758D02*
X163200Y831854D01*
X167009D01*
X168914Y833758D01*
Y841376D01*
X167009Y843280D01*
X163200D01*
X161296Y841376D01*
X149870Y831854D02*
X157487D01*
Y837567D01*
X153679Y835663D01*
X151774D01*
X149870Y837567D01*
Y841376D01*
X151774Y843280D01*
X155583D01*
X157487Y841376D01*
X127017Y833758D02*
X128922Y831854D01*
X132730D01*
X134635Y833758D01*
Y841376D01*
X132730Y843280D01*
X128922D01*
X127017Y841376D01*
X117495Y831854D02*
X121304D01*
X123208Y833758D01*
Y841376D01*
X121304Y843280D01*
X117495D01*
X115591Y841376D01*
Y833758D01*
X117495Y831854D01*
X111782Y843280D02*
Y831854D01*
X107973Y835663D01*
X104165Y831854D01*
Y843280D01*
X92738Y831854D02*
X100356D01*
Y837567D01*
X96547Y835663D01*
X94643D01*
X92738Y837567D01*
Y841376D01*
X94643Y843280D01*
X98451D01*
X100356Y841376D01*
X77503Y843280D02*
Y831854D01*
X69886Y843280D01*
Y831854D01*
X60364D02*
X64172D01*
X66077Y833758D01*
Y841376D01*
X64172Y843280D01*
X60364D01*
X58459Y841376D01*
Y833758D01*
X60364Y831854D01*
X47033D02*
X54651D01*
Y837567D01*
X50842Y835663D01*
X48937D01*
X47033Y837567D01*
Y841376D01*
X48937Y843280D01*
X52746D01*
X54651Y841376D01*
X640080Y843280D02*
Y836509D01*
X636694Y833123D01*
X633309Y836509D01*
Y843280D01*
Y838202D01*
X640080D01*
X619767Y843280D02*
Y833123D01*
X614688D01*
X612995Y834816D01*
Y838202D01*
X614688Y839894D01*
X619767D01*
X616381D02*
X612995Y843280D01*
X602839Y834816D02*
X604532Y833123D01*
X607917D01*
X609610Y834816D01*
Y836509D01*
X607917Y838202D01*
X604532D01*
X602839Y839894D01*
Y841587D01*
X604532Y843280D01*
X607917D01*
X609610Y841587D01*
X594375Y843280D02*
Y833123D01*
X599453Y838202D01*
X592682D01*
X589296Y834816D02*
X587604Y833123D01*
X584218D01*
X582525Y834816D01*
Y836509D01*
X584218Y838202D01*
X582525Y839894D01*
Y841587D01*
X584218Y843280D01*
X587604D01*
X589296Y841587D01*
Y839894D01*
X587604Y838202D01*
X589296Y836509D01*
Y834816D01*
X587604Y838202D02*
X584218D01*
X572369Y833123D02*
X579140D01*
Y838202D01*
X575754Y836509D01*
X574061D01*
X572369Y838202D01*
Y841587D01*
X574061Y843280D01*
X577447D01*
X579140Y841587D01*
X558826Y833123D02*
Y843280D01*
X553748D01*
X552055Y841587D01*
Y839894D01*
X553748Y838202D01*
X558826D01*
X553748D01*
X552055Y836509D01*
Y834816D01*
X553748Y833123D01*
X558826D01*
D16*
X285590Y449142D02*
X320590D01*
X285592Y485140D02*
X320591D01*
D17*
X54864Y246288D02*
X54018Y245442D01*
X52325D01*
X51478Y246288D01*
Y247135D01*
X52325Y247981D01*
X53171D01*
X52325D01*
X51478Y248827D01*
Y249674D01*
X52325Y250520D01*
X54018D01*
X54864Y249674D01*
X52325Y225120D02*
Y220042D01*
X54864Y222581D01*
X51478D01*
X117518Y225120D02*
X120904D01*
X117518Y221735D01*
Y220888D01*
X118365Y220042D01*
X120058D01*
X120904Y220888D01*
X115824Y250520D02*
X114131D01*
X114978D01*
Y245442D01*
X115824Y246288D01*
X159766D02*
X158920Y245442D01*
X157227D01*
X156380Y246288D01*
Y247135D01*
X157227Y247981D01*
X158073D01*
X157227D01*
X156380Y248827D01*
Y249674D01*
X157227Y250520D01*
X158920D01*
X159766Y249674D01*
X157227Y225120D02*
Y220042D01*
X159766Y222581D01*
X156380D01*
X222420Y225120D02*
X225806D01*
X222420Y221735D01*
Y220888D01*
X223267Y220042D01*
X224960D01*
X225806Y220888D01*
X220726Y250520D02*
X219033D01*
X219880D01*
Y245442D01*
X220726Y246288D01*
X416730Y225120D02*
X420116D01*
X416730Y221735D01*
Y220888D01*
X417577Y220042D01*
X419270D01*
X420116Y220888D01*
X415036Y250520D02*
X413343D01*
X414190D01*
Y245442D01*
X415036Y246288D01*
X277876Y249674D02*
X277030Y250520D01*
X275337D01*
X274490Y249674D01*
Y246288D01*
X275337Y245442D01*
X277030D01*
X277876Y246288D01*
Y247135D01*
X277030Y247981D01*
X274490D01*
X277876Y225120D02*
X276183D01*
X277030D01*
Y220042D01*
X277876Y220888D01*
X273644D02*
X272798Y220042D01*
X271105D01*
X270259Y220888D01*
Y224274D01*
X271105Y225120D01*
X272798D01*
X273644Y224274D01*
Y220888D01*
X526288Y250520D02*
X524595D01*
X525442D01*
Y245442D01*
X526288Y246288D01*
X527982Y225120D02*
X531368D01*
X527982Y221735D01*
Y220888D01*
X528829Y220042D01*
X530522D01*
X531368Y220888D01*
X436542Y245442D02*
X439928D01*
Y247981D01*
X438235Y247135D01*
X437389D01*
X436542Y247981D01*
Y249674D01*
X437389Y250520D01*
X439082D01*
X439928Y249674D01*
X436542Y220042D02*
X438235Y220888D01*
X439928Y222581D01*
Y224274D01*
X439082Y225120D01*
X437389D01*
X436542Y224274D01*
Y223427D01*
X437389Y222581D01*
X439928D01*
X565404Y214960D02*
X567097D01*
X566250D01*
Y220039D01*
X565404Y219192D01*
X563710Y240360D02*
X560324D01*
X563710Y243746D01*
Y244592D01*
X562863Y245438D01*
X561170D01*
X560324Y244592D01*
X655150Y220039D02*
X651764D01*
Y217499D01*
X653457Y218346D01*
X654303D01*
X655150Y217499D01*
Y215807D01*
X654303Y214960D01*
X652610D01*
X651764Y215807D01*
X655150Y245438D02*
X653457Y244592D01*
X651764Y242899D01*
Y241207D01*
X652610Y240360D01*
X654303D01*
X655150Y241207D01*
Y242053D01*
X654303Y242899D01*
X651764D01*
X114300Y635076D02*
X112607D01*
X113454D01*
Y629998D01*
X114300Y630844D01*
X115994Y609676D02*
X119380D01*
X115994Y606291D01*
Y605444D01*
X116841Y604598D01*
X118534D01*
X119380Y605444D01*
X24554Y629998D02*
X27940D01*
Y632537D01*
X26247Y631691D01*
X25401D01*
X24554Y632537D01*
Y634230D01*
X25401Y635076D01*
X27094D01*
X27940Y634230D01*
X24554Y604598D02*
X26247Y605444D01*
X27940Y607137D01*
Y608830D01*
X27094Y609676D01*
X25401D01*
X24554Y608830D01*
Y607983D01*
X25401Y607137D01*
X27940D01*
X153434Y599516D02*
X155127D01*
X154280D01*
Y604594D01*
X153434Y603748D01*
X151740Y624916D02*
X148354D01*
X151740Y628302D01*
Y629148D01*
X150893Y629995D01*
X149200D01*
X148354Y629148D01*
X243179Y604594D02*
X239794D01*
Y602055D01*
X241487Y602902D01*
X242333D01*
X243179Y602055D01*
Y600363D01*
X242333Y599516D01*
X240640D01*
X239794Y600363D01*
X243179Y629995D02*
X241487Y629148D01*
X239794Y627455D01*
Y625763D01*
X240640Y624916D01*
X242333D01*
X243179Y625763D01*
Y626609D01*
X242333Y627455D01*
X239794D01*
X262466Y624916D02*
X259080D01*
X262466Y628302D01*
Y629148D01*
X261619Y629995D01*
X259926D01*
X259080Y629148D01*
X264160Y599516D02*
X265853D01*
X265006D01*
Y604594D01*
X264160Y603748D01*
X401320Y600363D02*
X402166Y599516D01*
X403859D01*
X404706Y600363D01*
Y603748D01*
X403859Y604594D01*
X402166D01*
X401320Y603748D01*
Y602902D01*
X402166Y602055D01*
X404706D01*
X401320Y624916D02*
X403013D01*
X402166D01*
Y629995D01*
X401320Y629148D01*
X405552D02*
X406398Y629995D01*
X408091D01*
X408937Y629148D01*
Y625763D01*
X408091Y624916D01*
X406398D01*
X405552Y625763D01*
Y629148D01*
X519176Y603748D02*
X520022Y604594D01*
X521715D01*
X522562Y603748D01*
Y602902D01*
X521715Y602055D01*
X520869D01*
X521715D01*
X522562Y601209D01*
Y600363D01*
X521715Y599516D01*
X520022D01*
X519176Y600363D01*
X521715Y624916D02*
Y629995D01*
X519176Y627455D01*
X522562D01*
X456522Y624916D02*
X453136D01*
X456522Y628302D01*
Y629148D01*
X455675Y629995D01*
X453982D01*
X453136Y629148D01*
X458216Y599516D02*
X459909D01*
X459062D01*
Y604594D01*
X458216Y603748D01*
X624840D02*
X625686Y604594D01*
X627379D01*
X628226Y603748D01*
Y602902D01*
X627379Y602055D01*
X626533D01*
X627379D01*
X628226Y601209D01*
Y600363D01*
X627379Y599516D01*
X625686D01*
X624840Y600363D01*
X627379Y624916D02*
Y629995D01*
X624840Y627455D01*
X628226D01*
X562186Y624916D02*
X558800D01*
X562186Y628302D01*
Y629148D01*
X561339Y629995D01*
X559646D01*
X558800Y629148D01*
X563880Y599516D02*
X565573D01*
X564726D01*
Y604594D01*
X563880Y603748D01*
X483446Y515620D02*
X480060D01*
X483446Y519006D01*
Y519852D01*
X482599Y520698D01*
X480906D01*
X480060Y519852D01*
Y543560D02*
X481753D01*
X480906D01*
Y548638D01*
X480060Y547792D01*
X233680Y543560D02*
X235373D01*
X234526D01*
Y548638D01*
X233680Y547792D01*
X237912Y548638D02*
X241297D01*
Y547792D01*
X237912Y544406D01*
Y543560D01*
X233680Y518160D02*
X235373D01*
X234526D01*
Y523238D01*
X233680Y522392D01*
X237912D02*
X238758Y523238D01*
X240451D01*
X241297Y522392D01*
Y521546D01*
X240451Y520699D01*
X241297Y519853D01*
Y519006D01*
X240451Y518160D01*
X238758D01*
X237912Y519006D01*
Y519853D01*
X238758Y520699D01*
X237912Y521546D01*
Y522392D01*
X238758Y520699D02*
X240451D01*
X165948Y327661D02*
Y332739D01*
X168487D01*
X169334Y331893D01*
Y330200D01*
X168487Y329354D01*
X165948D01*
X171026Y331893D02*
X171873Y332739D01*
X173566D01*
X174412Y331893D01*
Y331046D01*
X173566Y330200D01*
X172719D01*
X173566D01*
X174412Y329354D01*
Y328507D01*
X173566Y327661D01*
X171873D01*
X171026Y328507D01*
X419948Y502919D02*
Y498687D01*
X420794Y497841D01*
X422487D01*
X423334Y498687D01*
Y502919D01*
X425026Y498687D02*
X425873Y497841D01*
X427566D01*
X428412Y498687D01*
Y502073D01*
X427566Y502919D01*
X425873D01*
X425026Y502073D01*
Y501226D01*
X425873Y500380D01*
X428412D01*
X541868Y365759D02*
Y361527D01*
X542715Y360681D01*
X544407D01*
X545254Y361527D01*
Y365759D01*
X546946Y364913D02*
X547793Y365759D01*
X549486D01*
X550332Y364913D01*
Y364066D01*
X549486Y363220D01*
X550332Y362374D01*
Y361527D01*
X549486Y360681D01*
X547793D01*
X546946Y361527D01*
Y362374D01*
X547793Y363220D01*
X546946Y364066D01*
Y364913D01*
X547793Y363220D02*
X549486D01*
X331048Y436879D02*
Y432647D01*
X331894Y431801D01*
X333587D01*
X334434Y432647D01*
Y436879D01*
X336126D02*
X339512D01*
Y436033D01*
X336126Y432647D01*
Y431801D01*
X54188Y360679D02*
Y356447D01*
X55034Y355601D01*
X56727D01*
X57574Y356447D01*
Y360679D01*
X62652Y355601D02*
X59266D01*
X62652Y358986D01*
Y359833D01*
X61806Y360679D01*
X60113D01*
X59266Y359833D01*
X298452Y365761D02*
Y370839D01*
X300991D01*
X301838Y369993D01*
Y368300D01*
X300991Y367454D01*
X298452D01*
X300145D02*
X301838Y365761D01*
X303530D02*
X305223D01*
X304377D01*
Y370839D01*
X303530Y369993D01*
X307762Y370839D02*
X311148D01*
Y369993D01*
X307762Y366607D01*
Y365761D01*
X278132D02*
Y370839D01*
X280671D01*
X281518Y369993D01*
Y368300D01*
X280671Y367454D01*
X278132D01*
X279825D02*
X281518Y365761D01*
X283210D02*
X284903D01*
X284057D01*
Y370839D01*
X283210Y369993D01*
X290828Y370839D02*
X289135Y369993D01*
X287442Y368300D01*
Y366607D01*
X288289Y365761D01*
X289982D01*
X290828Y366607D01*
Y367454D01*
X289982Y368300D01*
X287442D01*
X612988Y736601D02*
Y741679D01*
X615527D01*
X616374Y740833D01*
Y739140D01*
X615527Y738294D01*
X612988D01*
X614681D02*
X616374Y736601D01*
X618066Y740833D02*
X618913Y741679D01*
X620606D01*
X621452Y740833D01*
Y739986D01*
X620606Y739140D01*
X619759D01*
X620606D01*
X621452Y738294D01*
Y737447D01*
X620606Y736601D01*
X618913D01*
X618066Y737447D01*
X272629Y581661D02*
Y586739D01*
X275168D01*
X276014Y585893D01*
Y584200D01*
X275168Y583354D01*
X272629D01*
X277707Y585893D02*
X278554Y586739D01*
X280246D01*
X281093Y585893D01*
Y585046D01*
X280246Y584200D01*
X279400D01*
X280246D01*
X281093Y583354D01*
Y582507D01*
X280246Y581661D01*
X278554D01*
X277707Y582507D01*
X282786Y585893D02*
X283632Y586739D01*
X285325D01*
X286171Y585893D01*
Y585046D01*
X285325Y584200D01*
X284478D01*
X285325D01*
X286171Y583354D01*
Y582507D01*
X285325Y581661D01*
X283632D01*
X282786Y582507D01*
X448735Y739141D02*
Y744219D01*
X451274D01*
X452121Y743373D01*
Y741680D01*
X451274Y740834D01*
X448735D01*
X453814Y743373D02*
X454660Y744219D01*
X456353D01*
X457199Y743373D01*
Y742526D01*
X456353Y741680D01*
X455506D01*
X456353D01*
X457199Y740834D01*
Y739987D01*
X456353Y739141D01*
X454660D01*
X453814Y739987D01*
X458892Y739141D02*
X460585D01*
X459738D01*
Y744219D01*
X458892Y743373D01*
X569809Y581661D02*
Y586739D01*
X572348D01*
X573194Y585893D01*
Y584200D01*
X572348Y583354D01*
X569809D01*
X574887Y585893D02*
X575734Y586739D01*
X577426D01*
X578273Y585893D01*
Y585046D01*
X577426Y584200D01*
X576580D01*
X577426D01*
X578273Y583354D01*
Y582507D01*
X577426Y581661D01*
X575734D01*
X574887Y582507D01*
X579966Y585893D02*
X580812Y586739D01*
X582505D01*
X583351Y585893D01*
Y582507D01*
X582505Y581661D01*
X580812D01*
X579966Y582507D01*
Y585893D01*
X465669Y581661D02*
Y586739D01*
X468208D01*
X469054Y585893D01*
Y584200D01*
X468208Y583354D01*
X465669D01*
X474133Y581661D02*
X470747D01*
X474133Y585046D01*
Y585893D01*
X473286Y586739D01*
X471594D01*
X470747Y585893D01*
X475826D02*
X476672Y586739D01*
X478365D01*
X479211Y585893D01*
Y585046D01*
X478365Y584200D01*
X479211Y583354D01*
Y582507D01*
X478365Y581661D01*
X476672D01*
X475826Y582507D01*
Y583354D01*
X476672Y584200D01*
X475826Y585046D01*
Y585893D01*
X476672Y584200D02*
X478365D01*
X346289Y739141D02*
Y744219D01*
X348828D01*
X349674Y743373D01*
Y741680D01*
X348828Y740834D01*
X346289D01*
X354753Y739141D02*
X351367D01*
X354753Y742526D01*
Y743373D01*
X353906Y744219D01*
X352214D01*
X351367Y743373D01*
X356446Y744219D02*
X359831D01*
Y743373D01*
X356446Y739987D01*
Y739141D01*
X191349D02*
Y744219D01*
X193888D01*
X194734Y743373D01*
Y741680D01*
X193888Y740834D01*
X191349D01*
X199813Y739141D02*
X196427D01*
X199813Y742526D01*
Y743373D01*
X198966Y744219D01*
X197274D01*
X196427Y743373D01*
X204891Y744219D02*
X201506D01*
Y741680D01*
X203198Y742526D01*
X204045D01*
X204891Y741680D01*
Y739987D01*
X204045Y739141D01*
X202352D01*
X201506Y739987D01*
X160869Y581661D02*
Y586739D01*
X163408D01*
X164254Y585893D01*
Y584200D01*
X163408Y583354D01*
X160869D01*
X169333Y581661D02*
X165947D01*
X169333Y585046D01*
Y585893D01*
X168486Y586739D01*
X166794D01*
X165947Y585893D01*
X173565Y581661D02*
Y586739D01*
X171026Y584200D01*
X174411D01*
X38949Y739141D02*
Y744219D01*
X41488D01*
X42334Y743373D01*
Y741680D01*
X41488Y740834D01*
X38949D01*
X47413Y739141D02*
X44027D01*
X47413Y742526D01*
Y743373D01*
X46566Y744219D01*
X44874D01*
X44027Y743373D01*
X52491Y739141D02*
X49106D01*
X52491Y742526D01*
Y743373D01*
X51645Y744219D01*
X49952D01*
X49106Y743373D01*
X29635Y581661D02*
Y586739D01*
X32174D01*
X33021Y585893D01*
Y584200D01*
X32174Y583354D01*
X29635D01*
X38099Y581661D02*
X34714D01*
X38099Y585046D01*
Y585893D01*
X37253Y586739D01*
X35560D01*
X34714Y585893D01*
X39792Y581661D02*
X41485D01*
X40638D01*
Y586739D01*
X39792Y585893D01*
X280672Y264161D02*
Y269239D01*
X283211D01*
X284058Y268393D01*
Y266700D01*
X283211Y265854D01*
X280672D01*
X285750Y264161D02*
X287443D01*
X286597D01*
Y269239D01*
X285750Y268393D01*
X289982Y265007D02*
X290829Y264161D01*
X292522D01*
X293368Y265007D01*
Y268393D01*
X292522Y269239D01*
X290829D01*
X289982Y268393D01*
Y267546D01*
X290829Y266700D01*
X293368D01*
X35052Y106680D02*
Y111758D01*
X37591D01*
X38438Y110912D01*
Y109219D01*
X37591Y108373D01*
X35052D01*
X40130Y106680D02*
X41823D01*
X40977D01*
Y111758D01*
X40130Y110912D01*
X44362Y111758D02*
X47748D01*
Y110912D01*
X44362Y107526D01*
Y106680D01*
X57152Y264161D02*
Y269239D01*
X59691D01*
X60538Y268393D01*
Y266700D01*
X59691Y265854D01*
X57152D01*
X62230Y264161D02*
X63923D01*
X63077D01*
Y269239D01*
X62230Y268393D01*
X69848Y269239D02*
X68155Y268393D01*
X66462Y266700D01*
Y265007D01*
X67309Y264161D01*
X69002D01*
X69848Y265007D01*
Y265854D01*
X69002Y266700D01*
X66462D01*
X136398Y106680D02*
Y111758D01*
X138937D01*
X139784Y110912D01*
Y109219D01*
X138937Y108373D01*
X136398D01*
X141476Y106680D02*
X143169D01*
X142323D01*
Y111758D01*
X141476Y110912D01*
X148247Y106680D02*
Y111758D01*
X145708Y109219D01*
X149094D01*
X161292Y264161D02*
Y269239D01*
X163831D01*
X164678Y268393D01*
Y266700D01*
X163831Y265854D01*
X161292D01*
X166370Y264161D02*
X168063D01*
X167217D01*
Y269239D01*
X166370Y268393D01*
X170602D02*
X171449Y269239D01*
X173142D01*
X173988Y268393D01*
Y267546D01*
X173142Y266700D01*
X172295D01*
X173142D01*
X173988Y265854D01*
Y265007D01*
X173142Y264161D01*
X171449D01*
X170602Y265007D01*
X237744Y106680D02*
Y111758D01*
X240283D01*
X241130Y110912D01*
Y109219D01*
X240283Y108373D01*
X237744D01*
X242822Y106680D02*
X244515D01*
X243669D01*
Y111758D01*
X242822Y110912D01*
X247054Y106680D02*
X248747D01*
X247901D01*
Y111758D01*
X247054Y110912D01*
X443232Y264161D02*
Y269239D01*
X445771D01*
X446618Y268393D01*
Y266700D01*
X445771Y265854D01*
X443232D01*
X448310Y264161D02*
X450003D01*
X449157D01*
Y269239D01*
X448310Y268393D01*
X452542D02*
X453389Y269239D01*
X455082D01*
X455928Y268393D01*
Y265007D01*
X455082Y264161D01*
X453389D01*
X452542Y265007D01*
Y268393D01*
X390398Y106680D02*
Y111758D01*
X392937D01*
X393784Y110912D01*
Y109219D01*
X392937Y108373D01*
X390398D01*
X395476Y110912D02*
X396323Y111758D01*
X398016D01*
X398862Y110912D01*
Y110066D01*
X398016Y109219D01*
X398862Y108373D01*
Y107526D01*
X398016Y106680D01*
X396323D01*
X395476Y107526D01*
Y108373D01*
X396323Y109219D01*
X395476Y110066D01*
Y110912D01*
X396323Y109219D02*
X398016D01*
X572348Y264161D02*
Y269239D01*
X574887D01*
X575734Y268393D01*
Y266700D01*
X574887Y265854D01*
X572348D01*
X577426Y269239D02*
X580812D01*
Y268393D01*
X577426Y265007D01*
Y264161D01*
X542798Y106680D02*
Y111758D01*
X545337D01*
X546184Y110912D01*
Y109219D01*
X545337Y108373D01*
X542798D01*
X551262Y111758D02*
X547876D01*
Y109219D01*
X549569Y110066D01*
X550415D01*
X551262Y109219D01*
Y107526D01*
X550415Y106680D01*
X548723D01*
X547876Y107526D01*
X247228Y563881D02*
Y568959D01*
X249767D01*
X250614Y568113D01*
Y566420D01*
X249767Y565574D01*
X247228D01*
X254846Y563881D02*
Y568959D01*
X252306Y566420D01*
X255692D01*
X546948Y739141D02*
Y744219D01*
X549487D01*
X550334Y743373D01*
Y741680D01*
X549487Y740834D01*
X546948D01*
X555412Y739141D02*
X552026D01*
X555412Y742526D01*
Y743373D01*
X554566Y744219D01*
X552873D01*
X552026Y743373D01*
X475828Y358139D02*
Y353061D01*
X479214D01*
X484292D02*
X480906D01*
X484292Y356446D01*
Y357293D01*
X483446Y358139D01*
X481753D01*
X480906Y357293D01*
X286174Y495299D02*
Y490221D01*
X289560D01*
X291253D02*
X292946D01*
X292099D01*
Y495299D01*
X291253Y494453D01*
X256541Y419948D02*
X261619D01*
Y422487D01*
X260773Y423334D01*
X257387D01*
X256541Y422487D01*
Y419948D01*
Y425026D02*
Y428412D01*
X257387D01*
X260773Y425026D01*
X261619D01*
X462618Y503088D02*
X461771Y503934D01*
X460078D01*
X459232Y503088D01*
Y499702D01*
X460078Y498856D01*
X461771D01*
X462618Y499702D01*
X467696Y498856D02*
X464310D01*
X467696Y502242D01*
Y503088D01*
X466850Y503934D01*
X465157D01*
X464310Y503088D01*
X469389D02*
X470235Y503934D01*
X471928D01*
X472774Y503088D01*
Y499702D01*
X471928Y498856D01*
X470235D01*
X469389Y499702D01*
Y503088D01*
X347558Y499533D02*
X346711Y500379D01*
X345019D01*
X344172Y499533D01*
Y496147D01*
X345019Y495301D01*
X346711D01*
X347558Y496147D01*
X349250Y495301D02*
X350943D01*
X350097D01*
Y500379D01*
X349250Y499533D01*
X353482Y496147D02*
X354329Y495301D01*
X356022D01*
X356868Y496147D01*
Y499533D01*
X356022Y500379D01*
X354329D01*
X353482Y499533D01*
Y498686D01*
X354329Y497840D01*
X356868D01*
X349080Y457368D02*
X348233Y458214D01*
X346540D01*
X345694Y457368D01*
Y453982D01*
X346540Y453136D01*
X348233D01*
X349080Y453982D01*
X350772Y453136D02*
X352465D01*
X351619D01*
Y458214D01*
X350772Y457368D01*
X355004D02*
X355851Y458214D01*
X357543D01*
X358390Y457368D01*
Y456522D01*
X357543Y455675D01*
X358390Y454829D01*
Y453982D01*
X357543Y453136D01*
X355851D01*
X355004Y453982D01*
Y454829D01*
X355851Y455675D01*
X355004Y456522D01*
Y457368D01*
X355851Y455675D02*
X357543D01*
X372958Y352213D02*
X372111Y353059D01*
X370419D01*
X369572Y352213D01*
Y348827D01*
X370419Y347981D01*
X372111D01*
X372958Y348827D01*
X374650Y347981D02*
X376343D01*
X375497D01*
Y353059D01*
X374650Y352213D01*
X378882Y353059D02*
X382268D01*
Y352213D01*
X378882Y348827D01*
Y347981D01*
X545678Y357293D02*
X544831Y358139D01*
X543139D01*
X542292Y357293D01*
Y353907D01*
X543139Y353061D01*
X544831D01*
X545678Y353907D01*
X547370Y353061D02*
X549063D01*
X548217D01*
Y358139D01*
X547370Y357293D01*
X554988Y358139D02*
X553295Y357293D01*
X551602Y355600D01*
Y353907D01*
X552449Y353061D01*
X554142D01*
X554988Y353907D01*
Y354754D01*
X554142Y355600D01*
X551602D01*
X544660Y412156D02*
X543813Y413002D01*
X542120D01*
X541274Y412156D01*
Y408770D01*
X542120Y407924D01*
X543813D01*
X544660Y408770D01*
X546352Y407924D02*
X548045D01*
X547199D01*
Y413002D01*
X546352Y412156D01*
X553970Y413002D02*
X550584D01*
Y410463D01*
X552277Y411310D01*
X553124D01*
X553970Y410463D01*
Y408770D01*
X553124Y407924D01*
X551431D01*
X550584Y408770D01*
X560918Y481753D02*
X560071Y482599D01*
X558378D01*
X557532Y481753D01*
Y478367D01*
X558378Y477521D01*
X560071D01*
X560918Y478367D01*
X562610Y477521D02*
X564303D01*
X563457D01*
Y482599D01*
X562610Y481753D01*
X569382Y477521D02*
Y482599D01*
X566842Y480060D01*
X570228D01*
X545006Y421649D02*
X544160Y422495D01*
X542467D01*
X541621Y421649D01*
Y418263D01*
X542467Y417417D01*
X544160D01*
X545006Y418263D01*
X546699Y417417D02*
X548392D01*
X547546D01*
Y422495D01*
X546699Y421649D01*
X550931D02*
X551777Y422495D01*
X553470D01*
X554317Y421649D01*
Y420802D01*
X553470Y419956D01*
X552624D01*
X553470D01*
X554317Y419110D01*
Y418263D01*
X553470Y417417D01*
X551777D01*
X550931Y418263D01*
X319618Y369993D02*
X318771Y370839D01*
X317078D01*
X316232Y369993D01*
Y366607D01*
X317078Y365761D01*
X318771D01*
X319618Y366607D01*
X321310Y365761D02*
X323003D01*
X322157D01*
Y370839D01*
X321310Y369993D01*
X328928Y365761D02*
X325542D01*
X328928Y369146D01*
Y369993D01*
X328082Y370839D01*
X326389D01*
X325542Y369993D01*
X168064Y385233D02*
X167218Y386079D01*
X165525D01*
X164678Y385233D01*
Y381847D01*
X165525Y381001D01*
X167218D01*
X168064Y381847D01*
X169757Y381001D02*
X171450D01*
X170603D01*
Y386079D01*
X169757Y385233D01*
X173989Y381001D02*
X175682D01*
X174835D01*
Y386079D01*
X173989Y385233D01*
X174838Y489373D02*
X173991Y490219D01*
X172299D01*
X171452Y489373D01*
Y485987D01*
X172299Y485141D01*
X173991D01*
X174838Y485987D01*
X176530Y485141D02*
X178223D01*
X177377D01*
Y490219D01*
X176530Y489373D01*
X180762D02*
X181609Y490219D01*
X183302D01*
X184148Y489373D01*
Y485987D01*
X183302Y485141D01*
X181609D01*
X180762Y485987D01*
Y489373D01*
M02*
