G04*
G04 #@! TF.GenerationSoftware,Altium Limited,Altium Designer,24.5.2 (23)*
G04*
G04 Layer_Physical_Order=2*
G04 Layer_Color=16711680*
%FSLAX44Y44*%
%MOMM*%
G71*
G04*
G04 #@! TF.SameCoordinates,B26EB2D3-40D5-4C0D-8AB9-A0D858DAE7C2*
G04*
G04*
G04 #@! TF.FilePolarity,Positive*
G04*
G01*
G75*
%ADD24C,0.5080*%
%ADD25C,1.5240*%
%ADD26R,1.5000X1.5000*%
%ADD27C,1.5000*%
%ADD28R,1.5000X1.5000*%
%ADD29C,1.5000*%
D24*
X480060Y206248D02*
Y274828D01*
X454660Y180848D02*
X480060Y206248D01*
X464820Y290068D02*
X480060Y274828D01*
X459740Y282448D02*
X469900Y272288D01*
X452120Y191008D02*
X469900Y208788D01*
Y272288D01*
X452120Y274828D02*
X459740Y267208D01*
X447040Y198628D02*
X459740Y211328D01*
Y267208D01*
X340360Y282448D02*
X459740D01*
X396240Y180848D02*
X454660D01*
X335280Y119888D02*
X396240Y180848D01*
X335280Y84328D02*
Y119888D01*
X327660Y124968D02*
X393700Y191008D01*
X452120D01*
X327660Y74168D02*
Y124968D01*
X388620Y198628D02*
X447040D01*
X320040Y130048D02*
X388620Y198628D01*
X320040Y69088D02*
Y130048D01*
X335280Y84328D02*
X345440Y74168D01*
X327660D02*
X337820Y64008D01*
X320040Y69088D02*
X335280Y53848D01*
X440182Y74168D02*
X482092Y32258D01*
X345440Y74168D02*
X440182D01*
X314960Y290068D02*
X464820D01*
X296520Y271628D02*
X314960Y290068D01*
X322580Y264668D02*
X340360Y282448D01*
X296520Y246228D02*
Y271628D01*
X284480Y234188D02*
X296520Y246228D01*
X424942Y64008D02*
X456692Y32258D01*
X337820Y64008D02*
X424942D01*
X335280Y53848D02*
X408940D01*
X411480Y51308D02*
X412242D01*
X431292Y32258D01*
X408940Y53848D02*
X411480Y51308D01*
X353060Y274828D02*
X452120D01*
X322580Y246888D02*
Y264668D01*
X309880Y234188D02*
X322580Y246888D01*
X347320Y269088D02*
X353060Y274828D01*
X347320Y246228D02*
Y269088D01*
X335280Y234188D02*
X347320Y246228D01*
X312420Y53848D02*
X334010Y32258D01*
X355092D01*
X312420Y53848D02*
Y135128D01*
X297180Y170688D02*
X360680Y234188D01*
X297180Y43688D02*
Y170688D01*
Y43688D02*
X330200Y10668D01*
X304800Y152908D02*
X386080Y234188D01*
X304800Y48768D02*
Y152908D01*
Y48768D02*
X335280Y18288D01*
X330200Y10668D02*
X384302D01*
X335280Y18288D02*
X366522D01*
X384302Y10668D02*
X405892Y32258D01*
X366522Y18288D02*
X380492Y32258D01*
X312420Y135128D02*
X411480Y234188D01*
D25*
X50652Y191918D02*
D03*
X95652D02*
D03*
X50652Y146918D02*
D03*
X95652D02*
D03*
X50652Y92858D02*
D03*
X95652D02*
D03*
X50652Y47858D02*
D03*
X95652D02*
D03*
D26*
X436880Y259588D02*
D03*
D27*
X233680Y234188D02*
D03*
Y259588D02*
D03*
X259080Y234188D02*
D03*
Y259588D02*
D03*
X284480Y234188D02*
D03*
Y259588D02*
D03*
X309880Y234188D02*
D03*
Y259588D02*
D03*
X335280Y234188D02*
D03*
Y259588D02*
D03*
X360680Y234188D02*
D03*
Y259588D02*
D03*
X386080Y234188D02*
D03*
Y259588D02*
D03*
X411480Y234188D02*
D03*
Y259588D02*
D03*
X436880Y234188D02*
D03*
X482092Y32258D02*
D03*
X355092Y108458D02*
D03*
X380492D02*
D03*
X405892D02*
D03*
X431292D02*
D03*
X456692D02*
D03*
X482092D02*
D03*
D28*
X355092Y32258D02*
D03*
D29*
X380492D02*
D03*
X405892D02*
D03*
X431292D02*
D03*
X456692D02*
D03*
M02*
