G04*
G04 #@! TF.GenerationSoftware,Altium Limited,Altium Designer,24.5.2 (23)*
G04*
G04 Layer_Color=12632256*
%FSLAX44Y44*%
%MOMM*%
G71*
G04*
G04 #@! TF.SameCoordinates,E6D3E557-3EFE-479C-B101-03A66C20DB95*
G04*
G04*
G04 #@! TF.FilePolarity,Positive*
G04*
G01*
G75*
%ADD56R,1.5000X1.5000*%
%ADD57C,1.5000*%
%ADD58C,2.5000*%
D56*
X95504Y245440D02*
D03*
X200406D02*
D03*
X394716D02*
D03*
X505968D02*
D03*
X585724Y220040D02*
D03*
X93980Y629996D02*
D03*
X173754Y604596D02*
D03*
X284480D02*
D03*
X478536D02*
D03*
X584200D02*
D03*
X462280Y544830D02*
D03*
X177800Y350520D02*
D03*
D57*
X95504Y220040D02*
D03*
X70104Y245440D02*
D03*
Y220040D02*
D03*
X200406D02*
D03*
X175006Y245440D02*
D03*
Y220040D02*
D03*
X394716D02*
D03*
X369316Y245440D02*
D03*
Y220040D02*
D03*
X343916Y245440D02*
D03*
Y220040D02*
D03*
X318516Y245440D02*
D03*
Y220040D02*
D03*
X293116Y245440D02*
D03*
Y220040D02*
D03*
X455168D02*
D03*
Y245440D02*
D03*
X480568Y220040D02*
D03*
Y245440D02*
D03*
X505968Y220040D02*
D03*
X636524Y245440D02*
D03*
Y220040D02*
D03*
X611124Y245440D02*
D03*
Y220040D02*
D03*
X585724Y245440D02*
D03*
X43180Y604596D02*
D03*
Y629996D02*
D03*
X68580Y604596D02*
D03*
Y629996D02*
D03*
X93980Y604596D02*
D03*
X224554Y629996D02*
D03*
Y604596D02*
D03*
X199154Y629996D02*
D03*
Y604596D02*
D03*
X173754Y629996D02*
D03*
X284480D02*
D03*
X309880Y604596D02*
D03*
Y629996D02*
D03*
X335280Y604596D02*
D03*
Y629996D02*
D03*
X360680Y604596D02*
D03*
Y629996D02*
D03*
X386080Y604596D02*
D03*
Y629996D02*
D03*
X478536D02*
D03*
X503936Y604596D02*
D03*
Y629996D02*
D03*
X584200D02*
D03*
X609600Y604596D02*
D03*
Y629996D02*
D03*
X462280Y519430D02*
D03*
X436880Y544830D02*
D03*
Y519430D02*
D03*
X411480Y544830D02*
D03*
Y519430D02*
D03*
X386080Y544830D02*
D03*
Y519430D02*
D03*
X360680Y544830D02*
D03*
Y519430D02*
D03*
X335280Y544830D02*
D03*
Y519430D02*
D03*
X309880Y544830D02*
D03*
Y519430D02*
D03*
X284480Y544830D02*
D03*
Y519430D02*
D03*
X259080Y544830D02*
D03*
Y519430D02*
D03*
X203200Y350520D02*
D03*
X228600D02*
D03*
D58*
X618852Y789051D02*
D03*
X568852D02*
D03*
X416414D02*
D03*
X366414D02*
D03*
X517252D02*
D03*
X467252D02*
D03*
X213360D02*
D03*
X264160D02*
D03*
X314960D02*
D03*
X162560D02*
D03*
X111760D02*
D03*
X60960D02*
D03*
X110979Y60960D02*
D03*
X60979D02*
D03*
X212198D02*
D03*
X162198D02*
D03*
X517398D02*
D03*
X466598D02*
D03*
X415798D02*
D03*
X263144D02*
D03*
X313944D02*
D03*
X364744D02*
D03*
X618598D02*
D03*
X568598D02*
D03*
M02*
