G04*
G04 #@! TF.GenerationSoftware,Altium Limited,Altium Designer,24.5.2 (23)*
G04*
G04 Layer_Physical_Order=2*
G04 Layer_Color=16711680*
%FSLAX44Y44*%
%MOMM*%
G71*
G04*
G04 #@! TF.SameCoordinates,E6D3E557-3EFE-479C-B101-03A66C20DB95*
G04*
G04*
G04 #@! TF.FilePolarity,Positive*
G04*
G01*
G75*
%ADD10C,0.2540*%
%ADD18R,1.1000X1.0000*%
%ADD28R,1.0000X1.1000*%
%ADD50C,1.5240*%
%ADD51C,0.5080*%
%ADD52C,0.7620*%
%ADD56R,1.5000X1.5000*%
%ADD57C,1.5000*%
%ADD58C,2.5000*%
%ADD59C,0.7620*%
%ADD60O,0.6000X2.2000*%
%ADD61R,0.4000X1.3000*%
%ADD62O,0.3000X1.8000*%
%ADD63O,1.8000X0.3000*%
%ADD64R,1.5000X0.6000*%
%ADD65R,1.5000X1.3000*%
%ADD66R,1.1000X0.6500*%
%ADD67R,3.5560X3.8100*%
%ADD68R,1.2700X3.5560*%
G36*
X676115Y486041D02*
D01*
Y281940D01*
X555078D01*
Y286585D01*
X583365Y314872D01*
X606039D01*
X606039Y314872D01*
X608691Y315222D01*
X611163Y316245D01*
X613285Y317874D01*
X616982Y321571D01*
X618611Y323693D01*
X619634Y326165D01*
X619984Y328817D01*
X619984Y328817D01*
Y342764D01*
X619634Y345416D01*
X618611Y347888D01*
X616982Y350010D01*
X616846Y350146D01*
X614724Y351775D01*
X612252Y352799D01*
X609600Y353148D01*
X606948Y352799D01*
X604476Y351775D01*
X602354Y350146D01*
X600725Y348024D01*
X599701Y345552D01*
X599352Y342900D01*
X599488Y341868D01*
Y335368D01*
X579120D01*
X576468Y335019D01*
X573996Y333995D01*
X571874Y332366D01*
X571874Y332366D01*
X537584Y298076D01*
X535955Y295954D01*
X534931Y293482D01*
X534582Y290830D01*
X534582Y290830D01*
Y281940D01*
X395470D01*
X395345Y283210D01*
X396457Y283431D01*
X397717Y284273D01*
X551387Y437943D01*
X552229Y439203D01*
X552525Y440690D01*
Y571500D01*
X657760Y571500D01*
Y520305D01*
X499405Y361950D01*
X499117D01*
X496783Y360983D01*
X494997Y359197D01*
X494030Y356863D01*
Y354337D01*
X494997Y352003D01*
X496783Y350217D01*
X499117Y349250D01*
X501643D01*
X503977Y350217D01*
X505763Y352003D01*
X506730Y354337D01*
Y354625D01*
X640080Y487975D01*
X666602Y514497D01*
X667725Y516178D01*
X668120Y518160D01*
Y571500D01*
Y716280D01*
X667725Y718262D01*
X666602Y719942D01*
X666602Y719942D01*
X658102Y728443D01*
X656422Y729565D01*
X654440Y729959D01*
X640000D01*
Y732820D01*
X624920D01*
Y731254D01*
X620328D01*
Y731900D01*
X619899Y734062D01*
X618674Y735894D01*
X617498Y736680D01*
X618269Y739220D01*
X627840D01*
X629460Y739220D01*
X632000Y739220D01*
X646460D01*
Y747475D01*
X648822Y749837D01*
X649945Y751518D01*
X650340Y753500D01*
Y812800D01*
X649945Y814782D01*
X648822Y816462D01*
X641202Y824082D01*
X639522Y825205D01*
X637540Y825600D01*
X579120D01*
X579120Y825600D01*
X577138Y825205D01*
X575457Y824082D01*
X565190Y813814D01*
X564067Y812134D01*
X563672Y810152D01*
Y803185D01*
X561728Y802379D01*
X559265Y800733D01*
X557170Y798638D01*
X555524Y796175D01*
X554390Y793438D01*
X553812Y790532D01*
Y787570D01*
X554390Y784664D01*
X555524Y781927D01*
X557170Y779464D01*
X559265Y777369D01*
X561728Y775723D01*
X564465Y774589D01*
X567371Y774011D01*
X570333D01*
X573239Y774589D01*
X575976Y775723D01*
X578439Y777369D01*
X580534Y779464D01*
X582180Y781927D01*
X583314Y784664D01*
X583892Y787570D01*
Y790532D01*
X583314Y793438D01*
X582180Y796175D01*
X580534Y798638D01*
X578439Y800733D01*
X575976Y802379D01*
X574031Y803185D01*
Y808007D01*
X581265Y815240D01*
X635395D01*
X639981Y810655D01*
Y756283D01*
X637998Y754300D01*
X632000D01*
X630380Y754300D01*
X627840Y754300D01*
X613380D01*
Y750645D01*
X606820D01*
Y755800D01*
X600320D01*
Y762220D01*
X591240D01*
Y755800D01*
X584740D01*
Y750645D01*
X573983D01*
X572557Y752071D01*
X570223Y753038D01*
X567697D01*
X565363Y752071D01*
X563577Y750285D01*
X562610Y747951D01*
Y745425D01*
X563577Y743091D01*
X565363Y741304D01*
X567697Y740338D01*
X570223D01*
X572557Y741304D01*
X574128Y742875D01*
X584740D01*
Y737720D01*
X584740Y737720D01*
X584791Y735851D01*
X583803Y735125D01*
X580735Y735653D01*
X580574Y735894D01*
X579120Y736866D01*
Y723900D01*
X574040D01*
Y736866D01*
X572586Y735894D01*
X571361Y734062D01*
X570932Y731900D01*
Y726876D01*
X570598Y726378D01*
X570106Y723900D01*
Y723184D01*
X568010D01*
X565532Y722692D01*
X563432Y721288D01*
X557184Y715040D01*
X551260D01*
X551180Y717547D01*
Y846115D01*
X676115D01*
X676115Y486041D01*
D02*
G37*
G36*
X276653Y551202D02*
X276446Y550995D01*
X275124Y548705D01*
X274440Y546152D01*
Y543508D01*
X275124Y540955D01*
X276446Y538665D01*
X278315Y536796D01*
X280605Y535474D01*
X283158Y534790D01*
X285802D01*
X288345Y535471D01*
X293295Y530521D01*
Y526609D01*
X292025Y526083D01*
X290645Y527464D01*
X288355Y528786D01*
X287020Y529144D01*
Y519430D01*
Y509716D01*
X288355Y510074D01*
X290645Y511396D01*
X292025Y512777D01*
X293295Y512251D01*
Y511810D01*
X293591Y510323D01*
X294433Y509063D01*
X300598Y502898D01*
X300112Y501725D01*
X281009D01*
X275665Y507069D01*
Y512251D01*
X276935Y512777D01*
X278315Y511396D01*
X280605Y510074D01*
X281940Y509716D01*
Y519430D01*
Y529144D01*
X280605Y528786D01*
X278315Y527464D01*
X276935Y526083D01*
X275665Y526609D01*
Y530860D01*
X275369Y532347D01*
X274527Y533607D01*
X267976Y540158D01*
X268436Y540955D01*
X269120Y543508D01*
Y546152D01*
X268436Y548705D01*
X267114Y550995D01*
X266907Y551202D01*
X267393Y552375D01*
X276167D01*
X276653Y551202D01*
D02*
G37*
G36*
X251253D02*
X251046Y550995D01*
X249724Y548705D01*
X249040Y546152D01*
Y543508D01*
X249724Y540955D01*
X251046Y538665D01*
X252915Y536796D01*
X255205Y535474D01*
X257758Y534790D01*
X260402D01*
X261943Y535203D01*
X267895Y529251D01*
Y526609D01*
X266625Y526083D01*
X265245Y527464D01*
X262955Y528786D01*
X261620Y529144D01*
Y519430D01*
Y509716D01*
X262955Y510074D01*
X265245Y511396D01*
X266625Y512777D01*
X267895Y512251D01*
Y505460D01*
X268191Y503973D01*
X269033Y502713D01*
X273878Y497868D01*
X273393Y496694D01*
X236220D01*
X233742Y496202D01*
X231642Y494798D01*
X224902Y488058D01*
X223498Y485958D01*
X223006Y483480D01*
Y469820D01*
X221440D01*
Y469820D01*
X220520D01*
Y469820D01*
X204440D01*
Y466165D01*
X200660D01*
X199173Y465869D01*
X197913Y465027D01*
X176033Y443147D01*
X175335Y442102D01*
X174340Y442209D01*
X174065Y442313D01*
Y485859D01*
X176737Y488532D01*
X177579Y489792D01*
X177875Y491278D01*
Y504174D01*
X179373Y505673D01*
X180340Y508007D01*
Y510533D01*
X179373Y512867D01*
X177587Y514653D01*
X175253Y515620D01*
X172727D01*
X170393Y514653D01*
X168607Y512867D01*
X167640Y510533D01*
Y508007D01*
X168228Y506588D01*
X168016Y506186D01*
X167320Y505460D01*
X165107D01*
X163905Y504962D01*
X162635Y505811D01*
Y515281D01*
X199729Y552375D01*
X250767D01*
X251253Y551202D01*
D02*
G37*
G36*
X187519Y566392D02*
X145843Y524717D01*
X145001Y523457D01*
X144705Y521970D01*
Y402590D01*
X145001Y401103D01*
X145843Y399843D01*
X183856Y361830D01*
X183330Y360560D01*
X167760D01*
Y340480D01*
X173915D01*
Y335280D01*
X174211Y333793D01*
X175053Y332533D01*
X179948Y327638D01*
X179462Y326465D01*
X169249D01*
X135965Y359749D01*
Y393700D01*
X135669Y395187D01*
X134827Y396447D01*
X120650Y410624D01*
Y412743D01*
X119683Y415077D01*
X117897Y416863D01*
X115563Y417830D01*
X113037D01*
X110703Y416863D01*
X108917Y415077D01*
X107950Y412743D01*
Y410217D01*
X108917Y407883D01*
X110703Y406097D01*
X111504Y405765D01*
Y404495D01*
X110703Y404163D01*
X108917Y402377D01*
X107950Y400043D01*
Y397517D01*
X108917Y395183D01*
X110703Y393397D01*
X111504Y393065D01*
Y391795D01*
X110703Y391463D01*
X108917Y389677D01*
X107950Y387343D01*
Y384817D01*
X108917Y382483D01*
X110703Y380697D01*
X111504Y380365D01*
Y379095D01*
X110703Y378763D01*
X108917Y376977D01*
X107950Y374643D01*
Y372117D01*
X108917Y369783D01*
X110415Y368284D01*
Y356478D01*
X109242Y355992D01*
X105485Y359749D01*
Y475911D01*
X113192Y483618D01*
X113551Y483259D01*
X115885Y482292D01*
X118411D01*
X120745Y483259D01*
X122531Y485045D01*
X123498Y487379D01*
Y489905D01*
X122531Y492239D01*
X121048Y493722D01*
X122531Y495205D01*
X123498Y497539D01*
Y500065D01*
X122531Y502399D01*
X121637Y503293D01*
X121636Y505086D01*
X122223Y505673D01*
X123190Y508007D01*
Y510533D01*
X122223Y512867D01*
X120437Y514653D01*
X118103Y515620D01*
X115577D01*
X113243Y514653D01*
X111744Y513155D01*
X110490D01*
X109003Y512859D01*
X107743Y512017D01*
X88693Y492967D01*
X87851Y491707D01*
X87555Y490220D01*
Y353060D01*
X87851Y351573D01*
X88693Y350313D01*
X151959Y287048D01*
X151473Y285874D01*
X115446D01*
X80134Y321186D01*
Y452120D01*
Y488808D01*
X158892Y567566D01*
X187033D01*
X187519Y566392D01*
D02*
G37*
G36*
X341820Y475793D02*
X341334Y474620D01*
X340360D01*
Y466580D01*
X335280D01*
Y474620D01*
X331390D01*
X330280Y474620D01*
X329010Y474620D01*
X325120D01*
Y466580D01*
X320040D01*
Y474620D01*
X315202D01*
X314864Y475667D01*
X314840Y475807D01*
Y483746D01*
X333868D01*
X341820Y475793D01*
D02*
G37*
G36*
X294760Y477320D02*
X275760D01*
Y466240D01*
X279715D01*
Y454580D01*
X275560D01*
Y453514D01*
X274200D01*
Y456390D01*
X274200Y456740D01*
Y457660D01*
X274200Y458010D01*
Y464160D01*
X264160D01*
Y466700D01*
X261620D01*
Y475740D01*
X254120D01*
Y474927D01*
X253920Y473740D01*
X252850Y473740D01*
X248920D01*
Y465700D01*
X246380D01*
Y463160D01*
X238840D01*
Y458010D01*
X238840Y457660D01*
Y456740D01*
X238840Y456390D01*
Y454224D01*
X238622Y454214D01*
X238533Y454257D01*
X237520Y455437D01*
Y469820D01*
X235954D01*
Y480798D01*
X238902Y483746D01*
X294760D01*
Y477320D01*
D02*
G37*
G36*
X491415Y476642D02*
Y447379D01*
X483528Y439492D01*
X482356Y440108D01*
X482600Y440697D01*
Y441335D01*
X482724Y441960D01*
X482600Y442585D01*
Y443223D01*
X482356Y443812D01*
X482232Y444438D01*
X481877Y444968D01*
X481633Y445557D01*
X481182Y446008D01*
X480828Y446538D01*
X480298Y446892D01*
X479847Y447343D01*
X479258Y447587D01*
X478728Y447942D01*
X478102Y448066D01*
X477513Y448310D01*
X476875D01*
X476250Y448434D01*
X475625Y448310D01*
X474987D01*
X474398Y448066D01*
X473772Y447942D01*
X473242Y447587D01*
X472653Y447343D01*
X472202Y446892D01*
X471672Y446538D01*
X372030Y346896D01*
X370760Y347422D01*
Y351400D01*
X363220D01*
Y356480D01*
X370760D01*
Y359615D01*
X371120D01*
X372607Y359911D01*
X373867Y360753D01*
X490242Y477128D01*
X491415Y476642D01*
D02*
G37*
G36*
X204440Y454740D02*
X204440D01*
Y454580D01*
X204440D01*
Y450925D01*
X203200D01*
X201713Y450629D01*
X200453Y449787D01*
X195373Y444707D01*
X194531Y443447D01*
X194235Y441960D01*
Y433730D01*
X188940D01*
Y422150D01*
Y420980D01*
X196980D01*
Y415900D01*
X188940D01*
Y412825D01*
X182953D01*
X182665Y413113D01*
Y438791D01*
X202269Y458395D01*
X204440D01*
Y454740D01*
D02*
G37*
G36*
X388228Y424202D02*
X376411Y412385D01*
X348899D01*
X347720Y412619D01*
X332720D01*
X332345Y412544D01*
X331264Y413624D01*
X331339Y414000D01*
Y420125D01*
X336589Y425375D01*
X387742D01*
X388228Y424202D01*
D02*
G37*
G36*
X308100Y414000D02*
X308414Y412424D01*
X309307Y411087D01*
X309720Y410811D01*
X309720Y410812D01*
X310644Y410194D01*
X312220Y409881D01*
X313796Y410194D01*
X314720Y410812D01*
X315644Y410194D01*
X317220Y409881D01*
X318796Y410194D01*
X319720Y410812D01*
X320644Y410194D01*
X322220Y409881D01*
X323796Y410194D01*
X324720Y410812D01*
X325644Y410194D01*
X327220Y409881D01*
X327595Y409956D01*
X328676Y408876D01*
X328601Y408500D01*
X328914Y406924D01*
X329532Y406000D01*
X328914Y405076D01*
X328601Y403500D01*
X328914Y401924D01*
X329532Y401000D01*
X328914Y400076D01*
X328601Y398500D01*
X328627Y398366D01*
X327822Y397385D01*
X307140D01*
X305653Y397089D01*
X304393Y396247D01*
X289353Y381207D01*
X288511Y379947D01*
X288215Y378460D01*
Y363236D01*
X286717Y361737D01*
X286385Y360936D01*
X285115D01*
X284783Y361737D01*
X282997Y363523D01*
X280663Y364490D01*
X278137D01*
X275803Y363523D01*
X274017Y361737D01*
X273050Y359403D01*
Y356877D01*
X274017Y354543D01*
X275237Y353322D01*
X275129Y351949D01*
X274788Y351728D01*
X274141Y351575D01*
X273796Y351806D01*
X272220Y352119D01*
X271845Y352044D01*
X270764Y353125D01*
X270839Y353500D01*
X270526Y355076D01*
X269908Y356000D01*
X270526Y356924D01*
X270839Y358500D01*
X270526Y360076D01*
X269908Y361000D01*
X270526Y361924D01*
X270839Y363500D01*
X270526Y365076D01*
X269908Y366000D01*
X270526Y366924D01*
X270839Y368500D01*
X270526Y370076D01*
X269908Y371000D01*
X270526Y371924D01*
X270839Y373500D01*
X270526Y375076D01*
X269908Y376000D01*
X270526Y376924D01*
X270839Y378500D01*
X270526Y380076D01*
X269908Y381000D01*
X270526Y381924D01*
X270839Y383500D01*
X270526Y385076D01*
X269908Y386000D01*
X269909Y386000D01*
X269633Y386413D01*
X268297Y387306D01*
X266720Y387620D01*
X259220D01*
Y389380D01*
X266720D01*
X268297Y389694D01*
X269633Y390587D01*
X269909Y391000D01*
X269908Y391000D01*
X270526Y391924D01*
X270839Y393500D01*
X270526Y395076D01*
X269908Y396000D01*
X270526Y396924D01*
X270839Y398500D01*
X270526Y400076D01*
X269908Y401000D01*
X269909Y401000D01*
X269633Y401413D01*
X268297Y402306D01*
X266720Y402620D01*
X259220D01*
Y404380D01*
X266720D01*
X268297Y404694D01*
X269633Y405587D01*
X269909Y406000D01*
X269908Y406000D01*
X270526Y406924D01*
X270839Y408500D01*
X270764Y408876D01*
X271845Y409956D01*
X272220Y409881D01*
X273796Y410194D01*
X274720Y410812D01*
X275644Y410194D01*
X277220Y409881D01*
X278796Y410194D01*
X279720Y410812D01*
X280644Y410194D01*
X282220Y409881D01*
X283796Y410194D01*
X284720Y410812D01*
X285644Y410194D01*
X287220Y409881D01*
X288796Y410194D01*
X289720Y410812D01*
X290644Y410194D01*
X292220Y409881D01*
X293796Y410194D01*
X294720Y410812D01*
X295644Y410194D01*
X297220Y409881D01*
X298796Y410194D01*
X299720Y410812D01*
X300644Y410194D01*
X302220Y409881D01*
X303796Y410194D01*
X304720Y410812D01*
X304720Y410811D01*
X305133Y411087D01*
X306026Y412424D01*
X306340Y414000D01*
Y421500D01*
X308100D01*
Y414000D01*
D02*
G37*
G36*
X222227Y358345D02*
X220566Y356685D01*
X219244Y354395D01*
X218560Y351842D01*
Y349198D01*
X219244Y346645D01*
X220566Y344355D01*
X222435Y342486D01*
X224725Y341164D01*
X227278Y340480D01*
X229922D01*
X232475Y341164D01*
X234765Y342486D01*
X236634Y344355D01*
X237956Y346645D01*
X238640Y349198D01*
Y349615D01*
X250541D01*
X251720Y349381D01*
X266720D01*
X267096Y349456D01*
X268176Y348376D01*
X268101Y348000D01*
Y333000D01*
X268195Y332526D01*
X267389Y331545D01*
X187029D01*
X181685Y336889D01*
Y340480D01*
X187840D01*
Y359615D01*
X196532D01*
X196827Y358345D01*
X195166Y356685D01*
X193844Y354395D01*
X193486Y353060D01*
X212914D01*
X212556Y354395D01*
X211234Y356685D01*
X209573Y358345D01*
X209869Y359615D01*
X221931D01*
X222227Y358345D01*
D02*
G37*
%LPC*%
G36*
X620333Y804091D02*
X617371D01*
X614465Y803513D01*
X611728Y802379D01*
X609265Y800733D01*
X607170Y798638D01*
X605524Y796175D01*
X604390Y793438D01*
X603812Y790532D01*
Y787570D01*
X604390Y784664D01*
X605524Y781927D01*
X607170Y779464D01*
X609265Y777369D01*
X611728Y775723D01*
X614465Y774589D01*
X617371Y774011D01*
X620333D01*
X623239Y774589D01*
X625976Y775723D01*
X628439Y777369D01*
X630534Y779464D01*
X632180Y781927D01*
X633314Y784664D01*
X633892Y787570D01*
Y790532D01*
X633314Y793438D01*
X632180Y796175D01*
X630534Y798638D01*
X628439Y800733D01*
X625976Y802379D01*
X623239Y803513D01*
X620333Y804091D01*
D02*
G37*
G36*
X600320Y773800D02*
X598320D01*
Y767300D01*
X600320D01*
Y773800D01*
D02*
G37*
G36*
X593240D02*
X591240D01*
Y767300D01*
X593240D01*
Y773800D01*
D02*
G37*
G36*
X256540Y529144D02*
X255205Y528786D01*
X252915Y527464D01*
X251046Y525595D01*
X249724Y523305D01*
X249366Y521970D01*
X256540D01*
Y529144D01*
D02*
G37*
G36*
Y516890D02*
X249366D01*
X249724Y515555D01*
X251046Y513265D01*
X252915Y511396D01*
X255205Y510074D01*
X256540Y509716D01*
Y516890D01*
D02*
G37*
G36*
X274200Y475740D02*
X266700D01*
Y469240D01*
X274200D01*
Y475740D01*
D02*
G37*
G36*
X243840Y473740D02*
X238840D01*
Y468240D01*
X243840D01*
Y473740D01*
D02*
G37*
G36*
X212914Y347980D02*
X205740D01*
Y340806D01*
X207075Y341164D01*
X209365Y342486D01*
X211234Y344355D01*
X212556Y346645D01*
X212914Y347980D01*
D02*
G37*
G36*
X200660D02*
X193486D01*
X193844Y346645D01*
X195166Y344355D01*
X197035Y342486D01*
X199325Y341164D01*
X200660Y340806D01*
Y347980D01*
D02*
G37*
%LPD*%
D10*
X543560Y441960D02*
Y665480D01*
X553980Y675900D02*
X576580D01*
X543560Y665480D02*
X553980Y675900D01*
X557530Y656590D02*
X640080D01*
X548640Y440690D02*
Y647700D01*
X557530Y656590D01*
X538480Y443230D02*
Y678180D01*
X550300Y690000D01*
X558800D01*
X394970Y287020D02*
X548640Y440690D01*
X393700Y292100D02*
X543560Y441960D01*
X510540Y474980D02*
X530860Y495300D01*
X392430Y297180D02*
X538480Y443230D01*
X530860Y495300D02*
Y496570D01*
X568960Y746760D02*
X589280D01*
X170180Y487468D02*
X173990Y491278D01*
Y509270D01*
X170180Y411480D02*
X198160Y383500D01*
X170180Y411480D02*
Y487468D01*
X647700Y664210D02*
Y690000D01*
X640080Y656590D02*
X647700Y664210D01*
X408940Y505460D02*
X429260Y485140D01*
Y444500D02*
Y485140D01*
X383260Y398500D02*
X429260Y444500D01*
X406400Y500380D02*
X424180Y482600D01*
X380640Y403500D02*
X424180Y447040D01*
Y482600D01*
X406400Y505460D02*
X408940D01*
X365880Y373500D02*
X479171Y486791D01*
Y535559D01*
X340220Y373500D02*
X365880D01*
X340220Y398500D02*
X383260D01*
X340220Y403500D02*
X380640D01*
X378020Y408500D02*
X419100Y449580D01*
X340220Y408500D02*
X378020D01*
X419100Y449580D02*
Y480060D01*
X391160Y429260D02*
X414020Y452120D01*
Y477520D01*
X334980Y429260D02*
X391160D01*
X388620Y434340D02*
X408940Y454660D01*
Y474980D01*
X323224Y434340D02*
X388620D01*
X320040Y439420D02*
X386080D01*
X403860Y457200D02*
Y472440D01*
X386080Y439420D02*
X403860Y457200D01*
X340220Y368500D02*
X368500D01*
X485140Y485140D02*
Y548640D01*
X368500Y368500D02*
X485140Y485140D01*
X386080Y500380D02*
X406400D01*
X403860Y495300D02*
X419100Y480060D01*
X363220Y495300D02*
X403860D01*
X401320Y490220D02*
X414020Y477520D01*
X327220Y421500D02*
X334980Y429260D01*
X360680Y490220D02*
X401320D01*
X398780Y485140D02*
X408940Y474980D01*
X359410Y485140D02*
X398780D01*
X396240Y480060D02*
X403860Y472440D01*
X322220Y421500D02*
Y433336D01*
X323224Y434340D01*
X317220Y436600D02*
X320040Y439420D01*
X358140Y480060D02*
X396240D01*
X257810Y544830D02*
X271780Y530860D01*
X340360Y497840D02*
X358140Y480060D01*
X347980Y510540D02*
X363220Y495300D01*
X373380Y513080D02*
X386080Y500380D01*
X373380Y513080D02*
Y529590D01*
X398780Y513080D02*
X406400Y505460D01*
X340220Y363500D02*
X371120D01*
X490220Y482600D02*
Y551180D01*
X371120Y363500D02*
X490220Y482600D01*
X398780Y513080D02*
Y532130D01*
X386080Y544830D02*
X398780Y532130D01*
X474980Y558800D02*
X485140Y548640D01*
X470935Y543795D02*
X479171Y535559D01*
X148590Y402590D02*
X187680Y363500D01*
X259220D01*
X148590Y402590D02*
Y521970D01*
X116855Y488349D02*
X117148Y488642D01*
X101600Y358140D02*
Y477520D01*
X112429Y488349D02*
X116855D01*
X101600Y477520D02*
X112429Y488349D01*
Y498509D02*
X116855D01*
X96520Y355600D02*
Y482600D01*
X116855Y498509D02*
X117148Y498802D01*
X96520Y482600D02*
X112429Y498509D01*
X91440Y353060D02*
Y490220D01*
X110490Y509270D02*
X116840D01*
X91440Y490220D02*
X110490Y509270D01*
X132080Y358140D02*
Y393700D01*
X167640Y322580D02*
X287020D01*
X132080Y358140D02*
X167640Y322580D01*
X127000Y355600D02*
X165100Y317500D01*
X127000Y355600D02*
Y386080D01*
X165100Y317500D02*
X289560D01*
X162560Y312420D02*
X292100D01*
X121920Y353060D02*
X162560Y312420D01*
X121920Y353060D02*
Y378460D01*
X160020Y307340D02*
X294640D01*
X114300Y353060D02*
Y373380D01*
Y353060D02*
X160020Y307340D01*
X114300Y411480D02*
X132080Y393700D01*
X114300Y398780D02*
X127000Y386080D01*
X114300D02*
X121920Y378460D01*
X190300Y368500D02*
X259220D01*
X153670Y405130D02*
X190300Y368500D01*
X153670Y405130D02*
Y519430D01*
X192920Y373500D02*
X259220D01*
X158750Y407670D02*
X192920Y373500D01*
X158750Y407670D02*
Y516890D01*
X166370Y407670D02*
Y499110D01*
X195540Y378500D02*
X259220D01*
X166370Y407670D02*
X195540Y378500D01*
X198160Y383500D02*
X259220D01*
X372110Y322580D02*
X495300Y445770D01*
X148590Y521970D02*
X193040Y566420D01*
X365760D01*
X375920Y576580D01*
X382270Y561340D02*
X422910D01*
X430530Y568960D01*
X480060D01*
X415290Y566420D02*
X426720Y577850D01*
X379730Y566420D02*
X415290D01*
X426720Y577850D02*
X436880D01*
X377190Y571500D02*
X403860D01*
X411480Y579120D01*
X495300Y445770D02*
Y553720D01*
X480060Y568960D02*
X495300Y553720D01*
X454660Y558800D02*
X474980D01*
X449580Y553720D02*
X454660Y558800D01*
X463315Y543795D02*
X470935D01*
X462280Y544830D02*
X463315Y543795D01*
X153670Y519430D02*
X195580Y561340D01*
X158750Y516890D02*
X198120Y556260D01*
X178780Y411504D02*
Y440400D01*
X200660Y462280D01*
X178780Y411504D02*
X181344Y408940D01*
X196881Y418341D02*
X196980Y418440D01*
X181344Y408940D02*
X196980D01*
X186400Y418242D02*
X186499Y418341D01*
X196881D01*
X294640Y307340D02*
X307220Y319920D01*
X292100Y312420D02*
X302220Y322540D01*
X289560Y317500D02*
X297220Y325160D01*
X287020Y322580D02*
X292100Y327660D01*
X282220Y329210D02*
Y340500D01*
X280670Y327660D02*
X282220Y329210D01*
X185420Y327660D02*
X280670D01*
X177800Y335280D02*
X185420Y327660D01*
X177800Y335280D02*
Y350520D01*
X510540Y441960D02*
Y474980D01*
X500380Y497840D02*
X514350Y511810D01*
X500380Y444500D02*
Y497840D01*
X505460Y443230D02*
Y487680D01*
X523240Y505460D01*
X375920Y307340D02*
X510540Y441960D01*
X374650Y312420D02*
X505460Y443230D01*
X373380Y317500D02*
X500380Y444500D01*
X505460Y519430D02*
Y563880D01*
X482600Y586740D02*
X505460Y563880D01*
X406400Y586740D02*
X482600D01*
X435610Y563880D02*
X477520D01*
X490220Y551180D01*
X424180Y552450D02*
X435610Y563880D01*
X396240Y576580D02*
X406400Y586740D01*
X375920Y576580D02*
X396240D01*
X195580Y561340D02*
X367030D01*
X377190Y571500D01*
X369570Y556260D02*
X379730Y566420D01*
X198120Y556260D02*
X369570D01*
X424180Y532130D02*
Y552450D01*
X373380D02*
X382270Y561340D01*
X373380Y539750D02*
Y552450D01*
X157480Y287020D02*
X394970D01*
X160020Y292100D02*
X393700D01*
X96520Y355600D02*
X160020Y292100D01*
X101600Y358140D02*
X162560Y297180D01*
X392430D01*
X91440Y353060D02*
X157480Y287020D01*
X558800Y690000D02*
X565540D01*
X582930Y694690D02*
X589280Y688340D01*
X570230Y694690D02*
X582930D01*
X589280Y675900D02*
Y688340D01*
X565540Y690000D02*
X570230Y694690D01*
X589280Y675900D02*
X601980D01*
X646920Y689220D02*
X647700Y690000D01*
X632460Y689220D02*
X646920D01*
X287132Y340588D02*
Y350408D01*
Y340588D02*
X287220Y340500D01*
X279400Y358140D02*
X287132Y350408D01*
X312220Y321510D02*
X326390Y307340D01*
X375920D01*
X317220Y322860D02*
X327660Y312420D01*
X374650D01*
X328930Y317500D02*
X373380D01*
X322220Y324210D02*
Y340500D01*
Y324210D02*
X328930Y317500D01*
X317220Y322860D02*
Y340500D01*
X312220Y321510D02*
Y340500D01*
X332740Y322580D02*
X372110D01*
X360680Y542290D02*
X373380Y529590D01*
X360680Y542290D02*
Y544830D01*
X373380Y539750D02*
X383696Y529434D01*
Y521814D02*
Y529434D01*
Y521814D02*
X386080Y519430D01*
X411480D02*
X424180Y532130D01*
X436880Y519430D02*
X449580Y532130D01*
Y553720D01*
X335280Y544830D02*
X347980Y532130D01*
Y510540D02*
Y532130D01*
X309880Y544830D02*
X322580Y532130D01*
Y514350D02*
Y532130D01*
Y514350D02*
X328930Y508000D01*
X342900D01*
X284480Y544830D02*
X297180Y532130D01*
Y511810D02*
X306070Y502920D01*
X297180Y511810D02*
Y532130D01*
X271780Y505460D02*
Y530860D01*
Y505460D02*
X279400Y497840D01*
X340360D01*
X341630Y502920D02*
X359410Y485140D01*
X306070Y502920D02*
X341630D01*
X342900Y508000D02*
X360680Y490220D01*
X638420Y746760D02*
X639328Y747668D01*
X618880Y746760D02*
X619760Y745880D01*
X602280Y746760D02*
X618880D01*
X602130Y724050D02*
Y746610D01*
X601980Y723900D02*
X602130Y724050D01*
Y746610D02*
X602280Y746760D01*
X589280Y723900D02*
Y746760D01*
X616278Y672220D02*
X632460D01*
X614680Y673818D02*
Y675900D01*
Y673818D02*
X616278Y672220D01*
X292100Y358140D02*
Y378460D01*
X307140Y393500D01*
X317220Y421500D02*
Y436600D01*
X327220Y328100D02*
X332740Y322580D01*
X327220Y328100D02*
Y340500D01*
X228600Y353500D02*
X259220D01*
X205940Y393500D02*
X259220D01*
X208280Y403860D02*
X213640Y398500D01*
X259220D01*
X196980Y402460D02*
X205940Y393500D01*
X208280Y403860D02*
Y426720D01*
X307140Y393500D02*
X340220D01*
X302260Y358140D02*
Y378460D01*
X312300Y388500D02*
X340220D01*
X302260Y378460D02*
X312300Y388500D01*
X312420Y358140D02*
Y373380D01*
X322540Y383500D02*
X340220D01*
X312420Y373380D02*
X322540Y383500D01*
X322580Y358182D02*
Y373380D01*
Y358182D02*
X322670Y358093D01*
X322580Y373380D02*
X327700Y378500D01*
X340220D01*
X245360Y403500D02*
X259220D01*
X238760Y410100D02*
X245360Y403500D01*
X238760Y410100D02*
Y410600D01*
X274680Y403500D02*
X276860Y401320D01*
Y396240D02*
Y401320D01*
X259220Y403500D02*
X274680D01*
X276860Y389504D02*
Y396240D01*
X275856Y388500D02*
X276860Y389504D01*
X259220Y388500D02*
X275856D01*
X276860Y396240D02*
X294640D01*
X307220Y408820D02*
Y421500D01*
X294640Y396240D02*
X307220Y408820D01*
X198120Y427940D02*
X207060D01*
X196980D02*
X198120D01*
X196980Y402460D02*
Y408940D01*
X200660Y462280D02*
X212480D01*
X207060Y427940D02*
X208280Y426720D01*
X196980Y427940D02*
X198120Y429080D01*
Y441960D02*
X203200Y447040D01*
X198120Y429080D02*
Y441960D01*
X203200Y447040D02*
X212480D01*
X340220Y358500D02*
X352700D01*
X356760Y354440D02*
X362720D01*
X352700Y358500D02*
X356760Y354440D01*
X362720D02*
X363220Y353940D01*
X340220Y343040D02*
X340360Y342900D01*
X340220Y343040D02*
Y353500D01*
X312220Y439220D02*
X318350Y445350D01*
X318850D01*
X312220Y421500D02*
Y439220D01*
X318850Y445350D02*
X322580Y449080D01*
Y449580D01*
X300600Y447040D02*
X302220Y445420D01*
Y421500D02*
Y445420D01*
X261620Y419100D02*
X264020Y421500D01*
X259220Y416700D02*
X261620Y419100D01*
X283600Y470050D02*
X285330Y471780D01*
X285800D01*
X283600Y447040D02*
Y470050D01*
X259220Y408500D02*
Y416700D01*
X264020Y421500D02*
X272220D01*
X307220Y319920D02*
Y340500D01*
X302220Y322540D02*
Y340500D01*
X297220Y325160D02*
Y340500D01*
X292100Y340360D02*
X292220Y340480D01*
X292100Y327660D02*
Y332555D01*
Y340360D02*
X292132Y340328D01*
X292220Y340480D02*
Y340500D01*
X292132Y332587D02*
Y340328D01*
X292100Y332555D02*
X292132Y332587D01*
D18*
X638420Y746760D02*
D03*
X621420D02*
D03*
X300600Y447040D02*
D03*
X283600D02*
D03*
X212480D02*
D03*
X229480D02*
D03*
X212480Y462280D02*
D03*
X229480D02*
D03*
D28*
X647700Y690000D02*
D03*
Y707000D02*
D03*
X632460Y724780D02*
D03*
Y707780D02*
D03*
Y689220D02*
D03*
Y672220D02*
D03*
X558800Y707000D02*
D03*
Y690000D02*
D03*
X353060Y449580D02*
D03*
Y466580D02*
D03*
X246380Y448700D02*
D03*
Y465700D02*
D03*
X238760Y410600D02*
D03*
Y427600D02*
D03*
X363220Y353940D02*
D03*
Y336940D02*
D03*
X322580Y466580D02*
D03*
Y449580D02*
D03*
X337820Y466580D02*
D03*
Y449580D02*
D03*
D50*
X568598Y60960D02*
Y104502D01*
X544830Y128270D02*
Y290830D01*
Y128270D02*
X568598Y104502D01*
X618598Y102978D02*
X666750Y151130D01*
X618490Y102870D02*
X618598Y102978D01*
Y60960D02*
Y102978D01*
X666750Y151130D02*
X666750Y450850D01*
X661578Y456022D02*
X666750Y450850D01*
X656498Y456022D02*
X661578D01*
X544830Y290830D02*
X579120Y325120D01*
X609600Y342900D02*
X609736Y342764D01*
Y328817D02*
Y342764D01*
X606039Y325120D02*
X609736Y328817D01*
X579120Y325120D02*
X606039D01*
D51*
X639828Y747668D02*
X641380Y749220D01*
Y749720D01*
X645160Y753500D02*
Y812800D01*
X639328Y747668D02*
X639828D01*
X641380Y749720D02*
X645160Y753500D01*
X637540Y820420D02*
X645160Y812800D01*
X579120Y820420D02*
X637540D01*
X568852Y810152D02*
X579120Y820420D01*
X568852Y789051D02*
Y810152D01*
X654440Y724780D02*
X662940Y716280D01*
X500380Y355600D02*
X662940Y518160D01*
Y716280D01*
X632460Y724780D02*
X654440D01*
X264847Y480060D02*
X266067Y481280D01*
X264160Y466700D02*
Y480060D01*
X266067Y481280D02*
X304800D01*
X264160Y480060D02*
X264847D01*
X221690Y409650D02*
X237810D01*
X220980Y408940D02*
X221690Y409650D01*
X237810D02*
X238760Y410600D01*
X263660Y466200D02*
X264160Y466700D01*
X303560Y450008D02*
X304800Y451248D01*
X303560Y449500D02*
Y450008D01*
X301100Y447040D02*
X303560Y449500D01*
X300600Y447040D02*
X301100D01*
X304800Y451248D02*
Y462280D01*
X322580Y449580D02*
X337820D01*
X353060D01*
X322580Y466580D02*
Y474980D01*
X305020Y481060D02*
X316500D01*
X322580Y474980D01*
Y466580D02*
X337820D01*
X304800Y481280D02*
X305020Y481060D01*
D52*
X111760Y279400D02*
X278130D01*
X73660Y317500D02*
Y452120D01*
Y317500D02*
X111760Y279400D01*
X278130D02*
X293370Y264160D01*
X353060Y466580D02*
X391827D01*
X239950Y429290D02*
X240450D01*
X391827Y466580D02*
X396091Y462316D01*
X371230Y336940D02*
X476250Y441960D01*
X346320Y336940D02*
X363220D01*
X371230D01*
X615490Y724780D02*
X632460D01*
X559190Y707390D02*
X632070D01*
X632460Y707780D01*
X558800Y707000D02*
X559190Y707390D01*
X632850D02*
X647310D01*
X632460Y707780D02*
X632850Y707390D01*
X647310D02*
X647700Y707000D01*
X558800Y707500D02*
X568010Y716710D01*
X575770D01*
X576580Y717520D01*
Y723900D01*
X73660Y452120D02*
Y491490D01*
X156210Y574040D01*
X355524D01*
X386080Y604596D01*
X293116Y220040D02*
Y245440D01*
X293370Y245694D02*
Y264160D01*
X293116Y245440D02*
X293370Y245694D01*
X386080Y604596D02*
Y629996D01*
X336550Y490220D02*
X352483Y474287D01*
X229480Y483480D02*
X236220Y490220D01*
X336550D01*
X352483Y467157D02*
X353060Y466580D01*
X352483Y467157D02*
Y474287D01*
X229480Y462280D02*
Y483480D01*
X246380Y465700D02*
X246880Y466200D01*
X263660D01*
X229480Y447040D02*
Y462280D01*
X340360Y342900D02*
X346320Y336940D01*
X253120Y427600D02*
X261620Y419100D01*
X238760Y427600D02*
X253120D01*
X238420Y427940D02*
X238760Y427600D01*
X220980Y427940D02*
X238420D01*
X246380Y435220D02*
Y448230D01*
X240450Y429290D02*
X246380Y435220D01*
X245190Y447040D02*
X246380Y448230D01*
X229480Y447040D02*
X245190D01*
X247380Y447700D02*
X264160D01*
X246380Y448700D02*
X247380Y447700D01*
X264820Y447040D02*
X283600D01*
X264160Y447700D02*
X264820Y447040D01*
D56*
X95504Y245440D02*
D03*
X200406D02*
D03*
X394716D02*
D03*
X505968D02*
D03*
X585724Y220040D02*
D03*
X93980Y629996D02*
D03*
X173754Y604596D02*
D03*
X284480D02*
D03*
X478536D02*
D03*
X584200D02*
D03*
X462280Y544830D02*
D03*
X177800Y350520D02*
D03*
D57*
X95504Y220040D02*
D03*
X70104Y245440D02*
D03*
Y220040D02*
D03*
X200406D02*
D03*
X175006Y245440D02*
D03*
Y220040D02*
D03*
X394716D02*
D03*
X369316Y245440D02*
D03*
Y220040D02*
D03*
X343916Y245440D02*
D03*
Y220040D02*
D03*
X318516Y245440D02*
D03*
Y220040D02*
D03*
X293116Y245440D02*
D03*
Y220040D02*
D03*
X455168D02*
D03*
Y245440D02*
D03*
X480568Y220040D02*
D03*
Y245440D02*
D03*
X505968Y220040D02*
D03*
X636524Y245440D02*
D03*
Y220040D02*
D03*
X611124Y245440D02*
D03*
Y220040D02*
D03*
X585724Y245440D02*
D03*
X43180Y604596D02*
D03*
Y629996D02*
D03*
X68580Y604596D02*
D03*
Y629996D02*
D03*
X93980Y604596D02*
D03*
X224554Y629996D02*
D03*
Y604596D02*
D03*
X199154Y629996D02*
D03*
Y604596D02*
D03*
X173754Y629996D02*
D03*
X284480D02*
D03*
X309880Y604596D02*
D03*
Y629996D02*
D03*
X335280Y604596D02*
D03*
Y629996D02*
D03*
X360680Y604596D02*
D03*
Y629996D02*
D03*
X386080Y604596D02*
D03*
Y629996D02*
D03*
X478536D02*
D03*
X503936Y604596D02*
D03*
Y629996D02*
D03*
X584200D02*
D03*
X609600Y604596D02*
D03*
Y629996D02*
D03*
X462280Y519430D02*
D03*
X436880Y544830D02*
D03*
Y519430D02*
D03*
X411480Y544830D02*
D03*
Y519430D02*
D03*
X386080Y544830D02*
D03*
Y519430D02*
D03*
X360680Y544830D02*
D03*
Y519430D02*
D03*
X335280Y544830D02*
D03*
Y519430D02*
D03*
X309880Y544830D02*
D03*
Y519430D02*
D03*
X284480Y544830D02*
D03*
Y519430D02*
D03*
X259080Y544830D02*
D03*
Y519430D02*
D03*
X203200Y350520D02*
D03*
X228600D02*
D03*
D58*
X618852Y789051D02*
D03*
X568852D02*
D03*
X416414D02*
D03*
X366414D02*
D03*
X517252D02*
D03*
X467252D02*
D03*
X213360D02*
D03*
X264160D02*
D03*
X314960D02*
D03*
X162560D02*
D03*
X111760D02*
D03*
X60960D02*
D03*
X110979Y60960D02*
D03*
X60979D02*
D03*
X212198D02*
D03*
X162198D02*
D03*
X517398D02*
D03*
X466598D02*
D03*
X415798D02*
D03*
X263144D02*
D03*
X313944D02*
D03*
X364744D02*
D03*
X618598D02*
D03*
X568598D02*
D03*
D59*
X530860Y496570D02*
D03*
X568960Y746688D02*
D03*
X93831Y314996D02*
D03*
X500380Y355600D02*
D03*
X396091Y462316D02*
D03*
X363220Y419100D02*
D03*
X386666Y368240D02*
D03*
X264160Y480060D02*
D03*
X117148Y488642D02*
D03*
Y498802D02*
D03*
X114300Y373380D02*
D03*
X117148Y474980D02*
D03*
X656441Y455966D02*
D03*
X646430Y466090D02*
D03*
X476250Y441960D02*
D03*
X73660Y452120D02*
D03*
X166370Y499110D02*
D03*
X186400Y418242D02*
D03*
X514350Y511810D02*
D03*
X523240Y505460D02*
D03*
X505460Y519430D02*
D03*
X436880Y577850D02*
D03*
X411596Y578848D02*
D03*
X173990Y509270D02*
D03*
X116840D02*
D03*
X279400Y358140D02*
D03*
X292100D02*
D03*
X312420D02*
D03*
X322670Y358093D02*
D03*
X302260Y358140D02*
D03*
X114300Y386080D02*
D03*
Y398780D02*
D03*
Y411480D02*
D03*
X276860Y396240D02*
D03*
X609736Y328817D02*
D03*
X609600Y342900D02*
D03*
D60*
X576580Y723900D02*
D03*
X589280D02*
D03*
X601980D02*
D03*
X614680D02*
D03*
X576580Y675900D02*
D03*
X589280D02*
D03*
X601980D02*
D03*
X614680D02*
D03*
D61*
X595780Y764760D02*
D03*
X589280Y746760D02*
D03*
X602280D02*
D03*
D62*
X272220Y421500D02*
D03*
X277220D02*
D03*
X282220D02*
D03*
X287220D02*
D03*
X292220D02*
D03*
X297220D02*
D03*
X302220D02*
D03*
X307220D02*
D03*
X312220D02*
D03*
X317220D02*
D03*
X322220D02*
D03*
X327220D02*
D03*
Y340500D02*
D03*
X322220D02*
D03*
X317220D02*
D03*
X312220D02*
D03*
X307220D02*
D03*
X302220D02*
D03*
X297220D02*
D03*
X292220D02*
D03*
X287220D02*
D03*
X282220D02*
D03*
X277220D02*
D03*
X272220D02*
D03*
D63*
X340220Y408500D02*
D03*
Y403500D02*
D03*
Y398500D02*
D03*
Y393500D02*
D03*
Y388500D02*
D03*
Y383500D02*
D03*
Y378500D02*
D03*
Y373500D02*
D03*
Y368500D02*
D03*
Y363500D02*
D03*
Y358500D02*
D03*
Y353500D02*
D03*
X259220D02*
D03*
Y358500D02*
D03*
Y363500D02*
D03*
Y368500D02*
D03*
Y373500D02*
D03*
Y378500D02*
D03*
Y383500D02*
D03*
Y388500D02*
D03*
Y393500D02*
D03*
Y398500D02*
D03*
Y403500D02*
D03*
Y408500D02*
D03*
D64*
X285800Y471780D02*
D03*
X304800Y462280D02*
D03*
Y481280D02*
D03*
D65*
X264160Y447700D02*
D03*
Y466700D02*
D03*
D66*
X220980Y408940D02*
D03*
Y427940D02*
D03*
X196980D02*
D03*
Y418440D02*
D03*
Y408940D02*
D03*
D67*
X656590Y462280D02*
D03*
D68*
X278130Y388620D02*
D03*
M02*
