G04*
G04 #@! TF.GenerationSoftware,Altium Limited,Altium Designer,24.5.2 (23)*
G04*
G04 Layer_Color=65535*
%FSLAX44Y44*%
%MOMM*%
G71*
G04*
G04 #@! TF.SameCoordinates,B26EB2D3-40D5-4C0D-8AB9-A0D858DAE7C2*
G04*
G04*
G04 #@! TF.FilePolarity,Positive*
G04*
G01*
G75*
%ADD10C,0.2540*%
%ADD11C,0.2000*%
%ADD12C,0.1270*%
D10*
X86652Y169418D02*
G03*
X86652Y169418I-13500J0D01*
G01*
Y70358D02*
G03*
X86652Y70358I-13500J0D01*
G01*
X101092Y142748D02*
Y197358D01*
X43942D02*
X101092D01*
X43942Y142748D02*
Y197358D01*
Y142748D02*
X101092D01*
Y43688D02*
Y98298D01*
X43942D02*
X101092D01*
X43942Y43688D02*
Y98298D01*
Y43688D02*
X101092D01*
D11*
X334292Y64008D02*
G03*
X334292Y76708I0J6350D01*
G01*
X90152Y206058D02*
Y214058D01*
Y106998D02*
Y114998D01*
X220980Y272288D02*
X449580D01*
X220980Y221488D02*
X449580D01*
Y272288D01*
X220980Y221488D02*
Y272288D01*
X334292Y43858D02*
Y64008D01*
Y76708D02*
Y96858D01*
X502692Y43858D02*
Y96858D01*
X334292Y43858D02*
X502692D01*
X334292Y96858D02*
X502692D01*
X187832Y154418D02*
Y164418D01*
X171832Y154418D02*
X175832Y149418D01*
X183832D02*
X187832Y154418D01*
X171832D02*
Y164418D01*
X175832Y149418D02*
X183832D01*
X171832Y183418D02*
X187832D01*
Y171418D02*
Y183418D01*
X171832Y171418D02*
Y183418D01*
X233552Y154418D02*
Y164418D01*
X217552Y154418D02*
X221552Y149418D01*
X229552D02*
X233552Y154418D01*
X217552D02*
Y164418D01*
X221552Y149418D02*
X229552D01*
X217552Y183418D02*
X233552D01*
Y171418D02*
Y183418D01*
X217552Y171418D02*
Y183418D01*
X279272Y154418D02*
Y164418D01*
X263272Y154418D02*
X267272Y149418D01*
X275272D02*
X279272Y154418D01*
X263272D02*
Y164418D01*
X267272Y149418D02*
X275272D01*
X263272Y183418D02*
X279272D01*
Y171418D02*
Y183418D01*
X263272Y171418D02*
Y183418D01*
X324992Y154418D02*
Y164418D01*
X308992Y154418D02*
X312992Y149418D01*
X320992D02*
X324992Y154418D01*
X308992D02*
Y164418D01*
X312992Y149418D02*
X320992D01*
X308992Y183418D02*
X324992D01*
Y171418D02*
Y183418D01*
X308992Y171418D02*
Y183418D01*
X370712Y154418D02*
Y164418D01*
X354712Y154418D02*
X358712Y149418D01*
X366712D02*
X370712Y154418D01*
X354712D02*
Y164418D01*
X358712Y149418D02*
X366712D01*
X354712Y183418D02*
X370712D01*
Y171418D02*
Y183418D01*
X354712Y171418D02*
Y183418D01*
X416432Y154418D02*
Y164418D01*
X400432Y154418D02*
X404432Y149418D01*
X412432D02*
X416432Y154418D01*
X400432D02*
Y164418D01*
X404432Y149418D02*
X412432D01*
X400432Y183418D02*
X416432D01*
Y171418D02*
Y183418D01*
X400432Y171418D02*
Y183418D01*
X462152Y154418D02*
Y164418D01*
X446152Y154418D02*
X450152Y149418D01*
X458152D02*
X462152Y154418D01*
X446152D02*
Y164418D01*
X450152Y149418D02*
X458152D01*
X446152Y183418D02*
X462152D01*
Y171418D02*
Y183418D01*
X446152Y171418D02*
Y183418D01*
X507872Y154418D02*
Y164418D01*
X491872Y154418D02*
X495872Y149418D01*
X503872D02*
X507872Y154418D01*
X491872D02*
Y164418D01*
X495872Y149418D02*
X503872D01*
X491872Y183418D02*
X507872D01*
Y171418D02*
Y183418D01*
X491872Y171418D02*
Y183418D01*
D12*
X213360Y239268D02*
X211667D01*
X212514D01*
Y234190D01*
X213360Y235036D01*
X209128D02*
X208282Y234190D01*
X206589D01*
X205742Y235036D01*
Y235882D01*
X206589Y236729D01*
X205742Y237575D01*
Y238422D01*
X206589Y239268D01*
X208282D01*
X209128Y238422D01*
Y237575D01*
X208282Y236729D01*
X209128Y235882D01*
Y235036D01*
X208282Y236729D02*
X206589D01*
X213360Y264668D02*
X211667D01*
X212514D01*
Y259590D01*
X213360Y260436D01*
X209128Y259590D02*
X205742D01*
Y260436D01*
X209128Y263822D01*
Y264668D01*
X462280D02*
X460587D01*
X461434D01*
Y259590D01*
X462280Y260436D01*
X463974Y239268D02*
X467360D01*
X463974Y235882D01*
Y235036D01*
X464821Y234190D01*
X466514D01*
X467360Y235036D01*
X337904Y127676D02*
X337057Y128522D01*
X335364D01*
X334518Y127676D01*
Y126830D01*
X335364Y125983D01*
X337057D01*
X337904Y125137D01*
Y124290D01*
X337057Y123444D01*
X335364D01*
X334518Y124290D01*
X339596Y127676D02*
X340443Y128522D01*
X342136D01*
X342982Y127676D01*
Y126830D01*
X342136Y125983D01*
X341289D01*
X342136D01*
X342982Y125137D01*
Y124290D01*
X342136Y123444D01*
X340443D01*
X339596Y124290D01*
X46566Y112182D02*
X45719Y113028D01*
X44026D01*
X43180Y112182D01*
Y111336D01*
X44026Y110489D01*
X45719D01*
X46566Y109643D01*
Y108796D01*
X45719Y107950D01*
X44026D01*
X43180Y108796D01*
X51644Y107950D02*
X48258D01*
X51644Y111336D01*
Y112182D01*
X50798Y113028D01*
X49105D01*
X48258Y112182D01*
X46566Y211242D02*
X45719Y212088D01*
X44026D01*
X43180Y211242D01*
Y210396D01*
X44026Y209549D01*
X45719D01*
X46566Y208703D01*
Y207856D01*
X45719Y207010D01*
X44026D01*
X43180Y207856D01*
X48258Y207010D02*
X49951D01*
X49105D01*
Y212088D01*
X48258Y211242D01*
X477266Y205994D02*
Y211072D01*
X479805D01*
X480652Y210226D01*
Y208533D01*
X479805Y207687D01*
X477266D01*
X478959D02*
X480652Y205994D01*
X482344D02*
X484037D01*
X483191D01*
Y211072D01*
X482344Y210226D01*
X486576Y206840D02*
X487423Y205994D01*
X489115D01*
X489962Y206840D01*
Y210226D01*
X489115Y211072D01*
X487423D01*
X486576Y210226D01*
Y209380D01*
X487423Y208533D01*
X489962D01*
X431546Y205994D02*
Y211072D01*
X434085D01*
X434932Y210226D01*
Y208533D01*
X434085Y207687D01*
X431546D01*
X433239D02*
X434932Y205994D01*
X436624D02*
X438317D01*
X437471D01*
Y211072D01*
X436624Y210226D01*
X440856D02*
X441703Y211072D01*
X443396D01*
X444242Y210226D01*
Y209380D01*
X443396Y208533D01*
X444242Y207687D01*
Y206840D01*
X443396Y205994D01*
X441703D01*
X440856Y206840D01*
Y207687D01*
X441703Y208533D01*
X440856Y209380D01*
Y210226D01*
X441703Y208533D02*
X443396D01*
X385826Y205994D02*
Y211072D01*
X388365D01*
X389212Y210226D01*
Y208533D01*
X388365Y207687D01*
X385826D01*
X387519D02*
X389212Y205994D01*
X390904D02*
X392597D01*
X391751D01*
Y211072D01*
X390904Y210226D01*
X398522Y211072D02*
X395136D01*
Y208533D01*
X396829Y209380D01*
X397676D01*
X398522Y208533D01*
Y206840D01*
X397676Y205994D01*
X395983D01*
X395136Y206840D01*
X340106Y205994D02*
Y211072D01*
X342645D01*
X343492Y210226D01*
Y208533D01*
X342645Y207687D01*
X340106D01*
X341799D02*
X343492Y205994D01*
X345184D02*
X346877D01*
X346031D01*
Y211072D01*
X345184Y210226D01*
X351955Y205994D02*
Y211072D01*
X349416Y208533D01*
X352802D01*
X292354Y207264D02*
Y212342D01*
X294893D01*
X295740Y211496D01*
Y209803D01*
X294893Y208957D01*
X292354D01*
X294047D02*
X295740Y207264D01*
X297432D02*
X299125D01*
X298279D01*
Y212342D01*
X297432Y211496D01*
X301664D02*
X302511Y212342D01*
X304203D01*
X305050Y211496D01*
Y210650D01*
X304203Y209803D01*
X303357D01*
X304203D01*
X305050Y208957D01*
Y208110D01*
X304203Y207264D01*
X302511D01*
X301664Y208110D01*
X248666Y205994D02*
Y211072D01*
X251205D01*
X252052Y210226D01*
Y208533D01*
X251205Y207687D01*
X248666D01*
X250359D02*
X252052Y205994D01*
X253744D02*
X255437D01*
X254591D01*
Y211072D01*
X253744Y210226D01*
X257976D02*
X258823Y211072D01*
X260515D01*
X261362Y210226D01*
Y206840D01*
X260515Y205994D01*
X258823D01*
X257976Y206840D01*
Y210226D01*
X202946Y205994D02*
Y211072D01*
X205485D01*
X206332Y210226D01*
Y208533D01*
X205485Y207687D01*
X202946D01*
X204639D02*
X206332Y205994D01*
X208024Y210226D02*
X208871Y211072D01*
X210564D01*
X211410Y210226D01*
Y209380D01*
X210564Y208533D01*
X211410Y207687D01*
Y206840D01*
X210564Y205994D01*
X208871D01*
X208024Y206840D01*
Y207687D01*
X208871Y208533D01*
X208024Y209380D01*
Y210226D01*
X208871Y208533D02*
X210564D01*
X157226Y205994D02*
Y211072D01*
X159765D01*
X160612Y210226D01*
Y208533D01*
X159765Y207687D01*
X157226D01*
X158919D02*
X160612Y205994D01*
X162304Y211072D02*
X165690D01*
Y210226D01*
X162304Y206840D01*
Y205994D01*
X205740Y279654D02*
Y284732D01*
X208279D01*
X209126Y283886D01*
Y282193D01*
X208279Y281347D01*
X205740D01*
X210818Y279654D02*
X212511D01*
X211665D01*
Y284732D01*
X210818Y283886D01*
X492252Y195832D02*
Y190754D01*
X494791D01*
X495638Y191600D01*
Y194986D01*
X494791Y195832D01*
X492252D01*
X497330Y191600D02*
X498177Y190754D01*
X499869D01*
X500716Y191600D01*
Y194986D01*
X499869Y195832D01*
X498177D01*
X497330Y194986D01*
Y194140D01*
X498177Y193293D01*
X500716D01*
X446532Y195832D02*
Y190754D01*
X449071D01*
X449918Y191600D01*
Y194986D01*
X449071Y195832D01*
X446532D01*
X451610Y194986D02*
X452457Y195832D01*
X454150D01*
X454996Y194986D01*
Y194140D01*
X454150Y193293D01*
X454996Y192447D01*
Y191600D01*
X454150Y190754D01*
X452457D01*
X451610Y191600D01*
Y192447D01*
X452457Y193293D01*
X451610Y194140D01*
Y194986D01*
X452457Y193293D02*
X454150D01*
X400812Y195832D02*
Y190754D01*
X403351D01*
X404198Y191600D01*
Y194986D01*
X403351Y195832D01*
X400812D01*
X409276D02*
X407583Y194986D01*
X405890Y193293D01*
Y191600D01*
X406737Y190754D01*
X408429D01*
X409276Y191600D01*
Y192447D01*
X408429Y193293D01*
X405890D01*
X355092Y195832D02*
Y190754D01*
X357631D01*
X358478Y191600D01*
Y194986D01*
X357631Y195832D01*
X355092D01*
X363556D02*
X360170D01*
Y193293D01*
X361863Y194140D01*
X362710D01*
X363556Y193293D01*
Y191600D01*
X362710Y190754D01*
X361017D01*
X360170Y191600D01*
X309372Y195832D02*
Y190754D01*
X311911D01*
X312758Y191600D01*
Y194986D01*
X311911Y195832D01*
X309372D01*
X316989Y190754D02*
Y195832D01*
X314450Y193293D01*
X317836D01*
X263652Y195832D02*
Y190754D01*
X266191D01*
X267038Y191600D01*
Y194986D01*
X266191Y195832D01*
X263652D01*
X268730Y194986D02*
X269577Y195832D01*
X271269D01*
X272116Y194986D01*
Y194140D01*
X271269Y193293D01*
X270423D01*
X271269D01*
X272116Y192447D01*
Y191600D01*
X271269Y190754D01*
X269577D01*
X268730Y191600D01*
X217932Y195832D02*
Y190754D01*
X220471D01*
X221318Y191600D01*
Y194986D01*
X220471Y195832D01*
X217932D01*
X226396Y190754D02*
X223010D01*
X226396Y194140D01*
Y194986D01*
X225550Y195832D01*
X223857D01*
X223010Y194986D01*
X172212Y195832D02*
Y190754D01*
X174751D01*
X175598Y191600D01*
Y194986D01*
X174751Y195832D01*
X172212D01*
X177290Y190754D02*
X178983D01*
X178137D01*
Y195832D01*
X177290Y194986D01*
X62822Y127676D02*
X61975Y128522D01*
X60282D01*
X59436Y127676D01*
Y124290D01*
X60282Y123444D01*
X61975D01*
X62822Y124290D01*
X67900Y123444D02*
X64514D01*
X67900Y126830D01*
Y127676D01*
X67053Y128522D01*
X65361D01*
X64514Y127676D01*
X62822Y226736D02*
X61975Y227582D01*
X60282D01*
X59436Y226736D01*
Y223350D01*
X60282Y222504D01*
X61975D01*
X62822Y223350D01*
X64514Y222504D02*
X66207D01*
X65361D01*
Y227582D01*
X64514Y226736D01*
M02*
