G04*
G04 #@! TF.GenerationSoftware,Altium Limited,Altium Designer,24.5.2 (23)*
G04*
G04 Layer_Color=8388736*
%FSLAX44Y44*%
%MOMM*%
G71*
G04*
G04 #@! TF.SameCoordinates,E6D3E557-3EFE-479C-B101-03A66C20DB95*
G04*
G04*
G04 #@! TF.FilePolarity,Positive*
G04*
G01*
G75*
%ADD77C,0.3000*%
%ADD78C,0.2500*%
G36*
X212065Y467872D02*
X209575D01*
Y477832D01*
X212065D01*
Y467872D01*
D02*
G37*
G36*
Y406537D02*
X219120D01*
Y404047D01*
X212065D01*
Y400312D01*
X209575D01*
Y404047D01*
X202520D01*
Y406537D01*
X209575D01*
Y410272D01*
X212065D01*
Y406537D01*
D02*
G37*
G36*
X381009Y389433D02*
X373090D01*
Y391413D01*
X381009D01*
Y389433D01*
D02*
G37*
G36*
X432210Y391413D02*
X435130D01*
Y389433D01*
X432210D01*
Y383824D01*
X430230D01*
Y389433D01*
X427210D01*
Y391413D01*
X430230D01*
Y397023D01*
X432210D01*
Y391413D01*
D02*
G37*
G36*
X476550Y458927D02*
X479570D01*
Y456946D01*
X476550D01*
Y451337D01*
X474570D01*
Y456946D01*
X471650D01*
Y458927D01*
X474570D01*
Y464537D01*
X476550D01*
Y458927D01*
D02*
G37*
G36*
X533690D02*
Y456946D01*
X525770D01*
Y458927D01*
X533690D01*
D01*
D02*
G37*
G36*
X610445Y379874D02*
X619200D01*
Y376783D01*
X610445D01*
Y372149D01*
X607355D01*
Y376783D01*
X598600D01*
Y379874D01*
X607355D01*
Y384509D01*
X610445D01*
Y379874D01*
D02*
G37*
G36*
X607355Y468969D02*
X610445D01*
Y456609D01*
X607355D01*
Y468969D01*
D01*
D02*
G37*
D77*
X143279Y373380D02*
G03*
X143279Y373380I-1501J0D01*
G01*
D78*
X292859Y441980D02*
G03*
X292859Y441980I-1250J0D01*
G01*
M02*
