G04*
G04 #@! TF.GenerationSoftware,Altium Limited,Altium Designer,24.5.2 (23)*
G04*
G04 Layer_Color=128*
%FSLAX44Y44*%
%MOMM*%
G71*
G04*
G04 #@! TF.SameCoordinates,B26EB2D3-40D5-4C0D-8AB9-A0D858DAE7C2*
G04*
G04*
G04 #@! TF.FilePolarity,Positive*
G04*
G01*
G75*
%ADD12C,0.1270*%
D12*
X46842Y191918D02*
X54462D01*
X50652Y188108D02*
Y195728D01*
X91842Y191918D02*
X99462D01*
X95652Y188108D02*
Y195728D01*
X46842Y146918D02*
X54462D01*
X50652Y143108D02*
Y150728D01*
X91842Y146918D02*
X99462D01*
X95652Y143108D02*
Y150728D01*
X46842Y92858D02*
X54462D01*
X50652Y89048D02*
Y96668D01*
X91842Y92858D02*
X99462D01*
X95652Y89048D02*
Y96668D01*
X46842Y47858D02*
X54462D01*
X50652Y44048D02*
Y51668D01*
X91842Y47858D02*
X99462D01*
X95652Y44048D02*
Y51668D01*
X432380Y259588D02*
X441380D01*
X436880Y255088D02*
Y264088D01*
X229180Y234188D02*
X238180D01*
X233680Y229688D02*
Y238688D01*
X229180Y259588D02*
X238180D01*
X233680Y255088D02*
Y264088D01*
X254580Y234188D02*
X263580D01*
X259080Y229688D02*
Y238688D01*
X254580Y259588D02*
X263580D01*
X259080Y255088D02*
Y264088D01*
X279980Y234188D02*
X288980D01*
X284480Y229688D02*
Y238688D01*
X279980Y259588D02*
X288980D01*
X284480Y255088D02*
Y264088D01*
X305380Y234188D02*
X314380D01*
X309880Y229688D02*
Y238688D01*
X305380Y259588D02*
X314380D01*
X309880Y255088D02*
Y264088D01*
X330780Y234188D02*
X339780D01*
X335280Y229688D02*
Y238688D01*
X330780Y259588D02*
X339780D01*
X335280Y255088D02*
Y264088D01*
X356180Y234188D02*
X365180D01*
X360680Y229688D02*
Y238688D01*
X356180Y259588D02*
X365180D01*
X360680Y255088D02*
Y264088D01*
X381580Y234188D02*
X390580D01*
X386080Y229688D02*
Y238688D01*
X381580Y259588D02*
X390580D01*
X386080Y255088D02*
Y264088D01*
X406980Y234188D02*
X415980D01*
X411480Y229688D02*
Y238688D01*
X406980Y259588D02*
X415980D01*
X411480Y255088D02*
Y264088D01*
X432380Y234188D02*
X441380D01*
X436880Y229688D02*
Y238688D01*
X350592Y32258D02*
X359592D01*
X355092Y27758D02*
Y36758D01*
X375992Y32258D02*
X384992D01*
X380492Y27758D02*
Y36758D01*
X401392Y32258D02*
X410392D01*
X405892Y27758D02*
Y36758D01*
X426792Y32258D02*
X435792D01*
X431292Y27758D02*
Y36758D01*
X452192Y32258D02*
X461192D01*
X456692Y27758D02*
Y36758D01*
X477592Y32258D02*
X486592D01*
X482092Y27758D02*
Y36758D01*
X350592Y108458D02*
X359592D01*
X355092Y103958D02*
Y112958D01*
X375992Y108458D02*
X384992D01*
X380492Y103958D02*
Y112958D01*
X401392Y108458D02*
X410392D01*
X405892Y103958D02*
Y112958D01*
X426792Y108458D02*
X435792D01*
X431292Y103958D02*
Y112958D01*
X452192Y108458D02*
X461192D01*
X456692Y103958D02*
Y112958D01*
X477592Y108458D02*
X486592D01*
X482092Y103958D02*
Y112958D01*
M02*
