G04*
G04 #@! TF.GenerationSoftware,Altium Limited,Altium Designer,24.5.2 (23)*
G04*
G04 Layer_Color=8388736*
%FSLAX44Y44*%
%MOMM*%
G71*
G04*
G04 #@! TF.SameCoordinates,E6D3E557-3EFE-479C-B101-03A66C20DB95*
G04*
G04*
G04 #@! TF.FilePolarity,Negative*
G04*
G01*
G75*
%ADD32R,1.3032X1.2032*%
%ADD33R,1.8532X4.7032*%
%ADD34R,3.8016X2.0016*%
%ADD35R,0.9032X1.2032*%
%ADD36O,2.3032X0.7632*%
%ADD37R,1.7532X1.3032*%
%ADD38R,1.7532X1.3032*%
%ADD39R,1.7532X3.6532*%
%ADD40R,3.6016X1.3016*%
%ADD41R,1.2016X0.8016*%
%ADD42R,1.2032X1.3032*%
%ADD43R,1.9016X3.2216*%
%ADD44R,0.7532X1.6532*%
%ADD45R,1.5016X4.3016*%
%ADD46R,1.7032X1.7032*%
%ADD47C,1.7032*%
%ADD48C,2.7032*%
%ADD49C,0.9652*%
D32*
X602860Y739140D02*
D03*
X585860D02*
D03*
X529200Y414020D02*
D03*
X512200D02*
D03*
X529200Y355600D02*
D03*
X512200D02*
D03*
X189620Y383540D02*
D03*
X206620D02*
D03*
D33*
X608900Y465557D02*
D03*
Y375560D02*
D03*
D34*
X478110Y373990D02*
D03*
Y409990D02*
D03*
D35*
X511200Y370840D02*
D03*
X520700D02*
D03*
X530200D02*
D03*
X511200Y396840D02*
D03*
X520700D02*
D03*
X530200D02*
D03*
D36*
X38278Y474980D02*
D03*
Y462280D02*
D03*
Y449580D02*
D03*
Y436880D02*
D03*
Y424180D02*
D03*
Y411480D02*
D03*
Y398780D02*
D03*
Y386080D02*
D03*
Y373380D02*
D03*
X134280Y474980D02*
D03*
Y462280D02*
D03*
Y449580D02*
D03*
Y436880D02*
D03*
Y424180D02*
D03*
Y411480D02*
D03*
Y398780D02*
D03*
Y386080D02*
D03*
Y373380D02*
D03*
D37*
X375920Y485420D02*
D03*
D38*
Y462420D02*
D03*
Y439420D02*
D03*
D39*
X443420Y462420D02*
D03*
D40*
X377409Y390423D02*
D03*
X430810D02*
D03*
X475970Y457937D02*
D03*
X529371D02*
D03*
D41*
X318350Y435671D02*
D03*
Y416672D02*
D03*
X292470D02*
D03*
Y426192D02*
D03*
Y435691D02*
D03*
D42*
X320040Y382660D02*
D03*
Y399660D02*
D03*
X304800Y382660D02*
D03*
Y399660D02*
D03*
X289560Y397120D02*
D03*
Y380120D02*
D03*
X350520Y483480D02*
D03*
Y466480D02*
D03*
X546100Y375040D02*
D03*
Y392040D02*
D03*
X350520Y440300D02*
D03*
Y423300D02*
D03*
D43*
X316120Y467141D02*
D03*
X290060D02*
D03*
D44*
X271780Y435930D02*
D03*
Y412430D02*
D03*
D45*
X210820Y406400D02*
D03*
Y471744D02*
D03*
D46*
X95504Y245440D02*
D03*
X200406D02*
D03*
X394716D02*
D03*
X505968D02*
D03*
X585724Y220040D02*
D03*
X93980Y629996D02*
D03*
X173754Y604596D02*
D03*
X284480D02*
D03*
X478536D02*
D03*
X584200D02*
D03*
X462280Y544830D02*
D03*
X177800Y350520D02*
D03*
D47*
X95504Y220040D02*
D03*
X70104Y245440D02*
D03*
Y220040D02*
D03*
X200406D02*
D03*
X175006Y245440D02*
D03*
Y220040D02*
D03*
X394716D02*
D03*
X369316Y245440D02*
D03*
Y220040D02*
D03*
X343916Y245440D02*
D03*
Y220040D02*
D03*
X318516Y245440D02*
D03*
Y220040D02*
D03*
X293116Y245440D02*
D03*
Y220040D02*
D03*
X455168D02*
D03*
Y245440D02*
D03*
X480568Y220040D02*
D03*
Y245440D02*
D03*
X505968Y220040D02*
D03*
X636524Y245440D02*
D03*
Y220040D02*
D03*
X611124Y245440D02*
D03*
Y220040D02*
D03*
X585724Y245440D02*
D03*
X43180Y604596D02*
D03*
Y629996D02*
D03*
X68580Y604596D02*
D03*
Y629996D02*
D03*
X93980Y604596D02*
D03*
X224554Y629996D02*
D03*
Y604596D02*
D03*
X199154Y629996D02*
D03*
Y604596D02*
D03*
X173754Y629996D02*
D03*
X284480D02*
D03*
X309880Y604596D02*
D03*
Y629996D02*
D03*
X335280Y604596D02*
D03*
Y629996D02*
D03*
X360680Y604596D02*
D03*
Y629996D02*
D03*
X386080Y604596D02*
D03*
Y629996D02*
D03*
X478536D02*
D03*
X503936Y604596D02*
D03*
Y629996D02*
D03*
X584200D02*
D03*
X609600Y604596D02*
D03*
Y629996D02*
D03*
X462280Y519430D02*
D03*
X436880Y544830D02*
D03*
Y519430D02*
D03*
X411480Y544830D02*
D03*
Y519430D02*
D03*
X386080Y544830D02*
D03*
Y519430D02*
D03*
X360680Y544830D02*
D03*
Y519430D02*
D03*
X335280Y544830D02*
D03*
Y519430D02*
D03*
X309880Y544830D02*
D03*
Y519430D02*
D03*
X284480Y544830D02*
D03*
Y519430D02*
D03*
X259080Y544830D02*
D03*
Y519430D02*
D03*
X203200Y350520D02*
D03*
X228600D02*
D03*
D48*
X618852Y789051D02*
D03*
X568852D02*
D03*
X416414D02*
D03*
X366414D02*
D03*
X517252D02*
D03*
X467252D02*
D03*
X213360D02*
D03*
X264160D02*
D03*
X314960D02*
D03*
X162560D02*
D03*
X111760D02*
D03*
X60960D02*
D03*
X110979Y60960D02*
D03*
X60979D02*
D03*
X212198D02*
D03*
X162198D02*
D03*
X517398D02*
D03*
X466598D02*
D03*
X415798D02*
D03*
X263144D02*
D03*
X313944D02*
D03*
X364744D02*
D03*
X618598D02*
D03*
X568598D02*
D03*
D49*
X530860Y496570D02*
D03*
X568960Y746688D02*
D03*
X93831Y314996D02*
D03*
X500380Y355600D02*
D03*
X396091Y462316D02*
D03*
X363220Y419100D02*
D03*
X386666Y368240D02*
D03*
X264160Y480060D02*
D03*
X117148Y488642D02*
D03*
Y498802D02*
D03*
X114300Y373380D02*
D03*
X117148Y474980D02*
D03*
X656441Y455966D02*
D03*
X646430Y466090D02*
D03*
X476250Y441960D02*
D03*
X73660Y452120D02*
D03*
X166370Y499110D02*
D03*
X186400Y418242D02*
D03*
X514350Y511810D02*
D03*
X523240Y505460D02*
D03*
X505460Y519430D02*
D03*
X436880Y577850D02*
D03*
X411596Y578848D02*
D03*
X173990Y509270D02*
D03*
X116840D02*
D03*
X279400Y358140D02*
D03*
X292100D02*
D03*
X312420D02*
D03*
X322670Y358093D02*
D03*
X302260Y358140D02*
D03*
X114300Y386080D02*
D03*
Y398780D02*
D03*
Y411480D02*
D03*
X276860Y396240D02*
D03*
X609736Y328817D02*
D03*
X609600Y342900D02*
D03*
M02*
