G04*
G04 #@! TF.GenerationSoftware,Altium Limited,Altium Designer,24.5.2 (23)*
G04*
G04 Layer_Color=128*
%FSLAX44Y44*%
%MOMM*%
G71*
G04*
G04 #@! TF.SameCoordinates,1F493C1C-94EE-482F-B0B6-BA56A28CA170*
G04*
G04*
G04 #@! TF.FilePolarity,Positive*
G04*
G01*
G75*
%ADD11C,0.1270*%
D11*
X267280Y20066D02*
X276280D01*
X271780Y15566D02*
Y24566D01*
X267280Y45466D02*
X276280D01*
X271780Y40966D02*
Y49966D01*
X292680Y20066D02*
X301680D01*
X297180Y15566D02*
Y24566D01*
X292680Y45466D02*
X301680D01*
X297180Y40966D02*
Y49966D01*
X318080Y20066D02*
X327080D01*
X322580Y15566D02*
Y24566D01*
X318080Y45466D02*
X327080D01*
X322580Y40966D02*
Y49966D01*
X343480Y20066D02*
X352480D01*
X347980Y15566D02*
Y24566D01*
X343480Y45466D02*
X352480D01*
X347980Y40966D02*
Y49966D01*
X368880Y20066D02*
X377880D01*
X373380Y15566D02*
Y24566D01*
X368880Y45466D02*
X377880D01*
X373380Y40966D02*
Y49966D01*
X460320Y20066D02*
X469320D01*
X464820Y15566D02*
Y24566D01*
X460320Y45466D02*
X469320D01*
X464820Y40966D02*
Y49966D01*
X485720Y20066D02*
X494720D01*
X490220Y15566D02*
Y24566D01*
X485720Y45466D02*
X494720D01*
X490220Y40966D02*
Y49966D01*
X565730Y20066D02*
X574730D01*
X570230Y15566D02*
Y24566D01*
X565730Y45466D02*
X574730D01*
X570230Y40966D02*
Y49966D01*
X591130Y20066D02*
X600130D01*
X595630Y15566D02*
Y24566D01*
X591130Y45466D02*
X600130D01*
X595630Y40966D02*
Y49966D01*
X206300Y45466D02*
X215300D01*
X210800Y40966D02*
Y49966D01*
X206300Y20066D02*
X215300D01*
X210800Y15566D02*
Y24566D01*
X180900Y45466D02*
X189900D01*
X185400Y40966D02*
Y49966D01*
X180900Y20066D02*
X189900D01*
X185400Y15566D02*
Y24566D01*
X155500Y45466D02*
X164500D01*
X160000Y40966D02*
Y49966D01*
X155500Y20066D02*
X164500D01*
X160000Y15566D02*
Y24566D01*
X24700Y20066D02*
X33700D01*
X29200Y15566D02*
Y24566D01*
X24700Y45466D02*
X33700D01*
X29200Y40966D02*
Y49966D01*
X50100Y20066D02*
X59100D01*
X54600Y15566D02*
Y24566D01*
X50100Y45466D02*
X59100D01*
X54600Y40966D02*
Y49966D01*
X75500Y20066D02*
X84500D01*
X80000Y15566D02*
Y24566D01*
X75500Y45466D02*
X84500D01*
X80000Y40966D02*
Y49966D01*
X614600Y89200D02*
X627600D01*
X621100Y82700D02*
Y95700D01*
X564200Y89200D02*
X577200D01*
X570700Y82700D02*
Y95700D01*
X513800Y89200D02*
X526800D01*
X520300Y82700D02*
Y95700D01*
X614600Y164800D02*
X627600D01*
X621100Y158300D02*
Y171300D01*
X564200Y164800D02*
X577200D01*
X570700Y158300D02*
Y171300D01*
X513800Y164800D02*
X526800D01*
X520300Y158300D02*
Y171300D01*
X362600Y89200D02*
X375600D01*
X369100Y82700D02*
Y95700D01*
X362600Y164800D02*
X375600D01*
X369100Y158300D02*
Y171300D01*
X348560Y296580D02*
X361560D01*
X355060Y290080D02*
Y303080D01*
X398960Y296580D02*
X411960D01*
X405460Y290080D02*
Y303080D01*
X449360Y296580D02*
X462360D01*
X455860Y290080D02*
Y303080D01*
X348560Y220980D02*
X361560D01*
X355060Y214480D02*
Y227480D01*
X398960Y220980D02*
X411960D01*
X405460Y214480D02*
Y227480D01*
X449360Y220980D02*
X462360D01*
X455860Y214480D02*
Y227480D01*
X600560Y296580D02*
X613560D01*
X607060Y290080D02*
Y303080D01*
X600560Y220980D02*
X613560D01*
X607060Y214480D02*
Y227480D01*
X22640Y164800D02*
X35640D01*
X29140Y158300D02*
Y171300D01*
X73040Y164800D02*
X86040D01*
X79540Y158300D02*
Y171300D01*
X123440Y164800D02*
X136440D01*
X129940Y158300D02*
Y171300D01*
X22640Y89200D02*
X35640D01*
X29140Y82700D02*
Y95700D01*
X73040Y89200D02*
X86040D01*
X79540Y82700D02*
Y95700D01*
X123440Y89200D02*
X136440D01*
X129940Y82700D02*
Y95700D01*
X274640Y164800D02*
X287640D01*
X281140Y158300D02*
Y171300D01*
X274640Y89200D02*
X287640D01*
X281140Y82700D02*
Y95700D01*
X289480Y221280D02*
X302480D01*
X295980Y214780D02*
Y227780D01*
X239080Y221280D02*
X252080D01*
X245580Y214780D02*
Y227780D01*
X188680Y221280D02*
X201680D01*
X195180Y214780D02*
Y227780D01*
X289480Y296880D02*
X302480D01*
X295980Y290380D02*
Y303380D01*
X239080Y296880D02*
X252080D01*
X245580Y290380D02*
Y303380D01*
X188680Y296880D02*
X201680D01*
X195180Y290380D02*
Y303380D01*
X37480Y221280D02*
X50480D01*
X43980Y214780D02*
Y227780D01*
X37480Y296880D02*
X50480D01*
X43980Y290380D02*
Y303380D01*
X532130Y236220D02*
X534670D01*
X533400Y234950D02*
Y237490D01*
M02*
