G04*
G04 #@! TF.GenerationSoftware,Altium Limited,Altium Designer,24.5.2 (23)*
G04*
G04 Layer_Color=8421504*
%FSLAX44Y44*%
%MOMM*%
G71*
G04*
G04 #@! TF.SameCoordinates,B26EB2D3-40D5-4C0D-8AB9-A0D858DAE7C2*
G04*
G04*
G04 #@! TF.FilePolarity,Positive*
G04*
G01*
G75*
%ADD13R,1.1000X1.0000*%
%ADD14R,0.8000X0.8000*%
%ADD15R,1.0000X1.1000*%
D13*
X64652Y210058D02*
D03*
X81652D02*
D03*
X64652Y110998D02*
D03*
X81652D02*
D03*
D14*
X179832Y175418D02*
D03*
Y160418D02*
D03*
X225552Y175418D02*
D03*
Y160418D02*
D03*
X271272Y175418D02*
D03*
Y160418D02*
D03*
X316992Y175418D02*
D03*
Y160418D02*
D03*
X362712Y175418D02*
D03*
Y160418D02*
D03*
X408432Y175418D02*
D03*
Y160418D02*
D03*
X454152Y175418D02*
D03*
Y160418D02*
D03*
X499872Y175418D02*
D03*
Y160418D02*
D03*
D15*
X162052Y176158D02*
D03*
Y193158D02*
D03*
X207772Y176158D02*
D03*
Y193158D02*
D03*
X253492Y176158D02*
D03*
Y193158D02*
D03*
X297180Y177428D02*
D03*
Y194428D02*
D03*
X344932Y176158D02*
D03*
Y193158D02*
D03*
X390652Y176158D02*
D03*
Y193158D02*
D03*
X436372Y176158D02*
D03*
Y193158D02*
D03*
X482092Y176158D02*
D03*
Y193158D02*
D03*
M02*
