G04*
G04 #@! TF.GenerationSoftware,Altium Limited,Altium Designer,24.5.2 (23)*
G04*
G04 Layer_Color=32896*
%FSLAX44Y44*%
%MOMM*%
G71*
G04*
G04 #@! TF.SameCoordinates,E6D3E557-3EFE-479C-B101-03A66C20DB95*
G04*
G04*
G04 #@! TF.FilePolarity,Positive*
G04*
G01*
G75*
%ADD10C,0.2540*%
%ADD11C,0.2500*%
%ADD14C,0.2000*%
%ADD17C,0.1270*%
%ADD76C,0.6000*%
G36*
X425293Y203552D02*
X426427D01*
Y203174D01*
X426805D01*
Y202796D01*
X427183D01*
Y202418D01*
X427561D01*
Y202040D01*
X427939D01*
Y201283D01*
X428317D01*
Y200905D01*
X428696D01*
Y200149D01*
X429074D01*
Y199393D01*
X429452D01*
Y199015D01*
X429830D01*
Y198259D01*
X430208D01*
Y197881D01*
X430586D01*
Y197125D01*
X430964D01*
Y196747D01*
X431342D01*
Y195991D01*
X431720D01*
Y195234D01*
X432098D01*
Y194856D01*
X432476D01*
Y194100D01*
X432854D01*
Y193722D01*
X433232D01*
Y192966D01*
X433610D01*
Y192210D01*
X433988D01*
Y191832D01*
X434367D01*
Y191076D01*
X434745D01*
Y190698D01*
X435123D01*
Y189941D01*
X435501D01*
Y189185D01*
X435879D01*
Y188807D01*
X436257D01*
Y188051D01*
X436635D01*
Y187673D01*
X437013D01*
Y186917D01*
X437391D01*
Y186161D01*
X437769D01*
Y185783D01*
X438147D01*
Y185026D01*
X438525D01*
Y184648D01*
X438904D01*
Y183892D01*
X439282D01*
Y183136D01*
X439660D01*
Y182758D01*
X440038D01*
Y182002D01*
X440416D01*
Y181624D01*
X440794D01*
Y180868D01*
X441172D01*
Y180112D01*
X441550D01*
Y179734D01*
X441928D01*
Y178977D01*
X442306D01*
Y178599D01*
X442684D01*
Y177843D01*
X443062D01*
Y177087D01*
X443440D01*
Y176709D01*
X443818D01*
Y175953D01*
X444197D01*
Y175575D01*
X444575D01*
Y174819D01*
X444953D01*
Y174062D01*
X445331D01*
Y173684D01*
X445709D01*
Y172928D01*
X446087D01*
Y172550D01*
X446465D01*
Y171794D01*
X446843D01*
Y171038D01*
X447221D01*
Y170660D01*
X447599D01*
Y169904D01*
X447977D01*
Y169526D01*
X448355D01*
Y168769D01*
X448733D01*
Y168391D01*
X449111D01*
Y167635D01*
X449490D01*
Y166879D01*
X449868D01*
Y166501D01*
X450246D01*
Y165745D01*
X450624D01*
Y165367D01*
X451002D01*
Y164611D01*
X451380D01*
Y163855D01*
X451758D01*
Y163476D01*
X452136D01*
Y162720D01*
X452514D01*
Y162342D01*
X452892D01*
Y161586D01*
X453270D01*
Y160830D01*
X453648D01*
Y160452D01*
X454026D01*
Y159696D01*
X454404D01*
Y159318D01*
X454782D01*
Y158561D01*
X455160D01*
Y157805D01*
X455539D01*
Y157427D01*
X455917D01*
Y156671D01*
X456295D01*
Y156293D01*
X456673D01*
Y155537D01*
X457051D01*
Y154781D01*
X457429D01*
Y154403D01*
X457807D01*
Y153647D01*
X458185D01*
Y153268D01*
X458563D01*
Y152512D01*
X458941D01*
Y151756D01*
X459319D01*
Y151378D01*
X459697D01*
Y150622D01*
X460075D01*
Y150244D01*
X460453D01*
Y149488D01*
X460832D01*
Y148732D01*
X461210D01*
Y148354D01*
X461588D01*
Y147597D01*
X461966D01*
Y147219D01*
X462344D01*
Y146463D01*
X462722D01*
Y145707D01*
X463100D01*
Y145329D01*
X463478D01*
Y144573D01*
X463856D01*
Y144195D01*
X464234D01*
Y143439D01*
X464612D01*
Y142683D01*
X464990D01*
Y142304D01*
X465368D01*
Y141548D01*
X465746D01*
Y141170D01*
X466125D01*
Y140414D01*
X466503D01*
Y139658D01*
X466881D01*
Y139280D01*
X467259D01*
Y138524D01*
X467637D01*
Y138146D01*
X468015D01*
Y137389D01*
X468393D01*
Y136633D01*
X468771D01*
Y136255D01*
X469149D01*
Y135499D01*
X469527D01*
Y135121D01*
X469905D01*
Y134365D01*
X470283D01*
Y133609D01*
X470662D01*
Y133231D01*
X471040D01*
Y132475D01*
X471418D01*
Y132097D01*
X471796D01*
Y131340D01*
X472174D01*
Y130584D01*
X472552D01*
Y130206D01*
X472930D01*
Y129450D01*
X473308D01*
Y129072D01*
X473686D01*
Y128316D01*
X474064D01*
Y127938D01*
X474442D01*
Y127182D01*
X474820D01*
Y126426D01*
X475198D01*
Y126047D01*
X475576D01*
Y125291D01*
X475955D01*
Y124913D01*
X476333D01*
Y124157D01*
X476711D01*
Y123401D01*
X477089D01*
Y123023D01*
X477467D01*
Y122267D01*
X477845D01*
Y121889D01*
X478223D01*
Y121132D01*
X478601D01*
Y120376D01*
X478979D01*
Y119998D01*
X479357D01*
Y119242D01*
X479735D01*
Y118864D01*
X480113D01*
Y118108D01*
X480491D01*
Y117352D01*
X480869D01*
Y116974D01*
X481247D01*
Y116217D01*
X481626D01*
Y115839D01*
X482004D01*
Y115083D01*
X482382D01*
Y114327D01*
X482760D01*
Y113949D01*
X483138D01*
Y113193D01*
X483516D01*
Y112815D01*
X483894D01*
Y112059D01*
X484272D01*
Y111303D01*
X484650D01*
Y110925D01*
X485028D01*
Y110168D01*
X485406D01*
Y107144D01*
X485028D01*
Y106388D01*
X484650D01*
Y106010D01*
X484272D01*
Y105632D01*
X483894D01*
Y105253D01*
X483138D01*
Y104875D01*
X365558D01*
Y105253D01*
X364801D01*
Y105632D01*
X364423D01*
Y106010D01*
X364045D01*
Y106766D01*
X363667D01*
Y107522D01*
X363289D01*
Y109790D01*
X363667D01*
Y110546D01*
X364045D01*
Y111303D01*
X364423D01*
Y112059D01*
X364801D01*
Y112437D01*
X365180D01*
Y113193D01*
X365558D01*
Y113949D01*
X365936D01*
Y114327D01*
X366314D01*
Y115083D01*
X366692D01*
Y115461D01*
X367070D01*
Y116217D01*
X367448D01*
Y116596D01*
X367826D01*
Y117352D01*
X368204D01*
Y118108D01*
X368582D01*
Y118486D01*
X368960D01*
Y119242D01*
X369338D01*
Y119620D01*
X369716D01*
Y120376D01*
X370094D01*
Y121132D01*
X370473D01*
Y121510D01*
X370851D01*
Y122267D01*
X371229D01*
Y122645D01*
X371607D01*
Y123401D01*
X371985D01*
Y124157D01*
X372363D01*
Y124535D01*
X372741D01*
Y125291D01*
X373119D01*
Y125669D01*
X373497D01*
Y126426D01*
X373875D01*
Y127182D01*
X374253D01*
Y127560D01*
X374631D01*
Y128316D01*
X375009D01*
Y128694D01*
X375387D01*
Y129450D01*
X375766D01*
Y130206D01*
X376144D01*
Y130584D01*
X376522D01*
Y131340D01*
X376900D01*
Y131718D01*
X377278D01*
Y132475D01*
X377656D01*
Y133231D01*
X378034D01*
Y133609D01*
X378412D01*
Y134365D01*
X378790D01*
Y134743D01*
X379168D01*
Y135499D01*
X379546D01*
Y136255D01*
X379924D01*
Y136633D01*
X380302D01*
Y137389D01*
X380681D01*
Y137768D01*
X381059D01*
Y138524D01*
X381437D01*
Y139280D01*
X381815D01*
Y139658D01*
X382193D01*
Y140414D01*
X382571D01*
Y140792D01*
X382949D01*
Y141548D01*
X383327D01*
Y141926D01*
X383705D01*
Y142683D01*
X384083D01*
Y143439D01*
X384461D01*
Y143817D01*
X384839D01*
Y144573D01*
X385217D01*
Y144951D01*
X385595D01*
Y145707D01*
X385974D01*
Y146463D01*
X386352D01*
Y146841D01*
X386730D01*
Y147597D01*
X387108D01*
Y148354D01*
X387486D01*
Y148732D01*
X387864D01*
Y149488D01*
X388242D01*
Y149866D01*
X388620D01*
Y150622D01*
X388998D01*
Y151000D01*
X389376D01*
Y151756D01*
X389754D01*
Y152512D01*
X390132D01*
Y152890D01*
X390510D01*
Y153647D01*
X390888D01*
Y154025D01*
X391267D01*
Y154781D01*
X391645D01*
Y155537D01*
X392023D01*
Y155915D01*
X392401D01*
Y156671D01*
X392779D01*
Y157049D01*
X393157D01*
Y157805D01*
X393535D01*
Y158561D01*
X393913D01*
Y158940D01*
X394291D01*
Y159696D01*
X394669D01*
Y160074D01*
X395047D01*
Y160830D01*
X395425D01*
Y161586D01*
X395803D01*
Y161964D01*
X396181D01*
Y162720D01*
X396559D01*
Y163098D01*
X396938D01*
Y163855D01*
X397316D01*
Y164611D01*
X397694D01*
Y164989D01*
X398072D01*
Y165745D01*
X398450D01*
Y166123D01*
X398828D01*
Y166879D01*
X399206D01*
Y167635D01*
X399584D01*
Y168013D01*
X399962D01*
Y168769D01*
X400340D01*
Y169147D01*
X400718D01*
Y169904D01*
X401096D01*
Y170282D01*
X401474D01*
Y171038D01*
X401852D01*
Y171794D01*
X402231D01*
Y172172D01*
X402609D01*
Y172928D01*
X402987D01*
Y173684D01*
X403365D01*
Y174062D01*
X403743D01*
Y174819D01*
X404121D01*
Y175197D01*
X404499D01*
Y175953D01*
X404877D01*
Y176709D01*
X405255D01*
Y177087D01*
X405633D01*
Y177843D01*
X406011D01*
Y178221D01*
X406389D01*
Y178977D01*
X406767D01*
Y179355D01*
X407146D01*
Y180112D01*
X407524D01*
Y180868D01*
X407902D01*
Y181246D01*
X408280D01*
Y182002D01*
X408658D01*
Y182758D01*
X409036D01*
Y183136D01*
X409414D01*
Y183892D01*
X409792D01*
Y184270D01*
X410170D01*
Y185026D01*
X410548D01*
Y185405D01*
X410926D01*
Y186161D01*
X411304D01*
Y186917D01*
X411682D01*
Y187295D01*
X412060D01*
Y188051D01*
X412439D01*
Y188429D01*
X412817D01*
Y189185D01*
X413195D01*
Y189941D01*
X413573D01*
Y190319D01*
X413951D01*
Y191076D01*
X414329D01*
Y191454D01*
X414707D01*
Y192210D01*
X415085D01*
Y192966D01*
X415463D01*
Y193344D01*
X415841D01*
Y194100D01*
X416219D01*
Y194478D01*
X416597D01*
Y195234D01*
X416975D01*
Y195991D01*
X417353D01*
Y196369D01*
X417732D01*
Y197125D01*
X418110D01*
Y197503D01*
X418488D01*
Y198259D01*
X418866D01*
Y199015D01*
X419244D01*
Y199393D01*
X419622D01*
Y200149D01*
X420000D01*
Y200527D01*
X420378D01*
Y201283D01*
X420756D01*
Y202040D01*
X421134D01*
Y202418D01*
X421512D01*
Y202796D01*
X421890D01*
Y203174D01*
X422268D01*
Y203552D01*
X423403D01*
Y203930D01*
X425293D01*
Y203552D01*
D02*
G37*
G36*
X316940Y744631D02*
X317696D01*
Y744252D01*
X318075D01*
Y743874D01*
X318453D01*
Y743118D01*
X318831D01*
Y742362D01*
X319209D01*
Y740094D01*
X318831D01*
Y739338D01*
X318453D01*
Y738581D01*
X318075D01*
Y737825D01*
X317696D01*
Y737447D01*
X317318D01*
Y736691D01*
X316940D01*
Y735935D01*
X316562D01*
Y735557D01*
X316184D01*
Y734801D01*
X315806D01*
Y734423D01*
X315428D01*
Y733667D01*
X315050D01*
Y733288D01*
X314672D01*
Y732532D01*
X314294D01*
Y731776D01*
X313916D01*
Y731398D01*
X313538D01*
Y730642D01*
X313160D01*
Y730264D01*
X312782D01*
Y729508D01*
X312404D01*
Y728752D01*
X312025D01*
Y728373D01*
X311647D01*
Y727617D01*
X311269D01*
Y727239D01*
X310891D01*
Y726483D01*
X310513D01*
Y725727D01*
X310135D01*
Y725349D01*
X309757D01*
Y724593D01*
X309379D01*
Y724215D01*
X309001D01*
Y723458D01*
X308623D01*
Y722702D01*
X308245D01*
Y722324D01*
X307867D01*
Y721568D01*
X307489D01*
Y721190D01*
X307111D01*
Y720434D01*
X306732D01*
Y719678D01*
X306354D01*
Y719300D01*
X305976D01*
Y718544D01*
X305598D01*
Y718166D01*
X305220D01*
Y717409D01*
X304842D01*
Y716653D01*
X304464D01*
Y716275D01*
X304086D01*
Y715519D01*
X303708D01*
Y715141D01*
X303330D01*
Y714385D01*
X302952D01*
Y713629D01*
X302574D01*
Y713251D01*
X302196D01*
Y712495D01*
X301817D01*
Y712116D01*
X301439D01*
Y711360D01*
X301061D01*
Y710604D01*
X300683D01*
Y710226D01*
X300305D01*
Y709470D01*
X299927D01*
Y709092D01*
X299549D01*
Y708336D01*
X299171D01*
Y707958D01*
X298793D01*
Y707202D01*
X298415D01*
Y706445D01*
X298037D01*
Y706067D01*
X297659D01*
Y705311D01*
X297281D01*
Y704933D01*
X296903D01*
Y704177D01*
X296525D01*
Y703421D01*
X296146D01*
Y703043D01*
X295768D01*
Y702287D01*
X295390D01*
Y701530D01*
X295012D01*
Y701152D01*
X294634D01*
Y700396D01*
X294256D01*
Y700018D01*
X293878D01*
Y699262D01*
X293500D01*
Y698884D01*
X293122D01*
Y698128D01*
X292744D01*
Y697372D01*
X292366D01*
Y696994D01*
X291988D01*
Y696237D01*
X291610D01*
Y695859D01*
X291231D01*
Y695103D01*
X290853D01*
Y694347D01*
X290475D01*
Y693969D01*
X290097D01*
Y693213D01*
X289719D01*
Y692835D01*
X289341D01*
Y692079D01*
X288963D01*
Y691322D01*
X288585D01*
Y690944D01*
X288207D01*
Y690188D01*
X287829D01*
Y689810D01*
X287451D01*
Y689054D01*
X287073D01*
Y688298D01*
X286695D01*
Y687920D01*
X286317D01*
Y687164D01*
X285938D01*
Y686786D01*
X285560D01*
Y686030D01*
X285182D01*
Y685273D01*
X284804D01*
Y684895D01*
X284426D01*
Y684139D01*
X284048D01*
Y683761D01*
X283670D01*
Y683005D01*
X283292D01*
Y682249D01*
X282914D01*
Y681871D01*
X282536D01*
Y681115D01*
X282158D01*
Y680736D01*
X281780D01*
Y679980D01*
X281402D01*
Y679602D01*
X281024D01*
Y678846D01*
X280646D01*
Y678090D01*
X280267D01*
Y677712D01*
X279889D01*
Y676956D01*
X279511D01*
Y676200D01*
X279133D01*
Y675822D01*
X278755D01*
Y675065D01*
X278377D01*
Y674687D01*
X277999D01*
Y673931D01*
X277621D01*
Y673175D01*
X277243D01*
Y672797D01*
X276865D01*
Y672041D01*
X276487D01*
Y671663D01*
X276109D01*
Y670907D01*
X275731D01*
Y670529D01*
X275352D01*
Y669772D01*
X274974D01*
Y669016D01*
X274596D01*
Y668638D01*
X274218D01*
Y667882D01*
X273840D01*
Y667126D01*
X273462D01*
Y666748D01*
X273084D01*
Y665992D01*
X272706D01*
Y665614D01*
X272328D01*
Y664857D01*
X271950D01*
Y664479D01*
X271572D01*
Y663723D01*
X271194D01*
Y662967D01*
X270816D01*
Y662589D01*
X270438D01*
Y661833D01*
X270060D01*
Y661455D01*
X269681D01*
Y660699D01*
X269303D01*
Y659943D01*
X268925D01*
Y659565D01*
X268547D01*
Y658808D01*
X268169D01*
Y658430D01*
X267791D01*
Y657674D01*
X267413D01*
Y656918D01*
X267035D01*
Y656540D01*
X266657D01*
Y655784D01*
X266279D01*
Y655406D01*
X265901D01*
Y654650D01*
X265523D01*
Y653893D01*
X265145D01*
Y653515D01*
X264767D01*
Y652759D01*
X264388D01*
Y652381D01*
X264010D01*
Y651625D01*
X263632D01*
Y650869D01*
X263254D01*
Y650491D01*
X262876D01*
Y649735D01*
X262498D01*
Y649357D01*
X262120D01*
Y648600D01*
X261742D01*
Y647844D01*
X261364D01*
Y647466D01*
X260986D01*
Y647088D01*
X260608D01*
Y646710D01*
X260230D01*
Y646332D01*
X259095D01*
Y645954D01*
X257205D01*
Y646332D01*
X256071D01*
Y646710D01*
X255693D01*
Y647088D01*
X255315D01*
Y647466D01*
X254937D01*
Y647844D01*
X254559D01*
Y648600D01*
X254181D01*
Y648979D01*
X253802D01*
Y649735D01*
X253424D01*
Y650491D01*
X253046D01*
Y650869D01*
X252668D01*
Y651625D01*
X252290D01*
Y652003D01*
X251912D01*
Y652759D01*
X251534D01*
Y653137D01*
X251156D01*
Y653893D01*
X250778D01*
Y654650D01*
X250400D01*
Y655028D01*
X250022D01*
Y655784D01*
X249644D01*
Y656162D01*
X249266D01*
Y656918D01*
X248888D01*
Y657674D01*
X248510D01*
Y658052D01*
X248131D01*
Y658808D01*
X247753D01*
Y659186D01*
X247375D01*
Y659943D01*
X246997D01*
Y660699D01*
X246619D01*
Y661077D01*
X246241D01*
Y661833D01*
X245863D01*
Y662211D01*
X245485D01*
Y662967D01*
X245107D01*
Y663723D01*
X244729D01*
Y664101D01*
X244351D01*
Y664857D01*
X243973D01*
Y665236D01*
X243594D01*
Y665992D01*
X243216D01*
Y666748D01*
X242838D01*
Y667126D01*
X242460D01*
Y667882D01*
X242082D01*
Y668260D01*
X241704D01*
Y669016D01*
X241326D01*
Y669772D01*
X240948D01*
Y670151D01*
X240570D01*
Y670907D01*
X240192D01*
Y671285D01*
X239814D01*
Y672041D01*
X239436D01*
Y672797D01*
X239058D01*
Y673175D01*
X238680D01*
Y673931D01*
X238302D01*
Y674309D01*
X237924D01*
Y675065D01*
X237545D01*
Y675822D01*
X237167D01*
Y676200D01*
X236789D01*
Y676956D01*
X236411D01*
Y677334D01*
X236033D01*
Y678090D01*
X235655D01*
Y678846D01*
X235277D01*
Y679224D01*
X234899D01*
Y679980D01*
X234521D01*
Y680358D01*
X234143D01*
Y681115D01*
X233765D01*
Y681493D01*
X233387D01*
Y682249D01*
X233008D01*
Y683005D01*
X232630D01*
Y683383D01*
X232252D01*
Y684139D01*
X231874D01*
Y684517D01*
X231496D01*
Y685273D01*
X231118D01*
Y686030D01*
X230740D01*
Y686408D01*
X230362D01*
Y687164D01*
X229984D01*
Y687542D01*
X229606D01*
Y688298D01*
X229228D01*
Y689054D01*
X228850D01*
Y689432D01*
X228472D01*
Y690188D01*
X228094D01*
Y690566D01*
X227715D01*
Y691322D01*
X227337D01*
Y692079D01*
X226959D01*
Y692457D01*
X226581D01*
Y693213D01*
X226203D01*
Y693591D01*
X225825D01*
Y694347D01*
X225447D01*
Y695103D01*
X225069D01*
Y695481D01*
X224691D01*
Y696237D01*
X224313D01*
Y696616D01*
X223935D01*
Y697372D01*
X223557D01*
Y698128D01*
X223179D01*
Y698506D01*
X222801D01*
Y699262D01*
X222423D01*
Y699640D01*
X222045D01*
Y700396D01*
X221666D01*
Y701152D01*
X221288D01*
Y701530D01*
X220910D01*
Y702287D01*
X220532D01*
Y702665D01*
X220154D01*
Y703421D01*
X219776D01*
Y704177D01*
X219398D01*
Y704555D01*
X219020D01*
Y705311D01*
X218642D01*
Y705689D01*
X218264D01*
Y706445D01*
X217886D01*
Y707202D01*
X217508D01*
Y707580D01*
X217129D01*
Y708336D01*
X216751D01*
Y708714D01*
X216373D01*
Y709470D01*
X215995D01*
Y710226D01*
X215617D01*
Y710604D01*
X215239D01*
Y711360D01*
X214861D01*
Y711738D01*
X214483D01*
Y712495D01*
X214105D01*
Y713251D01*
X213727D01*
Y713629D01*
X213349D01*
Y714385D01*
X212971D01*
Y714763D01*
X212593D01*
Y715519D01*
X212215D01*
Y716275D01*
X211836D01*
Y716653D01*
X211458D01*
Y717409D01*
X211080D01*
Y717787D01*
X210702D01*
Y718544D01*
X210324D01*
Y719300D01*
X209946D01*
Y719678D01*
X209568D01*
Y720434D01*
X209190D01*
Y720812D01*
X208812D01*
Y721568D01*
X208434D01*
Y721946D01*
X208056D01*
Y722702D01*
X207678D01*
Y723458D01*
X207300D01*
Y723837D01*
X206922D01*
Y724593D01*
X206544D01*
Y724971D01*
X206166D01*
Y725727D01*
X205787D01*
Y726483D01*
X205409D01*
Y726861D01*
X205031D01*
Y727617D01*
X204653D01*
Y727995D01*
X204275D01*
Y728752D01*
X203897D01*
Y729508D01*
X203519D01*
Y729886D01*
X203141D01*
Y730642D01*
X202763D01*
Y731020D01*
X202385D01*
Y731776D01*
X202007D01*
Y732532D01*
X201629D01*
Y732910D01*
X201250D01*
Y733667D01*
X200872D01*
Y734045D01*
X200494D01*
Y734801D01*
X200116D01*
Y735557D01*
X199738D01*
Y735935D01*
X199360D01*
Y736691D01*
X198982D01*
Y737069D01*
X198604D01*
Y737825D01*
X198226D01*
Y738581D01*
X197848D01*
Y738960D01*
X197470D01*
Y739716D01*
X197092D01*
Y742740D01*
X197470D01*
Y743496D01*
X197848D01*
Y743874D01*
X198226D01*
Y744252D01*
X198604D01*
Y744631D01*
X199360D01*
Y745009D01*
X316940D01*
Y744631D01*
D02*
G37*
%LPC*%
G36*
X425671Y202418D02*
X423403D01*
Y202040D01*
X422646D01*
Y201662D01*
X422268D01*
Y200905D01*
X421890D01*
Y200527D01*
X421512D01*
Y199771D01*
X421134D01*
Y199393D01*
X420756D01*
Y198637D01*
X420378D01*
Y197881D01*
X420000D01*
Y197503D01*
X419622D01*
Y196747D01*
X419244D01*
Y196369D01*
X418866D01*
Y195613D01*
X418488D01*
Y194856D01*
X418110D01*
Y194478D01*
X417732D01*
Y193722D01*
X417353D01*
Y193344D01*
X416975D01*
Y192588D01*
X416597D01*
Y191832D01*
X416219D01*
Y191454D01*
X415841D01*
Y190698D01*
X415463D01*
Y190319D01*
X415085D01*
Y189563D01*
X414707D01*
Y188807D01*
X414329D01*
Y188429D01*
X413951D01*
Y187673D01*
X413573D01*
Y187295D01*
X413195D01*
Y186539D01*
X412817D01*
Y185783D01*
X412439D01*
Y185405D01*
X412060D01*
Y184648D01*
X411682D01*
Y184270D01*
X411304D01*
Y183514D01*
X410926D01*
Y182758D01*
X410548D01*
Y182380D01*
X410170D01*
Y181624D01*
X409792D01*
Y181246D01*
X409414D01*
Y180490D01*
X409036D01*
Y179734D01*
X408658D01*
Y179355D01*
X408280D01*
Y178599D01*
X407902D01*
Y178221D01*
X407524D01*
Y177465D01*
X407146D01*
Y176709D01*
X406767D01*
Y176331D01*
X406389D01*
Y175575D01*
X406011D01*
Y175197D01*
X405633D01*
Y174440D01*
X405255D01*
Y174062D01*
X404877D01*
Y173306D01*
X404499D01*
Y172550D01*
X404121D01*
Y172172D01*
X403743D01*
Y171416D01*
X403365D01*
Y171038D01*
X402987D01*
Y170282D01*
X402609D01*
Y169526D01*
X402231D01*
Y169147D01*
X401852D01*
Y168391D01*
X401474D01*
Y168013D01*
X401096D01*
Y167257D01*
X400718D01*
Y166501D01*
X400340D01*
Y166123D01*
X399962D01*
Y165367D01*
X399584D01*
Y164989D01*
X399206D01*
Y164233D01*
X398828D01*
Y163476D01*
X398450D01*
Y163098D01*
X398072D01*
Y162342D01*
X397694D01*
Y161964D01*
X397316D01*
Y161208D01*
X396938D01*
Y160452D01*
X396559D01*
Y160074D01*
X396181D01*
Y159318D01*
X395803D01*
Y158940D01*
X395425D01*
Y158183D01*
X395047D01*
Y157427D01*
X394669D01*
Y157049D01*
X394291D01*
Y156293D01*
X393913D01*
Y155915D01*
X393535D01*
Y155159D01*
X393157D01*
Y154781D01*
X392779D01*
Y154025D01*
X392401D01*
Y153268D01*
X392023D01*
Y152890D01*
X391645D01*
Y152134D01*
X391267D01*
Y151378D01*
X390888D01*
Y151000D01*
X390510D01*
Y150244D01*
X390132D01*
Y149866D01*
X389754D01*
Y149110D01*
X389376D01*
Y148354D01*
X388998D01*
Y147976D01*
X388620D01*
Y147219D01*
X388242D01*
Y146841D01*
X387864D01*
Y146085D01*
X387486D01*
Y145329D01*
X387108D01*
Y144951D01*
X386730D01*
Y144195D01*
X386352D01*
Y143817D01*
X385974D01*
Y143061D01*
X385595D01*
Y142683D01*
X385217D01*
Y141926D01*
X384839D01*
Y141170D01*
X384461D01*
Y140792D01*
X384083D01*
Y140036D01*
X383705D01*
Y139280D01*
X383327D01*
Y138902D01*
X382949D01*
Y138146D01*
X382571D01*
Y137768D01*
X382193D01*
Y137011D01*
X381815D01*
Y136255D01*
X381437D01*
Y135877D01*
X381059D01*
Y135121D01*
X380681D01*
Y134743D01*
X380302D01*
Y133987D01*
X379924D01*
Y133609D01*
X379546D01*
Y132853D01*
X379168D01*
Y132097D01*
X378790D01*
Y131718D01*
X378412D01*
Y130962D01*
X378034D01*
Y130584D01*
X377656D01*
Y129828D01*
X377278D01*
Y129072D01*
X376900D01*
Y128694D01*
X376522D01*
Y127938D01*
X376144D01*
Y127560D01*
X375766D01*
Y126804D01*
X375387D01*
Y126047D01*
X375009D01*
Y125669D01*
X374631D01*
Y124913D01*
X374253D01*
Y124535D01*
X373875D01*
Y123779D01*
X373497D01*
Y123023D01*
X373119D01*
Y122645D01*
X372741D01*
Y121889D01*
X372363D01*
Y121510D01*
X371985D01*
Y120754D01*
X371607D01*
Y119998D01*
X371229D01*
Y119620D01*
X370851D01*
Y118864D01*
X370473D01*
Y118486D01*
X370094D01*
Y117730D01*
X369716D01*
Y116974D01*
X369338D01*
Y116596D01*
X368960D01*
Y115839D01*
X368582D01*
Y115461D01*
X368204D01*
Y114705D01*
X367826D01*
Y113949D01*
X367448D01*
Y113571D01*
X367070D01*
Y112815D01*
X366692D01*
Y112437D01*
X366314D01*
Y111681D01*
X365936D01*
Y110925D01*
X365558D01*
Y110546D01*
X365180D01*
Y109790D01*
X364801D01*
Y107522D01*
X365180D01*
Y106766D01*
X365558D01*
Y106388D01*
X366692D01*
Y106010D01*
X482382D01*
Y106388D01*
X483138D01*
Y106766D01*
X483516D01*
Y107144D01*
X483894D01*
Y108278D01*
X484272D01*
Y108656D01*
X483894D01*
Y110168D01*
X483516D01*
Y110546D01*
X483138D01*
Y111303D01*
X482760D01*
Y111681D01*
X482382D01*
Y112437D01*
X482004D01*
Y113193D01*
X481626D01*
Y113571D01*
X481247D01*
Y114327D01*
X480869D01*
Y114705D01*
X480491D01*
Y115461D01*
X480113D01*
Y116217D01*
X479735D01*
Y116596D01*
X479357D01*
Y117352D01*
X478979D01*
Y117730D01*
X478601D01*
Y118486D01*
X478223D01*
Y118864D01*
X477845D01*
Y119620D01*
X477467D01*
Y120376D01*
X477089D01*
Y120754D01*
X476711D01*
Y121510D01*
X476333D01*
Y122267D01*
X475955D01*
Y122645D01*
X475576D01*
Y123401D01*
X475198D01*
Y123779D01*
X474820D01*
Y124535D01*
X474442D01*
Y125291D01*
X474064D01*
Y125669D01*
X473686D01*
Y126426D01*
X473308D01*
Y126804D01*
X472930D01*
Y127560D01*
X472552D01*
Y128316D01*
X472174D01*
Y128694D01*
X471796D01*
Y129450D01*
X471418D01*
Y129828D01*
X471040D01*
Y130584D01*
X470662D01*
Y130962D01*
X470283D01*
Y131718D01*
X469905D01*
Y132475D01*
X469527D01*
Y132853D01*
X469149D01*
Y133609D01*
X468771D01*
Y133987D01*
X468393D01*
Y134743D01*
X468015D01*
Y135499D01*
X467637D01*
Y135877D01*
X467259D01*
Y136633D01*
X466881D01*
Y137011D01*
X466503D01*
Y137768D01*
X466125D01*
Y138524D01*
X465746D01*
Y138902D01*
X465368D01*
Y139658D01*
X464990D01*
Y140036D01*
X464612D01*
Y140792D01*
X464234D01*
Y141548D01*
X463856D01*
Y141926D01*
X463478D01*
Y142683D01*
X463100D01*
Y143061D01*
X462722D01*
Y143817D01*
X462344D01*
Y144573D01*
X461966D01*
Y144951D01*
X461588D01*
Y145707D01*
X461210D01*
Y146085D01*
X460832D01*
Y146841D01*
X460453D01*
Y147597D01*
X460075D01*
Y147976D01*
X459697D01*
Y148732D01*
X459319D01*
Y149110D01*
X458941D01*
Y149866D01*
X458563D01*
Y150622D01*
X458185D01*
Y151000D01*
X457807D01*
Y151756D01*
X457429D01*
Y152134D01*
X457051D01*
Y152890D01*
X456673D01*
Y153268D01*
X456295D01*
Y154025D01*
X455917D01*
Y154781D01*
X455539D01*
Y155159D01*
X455160D01*
Y155915D01*
X454782D01*
Y156293D01*
X454404D01*
Y157049D01*
X454026D01*
Y157805D01*
X453648D01*
Y158183D01*
X453270D01*
Y158940D01*
X452892D01*
Y159696D01*
X452514D01*
Y160074D01*
X452136D01*
Y160830D01*
X451758D01*
Y161208D01*
X451380D01*
Y161964D01*
X451002D01*
Y162342D01*
X450624D01*
Y163098D01*
X450246D01*
Y163855D01*
X449868D01*
Y164233D01*
X449490D01*
Y164989D01*
X449111D01*
Y165367D01*
X448733D01*
Y166123D01*
X448355D01*
Y166879D01*
X447977D01*
Y167257D01*
X447599D01*
Y168013D01*
X447221D01*
Y168391D01*
X446843D01*
Y169147D01*
X446465D01*
Y169904D01*
X446087D01*
Y170282D01*
X445709D01*
Y171038D01*
X445331D01*
Y171416D01*
X444953D01*
Y172172D01*
X444575D01*
Y172928D01*
X444197D01*
Y173306D01*
X443818D01*
Y174062D01*
X443440D01*
Y174440D01*
X443062D01*
Y175197D01*
X442684D01*
Y175953D01*
X442306D01*
Y176331D01*
X441928D01*
Y177087D01*
X441550D01*
Y177465D01*
X441172D01*
Y178221D01*
X440794D01*
Y178977D01*
X440416D01*
Y179355D01*
X440038D01*
Y180112D01*
X439660D01*
Y180490D01*
X439282D01*
Y181246D01*
X438904D01*
Y182002D01*
X438525D01*
Y182380D01*
X438147D01*
Y183136D01*
X437769D01*
Y183514D01*
X437391D01*
Y184270D01*
X437013D01*
Y185026D01*
X436635D01*
Y185405D01*
X436257D01*
Y186161D01*
X435879D01*
Y186539D01*
X435501D01*
Y187295D01*
X435123D01*
Y188051D01*
X434745D01*
Y188429D01*
X434367D01*
Y189185D01*
X433988D01*
Y189563D01*
X433610D01*
Y190319D01*
X433232D01*
Y191076D01*
X432854D01*
Y191454D01*
X432476D01*
Y192210D01*
X432098D01*
Y192588D01*
X431720D01*
Y193344D01*
X431342D01*
Y193722D01*
X430964D01*
Y194478D01*
X430586D01*
Y195234D01*
X430208D01*
Y195613D01*
X429830D01*
Y196369D01*
X429452D01*
Y196747D01*
X429074D01*
Y197503D01*
X428696D01*
Y198259D01*
X428317D01*
Y198637D01*
X427939D01*
Y199393D01*
X427561D01*
Y200149D01*
X427183D01*
Y200527D01*
X426805D01*
Y201283D01*
X426427D01*
Y201662D01*
X426049D01*
Y202040D01*
X425671D01*
Y202418D01*
D02*
G37*
%LPD*%
G36*
X420000Y192588D02*
X420378D01*
Y191832D01*
X420756D01*
Y191454D01*
X421134D01*
Y190698D01*
X421512D01*
Y190319D01*
X421890D01*
Y189941D01*
X422268D01*
Y189185D01*
X422646D01*
Y188807D01*
X423024D01*
Y188429D01*
X423403D01*
Y187673D01*
X423781D01*
Y187295D01*
X424159D01*
Y186539D01*
X424537D01*
Y186161D01*
X424915D01*
Y185783D01*
X425293D01*
Y185026D01*
X425671D01*
Y184648D01*
X426049D01*
Y183892D01*
X426427D01*
Y183514D01*
X426805D01*
Y183136D01*
X427183D01*
Y182380D01*
X427561D01*
Y182002D01*
X427939D01*
Y181246D01*
X428317D01*
Y180868D01*
X428696D01*
Y180490D01*
X429074D01*
Y179734D01*
X429452D01*
Y179355D01*
X429830D01*
Y178599D01*
X430208D01*
Y178221D01*
X430586D01*
Y177843D01*
X430964D01*
Y177087D01*
X431342D01*
Y176709D01*
X431720D01*
Y175953D01*
X432098D01*
Y175575D01*
X432476D01*
Y175197D01*
X432854D01*
Y174440D01*
X433232D01*
Y174062D01*
X433610D01*
Y173684D01*
X433988D01*
Y172928D01*
X434367D01*
Y172550D01*
X434745D01*
Y171794D01*
X435123D01*
Y171416D01*
X435501D01*
Y170660D01*
X435879D01*
Y170282D01*
X436257D01*
Y169904D01*
X436635D01*
Y169147D01*
X437013D01*
Y168769D01*
X437391D01*
Y168013D01*
X437769D01*
Y167635D01*
X438147D01*
Y167257D01*
X438525D01*
Y166501D01*
X438904D01*
Y166123D01*
X439282D01*
Y165745D01*
X439660D01*
Y164989D01*
X440038D01*
Y164611D01*
X440416D01*
Y163855D01*
X440794D01*
Y163476D01*
X441172D01*
Y163098D01*
X441550D01*
Y162342D01*
X441928D01*
Y161964D01*
X442306D01*
Y161208D01*
X442684D01*
Y160830D01*
X443062D01*
Y160452D01*
X443440D01*
Y159696D01*
X430208D01*
Y159318D01*
X428317D01*
Y158940D01*
X428696D01*
Y156293D01*
X429074D01*
Y153268D01*
X429452D01*
Y150244D01*
X429830D01*
Y147219D01*
X430208D01*
Y144195D01*
X430586D01*
Y141170D01*
X430208D01*
Y141926D01*
X429830D01*
Y142683D01*
X429452D01*
Y143061D01*
X429074D01*
Y143817D01*
X428696D01*
Y144195D01*
X428317D01*
Y144951D01*
X427939D01*
Y145329D01*
X427561D01*
Y146085D01*
X427183D01*
Y146463D01*
X426805D01*
Y147219D01*
X426427D01*
Y147597D01*
X426049D01*
Y148354D01*
X425671D01*
Y148732D01*
X425293D01*
Y149488D01*
X424915D01*
Y149866D01*
X424537D01*
Y150622D01*
X424159D01*
Y151000D01*
X423781D01*
Y151756D01*
X423403D01*
Y152134D01*
X423024D01*
Y152890D01*
X422646D01*
Y153268D01*
X422268D01*
Y154025D01*
X421890D01*
Y154403D01*
X421512D01*
Y155159D01*
X421134D01*
Y155537D01*
X420756D01*
Y156293D01*
X420378D01*
Y156671D01*
X420000D01*
Y157427D01*
X419622D01*
Y157805D01*
X419244D01*
Y158561D01*
X418866D01*
Y158940D01*
X418488D01*
Y159696D01*
X418110D01*
Y160074D01*
X417732D01*
Y160830D01*
X417353D01*
Y161208D01*
X416975D01*
Y161964D01*
X416597D01*
Y162342D01*
X416219D01*
Y163098D01*
X415841D01*
Y163476D01*
X415463D01*
Y164233D01*
X415085D01*
Y164611D01*
X414707D01*
Y165367D01*
X414329D01*
Y165745D01*
X413951D01*
Y166501D01*
X413573D01*
Y166879D01*
X413195D01*
Y167635D01*
X412817D01*
Y168013D01*
X412439D01*
Y168769D01*
X412060D01*
Y169147D01*
X427183D01*
Y169526D01*
X426805D01*
Y171038D01*
X426427D01*
Y172172D01*
X426049D01*
Y173306D01*
X425671D01*
Y174440D01*
X425293D01*
Y175575D01*
X424915D01*
Y176709D01*
X424537D01*
Y177843D01*
X424159D01*
Y178977D01*
X423781D01*
Y180112D01*
X423403D01*
Y181624D01*
X423024D01*
Y182758D01*
X422646D01*
Y183892D01*
X422268D01*
Y185026D01*
X421890D01*
Y186161D01*
X421512D01*
Y187295D01*
X421134D01*
Y188429D01*
X420756D01*
Y189563D01*
X420378D01*
Y190698D01*
X420000D01*
Y191832D01*
X419622D01*
Y192966D01*
X420000D01*
Y192588D01*
D02*
G37*
%LPC*%
G36*
X315806Y743874D02*
X200116D01*
Y743496D01*
X199360D01*
Y743118D01*
X198982D01*
Y742740D01*
X198604D01*
Y741606D01*
X198226D01*
Y741228D01*
X198604D01*
Y739716D01*
X198982D01*
Y739338D01*
X199360D01*
Y738581D01*
X199738D01*
Y738203D01*
X200116D01*
Y737447D01*
X200494D01*
Y736691D01*
X200872D01*
Y736313D01*
X201250D01*
Y735557D01*
X201629D01*
Y735179D01*
X202007D01*
Y734423D01*
X202385D01*
Y733667D01*
X202763D01*
Y733288D01*
X203141D01*
Y732532D01*
X203519D01*
Y732154D01*
X203897D01*
Y731398D01*
X204275D01*
Y731020D01*
X204653D01*
Y730264D01*
X205031D01*
Y729508D01*
X205409D01*
Y729130D01*
X205787D01*
Y728373D01*
X206166D01*
Y727617D01*
X206544D01*
Y727239D01*
X206922D01*
Y726483D01*
X207300D01*
Y726105D01*
X207678D01*
Y725349D01*
X208056D01*
Y724593D01*
X208434D01*
Y724215D01*
X208812D01*
Y723458D01*
X209190D01*
Y723081D01*
X209568D01*
Y722324D01*
X209946D01*
Y721568D01*
X210324D01*
Y721190D01*
X210702D01*
Y720434D01*
X211080D01*
Y720056D01*
X211458D01*
Y719300D01*
X211836D01*
Y718922D01*
X212215D01*
Y718166D01*
X212593D01*
Y717409D01*
X212971D01*
Y717031D01*
X213349D01*
Y716275D01*
X213727D01*
Y715897D01*
X214105D01*
Y715141D01*
X214483D01*
Y714385D01*
X214861D01*
Y714007D01*
X215239D01*
Y713251D01*
X215617D01*
Y712873D01*
X215995D01*
Y712116D01*
X216373D01*
Y711360D01*
X216751D01*
Y710982D01*
X217129D01*
Y710226D01*
X217508D01*
Y709848D01*
X217886D01*
Y709092D01*
X218264D01*
Y708336D01*
X218642D01*
Y707958D01*
X219020D01*
Y707202D01*
X219398D01*
Y706823D01*
X219776D01*
Y706067D01*
X220154D01*
Y705311D01*
X220532D01*
Y704933D01*
X220910D01*
Y704177D01*
X221288D01*
Y703799D01*
X221666D01*
Y703043D01*
X222045D01*
Y702287D01*
X222423D01*
Y701908D01*
X222801D01*
Y701152D01*
X223179D01*
Y700774D01*
X223557D01*
Y700018D01*
X223935D01*
Y699262D01*
X224313D01*
Y698884D01*
X224691D01*
Y698128D01*
X225069D01*
Y697750D01*
X225447D01*
Y696994D01*
X225825D01*
Y696616D01*
X226203D01*
Y695859D01*
X226581D01*
Y695103D01*
X226959D01*
Y694725D01*
X227337D01*
Y693969D01*
X227715D01*
Y693591D01*
X228094D01*
Y692835D01*
X228472D01*
Y692079D01*
X228850D01*
Y691701D01*
X229228D01*
Y690944D01*
X229606D01*
Y690188D01*
X229984D01*
Y689810D01*
X230362D01*
Y689054D01*
X230740D01*
Y688676D01*
X231118D01*
Y687920D01*
X231496D01*
Y687542D01*
X231874D01*
Y686786D01*
X232252D01*
Y686030D01*
X232630D01*
Y685651D01*
X233008D01*
Y684895D01*
X233387D01*
Y684517D01*
X233765D01*
Y683761D01*
X234143D01*
Y683005D01*
X234521D01*
Y682627D01*
X234899D01*
Y681871D01*
X235277D01*
Y681493D01*
X235655D01*
Y680736D01*
X236033D01*
Y679980D01*
X236411D01*
Y679602D01*
X236789D01*
Y678846D01*
X237167D01*
Y678468D01*
X237545D01*
Y677712D01*
X237924D01*
Y676956D01*
X238302D01*
Y676578D01*
X238680D01*
Y675822D01*
X239058D01*
Y675443D01*
X239436D01*
Y674687D01*
X239814D01*
Y673931D01*
X240192D01*
Y673553D01*
X240570D01*
Y672797D01*
X240948D01*
Y672419D01*
X241326D01*
Y671663D01*
X241704D01*
Y670907D01*
X242082D01*
Y670529D01*
X242460D01*
Y669772D01*
X242838D01*
Y669394D01*
X243216D01*
Y668638D01*
X243594D01*
Y667882D01*
X243973D01*
Y667504D01*
X244351D01*
Y666748D01*
X244729D01*
Y666370D01*
X245107D01*
Y665614D01*
X245485D01*
Y664857D01*
X245863D01*
Y664479D01*
X246241D01*
Y663723D01*
X246619D01*
Y663345D01*
X246997D01*
Y662589D01*
X247375D01*
Y661833D01*
X247753D01*
Y661455D01*
X248131D01*
Y660699D01*
X248510D01*
Y660321D01*
X248888D01*
Y659565D01*
X249266D01*
Y658808D01*
X249644D01*
Y658430D01*
X250022D01*
Y657674D01*
X250400D01*
Y657296D01*
X250778D01*
Y656540D01*
X251156D01*
Y656162D01*
X251534D01*
Y655406D01*
X251912D01*
Y654650D01*
X252290D01*
Y654271D01*
X252668D01*
Y653515D01*
X253046D01*
Y653137D01*
X253424D01*
Y652381D01*
X253802D01*
Y651625D01*
X254181D01*
Y651247D01*
X254559D01*
Y650491D01*
X254937D01*
Y649735D01*
X255315D01*
Y649357D01*
X255693D01*
Y648600D01*
X256071D01*
Y648222D01*
X256449D01*
Y647844D01*
X256827D01*
Y647466D01*
X259095D01*
Y647844D01*
X259852D01*
Y648222D01*
X260230D01*
Y648979D01*
X260608D01*
Y649357D01*
X260986D01*
Y650113D01*
X261364D01*
Y650491D01*
X261742D01*
Y651247D01*
X262120D01*
Y652003D01*
X262498D01*
Y652381D01*
X262876D01*
Y653137D01*
X263254D01*
Y653515D01*
X263632D01*
Y654271D01*
X264010D01*
Y655028D01*
X264388D01*
Y655406D01*
X264767D01*
Y656162D01*
X265145D01*
Y656540D01*
X265523D01*
Y657296D01*
X265901D01*
Y658052D01*
X266279D01*
Y658430D01*
X266657D01*
Y659186D01*
X267035D01*
Y659565D01*
X267413D01*
Y660321D01*
X267791D01*
Y661077D01*
X268169D01*
Y661455D01*
X268547D01*
Y662211D01*
X268925D01*
Y662589D01*
X269303D01*
Y663345D01*
X269681D01*
Y664101D01*
X270060D01*
Y664479D01*
X270438D01*
Y665236D01*
X270816D01*
Y665614D01*
X271194D01*
Y666370D01*
X271572D01*
Y667126D01*
X271950D01*
Y667504D01*
X272328D01*
Y668260D01*
X272706D01*
Y668638D01*
X273084D01*
Y669394D01*
X273462D01*
Y670151D01*
X273840D01*
Y670529D01*
X274218D01*
Y671285D01*
X274596D01*
Y671663D01*
X274974D01*
Y672419D01*
X275352D01*
Y673175D01*
X275731D01*
Y673553D01*
X276109D01*
Y674309D01*
X276487D01*
Y674687D01*
X276865D01*
Y675443D01*
X277243D01*
Y675822D01*
X277621D01*
Y676578D01*
X277999D01*
Y677334D01*
X278377D01*
Y677712D01*
X278755D01*
Y678468D01*
X279133D01*
Y678846D01*
X279511D01*
Y679602D01*
X279889D01*
Y680358D01*
X280267D01*
Y680736D01*
X280646D01*
Y681493D01*
X281024D01*
Y681871D01*
X281402D01*
Y682627D01*
X281780D01*
Y683383D01*
X282158D01*
Y683761D01*
X282536D01*
Y684517D01*
X282914D01*
Y684895D01*
X283292D01*
Y685651D01*
X283670D01*
Y686408D01*
X284048D01*
Y686786D01*
X284426D01*
Y687542D01*
X284804D01*
Y687920D01*
X285182D01*
Y688676D01*
X285560D01*
Y689432D01*
X285938D01*
Y689810D01*
X286317D01*
Y690566D01*
X286695D01*
Y690944D01*
X287073D01*
Y691701D01*
X287451D01*
Y692457D01*
X287829D01*
Y692835D01*
X288207D01*
Y693591D01*
X288585D01*
Y693969D01*
X288963D01*
Y694725D01*
X289341D01*
Y695103D01*
X289719D01*
Y695859D01*
X290097D01*
Y696616D01*
X290475D01*
Y696994D01*
X290853D01*
Y697750D01*
X291231D01*
Y698506D01*
X291610D01*
Y698884D01*
X291988D01*
Y699640D01*
X292366D01*
Y700018D01*
X292744D01*
Y700774D01*
X293122D01*
Y701530D01*
X293500D01*
Y701908D01*
X293878D01*
Y702665D01*
X294256D01*
Y703043D01*
X294634D01*
Y703799D01*
X295012D01*
Y704555D01*
X295390D01*
Y704933D01*
X295768D01*
Y705689D01*
X296146D01*
Y706067D01*
X296525D01*
Y706823D01*
X296903D01*
Y707202D01*
X297281D01*
Y707958D01*
X297659D01*
Y708714D01*
X298037D01*
Y709092D01*
X298415D01*
Y709848D01*
X298793D01*
Y710604D01*
X299171D01*
Y710982D01*
X299549D01*
Y711738D01*
X299927D01*
Y712116D01*
X300305D01*
Y712873D01*
X300683D01*
Y713629D01*
X301061D01*
Y714007D01*
X301439D01*
Y714763D01*
X301817D01*
Y715141D01*
X302196D01*
Y715897D01*
X302574D01*
Y716275D01*
X302952D01*
Y717031D01*
X303330D01*
Y717787D01*
X303708D01*
Y718166D01*
X304086D01*
Y718922D01*
X304464D01*
Y719300D01*
X304842D01*
Y720056D01*
X305220D01*
Y720812D01*
X305598D01*
Y721190D01*
X305976D01*
Y721946D01*
X306354D01*
Y722324D01*
X306732D01*
Y723081D01*
X307111D01*
Y723837D01*
X307489D01*
Y724215D01*
X307867D01*
Y724971D01*
X308245D01*
Y725349D01*
X308623D01*
Y726105D01*
X309001D01*
Y726861D01*
X309379D01*
Y727239D01*
X309757D01*
Y727995D01*
X310135D01*
Y728373D01*
X310513D01*
Y729130D01*
X310891D01*
Y729886D01*
X311269D01*
Y730264D01*
X311647D01*
Y731020D01*
X312025D01*
Y731398D01*
X312404D01*
Y732154D01*
X312782D01*
Y732910D01*
X313160D01*
Y733288D01*
X313538D01*
Y734045D01*
X313916D01*
Y734423D01*
X314294D01*
Y735179D01*
X314672D01*
Y735935D01*
X315050D01*
Y736313D01*
X315428D01*
Y737069D01*
X315806D01*
Y737447D01*
X316184D01*
Y738203D01*
X316562D01*
Y738960D01*
X316940D01*
Y739338D01*
X317318D01*
Y740094D01*
X317696D01*
Y742362D01*
X317318D01*
Y743118D01*
X316940D01*
Y743496D01*
X315806D01*
Y743874D01*
D02*
G37*
%LPD*%
G36*
X252290Y707958D02*
X252668D01*
Y707202D01*
X253046D01*
Y706823D01*
X253424D01*
Y706067D01*
X253802D01*
Y705689D01*
X254181D01*
Y704933D01*
X254559D01*
Y704555D01*
X254937D01*
Y703799D01*
X255315D01*
Y703421D01*
X255693D01*
Y702665D01*
X256071D01*
Y702287D01*
X256449D01*
Y701530D01*
X256827D01*
Y701152D01*
X257205D01*
Y700396D01*
X257583D01*
Y700018D01*
X257961D01*
Y699262D01*
X258339D01*
Y698884D01*
X258717D01*
Y698128D01*
X259095D01*
Y697750D01*
X259473D01*
Y696994D01*
X259852D01*
Y696616D01*
X260230D01*
Y695859D01*
X260608D01*
Y695481D01*
X260986D01*
Y694725D01*
X261364D01*
Y694347D01*
X261742D01*
Y693591D01*
X262120D01*
Y693213D01*
X262498D01*
Y692457D01*
X262876D01*
Y692079D01*
X263254D01*
Y691322D01*
X263632D01*
Y690944D01*
X264010D01*
Y690188D01*
X264388D01*
Y689810D01*
X264767D01*
Y689054D01*
X265145D01*
Y688676D01*
X265523D01*
Y687920D01*
X265901D01*
Y687542D01*
X266279D01*
Y686786D01*
X266657D01*
Y686408D01*
X267035D01*
Y685651D01*
X267413D01*
Y685273D01*
X267791D01*
Y684517D01*
X268169D01*
Y684139D01*
X268547D01*
Y683383D01*
X268925D01*
Y683005D01*
X269303D01*
Y682249D01*
X269681D01*
Y681871D01*
X270060D01*
Y681115D01*
X270438D01*
Y680736D01*
X255315D01*
Y680358D01*
X255693D01*
Y678846D01*
X256071D01*
Y677712D01*
X256449D01*
Y676578D01*
X256827D01*
Y675443D01*
X257205D01*
Y674309D01*
X257583D01*
Y673175D01*
X257961D01*
Y672041D01*
X258339D01*
Y670907D01*
X258717D01*
Y669772D01*
X259095D01*
Y668260D01*
X259473D01*
Y667126D01*
X259852D01*
Y665992D01*
X260230D01*
Y664857D01*
X260608D01*
Y663723D01*
X260986D01*
Y662589D01*
X261364D01*
Y661455D01*
X261742D01*
Y660321D01*
X262120D01*
Y659186D01*
X262498D01*
Y658052D01*
X262876D01*
Y656918D01*
X262498D01*
Y657296D01*
X262120D01*
Y658052D01*
X261742D01*
Y658430D01*
X261364D01*
Y659186D01*
X260986D01*
Y659565D01*
X260608D01*
Y659943D01*
X260230D01*
Y660699D01*
X259852D01*
Y661077D01*
X259473D01*
Y661455D01*
X259095D01*
Y662211D01*
X258717D01*
Y662589D01*
X258339D01*
Y663345D01*
X257961D01*
Y663723D01*
X257583D01*
Y664101D01*
X257205D01*
Y664857D01*
X256827D01*
Y665236D01*
X256449D01*
Y665992D01*
X256071D01*
Y666370D01*
X255693D01*
Y666748D01*
X255315D01*
Y667504D01*
X254937D01*
Y667882D01*
X254559D01*
Y668638D01*
X254181D01*
Y669016D01*
X253802D01*
Y669394D01*
X253424D01*
Y670151D01*
X253046D01*
Y670529D01*
X252668D01*
Y671285D01*
X252290D01*
Y671663D01*
X251912D01*
Y672041D01*
X251534D01*
Y672797D01*
X251156D01*
Y673175D01*
X250778D01*
Y673931D01*
X250400D01*
Y674309D01*
X250022D01*
Y674687D01*
X249644D01*
Y675443D01*
X249266D01*
Y675822D01*
X248888D01*
Y676200D01*
X248510D01*
Y676956D01*
X248131D01*
Y677334D01*
X247753D01*
Y678090D01*
X247375D01*
Y678468D01*
X246997D01*
Y679224D01*
X246619D01*
Y679602D01*
X246241D01*
Y679980D01*
X245863D01*
Y680736D01*
X245485D01*
Y681115D01*
X245107D01*
Y681871D01*
X244729D01*
Y682249D01*
X244351D01*
Y682627D01*
X243973D01*
Y683383D01*
X243594D01*
Y683761D01*
X243216D01*
Y684139D01*
X242838D01*
Y684895D01*
X242460D01*
Y685273D01*
X242082D01*
Y686030D01*
X241704D01*
Y686408D01*
X241326D01*
Y686786D01*
X240948D01*
Y687542D01*
X240570D01*
Y687920D01*
X240192D01*
Y688676D01*
X239814D01*
Y689054D01*
X239436D01*
Y689432D01*
X239058D01*
Y690188D01*
X252290D01*
Y690566D01*
X254181D01*
Y690944D01*
X253802D01*
Y693591D01*
X253424D01*
Y696616D01*
X253046D01*
Y699640D01*
X252668D01*
Y702665D01*
X252290D01*
Y705689D01*
X251912D01*
Y708714D01*
X252290D01*
Y707958D01*
D02*
G37*
D10*
X365795Y105156D02*
X481076D01*
X201422Y744728D02*
X316703D01*
X341884Y123185D02*
Y107950D01*
Y115568D01*
X331727D01*
Y123185D01*
Y107950D01*
X326649Y123185D02*
X321571D01*
X324110D01*
Y107950D01*
X326649D01*
X321571D01*
X303796Y120646D02*
X306336Y123185D01*
X311414D01*
X313953Y120646D01*
Y110489D01*
X311414Y107950D01*
X306336D01*
X303796Y110489D01*
Y115568D01*
X308875D01*
X298718Y123185D02*
Y107950D01*
Y115568D01*
X288561D01*
Y123185D01*
Y107950D01*
X268248Y123185D02*
Y113028D01*
X263169Y107950D01*
X258091Y113028D01*
Y123185D01*
X245395D02*
X250474D01*
X253013Y120646D01*
Y110489D01*
X250474Y107950D01*
X245395D01*
X242856Y110489D01*
Y120646D01*
X245395Y123185D01*
X237778D02*
Y107950D01*
X227621D01*
X222543Y123185D02*
X212386D01*
X217464D01*
Y107950D01*
X207307D02*
Y118107D01*
X202229Y123185D01*
X197151Y118107D01*
Y107950D01*
Y115568D01*
X207307D01*
X181916Y120646D02*
X184455Y123185D01*
X189533D01*
X192073Y120646D01*
Y110489D01*
X189533Y107950D01*
X184455D01*
X181916Y110489D01*
Y115568D01*
X186994D01*
X166681Y123185D02*
X176837D01*
Y107950D01*
X166681D01*
X176837Y115568D02*
X171759D01*
X454748Y109982D02*
X466598D01*
X454748Y121832D01*
Y124794D01*
X457711Y127756D01*
X463636D01*
X466598Y124794D01*
X436974Y109982D02*
X448824D01*
X436974Y121832D01*
Y124794D01*
X439937Y127756D01*
X445861D01*
X448824Y124794D01*
X431049D02*
X428087Y127756D01*
X422162D01*
X419200Y124794D01*
Y112944D01*
X422162Y109982D01*
X428087D01*
X431049Y112944D01*
Y124794D01*
X395501Y127756D02*
Y115907D01*
X389576Y109982D01*
X383652Y115907D01*
Y127756D01*
X333756Y161796D02*
Y174492D01*
Y159257D02*
Y156718D01*
X328678Y161796D02*
Y174492D01*
Y159257D02*
Y156718D01*
X323599Y161796D02*
Y174492D01*
Y159257D02*
Y156718D01*
X303286Y171953D02*
Y156718D01*
X298207Y161796D01*
X293129Y156718D01*
Y171953D01*
X288051Y156718D02*
Y166875D01*
X282973Y171953D01*
X277894Y166875D01*
Y156718D01*
Y164335D01*
X288051D01*
X272816Y156718D02*
Y171953D01*
X265198D01*
X262659Y169414D01*
Y164335D01*
X265198Y161796D01*
X272816D01*
X267737D02*
X262659Y156718D01*
X257581D02*
Y171953D01*
X247424Y156718D01*
Y171953D01*
X242346D02*
X237267D01*
X239806D01*
Y156718D01*
X242346D01*
X237267D01*
X229650D02*
Y171953D01*
X219493Y156718D01*
Y171953D01*
X204258Y169414D02*
X206797Y171953D01*
X211875D01*
X214415Y169414D01*
Y159257D01*
X211875Y156718D01*
X206797D01*
X204258Y159257D01*
Y164335D01*
X209336D01*
X183944Y161796D02*
Y174492D01*
Y159257D02*
Y156718D01*
X178866Y161796D02*
Y174492D01*
Y159257D02*
Y156718D01*
X173788Y161796D02*
Y174492D01*
Y159257D02*
Y156718D01*
X348488Y666752D02*
Y654056D01*
Y669291D02*
Y671830D01*
X353566Y666752D02*
Y654056D01*
Y669291D02*
Y671830D01*
X358645Y666752D02*
Y654056D01*
Y669291D02*
Y671830D01*
X378958Y656595D02*
Y671830D01*
X384036Y666752D01*
X389115Y671830D01*
Y656595D01*
X394193Y671830D02*
Y661673D01*
X399272Y656595D01*
X404350Y661673D01*
Y671830D01*
Y664212D01*
X394193D01*
X409428Y671830D02*
Y656595D01*
X417046D01*
X419585Y659134D01*
Y664212D01*
X417046Y666752D01*
X409428D01*
X414507D02*
X419585Y671830D01*
X424663D02*
Y656595D01*
X434820Y671830D01*
Y656595D01*
X439898D02*
X444977D01*
X442438D01*
Y671830D01*
X439898D01*
X444977D01*
X452594D02*
Y656595D01*
X462751Y671830D01*
Y656595D01*
X477986Y659134D02*
X475447Y656595D01*
X470369D01*
X467829Y659134D01*
Y669291D01*
X470369Y671830D01*
X475447D01*
X477986Y669291D01*
Y664212D01*
X472908D01*
X498299Y666752D02*
Y654056D01*
Y669291D02*
Y671830D01*
X503378Y666752D02*
Y654056D01*
Y669291D02*
Y671830D01*
X508456Y666752D02*
Y654056D01*
Y669291D02*
Y671830D01*
X227750Y739902D02*
X215900D01*
X227750Y728053D01*
Y725090D01*
X224787Y722128D01*
X218862D01*
X215900Y725090D01*
X245524Y739902D02*
X233674D01*
X245524Y728053D01*
Y725090D01*
X242561Y722128D01*
X236637D01*
X233674Y725090D01*
X251448D02*
X254411Y722128D01*
X260336D01*
X263298Y725090D01*
Y736940D01*
X260336Y739902D01*
X254411D01*
X251448Y736940D01*
Y725090D01*
X286997Y722128D02*
Y733977D01*
X292922Y739902D01*
X298846Y733977D01*
Y722128D01*
X342646Y704347D02*
Y719582D01*
Y711964D01*
X352803D01*
Y704347D01*
Y719582D01*
X357881Y704347D02*
X362959D01*
X360420D01*
Y719582D01*
X357881D01*
X362959D01*
X380734Y706886D02*
X378195Y704347D01*
X373116D01*
X370577Y706886D01*
Y717043D01*
X373116Y719582D01*
X378195D01*
X380734Y717043D01*
Y711964D01*
X375655D01*
X385812Y704347D02*
Y719582D01*
Y711964D01*
X395969D01*
Y704347D01*
Y719582D01*
X416282Y704347D02*
Y714504D01*
X421361Y719582D01*
X426439Y714504D01*
Y704347D01*
X439135D02*
X434056D01*
X431517Y706886D01*
Y717043D01*
X434056Y719582D01*
X439135D01*
X441674Y717043D01*
Y706886D01*
X439135Y704347D01*
X446752D02*
Y719582D01*
X456909D01*
X461987Y704347D02*
X472144D01*
X467066D01*
Y719582D01*
X477223D02*
Y709425D01*
X482301Y704347D01*
X487379Y709425D01*
Y719582D01*
Y711964D01*
X477223D01*
X502614Y706886D02*
X500075Y704347D01*
X494997D01*
X492458Y706886D01*
Y717043D01*
X494997Y719582D01*
X500075D01*
X502614Y717043D01*
Y711964D01*
X497536D01*
X517849Y704347D02*
X507693D01*
Y719582D01*
X517849D01*
X507693Y711964D02*
X512771D01*
D11*
X624430Y675900D02*
G03*
X624430Y675900I-1250J0D01*
G01*
X611030Y746760D02*
G03*
X611030Y746760I-1250J0D01*
G01*
X266470Y421500D02*
G03*
X266470Y421500I-1250J0D01*
G01*
X306050Y489780D02*
G03*
X306050Y489780I-1250J0D01*
G01*
X198230Y400190D02*
G03*
X198230Y400190I-1250J0D01*
G01*
D14*
X628460Y733280D02*
X636460D01*
X570630Y690900D02*
Y708900D01*
X620630Y690900D02*
Y708900D01*
X570630D02*
X620630D01*
X570630Y690900D02*
X620630D01*
X584780Y762760D02*
X589780D01*
X584780Y756760D02*
Y762760D01*
X601780D02*
X606780D01*
Y756760D02*
Y762760D01*
X272220Y408500D02*
X327220D01*
X272220Y353500D02*
X327220D01*
X272220D02*
Y408500D01*
X327220Y353500D02*
Y408500D01*
X288300Y456780D02*
Y464780D01*
Y456780D02*
X293300D01*
X288300Y478780D02*
Y486780D01*
X293300D01*
X257660Y438200D02*
X270660D01*
X242380Y440200D02*
X250380D01*
X211480Y402940D02*
Y433940D01*
X206480Y402940D02*
Y433940D01*
X211480D01*
X206480Y402940D02*
X211480D01*
X234760Y402100D02*
X242760D01*
X359220Y328440D02*
X367220D01*
X318580Y441080D02*
X326580D01*
X333820D02*
X341820D01*
D17*
X215052Y396239D02*
Y392007D01*
X214205Y391161D01*
X212513D01*
X211666Y392007D01*
Y396239D01*
X206588D02*
X208281Y395393D01*
X209974Y393700D01*
Y392007D01*
X209127Y391161D01*
X207434D01*
X206588Y392007D01*
Y392854D01*
X207434Y393700D01*
X209974D01*
X580812Y761999D02*
Y757767D01*
X579966Y756921D01*
X578273D01*
X577426Y757767D01*
Y761999D01*
X572348D02*
X575734D01*
Y759460D01*
X574041Y760306D01*
X573194D01*
X572348Y759460D01*
Y757767D01*
X573194Y756921D01*
X574887D01*
X575734Y757767D01*
X601132Y660399D02*
Y656167D01*
X600285Y655321D01*
X598593D01*
X597746Y656167D01*
Y660399D01*
X593514Y655321D02*
Y660399D01*
X596054Y657860D01*
X592668D01*
X296332Y497839D02*
Y493607D01*
X295485Y492761D01*
X293793D01*
X292946Y493607D01*
Y497839D01*
X291254Y496993D02*
X290407Y497839D01*
X288714D01*
X287868Y496993D01*
Y496146D01*
X288714Y495300D01*
X289561D01*
X288714D01*
X287868Y494454D01*
Y493607D01*
X288714Y492761D01*
X290407D01*
X291254Y493607D01*
X303106Y325119D02*
Y320887D01*
X302259Y320041D01*
X300566D01*
X299720Y320887D01*
Y325119D01*
X298027Y320041D02*
X296334D01*
X297181D01*
Y325119D01*
X298027Y324273D01*
X361948Y480061D02*
Y485139D01*
X359409D01*
X358562Y484293D01*
Y482600D01*
X359409Y481754D01*
X361948D01*
X360255D02*
X358562Y480061D01*
X356870D02*
X355177D01*
X356023D01*
Y485139D01*
X356870Y484293D01*
X349252Y480061D02*
X352638D01*
X349252Y483446D01*
Y484293D01*
X350098Y485139D01*
X351791D01*
X352638Y484293D01*
X201082Y444501D02*
Y449579D01*
X198542D01*
X197696Y448733D01*
Y447040D01*
X198542Y446194D01*
X201082D01*
X199389D02*
X197696Y444501D01*
X196003D02*
X194310D01*
X195157D01*
Y449579D01*
X196003Y448733D01*
X191771Y444501D02*
X190078D01*
X190925D01*
Y449579D01*
X191771Y448733D01*
X202352Y459741D02*
Y464819D01*
X199813D01*
X198966Y463973D01*
Y462280D01*
X199813Y461434D01*
X202352D01*
X200659D02*
X198966Y459741D01*
X197274Y460587D02*
X196427Y459741D01*
X194734D01*
X193888Y460587D01*
Y463973D01*
X194734Y464819D01*
X196427D01*
X197274Y463973D01*
Y463126D01*
X196427Y462280D01*
X193888D01*
X651932Y675641D02*
Y680719D01*
X649393D01*
X648546Y679873D01*
Y678180D01*
X649393Y677334D01*
X651932D01*
X650239D02*
X648546Y675641D01*
X643468Y680719D02*
X645161Y679873D01*
X646854Y678180D01*
Y676487D01*
X646007Y675641D01*
X644314D01*
X643468Y676487D01*
Y677334D01*
X644314Y678180D01*
X646854D01*
X636692Y657861D02*
Y662939D01*
X634153D01*
X633306Y662093D01*
Y660400D01*
X634153Y659554D01*
X636692D01*
X634999D02*
X633306Y657861D01*
X628228Y662939D02*
X631614D01*
Y660400D01*
X629921Y661246D01*
X629074D01*
X628228Y660400D01*
Y658707D01*
X629074Y657861D01*
X630767D01*
X631614Y658707D01*
X654472Y744221D02*
Y749299D01*
X651933D01*
X651086Y748453D01*
Y746760D01*
X651933Y745914D01*
X654472D01*
X652779D02*
X651086Y744221D01*
X646854D02*
Y749299D01*
X649394Y746760D01*
X646008D01*
X563032Y716281D02*
Y721359D01*
X560493D01*
X559646Y720513D01*
Y718820D01*
X560493Y717974D01*
X563032D01*
X561339D02*
X559646Y716281D01*
X554568D02*
X557954D01*
X554568Y719666D01*
Y720513D01*
X555414Y721359D01*
X557107D01*
X557954Y720513D01*
X315806Y444501D02*
Y449579D01*
X313266D01*
X312420Y448733D01*
Y447040D01*
X313266Y446194D01*
X315806D01*
X314113D02*
X312420Y444501D01*
X310727D02*
X309034D01*
X309881D01*
Y449579D01*
X310727Y448733D01*
X324020Y483784D02*
X324867Y484630D01*
X326560D01*
X327406Y483784D01*
Y480398D01*
X326560Y479552D01*
X324867D01*
X324020Y480398D01*
X322328D02*
X321481Y479552D01*
X319788D01*
X318942Y480398D01*
Y483784D01*
X319788Y484630D01*
X321481D01*
X322328Y483784D01*
Y482938D01*
X321481Y482091D01*
X318942D01*
X339260Y483784D02*
X340107Y484630D01*
X341800D01*
X342646Y483784D01*
Y480398D01*
X341800Y479552D01*
X340107D01*
X339260Y480398D01*
X337568Y483784D02*
X336721Y484630D01*
X335028D01*
X334182Y483784D01*
Y482938D01*
X335028Y482091D01*
X334182Y481245D01*
Y480398D01*
X335028Y479552D01*
X336721D01*
X337568Y480398D01*
Y481245D01*
X336721Y482091D01*
X337568Y482938D01*
Y483784D01*
X336721Y482091D02*
X335028D01*
X364660Y371008D02*
X365507Y371854D01*
X367200D01*
X368046Y371008D01*
Y367622D01*
X367200Y366776D01*
X365507D01*
X364660Y367622D01*
X362968Y371854D02*
X359582D01*
Y371008D01*
X362968Y367622D01*
Y366776D01*
X247226Y479213D02*
X248073Y480059D01*
X249765D01*
X250612Y479213D01*
Y475827D01*
X249765Y474981D01*
X248073D01*
X247226Y475827D01*
X242148Y480059D02*
X243841Y479213D01*
X245534Y477520D01*
Y475827D01*
X244687Y474981D01*
X242994D01*
X242148Y475827D01*
Y476674D01*
X242994Y477520D01*
X245534D01*
X265006Y481753D02*
X265853Y482599D01*
X267546D01*
X268392Y481753D01*
Y478367D01*
X267546Y477521D01*
X265853D01*
X265006Y478367D01*
X259928Y482599D02*
X263314D01*
Y480060D01*
X261621Y480906D01*
X260774D01*
X259928Y480060D01*
Y478367D01*
X260774Y477521D01*
X262467D01*
X263314Y478367D01*
X239606Y395393D02*
X240453Y396239D01*
X242146D01*
X242992Y395393D01*
Y392007D01*
X242146Y391161D01*
X240453D01*
X239606Y392007D01*
X235374Y391161D02*
Y396239D01*
X237914Y393700D01*
X234528D01*
X648546Y728133D02*
X649393Y728979D01*
X651086D01*
X651932Y728133D01*
Y724747D01*
X651086Y723901D01*
X649393D01*
X648546Y724747D01*
X646854Y728133D02*
X646007Y728979D01*
X644314D01*
X643468Y728133D01*
Y727286D01*
X644314Y726440D01*
X645161D01*
X644314D01*
X643468Y725594D01*
Y724747D01*
X644314Y723901D01*
X646007D01*
X646854Y724747D01*
D76*
X285220Y398500D02*
G03*
X285220Y398500I-3000J0D01*
G01*
M02*
