G04*
G04 #@! TF.GenerationSoftware,Altium Limited,Altium Designer,24.5.2 (23)*
G04*
G04 Layer_Color=32768*
%FSLAX44Y44*%
%MOMM*%
G71*
G04*
G04 #@! TF.SameCoordinates,E6D3E557-3EFE-479C-B101-03A66C20DB95*
G04*
G04*
G04 #@! TF.FilePolarity,Positive*
G04*
G01*
G75*
%ADD79C,0.1000*%
%ADD80C,0.0500*%
%ADD81C,0.0508*%
G36*
X137779Y472980D02*
X121179D01*
Y476980D01*
X137779D01*
Y472980D01*
D02*
G37*
G36*
X51379D02*
X34779D01*
Y476980D01*
X51379D01*
Y472980D01*
D02*
G37*
G36*
X137779Y460280D02*
X121179D01*
Y464280D01*
X137779D01*
Y460280D01*
D02*
G37*
G36*
X51379D02*
X34779D01*
Y464280D01*
X51379D01*
Y460280D01*
D02*
G37*
G36*
X215320Y454816D02*
X206320D01*
Y484316D01*
X215320D01*
Y454816D01*
D02*
G37*
G36*
X539337Y454687D02*
X513337D01*
Y461186D01*
X539337D01*
Y454687D01*
D02*
G37*
G36*
X492334D02*
X466334D01*
Y461186D01*
X492334D01*
Y454687D01*
D02*
G37*
G36*
X320540Y482441D02*
X320891Y482089D01*
X320891Y481841D01*
X320891Y481592D01*
X320590Y481292D01*
Y452141D01*
X308590D01*
Y482141D01*
X319742D01*
X320043Y482441D01*
X320540Y482441D01*
D02*
G37*
G36*
X297590Y452141D02*
X285590D01*
Y482141D01*
X297590D01*
Y452141D01*
D02*
G37*
G36*
X137779Y447580D02*
X121179D01*
Y451580D01*
X137779D01*
Y447580D01*
D02*
G37*
G36*
X51379D02*
X34779D01*
Y451580D01*
X51379D01*
Y447580D01*
D02*
G37*
G36*
X613650Y443559D02*
X604150D01*
Y477059D01*
X613650D01*
Y443559D01*
D02*
G37*
G36*
X292011Y440928D02*
Y440680D01*
Y440431D01*
X291660Y440080D01*
X291163D01*
X290811Y440431D01*
Y440680D01*
Y440928D01*
X291163Y441280D01*
X291660D01*
X292011Y440928D01*
D02*
G37*
G36*
X137779Y434880D02*
X121179D01*
Y438880D01*
X137779D01*
Y434880D01*
D02*
G37*
G36*
X51379D02*
X34779D01*
Y438880D01*
X51379D01*
Y434880D01*
D02*
G37*
G36*
X297510Y433690D02*
X291410D01*
Y437690D01*
X297510D01*
Y433690D01*
D02*
G37*
G36*
X319410Y433672D02*
X313310D01*
Y437673D01*
X319410D01*
Y433672D01*
D02*
G37*
G36*
X466933Y424937D02*
Y424937D01*
D01*
Y424937D01*
D02*
G37*
G36*
X466924Y425178D02*
X466933Y424937D01*
X466924Y424695D01*
X466575Y424360D01*
X466092D01*
X465744Y424695D01*
X465734Y424937D01*
X465744Y425178D01*
X466092Y425513D01*
X466575D01*
X466924Y425178D01*
D02*
G37*
G36*
X297510Y424191D02*
X291410D01*
Y428191D01*
X297510D01*
Y424191D01*
D02*
G37*
G36*
X441036Y423665D02*
X441046Y423423D01*
X441036Y423182D01*
X440688Y422846D01*
X440205D01*
X439856Y423182D01*
X439847Y423423D01*
Y423423D01*
Y423423D01*
D01*
X439856Y423665D01*
X440205Y424000D01*
X440688D01*
X441036Y423665D01*
D02*
G37*
G36*
X137779Y422180D02*
X121179D01*
Y426180D01*
X137779D01*
Y422180D01*
D02*
G37*
G36*
X51379D02*
X34779D01*
Y426180D01*
X51379D01*
Y422180D01*
D02*
G37*
G36*
X319410Y414671D02*
X313310D01*
Y418671D01*
X319410D01*
Y414671D01*
D02*
G37*
G36*
X297510D02*
X291410D01*
Y418671D01*
X297510D01*
Y414671D01*
D02*
G37*
G36*
X137779Y409480D02*
X121179D01*
Y413480D01*
X137779D01*
Y409480D01*
D02*
G37*
G36*
X51379D02*
X34779D01*
Y413480D01*
X51379D01*
Y409480D01*
D02*
G37*
G36*
X495610Y402490D02*
X460610D01*
Y411990D01*
X495610D01*
Y402490D01*
D02*
G37*
G36*
X137779Y396780D02*
X121179D01*
Y400780D01*
X137779D01*
Y396780D01*
D02*
G37*
G36*
X51379D02*
X34779D01*
Y400780D01*
X51379D01*
Y396780D01*
D02*
G37*
G36*
X215320Y393828D02*
X206320D01*
Y423328D01*
X215320D01*
Y393828D01*
D02*
G37*
G36*
X252562Y394417D02*
X252896Y394068D01*
X252896Y393586D01*
X252561Y393238D01*
X252320Y393228D01*
X252320Y393228D01*
X252079Y393238D01*
X251745Y393587D01*
X251746Y394069D01*
X252080Y394417D01*
X252321Y394427D01*
X252321Y394427D01*
X252562Y394417D01*
D02*
G37*
G36*
X440446Y387174D02*
X414446D01*
Y393673D01*
X440446D01*
Y387174D01*
D02*
G37*
G36*
X393443D02*
X367443D01*
Y393673D01*
X393443D01*
Y387174D01*
D02*
G37*
G36*
X137779Y384080D02*
X121179D01*
Y388080D01*
X137779D01*
Y384080D01*
D02*
G37*
G36*
X51379D02*
X34779D01*
Y388080D01*
X51379D01*
Y384080D01*
D02*
G37*
G36*
X112380Y373729D02*
X112380Y373232D01*
X112029Y372880D01*
X111780Y372880D01*
X111532Y372879D01*
X111180Y373231D01*
X111179Y373728D01*
X111531Y374080D01*
X111779Y374080D01*
X112028Y374080D01*
X112380Y373729D01*
D02*
G37*
G36*
X495610Y371988D02*
X460609D01*
Y381490D01*
X495610D01*
Y371988D01*
D02*
G37*
G36*
X137779Y371380D02*
X121179D01*
Y375380D01*
X137779D01*
Y371380D01*
D02*
G37*
G36*
X51379D02*
X34779D01*
Y375380D01*
X51379D01*
Y371380D01*
D02*
G37*
G36*
X498110Y372574D02*
X498352Y372565D01*
X498686Y372216D01*
X498686Y371733D01*
X498351Y371385D01*
X498109Y371376D01*
X497868Y371385D01*
X497533Y371734D01*
X497533Y372217D01*
X497868Y372565D01*
X498110Y372574D01*
X498110Y372574D01*
D02*
G37*
G36*
X613650Y364059D02*
X604150D01*
Y397559D01*
X613650D01*
Y364059D01*
D02*
G37*
G36*
X660400Y364659D02*
X660646Y364655D01*
X660991Y364305D01*
X660991Y363813D01*
X660646Y363462D01*
X660400Y363459D01*
X660154Y363462D01*
X659809Y363813D01*
X659809Y364305D01*
X660154Y364655D01*
X660400Y364659D01*
X660400Y364659D01*
D02*
G37*
D79*
X590630Y699900D02*
X600630D01*
X595630Y694900D02*
Y704900D01*
X568130Y662400D02*
Y737400D01*
X623130Y662400D02*
Y737400D01*
X568130D02*
X623130D01*
X568130Y662400D02*
X623130D01*
X590780Y755760D02*
X600780D01*
X595780Y750760D02*
Y760760D01*
X299720Y376000D02*
Y386000D01*
X294720Y381000D02*
X304720D01*
X295300Y466780D02*
Y476780D01*
X290300Y471780D02*
X300300D01*
X208980Y413440D02*
Y423440D01*
X203980Y418440D02*
X213980D01*
X188980Y436440D02*
X228980D01*
X188980Y400440D02*
X228980D01*
Y436440D01*
X188980Y400440D02*
Y436440D01*
D80*
X582280Y737760D02*
Y773760D01*
X609280Y737760D02*
Y773760D01*
X582280D02*
X609280D01*
X582280Y737760D02*
X609280D01*
X247720Y433000D02*
X351720D01*
X247720Y329000D02*
X351720D01*
X247720D02*
Y433000D01*
X351720Y329000D02*
Y433000D01*
X275800Y454280D02*
X314800D01*
X275800Y489280D02*
X314800D01*
X275800Y454280D02*
Y489280D01*
X314800Y454280D02*
Y489280D01*
D81*
X557400Y472059D02*
X660400D01*
Y389659D02*
Y472059D01*
X639800Y369059D02*
X660400Y389659D01*
X578000Y369059D02*
X639800D01*
X557400Y389659D02*
X578000Y369059D01*
X557400Y389659D02*
Y472059D01*
X458110Y371990D02*
X498110D01*
X458110D02*
Y411990D01*
X498110D01*
Y371990D02*
Y411990D01*
X123779Y366430D02*
Y481935D01*
X48779Y481930D02*
X123779Y481935D01*
X48779Y366430D02*
Y481930D01*
Y366430D02*
X123779D01*
X371110Y357424D02*
X423910D01*
X437109Y370623D01*
Y410224D01*
X423910Y423423D02*
X437109Y410224D01*
X371110Y423423D02*
X423910D01*
X371110Y357424D02*
Y423423D01*
X297410Y411680D02*
Y440681D01*
Y411680D02*
X313410D01*
Y440681D01*
X297410D02*
X313410D01*
X285590Y482141D02*
X320590D01*
X285590Y452141D02*
Y482141D01*
Y452141D02*
X320590D01*
Y482141D01*
X169320Y480572D02*
X252320D01*
Y414422D02*
Y480572D01*
X235720Y397572D02*
X252320Y414422D01*
X185920Y397572D02*
X235720D01*
X169320Y414422D02*
X185920Y397572D01*
X169320Y414422D02*
Y480572D01*
X535670Y424937D02*
Y490937D01*
X482870Y424937D02*
X535670D01*
X469670Y438136D02*
X482870Y424937D01*
X469670Y438136D02*
Y477737D01*
X482870Y490937D01*
X535670D01*
M02*
