M48
;Layer_Color=9474304
;FILE_FORMAT=2:4
INCH
;TYPE=PLATED
T01F00S00C0.0100
T02F00S00C0.0354
T03F00S00C0.0512
%
T01
X031000Y052800
T02
X011150Y044290
Y045290
X012150
Y044290
X013150
Y045290
X016299
X017299
X018299
Y044290
X017299
X016299
X020700
Y045290
X021700
Y044290
X022700
Y045290
X023700
Y044290
X024700
Y045290
X028300
Y044290
X029300
Y045290
X032450
Y044290
X033450
Y045290
T03
X032469Y047012
X034453
Y049988
X032469
X033900Y052200
Y055176
X027947
X025963
X023979
X021653Y055188
X019669
X017684
Y052212
X019669
X021653
X023979Y052200
X025963
X027947
X030484Y049988
Y047012
X024532
Y049988
X021068
Y047012
X015116
X013132
X011147
Y049988
X013132
X015116
X011731Y052212
Y055188
M30
