M48
;Layer_Color=9474304
;FILE_FORMAT=2:4
INCH
;TYPE=PLATED
T01F00S00C0.0100
T02F00S00C0.0354
T03F00S00C0.0394
%
T01
X034005Y022946
X034000Y023500
X035844Y027951
X035450Y028350
X030900Y029550
X030600Y029900
X030250Y030150
X029900Y030450
X028750Y027400
X025594Y028201
X024300Y026500
X025223Y024498
X022704Y024098
X022300Y024100
X021900
X021500
X021000
X020900Y025600
X020400Y028900
X016550Y029650
X016850Y030050
X017339Y026466
X029700Y024000
X014500Y024700
Y025200
Y025700
Y026200
X014612Y028700
Y029238
Y029638
X014600Y030050
X012900Y027800
X013694Y022401
X026205Y032789
X027200Y032750
X032400Y039397
T02
X033060Y018663
X034060
X035060
Y019663
X034060
X033060
X029920
X028920
X027920
Y018663
X028920
X029920
X025540
Y019663
X024540
Y018663
X023540
Y019663
X022540
Y018663
X021540
Y019663
X017890
Y018663
X016890
Y019663
X017000Y023800
X018000
X019000
X020200Y030450
X021200
X022200
X023200
X024200
X025200
X026200
X027200
X028200
X013760Y019663
Y018663
X012760
Y019663
X012700Y033803
X011700
Y034803
X012700
X013700
Y033803
X016841
X017841
X018841
Y034803
X017841
X016841
X021200
Y033803
X022200
Y034803
X023200
Y033803
X024200
Y034803
X025200
Y033803
Y031450
X026200
X027200
X028200
X028840Y033803
Y034803
X029840
Y033803
X024200Y031450
X023200
X022200
X021200
X020200
X033000Y033803
Y034803
X034000
Y033803
T03
X012401Y012400
X014369
X016386
X018354
X020360
X022360
X024360
X026370
X028370
X030370
X032386
X034354
X014400Y041065
X012400
X016400
X018400
X020400
X022400
X024426
X026394
X028396
X030364
X032396
X034364
M30
