G04*
G04 #@! TF.GenerationSoftware,Altium Limited,Altium Designer,24.5.2 (23)*
G04*
G04 Layer_Color=128*
%FSLAX44Y44*%
%MOMM*%
G71*
G04*
G04 #@! TF.SameCoordinates,E6D3E557-3EFE-479C-B101-03A66C20DB95*
G04*
G04*
G04 #@! TF.FilePolarity,Positive*
G04*
G01*
G75*
%ADD17C,0.1270*%
D17*
X91004Y245440D02*
X100004D01*
X95504Y240940D02*
Y249940D01*
X91004Y220040D02*
X100004D01*
X95504Y215540D02*
Y224540D01*
X65604Y245440D02*
X74604D01*
X70104Y240940D02*
Y249940D01*
X65604Y220040D02*
X74604D01*
X70104Y215540D02*
Y224540D01*
X195906Y245440D02*
X204906D01*
X200406Y240940D02*
Y249940D01*
X195906Y220040D02*
X204906D01*
X200406Y215540D02*
Y224540D01*
X170506Y245440D02*
X179506D01*
X175006Y240940D02*
Y249940D01*
X170506Y220040D02*
X179506D01*
X175006Y215540D02*
Y224540D01*
X390216Y245440D02*
X399216D01*
X394716Y240940D02*
Y249940D01*
X390216Y220040D02*
X399216D01*
X394716Y215540D02*
Y224540D01*
X364816Y245440D02*
X373816D01*
X369316Y240940D02*
Y249940D01*
X364816Y220040D02*
X373816D01*
X369316Y215540D02*
Y224540D01*
X339416Y245440D02*
X348416D01*
X343916Y240940D02*
Y249940D01*
X339416Y220040D02*
X348416D01*
X343916Y215540D02*
Y224540D01*
X314016Y245440D02*
X323016D01*
X318516Y240940D02*
Y249940D01*
X314016Y220040D02*
X323016D01*
X318516Y215540D02*
Y224540D01*
X288616Y245440D02*
X297616D01*
X293116Y240940D02*
Y249940D01*
X288616Y220040D02*
X297616D01*
X293116Y215540D02*
Y224540D01*
X450668Y220040D02*
X459668D01*
X455168Y215540D02*
Y224540D01*
X450668Y245440D02*
X459668D01*
X455168Y240940D02*
Y249940D01*
X476068Y220040D02*
X485068D01*
X480568Y215540D02*
Y224540D01*
X476068Y245440D02*
X485068D01*
X480568Y240940D02*
Y249940D01*
X501468Y220040D02*
X510468D01*
X505968Y215540D02*
Y224540D01*
X501468Y245440D02*
X510468D01*
X505968Y240940D02*
Y249940D01*
X632024Y245440D02*
X641024D01*
X636524Y240940D02*
Y249940D01*
X632024Y220040D02*
X641024D01*
X636524Y215540D02*
Y224540D01*
X606624Y245440D02*
X615624D01*
X611124Y240940D02*
Y249940D01*
X606624Y220040D02*
X615624D01*
X611124Y215540D02*
Y224540D01*
X581224Y245440D02*
X590224D01*
X585724Y240940D02*
Y249940D01*
X581224Y220040D02*
X590224D01*
X585724Y215540D02*
Y224540D01*
X38680Y604596D02*
X47680D01*
X43180Y600096D02*
Y609096D01*
X38680Y629996D02*
X47680D01*
X43180Y625496D02*
Y634496D01*
X64080Y604596D02*
X73080D01*
X68580Y600096D02*
Y609096D01*
X64080Y629996D02*
X73080D01*
X68580Y625496D02*
Y634496D01*
X89480Y604596D02*
X98480D01*
X93980Y600096D02*
Y609096D01*
X89480Y629996D02*
X98480D01*
X93980Y625496D02*
Y634496D01*
X220054Y629996D02*
X229054D01*
X224554Y625496D02*
Y634496D01*
X220054Y604596D02*
X229054D01*
X224554Y600096D02*
Y609096D01*
X194654Y629996D02*
X203654D01*
X199154Y625496D02*
Y634496D01*
X194654Y604596D02*
X203654D01*
X199154Y600096D02*
Y609096D01*
X169254Y629996D02*
X178254D01*
X173754Y625496D02*
Y634496D01*
X169254Y604596D02*
X178254D01*
X173754Y600096D02*
Y609096D01*
X279980Y604596D02*
X288980D01*
X284480Y600096D02*
Y609096D01*
X279980Y629996D02*
X288980D01*
X284480Y625496D02*
Y634496D01*
X305380Y604596D02*
X314380D01*
X309880Y600096D02*
Y609096D01*
X305380Y629996D02*
X314380D01*
X309880Y625496D02*
Y634496D01*
X330780Y604596D02*
X339780D01*
X335280Y600096D02*
Y609096D01*
X330780Y629996D02*
X339780D01*
X335280Y625496D02*
Y634496D01*
X356180Y604596D02*
X365180D01*
X360680Y600096D02*
Y609096D01*
X356180Y629996D02*
X365180D01*
X360680Y625496D02*
Y634496D01*
X381580Y604596D02*
X390580D01*
X386080Y600096D02*
Y609096D01*
X381580Y629996D02*
X390580D01*
X386080Y625496D02*
Y634496D01*
X474036Y604596D02*
X483036D01*
X478536Y600096D02*
Y609096D01*
X474036Y629996D02*
X483036D01*
X478536Y625496D02*
Y634496D01*
X499436Y604596D02*
X508436D01*
X503936Y600096D02*
Y609096D01*
X499436Y629996D02*
X508436D01*
X503936Y625496D02*
Y634496D01*
X579700Y604596D02*
X588700D01*
X584200Y600096D02*
Y609096D01*
X579700Y629996D02*
X588700D01*
X584200Y625496D02*
Y634496D01*
X605100Y604596D02*
X614100D01*
X609600Y600096D02*
Y609096D01*
X605100Y629996D02*
X614100D01*
X609600Y625496D02*
Y634496D01*
X457780Y519430D02*
X466780D01*
X462280Y514930D02*
Y523930D01*
X432380Y544830D02*
X441380D01*
X436880Y540330D02*
Y549330D01*
X432380Y519430D02*
X441380D01*
X436880Y514930D02*
Y523930D01*
X406980Y544830D02*
X415980D01*
X411480Y540330D02*
Y549330D01*
X406980Y519430D02*
X415980D01*
X411480Y514930D02*
Y523930D01*
X381580Y544830D02*
X390580D01*
X386080Y540330D02*
Y549330D01*
X381580Y519430D02*
X390580D01*
X386080Y514930D02*
Y523930D01*
X356180Y544830D02*
X365180D01*
X360680Y540330D02*
Y549330D01*
X356180Y519430D02*
X365180D01*
X360680Y514930D02*
Y523930D01*
X330780Y544830D02*
X339780D01*
X335280Y540330D02*
Y549330D01*
X330780Y519430D02*
X339780D01*
X335280Y514930D02*
Y523930D01*
X305380Y544830D02*
X314380D01*
X309880Y540330D02*
Y549330D01*
X305380Y519430D02*
X314380D01*
X309880Y514930D02*
Y523930D01*
X279980Y544830D02*
X288980D01*
X284480Y540330D02*
Y549330D01*
X279980Y519430D02*
X288980D01*
X284480Y514930D02*
Y523930D01*
X254580Y544830D02*
X263580D01*
X259080Y540330D02*
Y549330D01*
X254580Y519430D02*
X263580D01*
X259080Y514930D02*
Y523930D01*
X457780Y544830D02*
X466780D01*
X462280Y540330D02*
Y549330D01*
X173300Y350520D02*
X182300D01*
X177800Y346020D02*
Y355020D01*
X198700Y350520D02*
X207700D01*
X203200Y346020D02*
Y355020D01*
X224100Y350520D02*
X233100D01*
X228600Y346020D02*
Y355020D01*
X613852Y789051D02*
X623852D01*
X618852Y784051D02*
Y794051D01*
X563852Y789051D02*
X573852D01*
X568852Y784051D02*
Y794051D01*
X411414Y789051D02*
X421414D01*
X416414Y784051D02*
Y794051D01*
X361414Y789051D02*
X371414D01*
X366414Y784051D02*
Y794051D01*
X512252Y789051D02*
X522252D01*
X517252Y784051D02*
Y794051D01*
X462252Y789051D02*
X472252D01*
X467252Y784051D02*
Y794051D01*
X208360Y789051D02*
X218360D01*
X213360Y784051D02*
Y794051D01*
X259160Y789051D02*
X269160D01*
X264160Y784051D02*
Y794051D01*
X309960Y789051D02*
X319960D01*
X314960Y784051D02*
Y794051D01*
X157560Y789051D02*
X167560D01*
X162560Y784051D02*
Y794051D01*
X106760Y789051D02*
X116760D01*
X111760Y784051D02*
Y794051D01*
X55960Y789051D02*
X65960D01*
X60960Y784051D02*
Y794051D01*
X105979Y60960D02*
X115979D01*
X110979Y55960D02*
Y65960D01*
X55979Y60960D02*
X65979D01*
X60979Y55960D02*
Y65960D01*
X207198Y60960D02*
X217198D01*
X212198Y55960D02*
Y65960D01*
X157198Y60960D02*
X167198D01*
X162198Y55960D02*
Y65960D01*
X512398Y60960D02*
X522398D01*
X517398Y55960D02*
Y65960D01*
X461598Y60960D02*
X471598D01*
X466598Y55960D02*
Y65960D01*
X410798Y60960D02*
X420798D01*
X415798Y55960D02*
Y65960D01*
X258144Y60960D02*
X268144D01*
X263144Y55960D02*
Y65960D01*
X308944Y60960D02*
X318944D01*
X313944Y55960D02*
Y65960D01*
X359744Y60960D02*
X369744D01*
X364744Y55960D02*
Y65960D01*
X613598Y60960D02*
X623598D01*
X618598Y55960D02*
Y65960D01*
X563598Y60960D02*
X573598D01*
X568598Y55960D02*
Y65960D01*
X529590Y496570D02*
X532130D01*
X530860Y495300D02*
Y497840D01*
X567690Y746688D02*
X570230D01*
X568960Y745418D02*
Y747958D01*
X92561Y314996D02*
X95101D01*
X93831Y313726D02*
Y316266D01*
X499110Y355600D02*
X501650D01*
X500380Y354330D02*
Y356870D01*
X394821Y462316D02*
X397361D01*
X396091Y461046D02*
Y463586D01*
X361950Y419100D02*
X364490D01*
X363220Y417830D02*
Y420370D01*
X385396Y368240D02*
X387936D01*
X386666Y366970D02*
Y369510D01*
X262890Y480060D02*
X265430D01*
X264160Y478790D02*
Y481330D01*
X115878Y488642D02*
X118418D01*
X117148Y487372D02*
Y489912D01*
X115878Y498802D02*
X118418D01*
X117148Y497532D02*
Y500072D01*
X113030Y373380D02*
X115570D01*
X114300Y372110D02*
Y374650D01*
X115878Y474980D02*
X118418D01*
X117148Y473710D02*
Y476250D01*
X655171Y455966D02*
X657711D01*
X656441Y454696D02*
Y457236D01*
X645160Y466090D02*
X647700D01*
X646430Y464820D02*
Y467360D01*
X474980Y441960D02*
X477520D01*
X476250Y440690D02*
Y443230D01*
X72390Y452120D02*
X74930D01*
X73660Y450850D02*
Y453390D01*
X165100Y499110D02*
X167640D01*
X166370Y497840D02*
Y500380D01*
X185130Y418242D02*
X187670D01*
X186400Y416972D02*
Y419512D01*
X513080Y511810D02*
X515620D01*
X514350Y510540D02*
Y513080D01*
X521970Y505460D02*
X524510D01*
X523240Y504190D02*
Y506730D01*
X504190Y519430D02*
X506730D01*
X505460Y518160D02*
Y520700D01*
X435610Y577850D02*
X438150D01*
X436880Y576580D02*
Y579120D01*
X410326Y578848D02*
X412866D01*
X411596Y577578D02*
Y580117D01*
X172720Y509270D02*
X175260D01*
X173990Y508000D02*
Y510540D01*
X115570Y509270D02*
X118110D01*
X116840Y508000D02*
Y510540D01*
X278130Y358140D02*
X280670D01*
X279400Y356870D02*
Y359410D01*
X290830Y358140D02*
X293370D01*
X292100Y356870D02*
Y359410D01*
X311150Y358140D02*
X313690D01*
X312420Y356870D02*
Y359410D01*
X321400Y358093D02*
X323940D01*
X322670Y356823D02*
Y359363D01*
X300990Y358140D02*
X303530D01*
X302260Y356870D02*
Y359410D01*
X113030Y386080D02*
X115570D01*
X114300Y384810D02*
Y387350D01*
X113030Y398780D02*
X115570D01*
X114300Y397510D02*
Y400050D01*
X113030Y411480D02*
X115570D01*
X114300Y410210D02*
Y412750D01*
X275590Y396240D02*
X278130D01*
X276860Y394970D02*
Y397510D01*
X608466Y328817D02*
X611006D01*
X609736Y327547D02*
Y330087D01*
X608330Y342900D02*
X610870D01*
X609600Y341630D02*
Y344170D01*
M02*
