G04*
G04 #@! TF.GenerationSoftware,Altium Limited,Altium Designer,24.5.2 (23)*
G04*
G04 Layer_Color=16711935*
%FSLAX44Y44*%
%MOMM*%
G71*
G04*
G04 #@! TF.SameCoordinates,D6A8BFCE-4E3A-4C26-B7BD-A5B2BDC27384*
G04*
G04*
G04 #@! TF.FilePolarity,Negative*
G04*
G01*
G75*
%ADD12R,1.7032X1.7032*%
%ADD13C,1.7032*%
%ADD14C,2.7032*%
%ADD15C,0.9652*%
%ADD23R,0.7532X1.6532*%
D12*
X271780Y20066D02*
D03*
X464820D02*
D03*
X570230D02*
D03*
X160000D02*
D03*
X80000Y45466D02*
D03*
D13*
X271780D02*
D03*
X297180Y20066D02*
D03*
Y45466D02*
D03*
X322580Y20066D02*
D03*
Y45466D02*
D03*
X347980Y20066D02*
D03*
Y45466D02*
D03*
X373380Y20066D02*
D03*
Y45466D02*
D03*
X464820D02*
D03*
X490220Y20066D02*
D03*
Y45466D02*
D03*
X570230D02*
D03*
X595630Y20066D02*
D03*
Y45466D02*
D03*
X210800D02*
D03*
Y20066D02*
D03*
X185400Y45466D02*
D03*
Y20066D02*
D03*
X160000Y45466D02*
D03*
X29200Y20066D02*
D03*
Y45466D02*
D03*
X54600Y20066D02*
D03*
Y45466D02*
D03*
X80000Y20066D02*
D03*
D14*
X621100Y89200D02*
D03*
X570700D02*
D03*
X520300D02*
D03*
X621100Y164800D02*
D03*
X570700D02*
D03*
X520300D02*
D03*
X369100Y89200D02*
D03*
Y164800D02*
D03*
X355060Y296580D02*
D03*
X405460D02*
D03*
X455860D02*
D03*
X355060Y220980D02*
D03*
X405460D02*
D03*
X455860D02*
D03*
X607060Y296580D02*
D03*
Y220980D02*
D03*
X29140Y164800D02*
D03*
X79540D02*
D03*
X129940D02*
D03*
X29140Y89200D02*
D03*
X79540D02*
D03*
X129940D02*
D03*
X281140Y164800D02*
D03*
Y89200D02*
D03*
X295980Y221280D02*
D03*
X245580D02*
D03*
X195180D02*
D03*
X295980Y296880D02*
D03*
X245580D02*
D03*
X195180D02*
D03*
X43980Y221280D02*
D03*
Y296880D02*
D03*
D15*
X533400Y236220D02*
D03*
D23*
X43180Y247330D02*
D03*
Y270830D02*
D03*
X607060D02*
D03*
Y247330D02*
D03*
X368300Y115250D02*
D03*
Y138750D02*
D03*
X281940D02*
D03*
Y115250D02*
D03*
M02*
