%FSDAX24Y24*%
%MOIN*%
%SFA1B1*%

%IPPOS*%
%ADD42C,0.002000*%
%LNde-270124-1*%
%LPD*%
G54D42*
X061449Y031700D02*
X061764D01*
X061606Y031543D02*
Y031857D01*
X062236Y031700D02*
X062551D01*
X062394Y031543D02*
Y031857D01*
X061449Y033950D02*
X061764D01*
X061606Y033793D02*
Y034107D01*
X062236Y033950D02*
X062551D01*
X062394Y033793D02*
Y034107D01*
X064973Y030550D02*
X065327D01*
X065150Y030373D02*
Y030727D01*
X064973Y014550D02*
X065327D01*
X065150Y014373D02*
Y014727D01*
X064973Y015550D02*
X065327D01*
X065150Y015373D02*
Y015727D01*
X064973Y016550D02*
X065327D01*
X065150Y016373D02*
Y016727D01*
X064973Y017550D02*
X065327D01*
X065150Y017373D02*
Y017727D01*
X064973Y018550D02*
X065327D01*
X065150Y018373D02*
Y018727D01*
X064973Y019550D02*
X065327D01*
X065150Y019373D02*
Y019727D01*
X064973Y020550D02*
X065327D01*
X065150Y020373D02*
Y020727D01*
X064973Y021550D02*
X065327D01*
X065150Y021373D02*
Y021727D01*
X064973Y022550D02*
X065327D01*
X065150Y022373D02*
Y022727D01*
X064973Y023550D02*
X065327D01*
X065150Y023373D02*
Y023727D01*
X064973Y024550D02*
X065327D01*
X065150Y024373D02*
Y024727D01*
X064973Y025550D02*
X065327D01*
X065150Y025373D02*
Y025727D01*
X064973Y026550D02*
X065327D01*
X065150Y026373D02*
Y026727D01*
X064973Y027550D02*
X065327D01*
X065150Y027373D02*
Y027727D01*
X064973Y028550D02*
X065327D01*
X065150Y028373D02*
Y028727D01*
X064973Y029550D02*
X065327D01*
X065150Y029373D02*
Y029727D01*
X035612Y015588D02*
X036163D01*
X035888Y015312D02*
Y015863D01*
X040337Y015588D02*
X040888D01*
X040612Y015312D02*
Y015863D01*
X035612Y020312D02*
X036163D01*
X035888Y020037D02*
Y020588D01*
X040337Y020312D02*
X040888D01*
X040612Y020037D02*
Y020588D01*
X037974Y021100D02*
X038526D01*
X038250Y020824D02*
Y021375D01*
X052837Y029812D02*
X053388D01*
X053112Y029537D02*
Y030088D01*
X048112Y029812D02*
X048663D01*
X048388Y029537D02*
Y030088D01*
X052837Y025088D02*
X053388D01*
X053112Y024812D02*
Y025363D01*
X048112Y025088D02*
X048663D01*
X048388Y024812D02*
Y025363D01*
X050474Y024300D02*
X051026D01*
X050750Y024025D02*
Y024576D01*
X015337Y029812D02*
X015888D01*
X015612Y029537D02*
Y030088D01*
X010612Y029812D02*
X011163D01*
X010888Y029537D02*
Y030088D01*
X015337Y025088D02*
X015888D01*
X015612Y024812D02*
Y025363D01*
X010612Y025088D02*
X011163D01*
X010888Y024812D02*
Y025363D01*
X012974Y024300D02*
X013526D01*
X013250Y024025D02*
Y024576D01*
X036053Y012450D02*
X036447D01*
X036250Y012253D02*
Y012647D01*
X038053Y012450D02*
X038447D01*
X038250Y012253D02*
Y012647D01*
X040053Y012450D02*
X040447D01*
X040250Y012253D02*
Y012647D01*
X052553Y032950D02*
X052947D01*
X052750Y032753D02*
Y033147D01*
X050553Y032950D02*
X050947D01*
X050750Y032753D02*
Y033147D01*
X048553Y032950D02*
X048947D01*
X048750Y032753D02*
Y033147D01*
X015053Y032950D02*
X015447D01*
X015250Y032753D02*
Y033147D01*
X013053Y032950D02*
X013447D01*
X013250Y032753D02*
Y033147D01*
X011053Y032950D02*
X011447D01*
X011250Y032753D02*
Y033147D01*
X029362Y015588D02*
X029913D01*
X029638Y015312D02*
Y015863D01*
X034087Y015588D02*
X034638D01*
X034362Y015312D02*
Y015863D01*
X029362Y020312D02*
X029913D01*
X029638Y020037D02*
Y020588D01*
X034087Y020312D02*
X034638D01*
X034362Y020037D02*
Y020588D01*
X031724Y021100D02*
X032276D01*
X032000Y020824D02*
Y021375D01*
X059087Y029812D02*
X059638D01*
X059362Y029537D02*
Y030088D01*
X054362Y029812D02*
X054913D01*
X054638Y029537D02*
Y030088D01*
X059087Y025088D02*
X059638D01*
X059362Y024812D02*
Y025363D01*
X054362Y025088D02*
X054913D01*
X054638Y024812D02*
Y025363D01*
X056724Y024300D02*
X057276D01*
X057000Y024025D02*
Y024576D01*
X021587Y029812D02*
X022138D01*
X021862Y029537D02*
Y030088D01*
X016862Y029812D02*
X017413D01*
X017138Y029537D02*
Y030088D01*
X021587Y025088D02*
X022138D01*
X021862Y024812D02*
Y025363D01*
X016862Y025088D02*
X017413D01*
X017138Y024812D02*
Y025363D01*
X019224Y024300D02*
X019776D01*
X019500Y024025D02*
Y024576D01*
X029803Y012450D02*
X030197D01*
X030000Y012253D02*
Y012647D01*
X031803Y012450D02*
X032197D01*
X032000Y012253D02*
Y012647D01*
X033803Y012450D02*
X034197D01*
X034000Y012253D02*
Y012647D01*
X058803Y032950D02*
X059197D01*
X059000Y032753D02*
Y033147D01*
X056803Y032950D02*
X057197D01*
X057000Y032753D02*
Y033147D01*
X054803Y032950D02*
X055197D01*
X055000Y032753D02*
Y033147D01*
X021303Y032950D02*
X021697D01*
X021500Y032753D02*
Y033147D01*
X019303Y032950D02*
X019697D01*
X019500Y032753D02*
Y033147D01*
X017303Y032950D02*
X017697D01*
X017500Y032753D02*
Y033147D01*
X023112Y015588D02*
X023663D01*
X023388Y015312D02*
Y015863D01*
X027837Y015588D02*
X028388D01*
X028112Y015312D02*
Y015863D01*
X023112Y020312D02*
X023663D01*
X023388Y020037D02*
Y020588D01*
X027837Y020312D02*
X028388D01*
X028112Y020037D02*
Y020588D01*
X025474Y021100D02*
X026026D01*
X025750Y020824D02*
Y021375D01*
X054362Y015588D02*
X054913D01*
X054638Y015312D02*
Y015863D01*
X059087Y015588D02*
X059638D01*
X059362Y015312D02*
Y015863D01*
X054362Y020312D02*
X054913D01*
X054638Y020037D02*
Y020588D01*
X059087Y020312D02*
X059638D01*
X059362Y020037D02*
Y020588D01*
X056724Y021100D02*
X057276D01*
X057000Y020824D02*
Y021375D01*
X027837Y029812D02*
X028388D01*
X028112Y029537D02*
Y030088D01*
X023112Y029812D02*
X023663D01*
X023388Y029537D02*
Y030088D01*
X027837Y025088D02*
X028388D01*
X028112Y024812D02*
Y025363D01*
X023112Y025088D02*
X023663D01*
X023388Y024812D02*
Y025363D01*
X025474Y024300D02*
X026026D01*
X025750Y024025D02*
Y024576D01*
X023553Y012450D02*
X023947D01*
X023750Y012253D02*
Y012647D01*
X025553Y012450D02*
X025947D01*
X025750Y012253D02*
Y012647D01*
X027553Y012450D02*
X027947D01*
X027750Y012253D02*
Y012647D01*
X054803Y012450D02*
X055197D01*
X055000Y012253D02*
Y012647D01*
X056803Y012450D02*
X057197D01*
X057000Y012253D02*
Y012647D01*
X058803Y012450D02*
X059197D01*
X059000Y012253D02*
Y012647D01*
X027553Y032950D02*
X027947D01*
X027750Y032753D02*
Y033147D01*
X025553Y032950D02*
X025947D01*
X025750Y032753D02*
Y033147D01*
X023553Y032950D02*
X023947D01*
X023750Y032753D02*
Y033147D01*
X016862Y015588D02*
X017413D01*
X017138Y015312D02*
Y015863D01*
X021587Y015588D02*
X022138D01*
X021862Y015312D02*
Y015863D01*
X016862Y020312D02*
X017413D01*
X017138Y020037D02*
Y020588D01*
X021587Y020312D02*
X022138D01*
X021862Y020037D02*
Y020588D01*
X019224Y021100D02*
X019776D01*
X019500Y020824D02*
Y021375D01*
X048112Y015588D02*
X048663D01*
X048388Y015312D02*
Y015863D01*
X052837Y015588D02*
X053388D01*
X053112Y015312D02*
Y015863D01*
X048112Y020312D02*
X048663D01*
X048388Y020037D02*
Y020588D01*
X052837Y020312D02*
X053388D01*
X053112Y020037D02*
Y020588D01*
X050474Y021100D02*
X051026D01*
X050750Y020824D02*
Y021375D01*
X034087Y029812D02*
X034638D01*
X034362Y029537D02*
Y030088D01*
X029362Y029812D02*
X029913D01*
X029638Y029537D02*
Y030088D01*
X034087Y025088D02*
X034638D01*
X034362Y024812D02*
Y025363D01*
X029362Y025088D02*
X029913D01*
X029638Y024812D02*
Y025363D01*
X031724Y024300D02*
X032276D01*
X032000Y024025D02*
Y024576D01*
X017303Y012450D02*
X017697D01*
X017500Y012253D02*
Y012647D01*
X019303Y012450D02*
X019697D01*
X019500Y012253D02*
Y012647D01*
X021303Y012450D02*
X021697D01*
X021500Y012253D02*
Y012647D01*
X048553Y012450D02*
X048947D01*
X048750Y012253D02*
Y012647D01*
X050553Y012450D02*
X050947D01*
X050750Y012253D02*
Y012647D01*
X052553Y012450D02*
X052947D01*
X052750Y012253D02*
Y012647D01*
X033803Y032950D02*
X034197D01*
X034000Y032753D02*
Y033147D01*
X031803Y032950D02*
X032197D01*
X032000Y032753D02*
Y033147D01*
X029803Y032950D02*
X030197D01*
X030000Y032753D02*
Y033147D01*
X010612Y015588D02*
X011163D01*
X010888Y015312D02*
Y015863D01*
X015337Y015588D02*
X015888D01*
X015612Y015312D02*
Y015863D01*
X010612Y020312D02*
X011163D01*
X010888Y020037D02*
Y020588D01*
X015337Y020312D02*
X015888D01*
X015612Y020037D02*
Y020588D01*
X012974Y021100D02*
X013526D01*
X013250Y020824D02*
Y021375D01*
X041862Y015588D02*
X042413D01*
X042138Y015312D02*
Y015863D01*
X046587Y015588D02*
X047138D01*
X046862Y015312D02*
Y015863D01*
X041862Y020312D02*
X042413D01*
X042138Y020037D02*
Y020588D01*
X046587Y020312D02*
X047138D01*
X046862Y020037D02*
Y020588D01*
X044224Y021100D02*
X044776D01*
X044500Y020824D02*
Y021375D01*
X040337Y029812D02*
X040888D01*
X040612Y029537D02*
Y030088D01*
X035612Y029812D02*
X036163D01*
X035888Y029537D02*
Y030088D01*
X040337Y025088D02*
X040888D01*
X040612Y024812D02*
Y025363D01*
X035612Y025088D02*
X036163D01*
X035888Y024812D02*
Y025363D01*
X037974Y024300D02*
X038526D01*
X038250Y024025D02*
Y024576D01*
X011053Y012450D02*
X011447D01*
X011250Y012253D02*
Y012647D01*
X013053Y012450D02*
X013447D01*
X013250Y012253D02*
Y012647D01*
X015053Y012450D02*
X015447D01*
X015250Y012253D02*
Y012647D01*
X042303Y012450D02*
X042697D01*
X042500Y012253D02*
Y012647D01*
X044303Y012450D02*
X044697D01*
X044500Y012253D02*
Y012647D01*
X046303Y012450D02*
X046697D01*
X046500Y012253D02*
Y012647D01*
X040053Y032950D02*
X040447D01*
X040250Y032753D02*
Y033147D01*
X038053Y032950D02*
X038447D01*
X038250Y032753D02*
Y033147D01*
X036053Y032950D02*
X036447D01*
X036250Y032753D02*
Y033147D01*
X065103Y032416D02*
X065497D01*
X065300Y032219D02*
Y032613D01*
X065103Y034384D02*
X065497D01*
X065300Y034187D02*
Y034581D01*
X046587Y029812D02*
X047138D01*
X046862Y029537D02*
Y030088D01*
X041862Y029812D02*
X042413D01*
X042138Y029537D02*
Y030088D01*
X046587Y025088D02*
X047138D01*
X046862Y024812D02*
Y025363D01*
X041862Y025088D02*
X042413D01*
X042138Y024812D02*
Y025363D01*
X044224Y024300D02*
X044776D01*
X044500Y024025D02*
Y024576D01*
X046303Y032950D02*
X046697D01*
X046500Y032753D02*
Y033147D01*
X044303Y032950D02*
X044697D01*
X044500Y032753D02*
Y033147D01*
X042303Y032950D02*
X042697D01*
X042500Y032753D02*
Y033147D01*
X060750Y023225D02*
X060850D01*
X060800Y023175D02*
Y023275D01*
X060750Y020225D02*
X060850D01*
X060800Y020175D02*
Y020275D01*
X060750Y021225D02*
X060850D01*
X060800Y021175D02*
Y021275D01*
X060750Y022725D02*
X060850D01*
X060800Y022675D02*
Y022775D01*
X060750Y022225D02*
X060850D01*
X060800Y022175D02*
Y022275D01*
X063350Y025700D02*
X063450D01*
X063400Y025650D02*
Y025750D01*
X060650Y026950D02*
X060750D01*
X060700Y026900D02*
Y027000D01*
X060650Y027750D02*
X060750D01*
X060700Y027700D02*
Y027800D01*
X060650Y028150D02*
X060750D01*
X060700Y028100D02*
Y028200D01*
X059550Y027350D02*
X059650D01*
X059600Y027300D02*
Y027400D01*
X064000Y029550D02*
X064100D01*
X064050Y029500D02*
Y029600D01*
X064000Y019075D02*
X064100D01*
X064050Y019025D02*
Y019125D01*
X061100Y024050D02*
X061200D01*
X061150Y024000D02*
Y024100D01*
X063800Y024050D02*
X063900D01*
X063850Y024000D02*
Y024100D01*
X060650Y027350D02*
X060750D01*
X060700Y027300D02*
Y027400D01*
M02*