%FSDAX24Y24*%
%MOIN*%
%SFA1B1*%

%IPPOS*%
%ADD14C,0.010000*%
%ADD27C,0.007900*%
%ADD28C,0.009800*%
%ADD29C,0.005000*%
%ADD30C,0.003900*%
%LNde-270124-1*%
%LPD*%
G54D14*
X035297Y014210D02*
Y021690D01*
Y014210D02*
X041203D01*
X035297Y021690D02*
X041203D01*
Y014210D02*
Y021690D01*
X053703Y023710D02*
Y031190D01*
X047797D02*
X053703D01*
X047797Y023710D02*
X053703D01*
X047797D02*
Y031190D01*
X016203Y023710D02*
Y031190D01*
X010297D02*
X016203D01*
X010297Y023710D02*
X016203D01*
X010297D02*
Y031190D01*
X035297Y010875D02*
Y014025D01*
X041203Y010875D02*
Y014025D01*
X035297Y010875D02*
X041203D01*
X035297Y014025D02*
X041203D01*
X053703Y031375D02*
Y034525D01*
X047797Y031375D02*
Y034525D01*
X053703*
X047797Y031375D02*
X053703D01*
X016203D02*
Y034525D01*
X010297Y031375D02*
Y034525D01*
X016203*
X010297Y031375D02*
X016203D01*
X029047Y014210D02*
Y021690D01*
Y014210D02*
X034953D01*
X029047Y021690D02*
X034953D01*
Y014210D02*
Y021690D01*
X059953Y023710D02*
Y031190D01*
X054047D02*
X059953D01*
X054047Y023710D02*
X059953D01*
X054047D02*
Y031190D01*
X022453Y023710D02*
Y031190D01*
X016547D02*
X022453D01*
X016547Y023710D02*
X022453D01*
X016547D02*
Y031190D01*
X029047Y010875D02*
Y014025D01*
X034953Y010875D02*
Y014025D01*
X029047Y010875D02*
X034953D01*
X029047Y014025D02*
X034953D01*
X059953Y031375D02*
Y034525D01*
X054047Y031375D02*
Y034525D01*
X059953*
X054047Y031375D02*
X059953D01*
X022453D02*
Y034525D01*
X016547Y031375D02*
Y034525D01*
X022453*
X016547Y031375D02*
X022453D01*
X022797Y014210D02*
Y021690D01*
Y014210D02*
X028703D01*
X022797Y021690D02*
X028703D01*
Y014210D02*
Y021690D01*
X054047Y014210D02*
Y021690D01*
Y014210D02*
X059953D01*
X054047Y021690D02*
X059953D01*
Y014210D02*
Y021690D01*
X028703Y023710D02*
Y031190D01*
X022797D02*
X028703D01*
X022797Y023710D02*
X028703D01*
X022797D02*
Y031190D01*
Y010875D02*
Y014025D01*
X028703Y010875D02*
Y014025D01*
X022797Y010875D02*
X028703D01*
X022797Y014025D02*
X028703D01*
X054047Y010875D02*
Y014025D01*
X059953Y010875D02*
Y014025D01*
X054047Y010875D02*
X059953D01*
X054047Y014025D02*
X059953D01*
X028703Y031375D02*
Y034525D01*
X022797Y031375D02*
Y034525D01*
X028703*
X022797Y031375D02*
X028703D01*
X016547Y014210D02*
Y021690D01*
Y014210D02*
X022453D01*
X016547Y021690D02*
X022453D01*
Y014210D02*
Y021690D01*
X047797Y014210D02*
Y021690D01*
Y014210D02*
X053703D01*
X047797Y021690D02*
X053703D01*
Y014210D02*
Y021690D01*
X034953Y023710D02*
Y031190D01*
X029047D02*
X034953D01*
X029047Y023710D02*
X034953D01*
X029047D02*
Y031190D01*
X016547Y010875D02*
Y014025D01*
X022453Y010875D02*
Y014025D01*
X016547Y010875D02*
X022453D01*
X016547Y014025D02*
X022453D01*
X047797Y010875D02*
Y014025D01*
X053703Y010875D02*
Y014025D01*
X047797Y010875D02*
X053703D01*
X047797Y014025D02*
X053703D01*
X034953Y031375D02*
Y034525D01*
X029047Y031375D02*
Y034525D01*
X034953*
X029047Y031375D02*
X034953D01*
X010297Y014210D02*
Y021690D01*
Y014210D02*
X016203D01*
X010297Y021690D02*
X016203D01*
Y014210D02*
Y021690D01*
X041547Y014210D02*
Y021690D01*
Y014210D02*
X047453D01*
X041547Y021690D02*
X047453D01*
Y014210D02*
Y021690D01*
X041203Y023710D02*
Y031190D01*
X035297D02*
X041203D01*
X035297Y023710D02*
X041203D01*
X035297D02*
Y031190D01*
X010297Y010875D02*
Y014025D01*
X016203Y010875D02*
Y014025D01*
X010297Y010875D02*
X016203D01*
X010297Y014025D02*
X016203D01*
X041547Y010875D02*
Y014025D01*
X047453Y010875D02*
Y014025D01*
X041547Y010875D02*
X047453D01*
X041547Y014025D02*
X047453D01*
X041203Y031375D02*
Y034525D01*
X035297Y031375D02*
Y034525D01*
X041203*
X035297Y031375D02*
X041203D01*
X066925Y031432D02*
Y035368D01*
X063725D02*
X066925D01*
X063725Y031432D02*
X066925D01*
X063725D02*
Y035368D01*
X047453Y023710D02*
Y031190D01*
X041547D02*
X047453D01*
X041547Y023710D02*
X047453D01*
X041547D02*
Y031190D01*
X047453Y031375D02*
Y034525D01*
X041547Y031375D02*
Y034525D01*
X047453*
X041547Y031375D02*
X047453D01*
X010000Y035541D02*
X067087D01*
X010000Y009950D02*
Y035541D01*
Y009950D02*
X067087D01*
X010600Y010200D02*
Y010650D01*
X010900Y010200*
Y010650*
X011275D02*
X011125D01*
X011050Y010575*
Y010275*
X011125Y010200*
X011275*
X011350Y010275*
Y010575*
X011275Y010650*
X011500Y010200D02*
X011650D01*
X011575*
Y010650*
X011500Y010575*
X012174Y010650D02*
X012025Y010575D01*
X011875Y010425*
Y010275*
X011950Y010200*
X012100*
X012174Y010275*
Y010350*
X012100Y010425*
X011875*
X013074Y010575D02*
X012999Y010650D01*
X012849*
X012774Y010575*
Y010275*
X012849Y010200*
X012999*
X013074Y010275*
X013449Y010650D02*
X013299D01*
X013224Y010575*
Y010275*
X013299Y010200*
X013449*
X013524Y010275*
Y010575*
X013449Y010650*
X013674Y010200D02*
Y010650D01*
X013824Y010500*
X013974Y010650*
Y010200*
X014574D02*
X014724D01*
X014649*
Y010650*
X014574Y010575*
X015249Y010650D02*
X015099Y010575D01*
X014949Y010425*
Y010275*
X015024Y010200*
X015174*
X015249Y010275*
Y010350*
X015174Y010425*
X014949*
X015398Y010200D02*
Y010650D01*
X015698Y010200*
Y010650*
X016148Y010575D02*
X016073Y010650D01*
X015923*
X015848Y010575*
Y010275*
X015923Y010200*
X016073*
X016148Y010275*
X016748Y010200D02*
Y010650D01*
X017048Y010200*
Y010650*
X017423D02*
X017273D01*
X017198Y010575*
Y010275*
X017273Y010200*
X017423*
X017498Y010275*
Y010575*
X017423Y010650*
X017648Y010200D02*
X017798D01*
X017723*
Y010650*
X017648Y010575*
X018323Y010650D02*
X018023D01*
Y010425*
X018173Y010500*
X018248*
X018323Y010425*
Y010275*
X018248Y010200*
X018098*
X018023Y010275*
X019222Y010575D02*
X019147Y010650D01*
X018997*
X018922Y010575*
Y010275*
X018997Y010200*
X019147*
X019222Y010275*
X019597Y010650D02*
X019447D01*
X019372Y010575*
Y010275*
X019447Y010200*
X019597*
X019672Y010275*
Y010575*
X019597Y010650*
X019822Y010200D02*
Y010650D01*
X019972Y010500*
X020122Y010650*
Y010200*
X020722D02*
Y010650D01*
X021022Y010200*
Y010650*
X021471Y010575D02*
X021397Y010650D01*
X021247*
X021172Y010575*
Y010275*
X021247Y010200*
X021397*
X021471Y010275*
X021621Y010200D02*
X021771D01*
X021696*
Y010650*
X021621Y010575*
X022296Y010650D02*
X021996D01*
Y010425*
X022146Y010500*
X022221*
X022296Y010425*
Y010275*
X022221Y010200*
X022071*
X021996Y010275*
X022896Y010200D02*
Y010650D01*
X023196Y010200*
Y010650*
X023571D02*
X023421D01*
X023346Y010575*
Y010275*
X023421Y010200*
X023571*
X023646Y010275*
Y010575*
X023571Y010650*
X023796Y010200D02*
X023946D01*
X023871*
Y010650*
X023796Y010575*
X024396Y010200D02*
Y010650D01*
X024171Y010425*
X024471*
X025370Y010575D02*
X025295Y010650D01*
X025145*
X025070Y010575*
Y010275*
X025145Y010200*
X025295*
X025370Y010275*
X025745Y010650D02*
X025595D01*
X025520Y010575*
Y010275*
X025595Y010200*
X025745*
X025820Y010275*
Y010575*
X025745Y010650*
X025970Y010200D02*
Y010650D01*
X026120Y010500*
X026270Y010650*
Y010200*
X026870D02*
Y010650D01*
X027170Y010200*
Y010650*
X027620Y010575D02*
X027545Y010650D01*
X027395*
X027320Y010575*
Y010275*
X027395Y010200*
X027545*
X027620Y010275*
X027769Y010200D02*
X027919D01*
X027844*
Y010650*
X027769Y010575*
X028369Y010200D02*
Y010650D01*
X028144Y010425*
X028444*
X029494Y010200D02*
Y010650D01*
X029794Y010200*
Y010650*
X030169D02*
X030019D01*
X029944Y010575*
Y010275*
X030019Y010200*
X030169*
X030244Y010275*
Y010575*
X030169Y010650*
X030394Y010200D02*
X030544D01*
X030469*
Y010650*
X030394Y010575*
X030768D02*
X030843Y010650D01*
X030993*
X031068Y010575*
Y010500*
X030993Y010425*
X030918*
X030993*
X031068Y010350*
Y010275*
X030993Y010200*
X030843*
X030768Y010275*
X031968Y010575D02*
X031893Y010650D01*
X031743*
X031668Y010575*
Y010275*
X031743Y010200*
X031893*
X031968Y010275*
X032343Y010650D02*
X032193D01*
X032118Y010575*
Y010275*
X032193Y010200*
X032343*
X032418Y010275*
Y010575*
X032343Y010650*
X032568Y010200D02*
Y010650D01*
X032718Y010500*
X032868Y010650*
Y010200*
X033468D02*
Y010650D01*
X033768Y010200*
Y010650*
X034217Y010575D02*
X034142Y010650D01*
X033992*
X033917Y010575*
Y010275*
X033992Y010200*
X034142*
X034217Y010275*
X034367Y010200D02*
X034517D01*
X034442*
Y010650*
X034367Y010575*
X034742D02*
X034817Y010650D01*
X034967*
X035042Y010575*
Y010500*
X034967Y010425*
X034892*
X034967*
X035042Y010350*
Y010275*
X034967Y010200*
X034817*
X034742Y010275*
X035642Y010200D02*
Y010650D01*
X035942Y010200*
Y010650*
X036317D02*
X036167D01*
X036092Y010575*
Y010275*
X036167Y010200*
X036317*
X036392Y010275*
Y010575*
X036317Y010650*
X036542Y010200D02*
X036692D01*
X036617*
Y010650*
X036542Y010575*
X037216Y010200D02*
X036917D01*
X037216Y010500*
Y010575*
X037141Y010650*
X036991*
X036917Y010575*
X038116D02*
X038041Y010650D01*
X037891*
X037816Y010575*
Y010275*
X037891Y010200*
X038041*
X038116Y010275*
X038491Y010650D02*
X038341D01*
X038266Y010575*
Y010275*
X038341Y010200*
X038491*
X038566Y010275*
Y010575*
X038491Y010650*
X038716Y010200D02*
Y010650D01*
X038866Y010500*
X039016Y010650*
Y010200*
X039616D02*
Y010650D01*
X039916Y010200*
Y010650*
X040365Y010575D02*
X040290Y010650D01*
X040140*
X040065Y010575*
Y010275*
X040140Y010200*
X040290*
X040365Y010275*
X040515Y010200D02*
X040665D01*
X040590*
Y010650*
X040515Y010575*
X041190Y010200D02*
X040890D01*
X041190Y010500*
Y010575*
X041115Y010650*
X040965*
X040890Y010575*
X041790Y010200D02*
Y010650D01*
X042090Y010200*
Y010650*
X042465D02*
X042315D01*
X042240Y010575*
Y010275*
X042315Y010200*
X042465*
X042540Y010275*
Y010575*
X042465Y010650*
X042690Y010200D02*
X042840D01*
X042765*
Y010650*
X042690Y010575*
X043065Y010200D02*
X043214D01*
X043140*
Y010650*
X043065Y010575*
X044189D02*
X044114Y010650D01*
X043964*
X043889Y010575*
Y010275*
X043964Y010200*
X044114*
X044189Y010275*
X044564Y010650D02*
X044414D01*
X044339Y010575*
Y010275*
X044414Y010200*
X044564*
X044639Y010275*
Y010575*
X044564Y010650*
X044789Y010200D02*
Y010650D01*
X044939Y010500*
X045089Y010650*
Y010200*
X045689D02*
Y010650D01*
X045989Y010200*
Y010650*
X046438Y010575D02*
X046363Y010650D01*
X046214*
X046139Y010575*
Y010275*
X046214Y010200*
X046363*
X046438Y010275*
X046588Y010200D02*
X046738D01*
X046663*
Y010650*
X046588Y010575*
X046963Y010200D02*
X047113D01*
X047038*
Y010650*
X046963Y010575*
X047788Y010200D02*
Y010650D01*
X048088Y010200*
Y010650*
X048463D02*
X048313D01*
X048238Y010575*
Y010275*
X048313Y010200*
X048463*
X048538Y010275*
Y010575*
X048463Y010650*
X048688Y010200D02*
X048838D01*
X048763*
Y010650*
X048688Y010575*
X049063D02*
X049138Y010650D01*
X049288*
X049363Y010575*
Y010275*
X049288Y010200*
X049138*
X049063Y010275*
Y010575*
X050262D02*
X050187Y010650D01*
X050037*
X049962Y010575*
Y010275*
X050037Y010200*
X050187*
X050262Y010275*
X050637Y010650D02*
X050487D01*
X050412Y010575*
Y010275*
X050487Y010200*
X050637*
X050712Y010275*
Y010575*
X050637Y010650*
X050862Y010200D02*
Y010650D01*
X051012Y010500*
X051162Y010650*
Y010200*
X051762D02*
Y010650D01*
X052062Y010200*
Y010650*
X052511Y010575D02*
X052437Y010650D01*
X052287*
X052212Y010575*
Y010275*
X052287Y010200*
X052437*
X052511Y010275*
X052661Y010200D02*
X052811D01*
X052736*
Y010650*
X052661Y010575*
X053036D02*
X053111Y010650D01*
X053261*
X053336Y010575*
Y010275*
X053261Y010200*
X053111*
X053036Y010275*
Y010575*
X053936Y010200D02*
Y010650D01*
X054236Y010200*
Y010650*
X054611D02*
X054461D01*
X054386Y010575*
Y010275*
X054461Y010200*
X054611*
X054686Y010275*
Y010575*
X054611Y010650*
X054836Y010275D02*
X054911Y010200D01*
X055061*
X055136Y010275*
Y010575*
X055061Y010650*
X054911*
X054836Y010575*
Y010500*
X054911Y010425*
X055136*
X056485Y010575D02*
X056410Y010650D01*
X056260*
X056185Y010575*
Y010275*
X056260Y010200*
X056410*
X056485Y010275*
X056860Y010650D02*
X056710D01*
X056635Y010575*
Y010275*
X056710Y010200*
X056860*
X056935Y010275*
Y010575*
X056860Y010650*
X057085Y010200D02*
Y010650D01*
X057235Y010500*
X057385Y010650*
Y010200*
X058435D02*
Y010650D01*
X058734Y010200*
Y010650*
X059184Y010575D02*
X059109Y010650D01*
X058959*
X058884Y010575*
Y010275*
X058959Y010200*
X059109*
X059184Y010275*
X059334D02*
X059409Y010200D01*
X059559*
X059634Y010275*
Y010575*
X059559Y010650*
X059409*
X059334Y010575*
Y010500*
X059409Y010425*
X059634*
X059350Y035200D02*
Y034720D01*
X059030Y035200*
Y034720*
X058630D02*
X058790D01*
X058870Y034800*
Y035120*
X058790Y035200*
X058630*
X058550Y035120*
Y034800*
X058630Y034720*
X058390Y034800D02*
X058310Y034720D01*
X058150*
X058070Y034800*
Y034880*
X058150Y034960*
X058070Y035040*
Y035120*
X058150Y035200*
X058310*
X058390Y035120*
Y035040*
X058310Y034960*
X058390Y034880*
Y034800*
X058310Y034960D02*
X058150D01*
X057111Y034800D02*
X057191Y034720D01*
X057351*
X057431Y034800*
Y035120*
X057351Y035200*
X057191*
X057111Y035120*
X056711Y034720D02*
X056871D01*
X056951Y034800*
Y035120*
X056871Y035200*
X056711*
X056631Y035120*
Y034800*
X056711Y034720*
X056471Y035200D02*
Y034720D01*
X056311Y034880*
X056151Y034720*
Y035200*
X055511D02*
Y034720D01*
X055191Y035200*
Y034720*
X054711Y034800D02*
X054791Y034720D01*
X054951*
X055031Y034800*
Y035120*
X054951Y035200*
X054791*
X054711Y035120*
X054552Y034800D02*
X054472Y034720D01*
X054312*
X054232Y034800*
Y034880*
X054312Y034960*
X054232Y035040*
Y035120*
X054312Y035200*
X054472*
X054552Y035120*
Y035040*
X054472Y034960*
X054552Y034880*
Y034800*
X054472Y034960D02*
X054312D01*
X053112Y035200D02*
Y034720D01*
X052792Y035200*
Y034720*
X052392D02*
X052552D01*
X052632Y034800*
Y035120*
X052552Y035200*
X052392*
X052312Y035120*
Y034800*
X052392Y034720*
X052152D02*
X051832D01*
Y034800*
X052152Y035120*
Y035200*
X050873Y034800D02*
X050953Y034720D01*
X051113*
X051193Y034800*
Y035120*
X051113Y035200*
X050953*
X050873Y035120*
X050473Y034720D02*
X050633D01*
X050713Y034800*
Y035120*
X050633Y035200*
X050473*
X050393Y035120*
Y034800*
X050473Y034720*
X050233Y035200D02*
Y034720D01*
X050073Y034880*
X049913Y034720*
Y035200*
X049273D02*
Y034720D01*
X049113Y034880*
X048953Y034720*
Y035200*
X048474Y034800D02*
X048553Y034720D01*
X048713*
X048793Y034800*
Y035120*
X048713Y035200*
X048553*
X048474Y035120*
X048314Y034720D02*
X047994D01*
Y034800*
X048314Y035120*
Y035200*
X046874D02*
Y034720D01*
X046554Y035200*
Y034720*
X046154D02*
X046314D01*
X046394Y034800*
Y035120*
X046314Y035200*
X046154*
X046074Y035120*
Y034800*
X046154Y034720*
X045594D02*
X045754Y034800D01*
X045914Y034960*
Y035120*
X045834Y035200*
X045674*
X045594Y035120*
Y035040*
X045674Y034960*
X045914*
X044635Y034800D02*
X044715Y034720D01*
X044875*
X044955Y034800*
Y035120*
X044875Y035200*
X044715*
X044635Y035120*
X044235Y034720D02*
X044395D01*
X044475Y034800*
Y035120*
X044395Y035200*
X044235*
X044155Y035120*
Y034800*
X044235Y034720*
X043995Y035200D02*
Y034720D01*
X043835Y034880*
X043675Y034720*
Y035200*
X043035D02*
Y034720D01*
X042715Y035200*
Y034720*
X042236Y034800D02*
X042316Y034720D01*
X042475*
X042555Y034800*
Y035120*
X042475Y035200*
X042316*
X042236Y035120*
X041756Y034720D02*
X041916Y034800D01*
X042076Y034960*
Y035120*
X041996Y035200*
X041836*
X041756Y035120*
Y035040*
X041836Y034960*
X042076*
X040636Y035200D02*
Y034720D01*
X040316Y035200*
Y034720*
X039916D02*
X040076D01*
X040156Y034800*
Y035120*
X040076Y035200*
X039916*
X039836Y035120*
Y034800*
X039916Y034720*
X039356D02*
X039676D01*
Y034960*
X039516Y034880*
X039436*
X039356Y034960*
Y035120*
X039436Y035200*
X039596*
X039676Y035120*
X038397Y034800D02*
X038477Y034720D01*
X038637*
X038717Y034800*
Y035120*
X038637Y035200*
X038477*
X038397Y035120*
X037997Y034720D02*
X038157D01*
X038237Y034800*
Y035120*
X038157Y035200*
X037997*
X037917Y035120*
Y034800*
X037997Y034720*
X037757Y035200D02*
Y034720D01*
X037597Y034880*
X037437Y034720*
Y035200*
X036797D02*
Y034720D01*
X036477Y035200*
Y034720*
X035998Y034800D02*
X036078Y034720D01*
X036237*
X036317Y034800*
Y035120*
X036237Y035200*
X036078*
X035998Y035120*
X035518Y034720D02*
X035838D01*
Y034960*
X035678Y034880*
X035598*
X035518Y034960*
Y035120*
X035598Y035200*
X035758*
X035838Y035120*
X034398Y035200D02*
Y034720D01*
X034078Y035200*
Y034720*
X033678D02*
X033838D01*
X033918Y034800*
Y035120*
X033838Y035200*
X033678*
X033598Y035120*
Y034800*
X033678Y034720*
X033198Y035200D02*
Y034720D01*
X033438Y034960*
X033118*
X032159Y034800D02*
X032239Y034720D01*
X032399*
X032479Y034800*
Y035120*
X032399Y035200*
X032239*
X032159Y035120*
X031759Y034720D02*
X031919D01*
X031999Y034800*
Y035120*
X031919Y035200*
X031759*
X031679Y035120*
Y034800*
X031759Y034720*
X031519Y035200D02*
Y034720D01*
X031359Y034880*
X031199Y034720*
Y035200*
X030559D02*
Y034720D01*
X030239Y035200*
Y034720*
X029760Y034800D02*
X029840Y034720D01*
X029999*
X030079Y034800*
Y035120*
X029999Y035200*
X029840*
X029760Y035120*
X029360Y035200D02*
Y034720D01*
X029600Y034960*
X029280*
X028160Y035200D02*
Y034720D01*
X027840Y035200*
Y034720*
X027440D02*
X027600D01*
X027680Y034800*
Y035120*
X027600Y035200*
X027440*
X027360Y035120*
Y034800*
X027440Y034720*
X027200Y034800D02*
X027120Y034720D01*
X026960*
X026880Y034800*
Y034880*
X026960Y034960*
X027040*
X026960*
X026880Y035040*
Y035120*
X026960Y035200*
X027120*
X027200Y035120*
X025921Y034800D02*
X026001Y034720D01*
X026161*
X026241Y034800*
Y035120*
X026161Y035200*
X026001*
X025921Y035120*
X025521Y034720D02*
X025681D01*
X025761Y034800*
Y035120*
X025681Y035200*
X025521*
X025441Y035120*
Y034800*
X025521Y034720*
X025281Y035200D02*
Y034720D01*
X025121Y034880*
X024961Y034720*
Y035200*
X024321D02*
Y034720D01*
X024001Y035200*
Y034720*
X023522Y034800D02*
X023602Y034720D01*
X023761*
X023841Y034800*
Y035120*
X023761Y035200*
X023602*
X023522Y035120*
X023362Y034800D02*
X023282Y034720D01*
X023122*
X023042Y034800*
Y034880*
X023122Y034960*
X023202*
X023122*
X023042Y035040*
Y035120*
X023122Y035200*
X023282*
X023362Y035120*
X021922Y035200D02*
Y034720D01*
X021602Y035200*
Y034720*
X021202D02*
X021362D01*
X021442Y034800*
Y035120*
X021362Y035200*
X021202*
X021122Y035120*
Y034800*
X021202Y034720*
X020642Y035200D02*
X020962D01*
X020642Y034880*
Y034800*
X020722Y034720*
X020882*
X020962Y034800*
X019683D02*
X019763Y034720D01*
X019923*
X020003Y034800*
Y035120*
X019923Y035200*
X019763*
X019683Y035120*
X019283Y034720D02*
X019443D01*
X019523Y034800*
Y035120*
X019443Y035200*
X019283*
X019203Y035120*
Y034800*
X019283Y034720*
X019043Y035200D02*
Y034720D01*
X018883Y034880*
X018723Y034720*
Y035200*
X018083D02*
Y034720D01*
X017763Y035200*
Y034720*
X017284Y034800D02*
X017364Y034720D01*
X017524*
X017603Y034800*
Y035120*
X017524Y035200*
X017364*
X017284Y035120*
X016804Y035200D02*
X017124D01*
X016804Y034880*
Y034800*
X016884Y034720*
X017044*
X017124Y034800*
X016164Y035200D02*
Y034720D01*
X015844Y035200*
Y034720*
X015444D02*
X015604D01*
X015684Y034800*
Y035120*
X015604Y035200*
X015444*
X015364Y035120*
Y034800*
X015444Y034720*
X015204Y035200D02*
X015044D01*
X015124*
Y034720*
X015204Y034800*
X014005D02*
X014085Y034720D01*
X014245*
X014325Y034800*
Y035120*
X014245Y035200*
X014085*
X014005Y035120*
X013605Y034720D02*
X013765D01*
X013845Y034800*
Y035120*
X013765Y035200*
X013605*
X013525Y035120*
Y034800*
X013605Y034720*
X013365Y035200D02*
Y034720D01*
X013205Y034880*
X013045Y034720*
Y035200*
X012405D02*
Y034720D01*
X012085Y035200*
Y034720*
X011605Y034800D02*
X011685Y034720D01*
X011845*
X011925Y034800*
Y035120*
X011845Y035200*
X011685*
X011605Y035120*
X011445Y035200D02*
X011286D01*
X011365*
Y034720*
X011445Y034800*
X066317Y014127D02*
X066260Y014070D01*
Y013957*
X066317Y013900*
X066543*
X066600Y013957*
Y014070*
X066543Y014127*
X066430*
Y014013*
X066600Y014240D02*
X066260D01*
X066600Y014466*
X066260*
Y014580D02*
X066600D01*
Y014750*
X066543Y014806*
X066317*
X066260Y014750*
Y014580*
X066317Y015260D02*
X066260Y015316D01*
Y015430*
X066317Y015486*
X066373*
X066430Y015430*
Y015373*
Y015430*
X066487Y015486*
X066543*
X066600Y015430*
Y015316*
X066543Y015260*
X066600Y015599D02*
Y015713D01*
Y015656*
X066260*
X066317Y015599*
Y016223D02*
X066260Y016279D01*
Y016393*
X066317Y016449*
X066373*
X066430Y016393*
Y016336*
Y016393*
X066487Y016449*
X066543*
X066600Y016393*
Y016279*
X066543Y016223*
X066317Y016562D02*
X066260Y016619D01*
Y016732*
X066317Y016789*
X066543*
X066600Y016732*
Y016619*
X066543Y016562*
X066317*
X066600Y017469D02*
Y017242D01*
X066373Y017469*
X066317*
X066260Y017412*
Y017299*
X066317Y017242*
X066543Y017582D02*
X066600Y017639D01*
Y017752*
X066543Y017809*
X066317*
X066260Y017752*
Y017639*
X066317Y017582*
X066373*
X066430Y017639*
Y017809*
X066600Y018489D02*
Y018262D01*
X066373Y018489*
X066317*
X066260Y018432*
Y018319*
X066317Y018262*
Y018602D02*
X066260Y018658D01*
Y018772*
X066317Y018828*
X066373*
X066430Y018772*
X066487Y018828*
X066543*
X066600Y018772*
Y018658*
X066543Y018602*
X066487*
X066430Y018658*
X066373Y018602*
X066317*
X066430Y018658D02*
Y018772D01*
X066600Y019508D02*
Y019282D01*
X066373Y019508*
X066317*
X066260Y019452*
Y019338*
X066317Y019282*
X066260Y019621D02*
Y019848D01*
X066317*
X066543Y019621*
X066600*
Y020528D02*
Y020301D01*
X066373Y020528*
X066317*
X066260Y020471*
Y020358*
X066317Y020301*
X066260Y020868D02*
X066317Y020754D01*
X066430Y020641*
X066543*
X066600Y020698*
Y020811*
X066543Y020868*
X066487*
X066430Y020811*
Y020641*
X066600Y021548D02*
Y021321D01*
X066373Y021548*
X066317*
X066260Y021491*
Y021378*
X066317Y021321*
X066260Y021887D02*
Y021661D01*
X066430*
X066373Y021774*
Y021831*
X066430Y021887*
X066543*
X066600Y021831*
Y021717*
X066543Y021661*
X066600Y022567D02*
Y022341D01*
X066373Y022567*
X066317*
X066260Y022511*
Y022397*
X066317Y022341*
X066600Y022850D02*
X066260D01*
X066430Y022680*
Y022907*
X066600Y023587D02*
Y023360D01*
X066373Y023587*
X066317*
X066260Y023530*
Y023417*
X066317Y023360*
Y023700D02*
X066260Y023757D01*
Y023870*
X066317Y023927*
X066373*
X066430Y023870*
Y023813*
Y023870*
X066487Y023927*
X066543*
X066600Y023870*
Y023757*
X066543Y023700*
X066600Y024607D02*
Y024380D01*
X066373Y024607*
X066317*
X066260Y024550*
Y024437*
X066317Y024380*
X066600Y024946D02*
Y024720D01*
X066373Y024946*
X066317*
X066260Y024890*
Y024776*
X066317Y024720*
X066600Y025626D02*
Y025400D01*
X066373Y025626*
X066317*
X066260Y025570*
Y025456*
X066317Y025400*
X066600Y025740D02*
Y025853D01*
Y025796*
X066260*
X066317Y025740*
X066600Y026589D02*
Y026363D01*
X066373Y026589*
X066317*
X066260Y026533*
Y026419*
X066317Y026363*
Y026703D02*
X066260Y026759D01*
Y026872*
X066317Y026929*
X066543*
X066600Y026872*
Y026759*
X066543Y026703*
X066317*
X066600Y027382D02*
Y027496D01*
Y027439*
X066260*
X066317Y027382*
X066543Y027666D02*
X066600Y027722D01*
Y027835*
X066543Y027892*
X066317*
X066260Y027835*
Y027722*
X066317Y027666*
X066373*
X066430Y027722*
Y027892*
X066600Y028345D02*
Y028459D01*
Y028402*
X066260*
X066317Y028345*
Y028629D02*
X066260Y028685D01*
Y028799*
X066317Y028855*
X066373*
X066430Y028799*
X066487Y028855*
X066543*
X066600Y028799*
Y028685*
X066543Y028629*
X066487*
X066430Y028685*
X066373Y028629*
X066317*
X066430Y028685D02*
Y028799D01*
X066600Y029308D02*
Y029422D01*
Y029365*
X066260*
X066317Y029308*
X066260Y029592D02*
Y029818D01*
X066317*
X066543Y029592*
X066600*
Y030271D02*
Y030385D01*
Y030328*
X066260*
X066317Y030271*
X066260Y030781D02*
X066317Y030668D01*
X066430Y030555*
X066543*
X066600Y030611*
Y030725*
X066543Y030781*
X066487*
X066430Y030725*
Y030555*
X063258Y032083D02*
X063200Y032025D01*
Y031908*
X063258Y031850*
X063492*
X063550Y031908*
Y032025*
X063492Y032083*
X063375*
Y031967*
X063550Y032200D02*
X063200D01*
X063550Y032433*
X063200*
Y032550D02*
X063550D01*
Y032725*
X063492Y032783*
X063258*
X063200Y032725*
Y032550*
X063375Y033599D02*
Y033833D01*
X063258Y033716D02*
X063492D01*
X063550Y033949D02*
Y034066D01*
Y034008*
X063200*
X063258Y033949*
X063550Y034474D02*
Y034241D01*
X063317Y034474*
X063258*
X063200Y034416*
Y034299*
X063258Y034241*
X063200Y034591D02*
X063433D01*
X063550Y034707*
X063433Y034824*
X063200*
X061317Y011550D02*
X061183D01*
X061250*
Y011217*
X061183Y011150*
X061117*
X061050Y011217*
X061450Y011550D02*
Y011217D01*
X061517Y011150*
X061650*
X061716Y011217*
Y011550*
X061850D02*
Y011150D01*
X062050*
X062116Y011217*
Y011283*
X062050Y011350*
X061850*
X062050*
X062116Y011417*
Y011483*
X062050Y011550*
X061850*
X062516D02*
X062250D01*
Y011150*
X062516*
X062250Y011350D02*
X062383D01*
X062649Y011150D02*
Y011550D01*
X062849*
X062916Y011483*
Y011350*
X062849Y011283*
X062649*
X062783D02*
X062916Y011150D01*
X063049D02*
Y011417D01*
X063183Y011550*
X063316Y011417*
Y011150*
Y011350*
X063049*
X064116Y011550D02*
Y011150D01*
X063916*
X063849Y011217*
Y011350*
X063916Y011417*
X064116*
X064249Y011150D02*
Y011217D01*
X064316*
Y011150*
X064249*
X064649D02*
X064782D01*
X064849Y011217*
Y011350*
X064782Y011417*
X064649*
X064582Y011350*
Y011217*
X064649Y011150*
X064982D02*
Y011217D01*
X065049*
Y011150*
X064982*
X065382D02*
X065515D01*
X065582Y011217*
Y011350*
X065515Y011417*
X065382*
X065315Y011350*
Y011217*
X065382Y011150*
X065715D02*
Y011217D01*
X065782*
Y011150*
X065715*
X061050Y010750D02*
X061317D01*
Y010683*
X061050Y010417*
Y010350*
X061450D02*
X061583D01*
X061517*
Y010750*
X061450Y010683*
X061783D02*
X061850Y010750D01*
X061983*
X062050Y010683*
Y010417*
X061983Y010350*
X061850*
X061783Y010417*
Y010683*
X062183D02*
X062250Y010750D01*
X062383*
X062450Y010683*
Y010417*
X062383Y010350*
X062250*
X062183Y010417*
Y010683*
X062583D02*
X062649Y010750D01*
X062783*
X062849Y010683*
Y010417*
X062783Y010350*
X062649*
X062583Y010417*
Y010683*
X063649D02*
X063583Y010750D01*
X063449*
X063383Y010683*
Y010617*
X063449Y010550*
X063583*
X063649Y010483*
Y010417*
X063583Y010350*
X063449*
X063383Y010417*
X063782Y010350D02*
Y010617D01*
X063916Y010750*
X064049Y010617*
Y010350*
Y010550*
X063782*
X064182Y010350D02*
Y010750D01*
X064382*
X064449Y010683*
Y010550*
X064382Y010483*
X064182*
X064316D02*
X064449Y010350D01*
X064582D02*
Y010617D01*
X064715Y010750*
X064849Y010617*
Y010350*
Y010550*
X064582*
X065249Y010750D02*
X065115D01*
X065182*
Y010417*
X065115Y010350*
X065049*
X064982Y010417*
X065649Y010750D02*
X065382D01*
Y010350*
X065649*
X065382Y010550D02*
X065515D01*
X065782Y010750D02*
Y010483D01*
X065915Y010350*
X066048Y010483*
Y010750*
X066382D02*
X066248D01*
X066182Y010683*
Y010417*
X066248Y010350*
X066382*
X066448Y010417*
Y010683*
X066382Y010750*
X061150Y011950D02*
X061283D01*
X061217*
Y012217*
X061150*
X061483Y011950D02*
Y012217D01*
X061683*
X061750Y012150*
Y011950*
X061950D02*
Y012283D01*
Y012150*
X061883*
X062016*
X061950*
Y012283*
X062016Y012350*
X062283Y011950D02*
X062416D01*
X062483Y012017*
Y012150*
X062416Y012217*
X062283*
X062216Y012150*
Y012017*
X062283Y011950*
X062816Y012083D02*
Y012150D01*
X062749*
Y012083*
X062816*
X062883Y012150*
Y012283*
X062816Y012350*
X062683*
X062616Y012283*
Y012017*
X062683Y011950*
X062883*
X063016D02*
X063149D01*
X063083*
Y012217*
X063016*
X063349Y011950D02*
Y012217D01*
X063416*
X063482Y012150*
Y011950*
Y012150*
X063549Y012217*
X063616Y012150*
Y011950*
X063949D02*
X063816D01*
X063749Y012017*
Y012150*
X063816Y012217*
X063949*
X064016Y012150*
Y012083*
X063749*
X064415Y012350D02*
Y011950D01*
X064216*
X064149Y012017*
Y012150*
X064216Y012217*
X064415*
X064549Y011950D02*
X064682D01*
X064615*
Y012217*
X064549*
X064949D02*
X065082D01*
X065149Y012150*
Y011950*
X064949*
X064882Y012017*
X064949Y012083*
X065149*
X065282Y011950D02*
Y012017D01*
X065349*
Y011950*
X065282*
X065615Y012350D02*
Y011950D01*
X065815*
X065882Y012017*
Y012083*
Y012150*
X065815Y012217*
X065615*
X066082D02*
X066215D01*
X066282Y012150*
Y011950*
X066082*
X066015Y012017*
X066082Y012083*
X066282*
X035750Y022900D02*
X035550D01*
X035650*
Y022400*
X035550Y022300*
X035450*
X035350Y022400*
X035950Y022300D02*
Y022700D01*
X036150Y022900*
X036350Y022700*
Y022300*
Y022600*
X035950*
X036550Y022300D02*
Y022900D01*
X036949Y022300*
Y022900*
X037149Y022300D02*
Y022400D01*
X037249*
Y022300*
X037149*
X038649D02*
X038249D01*
X038649Y022700*
Y022800*
X038549Y022900*
X038349*
X038249Y022800*
X038849D02*
X038949Y022900D01*
X039149*
X039249Y022800*
Y022400*
X039149Y022300*
X038949*
X038849Y022400*
Y022800*
X039849Y022300D02*
X039449D01*
X039849Y022700*
Y022800*
X039749Y022900*
X039549*
X039449Y022800*
X040348Y022300D02*
Y022900D01*
X040048Y022600*
X040448*
X040648Y022300D02*
Y022400D01*
X040748*
Y022300*
X040648*
X011200Y023000D02*
Y022400D01*
X011500*
X011600Y022500*
Y022900*
X011500Y023000*
X011200*
X012200D02*
X011800D01*
Y022400*
X012200*
X011800Y022700D02*
X012000D01*
X012400D02*
X012799D01*
X013399Y022400D02*
X012999D01*
X013399Y022800*
Y022900*
X013299Y023000*
X013099*
X012999Y022900*
X013599Y023000D02*
X013999D01*
Y022900*
X013599Y022500*
Y022400*
X014199Y022900D02*
X014299Y023000D01*
X014499*
X014599Y022900*
Y022500*
X014499Y022400*
X014299*
X014199Y022500*
Y022900*
X014799Y022400D02*
X014999D01*
X014899*
Y023000*
X014799Y022900*
X015699Y022400D02*
X015299D01*
X015699Y022800*
Y022900*
X015599Y023000*
X015399*
X015299Y022900*
X016198Y022400D02*
Y023000D01*
X015898Y022700*
X016298*
G54D27*
X062984Y031700D02*
D01*
X062981Y031768*
X062974Y031836*
X062962Y031904*
X062945Y031971*
X062924Y032036*
X062898Y032100*
X062868Y032161*
X062834Y032221*
X062796Y032278*
X062753Y032332*
X062707Y032383*
X062658Y032431*
X062605Y032475*
X062550Y032515*
X062492Y032552*
X062431Y032584*
X062368Y032612*
X062304Y032635*
X062238Y032654*
X062170Y032669*
X062102Y032678*
X062034Y032683*
X061965*
X061897Y032678*
X061829Y032669*
X061761Y032654*
X061695Y032635*
X061631Y032612*
X061568Y032584*
X061508Y032552*
X061449Y032515*
X061394Y032475*
X061341Y032431*
X061292Y032383*
X061246Y032332*
X061203Y032278*
X061165Y032221*
X061131Y032161*
X061101Y032100*
X061075Y032036*
X061054Y031971*
X061037Y031904*
X061025Y031836*
X061018Y031768*
X061016Y031700*
X061018Y031631*
X061025Y031563*
X061037Y031495*
X061054Y031428*
X061075Y031363*
X061101Y031299*
X061131Y031238*
X061165Y031178*
X061203Y031121*
X061246Y031067*
X061292Y031016*
X061341Y030968*
X061394Y030924*
X061449Y030884*
X061508Y030847*
X061568Y030815*
X061631Y030787*
X061695Y030764*
X061761Y030745*
X061829Y030730*
X061897Y030721*
X061965Y030716*
X062034*
X062102Y030721*
X062170Y030730*
X062238Y030745*
X062304Y030764*
X062368Y030787*
X062431Y030815*
X062492Y030847*
X062550Y030884*
X062605Y030924*
X062658Y030968*
X062707Y031016*
X062753Y031067*
X062796Y031121*
X062834Y031178*
X062868Y031238*
X062898Y031299*
X062924Y031363*
X062945Y031428*
X062962Y031495*
X062974Y031563*
X062981Y031631*
X062984Y031700*
Y033950D02*
D01*
X062981Y034018*
X062974Y034086*
X062962Y034154*
X062945Y034221*
X062924Y034286*
X062898Y034350*
X062868Y034411*
X062834Y034471*
X062796Y034528*
X062753Y034582*
X062707Y034633*
X062658Y034681*
X062605Y034725*
X062550Y034765*
X062492Y034802*
X062431Y034834*
X062368Y034862*
X062304Y034885*
X062238Y034904*
X062170Y034919*
X062102Y034928*
X062034Y034933*
X061965*
X061897Y034928*
X061829Y034919*
X061761Y034904*
X061695Y034885*
X061631Y034862*
X061568Y034834*
X061508Y034802*
X061449Y034765*
X061394Y034725*
X061341Y034681*
X061292Y034633*
X061246Y034582*
X061203Y034528*
X061165Y034471*
X061131Y034411*
X061101Y034350*
X061075Y034286*
X061054Y034221*
X061037Y034154*
X061025Y034086*
X061018Y034018*
X061016Y033950*
X061018Y033881*
X061025Y033813*
X061037Y033745*
X061054Y033678*
X061075Y033613*
X061101Y033549*
X061131Y033488*
X061165Y033428*
X061203Y033371*
X061246Y033317*
X061292Y033266*
X061341Y033218*
X061394Y033174*
X061449Y033134*
X061508Y033097*
X061568Y033065*
X061631Y033037*
X061695Y033014*
X061761Y032995*
X061829Y032980*
X061897Y032971*
X061965Y032966*
X062034*
X062102Y032971*
X062170Y032980*
X062238Y032995*
X062304Y033014*
X062368Y033037*
X062431Y033065*
X062492Y033097*
X062550Y033134*
X062605Y033174*
X062658Y033218*
X062707Y033266*
X062753Y033317*
X062796Y033371*
X062834Y033428*
X062868Y033488*
X062898Y033549*
X062924Y033613*
X062945Y033678*
X062962Y033745*
X062974Y033813*
X062981Y033881*
X062984Y033950*
X062101Y025831D02*
Y029769D01*
X062809Y025831D02*
Y029769D01*
X062101D02*
X062809D01*
X062101Y025831D02*
X062809D01*
X065650Y014050D02*
Y030300D01*
Y031050*
X064650D02*
X065650D01*
X064650Y014050D02*
Y031050D01*
Y014050D02*
X065650D01*
X062101Y019506D02*
Y023444D01*
X062809Y019506D02*
Y023444D01*
X062101D02*
X062809D01*
X062101Y019506D02*
X062809D01*
X062101Y013182D02*
Y017119D01*
X062809Y013182D02*
Y017119D01*
X062101D02*
X062809D01*
X062101Y013182D02*
X062809D01*
X059635Y022093D02*
Y022407D01*
X059698Y022694D02*
Y023206D01*
G54D28*
X061559Y029885D02*
D01*
X061558Y029888*
X061558Y029891*
X061557Y029895*
X061557Y029898*
X061556Y029901*
X061554Y029904*
X061553Y029908*
X061551Y029910*
X061549Y029913*
X061547Y029916*
X061545Y029919*
X061542Y029921*
X061540Y029923*
X061537Y029925*
X061534Y029927*
X061531Y029929*
X061528Y029930*
X061525Y029931*
X061521Y029932*
X061518Y029933*
X061515Y029933*
X061511Y029933*
X061508*
X061504Y029933*
X061501Y029933*
X061498Y029932*
X061494Y029931*
X061491Y029930*
X061488Y029929*
X061485Y029927*
X061482Y029925*
X061479Y029923*
X061477Y029921*
X061474Y029919*
X061472Y029916*
X061470Y029913*
X061468Y029910*
X061466Y029908*
X061465Y029904*
X061463Y029901*
X061462Y029898*
X061462Y029895*
X061461Y029891*
X061461Y029888*
X061461Y029885*
X061461Y029881*
X061461Y029878*
X061462Y029874*
X061462Y029871*
X061463Y029868*
X061465Y029865*
X061466Y029861*
X061468Y029859*
X061470Y029856*
X061472Y029853*
X061474Y029850*
X061477Y029848*
X061479Y029846*
X061482Y029844*
X061485Y029842*
X061488Y029840*
X061491Y029839*
X061494Y029838*
X061498Y029837*
X061501Y029836*
X061504Y029836*
X061508Y029836*
X061511*
X061515Y029836*
X061518Y029836*
X061521Y029837*
X061525Y029838*
X061528Y029839*
X061531Y029840*
X061534Y029842*
X061537Y029844*
X061540Y029846*
X061542Y029848*
X061545Y029850*
X061547Y029853*
X061549Y029856*
X061551Y029859*
X061553Y029861*
X061554Y029865*
X061556Y029868*
X061557Y029871*
X061557Y029874*
X061558Y029878*
X061558Y029881*
X061559Y029885*
Y023560D02*
D01*
X061558Y023563*
X061558Y023566*
X061557Y023570*
X061557Y023573*
X061556Y023576*
X061554Y023579*
X061553Y023583*
X061551Y023585*
X061549Y023588*
X061547Y023591*
X061545Y023594*
X061542Y023596*
X061540Y023598*
X061537Y023600*
X061534Y023602*
X061531Y023604*
X061528Y023605*
X061525Y023606*
X061521Y023607*
X061518Y023608*
X061515Y023608*
X061511Y023608*
X061508*
X061504Y023608*
X061501Y023608*
X061498Y023607*
X061494Y023606*
X061491Y023605*
X061488Y023604*
X061485Y023602*
X061482Y023600*
X061479Y023598*
X061477Y023596*
X061474Y023594*
X061472Y023591*
X061470Y023588*
X061468Y023585*
X061466Y023583*
X061465Y023579*
X061463Y023576*
X061462Y023573*
X061462Y023570*
X061461Y023566*
X061461Y023563*
X061461Y023560*
X061461Y023556*
X061461Y023553*
X061462Y023549*
X061462Y023546*
X061463Y023543*
X061465Y023540*
X061466Y023536*
X061468Y023534*
X061470Y023531*
X061472Y023528*
X061474Y023525*
X061477Y023523*
X061479Y023521*
X061482Y023519*
X061485Y023517*
X061488Y023515*
X061491Y023514*
X061494Y023513*
X061498Y023512*
X061501Y023511*
X061504Y023511*
X061508Y023511*
X061511*
X061515Y023511*
X061518Y023511*
X061521Y023512*
X061525Y023513*
X061528Y023514*
X061531Y023515*
X061534Y023517*
X061537Y023519*
X061540Y023521*
X061542Y023523*
X061545Y023525*
X061547Y023528*
X061549Y023531*
X061551Y023534*
X061553Y023536*
X061554Y023540*
X061556Y023543*
X061557Y023546*
X061557Y023549*
X061558Y023553*
X061558Y023556*
X061559Y023560*
Y017235D02*
D01*
X061558Y017238*
X061558Y017241*
X061557Y017245*
X061557Y017248*
X061556Y017251*
X061554Y017254*
X061553Y017258*
X061551Y017260*
X061549Y017263*
X061547Y017266*
X061545Y017269*
X061542Y017271*
X061540Y017273*
X061537Y017275*
X061534Y017277*
X061531Y017279*
X061528Y017280*
X061525Y017281*
X061521Y017282*
X061518Y017283*
X061515Y017283*
X061511Y017283*
X061508*
X061504Y017283*
X061501Y017283*
X061498Y017282*
X061494Y017281*
X061491Y017280*
X061488Y017279*
X061485Y017277*
X061482Y017275*
X061479Y017273*
X061477Y017271*
X061474Y017269*
X061472Y017266*
X061470Y017263*
X061468Y017260*
X061466Y017258*
X061465Y017254*
X061463Y017251*
X061462Y017248*
X061462Y017245*
X061461Y017241*
X061461Y017238*
X061461Y017235*
X061461Y017231*
X061461Y017228*
X061462Y017224*
X061462Y017221*
X061463Y017218*
X061465Y017215*
X061466Y017211*
X061468Y017209*
X061470Y017206*
X061472Y017203*
X061474Y017200*
X061477Y017198*
X061479Y017196*
X061482Y017194*
X061485Y017192*
X061488Y017190*
X061491Y017189*
X061494Y017188*
X061498Y017187*
X061501Y017186*
X061504Y017186*
X061508Y017186*
X061511*
X061515Y017186*
X061518Y017186*
X061521Y017187*
X061525Y017188*
X061528Y017189*
X061531Y017190*
X061534Y017192*
X061537Y017194*
X061540Y017196*
X061542Y017198*
X061545Y017200*
X061547Y017203*
X061549Y017206*
X061551Y017209*
X061553Y017211*
X061554Y017215*
X061556Y017218*
X061557Y017221*
X061557Y017224*
X061558Y017228*
X061558Y017231*
X061559Y017235*
G54D29*
X061160Y030617D02*
X061194Y030650D01*
Y030717*
X061160Y030750*
X061027*
X060994Y030717*
Y030650*
X061027Y030617*
X060994Y030417D02*
Y030550D01*
X061127Y030417*
X061160*
X061194Y030450*
Y030517*
X061160Y030550*
X061023Y033117D02*
X061056Y033150D01*
Y033217*
X061023Y033250*
X060890*
X060856Y033217*
Y033150*
X060890Y033117*
X060856Y033050D02*
Y032983D01*
Y033017*
X061056*
X061023Y033050*
X063255Y017500D02*
Y017333D01*
X063288Y017300*
X063355*
X063388Y017333*
Y017500*
X063455Y017467D02*
X063488Y017500D01*
X063555*
X063588Y017467*
Y017433*
X063555Y017400*
X063522*
X063555*
X063588Y017367*
Y017333*
X063555Y017300*
X063488*
X063455Y017333*
X063205Y023875D02*
Y023708D01*
X063238Y023675*
X063305*
X063338Y023708*
Y023875*
X063538Y023675D02*
X063405D01*
X063538Y023808*
Y023842*
X063505Y023875*
X063438*
X063405Y023842*
X063410Y030150D02*
Y029983D01*
X063444Y029950*
X063510*
X063544Y029983*
Y030150*
X063610Y029950D02*
X063677D01*
X063643*
Y030150*
X063610Y030117*
X063800Y031000D02*
Y031200D01*
X063900*
X063933Y031167*
Y031100*
X063900Y031067*
X063800*
X064000Y031000D02*
X064067D01*
X064033*
Y031200*
X064000Y031167*
X064167Y031200D02*
X064300D01*
Y031167*
X064167Y031033*
Y031000*
X065635Y013765D02*
Y013565D01*
X065535*
X065502Y013598*
Y013665*
X065535Y013698*
X065635*
X065435Y013765D02*
X065368D01*
X065402*
Y013565*
X065435Y013598*
X059949Y022367D02*
X059915Y022400D01*
X059849*
X059815Y022367*
Y022233*
X059849Y022200*
X059915*
X059949Y022233*
X060115Y022200D02*
Y022400D01*
X060015Y022300*
X060149*
X059983Y023117D02*
X059950Y023150D01*
X059883*
X059850Y023117*
Y022983*
X059883Y022950*
X059950*
X059983Y022983*
X060050Y023117D02*
X060083Y023150D01*
X060150*
X060183Y023117*
Y023083*
X060150Y023050*
X060117*
X060150*
X060183Y023017*
Y022983*
X060150Y022950*
X060083*
X060050Y022983*
G54D30*
X060435Y031602D02*
X060697D01*
X060566Y031733D02*
Y031470D01*
X060435Y033852D02*
X060697D01*
X060566Y033983D02*
Y033720D01*
M02*