%FSDAX24Y24*%
%MOIN*%
%SFA1B1*%

%IPPOS*%
%ADD10C,0.008000*%
%ADD14C,0.010000*%
%ADD18R,0.053100X0.053100*%
%ADD19C,0.053100*%
%ADD20R,0.059100X0.059100*%
%ADD21C,0.059100*%
%ADD22C,0.078700*%
%ADD23C,0.098400*%
%ADD24C,0.030000*%
%ADD25C,0.078700*%
%ADD26C,0.030000*%
%LNde-270124-1*%
%LPD*%
G54D10*
X059896Y020312D02*
D01*
X059894Y020349*
X059890Y020386*
X059884Y020423*
X059875Y020459*
X059863Y020494*
X059849Y020529*
X059833Y020562*
X059814Y020594*
X059794Y020625*
X059771Y020655*
X059746Y020682*
X059719Y020708*
X059690Y020732*
X059660Y020754*
X059629Y020774*
X059596Y020791*
X059562Y020807*
X059527Y020819*
X059491Y020830*
X059454Y020837*
X059417Y020843*
X059380Y020845*
X059343*
X059306Y020843*
X059269Y020837*
X059232Y020830*
X059196Y020819*
X059161Y020807*
X059127Y020791*
X059095Y020774*
X059063Y020754*
X059033Y020732*
X059004Y020708*
X058977Y020682*
X058952Y020655*
X058929Y020625*
X058909Y020594*
X058890Y020562*
X058890Y020561*
Y020063D02*
D01*
X058908Y020030*
X058929Y019999*
X058952Y019970*
X058976Y019942*
X059003Y019916*
X059032Y019892*
X059062Y019870*
X059093Y019850*
X059126Y019833*
X059160Y019817*
X059195Y019805*
X059231Y019794*
X059267Y019786*
X059304Y019781*
X059341Y019778*
X059378Y019778*
X059416Y019781*
X059452Y019786*
X059489Y019793*
X059525Y019803*
X059560Y019816*
X059594Y019831*
X059627Y019848*
X059658Y019868*
X059689Y019890*
X059717Y019914*
X059744Y019940*
X059769Y019967*
X059792Y019996*
X059813Y020027*
X059832Y020059*
X059848Y020093*
X059862Y020127*
X059874Y020163*
X059883Y020199*
X059890Y020236*
X059894Y020273*
X059895Y020310*
X059896Y020312*
X061019Y020415D02*
D01*
X061005Y020429*
X060990Y020443*
X060974Y020456*
X060958Y020468*
X060940Y020478*
X060922Y020487*
X060904Y020495*
X060885Y020502*
X060865Y020507*
X060845Y020511*
X060825Y020513*
X060805Y020514*
X060785Y020514*
X060764Y020512*
X060744Y020509*
X060725Y020505*
X060705Y020499*
X060686Y020491*
X060668Y020483*
X060650Y020473*
X060633Y020462*
X060617Y020450*
X060602Y020437*
X060588Y020422*
X060574Y020407*
X060562Y020391*
X060551Y020374*
X060541Y020356*
X060533Y020338*
X060525Y020319*
X060520Y020300*
X060515Y020280*
X060512Y020260*
X060510Y020240*
X060510Y020220*
X060511Y020200*
X060513Y020179*
X060517Y020160*
X060522Y020140*
X060529Y020121*
X060537Y020102*
X060546Y020084*
X060556Y020067*
X060568Y020050*
X060581Y020035*
X060594Y020020*
X060609Y020006*
X060625Y019993*
X060641Y019981*
X060659Y019971*
X060677Y019962*
X060695Y019954*
X060714Y019947*
X060734Y019942*
X060754Y019938*
X060774Y019936*
X060794Y019935*
X060814Y019935*
X060835Y019937*
X060855Y019940*
X060874Y019944*
X060894Y019950*
X060913Y019958*
X060931Y019966*
X060949Y019976*
X060966Y019987*
X060982Y019999*
X060997Y020012*
X061011Y020027*
X061019Y020035*
Y021415D02*
D01*
X061005Y021429*
X060990Y021443*
X060974Y021456*
X060958Y021468*
X060940Y021478*
X060922Y021487*
X060904Y021495*
X060885Y021502*
X060865Y021507*
X060845Y021511*
X060825Y021513*
X060805Y021514*
X060785Y021514*
X060764Y021512*
X060744Y021509*
X060725Y021505*
X060705Y021499*
X060686Y021491*
X060668Y021483*
X060650Y021473*
X060633Y021462*
X060617Y021450*
X060602Y021437*
X060588Y021422*
X060574Y021407*
X060562Y021391*
X060551Y021374*
X060541Y021356*
X060533Y021338*
X060525Y021319*
X060520Y021300*
X060515Y021280*
X060512Y021260*
X060510Y021240*
X060510Y021220*
X060511Y021200*
X060513Y021179*
X060517Y021160*
X060522Y021140*
X060529Y021121*
X060537Y021102*
X060546Y021084*
X060556Y021067*
X060568Y021050*
X060581Y021035*
X060594Y021020*
X060609Y021006*
X060625Y020993*
X060641Y020981*
X060659Y020971*
X060677Y020962*
X060695Y020954*
X060714Y020947*
X060734Y020942*
X060754Y020938*
X060774Y020936*
X060794Y020935*
X060814Y020935*
X060835Y020937*
X060855Y020940*
X060874Y020944*
X060894Y020950*
X060913Y020958*
X060931Y020966*
X060949Y020976*
X060966Y020987*
X060982Y020999*
X060997Y021012*
X061011Y021027*
X061019Y021035*
X060653Y022475D02*
D01*
X060635Y022464*
X060619Y022452*
X060604Y022438*
X060589Y022424*
X060576Y022409*
X060564Y022393*
X060552Y022376*
X060542Y022359*
X060534Y022340*
X060526Y022322*
X060520Y022302*
X060515Y022283*
X060512Y022263*
X060510Y022242*
X060509Y022222*
X060510Y022202*
X060513Y022182*
X060516Y022162*
X060521Y022142*
X060528Y022123*
X060536Y022104*
X060545Y022086*
X060555Y022069*
X060566Y022052*
X060579Y022036*
X060592Y022021*
X060607Y022007*
X060623Y021995*
X060639Y021983*
X060656Y021972*
X060674Y021963*
X060693Y021955*
X060712Y021948*
X060732Y021943*
X060751Y021938*
X060771Y021936*
X060792Y021935*
X060812Y021935*
X060832Y021936*
X060852Y021939*
X060872Y021944*
X060891Y021949*
X060910Y021956*
X060929Y021965*
X060947Y021975*
X060964Y021985*
X060980Y021997*
X060995Y022011*
X061010Y022025*
X061019Y022035*
X060653Y022975D02*
D01*
X060635Y022964*
X060619Y022952*
X060604Y022938*
X060589Y022924*
X060576Y022909*
X060564Y022893*
X060552Y022876*
X060542Y022859*
X060534Y022840*
X060526Y022822*
X060520Y022802*
X060515Y022783*
X060512Y022763*
X060510Y022742*
X060509Y022722*
X060510Y022702*
X060513Y022682*
X060516Y022662*
X060521Y022642*
X060528Y022623*
X060536Y022604*
X060545Y022586*
X060555Y022569*
X060566Y022552*
X060579Y022536*
X060592Y022521*
X060607Y022507*
X060623Y022495*
X060639Y022483*
X060653Y022475*
X061019Y023415D02*
D01*
X061005Y023429*
X060990Y023443*
X060974Y023456*
X060958Y023468*
X060940Y023478*
X060922Y023487*
X060904Y023495*
X060885Y023502*
X060865Y023507*
X060845Y023511*
X060825Y023513*
X060805Y023514*
X060785Y023514*
X060764Y023512*
X060744Y023509*
X060725Y023505*
X060705Y023499*
X060686Y023491*
X060668Y023483*
X060650Y023473*
X060633Y023462*
X060617Y023450*
X060602Y023437*
X060588Y023422*
X060574Y023407*
X060562Y023391*
X060551Y023374*
X060541Y023356*
X060533Y023338*
X060525Y023319*
X060520Y023300*
X060515Y023280*
X060512Y023260*
X060510Y023240*
X060510Y023220*
X060511Y023200*
X060513Y023179*
X060517Y023160*
X060522Y023140*
X060529Y023121*
X060537Y023102*
X060546Y023084*
X060556Y023067*
X060568Y023050*
X060581Y023035*
X060594Y023020*
X060609Y023006*
X060625Y022993*
X060641Y022981*
X060653Y022975*
X061019Y022915D02*
D01*
X061005Y022929*
X060990Y022943*
X060974Y022956*
X060958Y022968*
X060947Y022975*
D01*
X060964Y022985*
X060980Y022997*
X060995Y023011*
X061010Y023025*
X061019Y023035*
X061150Y024340D02*
D01*
X061129Y024339*
X061109Y024337*
X061089Y024333*
X061070Y024328*
X061050Y024322*
X061032Y024314*
X061013Y024306*
X060996Y024295*
X060979Y024284*
X060963Y024272*
X060948Y024258*
X060934Y024244*
X060921Y024228*
X060909Y024212*
X060898Y024195*
X060889Y024177*
X060881Y024158*
X060874Y024139*
X060868Y024120*
X060864Y024100*
X060861Y024080*
X060860Y024060*
Y024039*
X060861Y024019*
X060864Y023999*
X060868Y023979*
X060874Y023960*
X060881Y023941*
X060889Y023922*
X060898Y023905*
X060909Y023887*
X060921Y023871*
X060934Y023855*
X060948Y023841*
X060963Y023827*
X060979Y023815*
X060996Y023804*
X061013Y023793*
X061032Y023785*
X061050Y023777*
X061070Y023771*
X061089Y023766*
X061109Y023762*
X061129Y023760*
X061150Y023760*
Y024340D02*
D01*
X061129Y024339*
X061109Y024337*
X061089Y024333*
X061070Y024328*
X061050Y024322*
X061032Y024314*
X061013Y024306*
X060996Y024295*
X060979Y024284*
X060963Y024272*
X060948Y024258*
X060934Y024244*
X060921Y024228*
X060909Y024212*
X060898Y024195*
X060889Y024177*
X060881Y024158*
X060874Y024139*
X060868Y024120*
X060864Y024100*
X060861Y024080*
X060860Y024060*
Y024039*
X060861Y024019*
X060864Y023999*
X060868Y023979*
X060874Y023960*
X060881Y023941*
X060889Y023922*
X060898Y023905*
X060909Y023887*
X060921Y023871*
X060934Y023855*
X060948Y023841*
X060963Y023827*
X060979Y023815*
X060996Y023804*
X061013Y023793*
X061032Y023785*
X061050Y023777*
X061070Y023771*
X061089Y023766*
X061109Y023762*
X061129Y023760*
X061150Y023760*
X059567Y023857D02*
D01*
X059580Y023871*
X059593Y023887*
X059605Y023904*
X059615Y023921*
X059624Y023939*
X059632Y023958*
X059639Y023977*
X059644Y023996*
X059648Y024016*
X059650Y024036*
X059651Y024056*
X059652Y024062*
X059567Y023857D02*
D01*
X059580Y023871*
X059593Y023887*
X059605Y023904*
X059615Y023921*
X059624Y023939*
X059632Y023958*
X059639Y023977*
X059644Y023996*
X059648Y024016*
X059650Y024036*
X059651Y024056*
X059652Y024062*
X059810Y025378D02*
D01*
X059788Y025408*
X059765Y025437*
X059739Y025464*
X059712Y025490*
X059683Y025513*
X059653Y025535*
X059621Y025554*
X059588Y025571*
X059553Y025585*
X059518Y025598*
X059482Y025607*
X059446Y025614*
X059409Y025619*
X059372Y025621*
X059334Y025620*
X059297Y025617*
X059260Y025612*
X059250Y025610*
X059652Y024640D02*
D01*
X059682Y024661*
X059711Y024684*
X059738Y024710*
X059764Y024737*
X059787Y024766*
X059809Y024796*
X059810Y024798*
X059410Y027569D02*
D01*
X059395Y027555*
X059381Y027540*
X059368Y027524*
X059356Y027508*
X059346Y027490*
X059337Y027472*
X059329Y027454*
X059322Y027435*
X059317Y027415*
X059313Y027395*
X059311Y027375*
X059310Y027355*
X059310Y027335*
X059312Y027314*
X059315Y027294*
X059319Y027275*
X059325Y027255*
X059333Y027236*
X059341Y027218*
X059351Y027200*
X059362Y027183*
X059374Y027167*
X059387Y027152*
X059402Y027138*
X059417Y027124*
X059433Y027112*
X059450Y027101*
X059468Y027091*
X059486Y027083*
X059505Y027075*
X059524Y027070*
X059544Y027065*
X059564Y027062*
X059584Y027060*
X059604Y027060*
X059624Y027061*
X059645Y027063*
X059664Y027067*
X059684Y027072*
X059703Y027079*
X059722Y027087*
X059740Y027096*
X059757Y027106*
X059774Y027118*
X059790Y027131*
X059804Y027144*
X059818Y027159*
X059831Y027175*
X059843Y027191*
X059853Y027209*
X059862Y027227*
X059870Y027245*
X059877Y027264*
X059882Y027284*
X059886Y027304*
X059888Y027324*
X059889Y027344*
X059890Y027350*
D01*
X059889Y027370*
X059887Y027390*
X059883Y027410*
X059878Y027429*
X059872Y027449*
X059864Y027467*
X059856Y027486*
X059845Y027503*
X059834Y027520*
X059822Y027536*
X059808Y027551*
X059794Y027565*
X059790Y027569*
X060490Y027550D02*
D01*
X060476Y027534*
X060464Y027518*
X060453Y027501*
X060443Y027484*
X060434Y027466*
X060426Y027447*
X060420Y027428*
X060415Y027408*
X060412Y027388*
X060410Y027368*
X060410Y027347*
X060410Y027327*
X060413Y027307*
X060416Y027287*
X060421Y027268*
X060428Y027248*
X060435Y027230*
X060444Y027212*
X060455Y027194*
X060466Y027177*
X060479Y027162*
X060490Y027150*
Y027950D02*
D01*
X060476Y027934*
X060464Y027918*
X060453Y027901*
X060443Y027884*
X060434Y027866*
X060426Y027847*
X060420Y027828*
X060415Y027808*
X060412Y027788*
X060410Y027768*
X060410Y027747*
X060410Y027727*
X060413Y027707*
X060416Y027687*
X060421Y027668*
X060428Y027648*
X060435Y027630*
X060444Y027612*
X060455Y027594*
X060466Y027577*
X060479Y027562*
X060490Y027550*
Y027150D02*
D01*
X060476Y027134*
X060464Y027118*
X060453Y027101*
X060443Y027084*
X060434Y027066*
X060426Y027047*
X060420Y027028*
X060415Y027008*
X060412Y026988*
X060410Y026968*
X060410Y026947*
X060410Y026927*
X060413Y026907*
X060416Y026887*
X060421Y026868*
X060428Y026848*
X060435Y026830*
X060444Y026812*
X060455Y026794*
X060466Y026777*
X060479Y026762*
X060492Y026747*
X060507Y026733*
X060523Y026720*
X060539Y026708*
X060556Y026697*
X060574Y026688*
X060593Y026680*
X060612Y026673*
X060631Y026668*
X060651Y026664*
X060671Y026661*
X060691Y026660*
X060712Y026660*
X060732Y026661*
X060752Y026664*
X060772Y026669*
X060791Y026674*
X060810Y026681*
X060828Y026690*
X060846Y026699*
X060863Y026710*
X060880Y026722*
X060895Y026735*
X060910Y026750*
X060919Y026760*
Y028340D02*
D01*
X060905Y028354*
X060890Y028368*
X060874Y028381*
X060858Y028393*
X060840Y028403*
X060822Y028412*
X060804Y028420*
X060785Y028427*
X060765Y028432*
X060745Y028436*
X060725Y028438*
X060705Y028439*
X060685Y028439*
X060664Y028437*
X060644Y028434*
X060625Y028430*
X060605Y028424*
X060586Y028416*
X060568Y028408*
X060550Y028398*
X060533Y028387*
X060517Y028375*
X060502Y028362*
X060488Y028347*
X060474Y028332*
X060462Y028316*
X060451Y028299*
X060441Y028281*
X060433Y028263*
X060425Y028244*
X060420Y028225*
X060415Y028205*
X060412Y028185*
X060410Y028165*
X060410Y028145*
X060411Y028125*
X060413Y028104*
X060417Y028085*
X060422Y028065*
X060429Y028046*
X060437Y028027*
X060446Y028009*
X060456Y027992*
X060468Y027975*
X060481Y027960*
X060490Y027950*
X061811Y030151D02*
D01*
X061824Y030165*
X061837Y030181*
X061849Y030198*
X061859Y030215*
X061868Y030233*
X061876Y030252*
X061883Y030271*
X061888Y030290*
X061892Y030310*
X061894Y030330*
X061895Y030350*
X061896Y030356*
X061811Y030151D02*
D01*
X061824Y030165*
X061837Y030181*
X061849Y030198*
X061859Y030215*
X061868Y030233*
X061876Y030252*
X061883Y030271*
X061888Y030290*
X061892Y030310*
X061894Y030330*
X061895Y030350*
X061896Y030356*
Y031296D02*
D01*
X061905Y031298*
X061914Y031300*
X061924Y031304*
X061933Y031307*
X061941Y031312*
X061950Y031317*
X061957Y031323*
X061965Y031329*
X061972Y031336*
X061979Y031343*
X061985Y031351*
X061990Y031359*
X061995Y031367*
X061999Y031376*
X062003Y031385*
X062006Y031395*
X062008Y031404*
X062010Y031414*
X062011Y031423*
X062012Y031433*
X062012Y031434*
Y031966D02*
D01*
X062011Y031975*
X062010Y031985*
X062008Y031995*
X062006Y032004*
X062003Y032013*
X061999Y032022*
X061995Y032031*
X061990Y032040*
X061985Y032048*
X061979Y032055*
X061972Y032063*
X061965Y032070*
X061958Y032076*
X061950Y032082*
X061942Y032087*
X061933Y032091*
X061924Y032095*
X061915Y032099*
X061905Y032101*
X061896Y032103*
X061886Y032105*
X061876Y032105*
X061872Y032106*
Y033544D02*
D01*
X061881Y033544*
X061891Y033545*
X061901Y033547*
X061910Y033549*
X061919Y033552*
X061928Y033556*
X061937Y033560*
X061946Y033565*
X061954Y033570*
X061961Y033576*
X061969Y033583*
X061976Y033590*
X061982Y033597*
X061988Y033605*
X061993Y033614*
X061997Y033622*
X062001Y033631*
X062005Y033640*
X062007Y033650*
X062009Y033659*
X062011Y033669*
X062011Y033679*
X062012Y033684*
Y034216D02*
D01*
X062011Y034225*
X062010Y034235*
X062008Y034245*
X062006Y034254*
X062003Y034263*
X061999Y034272*
X061995Y034281*
X061990Y034290*
X061985Y034298*
X061979Y034305*
X061972Y034313*
X061965Y034320*
X061958Y034326*
X061950Y034332*
X061942Y034337*
X061933Y034341*
X061924Y034345*
X061915Y034349*
X061905Y034351*
X061896Y034353*
X061886Y034355*
X061876Y034355*
X061872Y034356*
X062788Y024798D02*
D01*
X062808Y024798*
X062828Y024800*
X062848Y024804*
X062867Y024809*
X062887Y024815*
X062905Y024823*
X062924Y024831*
X062941Y024842*
X062958Y024853*
X062974Y024865*
X062989Y024879*
X062993Y024883*
X062788Y024798D02*
D01*
X062808Y024798*
X062828Y024800*
X062848Y024804*
X062867Y024809*
X062887Y024815*
X062905Y024823*
X062924Y024831*
X062941Y024842*
X062958Y024853*
X062974Y024865*
X062989Y024879*
X062993Y024883*
X062884Y027084D02*
D01*
X062874Y027093*
X062864Y027101*
X062853Y027108*
X062841Y027115*
X062830Y027121*
X062817Y027126*
X062805Y027131*
X062792Y027134*
X062779Y027137*
X062766Y027138*
X062753Y027139*
X062750Y027140*
X062885Y027084D02*
D01*
X062875Y027093*
X062865Y027101*
X062854Y027109*
X062842Y027116*
X062831Y027122*
X062818Y027127*
X062806Y027131*
X062793Y027135*
X062780Y027137*
X062767Y027139*
X062754Y027140*
X062750Y027140*
X063445Y025987D02*
D01*
X063424Y025989*
X063404Y025990*
X063384Y025990*
X063364Y025988*
X063344Y025985*
X063324Y025980*
X063304Y025974*
X063286Y025967*
X063267Y025958*
X063249Y025948*
X063233Y025937*
X063216Y025925*
X063201Y025912*
X063195Y025905*
X062012Y031562D02*
D01*
X062022Y031535*
X062034Y031510*
X062049Y031485*
X062064Y031462*
X062082Y031439*
X062101Y031418*
X062121Y031398*
X062143Y031380*
X062166Y031363*
X062190Y031348*
X062215Y031335*
X062240Y031323*
X062267Y031314*
X062294Y031306*
X062322Y031300*
X062350Y031296*
X062378Y031294*
X062407Y031294*
X062435Y031295*
X062463Y031299*
X062491Y031305*
X062518Y031313*
X062545Y031323*
X062571Y031334*
X062596Y031347*
X062620Y031362*
X062643Y031379*
X062665Y031397*
X062685Y031417*
X062704Y031438*
X062722Y031460*
X062737Y031483*
X062752Y031508*
X062764Y031533*
X062775Y031560*
X062784Y031587*
X062791Y031614*
X062796Y031642*
X062799Y031670*
X062800Y031699*
X062799Y031700*
D01*
X062798Y031728*
X062795Y031756*
X062790Y031784*
X062783Y031811*
X062774Y031838*
X062763Y031865*
X062751Y031890*
X062737Y031915*
X062721Y031938*
X062704Y031960*
X062685Y031982*
X062664Y032001*
X062642Y032019*
X062620Y032036*
X062596Y032051*
X062570Y032064*
X062545Y032076*
X062518Y032086*
X062491Y032093*
X062463Y032099*
X062435Y032103*
X062407Y032105*
X062378*
X062350Y032103*
X062322Y032099*
X062294Y032093*
X062267Y032086*
X062240Y032076*
X062215Y032064*
X062190Y032051*
X062165Y032036*
X062143Y032019*
X062121Y032001*
X062100Y031982*
X062081Y031960*
X062064Y031938*
X062048Y031915*
X062034Y031890*
X062022Y031865*
X062011Y031838*
X062012Y031838*
Y033812D02*
D01*
X062022Y033785*
X062034Y033760*
X062049Y033735*
X062064Y033712*
X062082Y033689*
X062101Y033668*
X062121Y033648*
X062143Y033630*
X062166Y033613*
X062190Y033598*
X062215Y033585*
X062240Y033573*
X062267Y033564*
X062294Y033556*
X062322Y033550*
X062350Y033546*
X062378Y033544*
X062407Y033544*
X062435Y033545*
X062463Y033549*
X062491Y033555*
X062518Y033563*
X062545Y033573*
X062571Y033584*
X062596Y033597*
X062620Y033612*
X062643Y033629*
X062665Y033647*
X062685Y033667*
X062704Y033688*
X062722Y033710*
X062737Y033733*
X062752Y033758*
X062764Y033783*
X062775Y033810*
X062784Y033837*
X062791Y033864*
X062796Y033892*
X062799Y033920*
X062800Y033949*
X062799Y033950*
D01*
X062798Y033978*
X062795Y034006*
X062790Y034034*
X062783Y034061*
X062774Y034088*
X062763Y034115*
X062751Y034140*
X062737Y034165*
X062721Y034188*
X062704Y034210*
X062685Y034232*
X062664Y034251*
X062642Y034269*
X062620Y034286*
X062596Y034301*
X062570Y034314*
X062545Y034326*
X062518Y034336*
X062491Y034343*
X062463Y034349*
X062435Y034353*
X062407Y034355*
X062378*
X062350Y034353*
X062322Y034349*
X062294Y034343*
X062267Y034336*
X062240Y034326*
X062215Y034314*
X062190Y034301*
X062165Y034286*
X062143Y034269*
X062121Y034251*
X062100Y034232*
X062081Y034210*
X062064Y034188*
X062048Y034165*
X062034Y034140*
X062022Y034115*
X062011Y034088*
X062012Y034088*
X064050Y018785D02*
D01*
X064070Y018785*
X064090Y018787*
X064110Y018791*
X064129Y018796*
X064149Y018802*
X064167Y018810*
X064186Y018818*
X064203Y018829*
X064220Y018840*
X064236Y018852*
X064251Y018866*
X064265Y018880*
X064278Y018896*
X064290Y018912*
X064301Y018930*
X064310Y018947*
X064318Y018966*
X064325Y018985*
X064331Y019004*
X064335Y019024*
X064338Y019044*
X064339Y019064*
X064340Y019075*
X064050Y018785D02*
D01*
X064070Y018785*
X064090Y018787*
X064110Y018791*
X064129Y018796*
X064149Y018802*
X064167Y018810*
X064186Y018818*
X064203Y018829*
X064220Y018840*
X064236Y018852*
X064251Y018866*
X064265Y018880*
X064278Y018896*
X064290Y018912*
X064301Y018930*
X064310Y018947*
X064318Y018966*
X064325Y018985*
X064331Y019004*
X064335Y019024*
X064338Y019044*
X064339Y019064*
X064340Y019075*
D01*
X064339Y019095*
X064337Y019115*
X064333Y019135*
X064328Y019154*
X064322Y019174*
X064314Y019192*
X064306Y019211*
X064295Y019228*
X064284Y019245*
X064272Y019261*
X064258Y019276*
X064244Y019290*
X064228Y019303*
X064212Y019315*
X064195Y019326*
X064177Y019335*
X064158Y019343*
X064139Y019350*
X064120Y019356*
X064100Y019360*
X064080Y019363*
X064060Y019364*
X064050Y019365*
X064340Y019075D02*
D01*
X064339Y019095*
X064337Y019115*
X064333Y019135*
X064328Y019154*
X064322Y019174*
X064314Y019192*
X064306Y019211*
X064295Y019228*
X064284Y019245*
X064272Y019261*
X064258Y019276*
X064244Y019290*
X064228Y019303*
X064212Y019315*
X064195Y019326*
X064177Y019335*
X064158Y019343*
X064139Y019350*
X064120Y019356*
X064100Y019360*
X064080Y019363*
X064060Y019364*
X064050Y019365*
X064609Y020359D02*
D01*
X064599Y020368*
X064589Y020376*
X064578Y020383*
X064566Y020390*
X064555Y020396*
X064542Y020401*
X064530Y020406*
X064517Y020409*
X064504Y020412*
X064491Y020413*
X064478Y020414*
X064475Y020415*
X064610Y020359D02*
D01*
X064600Y020368*
X064590Y020376*
X064579Y020384*
X064567Y020391*
X064556Y020397*
X064543Y020402*
X064531Y020406*
X064518Y020410*
X064505Y020412*
X064492Y020414*
X064479Y020415*
X064475Y020415*
X064609Y021359D02*
D01*
X064599Y021368*
X064589Y021376*
X064578Y021383*
X064566Y021390*
X064555Y021396*
X064542Y021401*
X064530Y021406*
X064517Y021409*
X064504Y021412*
X064491Y021413*
X064478Y021414*
X064475Y021415*
X064375Y023035D02*
D01*
X064388Y023035*
X064401Y023036*
X064414Y023039*
X064427Y023042*
X064439Y023046*
X064452Y023051*
X064464Y023057*
X064475Y023063*
X064486Y023071*
X064497Y023079*
X064506Y023088*
X064509Y023091*
X064375Y023035D02*
D01*
X064388Y023035*
X064401Y023036*
X064414Y023039*
X064427Y023042*
X064439Y023046*
X064452Y023051*
X064464Y023057*
X064475Y023063*
X064486Y023071*
X064497Y023079*
X064506Y023088*
X064510Y023091*
X063850Y023760D02*
D01*
X063870Y023760*
X063890Y023762*
X063910Y023766*
X063929Y023771*
X063949Y023777*
X063967Y023785*
X063986Y023793*
X064003Y023804*
X064020Y023815*
X064036Y023827*
X064051Y023841*
X064065Y023855*
X064078Y023871*
X064090Y023887*
X064101Y023905*
X064110Y023922*
X064118Y023941*
X064125Y023960*
X064131Y023979*
X064135Y023999*
X064138Y024019*
X064139Y024039*
X064140Y024050*
X063850Y023760D02*
D01*
X063870Y023760*
X063890Y023762*
X063910Y023766*
X063929Y023771*
X063949Y023777*
X063967Y023785*
X063986Y023793*
X064003Y023804*
X064020Y023815*
X064036Y023827*
X064051Y023841*
X064065Y023855*
X064078Y023871*
X064090Y023887*
X064101Y023905*
X064110Y023922*
X064118Y023941*
X064125Y023960*
X064131Y023979*
X064135Y023999*
X064138Y024019*
X064139Y024039*
X064140Y024050*
X064610Y021359D02*
D01*
X064600Y021368*
X064590Y021376*
X064579Y021384*
X064567Y021391*
X064556Y021397*
X064543Y021402*
X064531Y021406*
X064518Y021410*
X064505Y021412*
X064492Y021414*
X064479Y021415*
X064475Y021415*
X064560Y022859D02*
D01*
X064550Y022868*
X064540Y022876*
X064529Y022884*
X064517Y022891*
X064506Y022897*
X064493Y022902*
X064481Y022906*
X064468Y022910*
X064455Y022912*
X064442Y022914*
X064429Y022915*
X064425Y022915*
X064559Y022859D02*
D01*
X064549Y022868*
X064539Y022876*
X064528Y022883*
X064516Y022890*
X064505Y022896*
X064492Y022901*
X064480Y022906*
X064467Y022909*
X064454Y022912*
X064441Y022913*
X064428Y022914*
X064425Y022915*
X064700Y023740D02*
D01*
X064686Y023739*
X064673Y023738*
X064660Y023735*
X064647Y023732*
X064635Y023728*
X064622Y023723*
X064610Y023717*
X064599Y023711*
X064588Y023703*
X064577Y023695*
X064568Y023686*
X064565Y023684*
X064700Y023740D02*
D01*
X064686Y023739*
X064673Y023738*
X064660Y023735*
X064647Y023732*
X064635Y023728*
X064622Y023723*
X064610Y023717*
X064599Y023711*
X064588Y023703*
X064577Y023695*
X064568Y023686*
X064566Y023684*
X065585Y014550D02*
D01*
X065583Y014580*
X065580Y014610*
X065575Y014640*
X065568Y014669*
X065558Y014698*
X065547Y014726*
X065534Y014754*
X065518Y014780*
X065501Y014805*
X065483Y014829*
X065462Y014852*
X065441Y014873*
X065417Y014892*
X065393Y014910*
X065367Y014926*
X065340Y014940*
X065312Y014953*
X065284Y014963*
X065255Y014972*
X065225Y014978*
X065195Y014982*
X065165Y014984*
X065134*
X065104Y014982*
X065074Y014978*
X065044Y014972*
X065015Y014963*
X064987Y014953*
X064959Y014940*
X064932Y014926*
X064906Y014910*
X064882Y014892*
X064858Y014873*
X064837Y014852*
X064816Y014829*
X064798Y014805*
X064781Y014780*
X064765Y014754*
X064752Y014726*
X064741Y014698*
X064731Y014669*
X064724Y014640*
X064719Y014610*
X064716Y014580*
X064715Y014550*
X064716Y014519*
X064719Y014489*
X064724Y014459*
X064731Y014430*
X064741Y014401*
X064752Y014373*
X064765Y014345*
X064781Y014319*
X064798Y014294*
X064816Y014270*
X064837Y014247*
X064858Y014226*
X064882Y014207*
X064906Y014189*
X064932Y014173*
X064959Y014159*
X064987Y014146*
X065015Y014136*
X065044Y014127*
X065074Y014121*
X065104Y014117*
X065134Y014115*
X065165*
X065195Y014117*
X065225Y014121*
X065255Y014127*
X065284Y014136*
X065312Y014146*
X065340Y014159*
X065367Y014173*
X065393Y014189*
X065417Y014207*
X065441Y014226*
X065462Y014247*
X065483Y014270*
X065501Y014294*
X065518Y014319*
X065534Y014345*
X065547Y014373*
X065558Y014401*
X065568Y014430*
X065575Y014459*
X065580Y014489*
X065583Y014519*
X065585Y014550*
Y015550D02*
D01*
X065583Y015580*
X065580Y015610*
X065575Y015640*
X065568Y015669*
X065558Y015698*
X065547Y015726*
X065534Y015754*
X065518Y015780*
X065501Y015805*
X065483Y015829*
X065462Y015852*
X065441Y015873*
X065417Y015892*
X065393Y015910*
X065367Y015926*
X065340Y015940*
X065312Y015953*
X065284Y015963*
X065255Y015972*
X065225Y015978*
X065195Y015982*
X065165Y015984*
X065134*
X065104Y015982*
X065074Y015978*
X065044Y015972*
X065015Y015963*
X064987Y015953*
X064959Y015940*
X064932Y015926*
X064906Y015910*
X064882Y015892*
X064858Y015873*
X064837Y015852*
X064816Y015829*
X064798Y015805*
X064781Y015780*
X064765Y015754*
X064752Y015726*
X064741Y015698*
X064731Y015669*
X064724Y015640*
X064719Y015610*
X064716Y015580*
X064715Y015550*
X064716Y015519*
X064719Y015489*
X064724Y015459*
X064731Y015430*
X064741Y015401*
X064752Y015373*
X064765Y015345*
X064781Y015319*
X064798Y015294*
X064816Y015270*
X064837Y015247*
X064858Y015226*
X064882Y015207*
X064906Y015189*
X064932Y015173*
X064959Y015159*
X064987Y015146*
X065015Y015136*
X065044Y015127*
X065074Y015121*
X065104Y015117*
X065134Y015115*
X065165*
X065195Y015117*
X065225Y015121*
X065255Y015127*
X065284Y015136*
X065312Y015146*
X065340Y015159*
X065367Y015173*
X065393Y015189*
X065417Y015207*
X065441Y015226*
X065462Y015247*
X065483Y015270*
X065501Y015294*
X065518Y015319*
X065534Y015345*
X065547Y015373*
X065558Y015401*
X065568Y015430*
X065575Y015459*
X065580Y015489*
X065583Y015519*
X065585Y015550*
Y016550D02*
D01*
X065583Y016580*
X065580Y016610*
X065575Y016640*
X065568Y016669*
X065558Y016698*
X065547Y016726*
X065534Y016754*
X065518Y016780*
X065501Y016805*
X065483Y016829*
X065462Y016852*
X065441Y016873*
X065417Y016892*
X065393Y016910*
X065367Y016926*
X065340Y016940*
X065312Y016953*
X065284Y016963*
X065255Y016972*
X065225Y016978*
X065195Y016982*
X065165Y016984*
X065134*
X065104Y016982*
X065074Y016978*
X065044Y016972*
X065015Y016963*
X064987Y016953*
X064959Y016940*
X064932Y016926*
X064906Y016910*
X064882Y016892*
X064858Y016873*
X064837Y016852*
X064816Y016829*
X064798Y016805*
X064781Y016780*
X064765Y016754*
X064752Y016726*
X064741Y016698*
X064731Y016669*
X064724Y016640*
X064719Y016610*
X064716Y016580*
X064715Y016550*
X064716Y016519*
X064719Y016489*
X064724Y016459*
X064731Y016430*
X064741Y016401*
X064752Y016373*
X064765Y016345*
X064781Y016319*
X064798Y016294*
X064816Y016270*
X064837Y016247*
X064858Y016226*
X064882Y016207*
X064906Y016189*
X064932Y016173*
X064959Y016159*
X064987Y016146*
X065015Y016136*
X065044Y016127*
X065074Y016121*
X065104Y016117*
X065134Y016115*
X065165*
X065195Y016117*
X065225Y016121*
X065255Y016127*
X065284Y016136*
X065312Y016146*
X065340Y016159*
X065367Y016173*
X065393Y016189*
X065417Y016207*
X065441Y016226*
X065462Y016247*
X065483Y016270*
X065501Y016294*
X065518Y016319*
X065534Y016345*
X065547Y016373*
X065558Y016401*
X065568Y016430*
X065575Y016459*
X065580Y016489*
X065583Y016519*
X065585Y016550*
Y017550D02*
D01*
X065583Y017580*
X065580Y017610*
X065575Y017640*
X065568Y017669*
X065558Y017698*
X065547Y017726*
X065534Y017754*
X065518Y017780*
X065501Y017805*
X065483Y017829*
X065462Y017852*
X065441Y017873*
X065417Y017892*
X065393Y017910*
X065367Y017926*
X065340Y017940*
X065312Y017953*
X065284Y017963*
X065255Y017972*
X065225Y017978*
X065195Y017982*
X065165Y017984*
X065134*
X065104Y017982*
X065074Y017978*
X065044Y017972*
X065015Y017963*
X064987Y017953*
X064959Y017940*
X064932Y017926*
X064906Y017910*
X064882Y017892*
X064858Y017873*
X064837Y017852*
X064816Y017829*
X064798Y017805*
X064781Y017780*
X064765Y017754*
X064752Y017726*
X064741Y017698*
X064731Y017669*
X064724Y017640*
X064719Y017610*
X064716Y017580*
X064715Y017550*
X064716Y017519*
X064719Y017489*
X064724Y017459*
X064731Y017430*
X064741Y017401*
X064752Y017373*
X064765Y017345*
X064781Y017319*
X064798Y017294*
X064816Y017270*
X064837Y017247*
X064858Y017226*
X064882Y017207*
X064906Y017189*
X064932Y017173*
X064959Y017159*
X064987Y017146*
X065015Y017136*
X065044Y017127*
X065074Y017121*
X065104Y017117*
X065134Y017115*
X065165*
X065195Y017117*
X065225Y017121*
X065255Y017127*
X065284Y017136*
X065312Y017146*
X065340Y017159*
X065367Y017173*
X065393Y017189*
X065417Y017207*
X065441Y017226*
X065462Y017247*
X065483Y017270*
X065501Y017294*
X065518Y017319*
X065534Y017345*
X065547Y017373*
X065558Y017401*
X065568Y017430*
X065575Y017459*
X065580Y017489*
X065583Y017519*
X065585Y017550*
Y018550D02*
D01*
X065583Y018580*
X065580Y018610*
X065575Y018640*
X065568Y018669*
X065558Y018698*
X065547Y018726*
X065534Y018754*
X065518Y018780*
X065501Y018805*
X065483Y018829*
X065462Y018852*
X065441Y018873*
X065417Y018892*
X065393Y018910*
X065367Y018926*
X065340Y018940*
X065312Y018953*
X065284Y018963*
X065255Y018972*
X065225Y018978*
X065195Y018982*
X065165Y018984*
X065134*
X065104Y018982*
X065074Y018978*
X065044Y018972*
X065015Y018963*
X064987Y018953*
X064959Y018940*
X064932Y018926*
X064906Y018910*
X064882Y018892*
X064858Y018873*
X064837Y018852*
X064816Y018829*
X064798Y018805*
X064781Y018780*
X064765Y018754*
X064752Y018726*
X064741Y018698*
X064731Y018669*
X064724Y018640*
X064719Y018610*
X064716Y018580*
X064715Y018550*
X064716Y018519*
X064719Y018489*
X064724Y018459*
X064731Y018430*
X064741Y018401*
X064752Y018373*
X064765Y018345*
X064781Y018319*
X064798Y018294*
X064816Y018270*
X064837Y018247*
X064858Y018226*
X064882Y018207*
X064906Y018189*
X064932Y018173*
X064959Y018159*
X064987Y018146*
X065015Y018136*
X065044Y018127*
X065074Y018121*
X065104Y018117*
X065134Y018115*
X065165*
X065195Y018117*
X065225Y018121*
X065255Y018127*
X065284Y018136*
X065312Y018146*
X065340Y018159*
X065367Y018173*
X065393Y018189*
X065417Y018207*
X065441Y018226*
X065462Y018247*
X065483Y018270*
X065501Y018294*
X065518Y018319*
X065534Y018345*
X065547Y018373*
X065558Y018401*
X065568Y018430*
X065575Y018459*
X065580Y018489*
X065583Y018519*
X065585Y018550*
X064739Y019693D02*
D01*
X064730Y019663*
X064723Y019634*
X064718Y019604*
X064715Y019574*
X064714Y019543*
X064716Y019513*
X064719Y019483*
X064725Y019453*
X064733Y019424*
X064743Y019395*
X064755Y019367*
X064768Y019340*
X064784Y019314*
X064801Y019289*
X064820Y019265*
X064841Y019243*
X064863Y019222*
X064886Y019203*
X064911Y019185*
X064937Y019170*
X064964Y019156*
X064992Y019144*
X065021Y019134*
X065050Y019126*
X065080Y019120*
X065110Y019116*
X065141Y019114*
X065171Y019115*
X065201Y019117*
X065231Y019122*
X065261Y019129*
X065290Y019138*
X065318Y019148*
X065346Y019161*
X065372Y019176*
X065398Y019192*
X065422Y019210*
X065445Y019230*
X065467Y019252*
X065487Y019275*
X065505Y019299*
X065522Y019324*
X065537Y019351*
X065550Y019378*
X065561Y019407*
X065569Y019436*
X065576Y019465*
X065581Y019495*
X065584Y019525*
X065585Y019550*
X064739Y020693D02*
D01*
X064730Y020663*
X064723Y020634*
X064718Y020604*
X064715Y020574*
X064714Y020543*
X064716Y020513*
X064719Y020483*
X064725Y020453*
X064733Y020424*
X064743Y020395*
X064755Y020367*
X064768Y020340*
X064784Y020314*
X064801Y020289*
X064820Y020265*
X064841Y020243*
X064863Y020222*
X064886Y020203*
X064911Y020185*
X064937Y020170*
X064964Y020156*
X064992Y020144*
X065021Y020134*
X065050Y020126*
X065080Y020120*
X065110Y020116*
X065141Y020114*
X065171Y020115*
X065201Y020117*
X065231Y020122*
X065261Y020129*
X065290Y020138*
X065318Y020148*
X065346Y020161*
X065372Y020176*
X065398Y020192*
X065422Y020210*
X065445Y020230*
X065467Y020252*
X065487Y020275*
X065505Y020299*
X065522Y020324*
X065537Y020351*
X065550Y020378*
X065561Y020407*
X065569Y020436*
X065576Y020465*
X065581Y020495*
X065584Y020525*
X065585Y020550*
Y019550D02*
D01*
X065583Y019580*
X065580Y019610*
X065575Y019640*
X065568Y019669*
X065558Y019698*
X065547Y019726*
X065534Y019754*
X065518Y019780*
X065501Y019805*
X065483Y019829*
X065462Y019852*
X065441Y019873*
X065417Y019892*
X065393Y019910*
X065367Y019926*
X065340Y019940*
X065312Y019953*
X065284Y019963*
X065255Y019972*
X065225Y019978*
X065195Y019982*
X065165Y019984*
X065134*
X065104Y019982*
X065074Y019978*
X065044Y019972*
X065015Y019963*
X065007Y019961*
X064739Y021693D02*
D01*
X064730Y021663*
X064723Y021634*
X064718Y021604*
X064715Y021574*
X064714Y021543*
X064716Y021513*
X064719Y021483*
X064725Y021453*
X064733Y021424*
X064743Y021395*
X064755Y021367*
X064768Y021340*
X064784Y021314*
X064801Y021289*
X064820Y021265*
X064841Y021243*
X064863Y021222*
X064886Y021203*
X064911Y021185*
X064937Y021170*
X064964Y021156*
X064992Y021144*
X065021Y021134*
X065050Y021126*
X065080Y021120*
X065110Y021116*
X065141Y021114*
X065171Y021115*
X065201Y021117*
X065231Y021122*
X065261Y021129*
X065290Y021138*
X065318Y021148*
X065346Y021161*
X065372Y021176*
X065398Y021192*
X065422Y021210*
X065445Y021230*
X065467Y021252*
X065487Y021275*
X065505Y021299*
X065522Y021324*
X065537Y021351*
X065550Y021378*
X065561Y021407*
X065569Y021436*
X065576Y021465*
X065581Y021495*
X065584Y021525*
X065585Y021550*
Y020550D02*
D01*
X065583Y020580*
X065580Y020610*
X065575Y020640*
X065568Y020669*
X065558Y020698*
X065547Y020726*
X065534Y020754*
X065518Y020780*
X065501Y020805*
X065483Y020829*
X065462Y020852*
X065441Y020873*
X065417Y020892*
X065393Y020910*
X065367Y020926*
X065340Y020940*
X065312Y020953*
X065284Y020963*
X065255Y020972*
X065225Y020978*
X065195Y020982*
X065165Y020984*
X065134*
X065104Y020982*
X065074Y020978*
X065044Y020972*
X065015Y020963*
X065007Y020961*
X065585Y021550D02*
D01*
X065583Y021580*
X065580Y021610*
X065575Y021640*
X065568Y021669*
X065558Y021698*
X065547Y021726*
X065534Y021754*
X065518Y021780*
X065501Y021805*
X065483Y021829*
X065462Y021852*
X065441Y021873*
X065417Y021892*
X065393Y021910*
X065367Y021926*
X065340Y021940*
X065312Y021953*
X065284Y021963*
X065255Y021972*
X065225Y021978*
X065195Y021982*
X065165Y021984*
X065134*
X065104Y021982*
X065074Y021978*
X065044Y021972*
X065015Y021963*
X065007Y021961*
X064758Y022360D02*
D01*
X064772Y022333*
X064788Y022307*
X064806Y022282*
X064825Y022259*
X064846Y022237*
X064869Y022216*
X064893Y022198*
X064918Y022181*
X064944Y022165*
X064971Y022152*
X065000Y022141*
X065028Y022131*
X065058Y022124*
X065088Y022118*
X065118Y022115*
X065148Y022114*
X065179Y022115*
X065209Y022118*
X065239Y022123*
X065269Y022130*
X065297Y022140*
X065326Y022151*
X065353Y022164*
X065379Y022180*
X065405Y022196*
X065429Y022215*
X065451Y022235*
X065473Y022257*
X065492Y022280*
X065510Y022305*
X065526Y022331*
X065541Y022358*
X065553Y022385*
X065563Y022414*
X065572Y022443*
X065578Y022473*
X065583Y022503*
X065585Y022533*
X065585Y022550*
D01*
X065583Y022580*
X065580Y022610*
X065575Y022640*
X065568Y022669*
X065558Y022698*
X065547Y022726*
X065534Y022754*
X065518Y022780*
X065501Y022805*
X065483Y022829*
X065462Y022852*
X065441Y022873*
X065417Y022892*
X065393Y022910*
X065367Y022926*
X065340Y022940*
X065312Y022953*
X065284Y022963*
X065255Y022972*
X065225Y022978*
X065195Y022982*
X065165Y022984*
X065134*
X065104Y022982*
X065074Y022978*
X065044Y022972*
X065015Y022963*
X064987Y022953*
X064959Y022940*
X064932Y022926*
X064906Y022910*
X064882Y022892*
X064858Y022873*
X064837Y022852*
X064816Y022829*
X064798Y022805*
X064781Y022780*
X064765Y022754*
X064758Y022740*
X064765Y023347D02*
D01*
X064780Y023320*
X064796Y023295*
X064815Y023271*
X064835Y023248*
X064857Y023227*
X064880Y023207*
X064905Y023190*
X064931Y023173*
X064957Y023159*
X064985Y023147*
X065014Y023136*
X065043Y023128*
X065072Y023121*
X065103Y023117*
X065133Y023115*
X065163Y023114*
X065193Y023116*
X065224Y023121*
X065253Y023127*
X065283Y023135*
X065311Y023145*
X065339Y023158*
X065366Y023172*
X065392Y023188*
X065416Y023206*
X065440Y023225*
X065462Y023246*
X065482Y023269*
X065501Y023292*
X065518Y023318*
X065533Y023344*
X065546Y023371*
X065558Y023399*
X065567Y023428*
X065575Y023458*
X065580Y023487*
X065584Y023518*
X065585Y023548*
X065585Y023550*
D01*
X065583Y023580*
X065580Y023610*
X065575Y023640*
X065568Y023669*
X065558Y023698*
X065547Y023726*
X065534Y023754*
X065518Y023780*
X065501Y023805*
X065483Y023829*
X065462Y023852*
X065441Y023873*
X065417Y023892*
X065393Y023910*
X065367Y023926*
X065340Y023940*
X065312Y023953*
X065284Y023963*
X065255Y023972*
X065225Y023978*
X065195Y023982*
X065165Y023984*
X065134*
X065104Y023982*
X065074Y023978*
X065044Y023972*
X065015Y023963*
X064987Y023953*
X064959Y023940*
X064932Y023926*
X064906Y023910*
X064882Y023892*
X064858Y023873*
X064837Y023852*
X064816Y023829*
X064798Y023805*
X064781Y023780*
X064765Y023754*
X064758Y023740*
X063605Y025495D02*
D01*
X063618Y025509*
X063631Y025525*
X063643Y025542*
X063653Y025559*
X063662Y025577*
X063670Y025596*
X063677Y025615*
X063682Y025634*
X063686Y025654*
X063688Y025674*
X063689Y025694*
X063690Y025700*
X063605Y025495D02*
D01*
X063618Y025509*
X063631Y025525*
X063643Y025542*
X063653Y025559*
X063662Y025577*
X063670Y025596*
X063677Y025615*
X063682Y025634*
X063686Y025654*
X063688Y025674*
X063689Y025694*
X063690Y025700*
X063445Y025987D02*
D01*
X063424Y025989*
X063404Y025990*
X063384Y025990*
X063364Y025988*
X063344Y025985*
X063324Y025980*
X063304Y025974*
X063286Y025967*
X063267Y025958*
X063249Y025948*
X063233Y025937*
X063216Y025925*
X063201Y025912*
X063195Y025905*
X063690Y025700D02*
D01*
X063689Y025720*
X063687Y025740*
X063687Y025745*
X063690Y025700D02*
D01*
X063689Y025720*
X063687Y025740*
X063687Y025745*
X064140Y024050D02*
D01*
X064139Y024070*
X064137Y024090*
X064133Y024110*
X064128Y024129*
X064122Y024149*
X064114Y024167*
X064106Y024186*
X064095Y024203*
X064084Y024220*
X064072Y024236*
X064058Y024251*
X064044Y024265*
X064028Y024278*
X064012Y024290*
X063995Y024301*
X063977Y024310*
X063958Y024318*
X063939Y024325*
X063920Y024331*
X063900Y024335*
X063880Y024338*
X063860Y024339*
X063850Y024340*
X064140Y024050D02*
D01*
X064139Y024070*
X064137Y024090*
X064133Y024110*
X064128Y024129*
X064122Y024149*
X064114Y024167*
X064106Y024186*
X064095Y024203*
X064084Y024220*
X064072Y024236*
X064058Y024251*
X064044Y024265*
X064028Y024278*
X064012Y024290*
X063995Y024301*
X063977Y024310*
X063958Y024318*
X063939Y024325*
X063920Y024331*
X063900Y024335*
X063880Y024338*
X063860Y024339*
X063850Y024340*
X063484Y027484D02*
D01*
X063474Y027493*
X063464Y027501*
X063453Y027508*
X063441Y027515*
X063430Y027521*
X063417Y027526*
X063405Y027531*
X063392Y027534*
X063379Y027537*
X063366Y027538*
X063353Y027539*
X063350Y027540*
X063485Y027484D02*
D01*
X063475Y027493*
X063465Y027501*
X063454Y027509*
X063442Y027516*
X063431Y027522*
X063418Y027527*
X063406Y027531*
X063393Y027535*
X063380Y027537*
X063367Y027539*
X063354Y027540*
X063350Y027540*
X064084Y027884D02*
D01*
X064074Y027893*
X064064Y027901*
X064053Y027908*
X064041Y027915*
X064030Y027921*
X064017Y027926*
X064005Y027931*
X063992Y027934*
X063979Y027937*
X063966Y027938*
X063953Y027939*
X063950Y027940*
X064085Y027884D02*
D01*
X064075Y027893*
X064065Y027901*
X064054Y027909*
X064042Y027916*
X064031Y027922*
X064018Y027927*
X064006Y027931*
X063993Y027935*
X063980Y027937*
X063967Y027939*
X063954Y027940*
X063950Y027940*
X063831Y029360D02*
D01*
X063844Y029345*
X063859Y029331*
X063875Y029318*
X063891Y029306*
X063909Y029296*
X063927Y029287*
X063945Y029279*
X063964Y029272*
X063984Y029267*
X064004Y029263*
X064024Y029261*
X064044Y029260*
X064064Y029260*
X064085Y029262*
X064105Y029265*
X064124Y029269*
X064144Y029275*
X064163Y029283*
X064181Y029291*
X064199Y029301*
X064216Y029312*
X064232Y029324*
X064247Y029337*
X064261Y029352*
X064275Y029367*
X064287Y029383*
X064298Y029400*
X064308Y029418*
X064316Y029436*
X064324Y029455*
X064329Y029474*
X064334Y029494*
X064337Y029514*
X064339Y029534*
X064340Y029550*
D01*
X064339Y029570*
X064337Y029590*
X064333Y029610*
X064328Y029629*
X064322Y029649*
X064314Y029667*
X064306Y029686*
X064295Y029703*
X064284Y029720*
X064272Y029736*
X064258Y029751*
X064244Y029765*
X064228Y029778*
X064212Y029790*
X064195Y029801*
X064177Y029810*
X064158Y029818*
X064139Y029825*
X064120Y029831*
X064100Y029835*
X064080Y029838*
X064060Y029839*
X064039*
X064019Y029838*
X063999Y029835*
X063979Y029831*
X063960Y029825*
X063941Y029818*
X063922Y029810*
X063905Y029801*
X063887Y029790*
X063871Y029778*
X063855Y029765*
X063841Y029751*
X063831Y029740*
X064685Y028284D02*
D01*
X064675Y028293*
X064665Y028301*
X064654Y028309*
X064642Y028316*
X064631Y028322*
X064618Y028327*
X064606Y028331*
X064593Y028335*
X064580Y028337*
X064567Y028339*
X064554Y028340*
X064550Y028340*
X064684Y028284D02*
D01*
X064674Y028293*
X064664Y028301*
X064653Y028308*
X064641Y028315*
X064630Y028321*
X064617Y028326*
X064605Y028331*
X064592Y028334*
X064579Y028337*
X064566Y028338*
X064553Y028339*
X064550Y028340*
X064715Y030255D02*
D01*
X064715Y030245*
X064716Y030235*
X064718Y030225*
X064720Y030216*
X064723Y030207*
X064727Y030198*
X064731Y030189*
X064736Y030180*
X064741Y030172*
X064747Y030165*
X064754Y030157*
X064761Y030150*
X064768Y030144*
X064776Y030138*
X064785Y030133*
X064793Y030129*
X064802Y030125*
X064811Y030121*
X064821Y030119*
X064830Y030117*
X064840Y030115*
X064850Y030115*
X064855Y030115*
Y030985D02*
D01*
X064845Y030984*
X064835Y030983*
X064825Y030981*
X064816Y030979*
X064807Y030976*
X064798Y030972*
X064789Y030968*
X064780Y030963*
X064772Y030958*
X064765Y030952*
X064757Y030945*
X064750Y030938*
X064744Y030931*
X064738Y030923*
X064733Y030915*
X064729Y030906*
X064725Y030897*
X064721Y030888*
X064719Y030878*
X064717Y030869*
X064715Y030859*
X064715Y030849*
X064715Y030845*
X064739Y024693D02*
D01*
X064730Y024663*
X064723Y024634*
X064718Y024604*
X064715Y024574*
X064714Y024543*
X064716Y024513*
X064719Y024483*
X064725Y024453*
X064733Y024424*
X064743Y024395*
X064755Y024367*
X064768Y024340*
X064784Y024314*
X064801Y024289*
X064820Y024265*
X064841Y024243*
X064863Y024222*
X064886Y024203*
X064911Y024185*
X064937Y024170*
X064964Y024156*
X064992Y024144*
X065021Y024134*
X065050Y024126*
X065080Y024120*
X065110Y024116*
X065141Y024114*
X065171Y024115*
X065201Y024117*
X065231Y024122*
X065261Y024129*
X065290Y024138*
X065318Y024148*
X065346Y024161*
X065372Y024176*
X065398Y024192*
X065422Y024210*
X065445Y024230*
X065467Y024252*
X065487Y024275*
X065505Y024299*
X065522Y024324*
X065537Y024351*
X065550Y024378*
X065561Y024407*
X065569Y024436*
X065576Y024465*
X065581Y024495*
X065584Y024525*
X065585Y024550*
D01*
X065583Y024580*
X065580Y024610*
X065575Y024640*
X065568Y024669*
X065558Y024698*
X065547Y024726*
X065534Y024754*
X065518Y024780*
X065501Y024805*
X065483Y024829*
X065462Y024852*
X065441Y024873*
X065417Y024892*
X065393Y024910*
X065367Y024926*
X065340Y024940*
X065312Y024953*
X065284Y024963*
X065255Y024972*
X065225Y024978*
X065195Y024982*
X065165Y024984*
X065134*
X065104Y024982*
X065074Y024978*
X065044Y024972*
X065015Y024963*
X065007Y024961*
X064739Y025693D02*
D01*
X064730Y025663*
X064723Y025634*
X064718Y025604*
X064715Y025574*
X064714Y025543*
X064716Y025513*
X064719Y025483*
X064725Y025453*
X064733Y025424*
X064743Y025395*
X064755Y025367*
X064768Y025340*
X064784Y025314*
X064801Y025289*
X064820Y025265*
X064841Y025243*
X064863Y025222*
X064886Y025203*
X064911Y025185*
X064937Y025170*
X064964Y025156*
X064992Y025144*
X065021Y025134*
X065050Y025126*
X065080Y025120*
X065110Y025116*
X065141Y025114*
X065171Y025115*
X065201Y025117*
X065231Y025122*
X065261Y025129*
X065290Y025138*
X065318Y025148*
X065346Y025161*
X065372Y025176*
X065398Y025192*
X065422Y025210*
X065445Y025230*
X065467Y025252*
X065487Y025275*
X065505Y025299*
X065522Y025324*
X065537Y025351*
X065550Y025378*
X065561Y025407*
X065569Y025436*
X065576Y025465*
X065581Y025495*
X065584Y025525*
X065585Y025550*
X064739Y026693D02*
D01*
X064730Y026663*
X064723Y026634*
X064718Y026604*
X064715Y026574*
X064714Y026543*
X064716Y026513*
X064719Y026483*
X064725Y026453*
X064733Y026424*
X064743Y026395*
X064755Y026367*
X064768Y026340*
X064784Y026314*
X064801Y026289*
X064820Y026265*
X064841Y026243*
X064863Y026222*
X064886Y026203*
X064911Y026185*
X064937Y026170*
X064964Y026156*
X064992Y026144*
X065021Y026134*
X065050Y026126*
X065080Y026120*
X065110Y026116*
X065141Y026114*
X065171Y026115*
X065201Y026117*
X065231Y026122*
X065261Y026129*
X065290Y026138*
X065318Y026148*
X065346Y026161*
X065372Y026176*
X065398Y026192*
X065422Y026210*
X065445Y026230*
X065467Y026252*
X065487Y026275*
X065505Y026299*
X065522Y026324*
X065537Y026351*
X065550Y026378*
X065561Y026407*
X065569Y026436*
X065576Y026465*
X065581Y026495*
X065584Y026525*
X065585Y026550*
Y025550D02*
D01*
X065583Y025580*
X065580Y025610*
X065575Y025640*
X065568Y025669*
X065558Y025698*
X065547Y025726*
X065534Y025754*
X065518Y025780*
X065501Y025805*
X065483Y025829*
X065462Y025852*
X065441Y025873*
X065417Y025892*
X065393Y025910*
X065367Y025926*
X065340Y025940*
X065312Y025953*
X065284Y025963*
X065255Y025972*
X065225Y025978*
X065195Y025982*
X065165Y025984*
X065134*
X065104Y025982*
X065074Y025978*
X065044Y025972*
X065015Y025963*
X065007Y025961*
X064739Y027693D02*
D01*
X064730Y027663*
X064723Y027634*
X064718Y027604*
X064715Y027574*
X064714Y027543*
X064716Y027513*
X064719Y027483*
X064725Y027453*
X064733Y027424*
X064743Y027395*
X064755Y027367*
X064768Y027340*
X064784Y027314*
X064801Y027289*
X064820Y027265*
X064841Y027243*
X064863Y027222*
X064886Y027203*
X064911Y027185*
X064937Y027170*
X064964Y027156*
X064992Y027144*
X065021Y027134*
X065050Y027126*
X065080Y027120*
X065110Y027116*
X065141Y027114*
X065171Y027115*
X065201Y027117*
X065231Y027122*
X065261Y027129*
X065290Y027138*
X065318Y027148*
X065346Y027161*
X065372Y027176*
X065398Y027192*
X065422Y027210*
X065445Y027230*
X065467Y027252*
X065487Y027275*
X065505Y027299*
X065522Y027324*
X065537Y027351*
X065550Y027378*
X065561Y027407*
X065569Y027436*
X065576Y027465*
X065581Y027495*
X065584Y027525*
X065585Y027550*
Y026550D02*
D01*
X065583Y026580*
X065580Y026610*
X065575Y026640*
X065568Y026669*
X065558Y026698*
X065547Y026726*
X065534Y026754*
X065518Y026780*
X065501Y026805*
X065483Y026829*
X065462Y026852*
X065441Y026873*
X065417Y026892*
X065393Y026910*
X065367Y026926*
X065340Y026940*
X065312Y026953*
X065284Y026963*
X065255Y026972*
X065225Y026978*
X065195Y026982*
X065165Y026984*
X065134*
X065104Y026982*
X065074Y026978*
X065044Y026972*
X065015Y026963*
X065007Y026961*
X065585Y028550D02*
D01*
X065583Y028580*
X065580Y028610*
X065575Y028640*
X065568Y028669*
X065558Y028698*
X065547Y028726*
X065534Y028754*
X065518Y028780*
X065501Y028805*
X065483Y028829*
X065462Y028852*
X065441Y028873*
X065417Y028892*
X065393Y028910*
X065367Y028926*
X065340Y028940*
X065312Y028953*
X065284Y028963*
X065255Y028972*
X065225Y028978*
X065195Y028982*
X065165Y028984*
X065134*
X065104Y028982*
X065074Y028978*
X065044Y028972*
X065015Y028963*
X064987Y028953*
X064959Y028940*
X064932Y028926*
X064906Y028910*
X064882Y028892*
X064858Y028873*
X064837Y028852*
X064816Y028829*
X064798Y028805*
X064781Y028780*
X064765Y028754*
X064752Y028726*
X064741Y028698*
X064731Y028669*
X064724Y028640*
X064719Y028610*
X064716Y028580*
X064715Y028550*
X064716Y028519*
X064719Y028489*
X064724Y028459*
X064731Y028430*
X064741Y028401*
X064752Y028373*
X064765Y028345*
X064781Y028319*
X064798Y028294*
X064816Y028270*
X064837Y028247*
X064858Y028226*
X064882Y028207*
X064906Y028189*
X064932Y028173*
X064959Y028159*
X064987Y028146*
X065015Y028136*
X065044Y028127*
X065074Y028121*
X065104Y028117*
X065134Y028115*
X065165*
X065195Y028117*
X065225Y028121*
X065255Y028127*
X065284Y028136*
X065312Y028146*
X065340Y028159*
X065367Y028173*
X065393Y028189*
X065417Y028207*
X065441Y028226*
X065462Y028247*
X065483Y028270*
X065501Y028294*
X065518Y028319*
X065534Y028345*
X065547Y028373*
X065558Y028401*
X065568Y028430*
X065575Y028459*
X065580Y028489*
X065583Y028519*
X065585Y028550*
Y027550D02*
D01*
X065583Y027580*
X065580Y027610*
X065575Y027640*
X065568Y027669*
X065558Y027698*
X065547Y027726*
X065534Y027754*
X065518Y027780*
X065501Y027805*
X065483Y027829*
X065462Y027852*
X065441Y027873*
X065417Y027892*
X065393Y027910*
X065367Y027926*
X065340Y027940*
X065312Y027953*
X065284Y027963*
X065255Y027972*
X065225Y027978*
X065195Y027982*
X065165Y027984*
X065134*
X065104Y027982*
X065074Y027978*
X065044Y027972*
X065015Y027963*
X065007Y027961*
X065585Y029550D02*
D01*
X065583Y029580*
X065580Y029610*
X065575Y029640*
X065568Y029669*
X065558Y029698*
X065547Y029726*
X065534Y029754*
X065518Y029780*
X065501Y029805*
X065483Y029829*
X065462Y029852*
X065441Y029873*
X065417Y029892*
X065393Y029910*
X065367Y029926*
X065340Y029940*
X065312Y029953*
X065284Y029963*
X065255Y029972*
X065225Y029978*
X065195Y029982*
X065165Y029984*
X065134*
X065104Y029982*
X065074Y029978*
X065044Y029972*
X065015Y029963*
X064987Y029953*
X064959Y029940*
X064932Y029926*
X064906Y029910*
X064882Y029892*
X064858Y029873*
X064837Y029852*
X064816Y029829*
X064798Y029805*
X064781Y029780*
X064765Y029754*
X064752Y029726*
X064741Y029698*
X064731Y029669*
X064724Y029640*
X064719Y029610*
X064716Y029580*
X064715Y029550*
X064716Y029519*
X064719Y029489*
X064724Y029459*
X064731Y029430*
X064741Y029401*
X064752Y029373*
X064765Y029345*
X064781Y029319*
X064798Y029294*
X064816Y029270*
X064837Y029247*
X064858Y029226*
X064882Y029207*
X064906Y029189*
X064932Y029173*
X064959Y029159*
X064987Y029146*
X065015Y029136*
X065044Y029127*
X065074Y029121*
X065104Y029117*
X065134Y029115*
X065165*
X065195Y029117*
X065225Y029121*
X065255Y029127*
X065284Y029136*
X065312Y029146*
X065340Y029159*
X065367Y029173*
X065393Y029189*
X065417Y029207*
X065441Y029226*
X065462Y029247*
X065483Y029270*
X065501Y029294*
X065518Y029319*
X065534Y029345*
X065547Y029373*
X065558Y029401*
X065568Y029430*
X065575Y029459*
X065580Y029489*
X065583Y029519*
X065585Y029550*
X065445Y030115D02*
D01*
X065454Y030115*
X065464Y030116*
X065474Y030118*
X065483Y030120*
X065492Y030123*
X065501Y030127*
X065510Y030131*
X065519Y030136*
X065527Y030141*
X065534Y030147*
X065542Y030154*
X065549Y030161*
X065555Y030168*
X065561Y030176*
X065566Y030185*
X065570Y030193*
X065574Y030202*
X065578Y030211*
X065580Y030221*
X065582Y030230*
X065584Y030240*
X065584Y030250*
X065585Y030255*
X065932Y032416D02*
D01*
X065930Y032460*
X065925Y032503*
X065918Y032547*
X065907Y032590*
X065893Y032632*
X065877Y032673*
X065858Y032712*
X065835Y032750*
X065811Y032787*
X065784Y032822*
X065754Y032855*
X065722Y032885*
X065689Y032914*
X065653Y032939*
X065616Y032963*
X065577Y032984*
X065536Y033001*
X065495Y033017*
X065452Y033029*
X065409Y033038*
X065366Y033044*
X065322Y033047*
X065277*
X065233Y033044*
X065190Y033038*
X065147Y033029*
X065104Y033017*
X065063Y033001*
X065022Y032984*
X064984Y032963*
X064946Y032939*
X064910Y032914*
X064877Y032885*
X064845Y032855*
X064815Y032822*
X064788Y032787*
X064764Y032750*
X064741Y032712*
X064722Y032673*
X064706Y032632*
X064692Y032590*
X064681Y032547*
X064674Y032503*
X064669Y032460*
X064668Y032416*
X064669Y032371*
X064674Y032328*
X064681Y032284*
X064692Y032241*
X064706Y032199*
X064722Y032158*
X064741Y032119*
X064764Y032081*
X064788Y032044*
X064815Y032009*
X064845Y031976*
X064877Y031946*
X064910Y031917*
X064946Y031892*
X064984Y031868*
X065022Y031847*
X065063Y031830*
X065104Y031814*
X065147Y031802*
X065190Y031793*
X065233Y031787*
X065277Y031784*
X065322*
X065366Y031787*
X065409Y031793*
X065452Y031802*
X065495Y031814*
X065536Y031830*
X065577Y031847*
X065616Y031868*
X065653Y031892*
X065689Y031917*
X065722Y031946*
X065754Y031976*
X065784Y032009*
X065811Y032044*
X065835Y032081*
X065858Y032119*
X065877Y032158*
X065893Y032199*
X065907Y032241*
X065918Y032284*
X065925Y032328*
X065930Y032371*
X065932Y032416*
Y034384D02*
D01*
X065930Y034428*
X065925Y034471*
X065918Y034515*
X065907Y034558*
X065893Y034600*
X065877Y034641*
X065858Y034680*
X065835Y034718*
X065811Y034755*
X065784Y034790*
X065754Y034823*
X065722Y034853*
X065689Y034882*
X065653Y034907*
X065616Y034931*
X065577Y034952*
X065536Y034969*
X065495Y034985*
X065452Y034997*
X065409Y035006*
X065366Y035012*
X065322Y035015*
X065277*
X065233Y035012*
X065190Y035006*
X065147Y034997*
X065104Y034985*
X065063Y034969*
X065022Y034952*
X064984Y034931*
X064946Y034907*
X064910Y034882*
X064877Y034853*
X064845Y034823*
X064815Y034790*
X064788Y034755*
X064764Y034718*
X064741Y034680*
X064722Y034641*
X064706Y034600*
X064692Y034558*
X064681Y034515*
X064674Y034471*
X064669Y034428*
X064668Y034384*
X064669Y034339*
X064674Y034296*
X064681Y034252*
X064692Y034209*
X064706Y034167*
X064722Y034126*
X064741Y034087*
X064764Y034049*
X064788Y034012*
X064815Y033977*
X064845Y033944*
X064877Y033914*
X064910Y033885*
X064946Y033860*
X064984Y033836*
X065022Y033815*
X065063Y033798*
X065104Y033782*
X065147Y033770*
X065190Y033761*
X065233Y033755*
X065277Y033752*
X065322*
X065366Y033755*
X065409Y033761*
X065452Y033770*
X065495Y033782*
X065536Y033798*
X065577Y033815*
X065616Y033836*
X065653Y033860*
X065689Y033885*
X065722Y033914*
X065754Y033944*
X065784Y033977*
X065811Y034012*
X065835Y034049*
X065858Y034087*
X065877Y034126*
X065893Y034167*
X065907Y034209*
X065918Y034252*
X065925Y034296*
X065930Y034339*
X065932Y034384*
X065585Y030845D02*
D01*
X065584Y030854*
X065583Y030864*
X065581Y030874*
X065579Y030883*
X065576Y030892*
X065572Y030901*
X065568Y030910*
X065563Y030919*
X065558Y030927*
X065552Y030934*
X065545Y030942*
X065538Y030949*
X065531Y030955*
X065523Y030961*
X065515Y030966*
X065506Y030970*
X065497Y030974*
X065488Y030978*
X065478Y030980*
X065469Y030982*
X065459Y030984*
X065449Y030984*
X065445Y030985*
X058890Y019770D02*
X059295Y019365D01*
X059600Y018650D02*
Y018785D01*
X059400Y019365D02*
Y019780D01*
X059000Y019660D02*
Y019920D01*
X059600Y019365D02*
Y019834D01*
X059200Y019460D02*
Y019804D01*
X059800Y018450D02*
Y018785D01*
X060200Y018050D02*
Y018785D01*
X060000Y018250D02*
Y018785D01*
X059465D02*
X060550Y017700D01*
X060400Y017850D02*
Y018785D01*
X059800Y019365D02*
Y020007D01*
X058890Y019770D02*
Y020063D01*
Y019800D02*
X059212D01*
X058890Y020000D02*
X058929D01*
X058890Y020800D02*
X059146D01*
X059795Y020000D02*
X060617D01*
X059884Y020200D02*
X060511D01*
X059889Y020400D02*
X060569D01*
X058890Y021400D02*
X060569D01*
X058890Y021000D02*
X060617D01*
X058890Y021200D02*
X060511D01*
X060550Y010140D02*
Y017700D01*
X060800Y010140D02*
Y018785D01*
X060600Y010140D02*
Y018785D01*
X060800Y019365D02*
Y019935D01*
X061000Y010140D02*
Y018785D01*
Y019365D02*
Y020015D01*
X061200Y010140D02*
Y018785D01*
X061600Y010140D02*
Y018785D01*
X061400Y010140D02*
Y018785D01*
X061200Y019365D02*
Y020035D01*
X062000Y010140D02*
Y018785D01*
X061800Y010140D02*
Y018785D01*
X060600Y019365D02*
Y020015D01*
X060800Y020515D02*
Y020935D01*
X060600Y020435D02*
Y021015D01*
X061200Y020415D02*
Y021035D01*
X061000Y020435D02*
Y021015D01*
X061400Y019365D02*
Y020035D01*
X061800Y019365D02*
Y020035D01*
X061600Y019365D02*
Y020035D01*
Y020415D02*
Y021035D01*
X061400Y020415D02*
Y021035D01*
X062000Y020415D02*
Y021035D01*
X061800Y020415D02*
Y021035D01*
X058890Y020561D02*
Y023180D01*
X059000Y020704D02*
Y023290D01*
X059200Y020821D02*
Y023490D01*
X059400Y020845D02*
Y023690D01*
X059800Y020617D02*
Y024783D01*
X059600Y020790D02*
Y023896D01*
X060600Y021435D02*
Y022015D01*
X060000Y019365D02*
Y024798D01*
X060400Y019365D02*
Y024798D01*
X060200Y019365D02*
Y024798D01*
X058890Y022600D02*
X060538D01*
X058890Y022200D02*
X060511D01*
X058890Y022400D02*
X060569D01*
X058890Y022800D02*
X060520D01*
X058890Y023180D02*
X059567Y023857D01*
X058910Y023200D02*
X060511D01*
X058890Y022000D02*
X060617D01*
X058890Y023000D02*
X060617D01*
X059110Y023400D02*
X060569D01*
X059510Y023800D02*
X061003D01*
X060600Y023435D02*
Y024798D01*
X060800Y021515D02*
Y021935D01*
X061200Y021415D02*
Y022035D01*
X061000Y021435D02*
Y022015D01*
X060600Y022435D02*
Y022515D01*
X061200Y022915D02*
Y023035D01*
X061400Y021415D02*
Y022035D01*
X061800Y021415D02*
Y022035D01*
X061600Y021415D02*
Y022035D01*
X061400Y022915D02*
Y023035D01*
X061800Y022915D02*
Y023035D01*
X061600Y022915D02*
Y023035D01*
X060600Y022935D02*
Y023015D01*
X061000Y022935D02*
Y023015D01*
X060800Y023515D02*
Y024798D01*
X061000Y023435D02*
Y023802D01*
X061600Y023415D02*
Y023760D01*
X062000Y023415D02*
Y023760D01*
X061800Y023415D02*
Y023760D01*
X061400Y023415D02*
Y023760D01*
X061200Y023415D02*
Y023760D01*
X060550Y012200D02*
X066897D01*
X060550Y011800D02*
X066897D01*
X060550Y012000D02*
X066897D01*
X060550Y012800D02*
X066897D01*
X060550Y012400D02*
X066897D01*
X060550Y012600D02*
X066897D01*
X060550Y010400D02*
X066897D01*
X060550Y010140D02*
X066897D01*
X060550Y010200D02*
X066897D01*
X060550Y011000D02*
X066897D01*
X060550Y010600D02*
X066897D01*
X060550Y010800D02*
X066897D01*
X060050Y018200D02*
X064891D01*
X060550Y014200D02*
X064891D01*
X060450Y017800D02*
X064794D01*
X059465Y018785D02*
X064050D01*
X059850Y018400D02*
X064741D01*
X059650Y018600D02*
X064718D01*
X060550Y013400D02*
X066897D01*
X060550Y013000D02*
X066897D01*
X060550Y013200D02*
X066897D01*
X060550Y014000D02*
X066897D01*
X060250Y018000D02*
X066897D01*
X060550Y013600D02*
X066897D01*
X060550Y013800D02*
X066897D01*
X060550Y014600D02*
X064718D01*
X063000Y010140D02*
Y018785D01*
X062800Y010140D02*
Y018785D01*
X062200Y010140D02*
Y018785D01*
X062600Y010140D02*
Y018785D01*
X062400Y010140D02*
Y018785D01*
X060550Y011600D02*
X066897D01*
X060550Y011200D02*
X066897D01*
X060550Y011400D02*
X066897D01*
X060550Y015000D02*
X066897D01*
X060550Y014400D02*
X064741D01*
X060550Y014800D02*
X064794D01*
X060550Y016400D02*
X064741D01*
X060550Y015400D02*
X064741D01*
X060550Y015600D02*
X064718D01*
X060550Y017600D02*
X064718D01*
X060550Y016600D02*
X064718D01*
X060550Y017400D02*
X064741D01*
X060550Y016000D02*
X066897D01*
X060550Y015200D02*
X064891D01*
X060550Y015800D02*
X064794D01*
X060550Y017000D02*
X066897D01*
X060550Y017200D02*
X064891D01*
X060550Y016200D02*
X064891D01*
X060550Y016800D02*
X064794D01*
X059295Y019365D02*
X064050D01*
X060983Y020000D02*
X064431D01*
X061019Y020035D02*
X064396D01*
X060983Y021000D02*
X064431D01*
X062000Y019365D02*
Y020035D01*
X061019Y021035D02*
X064396D01*
X059060Y019600D02*
X064718D01*
X059260Y019400D02*
X064741D01*
X059512Y019800D02*
X064631D01*
X059579Y020800D02*
X064631D01*
X061019Y020415D02*
X064475D01*
X059812Y020600D02*
X064718D01*
X061019Y022035D02*
X064396D01*
X062000Y021415D02*
Y022035D01*
Y022915D02*
Y023035D01*
X061019D02*
X064375D01*
X061019Y023415D02*
X064296D01*
X061150Y023760D02*
X063850D01*
X058890Y021800D02*
X064631D01*
X061019Y021415D02*
X064475D01*
X058890Y021600D02*
X064718D01*
X060983Y022000D02*
X064431D01*
X059310Y023600D02*
X064481D01*
X061019Y022915D02*
X064425D01*
X060983Y023000D02*
X066897D01*
X062200Y019365D02*
Y020035D01*
X062600Y019365D02*
Y020035D01*
X062400Y019365D02*
Y020035D01*
X062200Y020415D02*
Y021035D01*
X062400Y020415D02*
Y021035D01*
Y021415D02*
Y022035D01*
X062600Y020415D02*
Y021035D01*
X063000Y019365D02*
Y020035D01*
X062800Y019365D02*
Y020035D01*
X062600Y021415D02*
Y022035D01*
X063000Y020415D02*
Y021035D01*
X062800Y020415D02*
Y021035D01*
X062200Y021415D02*
Y022035D01*
X062400Y022915D02*
Y023035D01*
X062200Y022915D02*
Y023035D01*
Y023415D02*
Y023760D01*
X062600Y023415D02*
Y023760D01*
X062400Y023415D02*
Y023760D01*
X062800Y021415D02*
Y022035D01*
X063000Y021415D02*
Y022035D01*
X062800Y022915D02*
Y023035D01*
X062600Y022915D02*
Y023035D01*
X062800Y023415D02*
Y023760D01*
X063000Y022915D02*
Y023035D01*
Y023415D02*
Y023760D01*
X059190Y025670D02*
X059250Y025610D01*
X059652Y024062D02*
Y024640D01*
X059600Y025566D02*
Y027060D01*
X059190Y025670D02*
Y027530D01*
X059400Y025620D02*
Y027140D01*
X059200Y025660D02*
Y027540D01*
X059645Y024000D02*
X060864D01*
X059652Y024200D02*
X060902D01*
X059190Y027200D02*
X059352D01*
X059190Y027400D02*
X059314D01*
X059260Y027600D02*
X059410D01*
X059190Y027530D02*
X059410Y027750D01*
X059400Y027560D02*
Y027740D01*
X059410Y027569D02*
Y027750D01*
X059190Y026800D02*
X060452D01*
X059190Y027000D02*
X060414D01*
X059790Y027600D02*
X060452D01*
X059800Y027560D02*
Y027781D01*
X059790Y027569D02*
Y027771D01*
X061000Y024298D02*
Y024798D01*
X060600Y025378D02*
Y026678D01*
X061000Y025378D02*
Y026760D01*
X060800Y025378D02*
Y026678D01*
X061800Y024340D02*
Y024798D01*
X062200Y024340D02*
Y024798D01*
X062000Y024340D02*
Y024798D01*
X061200Y024340D02*
Y024798D01*
X061600Y024340D02*
Y024798D01*
X061400Y024340D02*
Y024798D01*
X059800Y025393D02*
Y027140D01*
X059848Y027200D02*
X060452D01*
X059886Y027400D02*
X060414D01*
X059819Y027800D02*
X060414D01*
X061800Y025378D02*
Y026760D01*
X062200Y025378D02*
Y026760D01*
X062000Y025378D02*
Y026760D01*
X061200Y025378D02*
Y026760D01*
X061600Y025378D02*
Y026760D01*
X061400Y025378D02*
Y026760D01*
X060000Y025378D02*
Y027981D01*
X060200Y025378D02*
Y028181D01*
X060019Y028000D02*
X060452D01*
X060219Y028200D02*
X060414D01*
X060400Y025378D02*
Y028381D01*
X060419Y028400D02*
X060553D01*
X061200Y028340D02*
Y029181D01*
X061000Y028340D02*
Y028981D01*
X059790Y027771D02*
X061379Y029360D01*
X061600Y028340D02*
Y029360D01*
X061400Y028340D02*
Y029360D01*
X060600Y028422D02*
Y028581D01*
X060800Y028422D02*
Y028781D01*
X061600Y029740D02*
Y029940D01*
Y034356D02*
Y035351D01*
Y032106D02*
Y033544D01*
Y032106D02*
Y033544D01*
X061400Y029740D02*
X061811Y030151D01*
X061800Y032106D02*
Y033544D01*
X061600Y032106D02*
X061872D01*
X061600Y033544D02*
X061872D01*
X061600Y034356D02*
X061872D01*
X061800D02*
Y035351D01*
X061600Y034356D02*
Y035351D01*
X061800Y028340D02*
Y029360D01*
X062000Y028340D02*
Y029360D01*
X061800Y029740D02*
Y030140D01*
X061896Y030356D02*
Y031296D01*
X062000Y029740D02*
Y031377D01*
X062200Y028340D02*
Y029360D01*
Y029740D02*
Y031343D01*
X062008Y031400D02*
X062121D01*
X062012Y031434D02*
Y031562D01*
X062000Y032023D02*
Y033627D01*
X062012Y033684D02*
Y033812D01*
X062000Y034273D02*
Y035351D01*
X062008Y032000D02*
X062121D01*
X062012Y031838D02*
Y031966D01*
X062200Y032057D02*
Y033593D01*
X061984Y033600D02*
X062188D01*
X062012Y034200D02*
X062074D01*
X062012Y034088D02*
Y034216D01*
X062200Y034307D02*
Y035351D01*
X059795Y025400D02*
X062690D01*
X059810Y024798D02*
X062788D01*
X059810Y025378D02*
X062668D01*
X059190Y026600D02*
X062831D01*
X059512Y025600D02*
X062890D01*
X059190Y026400D02*
X063031D01*
X059652Y024600D02*
X064718D01*
X061150Y024340D02*
X063850D01*
X059652Y024400D02*
X064741D01*
X059190Y026200D02*
X063231D01*
X059190Y025800D02*
X063090D01*
X059190Y026000D02*
X063431D01*
X060919Y027160D02*
X063271D01*
X060919Y026760D02*
X062671D01*
X060919Y027140D02*
X062750D01*
X060919Y027940D02*
X063950D01*
X060919Y027540D02*
X063350D01*
X060919Y027560D02*
X063871D01*
X060847Y028400D02*
X064741D01*
X060919Y027960D02*
X064471D01*
X060919Y028340D02*
X064550D01*
X060619Y028600D02*
X064718D01*
X060819Y028800D02*
X064794D01*
X061019Y029000D02*
X066897D01*
X061219Y029200D02*
X064891D01*
X062400Y024340D02*
Y024798D01*
X062800Y024340D02*
Y024798D01*
X062600Y024340D02*
Y024798D01*
X062400Y025378D02*
Y026760D01*
X062600Y025378D02*
Y026760D01*
X063000Y024340D02*
Y024890D01*
X062823Y024800D02*
X064631D01*
X062885Y027084D02*
X065007Y024961D01*
X062993Y024883D02*
X063605Y025495D01*
X063110Y025000D02*
X064431D01*
X062800Y025510D02*
Y026631D01*
X063000Y025710D02*
Y026431D01*
Y026969D02*
Y027160D01*
X062800Y028340D02*
Y029360D01*
X062668Y025378D02*
X063195Y025905D01*
X062671Y026760D02*
X063445Y025987D01*
X062969Y027000D02*
X063431D01*
X061379Y029360D02*
X063831D01*
X063169Y026800D02*
X063631D01*
X063000Y028340D02*
Y029360D01*
X061400Y029740D02*
X063831D01*
X061460Y029800D02*
X063903D01*
X061896Y030400D02*
X064715D01*
X061600Y032200D02*
X064706D01*
X061660Y030000D02*
X066897D01*
X061851Y030200D02*
X064726D01*
X061896Y030600D02*
X064715D01*
X061896Y031200D02*
X066897D01*
X061896Y030800D02*
X064715D01*
X061896Y031000D02*
X066897D01*
X061600Y032800D02*
X064798D01*
X061600Y032400D02*
X064668D01*
X061600Y032600D02*
X064695D01*
X061600Y034600D02*
X064706D01*
X061600Y034400D02*
X064668D01*
X061600Y033400D02*
X066897D01*
X061600Y033000D02*
X065059D01*
X061600Y033200D02*
X066897D01*
X061600Y035200D02*
X066897D01*
X061600Y035351D02*
X066897D01*
X061600Y034800D02*
X064824D01*
X061600Y035000D02*
X065157D01*
X062400Y028340D02*
Y029360D01*
X062600Y028340D02*
Y029360D01*
X062400Y029740D02*
Y031294D01*
X062600Y029740D02*
Y031351D01*
X062667Y031400D02*
X066897D01*
X062787Y031600D02*
X066897D01*
X062787Y031800D02*
X065157D01*
X063000Y029740D02*
Y035351D01*
X062800Y029740D02*
Y035351D01*
X062600Y032049D02*
Y033601D01*
X062400Y032106D02*
Y033544D01*
X062600Y034299D02*
Y035351D01*
X062400Y034356D02*
Y035351D01*
X062599Y033600D02*
X066897D01*
X062667Y032000D02*
X064824D01*
X062771Y033800D02*
X065059D01*
X062796Y034000D02*
X064798D01*
X062713Y034200D02*
X064695D01*
X063200Y010140D02*
Y018785D01*
X063600Y010140D02*
Y018785D01*
X063400Y010140D02*
Y018785D01*
X063800Y010140D02*
Y018785D01*
X064200Y010140D02*
Y018827D01*
X064000Y010140D02*
Y018785D01*
X064142Y018800D02*
X064794D01*
X064312Y019200D02*
X064891D01*
X063200Y019365D02*
Y020035D01*
X063600Y019365D02*
Y020035D01*
X063400Y019365D02*
Y020035D01*
X063200Y020415D02*
Y021035D01*
X063600Y020415D02*
Y021035D01*
X063400Y020415D02*
Y021035D01*
X063800Y019365D02*
Y020035D01*
X064200Y019323D02*
Y020035D01*
X064000Y019365D02*
Y020035D01*
Y020415D02*
Y021035D01*
X063800Y020415D02*
Y021035D01*
X064396Y020035D02*
X064739Y019693D01*
X064200Y020415D02*
Y021035D01*
X064800Y015809D02*
Y016291D01*
Y010140D02*
Y014291D01*
Y014809D02*
Y015291D01*
X064400Y010140D02*
Y020031D01*
X064600Y010140D02*
Y019831D01*
X064800Y017809D02*
Y018291D01*
X065000Y015959D02*
Y016141D01*
Y010140D02*
Y014141D01*
Y014959D02*
Y015141D01*
X064800Y016809D02*
Y017291D01*
Y018809D02*
Y019291D01*
X065000Y019969D02*
Y020141D01*
X064600Y020368D02*
Y020831D01*
X064396Y021035D02*
X064739Y020693D01*
X064400Y020415D02*
Y021031D01*
X064549Y020400D02*
X064741D01*
X064800Y020169D02*
Y020291D01*
X064769Y020200D02*
X064891D01*
X064769Y021200D02*
X064891D01*
X064549Y021400D02*
X064741D01*
X065000Y020969D02*
Y021141D01*
X064800Y021169D02*
Y021291D01*
X063200Y021415D02*
Y022035D01*
X063600Y021415D02*
Y022035D01*
X063400Y021415D02*
Y022035D01*
X063200Y022915D02*
Y023035D01*
X063600Y022915D02*
Y023035D01*
X063400Y022915D02*
Y023035D01*
X063800Y021415D02*
Y022035D01*
X064200Y021415D02*
Y022035D01*
X064000Y021415D02*
Y022035D01*
X063800Y022915D02*
Y023035D01*
X064200Y022915D02*
Y023035D01*
X064000Y022915D02*
Y023035D01*
X063200Y023415D02*
Y023760D01*
X063600Y023415D02*
Y023760D01*
X063400Y023415D02*
Y023760D01*
X063800Y023415D02*
Y023760D01*
X064000Y023415D02*
Y023802D01*
X064296Y023415D02*
X064565Y023684D01*
X064200Y023415D02*
Y025231D01*
X063997Y023800D02*
X064794D01*
X064400Y021415D02*
Y022031D01*
X064600Y021368D02*
Y021831D01*
X064396Y022035D02*
X064739Y021693D01*
X064679Y022740D02*
X064758D01*
X064560Y022859D02*
X064679Y022740D01*
X064769Y022200D02*
X064891D01*
X065000Y021969D02*
Y022141D01*
X064800Y022169D02*
Y022291D01*
X064609Y022360D02*
X064758D01*
X064619Y022800D02*
X064794D01*
X064800Y022809D02*
Y023291D01*
X064400Y022915D02*
Y023037D01*
Y023519D02*
Y025031D01*
X064600Y022819D02*
Y023181D01*
Y023712D02*
Y024831D01*
X064510Y023091D02*
X064765Y023347D01*
X065000Y022959D02*
Y023141D01*
X064619Y023200D02*
X064891D01*
X064700Y023740D02*
X064758D01*
X064800Y023809D02*
Y024291D01*
X065200Y010140D02*
Y014118D01*
Y014982D02*
Y015118D01*
Y015982D02*
Y016118D01*
X065400Y010140D02*
Y014194D01*
Y014906D02*
Y015194D01*
Y015906D02*
Y016194D01*
X065000Y016959D02*
Y017141D01*
X065200Y016982D02*
Y017118D01*
Y017982D02*
Y018118D01*
X065000Y017959D02*
Y018141D01*
Y018959D02*
Y019141D01*
X065200Y018982D02*
Y019118D01*
X065400Y017906D02*
Y018194D01*
X064330Y019000D02*
X066897D01*
X065400Y018906D02*
Y019194D01*
X065409Y016200D02*
X066897D01*
X065582Y015600D02*
X066897D01*
X065506Y015800D02*
X066897D01*
X065506Y016800D02*
X066897D01*
X065559Y016400D02*
X066897D01*
X065582Y016600D02*
X066897D01*
X065409Y014200D02*
X066897D01*
X065559Y014400D02*
X066897D01*
X065582Y014600D02*
X066897D01*
X065409Y015200D02*
X066897D01*
X065506Y014800D02*
X066897D01*
X065559Y015400D02*
X066897D01*
X065400Y016906D02*
Y017194D01*
X065409Y017200D02*
X066897D01*
X065559Y017400D02*
X066897D01*
X065409Y018200D02*
X066897D01*
X065582Y017600D02*
X066897D01*
X065506Y017800D02*
X066897D01*
X065506Y018800D02*
X066897D01*
X065559Y018400D02*
X066897D01*
X065582Y018600D02*
X066897D01*
X065409Y019200D02*
X066897D01*
X065506Y019800D02*
X066897D01*
X065559Y019400D02*
X066897D01*
X065582Y019600D02*
X066897D01*
X064610Y020359D02*
X065007Y019961D01*
X065400Y019906D02*
Y020194D01*
X065200Y019982D02*
Y020118D01*
X064610Y021359D02*
X065007Y020961D01*
X065400Y020906D02*
Y021194D01*
X065200Y020982D02*
Y021118D01*
X064969Y020000D02*
X066897D01*
X064969Y021000D02*
X066897D01*
X064610Y022359D02*
X065007Y021961D01*
X065200Y021982D02*
Y022118D01*
Y022982D02*
Y023118D01*
X065000Y023959D02*
Y024141D01*
X065400Y022906D02*
Y023194D01*
X065200Y023982D02*
Y024118D01*
X064969Y022000D02*
X066897D01*
X065400Y021906D02*
Y022194D01*
X065600Y010140D02*
Y031859D01*
X066000Y010140D02*
Y035351D01*
X065800Y010140D02*
Y032029D01*
X066200Y010140D02*
Y035351D01*
X066600Y010140D02*
Y035351D01*
X066400Y010140D02*
Y035351D01*
X065409Y020200D02*
X066897D01*
X065559Y020400D02*
X066897D01*
X065582Y020600D02*
X066897D01*
X065506Y020800D02*
X066897D01*
Y010140D02*
Y035351D01*
X066800Y010140D02*
Y035351D01*
X065409Y023200D02*
X066897D01*
X065506Y022800D02*
X066897D01*
X065559Y023400D02*
X066897D01*
X065400Y023906D02*
Y024194D01*
X065582Y023600D02*
X066897D01*
X065506Y023800D02*
X066897D01*
X065409Y021200D02*
X066897D01*
X065559Y021400D02*
X066897D01*
X065582Y021600D02*
X066897D01*
X065506Y021800D02*
X066897D01*
X065409Y022200D02*
X066897D01*
X065559Y022400D02*
X066897D01*
X065582Y022600D02*
X066897D01*
X063200Y024340D02*
Y025090D01*
X063600Y024340D02*
Y025490D01*
X063400Y024340D02*
Y025290D01*
X063800Y024340D02*
Y025631D01*
X063310Y025200D02*
X064231D01*
X063510Y025400D02*
X064031D01*
X063271Y027160D02*
X064739Y025693D01*
X063687Y025745D02*
X064739Y024693D01*
X063672Y025600D02*
X063831D01*
X063200Y025910D02*
Y026231D01*
X063400Y025990D02*
Y026031D01*
X063200Y026769D02*
Y027160D01*
X063600Y026369D02*
Y026831D01*
X063400Y026569D02*
Y027031D01*
X063769Y026200D02*
X064231D01*
X063569Y026400D02*
X064031D01*
X063369Y026600D02*
X063831D01*
X063800Y026169D02*
Y026631D01*
X063769Y027200D02*
X064231D01*
X064000Y024298D02*
Y025431D01*
X064400Y025569D02*
Y026031D01*
X064200Y025769D02*
Y026231D01*
X064098Y024200D02*
X064891D01*
X064800Y025169D02*
Y025291D01*
X064769Y025200D02*
X064891D01*
X064369Y025600D02*
X064718D01*
X064600Y025369D02*
Y025831D01*
X064569Y025400D02*
X064741D01*
X063969Y026000D02*
X064431D01*
X064000Y025969D02*
Y026431D01*
X064600Y026369D02*
Y026831D01*
X063969Y027000D02*
X064431D01*
X064400Y026569D02*
Y027031D01*
X064200Y026769D02*
Y027231D01*
X064169Y025800D02*
X064631D01*
X064800Y026169D02*
Y026291D01*
X064769Y026200D02*
X064891D01*
X064369Y026600D02*
X064718D01*
X064169Y026800D02*
X064631D01*
X064569Y026400D02*
X064741D01*
X064769Y027200D02*
X064891D01*
X064000Y026969D02*
Y027431D01*
X063400Y028340D02*
Y029360D01*
X063800Y027169D02*
Y027560D01*
X063600Y027369D02*
Y027560D01*
X063569Y027400D02*
X064031D01*
X063871Y027560D02*
X064739Y026693D01*
X064169Y027800D02*
X064631D01*
X064200Y027769D02*
Y027960D01*
X063200Y028340D02*
Y029360D01*
X063800Y028340D02*
Y029360D01*
X063600Y028340D02*
Y029360D01*
X063200Y029740D02*
Y035351D01*
X063600Y029740D02*
Y035351D01*
X063400Y029740D02*
Y035351D01*
X064200Y028340D02*
Y029302D01*
X064000Y028340D02*
Y029264D01*
X063800Y029740D02*
Y035351D01*
X064197Y029800D02*
X064794D01*
X064000Y029836D02*
Y035351D01*
X064400Y027569D02*
Y027960D01*
X064600Y027369D02*
Y027831D01*
X064400Y028340D02*
Y035351D01*
X064600Y028333D02*
Y035351D01*
X064369Y027600D02*
X064718D01*
X064800Y027169D02*
Y027291D01*
X064569Y027400D02*
X064741D01*
X064471Y027960D02*
X064739Y027693D01*
X064800Y028169D02*
Y028291D01*
X064769Y028200D02*
X064891D01*
X064298Y029400D02*
X064741D01*
X064336Y029600D02*
X064718D01*
X064800Y029809D02*
Y030126D01*
X064200Y029798D02*
Y035351D01*
X064715Y030255D02*
Y030845D01*
X064800Y034771D02*
Y035351D01*
Y028809D02*
Y029291D01*
X065000Y029959D02*
Y030115D01*
X064800Y030974D02*
Y032029D01*
Y032803D02*
Y033997D01*
X065000Y032972D02*
Y033828D01*
X065200Y024982D02*
Y025118D01*
X063485Y027484D02*
X065007Y025961D01*
X065000Y024969D02*
Y025141D01*
Y025969D02*
Y026141D01*
X064136Y024000D02*
X066897D01*
X064969Y025000D02*
X066897D01*
X064969Y026000D02*
X066897D01*
X064085Y027884D02*
X065007Y026961D01*
X065000Y026969D02*
Y027141D01*
X065200Y026982D02*
Y027118D01*
X064685Y028284D02*
X065007Y027961D01*
X065000Y027969D02*
Y028141D01*
X065200Y028982D02*
Y029118D01*
X064969Y027000D02*
X066897D01*
X064969Y028000D02*
X066897D01*
X065200Y027982D02*
Y028118D01*
X065409Y024200D02*
X066897D01*
X065582Y024600D02*
X066897D01*
X065506Y024800D02*
X066897D01*
X065200Y025982D02*
Y026118D01*
X065400Y024906D02*
Y025194D01*
Y025906D02*
Y026194D01*
X065409Y025200D02*
X066897D01*
X065559Y024400D02*
X066897D01*
X065559Y025400D02*
X066897D01*
X065409Y026200D02*
X066897D01*
X065582Y025600D02*
X066897D01*
X065506Y025800D02*
X066897D01*
X065400Y026906D02*
Y027194D01*
X065559Y026400D02*
X066897D01*
X065506Y026800D02*
X066897D01*
X065400Y027906D02*
Y028194D01*
X065409Y027200D02*
X066897D01*
X065559Y027400D02*
X066897D01*
X065506Y027800D02*
X066897D01*
X065582Y026600D02*
X066897D01*
X065582Y027600D02*
X066897D01*
X065409Y028200D02*
X066897D01*
X065506Y028800D02*
X066897D01*
X065559Y028400D02*
X066897D01*
X065582Y028600D02*
X066897D01*
X065000Y028959D02*
Y029141D01*
X065400Y028906D02*
Y029194D01*
X065200Y029982D02*
Y030115D01*
X065000Y030985D02*
Y031859D01*
X065400Y030985D02*
Y031792D01*
X065200Y030985D02*
Y031792D01*
X065409Y029200D02*
X066897D01*
X065400Y029906D02*
Y030115D01*
X064855D02*
X065445D01*
X064855Y030985D02*
X065445D01*
X065000Y034941D02*
Y035351D01*
X065200Y033040D02*
Y033760D01*
Y035008D02*
Y035351D01*
X065443Y031800D02*
X066897D01*
X065400Y033040D02*
Y033760D01*
X065443Y035000D02*
X066897D01*
X065400Y035008D02*
Y035351D01*
X065506Y029800D02*
X066897D01*
X065559Y029400D02*
X066897D01*
X065582Y029600D02*
X066897D01*
X065574Y030200D02*
X066897D01*
X065585Y030255D02*
Y030845D01*
Y030800D02*
X066897D01*
X065585Y030400D02*
X066897D01*
X065585Y030600D02*
X066897D01*
X065776Y032000D02*
X066897D01*
X065894Y032200D02*
X066897D01*
X065932Y032400D02*
X066897D01*
X065541Y033000D02*
X066897D01*
X065905Y032600D02*
X066897D01*
X065600Y032972D02*
Y033828D01*
Y034941D02*
Y035351D01*
X065800Y032803D02*
Y033997D01*
Y034771D02*
Y035351D01*
X065541Y033800D02*
X066897D01*
X065802Y032800D02*
X066897D01*
X065802Y034000D02*
X066897D01*
X065894Y034600D02*
X066897D01*
X065776Y034800D02*
X066897D01*
X065905Y034200D02*
X066897D01*
X065932Y034400D02*
X066897D01*
G54D14*
X064700Y023550D02*
X065150D01*
X064375Y023225D02*
X064700Y023550D01*
X060800Y023225D02*
X064375D01*
X064600Y022550D02*
X065150D01*
X064425Y022725D02*
X064600Y022550D01*
X060800Y022725D02*
X064425D01*
X064475Y020225D02*
X065150Y019550D01*
X060800Y020225D02*
X064475D01*
Y021225D02*
X065150Y020550D01*
X060800Y021225D02*
X064475D01*
Y022225D02*
X065150Y021550D01*
X060800Y022225D02*
X064475D01*
X062750Y026950D02*
X065150Y024550D01*
X063350Y027350D02*
X065150Y025550D01*
X063950Y027750D02*
X065150Y026550D01*
X060700Y027750D02*
X063950D01*
X064550Y028150D02*
X065150Y027550D01*
X060700Y028150D02*
X064550D01*
X061300Y029550D02*
X064050D01*
X059600Y027850D02*
X061300Y029550D01*
X059600Y027350D02*
Y027850D01*
X060700Y026950D02*
X062750D01*
X060700Y027350D02*
X063350D01*
X061150Y023800D02*
Y024050D01*
X060900D02*
X061150D01*
Y024300*
X062394Y031700D02*
Y032066D01*
Y031334D02*
Y031700D01*
X062759*
X062394Y033584D02*
Y033950D01*
Y034316*
Y033950D02*
X062759D01*
X063850Y023800D02*
Y024050D01*
X064755Y014550D02*
X065150D01*
Y014155D02*
Y014550D01*
Y014945*
Y014550D02*
X065545D01*
X063850Y024050D02*
X064100D01*
X063850D02*
Y024300D01*
X064708Y032416D02*
X065300D01*
Y031824D02*
Y032416D01*
Y033008*
Y032416D02*
X065892D01*
G54D18*
X061606Y031700D03*
Y033950D03*
G54D19*
X062394Y031700D03*
Y033950D03*
G54D20*
X065150Y030550D03*
G54D21*
X065150Y014550D03*
Y015550D03*
Y016550D03*
Y017550D03*
Y018550D03*
Y019550D03*
Y020550D03*
Y021550D03*
Y022550D03*
Y023550D03*
Y024550D03*
Y025550D03*
Y026550D03*
Y027550D03*
Y028550D03*
Y029550D03*
G54D22*
X035888Y015588D03*
X040612D03*
X035888Y020312D03*
X040612D03*
X038250Y021100D03*
X053112Y029812D03*
X048388D03*
X053112Y025088D03*
X048388D03*
X050750Y024300D03*
X015612Y029812D03*
X010888D03*
X015612Y025088D03*
X010888D03*
X013250Y024300D03*
X029638Y015588D03*
X034362D03*
X029638Y020312D03*
X034362D03*
X032000Y021100D03*
X059362Y029812D03*
X054638D03*
X059362Y025088D03*
X054638D03*
X057000Y024300D03*
X021862Y029812D03*
X017138D03*
X021862Y025088D03*
X017138D03*
X019500Y024300D03*
X023388Y015588D03*
X028112D03*
X023388Y020312D03*
X028112D03*
X025750Y021100D03*
X054638Y015588D03*
X059362D03*
X054638Y020312D03*
X059362D03*
X057000Y021100D03*
X028112Y029812D03*
X023388D03*
X028112Y025088D03*
X023388D03*
X025750Y024300D03*
X017138Y015588D03*
X021862D03*
X017138Y020312D03*
X021862D03*
X019500Y021100D03*
X048388Y015588D03*
X053112D03*
X048388Y020312D03*
X053112D03*
X050750Y021100D03*
X034362Y029812D03*
X029638D03*
X034362Y025088D03*
X029638D03*
X032000Y024300D03*
X010888Y015588D03*
X015612D03*
X010888Y020312D03*
X015612D03*
X013250Y021100D03*
X042138Y015588D03*
X046862D03*
X042138Y020312D03*
X046862D03*
X044500Y021100D03*
X040612Y029812D03*
X035888D03*
X040612Y025088D03*
X035888D03*
X038250Y024300D03*
X046862Y029812D03*
X042138D03*
X046862Y025088D03*
X042138D03*
X044500Y024300D03*
G54D23*
X036250Y012450D03*
X038250D03*
X040250D03*
X052750Y032950D03*
X050750D03*
X048750D03*
X015250D03*
X013250D03*
X011250D03*
X030000Y012450D03*
X032000D03*
X034000D03*
X059000Y032950D03*
X057000D03*
X055000D03*
X021500D03*
X019500D03*
X017500D03*
X023750Y012450D03*
X025750D03*
X027750D03*
X055000D03*
X057000D03*
X059000D03*
X027750Y032950D03*
X025750D03*
X023750D03*
X017500Y012450D03*
X019500D03*
X021500D03*
X048750D03*
X050750D03*
X052750D03*
X034000Y032950D03*
X032000D03*
X030000D03*
X011250Y012450D03*
X013250D03*
X015250D03*
X042500D03*
X044500D03*
X046500D03*
X040250Y032950D03*
X038250D03*
X036250D03*
X065300Y032416D03*
Y034384D03*
X046500Y032950D03*
X044500D03*
X042500D03*
G54D24*
X060800Y023225D03*
Y020225D03*
Y021225D03*
Y022725D03*
Y022225D03*
X063400Y025700D03*
X060700Y026950D03*
Y027750D03*
Y028150D03*
X059600Y027350D03*
X064050Y029550D03*
Y019075D03*
X061150Y024050D03*
X063850D03*
X060700Y027350D03*
G54D25*
X025750Y032950D02*
D01*
Y024300D02*
Y032950D01*
X032000D02*
D01*
Y024300D02*
Y032950D01*
X038250D02*
D01*
Y024300D02*
Y032950D01*
X044500D02*
D01*
Y024300D02*
Y032950D01*
X050750D02*
D01*
Y024300D02*
Y032950D01*
X057000D02*
D01*
Y024300D02*
Y032950D01*
Y012450D02*
D01*
Y021100D01*
X050750Y012450D02*
D01*
Y021100D01*
X044500Y012450D02*
D01*
Y021100D01*
X038250Y012450D02*
D01*
Y021100D01*
X032000Y012450D02*
D01*
Y021100D01*
X025750Y012450D02*
D01*
Y021100D01*
X019500Y012450D02*
Y021100D01*
X013250Y012450D02*
D01*
Y021100*
X010888Y012812D02*
X011250Y012450D01*
X010888Y012812D02*
Y015588D01*
X015250Y012450D02*
X015612Y012812D01*
Y015588*
X017138Y012812D02*
X017500Y012450D01*
X017138Y012812D02*
Y015588D01*
X021500Y012450D02*
X021862Y012812D01*
Y015588*
X023388Y012812D02*
X023750Y012450D01*
X023388Y012812D02*
Y015588D01*
X027750Y012450D02*
X028112Y012812D01*
Y015588*
X029638Y012812D02*
X030000Y012450D01*
X029638Y012812D02*
Y015588D01*
X034000Y012450D02*
X034362Y012812D01*
Y015588*
X035888Y012812D02*
X036250Y012450D01*
X035888Y012812D02*
Y015588D01*
X040250Y012450D02*
X040612Y012812D01*
Y015588*
X042138Y012812D02*
X042500Y012450D01*
X042138Y012812D02*
Y015588D01*
X046500Y012450D02*
X046862Y012812D01*
Y015588*
X048388Y012812D02*
X048750Y012450D01*
X048388Y012812D02*
Y015588D01*
X052750Y012450D02*
X053112Y012812D01*
Y015588*
X054638Y012812D02*
X055000Y012450D01*
X054638Y012812D02*
Y015588D01*
X059000Y012450D02*
X059362Y012812D01*
Y015588*
X059000Y032950D02*
X059362Y032588D01*
Y029812D02*
Y032588D01*
X054638D02*
X055000Y032950D01*
X054638Y029812D02*
Y032588D01*
X046862Y029812D02*
Y032588D01*
X046500Y032950D02*
X046862Y032588D01*
X052750Y032950D02*
X053112Y032588D01*
Y029812D02*
Y032588D01*
X048388D02*
X048750Y032950D01*
X048388Y029812D02*
Y032588D01*
X042138D02*
X042500Y032950D01*
X042138Y029812D02*
Y032588D01*
X040250Y032950D02*
X040612Y032588D01*
Y029812D02*
Y032588D01*
X035888D02*
X036250Y032950D01*
X035888Y029812D02*
Y032588D01*
X034000Y032950D02*
X034362Y032588D01*
Y029812D02*
Y032588D01*
X029638D02*
X030000Y032950D01*
X029638Y029812D02*
Y032588D01*
X027750Y032950D02*
X028112Y032588D01*
Y029812D02*
Y032588D01*
X023388D02*
X023750Y032950D01*
X023388Y029812D02*
Y032588D01*
X021500Y032950D02*
X021862Y032588D01*
Y029812D02*
Y032588D01*
X019500Y032950D02*
D01*
Y024300D02*
Y032950D01*
X013250D02*
D01*
Y024300D02*
Y032950D01*
X017138Y032588D02*
X017500Y032950D01*
X017138Y029812D02*
Y032588D01*
X015612Y029812D02*
Y032588D01*
X015250Y032950D02*
X015612Y032588D01*
X010888D02*
X011250Y032950D01*
X010888Y029812D02*
Y032588D01*
G54D26*
X061606Y030356D02*
Y031700D01*
X058900Y027650D02*
X061606Y030356D01*
X058900Y025550D02*
Y027650D01*
Y025550D02*
X059362Y025088D01*
X062788*
X063400Y025700*
X059175Y019075D02*
X064050D01*
X058600Y019650D02*
X059175Y019075D01*
X058600Y019650D02*
Y023300D01*
X059362Y024062*
Y025088*
X061150Y024050D02*
X063850D01*
M02*