%FSDAX24Y24*%
%MOIN*%
%SFA1B1*%

%IPPOS*%
%ADD10C,0.008000*%
%ADD11O,0.086600X0.023600*%
%ADD12R,0.043300X0.039400*%
%ADD13R,0.051200X0.059100*%
%ADD14C,0.010000*%
%ADD15C,0.020000*%
%ADD16C,0.039400*%
%ADD17C,0.050000*%
%ADD18R,0.053100X0.053100*%
%ADD19C,0.053100*%
%ADD20R,0.059100X0.059100*%
%ADD21C,0.059100*%
%ADD22C,0.078700*%
%ADD23C,0.098400*%
%ADD24C,0.030000*%
%LNde-270124-1*%
%LPD*%
G54D10*
X059172Y019488D02*
D01*
X059172Y019474*
X059173Y019461*
X059176Y019448*
X059179Y019435*
X059183Y019423*
X059188Y019410*
X059194Y019398*
X059200Y019387*
X059208Y019376*
X059216Y019365*
X059225Y019356*
X059228Y019353*
X059172Y019488D02*
D01*
X059172Y019474*
X059173Y019461*
X059176Y019448*
X059179Y019435*
X059183Y019423*
X059188Y019410*
X059194Y019398*
X059200Y019387*
X059208Y019376*
X059216Y019365*
X059225Y019356*
X059228Y019353*
X059552Y019813D02*
D01*
X059586Y019827*
X059619Y019844*
X059651Y019863*
X059682Y019884*
X059711Y019908*
X059738Y019933*
X059764Y019960*
X059787Y019989*
X059809Y020019*
X059828Y020051*
X059845Y020085*
X059859Y020119*
X059872Y020154*
X059881Y020190*
X059889Y020227*
X059893Y020264*
X059895Y020301*
X059896Y020312*
D01*
X059894Y020349*
X059890Y020386*
X059884Y020423*
X059875Y020459*
X059863Y020494*
X059849Y020529*
X059833Y020562*
X059814Y020594*
X059794Y020625*
X059771Y020655*
X059746Y020682*
X059719Y020708*
X059690Y020732*
X059660Y020754*
X059629Y020774*
X059596Y020791*
X059562Y020807*
X059527Y020819*
X059491Y020830*
X059454Y020837*
X059417Y020843*
X059380Y020845*
X059343*
X059306Y020843*
X059269Y020837*
X059232Y020830*
X059196Y020819*
X059161Y020807*
X059127Y020791*
X059095Y020774*
X059063Y020754*
X059033Y020732*
X059004Y020708*
X058977Y020682*
X058952Y020655*
X058929Y020625*
X058909Y020594*
X058890Y020562*
X058874Y020529*
X058860Y020494*
X058848Y020459*
X058839Y020423*
X058833Y020386*
X058829Y020349*
X058828Y020312*
X058829Y020274*
X058833Y020237*
X058839Y020200*
X058848Y020164*
X058860Y020129*
X058874Y020094*
X058890Y020061*
X058909Y020029*
X058929Y019998*
X058952Y019968*
X058977Y019941*
X059004Y019915*
X059033Y019891*
X059063Y019869*
X059095Y019849*
X059127Y019832*
X059161Y019816*
X059172Y019813*
X058965Y021978D02*
D01*
X058970Y021969*
X058976Y021962*
X058983Y021955*
X058990Y021948*
X058997Y021942*
X059005Y021936*
X059014Y021931*
X059022Y021926*
X059031Y021922*
X059040Y021919*
X059050Y021917*
X059059Y021915*
X059069Y021913*
X059079Y021913*
X059083Y021913*
X058847D02*
D01*
X058856Y021913*
X058866Y021914*
X058876Y021916*
X058885Y021918*
X058894Y021921*
X058903Y021925*
X058912Y021929*
X058921Y021934*
X058929Y021939*
X058936Y021945*
X058944Y021952*
X058951Y021959*
X058957Y021966*
X058963Y021974*
X058965Y021978*
X059517Y021913D02*
D01*
X059526Y021913*
X059536Y021914*
X059546Y021916*
X059555Y021918*
X059564Y021921*
X059573Y021925*
X059582Y021929*
X059591Y021934*
X059599Y021939*
X059606Y021945*
X059614Y021952*
X059621Y021959*
X059627Y021966*
X059633Y021974*
X059638Y021983*
X059642Y021991*
X059646Y022000*
X059650Y022009*
X059652Y022019*
X059654Y022028*
X059656Y022038*
X059656Y022048*
X059657Y022053*
Y022447D02*
D01*
X059656Y022456*
X059655Y022466*
X059653Y022476*
X059651Y022485*
X059648Y022494*
X059644Y022503*
X059640Y022512*
X059635Y022521*
X059633Y022525*
D01*
X059641Y022529*
X059650Y022533*
X059658Y022538*
X059666Y022544*
X059674Y022550*
X059681Y022557*
X059687Y022565*
X059693Y022572*
X059699Y022580*
X059704Y022589*
X059708Y022598*
X059712Y022607*
X059715Y022616*
X059717Y022626*
X059719Y022635*
X059720Y022645*
X059720Y022655*
X061019Y020415D02*
D01*
X061005Y020429*
X060990Y020443*
X060974Y020456*
X060958Y020468*
X060940Y020478*
X060922Y020487*
X060904Y020495*
X060885Y020502*
X060865Y020507*
X060845Y020511*
X060825Y020513*
X060805Y020514*
X060785Y020514*
X060764Y020512*
X060744Y020509*
X060725Y020505*
X060705Y020499*
X060686Y020491*
X060668Y020483*
X060650Y020473*
X060633Y020462*
X060617Y020450*
X060602Y020437*
X060588Y020422*
X060574Y020407*
X060562Y020391*
X060551Y020374*
X060541Y020356*
X060533Y020338*
X060525Y020319*
X060520Y020300*
X060515Y020280*
X060512Y020260*
X060510Y020240*
X060510Y020220*
X060511Y020200*
X060513Y020179*
X060517Y020160*
X060522Y020140*
X060529Y020121*
X060537Y020102*
X060546Y020084*
X060556Y020067*
X060568Y020050*
X060581Y020035*
X060594Y020020*
X060609Y020006*
X060625Y019993*
X060641Y019981*
X060659Y019971*
X060677Y019962*
X060695Y019954*
X060714Y019947*
X060734Y019942*
X060754Y019938*
X060774Y019936*
X060794Y019935*
X060814Y019935*
X060835Y019937*
X060855Y019940*
X060874Y019944*
X060894Y019950*
X060913Y019958*
X060931Y019966*
X060949Y019976*
X060966Y019987*
X060982Y019999*
X060997Y020012*
X061011Y020027*
X061019Y020035*
Y021415D02*
D01*
X061005Y021429*
X060990Y021443*
X060974Y021456*
X060958Y021468*
X060940Y021478*
X060922Y021487*
X060904Y021495*
X060885Y021502*
X060865Y021507*
X060845Y021511*
X060825Y021513*
X060805Y021514*
X060785Y021514*
X060764Y021512*
X060744Y021509*
X060725Y021505*
X060705Y021499*
X060686Y021491*
X060668Y021483*
X060650Y021473*
X060633Y021462*
X060617Y021450*
X060602Y021437*
X060588Y021422*
X060574Y021407*
X060562Y021391*
X060551Y021374*
X060541Y021356*
X060533Y021338*
X060525Y021319*
X060520Y021300*
X060515Y021280*
X060512Y021260*
X060510Y021240*
X060510Y021220*
X060511Y021200*
X060513Y021179*
X060517Y021160*
X060522Y021140*
X060529Y021121*
X060537Y021102*
X060546Y021084*
X060556Y021067*
X060568Y021050*
X060581Y021035*
X060594Y021020*
X060609Y021006*
X060625Y020993*
X060641Y020981*
X060659Y020971*
X060677Y020962*
X060695Y020954*
X060714Y020947*
X060734Y020942*
X060754Y020938*
X060774Y020936*
X060794Y020935*
X060814Y020935*
X060835Y020937*
X060855Y020940*
X060874Y020944*
X060894Y020950*
X060913Y020958*
X060931Y020966*
X060949Y020976*
X060966Y020987*
X060982Y020999*
X060997Y021012*
X061011Y021027*
X061019Y021035*
X060653Y022475D02*
D01*
X060635Y022464*
X060619Y022452*
X060604Y022438*
X060589Y022424*
X060576Y022409*
X060564Y022393*
X060552Y022376*
X060542Y022359*
X060534Y022340*
X060526Y022322*
X060520Y022302*
X060515Y022283*
X060512Y022263*
X060510Y022242*
X060509Y022222*
X060510Y022202*
X060513Y022182*
X060516Y022162*
X060521Y022142*
X060528Y022123*
X060536Y022104*
X060545Y022086*
X060555Y022069*
X060566Y022052*
X060579Y022036*
X060592Y022021*
X060607Y022007*
X060623Y021995*
X060639Y021983*
X060656Y021972*
X060674Y021963*
X060693Y021955*
X060712Y021948*
X060732Y021943*
X060751Y021938*
X060771Y021936*
X060792Y021935*
X060812Y021935*
X060832Y021936*
X060852Y021939*
X060872Y021944*
X060891Y021949*
X060910Y021956*
X060929Y021965*
X060947Y021975*
X060964Y021985*
X060980Y021997*
X060995Y022011*
X061010Y022025*
X061019Y022035*
X060653Y022975D02*
D01*
X060635Y022964*
X060619Y022952*
X060604Y022938*
X060589Y022924*
X060576Y022909*
X060564Y022893*
X060552Y022876*
X060542Y022859*
X060534Y022840*
X060526Y022822*
X060520Y022802*
X060515Y022783*
X060512Y022763*
X060510Y022742*
X060509Y022722*
X060510Y022702*
X060513Y022682*
X060516Y022662*
X060521Y022642*
X060528Y022623*
X060536Y022604*
X060545Y022586*
X060555Y022569*
X060566Y022552*
X060579Y022536*
X060592Y022521*
X060607Y022507*
X060623Y022495*
X060639Y022483*
X060653Y022475*
X061019Y023415D02*
D01*
X061005Y023429*
X060990Y023443*
X060974Y023456*
X060958Y023468*
X060940Y023478*
X060922Y023487*
X060904Y023495*
X060885Y023502*
X060865Y023507*
X060845Y023511*
X060825Y023513*
X060805Y023514*
X060785Y023514*
X060764Y023512*
X060744Y023509*
X060725Y023505*
X060705Y023499*
X060686Y023491*
X060668Y023483*
X060650Y023473*
X060633Y023462*
X060617Y023450*
X060602Y023437*
X060588Y023422*
X060574Y023407*
X060562Y023391*
X060551Y023374*
X060541Y023356*
X060533Y023338*
X060525Y023319*
X060520Y023300*
X060515Y023280*
X060512Y023260*
X060510Y023240*
X060510Y023220*
X060511Y023200*
X060513Y023179*
X060517Y023160*
X060522Y023140*
X060529Y023121*
X060537Y023102*
X060546Y023084*
X060556Y023067*
X060568Y023050*
X060581Y023035*
X060594Y023020*
X060609Y023006*
X060625Y022993*
X060641Y022981*
X060653Y022975*
X061291Y011736D02*
D01*
X061300Y011726*
X061310Y011718*
X061321Y011710*
X061333Y011703*
X061344Y011697*
X061357Y011692*
X061369Y011688*
X061382Y011684*
X061395Y011682*
X061408Y011680*
X061421Y011679*
X061425Y011680*
X061291Y011736D02*
D01*
X061300Y011726*
X061310Y011718*
X061321Y011711*
X061333Y011704*
X061344Y011698*
X061357Y011693*
X061369Y011688*
X061382Y011685*
X061395Y011682*
X061408Y011681*
X061421Y011680*
X061425Y011680*
X060940Y013362D02*
D01*
X060943Y013344*
X060947Y013326*
X060953Y013309*
X060960Y013293*
X060968Y013277*
X060977Y013261*
X060987Y013246*
X060998Y013232*
X061011Y013219*
X061024Y013206*
X061037Y013195*
X061052Y013185*
X061067Y013175*
X061083Y013167*
X061100Y013160*
X061117Y013154*
X061134Y013149*
X061152Y013145*
X061170Y013143*
X061188Y013142*
X061195Y013142*
X061960Y013000D02*
D01*
X061960Y012986*
X061961Y012973*
X061964Y012960*
X061967Y012947*
X061971Y012935*
X061976Y012922*
X061982Y012910*
X061988Y012899*
X061996Y012888*
X062004Y012877*
X062013Y012868*
X062016Y012866*
X062416Y012466D02*
D01*
X062425Y012456*
X062435Y012448*
X062446Y012441*
X062458Y012434*
X062469Y012428*
X062482Y012423*
X062494Y012418*
X062507Y012415*
X062520Y012412*
X062533Y012411*
X062546Y012410*
X062550Y012410*
X061825Y013142D02*
D01*
X061842Y013142*
X061860Y013144*
X061878Y013147*
X061896Y013151*
X061913Y013157*
X061929Y013164*
X061946Y013172*
X061960Y013180*
Y013000D02*
D01*
X061960Y012986*
X061961Y012973*
X061964Y012960*
X061967Y012947*
X061971Y012935*
X061976Y012922*
X061982Y012910*
X061988Y012899*
X061996Y012888*
X062004Y012877*
X062013Y012868*
X062016Y012865*
X062415Y012466D02*
D01*
X062424Y012456*
X062434Y012448*
X062445Y012440*
X062457Y012433*
X062468Y012427*
X062481Y012422*
X062493Y012418*
X062506Y012414*
X062519Y012412*
X062532Y012410*
X062545Y012409*
X062550Y012410*
X061131Y014150D02*
D01*
X061113Y014144*
X061096Y014138*
X061080Y014131*
X061064Y014122*
X061049Y014113*
X061034Y014102*
X061021Y014090*
X061008Y014078*
X060996Y014064*
X060985Y014050*
X060975Y014035*
X060966Y014019*
X060958Y014003*
X060951Y013986*
X060946Y013969*
X060942Y013952*
X060940Y013938*
X061131Y013650D02*
D01*
X061113Y013644*
X061096Y013638*
X061080Y013631*
X061064Y013622*
X061049Y013613*
X061034Y013602*
X061021Y013590*
X061008Y013578*
X060996Y013564*
X060985Y013550*
X060975Y013535*
X060966Y013519*
X060958Y013503*
X060951Y013486*
X060946Y013469*
X060942Y013452*
X060940Y013438*
Y013862D02*
D01*
X060943Y013844*
X060947Y013826*
X060953Y013809*
X060960Y013793*
X060968Y013777*
X060977Y013761*
X060987Y013746*
X060998Y013732*
X061011Y013719*
X061024Y013706*
X061037Y013695*
X061052Y013685*
X061067Y013675*
X061083Y013667*
X061100Y013660*
X061117Y013654*
X061131Y013650*
X060940Y014362D02*
D01*
X060943Y014344*
X060947Y014326*
X060953Y014309*
X060960Y014293*
X060968Y014277*
X060977Y014261*
X060987Y014246*
X060998Y014232*
X061011Y014219*
X061024Y014206*
X061037Y014195*
X061052Y014185*
X061067Y014175*
X061083Y014167*
X061100Y014160*
X061117Y014154*
X061131Y014150*
Y014650D02*
D01*
X061113Y014644*
X061096Y014638*
X061080Y014631*
X061064Y014622*
X061049Y014613*
X061034Y014602*
X061021Y014590*
X061008Y014578*
X060996Y014564*
X060985Y014550*
X060975Y014535*
X060966Y014519*
X060958Y014503*
X060951Y014486*
X060946Y014469*
X060942Y014452*
X060940Y014438*
Y014862D02*
D01*
X060943Y014844*
X060947Y014826*
X060953Y014809*
X060960Y014793*
X060968Y014777*
X060977Y014761*
X060987Y014746*
X060998Y014732*
X061011Y014719*
X061024Y014706*
X061037Y014695*
X061052Y014685*
X061067Y014675*
X061083Y014667*
X061100Y014660*
X061117Y014654*
X061131Y014650*
X061021Y015210D02*
D01*
X061034Y015198*
X061049Y015187*
X061064Y015177*
X061080Y015169*
X061096Y015161*
X061113Y015155*
X061130Y015150*
X061131Y015150*
D01*
X061113Y015144*
X061096Y015138*
X061080Y015131*
X061064Y015122*
X061049Y015113*
X061034Y015102*
X061021Y015090*
X061008Y015078*
X060996Y015064*
X060985Y015050*
X060975Y015035*
X060966Y015019*
X060958Y015003*
X060951Y014986*
X060946Y014969*
X060942Y014952*
X060940Y014938*
X061131Y020975D02*
D01*
X061113Y020969*
X061096Y020963*
X061080Y020956*
X061064Y020947*
X061049Y020938*
X061034Y020927*
X061021Y020915*
X061008Y020903*
X060996Y020889*
X060985Y020875*
X060975Y020860*
X060966Y020844*
X060958Y020828*
X060951Y020811*
X060946Y020794*
X060942Y020777*
X060939Y020759*
X060937Y020741*
X060936Y020723*
X060937Y020705*
X060939Y020687*
X060942Y020669*
X060947Y020652*
X060953Y020635*
X060959Y020618*
X060967Y020602*
X060977Y020586*
X060987Y020572*
X060998Y020557*
X061010Y020544*
X061023Y020532*
X061037Y020520*
X061052Y020510*
X061067Y020500*
X061083Y020492*
X061099Y020485*
X061116Y020479*
X061131Y020475*
X061021Y020035D02*
D01*
X061034Y020023*
X061049Y020012*
X061064Y020002*
X061080Y019994*
X061096Y019986*
X061113Y019980*
X061130Y019975*
X061131Y019975*
Y020475D02*
D01*
X061113Y020469*
X061096Y020463*
X061080Y020456*
X061064Y020447*
X061049Y020438*
X061034Y020427*
X061021Y020415*
X061021Y020415*
Y021035D02*
D01*
X061034Y021023*
X061049Y021012*
X061064Y021002*
X061080Y020994*
X061096Y020986*
X061113Y020980*
X061130Y020975*
X061131Y020975*
X061021Y022035D02*
D01*
X061034Y022023*
X061049Y022012*
X061064Y022002*
X061080Y021994*
X061096Y021986*
X061113Y021980*
X061130Y021975*
X061131Y021975*
Y019975D02*
D01*
X061113Y019969*
X061096Y019963*
X061080Y019956*
X061064Y019947*
X061049Y019938*
X061034Y019927*
X061021Y019915*
X061008Y019903*
X060996Y019889*
X060985Y019875*
X060975Y019860*
X060966Y019844*
X060958Y019828*
X060951Y019811*
X060946Y019794*
X060942Y019777*
X060939Y019759*
X060937Y019741*
X060936Y019723*
X060937Y019705*
X060939Y019687*
X060942Y019669*
X060947Y019652*
X060953Y019635*
X060959Y019618*
X060967Y019602*
X060977Y019586*
X060987Y019572*
X060998Y019557*
X061010Y019544*
X061023Y019532*
X061037Y019520*
X061052Y019510*
X061067Y019500*
X061083Y019492*
X061099Y019485*
X061116Y019479*
X061134Y019474*
X061151Y019470*
X061169Y019468*
X061187Y019467*
X061195Y019467*
X061131Y021975D02*
D01*
X061113Y021969*
X061096Y021963*
X061080Y021956*
X061064Y021947*
X061049Y021938*
X061034Y021927*
X061021Y021915*
X061008Y021903*
X060996Y021889*
X060985Y021875*
X060975Y021860*
X060966Y021844*
X060958Y021828*
X060951Y021811*
X060946Y021794*
X060942Y021777*
X060939Y021759*
X060937Y021741*
X060936Y021723*
X060937Y021705*
X060939Y021687*
X060942Y021669*
X060947Y021652*
X060953Y021635*
X060959Y021618*
X060967Y021602*
X060977Y021586*
X060987Y021572*
X060998Y021557*
X061010Y021544*
X061023Y021532*
X061037Y021520*
X061052Y021510*
X061067Y021500*
X061083Y021492*
X061099Y021485*
X061116Y021479*
X061131Y021475*
D01*
X061113Y021469*
X061096Y021463*
X061080Y021456*
X061064Y021447*
X061049Y021438*
X061034Y021427*
X061021Y021415*
X061021Y021415*
X061825Y019467D02*
D01*
X061842Y019467*
X061860Y019469*
X061878Y019472*
X061896Y019476*
X061913Y019482*
X061930Y019489*
X062074Y022293D02*
D01*
X062068Y022310*
X062062Y022326*
X062054Y022343*
X062045Y022358*
X062035Y022374*
X062024Y022388*
X062012Y022401*
X062000Y022414*
X061986Y022426*
X061972Y022437*
X061956Y022446*
X061941Y022455*
X061924Y022463*
X061907Y022469*
X061890Y022474*
X061889Y022475*
X063973Y020725D02*
D01*
X063972Y020742*
X063970Y020760*
X063967Y020778*
X063963Y020796*
X063957Y020813*
X063950Y020829*
X063942Y020846*
X063933Y020861*
X063923Y020876*
X063912Y020890*
X063900Y020904*
X063887Y020916*
X063873Y020928*
X063859Y020938*
X063844Y020948*
X063828Y020956*
X063811Y020964*
X063794Y020970*
X063779Y020975*
X063973Y019725D02*
D01*
X063972Y019742*
X063970Y019760*
X063967Y019778*
X063963Y019796*
X063957Y019813*
X063950Y019829*
X063942Y019846*
X063933Y019861*
X063923Y019876*
X063912Y019890*
X063900Y019904*
X063887Y019916*
X063873Y019928*
X063859Y019938*
X063844Y019948*
X063828Y019956*
X063811Y019964*
X063794Y019970*
X063779Y019975*
Y020475D02*
D01*
X063796Y020480*
X063813Y020486*
X063829Y020493*
X063845Y020502*
X063860Y020511*
X063875Y020522*
X063888Y020534*
X063901Y020546*
X063913Y020560*
X063924Y020574*
X063934Y020589*
X063943Y020605*
X063951Y020621*
X063958Y020638*
X063963Y020655*
X063967Y020672*
X063970Y020690*
X063972Y020708*
X063973Y020725*
X061889Y022475D02*
D01*
X061906Y022480*
X061923Y022486*
X061939Y022493*
X061955Y022502*
X061970Y022511*
X061985Y022522*
X061998Y022534*
X062011Y022546*
X062023Y022560*
X062034Y022574*
X062044Y022589*
X062053Y022605*
X062061Y022621*
X062068Y022638*
X062073Y022655*
X062077Y022672*
X062080Y022690*
X062082Y022708*
X062083Y022725*
D01*
X062082Y022742*
X062080Y022760*
X062077Y022778*
X062073Y022796*
X062067Y022813*
X062060Y022829*
X062052Y022846*
X062043Y022861*
X062033Y022876*
X062022Y022890*
X062010Y022904*
X061997Y022916*
X061983Y022928*
X061969Y022938*
X061954Y022948*
X061938Y022956*
X061921Y022964*
X061904Y022970*
X061889Y022975*
D01*
X061906Y022980*
X061923Y022986*
X061939Y022993*
X061955Y023002*
X061970Y023011*
X061985Y023022*
X061998Y023034*
X062011Y023046*
X062023Y023060*
X062034Y023074*
X062044Y023089*
X062053Y023105*
X062061Y023121*
X062068Y023138*
X062073Y023155*
X062077Y023172*
X062080Y023190*
X062082Y023208*
X062083Y023225*
X062775Y022915D02*
D01*
X062761Y022914*
X062748Y022913*
X062735Y022910*
X062722Y022907*
X062710Y022903*
X062697Y022898*
X062685Y022892*
X062674Y022886*
X062663Y022878*
X062652Y022870*
X062643Y022861*
X062640Y022859*
X062775Y022915D02*
D01*
X062761Y022914*
X062748Y022913*
X062735Y022910*
X062722Y022907*
X062710Y022903*
X062697Y022898*
X062685Y022892*
X062674Y022886*
X062663Y022878*
X062652Y022870*
X062643Y022861*
X062641Y022859*
X063021Y022975D02*
D01*
X063003Y022969*
X062986Y022963*
X062970Y022956*
X062954Y022947*
X062939Y022938*
X062924Y022927*
X062911Y022915*
X062910Y022915*
X063085Y023483D02*
D01*
X063067Y023482*
X063049Y023480*
X063031Y023477*
X063013Y023473*
X062996Y023467*
X062980Y023460*
X062963Y023452*
X062948Y023443*
X062933Y023433*
X062919Y023422*
X062905Y023410*
X062893Y023397*
X062881Y023383*
X062871Y023369*
X062861Y023354*
X062853Y023338*
X062845Y023321*
X062839Y023304*
X062834Y023287*
X062830Y023269*
X062828Y023251*
X062827Y023234*
Y023215*
X062828Y023198*
X062830Y023180*
X062834Y023162*
X062839Y023145*
X062845Y023128*
X062853Y023111*
X062861Y023096*
X062871Y023080*
X062881Y023066*
X062893Y023052*
X062905Y023039*
X062919Y023027*
X062933Y023016*
X062948Y023006*
X062963Y022997*
X062980Y022989*
X062996Y022982*
X063013Y022976*
X063021Y022975*
X059600Y023824D02*
D01*
X059616Y023841*
X059630Y023859*
X059644Y023878*
X059656Y023898*
X059667Y023919*
X059676Y023941*
X059683Y023963*
X059689Y023986*
X059694Y024009*
X059697Y024032*
X059698Y024056*
X059699Y024062*
X059720Y023245D02*
D01*
X059719Y023254*
X059718Y023264*
X059716Y023274*
X059714Y023283*
X059711Y023292*
X059707Y023301*
X059703Y023310*
X059698Y023319*
X059693Y023327*
X059687Y023334*
X059680Y023342*
X059673Y023349*
X059666Y023355*
X059658Y023361*
X059650Y023366*
X059641Y023370*
X059632Y023374*
X059623Y023378*
X059613Y023380*
X059604Y023382*
X059594Y023384*
X059584Y023384*
X059580Y023385*
X059600Y023824D02*
D01*
X059616Y023841*
X059630Y023859*
X059644Y023878*
X059656Y023898*
X059667Y023919*
X059676Y023941*
X059683Y023963*
X059689Y023986*
X059694Y024009*
X059697Y024032*
X059698Y024056*
X059699Y024062*
X059777Y027120D02*
D01*
X059792Y027132*
X059807Y027146*
X059820Y027161*
X059833Y027177*
X059844Y027194*
X059855Y027211*
X059864Y027230*
X059871Y027248*
X059878Y027267*
X059883Y027287*
X059887Y027307*
X059889Y027327*
X059890Y027347*
X059890Y027350*
X059699Y024674D02*
D01*
X059727Y024698*
X059753Y024724*
X059777Y024753*
X059800Y024782*
X059820Y024814*
X059838Y024846*
X059853Y024880*
X059867Y024915*
X059877Y024951*
X059886Y024987*
X059892Y025024*
X059895Y025061*
X059896Y025085*
X059982Y027064D02*
D01*
X059972Y027073*
X059962Y027081*
X059951Y027089*
X059939Y027096*
X059928Y027102*
X059915Y027107*
X059903Y027111*
X059890Y027115*
X059877Y027117*
X059864Y027119*
X059851Y027120*
X059847Y027120*
X059982Y027064D02*
D01*
X059972Y027073*
X059962Y027081*
X059951Y027088*
X059939Y027095*
X059928Y027101*
X059915Y027106*
X059903Y027111*
X059890Y027114*
X059877Y027117*
X059864Y027118*
X059851Y027119*
X059847Y027120*
X061195Y023483D02*
D01*
X061177Y023482*
X061159Y023480*
X061141Y023477*
X061123Y023473*
X061106Y023467*
X061090Y023460*
X061073Y023452*
X061058Y023443*
X061043Y023433*
X061029Y023422*
X061021Y023415*
X061440Y024050D02*
D01*
X061439Y024070*
X061437Y024090*
X061433Y024110*
X061428Y024129*
X061422Y024149*
X061414Y024167*
X061406Y024186*
X061395Y024203*
X061384Y024220*
X061372Y024236*
X061358Y024251*
X061344Y024265*
X061328Y024278*
X061312Y024290*
X061295Y024301*
X061277Y024310*
X061258Y024318*
X061239Y024325*
X061220Y024331*
X061200Y024335*
X061180Y024338*
X061160Y024339*
X061139*
X061119Y024338*
X061099Y024335*
X061079Y024331*
X061060Y024325*
X061041Y024318*
X061022Y024310*
X061005Y024301*
X060987Y024290*
X060971Y024278*
X060955Y024265*
X060941Y024251*
X060927Y024236*
X060915Y024220*
X060904Y024203*
X060893Y024186*
X060885Y024167*
X060877Y024149*
X060871Y024129*
X060866Y024110*
X060862Y024090*
X060860Y024070*
X060860Y024050*
X060860Y024029*
X060862Y024009*
X060866Y023989*
X060871Y023970*
X060877Y023950*
X060885Y023932*
X060893Y023913*
X060904Y023896*
X060915Y023879*
X060927Y023863*
X060941Y023848*
X060955Y023834*
X060971Y023821*
X060987Y023809*
X061005Y023798*
X061022Y023789*
X061041Y023781*
X061060Y023774*
X061079Y023768*
X061099Y023764*
X061119Y023761*
X061139Y023760*
X061160*
X061180Y023761*
X061200Y023764*
X061220Y023768*
X061239Y023774*
X061258Y023781*
X061277Y023789*
X061295Y023798*
X061312Y023809*
X061328Y023821*
X061344Y023834*
X061358Y023848*
X061372Y023863*
X061384Y023879*
X061395Y023896*
X061406Y023913*
X061414Y023932*
X061422Y023950*
X061428Y023970*
X061433Y023989*
X061437Y024009*
X061439Y024029*
X061440Y024050*
X060421Y027029D02*
D01*
X060404Y027033*
X060388Y027036*
X060371Y027038*
X060355Y027039*
X060338Y027039*
X060321Y027038*
X060305Y027035*
X060288Y027031*
X060272Y027026*
X060257Y027021*
X060241Y027014*
X060227Y027005*
X060213Y026996*
X060199Y026986*
X060187Y026975*
X060175Y026964*
X060164Y026951*
X060154Y026938*
X060144Y026924*
X060136Y026909*
X060136Y026910*
X060490Y027550D02*
D01*
X060476Y027534*
X060464Y027518*
X060453Y027501*
X060443Y027484*
X060434Y027466*
X060426Y027447*
X060420Y027428*
X060415Y027408*
X060412Y027388*
X060410Y027368*
X060410Y027347*
X060410Y027327*
X060413Y027307*
X060416Y027287*
X060421Y027268*
X060428Y027248*
X060435Y027230*
X060444Y027212*
X060455Y027194*
X060466Y027177*
X060479Y027162*
X060490Y027150*
D01*
X060476Y027134*
X060464Y027118*
X060453Y027101*
X060443Y027084*
X060434Y027066*
X060426Y027047*
X060421Y027029*
X060566Y024416D02*
D01*
X060575Y024406*
X060585Y024398*
X060596Y024391*
X060608Y024384*
X060619Y024378*
X060632Y024373*
X060644Y024368*
X060657Y024365*
X060670Y024362*
X060683Y024361*
X060696Y024360*
X060700Y024360*
X060565Y024416D02*
D01*
X060574Y024406*
X060584Y024398*
X060595Y024390*
X060607Y024383*
X060618Y024377*
X060631Y024372*
X060643Y024368*
X060656Y024364*
X060669Y024362*
X060682Y024360*
X060695Y024359*
X060700Y024360*
X059890Y027350D02*
D01*
X059889Y027370*
X059887Y027390*
X059883Y027410*
X059878Y027429*
X059872Y027449*
X059864Y027467*
X059856Y027486*
X059845Y027503*
X059834Y027520*
X059822Y027536*
X059808Y027551*
X059794Y027565*
X059778Y027578*
X059762Y027590*
X059745Y027601*
X059727Y027610*
X059708Y027618*
X059689Y027625*
X059670Y027631*
X059650Y027635*
X059630Y027638*
X059610Y027639*
X059589*
X059569Y027638*
X059549Y027635*
X059529Y027631*
X059510Y027625*
X059491Y027618*
X059472Y027610*
X059455Y027601*
X059437Y027590*
X059421Y027578*
X059405Y027565*
X059391Y027551*
X059377Y027536*
X059365Y027520*
X059354Y027503*
X059343Y027486*
X059335Y027467*
X059327Y027449*
X059321Y027429*
X059316Y027410*
X059312Y027390*
X059310Y027370*
X059310Y027350*
X060490Y027950D02*
D01*
X060476Y027934*
X060464Y027918*
X060453Y027901*
X060443Y027884*
X060434Y027866*
X060426Y027847*
X060420Y027828*
X060415Y027808*
X060412Y027788*
X060410Y027768*
X060410Y027747*
X060410Y027727*
X060413Y027707*
X060416Y027687*
X060421Y027668*
X060428Y027648*
X060435Y027630*
X060444Y027612*
X060455Y027594*
X060466Y027577*
X060479Y027562*
X060490Y027550*
X060976Y028240D02*
D01*
X060969Y028259*
X060960Y028277*
X060951Y028295*
X060940Y028312*
X060928Y028328*
X060915Y028344*
X060901Y028359*
X060886Y028372*
X060870Y028385*
X060853Y028396*
X060836Y028406*
X060817Y028415*
X060799Y028422*
X060779Y028429*
X060760Y028434*
X060740Y028437*
X060719Y028439*
X060699Y028440*
X060679Y028439*
X060659Y028437*
X060639Y028433*
X060619Y028428*
X060600Y028422*
X060581Y028415*
X060563Y028406*
X060545Y028396*
X060529Y028384*
X060513Y028372*
X060498Y028358*
X060484Y028344*
X060471Y028328*
X060459Y028312*
X060448Y028294*
X060438Y028276*
X060430Y028258*
X060423Y028239*
X060418Y028219*
X060414Y028200*
X060411Y028180*
X060409Y028159*
X060409Y028139*
X060411Y028119*
X060414Y028099*
X060418Y028079*
X060424Y028060*
X060430Y028040*
X060439Y028022*
X060448Y028004*
X060459Y027987*
X060471Y027971*
X060484Y027955*
X060490Y027950*
X061131Y028800D02*
D01*
X061113Y028794*
X061096Y028788*
X061080Y028781*
X061064Y028772*
X061049Y028763*
X061034Y028752*
X061021Y028740*
X061008Y028728*
X060996Y028714*
X060985Y028700*
X060975Y028685*
X060966Y028669*
X060958Y028653*
X060951Y028636*
X060946Y028619*
X060942Y028602*
X060939Y028584*
X060937Y028566*
X060936Y028548*
X060937Y028530*
X060939Y028512*
X060942Y028494*
X060947Y028477*
X060953Y028460*
X060959Y028443*
X060967Y028427*
X060977Y028411*
X060987Y028397*
X060998Y028382*
X061010Y028369*
X061023Y028357*
X061037Y028345*
X061052Y028335*
X061067Y028325*
X061083Y028317*
X061099Y028310*
X061116Y028304*
X061131Y028300*
Y029300D02*
D01*
X061113Y029294*
X061096Y029288*
X061080Y029281*
X061064Y029272*
X061049Y029263*
X061034Y029252*
X061021Y029240*
X061008Y029228*
X060996Y029214*
X060985Y029200*
X060975Y029185*
X060966Y029169*
X060958Y029153*
X060951Y029136*
X060946Y029119*
X060942Y029102*
X060939Y029084*
X060937Y029066*
X060936Y029048*
X060937Y029030*
X060939Y029012*
X060942Y028994*
X060947Y028977*
X060953Y028960*
X060959Y028943*
X060967Y028927*
X060977Y028911*
X060987Y028897*
X060998Y028882*
X061010Y028869*
X061023Y028857*
X061037Y028845*
X061052Y028835*
X061067Y028825*
X061083Y028817*
X061099Y028810*
X061116Y028804*
X061131Y028800*
X061195Y029808D02*
D01*
X061177Y029807*
X061159Y029805*
X061141Y029802*
X061123Y029798*
X061106Y029792*
X061090Y029785*
X061073Y029777*
X061058Y029768*
X061043Y029758*
X061029Y029747*
X061015Y029735*
X061003Y029722*
X060991Y029708*
X060981Y029694*
X060971Y029679*
X060963Y029663*
X060955Y029646*
X060949Y029629*
X060944Y029612*
X060940Y029594*
X060938Y029576*
X060937Y029559*
Y029540*
X060938Y029523*
X060940Y029505*
X060944Y029487*
X060949Y029470*
X060955Y029453*
X060963Y029436*
X060971Y029421*
X060981Y029405*
X060991Y029391*
X061003Y029377*
X061015Y029364*
X061029Y029352*
X061043Y029341*
X061058Y029331*
X061073Y029322*
X061090Y029314*
X061106Y029307*
X061123Y029301*
X061131Y029300*
Y028300D02*
D01*
X061113Y028294*
X061096Y028288*
X061080Y028281*
X061064Y028272*
X061049Y028263*
X061034Y028252*
X061021Y028240*
X061021Y028240*
X061872Y031294D02*
D01*
X061881Y031294*
X061891Y031295*
X061901Y031297*
X061910Y031299*
X061919Y031302*
X061928Y031306*
X061937Y031310*
X061946Y031315*
X061954Y031320*
X061961Y031326*
X061969Y031333*
X061976Y031340*
X061982Y031347*
X061988Y031355*
X061993Y031364*
X061997Y031372*
X062001Y031381*
X062005Y031390*
X062007Y031400*
X062009Y031409*
X062011Y031419*
X062011Y031429*
X062012Y031434*
Y034216D02*
D01*
X062011Y034225*
X062010Y034235*
X062008Y034245*
X062006Y034254*
X062006Y034255*
X062083Y023225D02*
D01*
X062082Y023242*
X062080Y023260*
X062077Y023278*
X062073Y023296*
X062067Y023313*
X062060Y023329*
X062052Y023346*
X062043Y023361*
X062033Y023376*
X062022Y023390*
X062010Y023404*
X061997Y023416*
X061983Y023428*
X061969Y023438*
X061954Y023448*
X061938Y023456*
X061921Y023464*
X061904Y023470*
X061887Y023475*
X061869Y023479*
X061851Y023481*
X061834Y023482*
X061825Y023483*
X062700Y030740D02*
D01*
X062686Y030739*
X062673Y030738*
X062660Y030735*
X062647Y030732*
X062635Y030728*
X062622Y030723*
X062610Y030717*
X062599Y030711*
X062588Y030703*
X062577Y030695*
X062568Y030686*
X062566Y030684*
X062700Y030740D02*
D01*
X062686Y030739*
X062673Y030738*
X062660Y030735*
X062647Y030732*
X062635Y030728*
X062622Y030723*
X062610Y030717*
X062599Y030711*
X062588Y030703*
X062577Y030695*
X062568Y030686*
X062565Y030684*
X062012Y031562D02*
D01*
X062022Y031535*
X062034Y031510*
X062049Y031485*
X062064Y031462*
X062082Y031439*
X062101Y031418*
X062121Y031398*
X062143Y031380*
X062166Y031363*
X062190Y031348*
X062215Y031335*
X062240Y031323*
X062267Y031314*
X062294Y031306*
X062322Y031300*
X062350Y031296*
X062378Y031294*
X062407Y031294*
X062435Y031295*
X062463Y031299*
X062491Y031305*
X062518Y031313*
X062545Y031323*
X062571Y031334*
X062596Y031347*
X062620Y031362*
X062643Y031379*
X062665Y031397*
X062685Y031417*
X062704Y031438*
X062722Y031460*
X062737Y031483*
X062752Y031508*
X062764Y031533*
X062775Y031560*
X062784Y031587*
X062791Y031614*
X062796Y031642*
X062799Y031670*
X062800Y031699*
X062799Y031700*
X063490Y023750D02*
D01*
X063489Y023763*
X063488Y023776*
X063485Y023789*
X063482Y023802*
X063478Y023814*
X063473Y023827*
X063467Y023839*
X063461Y023850*
X063453Y023861*
X063445Y023872*
X063436Y023881*
X063434Y023884*
X063490Y023750D02*
D01*
X063489Y023763*
X063488Y023776*
X063485Y023789*
X063482Y023802*
X063478Y023814*
X063473Y023827*
X063467Y023839*
X063461Y023850*
X063453Y023861*
X063445Y023872*
X063436Y023881*
X063434Y023885*
X063973Y023225D02*
D01*
X063972Y023242*
X063970Y023260*
X063967Y023278*
X063963Y023296*
X063957Y023313*
X063950Y023329*
X063942Y023346*
X063933Y023361*
X063923Y023376*
X063912Y023390*
X063900Y023404*
X063887Y023416*
X063873Y023428*
X063859Y023438*
X063844Y023448*
X063828Y023456*
X063811Y023464*
X063794Y023470*
X063777Y023475*
X063759Y023479*
X063741Y023481*
X063724Y023482*
X063715Y023483*
X064140Y024050D02*
D01*
X064139Y024070*
X064137Y024090*
X064133Y024110*
X064128Y024129*
X064122Y024149*
X064114Y024167*
X064106Y024186*
X064095Y024203*
X064084Y024220*
X064072Y024236*
X064058Y024251*
X064044Y024265*
X064028Y024278*
X064012Y024290*
X063995Y024301*
X063977Y024310*
X063958Y024318*
X063939Y024325*
X063920Y024331*
X063900Y024335*
X063880Y024338*
X063860Y024339*
X063839*
X063819Y024338*
X063799Y024335*
X063779Y024331*
X063760Y024325*
X063741Y024318*
X063722Y024310*
X063705Y024301*
X063687Y024290*
X063671Y024278*
X063655Y024265*
X063641Y024251*
X063627Y024236*
X063615Y024220*
X063604Y024203*
X063593Y024186*
X063585Y024167*
X063577Y024149*
X063571Y024129*
X063566Y024110*
X063562Y024090*
X063560Y024070*
X063560Y024050*
X063560Y024029*
X063562Y024009*
X063566Y023989*
X063571Y023970*
X063577Y023950*
X063585Y023932*
X063593Y023913*
X063604Y023896*
X063615Y023879*
X063627Y023863*
X063641Y023848*
X063655Y023834*
X063671Y023821*
X063687Y023809*
X063705Y023798*
X063722Y023789*
X063741Y023781*
X063760Y023774*
X063779Y023768*
X063799Y023764*
X063819Y023761*
X063839Y023760*
X063860*
X063880Y023761*
X063900Y023764*
X063920Y023768*
X063939Y023774*
X063958Y023781*
X063977Y023789*
X063995Y023798*
X064012Y023809*
X064028Y023821*
X064044Y023834*
X064058Y023848*
X064072Y023863*
X064084Y023879*
X064095Y023896*
X064106Y023913*
X064114Y023932*
X064122Y023950*
X064128Y023970*
X064133Y023989*
X064137Y024009*
X064139Y024029*
X064140Y024050*
X063779Y026800D02*
D01*
X063796Y026805*
X063813Y026811*
X063829Y026818*
X063845Y026827*
X063860Y026836*
X063875Y026847*
X063888Y026859*
X063901Y026871*
X063913Y026885*
X063924Y026899*
X063934Y026914*
X063943Y026930*
X063951Y026946*
X063958Y026963*
X063963Y026980*
X063967Y026997*
X063970Y027015*
X063972Y027033*
X063973Y027050*
D01*
X063972Y027067*
X063970Y027085*
X063967Y027103*
X063963Y027121*
X063957Y027138*
X063950Y027154*
X063942Y027171*
X063933Y027186*
X063923Y027201*
X063912Y027215*
X063900Y027229*
X063887Y027241*
X063873Y027253*
X063859Y027263*
X063844Y027273*
X063828Y027281*
X063811Y027289*
X063794Y027295*
X063779Y027300*
Y029300D02*
D01*
X063796Y029305*
X063813Y029311*
X063829Y029318*
X063845Y029327*
X063856Y029334*
X063973Y029050D02*
D01*
X063972Y029067*
X063970Y029085*
X063967Y029103*
X063963Y029121*
X063957Y029138*
X063950Y029154*
X063942Y029171*
X063933Y029186*
X063923Y029201*
X063912Y029215*
X063900Y029229*
X063887Y029241*
X063873Y029253*
X063859Y029263*
X063844Y029273*
X063828Y029281*
X063811Y029289*
X063794Y029295*
X063779Y029300*
Y027800D02*
D01*
X063796Y027805*
X063813Y027811*
X063829Y027818*
X063845Y027827*
X063860Y027836*
X063875Y027847*
X063888Y027859*
X063901Y027871*
X063913Y027885*
X063924Y027899*
X063934Y027914*
X063943Y027930*
X063951Y027946*
X063958Y027963*
X063963Y027980*
X063967Y027997*
X063970Y028015*
X063972Y028033*
X063973Y028050*
D01*
X063972Y028067*
X063970Y028085*
X063967Y028103*
X063963Y028121*
X063957Y028138*
X063950Y028154*
X063942Y028171*
X063933Y028186*
X063923Y028201*
X063912Y028215*
X063900Y028229*
X063887Y028241*
X063873Y028253*
X063859Y028263*
X063844Y028273*
X063828Y028281*
X063811Y028289*
X063794Y028295*
X063779Y028300*
X062012Y031966D02*
D01*
X062011Y031975*
X062010Y031985*
X062008Y031995*
X062006Y032004*
X062003Y032013*
X061999Y032022*
X061996Y032030*
X062799Y031700D02*
D01*
X062798Y031728*
X062795Y031756*
X062790Y031784*
X062783Y031811*
X062774Y031838*
X062763Y031865*
X062751Y031890*
X062737Y031915*
X062721Y031938*
X062704Y031960*
X062685Y031982*
X062664Y032001*
X062642Y032019*
X062620Y032036*
X062596Y032051*
X062570Y032064*
X062545Y032076*
X062518Y032086*
X062491Y032093*
X062463Y032099*
X062435Y032103*
X062407Y032105*
X062378*
X062350Y032103*
X062322Y032099*
X062294Y032093*
X062267Y032086*
X062240Y032076*
X062215Y032064*
X062190Y032051*
X062165Y032036*
X062143Y032019*
X062121Y032001*
X062100Y031982*
X062081Y031960*
X062064Y031938*
X062048Y031915*
X062034Y031890*
X062022Y031865*
X062011Y031838*
X062012Y031838*
Y033812D02*
D01*
X062022Y033785*
X062034Y033760*
X062049Y033735*
X062064Y033712*
X062082Y033689*
X062101Y033668*
X062121Y033648*
X062143Y033630*
X062166Y033613*
X062190Y033598*
X062215Y033585*
X062240Y033573*
X062267Y033564*
X062294Y033556*
X062322Y033550*
X062350Y033546*
X062378Y033544*
X062407Y033544*
X062435Y033545*
X062463Y033549*
X062491Y033555*
X062518Y033563*
X062545Y033573*
X062571Y033584*
X062596Y033597*
X062620Y033612*
X062643Y033629*
X062665Y033647*
X062685Y033667*
X062704Y033688*
X062722Y033710*
X062737Y033733*
X062752Y033758*
X062764Y033783*
X062775Y033810*
X062784Y033837*
X062791Y033864*
X062796Y033892*
X062799Y033920*
X062800Y033949*
X062799Y033950*
X061996Y033620D02*
D01*
X062000Y033628*
X062003Y033637*
X062006Y033647*
X062009Y033656*
X062010Y033666*
X062011Y033676*
X062012Y033684*
X062050Y035240D02*
D01*
X062022Y035239*
X061995Y035236*
X061968Y035231*
X061942Y035224*
X061916Y035216*
X061891Y035206*
X061866Y035194*
X061843Y035180*
X061820Y035165*
X061799Y035148*
X061779Y035130*
X061774Y035126*
X062050Y035240D02*
D01*
X062022Y035239*
X061995Y035236*
X061968Y035231*
X061942Y035224*
X061916Y035216*
X061891Y035206*
X061866Y035194*
X061843Y035180*
X061820Y035165*
X061799Y035148*
X061779Y035130*
X061774Y035126*
X062799Y033950D02*
D01*
X062798Y033978*
X062795Y034006*
X062790Y034034*
X062783Y034061*
X062774Y034088*
X062763Y034115*
X062751Y034140*
X062737Y034165*
X062721Y034188*
X062704Y034210*
X062685Y034232*
X062664Y034251*
X062642Y034269*
X062620Y034286*
X062596Y034301*
X062570Y034314*
X062545Y034326*
X062518Y034336*
X062491Y034343*
X062463Y034349*
X062435Y034353*
X062407Y034355*
X062378*
X062350Y034353*
X062322Y034349*
X062294Y034343*
X062267Y034336*
X062240Y034326*
X062215Y034314*
X062190Y034301*
X062165Y034286*
X062143Y034269*
X062121Y034251*
X062100Y034232*
X062081Y034210*
X062064Y034188*
X062048Y034165*
X062034Y034140*
X062022Y034115*
X062011Y034088*
X062012Y034088*
X064050Y012410D02*
D01*
X064063Y012410*
X064076Y012411*
X064089Y012414*
X064102Y012417*
X064114Y012421*
X064127Y012426*
X064139Y012432*
X064150Y012438*
X064161Y012446*
X064172Y012454*
X064181Y012463*
X064185Y012466*
X064050Y012410D02*
D01*
X064063Y012410*
X064076Y012411*
X064089Y012414*
X064102Y012417*
X064114Y012421*
X064127Y012426*
X064139Y012432*
X064150Y012438*
X064161Y012446*
X064172Y012454*
X064181Y012463*
X064184Y012466*
X064336Y016004D02*
D01*
X064326Y015994*
X064318Y015984*
X064311Y015973*
X064304Y015961*
X064298Y015950*
X064293Y015937*
X064290Y015931*
X064336Y016005D02*
D01*
X064326Y015995*
X064318Y015985*
X064310Y015974*
X064303Y015962*
X064297Y015951*
X064292Y015938*
X064290Y015931*
X065585Y015550D02*
D01*
X065583Y015580*
X065580Y015610*
X065575Y015640*
X065568Y015669*
X065558Y015698*
X065547Y015726*
X065534Y015754*
X065518Y015780*
X065501Y015805*
X065483Y015829*
X065462Y015852*
X065441Y015873*
X065417Y015892*
X065393Y015910*
X065367Y015926*
X065340Y015940*
X065312Y015953*
X065284Y015963*
X065255Y015972*
X065225Y015978*
X065195Y015982*
X065165Y015984*
X065134*
X065104Y015982*
X065074Y015978*
X065044Y015972*
X065015Y015963*
X064987Y015953*
X064959Y015940*
X064932Y015926*
X064906Y015910*
X064882Y015892*
X064858Y015873*
X064837Y015852*
X064816Y015829*
X064798Y015805*
X064781Y015780*
X064765Y015754*
X064752Y015726*
X064741Y015698*
X064731Y015669*
X064724Y015640*
X064719Y015610*
X064716Y015580*
X064715Y015549*
X064716Y015519*
X064719Y015489*
X064724Y015459*
X064731Y015430*
X064739Y015407*
X064784Y013065D02*
D01*
X064793Y013074*
X064801Y013084*
X064809Y013095*
X064816Y013107*
X064822Y013118*
X064827Y013131*
X064831Y013143*
X064835Y013156*
X064837Y013169*
X064839Y013182*
X064840Y013195*
X064840Y013200*
X064784Y013066D02*
D01*
X064793Y013075*
X064801Y013085*
X064808Y013096*
X064815Y013108*
X064821Y013119*
X064826Y013132*
X064831Y013144*
X064834Y013157*
X064837Y013170*
X064838Y013183*
X064839Y013196*
X064840Y013200*
X065025Y011680D02*
D01*
X065038Y011680*
X065051Y011681*
X065064Y011684*
X065077Y011687*
X065089Y011691*
X065102Y011696*
X065114Y011702*
X065125Y011708*
X065136Y011716*
X065147Y011724*
X065156Y011733*
X065159Y011736*
X065025Y011680D02*
D01*
X065038Y011680*
X065051Y011681*
X065064Y011684*
X065077Y011687*
X065089Y011691*
X065102Y011696*
X065114Y011702*
X065125Y011708*
X065136Y011716*
X065147Y011724*
X065156Y011733*
X065159Y011736*
X065585Y014550D02*
D01*
X065583Y014580*
X065580Y014610*
X065575Y014640*
X065568Y014669*
X065558Y014698*
X065547Y014726*
X065534Y014754*
X065518Y014780*
X065501Y014805*
X065483Y014829*
X065462Y014852*
X065441Y014873*
X065417Y014892*
X065393Y014910*
X065367Y014926*
X065340Y014940*
X065312Y014953*
X065284Y014963*
X065255Y014972*
X065225Y014978*
X065195Y014982*
X065165Y014984*
X065134*
X065104Y014982*
X065074Y014978*
X065044Y014972*
X065015Y014963*
X064987Y014953*
X064959Y014940*
X064932Y014926*
X064906Y014910*
X064882Y014892*
X064858Y014873*
X064840Y014856*
X065007Y015139D02*
D01*
X065036Y015130*
X065065Y015123*
X065095Y015118*
X065125Y015115*
X065156Y015114*
X065186Y015116*
X065216Y015119*
X065246Y015125*
X065275Y015133*
X065304Y015143*
X065332Y015155*
X065359Y015168*
X065385Y015184*
X065410Y015201*
X065434Y015220*
X065456Y015241*
X065477Y015263*
X065496Y015286*
X065514Y015311*
X065529Y015337*
X065543Y015364*
X065555Y015392*
X065565Y015421*
X065573Y015450*
X065579Y015480*
X065583Y015510*
X065585Y015541*
X065585Y015550*
X064340Y019075D02*
D01*
X064339Y019095*
X064337Y019115*
X064333Y019135*
X064328Y019154*
X064322Y019174*
X064314Y019192*
X064306Y019211*
X064295Y019228*
X064284Y019245*
X064272Y019261*
X064258Y019276*
X064244Y019290*
X064228Y019303*
X064212Y019315*
X064195Y019326*
X064177Y019335*
X064158Y019343*
X064139Y019350*
X064120Y019356*
X064105Y019360*
X064290Y018912D02*
D01*
X064300Y018929*
X064310Y018946*
X064318Y018965*
X064325Y018984*
X064331Y019003*
X064335Y019023*
X064338Y019043*
X064339Y019063*
X064340Y019075*
X063779Y019975D02*
D01*
X063796Y019980*
X063813Y019986*
X063829Y019993*
X063845Y020002*
X063860Y020011*
X063875Y020022*
X063888Y020034*
X063901Y020046*
X063913Y020060*
X063924Y020074*
X063934Y020089*
X063943Y020105*
X063951Y020121*
X063958Y020138*
X063963Y020155*
X063967Y020172*
X063970Y020190*
X063972Y020208*
X063973Y020225*
X063909Y019555D02*
D01*
X063920Y019568*
X063930Y019583*
X063940Y019599*
X063948Y019615*
X063955Y019631*
X063961Y019648*
X063966Y019665*
X063969Y019683*
X063971Y019701*
X063972Y019719*
X063973Y019725*
Y020225D02*
D01*
X063972Y020242*
X063970Y020260*
X063967Y020278*
X063963Y020296*
X063957Y020313*
X063950Y020329*
X063942Y020346*
X063933Y020361*
X063923Y020376*
X063912Y020390*
X063900Y020404*
X063887Y020416*
X063873Y020428*
X063859Y020438*
X063844Y020448*
X063828Y020456*
X063811Y020464*
X063794Y020470*
X063779Y020475*
Y020975D02*
D01*
X063796Y020980*
X063813Y020986*
X063829Y020993*
X063845Y021002*
X063860Y021011*
X063875Y021022*
X063888Y021034*
X063901Y021046*
X063913Y021060*
X063924Y021074*
X063934Y021089*
X063943Y021105*
X063951Y021121*
X063958Y021138*
X063963Y021155*
X063967Y021172*
X063970Y021190*
X063972Y021208*
X063973Y021225*
D01*
X063972Y021242*
X063970Y021260*
X063967Y021278*
X063963Y021296*
X063957Y021313*
X063950Y021329*
X063942Y021346*
X063933Y021361*
X063923Y021376*
X063912Y021390*
X063900Y021404*
X063887Y021416*
X063873Y021428*
X063859Y021438*
X063844Y021448*
X063828Y021456*
X063811Y021464*
X063794Y021470*
X063779Y021475*
X064840Y014244D02*
D01*
X064862Y014223*
X064885Y014203*
X064910Y014186*
X064936Y014170*
X064963Y014156*
X064991Y014144*
X065019Y014134*
X065049Y014126*
X065079Y014120*
X065109Y014116*
X065139Y014114*
X065169Y014114*
X065200Y014117*
X065230Y014121*
X065260Y014128*
X065289Y014137*
X065317Y014147*
X065345Y014160*
X065371Y014175*
X065397Y014191*
X065421Y014209*
X065444Y014229*
X065466Y014250*
X065486Y014273*
X065505Y014297*
X065521Y014323*
X065536Y014349*
X065549Y014377*
X065560Y014405*
X065570Y014434*
X065577Y014464*
X065581Y014494*
X065584Y014524*
X065585Y014550*
X065007Y016139D02*
D01*
X065036Y016130*
X065065Y016123*
X065095Y016118*
X065125Y016115*
X065156Y016114*
X065186Y016116*
X065216Y016119*
X065246Y016125*
X065275Y016133*
X065304Y016143*
X065332Y016155*
X065359Y016168*
X065385Y016184*
X065410Y016201*
X065434Y016220*
X065456Y016241*
X065477Y016263*
X065496Y016286*
X065514Y016311*
X065529Y016337*
X065543Y016364*
X065555Y016392*
X065565Y016421*
X065573Y016450*
X065579Y016480*
X065583Y016510*
X065585Y016541*
X065585Y016550*
X066164Y012741D02*
D01*
X066173Y012750*
X066181Y012760*
X066189Y012771*
X066196Y012783*
X066202Y012794*
X066207Y012807*
X066211Y012819*
X066215Y012832*
X066217Y012845*
X066219Y012858*
X066220Y012871*
X066220Y012875*
X066164Y012741D02*
D01*
X066173Y012750*
X066181Y012760*
X066188Y012771*
X066195Y012783*
X066201Y012794*
X066206Y012807*
X066211Y012819*
X066214Y012832*
X066217Y012845*
X066218Y012858*
X066219Y012871*
X066220Y012875*
X065585Y016550D02*
D01*
X065583Y016580*
X065580Y016610*
X065575Y016640*
X065568Y016669*
X065558Y016698*
X065547Y016726*
X065534Y016754*
X065518Y016780*
X065501Y016805*
X065483Y016829*
X065462Y016852*
X065441Y016873*
X065417Y016892*
X065393Y016910*
X065367Y016926*
X065340Y016940*
X065312Y016953*
X065284Y016963*
X065255Y016972*
X065225Y016978*
X065195Y016982*
X065165Y016984*
X065134*
X065104Y016982*
X065074Y016978*
X065044Y016972*
X065015Y016963*
X064987Y016953*
X064959Y016940*
X064932Y016926*
X064906Y016910*
X064882Y016892*
X064858Y016873*
X064837Y016852*
X064816Y016829*
X064798Y016805*
X064781Y016780*
X064765Y016754*
X064752Y016726*
X064741Y016698*
X064731Y016669*
X064724Y016640*
X064719Y016610*
X064716Y016580*
X064715Y016550*
X064716Y016519*
X064719Y016489*
X064724Y016459*
X064731Y016430*
X064739Y016407*
X065561Y017407D02*
D01*
X065569Y017436*
X065576Y017465*
X065581Y017495*
X065584Y017525*
X065585Y017550*
D01*
X065583Y017580*
X065580Y017610*
X065575Y017640*
X065568Y017669*
X065558Y017698*
X065547Y017726*
X065534Y017754*
X065518Y017780*
X065501Y017805*
X065483Y017829*
X065462Y017852*
X065441Y017873*
X065417Y017892*
X065393Y017910*
X065367Y017926*
X065340Y017940*
X065312Y017953*
X065284Y017963*
X065255Y017972*
X065225Y017978*
X065195Y017982*
X065165Y017984*
X065134*
X065104Y017982*
X065074Y017978*
X065044Y017972*
X065015Y017963*
X064987Y017953*
X064959Y017940*
X064932Y017926*
X064906Y017910*
X064882Y017892*
X064858Y017873*
X064837Y017852*
X064816Y017829*
X064798Y017805*
X064781Y017780*
X064765Y017754*
X064752Y017726*
X064741Y017698*
X064731Y017669*
X064724Y017640*
X064719Y017610*
X064716Y017580*
X064715Y017550*
X064716Y017519*
X064719Y017489*
X064724Y017459*
X064731Y017430*
X064741Y017401*
X064752Y017373*
X064765Y017345*
X064781Y017319*
X064798Y017294*
X064816Y017270*
X064837Y017247*
X064858Y017226*
X064882Y017207*
X064906Y017189*
X064932Y017173*
X064959Y017159*
X064987Y017146*
X065015Y017136*
X065044Y017127*
X065074Y017121*
X065104Y017117*
X065134Y017115*
X065165*
X065195Y017117*
X065225Y017121*
X065255Y017127*
X065284Y017136*
X065293Y017139*
X065585Y018550D02*
D01*
X065583Y018580*
X065580Y018610*
X065575Y018640*
X065568Y018669*
X065558Y018698*
X065547Y018726*
X065534Y018754*
X065518Y018780*
X065501Y018805*
X065483Y018829*
X065462Y018852*
X065441Y018873*
X065417Y018892*
X065393Y018910*
X065367Y018926*
X065340Y018940*
X065312Y018953*
X065284Y018963*
X065255Y018972*
X065225Y018978*
X065195Y018982*
X065165Y018984*
X065134*
X065104Y018982*
X065074Y018978*
X065044Y018972*
X065015Y018963*
X064987Y018953*
X064959Y018940*
X064932Y018926*
X064906Y018910*
X064882Y018892*
X064858Y018873*
X064837Y018852*
X064816Y018829*
X064798Y018805*
X064781Y018780*
X064765Y018754*
X064752Y018726*
X064741Y018698*
X064731Y018669*
X064724Y018640*
X064719Y018610*
X064716Y018580*
X064715Y018550*
X064716Y018519*
X064719Y018489*
X064724Y018459*
X064731Y018430*
X064741Y018401*
X064752Y018373*
X064765Y018345*
X064781Y018319*
X064798Y018294*
X064816Y018270*
X064837Y018247*
X064858Y018226*
X064882Y018207*
X064906Y018189*
X064932Y018173*
X064959Y018159*
X064987Y018146*
X065015Y018136*
X065044Y018127*
X065074Y018121*
X065104Y018117*
X065134Y018115*
X065165*
X065195Y018117*
X065225Y018121*
X065255Y018127*
X065284Y018136*
X065293Y018139*
X065561Y018407D02*
D01*
X065569Y018436*
X065576Y018465*
X065581Y018495*
X065584Y018525*
X065585Y018550*
Y019550D02*
D01*
X065583Y019580*
X065580Y019610*
X065575Y019640*
X065568Y019669*
X065558Y019698*
X065547Y019726*
X065534Y019754*
X065518Y019780*
X065501Y019805*
X065483Y019829*
X065462Y019852*
X065441Y019873*
X065417Y019892*
X065393Y019910*
X065367Y019926*
X065340Y019940*
X065312Y019953*
X065284Y019963*
X065255Y019972*
X065225Y019978*
X065195Y019982*
X065165Y019984*
X065134*
X065104Y019982*
X065074Y019978*
X065044Y019972*
X065015Y019963*
X064987Y019953*
X064959Y019940*
X064932Y019926*
X064906Y019910*
X064882Y019892*
X064858Y019873*
X064837Y019852*
X064816Y019829*
X064798Y019805*
X064781Y019780*
X064765Y019754*
X064752Y019726*
X064741Y019698*
X064731Y019669*
X064724Y019640*
X064719Y019610*
X064716Y019580*
X064715Y019550*
X064716Y019519*
X064719Y019489*
X064724Y019459*
X064731Y019430*
X064741Y019401*
X064752Y019373*
X064765Y019345*
X064781Y019319*
X064798Y019294*
X064816Y019270*
X064837Y019247*
X064858Y019226*
X064882Y019207*
X064906Y019189*
X064932Y019173*
X064959Y019159*
X064987Y019146*
X065015Y019136*
X065044Y019127*
X065074Y019121*
X065104Y019117*
X065134Y019115*
X065165*
X065195Y019117*
X065225Y019121*
X065255Y019127*
X065284Y019136*
X065312Y019146*
X065340Y019159*
X065367Y019173*
X065393Y019189*
X065417Y019207*
X065441Y019226*
X065462Y019247*
X065483Y019270*
X065501Y019294*
X065518Y019319*
X065534Y019345*
X065547Y019373*
X065558Y019401*
X065568Y019430*
X065575Y019459*
X065580Y019489*
X065583Y019519*
X065585Y019550*
Y020550D02*
D01*
X065583Y020580*
X065580Y020610*
X065575Y020640*
X065568Y020669*
X065558Y020698*
X065547Y020726*
X065534Y020754*
X065518Y020780*
X065501Y020805*
X065483Y020829*
X065462Y020852*
X065441Y020873*
X065417Y020892*
X065393Y020910*
X065367Y020926*
X065340Y020940*
X065312Y020953*
X065284Y020963*
X065255Y020972*
X065225Y020978*
X065195Y020982*
X065165Y020984*
X065134*
X065104Y020982*
X065074Y020978*
X065044Y020972*
X065015Y020963*
X064987Y020953*
X064959Y020940*
X064932Y020926*
X064906Y020910*
X064882Y020892*
X064858Y020873*
X064837Y020852*
X064816Y020829*
X064798Y020805*
X064781Y020780*
X064765Y020754*
X064752Y020726*
X064741Y020698*
X064731Y020669*
X064724Y020640*
X064719Y020610*
X064716Y020580*
X064715Y020550*
X064716Y020519*
X064719Y020489*
X064724Y020459*
X064731Y020430*
X064741Y020401*
X064752Y020373*
X064765Y020345*
X064781Y020319*
X064798Y020294*
X064816Y020270*
X064837Y020247*
X064858Y020226*
X064882Y020207*
X064906Y020189*
X064932Y020173*
X064959Y020159*
X064987Y020146*
X065015Y020136*
X065044Y020127*
X065074Y020121*
X065104Y020117*
X065134Y020115*
X065165*
X065195Y020117*
X065225Y020121*
X065255Y020127*
X065284Y020136*
X065312Y020146*
X065340Y020159*
X065367Y020173*
X065393Y020189*
X065417Y020207*
X065441Y020226*
X065462Y020247*
X065483Y020270*
X065501Y020294*
X065518Y020319*
X065534Y020345*
X065547Y020373*
X065558Y020401*
X065568Y020430*
X065575Y020459*
X065580Y020489*
X065583Y020519*
X065585Y020550*
Y021550D02*
D01*
X065583Y021580*
X065580Y021610*
X065575Y021640*
X065568Y021669*
X065558Y021698*
X065547Y021726*
X065534Y021754*
X065518Y021780*
X065501Y021805*
X065483Y021829*
X065462Y021852*
X065441Y021873*
X065417Y021892*
X065393Y021910*
X065367Y021926*
X065340Y021940*
X065312Y021953*
X065284Y021963*
X065255Y021972*
X065225Y021978*
X065195Y021982*
X065165Y021984*
X065134*
X065104Y021982*
X065074Y021978*
X065044Y021972*
X065015Y021963*
X064987Y021953*
X064959Y021940*
X064932Y021926*
X064906Y021910*
X064882Y021892*
X064858Y021873*
X064837Y021852*
X064816Y021829*
X064798Y021805*
X064781Y021780*
X064765Y021754*
X064752Y021726*
X064741Y021698*
X064731Y021669*
X064724Y021640*
X064719Y021610*
X064716Y021580*
X064715Y021550*
X064716Y021519*
X064719Y021489*
X064724Y021459*
X064731Y021430*
X064741Y021401*
X064752Y021373*
X064765Y021345*
X064781Y021319*
X064798Y021294*
X064816Y021270*
X064837Y021247*
X064858Y021226*
X064882Y021207*
X064906Y021189*
X064932Y021173*
X064959Y021159*
X064987Y021146*
X065015Y021136*
X065044Y021127*
X065074Y021121*
X065104Y021117*
X065134Y021115*
X065165*
X065195Y021117*
X065225Y021121*
X065255Y021127*
X065284Y021136*
X065312Y021146*
X065340Y021159*
X065367Y021173*
X065393Y021189*
X065417Y021207*
X065441Y021226*
X065462Y021247*
X065483Y021270*
X065501Y021294*
X065518Y021319*
X065534Y021345*
X065547Y021373*
X065558Y021401*
X065568Y021430*
X065575Y021459*
X065580Y021489*
X065583Y021519*
X065585Y021550*
X066240Y017650D02*
D01*
X066239Y017663*
X066238Y017676*
X066235Y017689*
X066232Y017702*
X066228Y017714*
X066223Y017727*
X066217Y017739*
X066211Y017750*
X066203Y017761*
X066195Y017772*
X066186Y017781*
X066184Y017785*
X066220Y017565D02*
D01*
X066225Y017577*
X066230Y017589*
X066233Y017602*
X066236Y017615*
X066238Y017628*
X066239Y017641*
X066240Y017650*
D01*
X066239Y017663*
X066238Y017676*
X066235Y017689*
X066232Y017702*
X066228Y017714*
X066223Y017727*
X066217Y017739*
X066211Y017750*
X066203Y017761*
X066195Y017772*
X066186Y017781*
X066184Y017784*
X066220Y017565D02*
D01*
X066225Y017577*
X066230Y017589*
X066233Y017602*
X066236Y017615*
X066238Y017628*
X066239Y017641*
X066240Y017650*
X063779Y021975D02*
D01*
X063796Y021980*
X063813Y021986*
X063829Y021993*
X063845Y022002*
X063860Y022011*
X063875Y022022*
X063888Y022034*
X063901Y022046*
X063913Y022060*
X063924Y022074*
X063934Y022089*
X063943Y022105*
X063951Y022121*
X063958Y022138*
X063963Y022155*
X063967Y022172*
X063970Y022190*
X063972Y022208*
X063973Y022225*
X063779Y021475D02*
D01*
X063796Y021480*
X063813Y021486*
X063829Y021493*
X063845Y021502*
X063860Y021511*
X063875Y021522*
X063888Y021534*
X063901Y021546*
X063913Y021560*
X063924Y021574*
X063934Y021589*
X063943Y021605*
X063951Y021621*
X063958Y021638*
X063963Y021655*
X063967Y021672*
X063970Y021690*
X063972Y021708*
X063973Y021725*
D01*
X063972Y021742*
X063970Y021760*
X063967Y021778*
X063963Y021796*
X063957Y021813*
X063950Y021829*
X063942Y021846*
X063933Y021861*
X063923Y021876*
X063912Y021890*
X063900Y021904*
X063887Y021916*
X063873Y021928*
X063859Y021938*
X063844Y021948*
X063828Y021956*
X063811Y021964*
X063794Y021970*
X063779Y021975*
X063973Y022725D02*
D01*
X063972Y022742*
X063970Y022760*
X063967Y022778*
X063963Y022796*
X063957Y022813*
X063950Y022829*
X063942Y022846*
X063933Y022861*
X063923Y022876*
X063912Y022890*
X063900Y022904*
X063887Y022916*
X063873Y022928*
X063859Y022938*
X063844Y022948*
X063828Y022956*
X063811Y022964*
X063794Y022970*
X063779Y022975*
D01*
X063796Y022980*
X063813Y022986*
X063829Y022993*
X063845Y023002*
X063860Y023011*
X063875Y023022*
X063888Y023034*
X063901Y023046*
X063913Y023060*
X063924Y023074*
X063934Y023089*
X063943Y023105*
X063951Y023121*
X063958Y023138*
X063963Y023155*
X063967Y023172*
X063970Y023190*
X063972Y023208*
X063973Y023225*
Y022225D02*
D01*
X063972Y022242*
X063970Y022260*
X063967Y022278*
X063963Y022296*
X063957Y022313*
X063950Y022329*
X063942Y022346*
X063933Y022361*
X063923Y022376*
X063912Y022390*
X063900Y022404*
X063887Y022416*
X063873Y022428*
X063859Y022438*
X063844Y022448*
X063828Y022456*
X063811Y022464*
X063794Y022470*
X063779Y022475*
D01*
X063796Y022480*
X063813Y022486*
X063829Y022493*
X063845Y022502*
X063860Y022511*
X063875Y022522*
X063888Y022534*
X063901Y022546*
X063913Y022560*
X063924Y022574*
X063934Y022589*
X063943Y022605*
X063951Y022621*
X063958Y022638*
X063963Y022655*
X063967Y022672*
X063970Y022690*
X063972Y022708*
X063973Y022725*
X063780Y024540D02*
D01*
X063793Y024540*
X063806Y024541*
X063819Y024544*
X063832Y024547*
X063844Y024551*
X063857Y024556*
X063869Y024562*
X063880Y024568*
X063891Y024576*
X063902Y024584*
X063911Y024593*
X063915Y024596*
X063780Y024540D02*
D01*
X063793Y024540*
X063806Y024541*
X063819Y024544*
X063832Y024547*
X063844Y024551*
X063857Y024556*
X063869Y024562*
X063880Y024568*
X063891Y024576*
X063902Y024584*
X063911Y024593*
X063914Y024596*
X064085Y026684D02*
D01*
X064075Y026693*
X064065Y026701*
X064054Y026709*
X064042Y026716*
X064031Y026722*
X064018Y026727*
X064006Y026731*
X063993Y026735*
X063980Y026737*
X063967Y026739*
X063954Y026740*
X063950Y026740*
X064084Y026684D02*
D01*
X064074Y026693*
X064064Y026701*
X064053Y026708*
X064041Y026715*
X064030Y026721*
X064017Y026726*
X064005Y026731*
X063992Y026734*
X063979Y026737*
X063966Y026738*
X063953Y026739*
X063950Y026740*
X064234Y024915D02*
D01*
X064243Y024924*
X064251Y024934*
X064259Y024945*
X064266Y024957*
X064272Y024968*
X064277Y024981*
X064281Y024993*
X064285Y025006*
X064287Y025019*
X064289Y025032*
X064290Y025045*
X064290Y025050*
X064234Y024916D02*
D01*
X064243Y024925*
X064251Y024935*
X064258Y024946*
X064265Y024958*
X064271Y024969*
X064276Y024982*
X064281Y024994*
X064284Y025007*
X064287Y025020*
X064288Y025033*
X064289Y025046*
X064290Y025050*
Y026400D02*
D01*
X064289Y026413*
X064288Y026426*
X064285Y026439*
X064282Y026452*
X064278Y026464*
X064273Y026477*
X064267Y026489*
X064261Y026500*
X064253Y026511*
X064245Y026522*
X064236Y026531*
X064234Y026534*
X064290Y026400D02*
D01*
X064289Y026413*
X064288Y026426*
X064285Y026439*
X064282Y026452*
X064278Y026464*
X064273Y026477*
X064267Y026489*
X064261Y026500*
X064253Y026511*
X064245Y026522*
X064236Y026531*
X064234Y026535*
X063973Y027550D02*
D01*
X063972Y027567*
X063970Y027585*
X063967Y027603*
X063963Y027621*
X063957Y027638*
X063950Y027654*
X063942Y027671*
X063933Y027686*
X063923Y027701*
X063912Y027715*
X063900Y027729*
X063887Y027741*
X063873Y027753*
X063859Y027763*
X063844Y027773*
X063828Y027781*
X063811Y027789*
X063794Y027795*
X063779Y027800*
X063890Y026740D02*
D01*
X063876Y026751*
X063861Y026762*
X063846Y026772*
X063830Y026780*
X063814Y026788*
X063797Y026794*
X063780Y026799*
X063779Y026800*
Y027300D02*
D01*
X063796Y027305*
X063813Y027311*
X063829Y027318*
X063845Y027327*
X063860Y027336*
X063875Y027347*
X063888Y027359*
X063901Y027371*
X063913Y027385*
X063924Y027399*
X063934Y027414*
X063943Y027430*
X063951Y027446*
X063958Y027463*
X063963Y027480*
X063967Y027497*
X063970Y027515*
X063972Y027533*
X063973Y027550*
X063779Y028300D02*
D01*
X063796Y028305*
X063813Y028311*
X063829Y028318*
X063845Y028327*
X063860Y028336*
X063875Y028347*
X063888Y028359*
X063901Y028371*
X063913Y028385*
X063924Y028399*
X063934Y028414*
X063943Y028430*
X063951Y028446*
X063958Y028463*
X063963Y028480*
X063967Y028497*
X063970Y028515*
X063972Y028533*
X063973Y028550*
D01*
X063972Y028567*
X063970Y028585*
X063967Y028603*
X063963Y028621*
X063957Y028638*
X063950Y028654*
X063942Y028671*
X063933Y028686*
X063923Y028701*
X063912Y028715*
X063900Y028729*
X063887Y028741*
X063873Y028753*
X063859Y028763*
X063844Y028773*
X063828Y028781*
X063811Y028789*
X063794Y028795*
X063779Y028800*
D01*
X063796Y028805*
X063813Y028811*
X063829Y028818*
X063845Y028827*
X063860Y028836*
X063875Y028847*
X063888Y028859*
X063901Y028871*
X063913Y028885*
X063924Y028899*
X063934Y028914*
X063943Y028930*
X063951Y028946*
X063958Y028963*
X063963Y028980*
X063967Y028997*
X063970Y029015*
X063972Y029033*
X063973Y029050*
X063856Y029334D02*
D01*
X063871Y029320*
X063887Y029309*
X063905Y029298*
X063923Y029288*
X063941Y029280*
X063960Y029273*
X063980Y029268*
X063999Y029264*
X064020Y029261*
X064040Y029259*
X064060Y029259*
X064080Y029261*
X064100Y029264*
X064120Y029268*
X064140Y029273*
X064159Y029280*
X064177Y029289*
X064195Y029298*
X064212Y029309*
X064229Y029321*
X064244Y029334*
X064259Y029348*
X064272Y029363*
X064285Y029379*
X064296Y029396*
X064306Y029414*
X064315Y029432*
X064322Y029451*
X064329Y029470*
X064334Y029489*
X064337Y029509*
X064339Y029530*
X064340Y029550*
D01*
X064339Y029570*
X064337Y029590*
X064333Y029610*
X064328Y029629*
X064322Y029649*
X064316Y029665*
X064460Y029050D02*
D01*
X064460Y029036*
X064461Y029023*
X064464Y029010*
X064467Y028997*
X064471Y028985*
X064476Y028972*
X064482Y028960*
X064488Y028949*
X064496Y028938*
X064504Y028927*
X064513Y028918*
X064516Y028915*
X064460Y029050D02*
D01*
X064460Y029036*
X064461Y029023*
X064464Y029010*
X064467Y028997*
X064471Y028985*
X064476Y028972*
X064482Y028960*
X064488Y028949*
X064496Y028938*
X064504Y028927*
X064513Y028918*
X064516Y028916*
X064855Y030985D02*
D01*
X064845Y030984*
X064835Y030983*
X064825Y030981*
X064816Y030979*
X064807Y030976*
X064798Y030972*
X064789Y030968*
X064780Y030963*
X064772Y030958*
X064765Y030952*
X064757Y030945*
X064750Y030938*
X064744Y030931*
X064738Y030923*
X064733Y030915*
X064729Y030906*
X064725Y030897*
X064721Y030888*
X064719Y030878*
X064717Y030869*
X064715Y030859*
X064715Y030849*
X064715Y030845*
X065110Y035126D02*
D01*
X065090Y035144*
X065068Y035161*
X065046Y035177*
X065023Y035191*
X064998Y035203*
X064973Y035214*
X064948Y035223*
X064921Y035230*
X064895Y035235*
X064868Y035238*
X064840Y035240*
X064834Y035240*
X065110Y035126D02*
D01*
X065090Y035144*
X065068Y035161*
X065046Y035177*
X065023Y035191*
X064998Y035203*
X064973Y035214*
X064948Y035223*
X064921Y035230*
X064895Y035235*
X064868Y035238*
X064840Y035240*
X064834Y035240*
X065585Y022550D02*
D01*
X065583Y022580*
X065580Y022610*
X065575Y022640*
X065568Y022669*
X065558Y022698*
X065547Y022726*
X065534Y022754*
X065518Y022780*
X065501Y022805*
X065483Y022829*
X065462Y022852*
X065441Y022873*
X065417Y022892*
X065393Y022910*
X065367Y022926*
X065340Y022940*
X065312Y022953*
X065284Y022963*
X065255Y022972*
X065225Y022978*
X065195Y022982*
X065165Y022984*
X065134*
X065104Y022982*
X065074Y022978*
X065044Y022972*
X065015Y022963*
X064987Y022953*
X064959Y022940*
X064932Y022926*
X064906Y022910*
X064882Y022892*
X064858Y022873*
X064837Y022852*
X064816Y022829*
X064798Y022805*
X064781Y022780*
X064765Y022754*
X064752Y022726*
X064741Y022698*
X064731Y022669*
X064724Y022640*
X064719Y022610*
X064716Y022580*
X064715Y022550*
X064716Y022519*
X064719Y022489*
X064724Y022459*
X064731Y022430*
X064741Y022401*
X064752Y022373*
X064765Y022345*
X064781Y022319*
X064798Y022294*
X064816Y022270*
X064837Y022247*
X064858Y022226*
X064882Y022207*
X064906Y022189*
X064932Y022173*
X064959Y022159*
X064987Y022146*
X065015Y022136*
X065044Y022127*
X065074Y022121*
X065104Y022117*
X065134Y022115*
X065165*
X065195Y022117*
X065225Y022121*
X065255Y022127*
X065284Y022136*
X065312Y022146*
X065340Y022159*
X065367Y022173*
X065393Y022189*
X065417Y022207*
X065441Y022226*
X065462Y022247*
X065483Y022270*
X065501Y022294*
X065518Y022319*
X065534Y022345*
X065547Y022373*
X065558Y022401*
X065568Y022430*
X065575Y022459*
X065580Y022489*
X065583Y022519*
X065585Y022550*
Y023550D02*
D01*
X065583Y023580*
X065580Y023610*
X065575Y023640*
X065568Y023669*
X065558Y023698*
X065547Y023726*
X065534Y023754*
X065518Y023780*
X065501Y023805*
X065483Y023829*
X065462Y023852*
X065441Y023873*
X065417Y023892*
X065393Y023910*
X065367Y023926*
X065340Y023940*
X065312Y023953*
X065284Y023963*
X065255Y023972*
X065225Y023978*
X065195Y023982*
X065165Y023984*
X065134*
X065104Y023982*
X065074Y023978*
X065044Y023972*
X065015Y023963*
X064987Y023953*
X064959Y023940*
X064932Y023926*
X064906Y023910*
X064882Y023892*
X064858Y023873*
X064837Y023852*
X064816Y023829*
X064798Y023805*
X064781Y023780*
X064765Y023754*
X064752Y023726*
X064741Y023698*
X064731Y023669*
X064724Y023640*
X064719Y023610*
X064716Y023580*
X064715Y023550*
X064716Y023519*
X064719Y023489*
X064724Y023459*
X064731Y023430*
X064741Y023401*
X064752Y023373*
X064765Y023345*
X064781Y023319*
X064798Y023294*
X064816Y023270*
X064837Y023247*
X064858Y023226*
X064882Y023207*
X064906Y023189*
X064932Y023173*
X064959Y023159*
X064987Y023146*
X065015Y023136*
X065044Y023127*
X065074Y023121*
X065104Y023117*
X065134Y023115*
X065165*
X065195Y023117*
X065225Y023121*
X065255Y023127*
X065284Y023136*
X065312Y023146*
X065340Y023159*
X065367Y023173*
X065393Y023189*
X065417Y023207*
X065441Y023226*
X065462Y023247*
X065483Y023270*
X065501Y023294*
X065518Y023319*
X065534Y023345*
X065547Y023373*
X065558Y023401*
X065568Y023430*
X065575Y023459*
X065580Y023489*
X065583Y023519*
X065585Y023550*
Y024550D02*
D01*
X065583Y024580*
X065580Y024610*
X065575Y024640*
X065568Y024669*
X065558Y024698*
X065547Y024726*
X065534Y024754*
X065518Y024780*
X065501Y024805*
X065483Y024829*
X065462Y024852*
X065441Y024873*
X065417Y024892*
X065393Y024910*
X065367Y024926*
X065340Y024940*
X065312Y024953*
X065284Y024963*
X065255Y024972*
X065225Y024978*
X065195Y024982*
X065165Y024984*
X065134*
X065104Y024982*
X065074Y024978*
X065044Y024972*
X065015Y024963*
X064987Y024953*
X064959Y024940*
X064932Y024926*
X064906Y024910*
X064882Y024892*
X064858Y024873*
X064837Y024852*
X064816Y024829*
X064798Y024805*
X064781Y024780*
X064765Y024754*
X064752Y024726*
X064741Y024698*
X064731Y024669*
X064724Y024640*
X064719Y024610*
X064716Y024580*
X064715Y024550*
X064716Y024519*
X064719Y024489*
X064724Y024459*
X064731Y024430*
X064741Y024401*
X064752Y024373*
X064765Y024345*
X064781Y024319*
X064798Y024294*
X064816Y024270*
X064837Y024247*
X064858Y024226*
X064882Y024207*
X064906Y024189*
X064932Y024173*
X064959Y024159*
X064987Y024146*
X065015Y024136*
X065044Y024127*
X065074Y024121*
X065104Y024117*
X065134Y024115*
X065165*
X065195Y024117*
X065225Y024121*
X065255Y024127*
X065284Y024136*
X065312Y024146*
X065340Y024159*
X065367Y024173*
X065393Y024189*
X065417Y024207*
X065441Y024226*
X065462Y024247*
X065483Y024270*
X065501Y024294*
X065518Y024319*
X065534Y024345*
X065547Y024373*
X065558Y024401*
X065568Y024430*
X065575Y024459*
X065580Y024489*
X065583Y024519*
X065585Y024550*
X064739Y028693D02*
D01*
X064730Y028663*
X064723Y028634*
X064718Y028604*
X064715Y028574*
X064714Y028543*
X064716Y028513*
X064719Y028483*
X064725Y028453*
X064733Y028424*
X064743Y028395*
X064755Y028367*
X064768Y028340*
X064784Y028314*
X064801Y028289*
X064820Y028265*
X064841Y028243*
X064863Y028222*
X064886Y028203*
X064911Y028185*
X064937Y028170*
X064964Y028156*
X064992Y028144*
X065021Y028134*
X065050Y028126*
X065080Y028120*
X065110Y028116*
X065141Y028114*
X065171Y028115*
X065201Y028117*
X065231Y028122*
X065261Y028129*
X065290Y028138*
X065318Y028148*
X065346Y028161*
X065372Y028176*
X065398Y028192*
X065422Y028210*
X065445Y028230*
X065467Y028252*
X065487Y028275*
X065505Y028299*
X065522Y028324*
X065537Y028351*
X065550Y028378*
X065561Y028407*
X065569Y028436*
X065576Y028465*
X065581Y028495*
X065584Y028525*
X065585Y028550*
Y025550D02*
D01*
X065583Y025580*
X065580Y025610*
X065575Y025640*
X065568Y025669*
X065558Y025698*
X065547Y025726*
X065534Y025754*
X065518Y025780*
X065501Y025805*
X065483Y025829*
X065462Y025852*
X065441Y025873*
X065417Y025892*
X065393Y025910*
X065367Y025926*
X065340Y025940*
X065312Y025953*
X065284Y025963*
X065255Y025972*
X065225Y025978*
X065195Y025982*
X065165Y025984*
X065134*
X065104Y025982*
X065074Y025978*
X065044Y025972*
X065015Y025963*
X064987Y025953*
X064959Y025940*
X064932Y025926*
X064906Y025910*
X064882Y025892*
X064858Y025873*
X064837Y025852*
X064816Y025829*
X064798Y025805*
X064781Y025780*
X064765Y025754*
X064752Y025726*
X064741Y025698*
X064731Y025669*
X064724Y025640*
X064719Y025610*
X064716Y025580*
X064715Y025550*
X064716Y025519*
X064719Y025489*
X064724Y025459*
X064731Y025430*
X064741Y025401*
X064752Y025373*
X064765Y025345*
X064781Y025319*
X064798Y025294*
X064816Y025270*
X064837Y025247*
X064858Y025226*
X064882Y025207*
X064906Y025189*
X064932Y025173*
X064959Y025159*
X064987Y025146*
X065015Y025136*
X065044Y025127*
X065074Y025121*
X065104Y025117*
X065134Y025115*
X065165*
X065195Y025117*
X065225Y025121*
X065255Y025127*
X065284Y025136*
X065312Y025146*
X065340Y025159*
X065367Y025173*
X065393Y025189*
X065417Y025207*
X065441Y025226*
X065462Y025247*
X065483Y025270*
X065501Y025294*
X065518Y025319*
X065534Y025345*
X065547Y025373*
X065558Y025401*
X065568Y025430*
X065575Y025459*
X065580Y025489*
X065583Y025519*
X065585Y025550*
Y026550D02*
D01*
X065583Y026580*
X065580Y026610*
X065575Y026640*
X065568Y026669*
X065558Y026698*
X065547Y026726*
X065534Y026754*
X065518Y026780*
X065501Y026805*
X065483Y026829*
X065462Y026852*
X065441Y026873*
X065417Y026892*
X065393Y026910*
X065367Y026926*
X065340Y026940*
X065312Y026953*
X065284Y026963*
X065255Y026972*
X065225Y026978*
X065195Y026982*
X065165Y026984*
X065134*
X065104Y026982*
X065074Y026978*
X065044Y026972*
X065015Y026963*
X064987Y026953*
X064959Y026940*
X064932Y026926*
X064906Y026910*
X064882Y026892*
X064858Y026873*
X064837Y026852*
X064816Y026829*
X064798Y026805*
X064781Y026780*
X064765Y026754*
X064752Y026726*
X064741Y026698*
X064731Y026669*
X064724Y026640*
X064719Y026610*
X064716Y026580*
X064715Y026550*
X064716Y026519*
X064719Y026489*
X064724Y026459*
X064731Y026430*
X064741Y026401*
X064752Y026373*
X064765Y026345*
X064781Y026319*
X064798Y026294*
X064816Y026270*
X064837Y026247*
X064858Y026226*
X064882Y026207*
X064906Y026189*
X064932Y026173*
X064959Y026159*
X064987Y026146*
X065015Y026136*
X065044Y026127*
X065074Y026121*
X065104Y026117*
X065134Y026115*
X065165*
X065195Y026117*
X065225Y026121*
X065255Y026127*
X065284Y026136*
X065312Y026146*
X065340Y026159*
X065367Y026173*
X065393Y026189*
X065417Y026207*
X065441Y026226*
X065462Y026247*
X065483Y026270*
X065501Y026294*
X065518Y026319*
X065534Y026345*
X065547Y026373*
X065558Y026401*
X065568Y026430*
X065575Y026459*
X065580Y026489*
X065583Y026519*
X065585Y026550*
Y027550D02*
D01*
X065583Y027580*
X065580Y027610*
X065575Y027640*
X065568Y027669*
X065558Y027698*
X065547Y027726*
X065534Y027754*
X065518Y027780*
X065501Y027805*
X065483Y027829*
X065462Y027852*
X065441Y027873*
X065417Y027892*
X065393Y027910*
X065367Y027926*
X065340Y027940*
X065312Y027953*
X065284Y027963*
X065255Y027972*
X065225Y027978*
X065195Y027982*
X065165Y027984*
X065134*
X065104Y027982*
X065074Y027978*
X065044Y027972*
X065015Y027963*
X064987Y027953*
X064959Y027940*
X064932Y027926*
X064906Y027910*
X064882Y027892*
X064858Y027873*
X064837Y027852*
X064816Y027829*
X064798Y027805*
X064781Y027780*
X064765Y027754*
X064752Y027726*
X064741Y027698*
X064731Y027669*
X064724Y027640*
X064719Y027610*
X064716Y027580*
X064715Y027550*
X064716Y027519*
X064719Y027489*
X064724Y027459*
X064731Y027430*
X064741Y027401*
X064752Y027373*
X064765Y027345*
X064781Y027319*
X064798Y027294*
X064816Y027270*
X064837Y027247*
X064858Y027226*
X064882Y027207*
X064906Y027189*
X064932Y027173*
X064959Y027159*
X064987Y027146*
X065015Y027136*
X065044Y027127*
X065074Y027121*
X065104Y027117*
X065134Y027115*
X065165*
X065195Y027117*
X065225Y027121*
X065255Y027127*
X065284Y027136*
X065312Y027146*
X065340Y027159*
X065367Y027173*
X065393Y027189*
X065417Y027207*
X065441Y027226*
X065462Y027247*
X065483Y027270*
X065501Y027294*
X065518Y027319*
X065534Y027345*
X065547Y027373*
X065558Y027401*
X065568Y027430*
X065575Y027459*
X065580Y027489*
X065583Y027519*
X065585Y027550*
Y028550D02*
D01*
X065583Y028580*
X065580Y028610*
X065575Y028640*
X065568Y028669*
X065558Y028698*
X065547Y028726*
X065534Y028754*
X065518Y028780*
X065501Y028805*
X065483Y028829*
X065462Y028852*
X065441Y028873*
X065417Y028892*
X065393Y028910*
X065367Y028926*
X065340Y028940*
X065312Y028953*
X065284Y028963*
X065255Y028972*
X065225Y028978*
X065195Y028982*
X065165Y028984*
X065134*
X065104Y028982*
X065074Y028978*
X065044Y028972*
X065015Y028963*
X065007Y028961*
X064840Y029244D02*
D01*
X064862Y029223*
X064885Y029203*
X064910Y029186*
X064936Y029170*
X064963Y029156*
X064991Y029144*
X065019Y029134*
X065049Y029126*
X065079Y029120*
X065109Y029116*
X065139Y029114*
X065169Y029114*
X065200Y029117*
X065230Y029121*
X065260Y029128*
X065289Y029137*
X065317Y029147*
X065345Y029160*
X065371Y029175*
X065397Y029191*
X065421Y029209*
X065444Y029229*
X065466Y029250*
X065486Y029273*
X065505Y029297*
X065521Y029323*
X065536Y029349*
X065549Y029377*
X065560Y029405*
X065570Y029434*
X065577Y029464*
X065581Y029494*
X065584Y029524*
X065585Y029550*
D01*
X065583Y029580*
X065580Y029610*
X065575Y029640*
X065568Y029669*
X065558Y029698*
X065547Y029726*
X065534Y029754*
X065518Y029780*
X065501Y029805*
X065483Y029829*
X065462Y029852*
X065441Y029873*
X065417Y029892*
X065393Y029910*
X065367Y029926*
X065340Y029940*
X065312Y029953*
X065284Y029963*
X065255Y029972*
X065225Y029978*
X065195Y029982*
X065165Y029984*
X065134*
X065104Y029982*
X065074Y029978*
X065044Y029972*
X065015Y029963*
X065007Y029961*
X064672Y034460D02*
D01*
X064668Y034416*
X064667Y034371*
X064669Y034327*
X064675Y034283*
X064683Y034240*
X064695Y034197*
X064709Y034156*
X064727Y034115*
X064747Y034076*
X064770Y034038*
X064795Y034002*
X064823Y033968*
X064853Y033935*
X064885Y033905*
X064920Y033878*
X064956Y033852*
X064994Y033830*
X065033Y033810*
X065074Y033793*
X065116Y033778*
X065158Y033767*
X065202Y033759*
X065245Y033753*
X065290Y033751*
X065334Y033752*
X065378Y033756*
X065421Y033763*
X065464Y033773*
X065506Y033786*
X065548Y033802*
X065588Y033820*
X065626Y033842*
X065663Y033866*
X065698Y033893*
X065732Y033922*
X065763Y033953*
X065792Y033986*
X065818Y034022*
X065842Y034059*
X065864Y034097*
X065882Y034137*
X065898Y034179*
X065911Y034221*
X065921Y034264*
X065928Y034308*
X065931Y034351*
X065932Y034384*
Y032416D02*
D01*
X065930Y032460*
X065925Y032503*
X065918Y032547*
X065907Y032590*
X065893Y032632*
X065877Y032673*
X065858Y032712*
X065835Y032750*
X065811Y032787*
X065784Y032822*
X065754Y032855*
X065722Y032885*
X065689Y032914*
X065653Y032939*
X065616Y032963*
X065577Y032984*
X065536Y033001*
X065495Y033017*
X065452Y033029*
X065409Y033038*
X065366Y033044*
X065322Y033047*
X065277*
X065233Y033044*
X065190Y033038*
X065147Y033029*
X065104Y033017*
X065063Y033001*
X065022Y032984*
X064984Y032963*
X064946Y032939*
X064910Y032914*
X064877Y032885*
X064845Y032855*
X064815Y032822*
X064788Y032787*
X064764Y032750*
X064741Y032712*
X064722Y032673*
X064706Y032632*
X064692Y032590*
X064681Y032547*
X064674Y032503*
X064669Y032460*
X064668Y032416*
X064669Y032371*
X064674Y032328*
X064681Y032284*
X064692Y032241*
X064706Y032199*
X064722Y032158*
X064741Y032119*
X064764Y032081*
X064788Y032044*
X064815Y032009*
X064845Y031976*
X064877Y031946*
X064910Y031917*
X064946Y031892*
X064984Y031868*
X065022Y031847*
X065063Y031830*
X065104Y031814*
X065147Y031802*
X065190Y031793*
X065233Y031787*
X065277Y031784*
X065322*
X065366Y031787*
X065409Y031793*
X065452Y031802*
X065495Y031814*
X065536Y031830*
X065577Y031847*
X065616Y031868*
X065653Y031892*
X065689Y031917*
X065722Y031946*
X065754Y031976*
X065784Y032009*
X065811Y032044*
X065835Y032081*
X065858Y032119*
X065877Y032158*
X065893Y032199*
X065907Y032241*
X065918Y032284*
X065925Y032328*
X065930Y032371*
X065932Y032416*
Y034384D02*
D01*
X065930Y034428*
X065925Y034471*
X065918Y034515*
X065907Y034558*
X065893Y034600*
X065877Y034641*
X065858Y034680*
X065835Y034718*
X065811Y034755*
X065784Y034790*
X065754Y034823*
X065722Y034853*
X065689Y034882*
X065653Y034907*
X065616Y034931*
X065577Y034952*
X065536Y034969*
X065495Y034985*
X065452Y034997*
X065409Y035006*
X065366Y035012*
X065322Y035015*
X065277*
X065233Y035012*
X065224Y035012*
X065445Y030115D02*
D01*
X065454Y030115*
X065464Y030116*
X065474Y030118*
X065483Y030120*
X065492Y030123*
X065501Y030127*
X065510Y030131*
X065519Y030136*
X065527Y030141*
X065534Y030147*
X065542Y030154*
X065549Y030161*
X065555Y030168*
X065561Y030176*
X065566Y030185*
X065570Y030193*
X065574Y030202*
X065578Y030211*
X065580Y030221*
X065582Y030230*
X065584Y030240*
X065584Y030250*
X065585Y030255*
Y030845D02*
D01*
X065584Y030854*
X065583Y030864*
X065581Y030874*
X065579Y030883*
X065576Y030892*
X065572Y030901*
X065568Y030910*
X065563Y030919*
X065558Y030927*
X065552Y030934*
X065545Y030942*
X065538Y030949*
X065531Y030955*
X065523Y030961*
X065515Y030966*
X065506Y030970*
X065497Y030974*
X065488Y030978*
X065478Y030980*
X065469Y030982*
X065459Y030984*
X065449Y030984*
X065445Y030985*
X058850Y019200D02*
X059381D01*
X059200Y019000D02*
Y019389D01*
X058500Y019550D02*
X059050Y019000D01*
X059000Y019050D02*
Y019920D01*
X059050Y019000D02*
X059581D01*
X060550Y012400D02*
X060627D01*
X059050Y019000D02*
X059581D01*
X059400D02*
Y019181D01*
X059228Y019353D02*
X059581Y019000D01*
X059552Y019567D02*
X059939Y019180D01*
X059800Y019319D02*
Y020007D01*
X058500Y019800D02*
X059172D01*
X058650Y019400D02*
X059194D01*
X058500Y019600D02*
X059172D01*
X058500Y020000D02*
X058929D01*
X058500Y020200D02*
X058840D01*
X059172Y019488D02*
Y019813D01*
X059552Y019567D02*
Y019813D01*
Y019600D02*
X060969D01*
X059600Y019519D02*
Y019834D01*
X059552Y019800D02*
X060948D01*
X059795Y020000D02*
X060617D01*
X059884Y020200D02*
X060511D01*
X059889Y020400D02*
X060569D01*
X060550Y012200D02*
X060827D01*
X060800Y010140D02*
Y012227D01*
X060600Y010140D02*
Y012427D01*
X060550Y010140D02*
Y012477D01*
X060940Y012879D02*
Y013362D01*
Y013438D02*
Y013862D01*
Y013938D02*
Y014362D01*
X060550Y012000D02*
X061027D01*
X061000Y010140D02*
Y012027D01*
X060940Y013200D02*
X061032D01*
X061000Y012819D02*
Y013231D01*
X060940Y013600D02*
X061032D01*
X061000Y013569D02*
Y013731D01*
Y014069D02*
Y014231D01*
X060940Y014938D02*
Y015171D01*
Y014438D02*
Y014862D01*
X061000Y014569D02*
Y014731D01*
X060800Y019180D02*
Y019935D01*
X060600Y019180D02*
Y020015D01*
X061000Y015069D02*
Y015210D01*
X060940Y015171D02*
X060979Y015210D01*
X060940Y014200D02*
X061032D01*
X060940Y014600D02*
X061032D01*
X060969Y015200D02*
X061032D01*
X060979Y015210D02*
X061021D01*
X060983Y020000D02*
X061069D01*
X061000Y019180D02*
Y019556D01*
Y019894D02*
Y020015D01*
X058500Y020800D02*
X059146D01*
X058500Y020400D02*
X058836D01*
X058500Y020600D02*
X058913D01*
X058600Y019450D02*
Y021913D01*
X058500Y019550D02*
Y021913D01*
X058800Y019250D02*
Y021913D01*
X059000Y020704D02*
Y021941D01*
X058500Y021000D02*
X060617D01*
X059579Y020800D02*
X060948D01*
X059200Y020821D02*
Y021913D01*
X058500Y021200D02*
X060511D01*
X059600Y020790D02*
Y021941D01*
X059400Y020845D02*
Y021913D01*
X058500D02*
X058847D01*
X059083D02*
X059517D01*
X058500Y021800D02*
X060948D01*
X058500Y021400D02*
X060569D01*
X058500Y021600D02*
X060969D01*
X060600Y021435D02*
Y022015D01*
Y020435D02*
Y021015D01*
X060800Y020515D02*
Y020935D01*
X060000Y019180D02*
Y024981D01*
X059800Y020617D02*
Y024783D01*
X060400Y019180D02*
Y024581D01*
X060200Y019180D02*
Y024781D01*
X059812Y020600D02*
X060969D01*
X061000Y020435D02*
Y020556D01*
X060800Y021515D02*
Y021935D01*
X061000Y020894D02*
Y021015D01*
Y021435D02*
Y021556D01*
X059657Y022053D02*
Y022447D01*
Y022200D02*
X060511D01*
X059657Y022400D02*
X060569D01*
X059709Y022600D02*
X060538D01*
X059720Y022800D02*
X060520D01*
X059720Y022655D02*
Y023245D01*
X060600Y022935D02*
Y023015D01*
X059646Y022000D02*
X060617D01*
X061000Y021894D02*
Y022015D01*
X059720Y023000D02*
X060617D01*
X060600Y022435D02*
Y022515D01*
X060550Y010200D02*
X066897D01*
X061600Y010140D02*
Y011680D01*
X060550Y010400D02*
X066897D01*
X061200Y010140D02*
Y011827D01*
X061400Y010140D02*
Y011682D01*
X061425Y011680D02*
X065025D01*
X060550Y010800D02*
X066897D01*
X060550Y010140D02*
X066897D01*
X060550Y010600D02*
X066897D01*
X060550Y011400D02*
X066897D01*
X060550Y011600D02*
X066897D01*
X060550Y011000D02*
X066897D01*
X060550Y011200D02*
X066897D01*
X060550Y012477D02*
X061291Y011736D01*
X060550Y011800D02*
X061227D01*
X060940Y012879D02*
X061579Y012240D01*
X061400Y012419D02*
Y013142D01*
X061200Y012619D02*
Y013142D01*
X061219Y012600D02*
X062281D01*
X061579Y012240D02*
X064871D01*
X061419Y012400D02*
X065031D01*
X061019Y012800D02*
X062081D01*
X060940Y013000D02*
X061960D01*
X061600Y012240D02*
Y013142D01*
X061195D02*
X061825D01*
X061800Y010140D02*
Y011680D01*
X062200Y010140D02*
Y011680D01*
X062000Y010140D02*
Y011680D01*
X062200Y012240D02*
Y012681D01*
X062000Y012240D02*
Y012883D01*
X062400Y010140D02*
Y011680D01*
Y012240D02*
Y012481D01*
X062600Y010140D02*
Y011680D01*
X063000Y010140D02*
Y011680D01*
X062800Y010140D02*
Y011680D01*
X063400Y010140D02*
Y011680D01*
X063200Y010140D02*
Y011680D01*
X063600Y010140D02*
Y011680D01*
Y012240D02*
Y012410D01*
X062016Y012865D02*
X062415Y012466D01*
X061800Y012240D02*
Y013142D01*
X061960Y013000D02*
Y013180D01*
X062550Y012410D02*
X064050D01*
X063400Y012240D02*
Y012410D01*
X063200Y012240D02*
Y012410D01*
X062600Y012240D02*
Y012410D01*
X063000Y012240D02*
Y012410D01*
X062800Y012240D02*
Y012410D01*
X059939Y019180D02*
X061807D01*
X059919Y019200D02*
X061827D01*
X061400Y019180D02*
Y019467D01*
X061200Y019180D02*
Y019467D01*
X060983Y021000D02*
X061069D01*
X060983Y022000D02*
X061069D01*
X059719Y019400D02*
X061930D01*
X061195Y019467D02*
X061825D01*
X061600Y019180D02*
Y019467D01*
X061807Y019180D02*
X061930Y019303D01*
X061800Y019180D02*
Y019467D01*
X061930Y019303D02*
Y019489D01*
X062000Y022415D02*
Y022535D01*
X062015Y022400D02*
X062181D01*
X062074Y022293D02*
X062640Y022859D01*
X062200Y022419D02*
Y024360D01*
X062051Y022600D02*
X062381D01*
X062072Y022800D02*
X062581D01*
X062000Y022915D02*
Y023035D01*
X062400Y022619D02*
Y024360D01*
X062600Y022819D02*
Y024181D01*
X062775Y022915D02*
X062910D01*
X062800D02*
Y023981D01*
X061952Y023000D02*
X062959D01*
X059162Y023385D02*
X059580D01*
X059400D02*
Y023624D01*
X059200Y023385D02*
Y023424D01*
X059600Y023384D02*
Y023824D01*
X059162Y023385D02*
X059600Y023824D01*
X059699Y024062D02*
Y024674D01*
X059176Y023400D02*
X060569D01*
X059720Y023200D02*
X060511D01*
X059576Y023800D02*
X061003D01*
X059693Y024000D02*
X060864D01*
X059699Y024200D02*
X060902D01*
X058550Y027350D02*
X059310D01*
X059777Y027120D02*
X059847D01*
X058600Y027350D02*
Y027400D01*
X059314*
X058800Y027350D02*
Y027600D01*
X059453*
X059699Y024400D02*
X060583D01*
X059699Y024600D02*
X060381D01*
X059812Y024800D02*
X060181D01*
X059747Y027600D02*
X060452D01*
X061000Y023435D02*
Y023802D01*
X060600Y023435D02*
Y024388D01*
X060800Y023515D02*
Y024360D01*
X061195Y023483D02*
X061825D01*
X061400D02*
Y023903D01*
X061200Y023483D02*
Y023764D01*
X061600Y023483D02*
Y024360D01*
X062000Y023415D02*
Y024360D01*
X061800Y023483D02*
Y024360D01*
X059889Y025000D02*
X059981D01*
X060046Y027000D02*
X060217D01*
X059848Y027200D02*
X060452D01*
X059886Y027400D02*
X060414D01*
X059982Y027064D02*
X060136Y026910D01*
X061000Y024298D02*
Y024360D01*
X061400Y024197D02*
Y024360D01*
X059896Y025085D02*
X060565Y024416D01*
X059000Y027350D02*
Y027800D01*
X059200Y027350D02*
Y028000D01*
X059400Y027560D02*
Y028200D01*
X059600Y027640D02*
Y028400D01*
X060000Y027046D02*
Y028800D01*
X059800Y027560D02*
Y028600D01*
X059000Y027800D02*
X060414D01*
X059200Y028000D02*
X060452D01*
X060200Y026987D02*
Y029000D01*
X058550Y027350D02*
X061600Y030400D01*
X060400Y027035D02*
Y029200D01*
X059400Y028200D02*
X060414D01*
X059600Y028400D02*
X060553D01*
X059800Y028600D02*
X060942D01*
X060600Y028422D02*
Y029400D01*
X060200Y029000D02*
X060942D01*
X060800Y028422D02*
Y029600D01*
X060942*
X060000Y028800D02*
X061131D01*
X060847Y028400D02*
X060985D01*
X060400Y029200D02*
X060985D01*
X060600Y029400D02*
X060985D01*
X060976Y028240D02*
X061021D01*
X061000D02*
Y028381D01*
Y029719D02*
Y029800D01*
X061131*
X061000Y028719D02*
Y028881D01*
Y029219D02*
Y029381D01*
X061195Y029808D02*
X061689D01*
X061200D02*
Y030000D01*
X061881*
X061600Y029808D02*
Y030400D01*
X061400Y029808D02*
Y030200D01*
X061800Y029919D02*
Y031294D01*
X062000Y030119D02*
Y031377D01*
X061600Y035000D02*
X061648D01*
X061600Y030400D02*
Y031294D01*
Y030400D02*
Y031294D01*
Y034952D02*
X061774Y035126D01*
X061600Y034952D02*
Y035351D01*
Y034952D02*
Y035351D01*
X061800Y035149D02*
Y035351D01*
X061600Y031294D02*
X061872D01*
X061996Y032030D02*
Y033620D01*
X062000Y032023D02*
Y033627D01*
X061600Y035200D02*
X061878D01*
X062000Y035237D02*
Y035351D01*
X061398Y024200D02*
X062581D01*
X061436Y024000D02*
X062781D01*
X060700Y024360D02*
X062421D01*
X061400Y030200D02*
X062081D01*
X061689Y029808D02*
X062565Y030684D01*
X062200Y030319D02*
Y031343D01*
X059376Y023600D02*
X063110D01*
X062082Y023200D02*
X062828D01*
X062015Y023400D02*
X062895D01*
X062421Y024360D02*
X063110Y023671D01*
X061297Y023800D02*
X062981D01*
X062779Y024540D02*
X063434Y023885D01*
X062779Y024540D02*
X063780D01*
X061600Y030400D02*
X062281D01*
X061600Y030600D02*
X062481D01*
X062008Y031400D02*
X062121D01*
X062012Y031434D02*
Y031562D01*
X062400Y030519D02*
Y031294D01*
X062600Y030712D02*
Y031351D01*
X061600Y030800D02*
X064715D01*
X062700Y030740D02*
X064715D01*
X061600Y031000D02*
X066897D01*
X061600Y031200D02*
X066897D01*
X062667Y031400D02*
X066897D01*
X063000Y023469D02*
Y023781D01*
X063490Y023483D02*
Y023750D01*
X063110Y023483D02*
Y023671D01*
X063400Y023919D02*
Y024540D01*
X063319Y024000D02*
X063564D01*
X063490Y023600D02*
X064718D01*
X063490Y023483D02*
X063715D01*
X063483Y023800D02*
X063703D01*
X063600Y023483D02*
Y023903D01*
X063119Y024200D02*
X063602D01*
X063200Y024119D02*
Y024540D01*
X063600Y024197D02*
Y024540D01*
X063000Y024319D02*
Y024540D01*
X062919Y024400D02*
X064741D01*
X063779Y026800D02*
X064794D01*
X063779Y027800D02*
X064794D01*
X062787Y031600D02*
X066897D01*
X062012Y031838D02*
Y031966D01*
X062008Y032000D02*
X062121D01*
X061996Y033600D02*
X062188D01*
X062200Y032057D02*
Y033593D01*
X061996Y032600D02*
X064695D01*
X061996Y032200D02*
X064706D01*
X061996Y032400D02*
X064668D01*
X061996Y033200D02*
X066897D01*
X061996Y033400D02*
X066897D01*
X061996Y032800D02*
X064798D01*
X061996Y033000D02*
X065059D01*
X062012Y033684D02*
Y033812D01*
Y034200D02*
X062074D01*
X062012Y034088D02*
Y034216D01*
X062200Y034307D02*
Y034448D01*
X062006Y034255D02*
X062212Y034460D01*
X062152Y034400D02*
X064668D01*
X062050Y035240D02*
X064834D01*
X061600Y035351D02*
X066897D01*
X062212Y034460D02*
X064672D01*
X062200Y035240D02*
Y035351D01*
X062400Y032106D02*
Y033544D01*
X062800Y030740D02*
Y034460D01*
X062600Y032049D02*
Y033601D01*
X062599Y033600D02*
X066897D01*
X062787Y031800D02*
X065157D01*
X062667Y032000D02*
X064824D01*
X063200Y030740D02*
Y034460D01*
X063000Y030740D02*
Y034460D01*
X063600Y030740D02*
Y034460D01*
X063400Y030740D02*
Y034460D01*
X062400Y034356D02*
Y034460D01*
X062600Y034299D02*
Y034460D01*
X062400Y035240D02*
Y035351D01*
X062800Y035240D02*
Y035351D01*
X062600Y035240D02*
Y035351D01*
X062713Y034200D02*
X064695D01*
X062771Y033800D02*
X065059D01*
X062796Y034000D02*
X064798D01*
X063200Y035240D02*
Y035351D01*
X063000Y035240D02*
Y035351D01*
X063600Y035240D02*
Y035351D01*
X063400Y035240D02*
Y035351D01*
X063800Y012240D02*
Y012410D01*
X064000Y010140D02*
Y011680D01*
X063800Y010140D02*
Y011680D01*
X064000Y012240D02*
Y012410D01*
X064200Y010140D02*
Y011680D01*
X064600Y010140D02*
Y011680D01*
X064400Y010140D02*
Y011680D01*
X064200Y012240D02*
Y012481D01*
X064185Y012466D02*
X064784Y013065D01*
X064600Y012240D02*
Y012881D01*
X064400Y012240D02*
Y012681D01*
X064290Y016000D02*
X064331D01*
X064660Y015329D02*
Y015791D01*
Y015600D02*
X064718D01*
X064290Y016200D02*
X064531D01*
X064290Y016400D02*
X064731D01*
X064319Y012600D02*
X065231D01*
X064519Y012800D02*
X065431D01*
X064660Y015400D02*
X064731D01*
X064660Y015329D02*
X064739Y015407D01*
X064660Y015791D02*
X065007Y016139D01*
X064669Y015800D02*
X064794D01*
X064800Y010140D02*
Y011680D01*
X065000Y010140D02*
Y011680D01*
X064800Y012240D02*
Y013083D01*
X065000Y012369D02*
Y014141D01*
X064840Y013200D02*
Y014244D01*
X065200Y010140D02*
Y011777D01*
Y012569D02*
Y014118D01*
X065400Y010140D02*
Y011977D01*
Y012769D02*
Y014194D01*
X064840Y014200D02*
X064891D01*
X064840Y014856D02*
Y014971D01*
X065007Y015139*
X064800Y015809D02*
Y015931D01*
X065000Y014959D02*
Y015131D01*
Y015959D02*
Y016131D01*
X065200Y014982D02*
Y015118D01*
Y015982D02*
Y016118D01*
X065400Y014906D02*
Y015194D01*
Y015906D02*
Y016194D01*
X064290Y015931D02*
Y018912D01*
Y016600D02*
X064718D01*
X064290Y018600D02*
X064718D01*
X063909Y019555D02*
X064105Y019360D01*
X064200Y019323D02*
Y024881D01*
X064290Y018000D02*
X065431D01*
X064290Y016800D02*
X064794D01*
X064290Y017000D02*
X065431D01*
X064290Y018800D02*
X064794D01*
X064064Y019400D02*
X064741D01*
X064290Y018200D02*
X064891D01*
X064290Y018400D02*
X064741D01*
X063941Y019600D02*
X064718D01*
X064000Y019464D02*
Y023802D01*
X063905Y020400D02*
X064741D01*
X063962Y019800D02*
X064794D01*
X063972Y020200D02*
X064891D01*
X063941Y020600D02*
X064718D01*
X063905Y021400D02*
X064741D01*
X063962Y020800D02*
X064794D01*
X063972Y021200D02*
X064891D01*
X064290Y017400D02*
X064741D01*
X064336Y016005D02*
X064739Y016407D01*
X064800Y016809D02*
Y017291D01*
X064290Y017600D02*
X064718D01*
X064290Y017800D02*
X064794D01*
X064400Y016069D02*
Y029581D01*
X064600Y016269D02*
Y028831D01*
X065000Y016959D02*
Y017141D01*
X065400Y016906D02*
Y017031D01*
X065200Y016982D02*
Y017118D01*
X064290Y017200D02*
X064891D01*
X064800Y017809D02*
Y018291D01*
X065400Y017906D02*
Y018031D01*
X065000Y017959D02*
Y018141D01*
X064312Y019200D02*
X064891D01*
X064800Y018809D02*
Y019291D01*
X065000Y018959D02*
Y019141D01*
X064800Y019809D02*
Y020291D01*
Y020809D02*
Y021291D01*
X065000Y019959D02*
Y020141D01*
Y020959D02*
Y021141D01*
X065200Y017982D02*
Y018118D01*
X065400Y018906D02*
Y019194D01*
X065200Y018982D02*
Y019118D01*
Y019982D02*
Y020118D01*
Y020982D02*
Y021118D01*
X065400Y019906D02*
Y020194D01*
Y020906D02*
Y021194D01*
X064719Y013000D02*
X065631D01*
X065600Y010140D02*
Y012177D01*
X064871Y012240D02*
X065660Y013029D01*
X064840Y014000D02*
X065660D01*
X064840Y013200D02*
X065660D01*
X064840Y013400D02*
X065660D01*
X065223Y011800D02*
X066897D01*
X065423Y012000D02*
X066897D01*
X065623Y012200D02*
X066897D01*
X064840Y013600D02*
X065660D01*
X064840Y013800D02*
X065660D01*
X065159Y011736D02*
X066164Y012741D01*
X065409Y014200D02*
X065660D01*
X064869Y015000D02*
X065660D01*
X065559Y014400D02*
X065660D01*
X065582Y014600D02*
X065660D01*
X065409Y015200D02*
X065660D01*
X065559Y015400D02*
X065660D01*
X065506Y016800D02*
X065631D01*
X065506Y014800D02*
X065660D01*
X065582Y015600D02*
X065660D01*
X065506Y015800D02*
X065660D01*
X064869Y016000D02*
X065660D01*
X065409Y016200D02*
X065660D01*
X065559Y016400D02*
X065660D01*
X065582Y016600D02*
X065660D01*
X065800Y010140D02*
Y012377D01*
X066000Y010140D02*
Y012577D01*
X065823Y012400D02*
X066897D01*
X065660Y013029D02*
Y016771D01*
X066200Y010140D02*
Y012791D01*
X066023Y012600D02*
X066897D01*
X066204Y012800D02*
X066897D01*
X066220Y013000D02*
X066897D01*
X066220Y013600D02*
X066897D01*
X066220Y013800D02*
X066897D01*
X066220Y013200D02*
X066897D01*
X066220Y013400D02*
X066897D01*
X066220Y015800D02*
X066897D01*
X066220Y015400D02*
X066897D01*
X066220Y015600D02*
X066897D01*
X066220Y016400D02*
X066897D01*
X066220Y016600D02*
X066897D01*
X066220Y016000D02*
X066897D01*
X066220Y016200D02*
X066897D01*
X066220Y014400D02*
X066897D01*
X066220Y014000D02*
X066897D01*
X066220Y014200D02*
X066897D01*
X066220Y015000D02*
X066897D01*
X066220Y015200D02*
X066897D01*
X066220Y014600D02*
X066897D01*
X066220Y014800D02*
X066897D01*
X065293Y017139D02*
X065660Y016771D01*
X065506Y017800D02*
X065631D01*
X065561Y017407D02*
X065840Y017129D01*
X065569Y017400D02*
X065840D01*
X065582Y017600D02*
X065831D01*
X065293Y018139D02*
X065840Y017591D01*
X065506Y018800D02*
X066897D01*
X065561Y018407D02*
X066184Y017785D01*
X065569Y018400D02*
X066897D01*
X064330Y019000D02*
X066897D01*
X065559Y019400D02*
X066897D01*
X065582Y019600D02*
X066897D01*
X065409Y021200D02*
X066897D01*
X063841Y020000D02*
X066897D01*
X065409Y019200D02*
X066897D01*
X065506Y019800D02*
X066897D01*
X065409Y020200D02*
X066897D01*
X063841Y021000D02*
X066897D01*
X065559Y020400D02*
X066897D01*
X065506Y020800D02*
X066897D01*
X065600Y012969D02*
Y016831D01*
X066220Y012875D02*
Y017565D01*
X065769Y017200D02*
X065840D01*
X065800Y017169D02*
Y017631D01*
X065600Y017369D02*
Y017831D01*
X066400Y010140D02*
Y035351D01*
X065840Y017129D02*
Y017591D01*
X066220Y017200D02*
X066897D01*
X066220Y016800D02*
X066897D01*
X066220Y017000D02*
X066897D01*
X066600Y010140D02*
Y035351D01*
X066220Y017400D02*
X066897D01*
Y010140D02*
Y035351D01*
X066800Y010140D02*
Y035351D01*
X065800Y018169D02*
Y032029D01*
X065600Y018369D02*
Y031859D01*
X066200Y017767D02*
Y035351D01*
X066000Y017969D02*
Y035351D01*
X066169Y017800D02*
X066897D01*
X066233Y017600D02*
X066897D01*
X065582Y018600D02*
X066897D01*
X065582Y020600D02*
X066897D01*
X065969Y018000D02*
X066897D01*
X065769Y018200D02*
X066897D01*
X063941Y021600D02*
X064718D01*
X063962Y021800D02*
X064794D01*
X063972Y022200D02*
X064891D01*
X063905Y022400D02*
X064741D01*
X063941Y022600D02*
X064718D01*
X063962Y022800D02*
X064794D01*
X063972Y023200D02*
X064891D01*
X063800Y023469D02*
Y023764D01*
Y024336D02*
Y024541D01*
X063890Y026740D02*
X063950D01*
X063905Y023400D02*
X064741D01*
X063997Y023800D02*
X064794D01*
X063915Y024596D02*
X064234Y024915D01*
X063919Y024600D02*
X064718D01*
X064000Y024298D02*
Y024681D01*
X064800Y021809D02*
Y022291D01*
Y023809D02*
Y024291D01*
X064119Y024800D02*
X064794D01*
X064800Y024809D02*
Y025291D01*
X065000Y021959D02*
Y022141D01*
Y022959D02*
Y023141D01*
X065200Y022982D02*
Y023118D01*
X064800Y022809D02*
Y023291D01*
X064098Y024200D02*
X064891D01*
X065000Y023959D02*
Y024141D01*
X065200Y023982D02*
Y024118D01*
X064290Y026400D02*
X064741D01*
X064290Y025050D02*
Y026400D01*
Y025600D02*
X064718D01*
X064085Y026684D02*
X064234Y026535D01*
X064169Y026600D02*
X064718D01*
X064290Y025400D02*
X064741D01*
X065000Y024959D02*
Y025141D01*
X064290Y025200D02*
X064891D01*
X064290Y025800D02*
X064794D01*
X064290Y026200D02*
X064891D01*
X064800Y025809D02*
Y026291D01*
X065000Y025959D02*
Y026141D01*
X064200Y026569D02*
Y029302D01*
X064000Y026733D02*
Y029264D01*
X063925Y027200D02*
X064891D01*
X063925Y027400D02*
X064741D01*
X063968Y027600D02*
X064718D01*
X063925Y028400D02*
X064741D01*
X063779Y028800D02*
X064631D01*
X063925Y028200D02*
X064891D01*
X063968Y028600D02*
X064718D01*
X064000Y030740D02*
Y034460D01*
X063800Y030740D02*
Y034460D01*
X064000Y035240D02*
Y035351D01*
X063800Y035240D02*
Y035351D01*
X064200Y030740D02*
Y034460D01*
Y035240D02*
Y035351D01*
X063925Y029200D02*
X064460D01*
X063968Y029000D02*
X064467D01*
X064298Y029400D02*
X064460D01*
X064316Y029665D02*
X064460Y029521D01*
X064336Y029600D02*
X064381D01*
X064516Y028915D02*
X064739Y028693D01*
X064800Y026809D02*
Y027291D01*
Y027809D02*
Y028291D01*
X064460Y029050D02*
Y029521D01*
X064840Y029129D02*
Y029244D01*
Y029129D02*
X065007Y028961D01*
X065000Y026959D02*
Y027141D01*
Y027959D02*
Y028141D01*
X064840Y029200D02*
X064891D01*
X064854Y030115D02*
X065007Y029961D01*
X065000Y028969D02*
Y029141D01*
Y029969D02*
Y030115D01*
X064715Y030740D02*
Y030845D01*
X064800Y030974D02*
Y032029D01*
Y032803D02*
Y033997D01*
X064400Y030740D02*
Y034460D01*
Y035240D02*
Y035351D01*
X064600Y030740D02*
Y034460D01*
Y035240D02*
Y035351D01*
X065000Y030985D02*
Y031859D01*
Y032972D02*
Y033828D01*
X064800Y035240D02*
Y035351D01*
X065000Y035203D02*
Y035351D01*
X065400Y021906D02*
Y022194D01*
X065200Y021982D02*
Y022118D01*
X065400Y022906D02*
Y023194D01*
X065200Y024982D02*
Y025118D01*
X065400Y023906D02*
Y024194D01*
Y024906D02*
Y025194D01*
X063841Y022000D02*
X066897D01*
X065409Y022200D02*
X066897D01*
X063841Y023000D02*
X066897D01*
X064136Y024000D02*
X066897D01*
X065409Y023200D02*
X066897D01*
X065200Y025982D02*
Y026118D01*
X065400Y025906D02*
Y026194D01*
X065200Y026982D02*
Y027118D01*
Y027982D02*
Y028118D01*
X065400Y026906D02*
Y027194D01*
Y027906D02*
Y028194D01*
X064283Y025000D02*
X066897D01*
X064290Y026000D02*
X066897D01*
X063968Y027000D02*
X066897D01*
X063968Y028000D02*
X066897D01*
X065409Y024200D02*
X066897D01*
X065582Y023600D02*
X066897D01*
X065506Y023800D02*
X066897D01*
X065506Y024800D02*
X066897D01*
X065409Y025200D02*
X066897D01*
X065559Y024400D02*
X066897D01*
X065582Y024600D02*
X066897D01*
X065506Y021800D02*
X066897D01*
X065559Y021400D02*
X066897D01*
X065582Y021600D02*
X066897D01*
X065559Y022400D02*
X066897D01*
X065506Y022800D02*
X066897D01*
X065582Y022600D02*
X066897D01*
X065559Y023400D02*
X066897D01*
X065409Y027200D02*
X066897D01*
X065559Y027400D02*
X066897D01*
X065582Y027600D02*
X066897D01*
X065506Y027800D02*
X066897D01*
X065409Y028200D02*
X066897D01*
X065559Y028400D02*
X066897D01*
X065582Y028600D02*
X066897D01*
X065506Y025800D02*
X066897D01*
X065559Y025400D02*
X066897D01*
X065582Y025600D02*
X066897D01*
X065409Y026200D02*
X066897D01*
X065506Y026800D02*
X066897D01*
X065559Y026400D02*
X066897D01*
X065582Y026600D02*
X066897D01*
X065200Y028982D02*
Y029118D01*
X065400Y028906D02*
Y029194D01*
X065200Y029982D02*
Y030115D01*
Y030985D02*
Y031792D01*
X064855Y030985D02*
X065445D01*
X065400Y029906D02*
Y030115D01*
Y030985D02*
Y031792D01*
X064969Y029000D02*
X066897D01*
X065409Y029200D02*
X066897D01*
X064855Y030115D02*
X065445D01*
X064969Y030000D02*
X066897D01*
X065200Y033040D02*
Y033760D01*
X065110Y035126D02*
X065224Y035012D01*
X065400Y033040D02*
Y033760D01*
X065200Y035036D02*
Y035351D01*
X065006Y035200D02*
X066897D01*
X065443Y035000D02*
X066897D01*
X065400Y035008D02*
Y035351D01*
X065506Y028800D02*
X066897D01*
X065559Y029400D02*
X066897D01*
X065582Y029600D02*
X066897D01*
X065574Y030200D02*
X066897D01*
X065585Y030255D02*
Y030845D01*
X065506Y029800D02*
X066897D01*
X065585Y030400D02*
X066897D01*
X065585Y030600D02*
X066897D01*
X065585Y030800D02*
X066897D01*
X065443Y031800D02*
X066897D01*
X065776Y032000D02*
X066897D01*
X065894Y032200D02*
X066897D01*
X065541Y033000D02*
X066897D01*
X065932Y032400D02*
X066897D01*
X065905Y032600D02*
X066897D01*
X065600Y032972D02*
Y033828D01*
Y034941D02*
Y035351D01*
X065800Y032803D02*
Y033997D01*
Y034771D02*
Y035351D01*
X065541Y033800D02*
X066897D01*
X065802Y032800D02*
X066897D01*
X065802Y034000D02*
X066897D01*
X065894Y034600D02*
X066897D01*
X065776Y034800D02*
X066897D01*
X065905Y034200D02*
X066897D01*
X065932Y034400D02*
X066897D01*
G54D11*
X061510Y029550D03*
Y029050D03*
Y028550D03*
Y028050D03*
Y027550D03*
Y027050D03*
Y026550D03*
Y026050D03*
X063400Y029550D03*
Y029050D03*
Y028550D03*
Y028050D03*
Y027550D03*
Y027050D03*
Y026550D03*
Y026050D03*
X061510Y023225D03*
Y022725D03*
Y022225D03*
Y021725D03*
Y021225D03*
Y020725D03*
Y020225D03*
Y019725D03*
X063400Y023225D03*
Y022725D03*
Y022225D03*
Y021725D03*
Y021225D03*
Y020725D03*
Y020225D03*
Y019725D03*
X061510Y016900D03*
Y016400D03*
Y015900D03*
Y015400D03*
Y014900D03*
Y014400D03*
Y013900D03*
Y013400D03*
X063400Y016900D03*
Y016400D03*
Y015900D03*
Y015400D03*
Y014900D03*
Y014400D03*
Y013900D03*
Y013400D03*
G54D12*
X059300Y022250D03*
X058631D03*
G54D13*
X058576Y022950D03*
X059324D03*
G54D14*
X061510Y016400D02*
Y016900D01*
X060900Y016400D02*
X061510D01*
X060570Y016070D02*
X060900Y016400D01*
X060570Y012725D02*
Y016070D01*
Y012725D02*
X061425Y011870D01*
X065025*
X066030Y012875*
Y017630*
X066050Y017650*
X065150Y018550D02*
X066050Y017650D01*
X065150Y017550D02*
X065850Y016850D01*
Y012950D02*
Y016850D01*
X064950Y012050D02*
X065850Y012950D01*
X061500Y012050D02*
X064950D01*
X060750Y012800D02*
X061500Y012050D01*
X060750Y012800D02*
Y015250D01*
X060900Y015400*
X061510*
X062400Y015050D02*
Y017491D01*
Y015050D02*
X062800Y014650D01*
Y014000D02*
Y014650D01*
Y014000D02*
X062900Y013900D01*
X061510Y015400D02*
Y015900D01*
X062625Y012780D02*
X063975D01*
X062350Y013055D02*
X062625Y012780D01*
X062350Y013055D02*
Y014100D01*
X062050Y014400D02*
X062350Y014100D01*
X061510Y014400D02*
X062050D01*
X061510D02*
Y014900D01*
X062000Y013900D02*
X062150Y013750D01*
Y013000D02*
Y013750D01*
Y013000D02*
X062550Y012600D01*
X061510Y013900D02*
X062000D01*
X062550Y012600D02*
X064050D01*
X054750Y025750D02*
X059500D01*
X054638Y025638D02*
X054750Y025750D01*
X054638Y025088D02*
Y025638D01*
X048600Y025950D02*
X059555D01*
X048388Y025738D02*
X048600Y025950D01*
X048388Y025088D02*
Y025738D01*
X042550Y026150D02*
X059609D01*
X042138Y025738D02*
X042550Y026150D01*
X042138Y025088D02*
Y025738D01*
X036450Y026350D02*
X059664D01*
X035888Y025788D02*
X036450Y026350D01*
X035888Y025088D02*
Y025788D01*
X030400Y026550D02*
X059718D01*
X029638Y025788D02*
X030400Y026550D01*
X029638Y025088D02*
Y025788D01*
X024400Y026750D02*
X059773D01*
X023388Y025738D02*
X024400Y026750D01*
X023388Y025088D02*
Y025738D01*
X018895Y026930D02*
X059847D01*
X018885Y026920D02*
X018895Y026930D01*
X018320Y026920D02*
X018885D01*
X017138Y025738D02*
X018320Y026920D01*
X017138Y025088D02*
Y025738D01*
X012250Y027100D02*
X018810D01*
X010888Y025738D02*
X012250Y027100D01*
X010888Y025088D02*
Y025738D01*
X059860Y018990D02*
X061885D01*
X059362Y019488D02*
X059860Y018990D01*
X059362Y019488D02*
Y020312D01*
X053790Y018810D02*
X061960D01*
X053112Y019488D02*
X053790Y018810D01*
X053112Y019488D02*
Y020312D01*
X047720Y018630D02*
X062125D01*
X046862Y019488D02*
X047720Y018630D01*
X046862Y019488D02*
Y020312D01*
X041650Y018450D02*
X062200D01*
X040612Y019488D02*
X041650Y018450D01*
X040612Y019488D02*
Y020312D01*
X035630Y018270D02*
X062830D01*
X034362Y019538D02*
X035630Y018270D01*
X034362Y019538D02*
Y020312D01*
X029560Y018090D02*
X062310D01*
X028112Y019538D02*
X029560Y018090D01*
X028112Y019538D02*
Y020312D01*
X023500Y017900D02*
X062245D01*
X021862Y019538D02*
X023500Y017900D01*
X021862Y019538D02*
Y020312D01*
X017350Y017700D02*
X062191D01*
X015612Y019438D02*
X017350Y017700D01*
X015612Y019438D02*
Y020312D01*
X062191Y017700D02*
X062400Y017491D01*
X063400Y016400D02*
Y016900D01*
Y015400D02*
Y015900D01*
Y014400D02*
Y014900D01*
X062900Y013900D02*
X063400D01*
X062245Y017900D02*
X062600Y017545D01*
Y015150D02*
Y017545D01*
Y015150D02*
X062850Y014900D01*
X063400*
X062310Y018090D02*
X062800Y017600D01*
X062830Y018270D02*
X063400Y017700D01*
X062200Y018450D02*
X062700Y018950D01*
X062800Y016000D02*
Y017600D01*
Y016000D02*
X062900Y015900D01*
X063400Y016900D02*
Y017700D01*
X062900Y015900D02*
X063400D01*
X060800Y020225D02*
X061510D01*
X060800Y021225D02*
X061510D01*
X060800Y022225D02*
X061510D01*
X060800Y022725D02*
X061510D01*
X060800Y023225D02*
X061510D01*
Y020225D02*
Y020725D01*
Y021225D02*
Y021725D01*
X063400Y021225D02*
Y021725D01*
Y020225D02*
Y020725D01*
X062300Y021650D02*
X062875Y022225D01*
X062300Y019150D02*
Y021650D01*
X062875Y022225D02*
X063400D01*
X062775Y022725D02*
X063400D01*
X062120Y022070D02*
X062775Y022725D01*
X062120Y019225D02*
Y022070D01*
X061885Y018990D02*
X062120Y019225D01*
X061960Y018810D02*
X062300Y019150D01*
X062925Y021225D02*
X063400D01*
X062520Y020820D02*
X062925Y021225D01*
X062520Y019025D02*
Y020820D01*
X062125Y018630D02*
X062520Y019025D01*
X062700Y018950D02*
Y019900D01*
X063025Y020225*
X063400*
X063300Y023250D02*
Y023750D01*
X061124Y026550D02*
X061510D01*
X060724Y026950D02*
X061124Y026550D01*
X060700Y028150D02*
X060800Y028050D01*
X061510*
X060700Y027750D02*
X060724D01*
X060924Y027550*
X061510*
X061024Y027050D02*
X061510D01*
X060700Y026950D02*
X060724D01*
X061147Y025630D02*
X061930D01*
X059847Y026930D02*
X061147Y025630D01*
X059773Y026750D02*
X061073Y025450D01*
X062136*
X059718Y026550D02*
X060998Y025270D01*
X062211*
X059664Y026350D02*
X060924Y025090D01*
X062285*
X059609Y026150D02*
X060849Y024910D01*
X062360*
X059555Y025950D02*
X060775Y024730D01*
X063780*
X060700Y024550D02*
X062500D01*
X059500Y025750D02*
X060700Y024550D01*
X059410Y027160D02*
X059600Y027350D01*
X018810Y027160D02*
X059410D01*
X063400Y029550D02*
X064050D01*
X062500Y029700D02*
X062950Y030150D01*
X062500Y029150D02*
Y029700D01*
X061900Y028550D02*
X062500Y029150D01*
X062300Y029850D02*
X062800Y030350D01*
X062300Y029300D02*
Y029850D01*
X062050Y029050D02*
X062300Y029300D01*
X064650Y029050D02*
X065150Y028550D01*
X064650Y029050D02*
Y029600D01*
X064100Y030150D02*
X064650Y029600D01*
X062950Y030150D02*
X064100D01*
X061510Y028550D02*
X061900D01*
X064350Y030350D02*
X065150Y029550D01*
X062800Y030350D02*
X064350D01*
X061510Y029050D02*
X062050D01*
X062700Y030550D02*
X065150D01*
X061700Y029550D02*
X062700Y030550D01*
X061510Y029550D02*
X061700D01*
X062093Y025793D02*
Y028198D01*
X062273Y025587D02*
Y028123D01*
X062453Y025512D02*
Y027803D01*
X062633Y025438D02*
Y027283D01*
X062813Y026863D02*
X063000Y027050D01*
X062813Y025363D02*
Y026863D01*
X061930Y025630D02*
X062093Y025793D01*
X062136Y025450D02*
X062273Y025587D01*
X062211Y025270D02*
X062453Y025512D01*
X062285Y025090D02*
X062633Y025438D01*
X062360Y024910D02*
X062813Y025363D01*
X018810Y027100D02*
Y027160D01*
X062093Y028198D02*
X062714Y028818D01*
X063168*
X063400Y029050*
X062453Y027803D02*
X062700Y028050D01*
X062273Y028123D02*
X062700Y028550D01*
X062633Y027283D02*
X062900Y027550D01*
X062700Y028550D02*
X063400D01*
X062700Y028050D02*
X063400D01*
X063000Y027050D02*
X063400D01*
X063780Y024730D02*
X064100Y025050D01*
X062900Y027550D02*
X063400D01*
X062500Y024550D02*
X063300Y023750D01*
X064100Y025050D02*
Y026400D01*
X063950Y026550D02*
X064100Y026400D01*
X063400Y026550D02*
X063950D01*
X064050Y012600D02*
X064650Y013200D01*
Y015050*
X065150Y015550*
X063975Y012780D02*
X064470Y013275D01*
Y015870*
X065150Y016550*
X060724Y027350D02*
X061024Y027050D01*
X060700Y027350D02*
X060724D01*
X059300Y022250D02*
X059617D01*
X059300Y021953D02*
Y022250D01*
X059324Y022950D02*
Y023345D01*
Y022950D02*
X059680D01*
X061510Y013182D02*
Y013400D01*
X060977D02*
X061510D01*
X060977Y019725D02*
X061510D01*
Y019507D02*
Y019725D01*
X060900Y024050D02*
X061150D01*
Y023800D02*
Y024050D01*
Y024300*
Y024050D02*
X061400D01*
X063600D02*
X063850D01*
X062394Y031700D02*
Y032066D01*
Y031334D02*
Y031700D01*
X062759*
X062394Y033584D02*
Y033950D01*
X062759*
X062394D02*
Y034316D01*
X065150Y014155D02*
Y014550D01*
Y014945*
Y014550D02*
X065545D01*
X063850Y023800D02*
Y024050D01*
Y024300*
Y024050D02*
X064100D01*
X064708Y032416D02*
X065300D01*
Y031824D02*
Y032416D01*
Y033008*
Y032416D02*
X065892D01*
G54D15*
X063400Y025700D02*
Y026050D01*
X061100D02*
X061510D01*
X063400Y013400D02*
X064050D01*
Y019075*
X063400Y019725D02*
X064050Y019075D01*
X060200Y026950D02*
X061100Y026050D01*
X060200Y026950D02*
Y027400D01*
G54D16*
X053250Y022700D02*
X054750D01*
X054638Y022588D02*
X054750Y022700D01*
X054638Y020312D02*
Y022588D01*
X048500Y022700D02*
X053250D01*
X053112Y022838D02*
X053250Y022700D01*
X053112Y022838D02*
Y025088D01*
X047000Y022700D02*
X048500D01*
X048388Y022588D02*
X048500Y022700D01*
X048388Y020312D02*
Y022588D01*
X042250Y022700D02*
X047000D01*
X046862Y022838D02*
X047000Y022700D01*
X046862Y022838D02*
Y025088D01*
X040500Y022700D02*
X042250D01*
X042138Y022588D02*
X042250Y022700D01*
X042138Y020312D02*
Y022588D01*
X036000Y022700D02*
X040500D01*
X040612Y022812*
Y025088*
X034500Y022700D02*
X036000D01*
X035888Y022588D02*
X036000Y022700D01*
X035888Y020312D02*
Y022588D01*
X029750Y022700D02*
X034500D01*
X034362Y022838D02*
X034500Y022700D01*
X034362Y022838D02*
Y025088D01*
X028000Y022700D02*
X029750D01*
X029638Y022588D02*
X029750Y022700D01*
X029638Y020312D02*
Y022588D01*
X023500Y022700D02*
X028000D01*
X028112Y022812*
Y025088*
X015500Y022700D02*
X017250D01*
X011250D02*
X015500D01*
X015612Y022812*
Y025088*
X022000Y022700D02*
X023500D01*
X017250D02*
X022000D01*
X021862Y022838D02*
X022000Y022700D01*
X021862Y022838D02*
Y025088D01*
X023388Y022588D02*
X023500Y022700D01*
X023388Y020312D02*
Y022588D01*
X017138D02*
X017250Y022700D01*
X017138Y020312D02*
Y022588D01*
X010888Y020312D02*
Y022338D01*
X011250Y022700*
X059362Y024062D02*
Y025088D01*
X054750Y022700D02*
X058550D01*
X058631Y023331D02*
X059362Y024062D01*
X058631Y022250D02*
Y023331D01*
G54D17*
X064834Y034850D02*
X065300Y034384D01*
X062050Y034850D02*
X064834D01*
X061606Y034406D02*
X062050Y034850D01*
X061606Y031700D02*
Y033950D01*
Y034406*
G54D18*
X061606Y031700D03*
Y033950D03*
G54D19*
X062394Y031700D03*
Y033950D03*
G54D20*
X065150Y030550D03*
G54D21*
X065150Y014550D03*
Y015550D03*
Y016550D03*
Y017550D03*
Y018550D03*
Y019550D03*
Y020550D03*
Y021550D03*
Y022550D03*
Y023550D03*
Y024550D03*
Y025550D03*
Y026550D03*
Y027550D03*
Y028550D03*
Y029550D03*
G54D22*
X035888Y015588D03*
X040612D03*
X035888Y020312D03*
X040612D03*
X038250Y021100D03*
X053112Y029812D03*
X048388D03*
X053112Y025088D03*
X048388D03*
X050750Y024300D03*
X015612Y029812D03*
X010888D03*
X015612Y025088D03*
X010888D03*
X013250Y024300D03*
X029638Y015588D03*
X034362D03*
X029638Y020312D03*
X034362D03*
X032000Y021100D03*
X059362Y029812D03*
X054638D03*
X059362Y025088D03*
X054638D03*
X057000Y024300D03*
X021862Y029812D03*
X017138D03*
X021862Y025088D03*
X017138D03*
X019500Y024300D03*
X023388Y015588D03*
X028112D03*
X023388Y020312D03*
X028112D03*
X025750Y021100D03*
X054638Y015588D03*
X059362D03*
X054638Y020312D03*
X059362D03*
X057000Y021100D03*
X028112Y029812D03*
X023388D03*
X028112Y025088D03*
X023388D03*
X025750Y024300D03*
X017138Y015588D03*
X021862D03*
X017138Y020312D03*
X021862D03*
X019500Y021100D03*
X048388Y015588D03*
X053112D03*
X048388Y020312D03*
X053112D03*
X050750Y021100D03*
X034362Y029812D03*
X029638D03*
X034362Y025088D03*
X029638D03*
X032000Y024300D03*
X010888Y015588D03*
X015612D03*
X010888Y020312D03*
X015612D03*
X013250Y021100D03*
X042138Y015588D03*
X046862D03*
X042138Y020312D03*
X046862D03*
X044500Y021100D03*
X040612Y029812D03*
X035888D03*
X040612Y025088D03*
X035888D03*
X038250Y024300D03*
X046862Y029812D03*
X042138D03*
X046862Y025088D03*
X042138D03*
X044500Y024300D03*
G54D23*
X036250Y012450D03*
X038250D03*
X040250D03*
X052750Y032950D03*
X050750D03*
X048750D03*
X015250D03*
X013250D03*
X011250D03*
X030000Y012450D03*
X032000D03*
X034000D03*
X059000Y032950D03*
X057000D03*
X055000D03*
X021500D03*
X019500D03*
X017500D03*
X023750Y012450D03*
X025750D03*
X027750D03*
X055000D03*
X057000D03*
X059000D03*
X027750Y032950D03*
X025750D03*
X023750D03*
X017500Y012450D03*
X019500D03*
X021500D03*
X048750D03*
X050750D03*
X052750D03*
X034000Y032950D03*
X032000D03*
X030000D03*
X011250Y012450D03*
X013250D03*
X015250D03*
X042500D03*
X044500D03*
X046500D03*
X040250Y032950D03*
X038250D03*
X036250D03*
X065300Y032416D03*
Y034384D03*
X046500Y032950D03*
X044500D03*
X042500D03*
G54D24*
X060800Y023225D03*
Y020225D03*
Y021225D03*
Y022725D03*
Y022225D03*
X063400Y025700D03*
X060700Y026950D03*
Y027750D03*
Y028150D03*
X059600Y027350D03*
X064050Y029550D03*
Y019075D03*
X061150Y024050D03*
X063850D03*
X060700Y027350D03*
M02*