%FSDAX24Y24*%
%MOIN*%
%SFA1B1*%

%IPPOS*%
%ADD11R,0.039400X0.043300*%
%ADD23C,0.059100*%
%ADD27C,0.053100*%
%ADD28R,0.053100X0.053100*%
%ADD29C,0.098400*%
%ADD30R,0.059100X0.059100*%
%ADD31R,0.059100X0.059100*%
%LNde-260124-1*%
%LPD*%
G54D11*
X027000Y015915D03*
Y016585D03*
X026177Y015915D03*
Y016585D03*
X025353Y015915D03*
Y016585D03*
X024530Y015915D03*
Y016585D03*
X023707Y015915D03*
Y016585D03*
X022883Y015915D03*
Y016585D03*
X022060Y015915D03*
Y016585D03*
X021237Y015915D03*
Y016585D03*
X020413Y015915D03*
Y016585D03*
X019590Y015915D03*
Y016585D03*
X018767Y015915D03*
Y016585D03*
X017943Y015915D03*
Y016585D03*
X017120Y015915D03*
Y016585D03*
X016297Y015915D03*
Y016585D03*
X015473Y015915D03*
Y016585D03*
X014650Y015915D03*
Y016585D03*
G54D23*
X027900Y033600D03*
X028900D03*
X027900Y032600D03*
X028900D03*
X027900Y031600D03*
X028900D03*
X027900Y030600D03*
X028900D03*
X027900Y029600D03*
X028900D03*
X027900Y028600D03*
X028900D03*
X027900Y027600D03*
X028900D03*
X027900Y026600D03*
X028900D03*
X027900Y025600D03*
X028900D03*
X027900Y024600D03*
X018178Y021250D03*
X019178D03*
X014550Y039200D03*
Y038200D03*
Y037200D03*
Y036200D03*
Y035200D03*
Y034200D03*
Y033200D03*
Y032200D03*
Y031200D03*
Y030200D03*
Y029200D03*
Y028200D03*
Y027200D03*
Y026200D03*
Y025200D03*
Y024200D03*
G54D27*
X023200Y034556D03*
X025550D03*
G54D28*
X023200Y035344D03*
X025550D03*
G54D29*
X029650Y014516D03*
Y016484D03*
X024500Y037816D03*
Y039784D03*
G54D30*
X028900Y024600D03*
X014550Y040200D03*
G54D31*
X020178Y021250D03*
M02*