%FSDAX24Y24*%
%MOIN*%
%SFA1B1*%

%IPPOS*%
%ADD10C,0.007874*%
%ADD11C,0.005000*%
%LNpcb_relayboard-1*%
%LPD*%
G54D10*
X001483Y010416D02*
Y010574D01*
X001404Y010416D02*
X001483D01*
X001916D02*
X001995D01*
X001916D02*
Y010574D01*
X001995Y009825D02*
Y010574D01*
X001404Y009825D02*
Y010574D01*
X001916Y009825D02*
X001995D01*
X001916Y010574D02*
X001995D01*
X001404Y009825D02*
X001483D01*
X001404Y010574D02*
X001483D01*
X024116Y009825D02*
Y009983D01*
X024195*
X023604D02*
X023683D01*
Y009825D02*
Y009983D01*
X023604Y009825D02*
Y010574D01*
X024195Y009825D02*
Y010574D01*
X023604D02*
X023683D01*
X023604Y009825D02*
X023683D01*
X024116Y010574D02*
X024195D01*
X024116Y009825D02*
X024195D01*
X014283Y005216D02*
Y005374D01*
X014204Y005216D02*
X014283D01*
X014716D02*
X014795D01*
X014716D02*
Y005374D01*
X014795Y004625D02*
Y005374D01*
X014204Y004625D02*
Y005374D01*
X014716Y004625D02*
X014795D01*
X014716Y005374D02*
X014795D01*
X014204Y004625D02*
X014283D01*
X014204Y005374D02*
X014283D01*
X011316Y004625D02*
Y004783D01*
X011395*
X010804D02*
X010883D01*
Y004625D02*
Y004783D01*
X010804Y004625D02*
Y005374D01*
X011395Y004625D02*
Y005374D01*
X010804D02*
X010883D01*
X010804Y004625D02*
X010883D01*
X011316Y005374D02*
X011395D01*
X011316Y004625D02*
X011395D01*
G54D11*
X014049Y005299D02*
Y005100D01*
X013949*
X013916Y005133*
Y005266*
X013949Y005299*
X014049*
X013850Y005100D02*
X013783D01*
X013816*
Y005299*
X013850Y005266*
X013683Y005299D02*
X013550D01*
Y005266*
X013683Y005133*
Y005100*
X023449Y010499D02*
Y010300D01*
X023349*
X023316Y010333*
Y010466*
X023349Y010499*
X023449*
X023250Y010300D02*
X023183D01*
X023216*
Y010499*
X023250Y010466*
X022950Y010499D02*
X023016Y010466D01*
X023083Y010400*
Y010333*
X023050Y010300*
X022983*
X022950Y010333*
Y010366*
X022983Y010400*
X023083*
X001249Y010499D02*
Y010300D01*
X001149*
X001116Y010333*
Y010466*
X001149Y010499*
X001249*
X001050Y010300D02*
X000983D01*
X001016*
Y010499*
X001050Y010466*
X000750Y010499D02*
X000883D01*
Y010400*
X000816Y010433*
X000783*
X000750Y010400*
Y010333*
X000783Y010300*
X000850*
X000883Y010333*
X010649Y005299D02*
Y005100D01*
X010549*
X010516Y005133*
Y005266*
X010549Y005299*
X010649*
X010450Y005100D02*
X010383D01*
X010416*
Y005299*
X010450Y005266*
X010183Y005100D02*
Y005299D01*
X010283Y005200*
X010150*
M02*