%FSDAX24Y24*%
%MOIN*%
%SFA1B1*%

%IPPOS*%
%ADD16C,0.020000*%
%ADD17C,0.060000*%
%ADD18R,0.059055X0.059055*%
%ADD19C,0.059055*%
%ADD20C,0.098425*%
%ADD21C,0.030000*%
%LN‚pcb_relayboard-1*%
%LPD*%
G54D16*
X014531Y005568D02*
Y006488D01*
Y005568D02*
X015700Y004400D01*
Y002790D02*
Y004400D01*
X012483Y003583D02*
X014531Y005631D01*
X011140Y003583D02*
X012483D01*
X011068Y003511D02*
X011140Y003583D01*
X023245Y011545D02*
X023769D01*
X023900Y011676*
X021000Y009300D02*
X023245Y011545D01*
X013700Y002680D02*
X014531Y003511D01*
X013700Y001790D02*
Y002680D01*
Y000790D02*
Y001790D01*
X010700Y000790D02*
Y001790D01*
X010100Y002390D02*
X010700Y001790D01*
X010100Y005519D02*
X011068Y006488D01*
X010100Y002390D02*
Y005519D01*
X014700Y001790D02*
X015700Y002790D01*
X014700Y000790D02*
Y001790D01*
G54D17*
X013978Y011676D02*
X015962D01*
X019300Y000790D02*
Y001790D01*
Y005362*
X015962Y008700D02*
X019300Y005362D01*
X018300Y001790D02*
Y004600D01*
X015200Y007700D02*
X018300Y004600D01*
X014400Y007700D02*
X015200D01*
X013978Y008121D02*
X014400Y007700D01*
X013978Y008121D02*
Y008700D01*
X018300Y000790D02*
Y001790D01*
X022468Y006488D02*
X024452D01*
X022450Y001790D02*
Y003493D01*
X022468Y003511*
X022450Y000790D02*
Y001790D01*
X024452Y002792D02*
Y003511D01*
X023450Y001790D02*
X024452Y002792D01*
X023450Y000790D02*
Y001790D01*
X007299Y000790D02*
Y006342D01*
X009668Y008711*
X008299Y000790D02*
Y001790D01*
X011579Y008279D02*
Y008638D01*
X011000Y007700D02*
X011579Y008279D01*
Y008638D02*
X011652Y008711D01*
X008299Y005799D02*
X010200Y007700D01*
X011000*
X008299Y001790D02*
Y005799D01*
X006300Y007327D02*
X007684Y008711D01*
X006300Y001790D02*
Y007327D01*
X006299Y001790D02*
X006300Y001790D01*
X011652Y008711D02*
Y011688D01*
X009668Y008711D02*
Y011688D01*
X006299Y000790D02*
Y001790D01*
X007684Y008711D02*
Y011688D01*
X003149Y000790D02*
Y001790D01*
X003393D02*
X005115Y003511D01*
X003149Y001790D02*
X003393D01*
X005115Y003511D02*
Y006488D01*
X002149Y000790D02*
Y001790D01*
Y002529*
X003131Y003511*
Y006488*
X001147Y003511D02*
Y006488D01*
X001149Y001790D02*
Y003509D01*
X001147Y003511D02*
X001149Y003509D01*
Y000790D02*
Y001790D01*
G54D18*
X010700Y000790D03*
X018300D03*
X022450D03*
X006299D03*
X003149Y001790D03*
G54D19*
X010700Y001790D03*
X011700Y000790D03*
Y001790D03*
X012700Y000790D03*
Y001790D03*
X013700Y000790D03*
Y001790D03*
X014700Y000790D03*
Y001790D03*
X018300D03*
X019300Y000790D03*
Y001790D03*
X022450D03*
X023450Y000790D03*
Y001790D03*
X008299D03*
Y000790D03*
X007299Y001790D03*
Y000790D03*
X006299Y001790D03*
X001149Y000790D03*
Y001790D03*
X002149Y000790D03*
Y001790D03*
X003149Y000790D03*
G54D20*
X024452Y003511D03*
X022468D03*
X020484D03*
X024452Y006488D03*
X022468D03*
X020484D03*
X014531Y003511D03*
Y006488D03*
X013978Y011676D03*
X015962D03*
X017947D03*
X013978Y008700D03*
X015962D03*
X017947D03*
X023900Y011676D03*
Y008700D03*
X001147Y006488D03*
X003131D03*
X005115D03*
X001147Y003511D03*
X003131D03*
X005115D03*
X011068Y006488D03*
Y003511D03*
X011652Y008711D03*
X009668D03*
X007684D03*
X011652Y011688D03*
X009668D03*
X007684D03*
X001731Y008711D03*
Y011688D03*
G54D21*
X021000Y009300D03*
M02*