%FSDAX24Y24*%
%MOIN*%
%SFA1B1*%

%IPPOS*%
%ADD26C,0.010000*%
%ADD34C,0.007900*%
%ADD35C,0.009800*%
%ADD36C,0.023600*%
%ADD37C,0.005000*%
%ADD38C,0.003900*%
%ADD39C,0.008000*%
%LNde-260124-1*%
%LPD*%
G54D26*
X031225Y013532D02*
Y017469D01*
X028025D02*
X031225D01*
X028025Y013532D02*
X031225D01*
X028025D02*
Y017469D01*
X026075Y036832D02*
Y040768D01*
X022875D02*
X026075D01*
X022875Y036832D02*
X026075D01*
X022875D02*
Y040768D01*
X015467Y024283D02*
X015400Y024350D01*
X015267*
X015200Y024283*
Y024017*
X015267Y023950*
X015400*
X015467Y024017*
Y024150*
X015333*
X015600Y023950D02*
Y024350D01*
X015866Y023950*
Y024350*
X016000D02*
Y023950D01*
X016200*
X016266Y024017*
Y024283*
X016200Y024350*
X016000*
X015200Y025283D02*
X015267Y025350D01*
X015400*
X015467Y025283*
Y025217*
X015400Y025150*
X015333*
X015400*
X015467Y025083*
Y025017*
X015400Y024950*
X015267*
X015200Y025017*
X015600Y024950D02*
X015733D01*
X015667*
Y025350*
X015600Y025283*
X015250Y040050D02*
X015383D01*
X015317*
Y040450*
X015250Y040383*
X015850Y040450D02*
X015717Y040383D01*
X015583Y040250*
Y040117*
X015650Y040050*
X015783*
X015850Y040117*
Y040183*
X015783Y040250*
X015583*
G54D34*
X024184Y034950D02*
D01*
X024181Y035018*
X024174Y035086*
X024162Y035154*
X024145Y035221*
X024124Y035286*
X024098Y035350*
X024068Y035411*
X024034Y035471*
X023996Y035528*
X023953Y035582*
X023907Y035633*
X023858Y035681*
X023805Y035725*
X023750Y035765*
X023692Y035802*
X023631Y035834*
X023568Y035862*
X023504Y035885*
X023438Y035904*
X023370Y035919*
X023302Y035928*
X023234Y035933*
X023165*
X023097Y035928*
X023029Y035919*
X022961Y035904*
X022895Y035885*
X022831Y035862*
X022768Y035834*
X022708Y035802*
X022649Y035765*
X022594Y035725*
X022541Y035681*
X022492Y035633*
X022446Y035582*
X022403Y035528*
X022365Y035471*
X022331Y035411*
X022301Y035350*
X022275Y035286*
X022254Y035221*
X022237Y035154*
X022225Y035086*
X022218Y035018*
X022216Y034950*
X022218Y034881*
X022225Y034813*
X022237Y034745*
X022254Y034678*
X022275Y034613*
X022301Y034549*
X022331Y034488*
X022365Y034428*
X022403Y034371*
X022446Y034317*
X022492Y034266*
X022541Y034218*
X022594Y034174*
X022649Y034134*
X022708Y034097*
X022768Y034065*
X022831Y034037*
X022895Y034014*
X022961Y033995*
X023029Y033980*
X023097Y033971*
X023165Y033966*
X023234*
X023302Y033971*
X023370Y033980*
X023438Y033995*
X023504Y034014*
X023568Y034037*
X023631Y034065*
X023692Y034097*
X023750Y034134*
X023805Y034174*
X023858Y034218*
X023907Y034266*
X023953Y034317*
X023996Y034371*
X024034Y034428*
X024068Y034488*
X024098Y034549*
X024124Y034613*
X024145Y034678*
X024162Y034745*
X024174Y034813*
X024181Y034881*
X024184Y034950*
X026534D02*
D01*
X026531Y035018*
X026524Y035086*
X026512Y035154*
X026495Y035221*
X026474Y035286*
X026448Y035350*
X026418Y035411*
X026384Y035471*
X026346Y035528*
X026303Y035582*
X026257Y035633*
X026208Y035681*
X026155Y035725*
X026100Y035765*
X026042Y035802*
X025981Y035834*
X025918Y035862*
X025854Y035885*
X025788Y035904*
X025720Y035919*
X025652Y035928*
X025584Y035933*
X025515*
X025447Y035928*
X025379Y035919*
X025311Y035904*
X025245Y035885*
X025181Y035862*
X025118Y035834*
X025058Y035802*
X024999Y035765*
X024944Y035725*
X024891Y035681*
X024842Y035633*
X024796Y035582*
X024753Y035528*
X024715Y035471*
X024681Y035411*
X024651Y035350*
X024625Y035286*
X024604Y035221*
X024587Y035154*
X024575Y035086*
X024568Y035018*
X024566Y034950*
X024568Y034881*
X024575Y034813*
X024587Y034745*
X024604Y034678*
X024625Y034613*
X024651Y034549*
X024681Y034488*
X024715Y034428*
X024753Y034371*
X024796Y034317*
X024842Y034266*
X024891Y034218*
X024944Y034174*
X024999Y034134*
X025058Y034097*
X025118Y034065*
X025181Y034037*
X025245Y034014*
X025311Y033995*
X025379Y033980*
X025447Y033971*
X025515Y033966*
X025584*
X025652Y033971*
X025720Y033980*
X025788Y033995*
X025854Y034014*
X025918Y034037*
X025981Y034065*
X026042Y034097*
X026100Y034134*
X026155Y034174*
X026208Y034218*
X026257Y034266*
X026303Y034317*
X026346Y034371*
X026384Y034428*
X026418Y034488*
X026448Y034549*
X026474Y034613*
X026495Y034678*
X026512Y034745*
X026524Y034813*
X026531Y034881*
X026534Y034950*
X025019Y024243D02*
Y024557D01*
X030643Y017831D02*
X030957D01*
X025019Y029093D02*
Y029407D01*
X023431Y022243D02*
Y022557D01*
X018931Y033693D02*
Y034007D01*
X019048Y022744D02*
Y023256D01*
X019019Y023543D02*
Y023857D01*
X023431Y022843D02*
Y023157D01*
Y023443D02*
Y023757D01*
X018031Y028993D02*
Y029307D01*
X020681Y034293D02*
Y034607D01*
X020552Y035694D02*
Y036206D01*
X020681Y035093D02*
Y035407D01*
X028019Y036093D02*
Y036407D01*
X020348Y034894D02*
Y035406D01*
Y035694D02*
Y036206D01*
X020269Y034293D02*
Y034607D01*
X015015Y016440D02*
Y016912D01*
X014385Y016440D02*
Y016912D01*
Y016440D02*
X015015D01*
X014543Y017778D02*
X014857D01*
X015015Y017188D02*
Y017581D01*
X014385D02*
X014543Y017778D01*
X014857D02*
X015015Y017581D01*
X014385Y017188D02*
Y017581D01*
X015838Y016440D02*
Y016912D01*
X015208Y016440D02*
Y016912D01*
Y016440D02*
X015838D01*
X015366Y017778D02*
X015681D01*
X015838Y017188D02*
Y017581D01*
X015208D02*
X015366Y017778D01*
X015681D02*
X015838Y017581D01*
X015208Y017188D02*
Y017581D01*
X016662Y016440D02*
Y016912D01*
X016032Y016440D02*
Y016912D01*
Y016440D02*
X016662D01*
X016189Y017778D02*
X016504D01*
X016662Y017188D02*
Y017581D01*
X016032D02*
X016189Y017778D01*
X016504D02*
X016662Y017581D01*
X016032Y017188D02*
Y017581D01*
X017485Y016440D02*
Y016912D01*
X016855Y016440D02*
Y016912D01*
Y016440D02*
X017485D01*
X017013Y017778D02*
X017327D01*
X017485Y017188D02*
Y017581D01*
X016855D02*
X017013Y017778D01*
X017327D02*
X017485Y017581D01*
X016855Y017188D02*
Y017581D01*
X018308Y016440D02*
Y016912D01*
X017678Y016440D02*
Y016912D01*
Y016440D02*
X018308D01*
X017836Y017778D02*
X018151D01*
X018308Y017188D02*
Y017581D01*
X017678D02*
X017836Y017778D01*
X018151D02*
X018308Y017581D01*
X017678Y017188D02*
Y017581D01*
X019132Y016440D02*
Y016912D01*
X018502Y016440D02*
Y016912D01*
Y016440D02*
X019132D01*
X018659Y017778D02*
X018974D01*
X019132Y017188D02*
Y017581D01*
X018502D02*
X018659Y017778D01*
X018974D02*
X019132Y017581D01*
X018502Y017188D02*
Y017581D01*
X019955Y016440D02*
Y016912D01*
X019325Y016440D02*
Y016912D01*
Y016440D02*
X019955D01*
X019483Y017778D02*
X019797D01*
X019955Y017188D02*
Y017581D01*
X019325D02*
X019483Y017778D01*
X019797D02*
X019955Y017581D01*
X019325Y017188D02*
Y017581D01*
X020778Y016440D02*
Y016912D01*
X020148Y016440D02*
Y016912D01*
Y016440D02*
X020778D01*
X020306Y017778D02*
X020621D01*
X020778Y017188D02*
Y017581D01*
X020148D02*
X020306Y017778D01*
X020621D02*
X020778Y017581D01*
X020148Y017188D02*
Y017581D01*
X021602Y016440D02*
Y016912D01*
X020972Y016440D02*
Y016912D01*
Y016440D02*
X021602D01*
X021129Y017778D02*
X021444D01*
X021602Y017188D02*
Y017581D01*
X020972D02*
X021129Y017778D01*
X021444D02*
X021602Y017581D01*
X020972Y017188D02*
Y017581D01*
X022415Y016440D02*
Y016912D01*
X021785Y016440D02*
Y016912D01*
Y016440D02*
X022415D01*
X021943Y017778D02*
X022257D01*
X022415Y017188D02*
Y017581D01*
X021785D02*
X021943Y017778D01*
X022257D02*
X022415Y017581D01*
X021785Y017188D02*
Y017581D01*
X023248Y016440D02*
Y016912D01*
X022618Y016440D02*
Y016912D01*
Y016440D02*
X023248D01*
X022776Y017778D02*
X023091D01*
X023248Y017188D02*
Y017581D01*
X022618D02*
X022776Y017778D01*
X023091D02*
X023248Y017581D01*
X022618Y017188D02*
Y017581D01*
X024072Y016440D02*
Y016912D01*
X023442Y016440D02*
Y016912D01*
Y016440D02*
X024072D01*
X023599Y017778D02*
X023914D01*
X024072Y017188D02*
Y017581D01*
X023442D02*
X023599Y017778D01*
X023914D02*
X024072Y017581D01*
X023442Y017188D02*
Y017581D01*
X024895Y016440D02*
Y016912D01*
X024265Y016440D02*
Y016912D01*
Y016440D02*
X024895D01*
X024423Y017778D02*
X024737D01*
X024895Y017188D02*
Y017581D01*
X024265D02*
X024423Y017778D01*
X024737D02*
X024895Y017581D01*
X024265Y017188D02*
Y017581D01*
X025718Y016440D02*
Y016912D01*
X025088Y016440D02*
Y016912D01*
Y016440D02*
X025718D01*
X025246Y017778D02*
X025561D01*
X025718Y017188D02*
Y017581D01*
X025088D02*
X025246Y017778D01*
X025561D02*
X025718Y017581D01*
X025088Y017188D02*
Y017581D01*
X026542Y016440D02*
Y016912D01*
X025912Y016440D02*
Y016912D01*
Y016440D02*
X026542D01*
X026069Y017778D02*
X026384D01*
X026542Y017188D02*
Y017581D01*
X025912D02*
X026069Y017778D01*
X026384D02*
X026542Y017581D01*
X025912Y017188D02*
Y017581D01*
X027365Y016440D02*
Y016912D01*
X026735Y016440D02*
Y016912D01*
Y016440D02*
X027365D01*
X026893Y017778D02*
X027207D01*
X027365Y017188D02*
Y017581D01*
X026735D02*
X026893Y017778D01*
X027207D02*
X027365Y017581D01*
X026735Y017188D02*
Y017581D01*
X026685Y014438D02*
Y014910D01*
X027315Y014438D02*
Y014910D01*
X026685D02*
X027315D01*
X026843Y013572D02*
X027157D01*
X026685Y013769D02*
Y014162D01*
X027157Y013572D02*
X027315Y013769D01*
X026685D02*
X026843Y013572D01*
X027315Y013769D02*
Y014162D01*
X025862Y014438D02*
Y014910D01*
X026492Y014438D02*
Y014910D01*
X025862D02*
X026492D01*
X026019Y013572D02*
X026334D01*
X025862Y013769D02*
Y014162D01*
X026334Y013572D02*
X026492Y013769D01*
X025862D02*
X026019Y013572D01*
X026492Y013769D02*
Y014162D01*
X025038Y014438D02*
Y014910D01*
X025668Y014438D02*
Y014910D01*
X025038D02*
X025668D01*
X025196Y013572D02*
X025511D01*
X025038Y013769D02*
Y014162D01*
X025511Y013572D02*
X025668Y013769D01*
X025038D02*
X025196Y013572D01*
X025668Y013769D02*
Y014162D01*
X024215Y014438D02*
Y014910D01*
X024845Y014438D02*
Y014910D01*
X024215D02*
X024845D01*
X024373Y013572D02*
X024687D01*
X024215Y013769D02*
Y014162D01*
X024687Y013572D02*
X024845Y013769D01*
X024215D02*
X024373Y013572D01*
X024845Y013769D02*
Y014162D01*
X023392Y014438D02*
Y014910D01*
X024022Y014438D02*
Y014910D01*
X023392D02*
X024022D01*
X023549Y013572D02*
X023864D01*
X023392Y013769D02*
Y014162D01*
X023864Y013572D02*
X024022Y013769D01*
X023392D02*
X023549Y013572D01*
X024022Y013769D02*
Y014162D01*
X022568Y014438D02*
Y014910D01*
X023198Y014438D02*
Y014910D01*
X022568D02*
X023198D01*
X022726Y013572D02*
X023041D01*
X022568Y013769D02*
Y014162D01*
X023041Y013572D02*
X023198Y013769D01*
X022568D02*
X022726Y013572D01*
X023198Y013769D02*
Y014162D01*
X021745Y014438D02*
Y014910D01*
X022375Y014438D02*
Y014910D01*
X021745D02*
X022375D01*
X021903Y013572D02*
X022217D01*
X021745Y013769D02*
Y014162D01*
X022217Y013572D02*
X022375Y013769D01*
X021745D02*
X021903Y013572D01*
X022375Y013769D02*
Y014162D01*
X020922Y014438D02*
Y014910D01*
X021552Y014438D02*
Y014910D01*
X020922D02*
X021552D01*
X021079Y013572D02*
X021394D01*
X020922Y013769D02*
Y014162D01*
X021394Y013572D02*
X021552Y013769D01*
X020922D02*
X021079Y013572D01*
X021552Y013769D02*
Y014162D01*
X020098Y014438D02*
Y014910D01*
X020728Y014438D02*
Y014910D01*
X020098D02*
X020728D01*
X020256Y013572D02*
X020571D01*
X020098Y013769D02*
Y014162D01*
X020571Y013572D02*
X020728Y013769D01*
X020098D02*
X020256Y013572D01*
X020728Y013769D02*
Y014162D01*
X019275Y014438D02*
Y014910D01*
X019905Y014438D02*
Y014910D01*
X019275D02*
X019905D01*
X019433Y013572D02*
X019747D01*
X019275Y013769D02*
Y014162D01*
X019747Y013572D02*
X019905Y013769D01*
X019275D02*
X019433Y013572D01*
X019905Y013769D02*
Y014162D01*
X018452Y014438D02*
Y014910D01*
X019082Y014438D02*
Y014910D01*
X018452D02*
X019082D01*
X018609Y013572D02*
X018924D01*
X018452Y013769D02*
Y014162D01*
X018924Y013572D02*
X019082Y013769D01*
X018452D02*
X018609Y013572D01*
X019082Y013769D02*
Y014162D01*
X017628Y014438D02*
Y014910D01*
X018258Y014438D02*
Y014910D01*
X017628D02*
X018258D01*
X017786Y013572D02*
X018101D01*
X017628Y013769D02*
Y014162D01*
X018101Y013572D02*
X018258Y013769D01*
X017628D02*
X017786Y013572D01*
X018258Y013769D02*
Y014162D01*
X030485Y021688D02*
Y022160D01*
X031115Y021688D02*
Y022160D01*
X030485D02*
X031115D01*
X030643Y020822D02*
X030957D01*
X030485Y021019D02*
Y021412D01*
X030957Y020822D02*
X031115Y021019D01*
X030485D02*
X030643Y020822D01*
X031115Y021019D02*
Y021412D01*
X016805Y014438D02*
Y014910D01*
X017435Y014438D02*
Y014910D01*
X016805D02*
X017435D01*
X016963Y013572D02*
X017277D01*
X016805Y013769D02*
Y014162D01*
X017277Y013572D02*
X017435Y013769D01*
X016805D02*
X016963Y013572D01*
X017435Y013769D02*
Y014162D01*
X015982Y014438D02*
Y014910D01*
X016612Y014438D02*
Y014910D01*
X015982D02*
X016612D01*
X016139Y013572D02*
X016454D01*
X015982Y013769D02*
Y014162D01*
X016454Y013572D02*
X016612Y013769D01*
X015982D02*
X016139Y013572D01*
X016612Y013769D02*
Y014162D01*
X015158Y014438D02*
Y014910D01*
X015788Y014438D02*
Y014910D01*
X015158D02*
X015788D01*
X015316Y013572D02*
X015631D01*
X015158Y013769D02*
Y014162D01*
X015631Y013572D02*
X015788Y013769D01*
X015158D02*
X015316Y013572D01*
X015788Y013769D02*
Y014162D01*
X014335Y014443D02*
Y014915D01*
X014965Y014443D02*
Y014915D01*
X014335D02*
X014965D01*
X014493Y013576D02*
X014807D01*
X014335Y013773D02*
Y014167D01*
X014807Y013576D02*
X014965Y013773D01*
X014335D02*
X014493Y013576D01*
X014965Y013773D02*
Y014167D01*
X029400Y024850D02*
Y034100D01*
X027400Y024850D02*
Y034100D01*
Y024100D02*
Y024850D01*
Y024100D02*
X029400D01*
Y024850*
X027400Y034100D02*
X029400D01*
X020678Y020750D02*
Y021750D01*
X017678Y020750D02*
X020678D01*
X017678D02*
Y021750D01*
X020678*
X014050Y023700D02*
X015050D01*
X014050D02*
Y040700D01*
X015050*
Y039950D02*
Y040700D01*
Y023700D02*
Y039950D01*
X021400Y032591D02*
X021676D01*
Y032276D02*
Y032591D01*
X021400Y031409D02*
X021676D01*
Y031724*
X021387Y026641D02*
X021662D01*
Y026326D02*
Y026641D01*
X021387Y025459D02*
X021662D01*
Y025774*
X021400Y030641D02*
X021676D01*
Y030326D02*
Y030641D01*
X021400Y029459D02*
X021676D01*
Y029774*
X025051Y028768D02*
X025759D01*
X025051Y024832D02*
X025759D01*
X025051D02*
Y028768D01*
X025759Y024832D02*
Y028768D01*
X028266Y018706D02*
Y019494D01*
X030234Y018706D02*
Y019494D01*
X028266Y018706D02*
X030234D01*
X028266Y019494D02*
X030234D01*
X025041Y033619D02*
X025749D01*
X025041Y029681D02*
X025749D01*
X025041D02*
Y033619D01*
X025749Y029681D02*
Y033619D01*
X021910Y022001D02*
Y024599D01*
X020690Y022001D02*
Y024599D01*
Y022001D02*
X021910D01*
X020690Y024599D02*
X021910D01*
X017046Y029585D02*
X017754D01*
X017046Y033522D02*
X017754D01*
Y029585D02*
Y033522D01*
X017046Y029585D02*
Y033522D01*
X017051Y024735D02*
X017759D01*
X017051Y028672D02*
X017759D01*
Y024735D02*
Y028672D01*
X017051Y024735D02*
Y028672D01*
X021802Y039257D02*
Y039414D01*
X019203Y039257D02*
Y039414D01*
X021802*
X016181Y037672D02*
X018819D01*
X016181D02*
Y039128D01*
X018819*
Y037672D02*
Y039128D01*
X021387Y028691D02*
X021662D01*
Y028376D02*
Y028691D01*
X021387Y027509D02*
X021662D01*
Y027824*
G54D35*
X021036Y032709D02*
D01*
X021035Y032712*
X021035Y032715*
X021034Y032719*
X021034Y032722*
X021033Y032725*
X021031Y032728*
X021030Y032732*
X021028Y032734*
X021026Y032737*
X021024Y032740*
X021022Y032743*
X021019Y032745*
X021017Y032747*
X021014Y032749*
X021011Y032751*
X021008Y032753*
X021005Y032754*
X021002Y032755*
X020998Y032756*
X020995Y032757*
X020992Y032757*
X020988Y032757*
X020985*
X020981Y032757*
X020978Y032757*
X020975Y032756*
X020971Y032755*
X020968Y032754*
X020965Y032753*
X020962Y032751*
X020959Y032749*
X020956Y032747*
X020954Y032745*
X020951Y032743*
X020949Y032740*
X020947Y032737*
X020945Y032734*
X020943Y032732*
X020942Y032728*
X020940Y032725*
X020939Y032722*
X020939Y032719*
X020938Y032715*
X020938Y032712*
X020938Y032709*
X020938Y032705*
X020938Y032702*
X020939Y032698*
X020939Y032695*
X020940Y032692*
X020942Y032689*
X020943Y032685*
X020945Y032683*
X020947Y032680*
X020949Y032677*
X020951Y032674*
X020954Y032672*
X020956Y032670*
X020959Y032668*
X020962Y032666*
X020965Y032664*
X020968Y032663*
X020971Y032662*
X020975Y032661*
X020978Y032660*
X020981Y032660*
X020985Y032660*
X020988*
X020992Y032660*
X020995Y032660*
X020998Y032661*
X021002Y032662*
X021005Y032663*
X021008Y032664*
X021011Y032666*
X021014Y032668*
X021017Y032670*
X021019Y032672*
X021022Y032674*
X021024Y032677*
X021026Y032680*
X021028Y032683*
X021030Y032685*
X021031Y032689*
X021033Y032692*
X021034Y032695*
X021034Y032698*
X021035Y032702*
X021035Y032705*
X021036Y032709*
X021022Y026759D02*
D01*
X021021Y026762*
X021021Y026765*
X021020Y026769*
X021020Y026772*
X021019Y026775*
X021017Y026778*
X021016Y026782*
X021014Y026784*
X021012Y026787*
X021010Y026790*
X021008Y026793*
X021005Y026795*
X021003Y026797*
X021000Y026799*
X020997Y026801*
X020994Y026803*
X020991Y026804*
X020988Y026805*
X020984Y026806*
X020981Y026807*
X020978Y026807*
X020974Y026807*
X020971*
X020967Y026807*
X020964Y026807*
X020961Y026806*
X020957Y026805*
X020954Y026804*
X020951Y026803*
X020948Y026801*
X020945Y026799*
X020942Y026797*
X020940Y026795*
X020937Y026793*
X020935Y026790*
X020933Y026787*
X020931Y026784*
X020929Y026782*
X020928Y026778*
X020926Y026775*
X020925Y026772*
X020925Y026769*
X020924Y026765*
X020924Y026762*
X020924Y026759*
X020924Y026755*
X020924Y026752*
X020925Y026748*
X020925Y026745*
X020926Y026742*
X020928Y026739*
X020929Y026735*
X020931Y026733*
X020933Y026730*
X020935Y026727*
X020937Y026724*
X020940Y026722*
X020942Y026720*
X020945Y026718*
X020948Y026716*
X020951Y026714*
X020954Y026713*
X020957Y026712*
X020961Y026711*
X020964Y026710*
X020967Y026710*
X020971Y026710*
X020974*
X020978Y026710*
X020981Y026710*
X020984Y026711*
X020988Y026712*
X020991Y026713*
X020994Y026714*
X020997Y026716*
X021000Y026718*
X021003Y026720*
X021005Y026722*
X021008Y026724*
X021010Y026727*
X021012Y026730*
X021014Y026733*
X021016Y026735*
X021017Y026739*
X021019Y026742*
X021020Y026745*
X021020Y026748*
X021021Y026752*
X021021Y026755*
X021022Y026759*
X021036Y030759D02*
D01*
X021035Y030762*
X021035Y030765*
X021034Y030769*
X021034Y030772*
X021033Y030775*
X021031Y030778*
X021030Y030782*
X021028Y030784*
X021026Y030787*
X021024Y030790*
X021022Y030793*
X021019Y030795*
X021017Y030797*
X021014Y030799*
X021011Y030801*
X021008Y030803*
X021005Y030804*
X021002Y030805*
X020998Y030806*
X020995Y030807*
X020992Y030807*
X020988Y030807*
X020985*
X020981Y030807*
X020978Y030807*
X020975Y030806*
X020971Y030805*
X020968Y030804*
X020965Y030803*
X020962Y030801*
X020959Y030799*
X020956Y030797*
X020954Y030795*
X020951Y030793*
X020949Y030790*
X020947Y030787*
X020945Y030784*
X020943Y030782*
X020942Y030778*
X020940Y030775*
X020939Y030772*
X020939Y030769*
X020938Y030765*
X020938Y030762*
X020938Y030759*
X020938Y030755*
X020938Y030752*
X020939Y030748*
X020939Y030745*
X020940Y030742*
X020942Y030739*
X020943Y030735*
X020945Y030733*
X020947Y030730*
X020949Y030727*
X020951Y030724*
X020954Y030722*
X020956Y030720*
X020959Y030718*
X020962Y030716*
X020965Y030714*
X020968Y030713*
X020971Y030712*
X020975Y030711*
X020978Y030710*
X020981Y030710*
X020985Y030710*
X020988*
X020992Y030710*
X020995Y030710*
X020998Y030711*
X021002Y030712*
X021005Y030713*
X021008Y030714*
X021011Y030716*
X021014Y030718*
X021017Y030720*
X021019Y030722*
X021022Y030724*
X021024Y030727*
X021026Y030730*
X021028Y030733*
X021030Y030735*
X021031Y030739*
X021033Y030742*
X021034Y030745*
X021034Y030748*
X021035Y030752*
X021035Y030755*
X021036Y030759*
X026399Y024715D02*
D01*
X026398Y024718*
X026398Y024721*
X026397Y024725*
X026397Y024728*
X026396Y024731*
X026394Y024734*
X026393Y024738*
X026391Y024740*
X026389Y024743*
X026387Y024746*
X026385Y024749*
X026382Y024751*
X026380Y024753*
X026377Y024755*
X026374Y024757*
X026371Y024759*
X026368Y024760*
X026365Y024761*
X026361Y024762*
X026358Y024763*
X026355Y024763*
X026351Y024763*
X026348*
X026344Y024763*
X026341Y024763*
X026338Y024762*
X026334Y024761*
X026331Y024760*
X026328Y024759*
X026325Y024757*
X026322Y024755*
X026319Y024753*
X026317Y024751*
X026314Y024749*
X026312Y024746*
X026310Y024743*
X026308Y024740*
X026306Y024738*
X026305Y024734*
X026303Y024731*
X026302Y024728*
X026302Y024725*
X026301Y024721*
X026301Y024718*
X026301Y024715*
X026301Y024711*
X026301Y024708*
X026302Y024704*
X026302Y024701*
X026303Y024698*
X026305Y024695*
X026306Y024691*
X026308Y024689*
X026310Y024686*
X026312Y024683*
X026314Y024680*
X026317Y024678*
X026319Y024676*
X026322Y024674*
X026325Y024672*
X026328Y024670*
X026331Y024669*
X026334Y024668*
X026338Y024667*
X026341Y024666*
X026344Y024666*
X026348Y024666*
X026351*
X026355Y024666*
X026358Y024666*
X026361Y024667*
X026365Y024668*
X026368Y024669*
X026371Y024670*
X026374Y024672*
X026377Y024674*
X026380Y024676*
X026382Y024678*
X026385Y024680*
X026387Y024683*
X026389Y024686*
X026391Y024689*
X026393Y024691*
X026394Y024695*
X026396Y024698*
X026397Y024701*
X026397Y024704*
X026398Y024708*
X026398Y024711*
X026399Y024715*
X030384Y020025D02*
D01*
X030383Y020028*
X030383Y020031*
X030382Y020035*
X030382Y020038*
X030381Y020041*
X030379Y020044*
X030378Y020048*
X030376Y020050*
X030374Y020053*
X030372Y020056*
X030370Y020059*
X030367Y020061*
X030365Y020063*
X030362Y020065*
X030359Y020067*
X030356Y020069*
X030353Y020070*
X030350Y020071*
X030346Y020072*
X030343Y020073*
X030340Y020073*
X030336Y020073*
X030333*
X030329Y020073*
X030326Y020073*
X030323Y020072*
X030319Y020071*
X030316Y020070*
X030313Y020069*
X030310Y020067*
X030307Y020065*
X030304Y020063*
X030302Y020061*
X030299Y020059*
X030297Y020056*
X030295Y020053*
X030293Y020050*
X030291Y020048*
X030290Y020044*
X030288Y020041*
X030287Y020038*
X030287Y020035*
X030286Y020031*
X030286Y020028*
X030286Y020025*
X030286Y020021*
X030286Y020018*
X030287Y020014*
X030287Y020011*
X030288Y020008*
X030290Y020005*
X030291Y020001*
X030293Y019999*
X030295Y019996*
X030297Y019993*
X030299Y019990*
X030302Y019988*
X030304Y019986*
X030307Y019984*
X030310Y019982*
X030313Y019980*
X030316Y019979*
X030319Y019978*
X030323Y019977*
X030326Y019976*
X030329Y019976*
X030333Y019976*
X030336*
X030340Y019976*
X030343Y019976*
X030346Y019977*
X030350Y019978*
X030353Y019979*
X030356Y019980*
X030359Y019982*
X030362Y019984*
X030365Y019986*
X030367Y019988*
X030370Y019990*
X030372Y019993*
X030374Y019996*
X030376Y019999*
X030378Y020001*
X030379Y020005*
X030381Y020008*
X030382Y020011*
X030382Y020014*
X030383Y020018*
X030383Y020021*
X030384Y020025*
X026389Y029565D02*
D01*
X026388Y029568*
X026388Y029571*
X026387Y029575*
X026387Y029578*
X026386Y029581*
X026384Y029584*
X026383Y029588*
X026381Y029590*
X026379Y029593*
X026377Y029596*
X026375Y029599*
X026372Y029601*
X026370Y029603*
X026367Y029605*
X026364Y029607*
X026361Y029609*
X026358Y029610*
X026355Y029611*
X026351Y029612*
X026348Y029613*
X026345Y029613*
X026341Y029613*
X026338*
X026334Y029613*
X026331Y029613*
X026328Y029612*
X026324Y029611*
X026321Y029610*
X026318Y029609*
X026315Y029607*
X026312Y029605*
X026309Y029603*
X026307Y029601*
X026304Y029599*
X026302Y029596*
X026300Y029593*
X026298Y029590*
X026296Y029588*
X026295Y029584*
X026293Y029581*
X026292Y029578*
X026292Y029575*
X026291Y029571*
X026291Y029568*
X026291Y029565*
X026291Y029561*
X026291Y029558*
X026292Y029554*
X026292Y029551*
X026293Y029548*
X026295Y029545*
X026296Y029541*
X026298Y029539*
X026300Y029536*
X026302Y029533*
X026304Y029530*
X026307Y029528*
X026309Y029526*
X026312Y029524*
X026315Y029522*
X026318Y029520*
X026321Y029519*
X026324Y029518*
X026328Y029517*
X026331Y029516*
X026334Y029516*
X026338Y029516*
X026341*
X026345Y029516*
X026348Y029516*
X026351Y029517*
X026355Y029518*
X026358Y029519*
X026361Y029520*
X026364Y029522*
X026367Y029524*
X026370Y029526*
X026372Y029528*
X026375Y029530*
X026377Y029533*
X026379Y029536*
X026381Y029539*
X026383Y029541*
X026384Y029545*
X026386Y029548*
X026387Y029551*
X026387Y029554*
X026388Y029558*
X026388Y029561*
X026389Y029565*
X022471Y021863D02*
D01*
X022470Y021866*
X022470Y021869*
X022469Y021873*
X022469Y021876*
X022468Y021879*
X022466Y021882*
X022465Y021886*
X022463Y021888*
X022461Y021891*
X022459Y021894*
X022457Y021897*
X022454Y021899*
X022452Y021901*
X022449Y021903*
X022446Y021905*
X022443Y021907*
X022440Y021908*
X022437Y021909*
X022433Y021910*
X022430Y021911*
X022427Y021911*
X022423Y021911*
X022420*
X022416Y021911*
X022413Y021911*
X022410Y021910*
X022406Y021909*
X022403Y021908*
X022400Y021907*
X022397Y021905*
X022394Y021903*
X022391Y021901*
X022389Y021899*
X022386Y021897*
X022384Y021894*
X022382Y021891*
X022380Y021888*
X022378Y021886*
X022377Y021882*
X022375Y021879*
X022374Y021876*
X022374Y021873*
X022373Y021869*
X022373Y021866*
X022373Y021863*
X022373Y021859*
X022373Y021856*
X022374Y021852*
X022374Y021849*
X022375Y021846*
X022377Y021843*
X022378Y021839*
X022380Y021837*
X022382Y021834*
X022384Y021831*
X022386Y021828*
X022389Y021826*
X022391Y021824*
X022394Y021822*
X022397Y021820*
X022400Y021818*
X022403Y021817*
X022406Y021816*
X022410Y021815*
X022413Y021814*
X022416Y021814*
X022420Y021814*
X022423*
X022427Y021814*
X022430Y021814*
X022433Y021815*
X022437Y021816*
X022440Y021817*
X022443Y021818*
X022446Y021820*
X022449Y021822*
X022452Y021824*
X022454Y021826*
X022457Y021828*
X022459Y021831*
X022461Y021834*
X022463Y021837*
X022465Y021839*
X022466Y021843*
X022468Y021846*
X022469Y021849*
X022469Y021852*
X022470Y021856*
X022470Y021859*
X022471Y021863*
X016504Y033638D02*
D01*
X016503Y033641*
X016503Y033644*
X016502Y033648*
X016502Y033651*
X016501Y033654*
X016499Y033657*
X016498Y033661*
X016496Y033663*
X016494Y033666*
X016492Y033669*
X016490Y033672*
X016487Y033674*
X016485Y033676*
X016482Y033678*
X016479Y033680*
X016476Y033682*
X016473Y033683*
X016470Y033684*
X016466Y033685*
X016463Y033686*
X016460Y033686*
X016456Y033686*
X016453*
X016449Y033686*
X016446Y033686*
X016443Y033685*
X016439Y033684*
X016436Y033683*
X016433Y033682*
X016430Y033680*
X016427Y033678*
X016424Y033676*
X016422Y033674*
X016419Y033672*
X016417Y033669*
X016415Y033666*
X016413Y033663*
X016411Y033661*
X016410Y033657*
X016408Y033654*
X016407Y033651*
X016407Y033648*
X016406Y033644*
X016406Y033641*
X016406Y033638*
X016406Y033634*
X016406Y033631*
X016407Y033627*
X016407Y033624*
X016408Y033621*
X016410Y033618*
X016411Y033614*
X016413Y033612*
X016415Y033609*
X016417Y033606*
X016419Y033603*
X016422Y033601*
X016424Y033599*
X016427Y033597*
X016430Y033595*
X016433Y033593*
X016436Y033592*
X016439Y033591*
X016443Y033590*
X016446Y033589*
X016449Y033589*
X016453Y033589*
X016456*
X016460Y033589*
X016463Y033589*
X016466Y033590*
X016470Y033591*
X016473Y033592*
X016476Y033593*
X016479Y033595*
X016482Y033597*
X016485Y033599*
X016487Y033601*
X016490Y033603*
X016492Y033606*
X016494Y033609*
X016496Y033612*
X016498Y033614*
X016499Y033618*
X016501Y033621*
X016502Y033624*
X016502Y033627*
X016503Y033631*
X016503Y033634*
X016504Y033638*
X016509Y028788D02*
D01*
X016508Y028791*
X016508Y028794*
X016507Y028798*
X016507Y028801*
X016506Y028804*
X016504Y028807*
X016503Y028811*
X016501Y028813*
X016499Y028816*
X016497Y028819*
X016495Y028822*
X016492Y028824*
X016490Y028826*
X016487Y028828*
X016484Y028830*
X016481Y028832*
X016478Y028833*
X016475Y028834*
X016471Y028835*
X016468Y028836*
X016465Y028836*
X016461Y028836*
X016458*
X016454Y028836*
X016451Y028836*
X016448Y028835*
X016444Y028834*
X016441Y028833*
X016438Y028832*
X016435Y028830*
X016432Y028828*
X016429Y028826*
X016427Y028824*
X016424Y028822*
X016422Y028819*
X016420Y028816*
X016418Y028813*
X016416Y028811*
X016415Y028807*
X016413Y028804*
X016412Y028801*
X016412Y028798*
X016411Y028794*
X016411Y028791*
X016411Y028788*
X016411Y028784*
X016411Y028781*
X016412Y028777*
X016412Y028774*
X016413Y028771*
X016415Y028768*
X016416Y028764*
X016418Y028762*
X016420Y028759*
X016422Y028756*
X016424Y028753*
X016427Y028751*
X016429Y028749*
X016432Y028747*
X016435Y028745*
X016438Y028743*
X016441Y028742*
X016444Y028741*
X016448Y028740*
X016451Y028739*
X016454Y028739*
X016458Y028739*
X016461*
X016465Y028739*
X016468Y028739*
X016471Y028740*
X016475Y028741*
X016478Y028742*
X016481Y028743*
X016484Y028745*
X016487Y028747*
X016490Y028749*
X016492Y028751*
X016495Y028753*
X016497Y028756*
X016499Y028759*
X016501Y028762*
X016503Y028764*
X016504Y028768*
X016506Y028771*
X016507Y028774*
X016507Y028777*
X016508Y028781*
X016508Y028784*
X016509Y028788*
X021853Y040300D02*
D01*
X021852Y040303*
X021852Y040306*
X021851Y040310*
X021851Y040313*
X021850Y040316*
X021848Y040319*
X021847Y040323*
X021845Y040325*
X021843Y040328*
X021841Y040331*
X021839Y040334*
X021836Y040336*
X021834Y040338*
X021831Y040340*
X021828Y040342*
X021825Y040344*
X021822Y040345*
X021819Y040346*
X021815Y040347*
X021812Y040348*
X021809Y040348*
X021805Y040348*
X021802*
X021798Y040348*
X021795Y040348*
X021792Y040347*
X021788Y040346*
X021785Y040345*
X021782Y040344*
X021779Y040342*
X021776Y040340*
X021773Y040338*
X021771Y040336*
X021768Y040334*
X021766Y040331*
X021764Y040328*
X021762Y040325*
X021760Y040323*
X021759Y040319*
X021757Y040316*
X021756Y040313*
X021756Y040310*
X021755Y040306*
X021755Y040303*
X021755Y040300*
X021755Y040296*
X021755Y040293*
X021756Y040289*
X021756Y040286*
X021757Y040283*
X021759Y040280*
X021760Y040276*
X021762Y040274*
X021764Y040271*
X021766Y040268*
X021768Y040265*
X021771Y040263*
X021773Y040261*
X021776Y040259*
X021779Y040257*
X021782Y040255*
X021785Y040254*
X021788Y040253*
X021792Y040252*
X021795Y040251*
X021798Y040251*
X021802Y040251*
X021805*
X021809Y040251*
X021812Y040251*
X021815Y040252*
X021819Y040253*
X021822Y040254*
X021825Y040255*
X021828Y040257*
X021831Y040259*
X021834Y040261*
X021836Y040263*
X021839Y040265*
X021841Y040268*
X021843Y040271*
X021845Y040274*
X021847Y040276*
X021848Y040280*
X021850Y040283*
X021851Y040286*
X021851Y040289*
X021852Y040293*
X021852Y040296*
X021853Y040300*
X018455Y040250D02*
D01*
X018454Y040253*
X018454Y040256*
X018453Y040260*
X018453Y040263*
X018452Y040266*
X018450Y040269*
X018449Y040273*
X018447Y040275*
X018445Y040278*
X018443Y040281*
X018441Y040284*
X018438Y040286*
X018436Y040288*
X018433Y040290*
X018430Y040292*
X018427Y040294*
X018424Y040295*
X018421Y040296*
X018417Y040297*
X018414Y040298*
X018411Y040298*
X018407Y040298*
X018404*
X018400Y040298*
X018397Y040298*
X018394Y040297*
X018390Y040296*
X018387Y040295*
X018384Y040294*
X018381Y040292*
X018378Y040290*
X018375Y040288*
X018373Y040286*
X018370Y040284*
X018368Y040281*
X018366Y040278*
X018364Y040275*
X018362Y040273*
X018361Y040269*
X018359Y040266*
X018358Y040263*
X018358Y040260*
X018357Y040256*
X018357Y040253*
X018357Y040250*
X018357Y040246*
X018357Y040243*
X018358Y040239*
X018358Y040236*
X018359Y040233*
X018361Y040230*
X018362Y040226*
X018364Y040224*
X018366Y040221*
X018368Y040218*
X018370Y040215*
X018373Y040213*
X018375Y040211*
X018378Y040209*
X018381Y040207*
X018384Y040205*
X018387Y040204*
X018390Y040203*
X018394Y040202*
X018397Y040201*
X018400Y040201*
X018404Y040201*
X018407*
X018411Y040201*
X018414Y040201*
X018417Y040202*
X018421Y040203*
X018424Y040204*
X018427Y040205*
X018430Y040207*
X018433Y040209*
X018436Y040211*
X018438Y040213*
X018441Y040215*
X018443Y040218*
X018445Y040221*
X018447Y040224*
X018449Y040226*
X018450Y040230*
X018452Y040233*
X018453Y040236*
X018453Y040239*
X018454Y040243*
X018454Y040246*
X018455Y040250*
X021022Y028809D02*
D01*
X021021Y028812*
X021021Y028815*
X021020Y028819*
X021020Y028822*
X021019Y028825*
X021017Y028828*
X021016Y028832*
X021014Y028834*
X021012Y028837*
X021010Y028840*
X021008Y028843*
X021005Y028845*
X021003Y028847*
X021000Y028849*
X020997Y028851*
X020994Y028853*
X020991Y028854*
X020988Y028855*
X020984Y028856*
X020981Y028857*
X020978Y028857*
X020974Y028857*
X020971*
X020967Y028857*
X020964Y028857*
X020961Y028856*
X020957Y028855*
X020954Y028854*
X020951Y028853*
X020948Y028851*
X020945Y028849*
X020942Y028847*
X020940Y028845*
X020937Y028843*
X020935Y028840*
X020933Y028837*
X020931Y028834*
X020929Y028832*
X020928Y028828*
X020926Y028825*
X020925Y028822*
X020925Y028819*
X020924Y028815*
X020924Y028812*
X020924Y028809*
X020924Y028805*
X020924Y028802*
X020925Y028798*
X020925Y028795*
X020926Y028792*
X020928Y028789*
X020929Y028785*
X020931Y028783*
X020933Y028780*
X020935Y028777*
X020937Y028774*
X020940Y028772*
X020942Y028770*
X020945Y028768*
X020948Y028766*
X020951Y028764*
X020954Y028763*
X020957Y028762*
X020961Y028761*
X020964Y028760*
X020967Y028760*
X020971Y028760*
X020974*
X020978Y028760*
X020981Y028760*
X020984Y028761*
X020988Y028762*
X020991Y028763*
X020994Y028764*
X020997Y028766*
X021000Y028768*
X021003Y028770*
X021005Y028772*
X021008Y028774*
X021010Y028777*
X021012Y028780*
X021014Y028783*
X021016Y028785*
X021017Y028789*
X021019Y028792*
X021020Y028795*
X021020Y028798*
X021021Y028802*
X021021Y028805*
X021022Y028809*
G54D36*
X021635Y022394D02*
D01*
X021634Y022402*
X021633Y022410*
X021632Y022418*
X021630Y022426*
X021627Y022434*
X021624Y022441*
X021621Y022449*
X021617Y022456*
X021612Y022463*
X021607Y022469*
X021601Y022475*
X021595Y022481*
X021589Y022486*
X021582Y022491*
X021576Y022496*
X021568Y022500*
X021561Y022503*
X021553Y022506*
X021545Y022508*
X021537Y022510*
X021529Y022511*
X021521Y022511*
X021512*
X021504Y022511*
X021496Y022510*
X021488Y022508*
X021480Y022506*
X021472Y022503*
X021465Y022500*
X021458Y022496*
X021451Y022491*
X021444Y022486*
X021438Y022481*
X021432Y022475*
X021426Y022469*
X021421Y022463*
X021416Y022456*
X021412Y022449*
X021409Y022441*
X021406Y022434*
X021403Y022426*
X021401Y022418*
X021400Y022410*
X021399Y022402*
X021399Y022394*
X021399Y022385*
X021400Y022377*
X021401Y022369*
X021403Y022361*
X021406Y022353*
X021409Y022346*
X021412Y022338*
X021416Y022331*
X021421Y022324*
X021426Y022318*
X021432Y022312*
X021438Y022306*
X021444Y022301*
X021451Y022296*
X021458Y022291*
X021465Y022287*
X021472Y022284*
X021480Y022281*
X021488Y022279*
X021496Y022277*
X021504Y022276*
X021512Y022276*
X021521*
X021529Y022276*
X021537Y022277*
X021545Y022279*
X021553Y022281*
X021561Y022284*
X021568Y022287*
X021576Y022291*
X021582Y022296*
X021589Y022301*
X021595Y022306*
X021601Y022312*
X021607Y022318*
X021612Y022324*
X021617Y022331*
X021621Y022338*
X021624Y022346*
X021627Y022353*
X021630Y022361*
X021632Y022369*
X021633Y022377*
X021634Y022385*
X021635Y022394*
G54D37*
X029700Y029400D02*
X030000D01*
Y029550*
X029950Y029600*
X029750*
X029700Y029550*
Y029400*
Y029900D02*
Y029700D01*
X030000*
Y029900*
X029850Y029700D02*
Y029800D01*
Y030000D02*
Y030200D01*
X030000Y030500D02*
Y030300D01*
X029800Y030500*
X029750*
X029700Y030450*
Y030350*
X029750Y030300*
X029700Y030800D02*
X029750Y030700D01*
X029850Y030600*
X029950*
X030000Y030650*
Y030750*
X029950Y030800*
X029900*
X029850Y030750*
Y030600*
X029750Y030900D02*
X029700Y030949D01*
Y031049*
X029750Y031099*
X029950*
X030000Y031049*
Y030949*
X029950Y030900*
X029750*
X030000Y031199D02*
Y031299D01*
Y031249*
X029700*
X029750Y031199*
X030000Y031649D02*
Y031449D01*
X029800Y031649*
X029750*
X029700Y031599*
Y031499*
X029750Y031449*
X030000Y031899D02*
X029700D01*
X029850Y031749*
Y031949*
X031200Y027850D02*
Y027943D01*
Y027897*
X030920*
X030967Y027850*
X030920Y028270D02*
X030967Y028177D01*
X031060Y028083*
X031153*
X031200Y028130*
Y028223*
X031153Y028270*
X031107*
X031060Y028223*
Y028083*
X031200Y028363D02*
X031013Y028550D01*
X030967Y028643D02*
X030920Y028690D01*
Y028783*
X030967Y028830*
X031013*
X031060Y028783*
Y028736*
Y028783*
X031107Y028830*
X031153*
X031200Y028783*
Y028690*
X031153Y028643*
X031200Y029110D02*
Y028923D01*
X031013Y029110*
X030967*
X030920Y029063*
Y028970*
X030967Y028923*
X031200Y029483D02*
X030920D01*
Y029623*
X030967Y029669*
X031060*
X031107Y029623*
Y029483*
Y029576D02*
X031200Y029669D01*
X030967Y029949D02*
X030920Y029903D01*
Y029809*
X030967Y029763*
X031013*
X031060Y029809*
Y029903*
X031107Y029949*
X031153*
X031200Y029903*
Y029809*
X031153Y029763*
X031200Y030183D02*
X030920D01*
X031060Y030043*
Y030229*
X030967Y030323D02*
X030920Y030369D01*
Y030462*
X030967Y030509*
X031013*
X031060Y030462*
X031107Y030509*
X031153*
X031200Y030462*
Y030369*
X031153Y030323*
X031107*
X031060Y030369*
X031013Y030323*
X030967*
X031060Y030369D02*
Y030462D01*
X030920Y030789D02*
Y030602D01*
X031060*
X031013Y030696*
Y030742*
X031060Y030789*
X031153*
X031200Y030742*
Y030649*
X031153Y030602*
X031200Y031162D02*
X030920D01*
Y031302*
X030967Y031349*
X031060*
X031107Y031302*
Y031162*
Y031256D02*
X031200Y031349D01*
X030920Y031629D02*
Y031442D01*
X031200*
Y031629*
X031060Y031442D02*
Y031535D01*
X030920Y031722D02*
X031200D01*
Y031909*
Y032002D02*
X031013D01*
X030920Y032095*
X031013Y032189*
X031200*
X031060*
Y032002*
X030920Y032282D02*
X030967D01*
X031060Y032375*
X030967Y032469*
X030920*
X031060Y032375D02*
X031200D01*
X030920Y033028D02*
Y032842D01*
X031200*
Y033028*
X031060Y032842D02*
Y032935D01*
X030920Y033122D02*
X031200Y033308D01*
X030920D02*
X031200Y033122D01*
Y033402D02*
X030920D01*
Y033541*
X030967Y033588*
X031060*
X031107Y033541*
Y033402*
X031200Y033681D02*
X031013D01*
X030920Y033775*
X031013Y033868*
X031200*
X031060*
Y033681*
X031200Y033961D02*
X030920D01*
X031200Y034148*
X030920*
Y034241D02*
X031200D01*
Y034381*
X031153Y034428*
X030967*
X030920Y034381*
Y034241*
Y034708D02*
Y034521D01*
X031200*
Y034708*
X031060Y034521D02*
Y034614D01*
X031200Y034801D02*
X030920D01*
Y034941*
X030967Y034988*
X031060*
X031107Y034941*
Y034801*
Y034894D02*
X031200Y034988D01*
X030350Y028000D02*
Y027900D01*
Y027950*
X030600*
X030650Y027900*
Y027850*
X030600Y027800*
X030350Y028100D02*
X030600D01*
X030650Y028150*
Y028250*
X030600Y028300*
X030350*
Y028400D02*
X030650D01*
Y028550*
X030600Y028600*
X030550*
X030500Y028550*
Y028400*
Y028550*
X030450Y028600*
X030400*
X030350Y028550*
Y028400*
Y028900D02*
Y028700D01*
X030650*
Y028900*
X030500Y028700D02*
Y028800D01*
X030650Y029000D02*
X030350D01*
Y029150*
X030400Y029200*
X030500*
X030550Y029150*
Y029000*
Y029100D02*
X030650Y029200D01*
Y029300D02*
X030450D01*
X030350Y029399*
X030450Y029499*
X030650*
X030500*
Y029300*
X030350Y030099D02*
X030650D01*
Y029949*
X030600Y029899*
X030500*
X030450Y029949*
Y030099*
X030650Y030199D02*
X030600D01*
Y030249*
X030650*
Y030199*
Y030499D02*
Y030599D01*
X030600Y030649*
X030500*
X030450Y030599*
Y030499*
X030500Y030449*
X030600*
X030650Y030499*
Y030749D02*
X030600D01*
Y030799*
X030650*
Y030749*
Y031049D02*
Y031149D01*
X030600Y031199*
X030500*
X030450Y031149*
Y031049*
X030500Y030999*
X030600*
X030650Y031049*
Y031299D02*
X030600D01*
Y031349*
X030650*
Y031299*
X030400Y032049D02*
X030350Y031999D01*
Y031899*
X030400Y031849*
X030450*
X030500Y031899*
Y031999*
X030550Y032049*
X030600*
X030650Y031999*
Y031899*
X030600Y031849*
X030450Y032199D02*
Y032299D01*
X030500Y032349*
X030650*
Y032199*
X030600Y032149*
X030550Y032199*
Y032349*
X030450Y032448D02*
X030650D01*
X030550*
X030500Y032498*
X030450Y032548*
Y032598*
Y032798D02*
Y032898D01*
X030500Y032948*
X030650*
Y032798*
X030600Y032748*
X030550Y032798*
Y032948*
X030750Y033048D02*
Y033098D01*
X030700Y033148*
X030450*
X030650Y033498D02*
Y033398D01*
X030600Y033348*
X030500*
X030450Y033398*
Y033498*
X030500Y033548*
X030550*
Y033348*
X030450Y033648D02*
X030650Y033748D01*
X030450Y033848*
X030650Y033998D02*
Y034098D01*
X030600Y034148*
X030500*
X030450Y034098*
Y033998*
X030500Y033948*
X030600*
X030650Y033998*
X022500Y037150D02*
Y037417D01*
X022367Y037283D02*
X022633D01*
X022700Y037550D02*
Y037683D01*
Y037617*
X022300*
X022367Y037550*
X022700Y038150D02*
Y037883D01*
X022433Y038150*
X022367*
X022300Y038083*
Y037950*
X022367Y037883*
X022300Y038283D02*
X022567D01*
X022700Y038416*
X022567Y038550*
X022300*
X022367Y039349D02*
X022300Y039283D01*
Y039149*
X022367Y039083*
X022633*
X022700Y039149*
Y039283*
X022633Y039349*
X022500*
Y039216*
X022700Y039483D02*
X022300D01*
X022700Y039749*
X022300*
Y039882D02*
X022700D01*
Y040082*
X022633Y040149*
X022367*
X022300Y040082*
Y039882*
X029600Y022700D02*
X029550Y022650D01*
Y022550*
X029600Y022500*
X029650*
X029700Y022550*
Y022650*
X029750Y022700*
X029800*
X029850Y022650*
Y022550*
X029800Y022500*
X029600Y022800D02*
X029550Y022850D01*
Y022950*
X029600Y023000*
X029800*
X029850Y022950*
Y022850*
X029800Y022800*
X029600*
Y023600D02*
X029550Y023550D01*
Y023450*
X029600Y023400*
X029650*
X029700Y023450*
Y023550*
X029750Y023600*
X029800*
X029850Y023550*
Y023450*
X029800Y023400*
X029850Y023700D02*
Y023800D01*
Y023750*
X029550*
X029600Y023700*
Y024449D02*
X029550Y024399D01*
Y024299*
X029600Y024249*
X029650*
X029700Y024299*
Y024399*
X029750Y024449*
X029800*
X029850Y024399*
Y024299*
X029800Y024249*
X029850Y024749D02*
Y024549D01*
X029650Y024749*
X029600*
X029550Y024699*
Y024599*
X029600Y024549*
Y025349D02*
X029550Y025299D01*
Y025199*
X029600Y025149*
X029650*
X029700Y025199*
Y025299*
X029750Y025349*
X029800*
X029850Y025299*
Y025199*
X029800Y025149*
X029600Y025449D02*
X029550Y025499D01*
Y025599*
X029600Y025649*
X029650*
X029700Y025599*
Y025549*
Y025599*
X029750Y025649*
X029800*
X029850Y025599*
Y025499*
X029800Y025449*
X029600Y026249D02*
X029550Y026199D01*
Y026099*
X029600Y026049*
X029650*
X029700Y026099*
Y026199*
X029750Y026249*
X029800*
X029850Y026199*
Y026099*
X029800Y026049*
X029850Y026499D02*
X029550D01*
X029700Y026349*
Y026549*
X029850Y026949D02*
Y027049D01*
Y026999*
X029550*
X029600Y026949*
X029550Y027398D02*
X029600Y027298D01*
X029700Y027198*
X029800*
X029850Y027248*
Y027348*
X029800Y027398*
X029750*
X029700Y027348*
Y027198*
X029850Y027498D02*
X029650Y027698D01*
X029600Y027798D02*
X029550Y027848D01*
Y027948*
X029600Y027998*
X029650*
X029700Y027948*
Y027898*
Y027948*
X029750Y027998*
X029800*
X029850Y027948*
Y027848*
X029800Y027798*
X029850Y028298D02*
Y028098D01*
X029650Y028298*
X029600*
X029550Y028248*
Y028148*
X029600Y028098*
X027850Y014150D02*
X027650D01*
X027550Y014250*
X027650Y014350*
X027850*
X027700*
Y014150*
X027850Y014750D02*
X027550D01*
Y014900*
X027600Y014950*
X027700*
X027750Y014900*
Y014750*
Y014850D02*
X027850Y014950D01*
X027600Y015250D02*
X027550Y015200D01*
Y015100*
X027600Y015050*
X027650*
X027700Y015100*
Y015200*
X027750Y015250*
X027800*
X027850Y015200*
Y015100*
X027800Y015050*
X027850Y015500D02*
X027550D01*
X027700Y015350*
Y015550*
X027600Y015650D02*
X027550Y015699D01*
Y015799*
X027600Y015849*
X027650*
X027700Y015799*
X027750Y015849*
X027800*
X027850Y015799*
Y015699*
X027800Y015650*
X027750*
X027700Y015699*
X027650Y015650*
X027600*
X027700Y015699D02*
Y015799D01*
X027550Y016149D02*
Y015949D01*
X027700*
X027650Y016049*
Y016099*
X027700Y016149*
X027800*
X027850Y016099*
Y015999*
X027800Y015949*
X027550Y016549D02*
X027850D01*
Y016699*
X027800Y016749*
X027750*
X027700Y016699*
Y016549*
Y016699*
X027650Y016749*
X027600*
X027550Y016699*
Y016549*
X023583Y024467D02*
X023550Y024500D01*
X023483*
X023450Y024467*
Y024333*
X023483Y024300*
X023550*
X023583Y024333*
X023650Y024300D02*
X023717D01*
X023683*
Y024500*
X023650Y024467*
X030733Y019317D02*
X030700Y019350D01*
X030633*
X030600Y019317*
Y019183*
X030633Y019150*
X030700*
X030733Y019183*
X030933Y019150D02*
X030800D01*
X030933Y019283*
Y019317*
X030900Y019350*
X030833*
X030800Y019317*
X023483Y029217D02*
X023450Y029250D01*
X023383*
X023350Y029217*
Y029083*
X023383Y029050*
X023450*
X023483Y029083*
X023550Y029217D02*
X023583Y029250D01*
X023650*
X023683Y029217*
Y029183*
X023650Y029150*
X023617*
X023650*
X023683Y029117*
Y029083*
X023650Y029050*
X023583*
X023550Y029083*
X024983Y022517D02*
X024950Y022550D01*
X024883*
X024850Y022517*
Y022383*
X024883Y022350*
X024950*
X024983Y022383*
X025150Y022350D02*
Y022550D01*
X025050Y022450*
X025183*
X020433Y033817D02*
X020400Y033850D01*
X020333*
X020300Y033817*
Y033683*
X020333Y033650*
X020400*
X020433Y033683*
X020633Y033850D02*
X020500D01*
Y033750*
X020567Y033783*
X020600*
X020633Y033750*
Y033683*
X020600Y033650*
X020533*
X020500Y033683*
X017333Y022917D02*
X017300Y022950D01*
X017233*
X017200Y022917*
Y022783*
X017233Y022750*
X017300*
X017333Y022783*
X017533Y022950D02*
X017467Y022917D01*
X017400Y022850*
Y022783*
X017433Y022750*
X017500*
X017533Y022783*
Y022817*
X017500Y022850*
X017400*
X017333Y023717D02*
X017300Y023750D01*
X017233*
X017200Y023717*
Y023583*
X017233Y023550*
X017300*
X017333Y023583*
X017400Y023750D02*
X017533D01*
Y023717*
X017400Y023583*
Y023550*
X024983Y023117D02*
X024950Y023150D01*
X024883*
X024850Y023117*
Y022983*
X024883Y022950*
X024950*
X024983Y022983*
X025050Y023117D02*
X025083Y023150D01*
X025150*
X025183Y023117*
Y023083*
X025150Y023050*
X025183Y023017*
Y022983*
X025150Y022950*
X025083*
X025050Y022983*
Y023017*
X025083Y023050*
X025050Y023083*
Y023117*
X025083Y023050D02*
X025150D01*
X024983Y023667D02*
X024950Y023700D01*
X024883*
X024850Y023667*
Y023533*
X024883Y023500*
X024950*
X024983Y023533*
X025050D02*
X025083Y023500D01*
X025150*
X025183Y023533*
Y023667*
X025150Y023700*
X025083*
X025050Y023667*
Y023633*
X025083Y023600*
X025183*
X017533Y029267D02*
X017500Y029300D01*
X017433*
X017400Y029267*
Y029133*
X017433Y029100*
X017500*
X017533Y029133*
X017600Y029100D02*
X017667D01*
X017633*
Y029300*
X017600Y029267*
X017767D02*
X017800Y029300D01*
X017867*
X017900Y029267*
Y029133*
X017867Y029100*
X017800*
X017767Y029133*
Y029267*
X021583Y034067D02*
X021550Y034100D01*
X021483*
X021450Y034067*
Y033933*
X021483Y033900*
X021550*
X021583Y033933*
X021650Y033900D02*
X021717D01*
X021683*
Y034100*
X021650Y034067*
X021817Y033900D02*
X021883D01*
X021850*
Y034100*
X021817Y034067*
X022233Y036217D02*
X022200Y036250D01*
X022133*
X022100Y036217*
Y036083*
X022133Y036050*
X022200*
X022233Y036083*
X022300Y036050D02*
X022367D01*
X022333*
Y036250*
X022300Y036217*
X022600Y036050D02*
X022467D01*
X022600Y036183*
Y036217*
X022567Y036250*
X022500*
X022467Y036217*
X021533Y034917D02*
X021500Y034950D01*
X021433*
X021400Y034917*
Y034783*
X021433Y034750*
X021500*
X021533Y034783*
X021600Y034750D02*
X021667D01*
X021633*
Y034950*
X021600Y034917*
X021767D02*
X021800Y034950D01*
X021867*
X021900Y034917*
Y034883*
X021867Y034850*
X021833*
X021867*
X021900Y034817*
Y034783*
X021867Y034750*
X021800*
X021767Y034783*
X024183Y034117D02*
X024150Y034150D01*
X024083*
X024050Y034117*
Y033983*
X024083Y033950*
X024150*
X024183Y033983*
X024250Y033950D02*
X024317D01*
X024283*
Y034150*
X024250Y034117*
X024517Y033950D02*
Y034150D01*
X024417Y034050*
X024550*
X028383Y036267D02*
X028350Y036300D01*
X028283*
X028250Y036267*
Y036133*
X028283Y036100*
X028350*
X028383Y036133*
X028450Y036100D02*
X028517D01*
X028483*
Y036300*
X028450Y036267*
X028750Y036300D02*
X028617D01*
Y036200*
X028683Y036233*
X028717*
X028750Y036200*
Y036133*
X028717Y036100*
X028650*
X028617Y036133*
X018133Y035067D02*
X018100Y035100D01*
X018033*
X018000Y035067*
Y034933*
X018033Y034900*
X018100*
X018133Y034933*
X018200Y034900D02*
X018267D01*
X018233*
Y035100*
X018200Y035067*
X018500Y035100D02*
X018433Y035067D01*
X018367Y035000*
Y034933*
X018400Y034900*
X018467*
X018500Y034933*
Y034967*
X018467Y035000*
X018367*
X018183Y035867D02*
X018150Y035900D01*
X018083*
X018050Y035867*
Y035733*
X018083Y035700*
X018150*
X018183Y035733*
X018250Y035700D02*
X018317D01*
X018283*
Y035900*
X018250Y035867*
X018417Y035900D02*
X018550D01*
Y035867*
X018417Y035733*
Y035700*
X018133Y034517D02*
X018100Y034550D01*
X018033*
X018000Y034517*
Y034383*
X018033Y034350*
X018100*
X018133Y034383*
X018200Y034350D02*
X018267D01*
X018233*
Y034550*
X018200Y034517*
X018367D02*
X018400Y034550D01*
X018467*
X018500Y034517*
Y034483*
X018467Y034450*
X018500Y034417*
Y034383*
X018467Y034350*
X018400*
X018367Y034383*
Y034417*
X018400Y034450*
X018367Y034483*
Y034517*
X018400Y034450D02*
X018467D01*
X026533Y034067D02*
X026500Y034100D01*
X026433*
X026400Y034067*
Y033933*
X026433Y033900*
X026500*
X026533Y033933*
X026600Y033900D02*
X026667D01*
X026633*
Y034100*
X026600Y034067*
X026767Y033933D02*
X026800Y033900D01*
X026867*
X026900Y033933*
Y034067*
X026867Y034100*
X026800*
X026767Y034067*
Y034033*
X026800Y034000*
X026900*
X014500Y019750D02*
Y019550D01*
X014600*
X014633Y019583*
Y019717*
X014600Y019750*
X014500*
X014700Y019550D02*
X014767D01*
X014733*
Y019750*
X014700Y019717*
X015200Y019750D02*
Y019550D01*
X015300*
X015333Y019583*
Y019717*
X015300Y019750*
X015200*
X015533Y019550D02*
X015400D01*
X015533Y019683*
Y019717*
X015500Y019750*
X015433*
X015400Y019717*
X015850Y019750D02*
Y019550D01*
X015950*
X015983Y019583*
Y019717*
X015950Y019750*
X015850*
X016050Y019717D02*
X016083Y019750D01*
X016150*
X016183Y019717*
Y019683*
X016150Y019650*
X016117*
X016150*
X016183Y019617*
Y019583*
X016150Y019550*
X016083*
X016050Y019583*
X016950Y020150D02*
Y019950D01*
X017050*
X017083Y019983*
Y020117*
X017050Y020150*
X016950*
X017250Y019950D02*
Y020150D01*
X017150Y020050*
X017283*
X017750Y020150D02*
Y019950D01*
X017850*
X017883Y019983*
Y020117*
X017850Y020150*
X017750*
X018083D02*
X017950D01*
Y020050*
X018017Y020083*
X018050*
X018083Y020050*
Y019983*
X018050Y019950*
X017983*
X017950Y019983*
X018550Y020150D02*
Y019950D01*
X018650*
X018683Y019983*
Y020117*
X018650Y020150*
X018550*
X018883D02*
X018817Y020117D01*
X018750Y020050*
Y019983*
X018783Y019950*
X018850*
X018883Y019983*
Y020017*
X018850Y020050*
X018750*
X019450Y020150D02*
Y019950D01*
X019550*
X019583Y019983*
Y020117*
X019550Y020150*
X019450*
X019650D02*
X019783D01*
Y020117*
X019650Y019983*
Y019950*
X020300Y020150D02*
Y019950D01*
X020400*
X020433Y019983*
Y020117*
X020400Y020150*
X020300*
X020500Y020117D02*
X020533Y020150D01*
X020600*
X020633Y020117*
Y020083*
X020600Y020050*
X020633Y020017*
Y019983*
X020600Y019950*
X020533*
X020500Y019983*
Y020017*
X020533Y020050*
X020500Y020083*
Y020117*
X020533Y020050D02*
X020600D01*
X021050Y020150D02*
Y019950D01*
X021150*
X021183Y019983*
Y020117*
X021150Y020150*
X021050*
X021250Y019983D02*
X021283Y019950D01*
X021350*
X021383Y019983*
Y020117*
X021350Y020150*
X021283*
X021250Y020117*
Y020083*
X021283Y020050*
X021383*
X021900Y020150D02*
Y019950D01*
X022000*
X022033Y019983*
Y020117*
X022000Y020150*
X021900*
X022100Y019950D02*
X022167D01*
X022133*
Y020150*
X022100Y020117*
X022267D02*
X022300Y020150D01*
X022367*
X022400Y020117*
Y019983*
X022367Y019950*
X022300*
X022267Y019983*
Y020117*
X022700Y020150D02*
Y019950D01*
X022800*
X022833Y019983*
Y020117*
X022800Y020150*
X022700*
X022900Y019950D02*
X022967D01*
X022933*
Y020150*
X022900Y020117*
X023067Y019950D02*
X023133D01*
X023100*
Y020150*
X023067Y020117*
X023500Y020150D02*
Y019950D01*
X023600*
X023633Y019983*
Y020117*
X023600Y020150*
X023500*
X023700Y019950D02*
X023767D01*
X023733*
Y020150*
X023700Y020117*
X024000Y019950D02*
X023867D01*
X024000Y020083*
Y020117*
X023967Y020150*
X023900*
X023867Y020117*
X024350Y020150D02*
Y019950D01*
X024450*
X024483Y019983*
Y020117*
X024450Y020150*
X024350*
X024550Y019950D02*
X024617D01*
X024583*
Y020150*
X024550Y020117*
X024717D02*
X024750Y020150D01*
X024817*
X024850Y020117*
Y020083*
X024817Y020050*
X024783*
X024817*
X024850Y020017*
Y019983*
X024817Y019950*
X024750*
X024717Y019983*
X025150Y020150D02*
Y019950D01*
X025250*
X025283Y019983*
Y020117*
X025250Y020150*
X025150*
X025350Y019950D02*
X025417D01*
X025383*
Y020150*
X025350Y020117*
X025617Y019950D02*
Y020150D01*
X025517Y020050*
X025650*
X026000Y020150D02*
Y019950D01*
X026100*
X026133Y019983*
Y020117*
X026100Y020150*
X026000*
X026200Y019950D02*
X026267D01*
X026233*
Y020150*
X026200Y020117*
X026500Y020150D02*
X026367D01*
Y020050*
X026433Y020083*
X026467*
X026500Y020050*
Y019983*
X026467Y019950*
X026400*
X026367Y019983*
X026850Y020150D02*
Y019950D01*
X026950*
X026983Y019983*
Y020117*
X026950Y020150*
X026850*
X027050Y019950D02*
X027117D01*
X027083*
Y020150*
X027050Y020117*
X027350Y020150D02*
X027283Y020117D01*
X027217Y020050*
Y019983*
X027250Y019950*
X027317*
X027350Y019983*
Y020017*
X027317Y020050*
X027217*
X026850Y019850D02*
Y019650D01*
X026950*
X026983Y019683*
Y019817*
X026950Y019850*
X026850*
X027050Y019650D02*
X027117D01*
X027083*
Y019850*
X027050Y019817*
X027217Y019850D02*
X027350D01*
Y019817*
X027217Y019683*
Y019650*
X026000Y019850D02*
Y019650D01*
X026100*
X026133Y019683*
Y019817*
X026100Y019850*
X026000*
X026200Y019650D02*
X026267D01*
X026233*
Y019850*
X026200Y019817*
X026367D02*
X026400Y019850D01*
X026467*
X026500Y019817*
Y019783*
X026467Y019750*
X026500Y019717*
Y019683*
X026467Y019650*
X026400*
X026367Y019683*
Y019717*
X026400Y019750*
X026367Y019783*
Y019817*
X026400Y019750D02*
X026467D01*
X025150Y019850D02*
Y019650D01*
X025250*
X025283Y019683*
Y019817*
X025250Y019850*
X025150*
X025350Y019650D02*
X025417D01*
X025383*
Y019850*
X025350Y019817*
X025517Y019683D02*
X025550Y019650D01*
X025617*
X025650Y019683*
Y019817*
X025617Y019850*
X025550*
X025517Y019817*
Y019783*
X025550Y019750*
X025650*
X024350Y019850D02*
Y019650D01*
X024450*
X024483Y019683*
Y019817*
X024450Y019850*
X024350*
X024683Y019650D02*
X024550D01*
X024683Y019783*
Y019817*
X024650Y019850*
X024583*
X024550Y019817*
X024750D02*
X024783Y019850D01*
X024850*
X024883Y019817*
Y019683*
X024850Y019650*
X024783*
X024750Y019683*
Y019817*
X023500Y019850D02*
Y019650D01*
X023600*
X023633Y019683*
Y019817*
X023600Y019850*
X023500*
X023833Y019650D02*
X023700D01*
X023833Y019783*
Y019817*
X023800Y019850*
X023733*
X023700Y019817*
X023900Y019650D02*
X023967D01*
X023933*
Y019850*
X023900Y019817*
X022700Y019850D02*
Y019650D01*
X022800*
X022833Y019683*
Y019817*
X022800Y019850*
X022700*
X023033Y019650D02*
X022900D01*
X023033Y019783*
Y019817*
X023000Y019850*
X022933*
X022900Y019817*
X023233Y019650D02*
X023100D01*
X023233Y019783*
Y019817*
X023200Y019850*
X023133*
X023100Y019817*
X021900Y019850D02*
Y019650D01*
X022000*
X022033Y019683*
Y019817*
X022000Y019850*
X021900*
X022233Y019650D02*
X022100D01*
X022233Y019783*
Y019817*
X022200Y019850*
X022133*
X022100Y019817*
X022300D02*
X022333Y019850D01*
X022400*
X022433Y019817*
Y019783*
X022400Y019750*
X022367*
X022400*
X022433Y019717*
Y019683*
X022400Y019650*
X022333*
X022300Y019683*
X021050Y019850D02*
Y019650D01*
X021150*
X021183Y019683*
Y019817*
X021150Y019850*
X021050*
X021383Y019650D02*
X021250D01*
X021383Y019783*
Y019817*
X021350Y019850*
X021283*
X021250Y019817*
X021550Y019650D02*
Y019850D01*
X021450Y019750*
X021583*
X020300Y019850D02*
Y019650D01*
X020400*
X020433Y019683*
Y019817*
X020400Y019850*
X020300*
X020633Y019650D02*
X020500D01*
X020633Y019783*
Y019817*
X020600Y019850*
X020533*
X020500Y019817*
X020833Y019850D02*
X020700D01*
Y019750*
X020767Y019783*
X020800*
X020833Y019750*
Y019683*
X020800Y019650*
X020733*
X020700Y019683*
X019450Y019850D02*
Y019650D01*
X019550*
X019583Y019683*
Y019817*
X019550Y019850*
X019450*
X019783Y019650D02*
X019650D01*
X019783Y019783*
Y019817*
X019750Y019850*
X019683*
X019650Y019817*
X019983Y019850D02*
X019917Y019817D01*
X019850Y019750*
Y019683*
X019883Y019650*
X019950*
X019983Y019683*
Y019717*
X019950Y019750*
X019850*
X018550Y019850D02*
Y019650D01*
X018650*
X018683Y019683*
Y019817*
X018650Y019850*
X018550*
X018883Y019650D02*
X018750D01*
X018883Y019783*
Y019817*
X018850Y019850*
X018783*
X018750Y019817*
X018950Y019850D02*
X019083D01*
Y019817*
X018950Y019683*
Y019650*
X017753Y019852D02*
Y019652D01*
X017853*
X017887Y019685*
Y019818*
X017853Y019852*
X017753*
X018087Y019652D02*
X017953D01*
X018087Y019785*
Y019818*
X018053Y019852*
X017987*
X017953Y019818*
X018153D02*
X018186Y019852D01*
X018253*
X018286Y019818*
Y019785*
X018253Y019752*
X018286Y019719*
Y019685*
X018253Y019652*
X018186*
X018153Y019685*
Y019719*
X018186Y019752*
X018153Y019785*
Y019818*
X018186Y019752D02*
X018253D01*
X030450Y022450D02*
Y022250D01*
X030550*
X030583Y022283*
Y022417*
X030550Y022450*
X030450*
X030783Y022250D02*
X030650D01*
X030783Y022383*
Y022417*
X030750Y022450*
X030683*
X030650Y022417*
X030850Y022283D02*
X030883Y022250D01*
X030950*
X030983Y022283*
Y022417*
X030950Y022450*
X030883*
X030850Y022417*
Y022383*
X030883Y022350*
X030983*
X016950Y019850D02*
Y019650D01*
X017050*
X017083Y019683*
Y019817*
X017050Y019850*
X016950*
X017150Y019817D02*
X017183Y019850D01*
X017250*
X017283Y019817*
Y019783*
X017250Y019750*
X017217*
X017250*
X017283Y019717*
Y019683*
X017250Y019650*
X017183*
X017150Y019683*
X017350Y019817D02*
X017383Y019850D01*
X017450*
X017483Y019817*
Y019683*
X017450Y019650*
X017383*
X017350Y019683*
Y019817*
X015850Y019450D02*
Y019250D01*
X015950*
X015983Y019283*
Y019417*
X015950Y019450*
X015850*
X016050Y019417D02*
X016083Y019450D01*
X016150*
X016183Y019417*
Y019383*
X016150Y019350*
X016117*
X016150*
X016183Y019317*
Y019283*
X016150Y019250*
X016083*
X016050Y019283*
X016250Y019250D02*
X016317D01*
X016283*
Y019450*
X016250Y019417*
X015200Y019450D02*
Y019250D01*
X015300*
X015333Y019283*
Y019417*
X015300Y019450*
X015200*
X015400Y019417D02*
X015433Y019450D01*
X015500*
X015533Y019417*
Y019383*
X015500Y019350*
X015467*
X015500*
X015533Y019317*
Y019283*
X015500Y019250*
X015433*
X015400Y019283*
X015733Y019250D02*
X015600D01*
X015733Y019383*
Y019417*
X015700Y019450*
X015633*
X015600Y019417*
X014500Y019450D02*
Y019250D01*
X014600*
X014633Y019283*
Y019417*
X014600Y019450*
X014500*
X014700Y019417D02*
X014733Y019450D01*
X014800*
X014833Y019417*
Y019383*
X014800Y019350*
X014767*
X014800*
X014833Y019317*
Y019283*
X014800Y019250*
X014733*
X014700Y019283*
X014900Y019417D02*
X014933Y019450D01*
X015000*
X015033Y019417*
Y019383*
X015000Y019350*
X014967*
X015000*
X015033Y019317*
Y019283*
X015000Y019250*
X014933*
X014900Y019283*
X027600Y017150D02*
Y017350D01*
X027700*
X027733Y017317*
Y017250*
X027700Y017217*
X027600*
X027800Y017150D02*
X027867D01*
X027833*
Y017350*
X027800Y017317*
X029650Y033850D02*
Y034050D01*
X029750*
X029783Y034017*
Y033950*
X029750Y033917*
X029650*
X029983Y033850D02*
X029850D01*
X029983Y033983*
Y034017*
X029950Y034050*
X029883*
X029850Y034017*
X020850Y020800D02*
Y021000D01*
X020950*
X020983Y020967*
Y020900*
X020950Y020867*
X020850*
X021050Y020967D02*
X021083Y021000D01*
X021150*
X021183Y020967*
Y020933*
X021150Y020900*
X021117*
X021150*
X021183Y020867*
Y020833*
X021150Y020800*
X021083*
X021050Y020833*
X014750Y023300D02*
Y023500D01*
X014850*
X014883Y023467*
Y023400*
X014850Y023367*
X014750*
X015050Y023300D02*
Y023500D01*
X014950Y023400*
X015083*
X022300Y040450D02*
Y040650D01*
X022400*
X022433Y040617*
Y040550*
X022400Y040517*
X022300*
X022633Y040650D02*
X022500D01*
Y040550*
X022567Y040583*
X022600*
X022633Y040550*
Y040483*
X022600Y040450*
X022533*
X022500Y040483*
X021483Y032733D02*
Y032867D01*
X021450Y032900*
X021383*
X021350Y032867*
Y032733*
X021383Y032700*
X021450*
X021417Y032767D02*
X021483Y032700D01*
X021450D02*
X021483Y032733D01*
X021683Y032700D02*
X021550D01*
X021683Y032833*
Y032867*
X021650Y032900*
X021583*
X021550Y032867*
X021483Y026833D02*
Y026967D01*
X021450Y027000*
X021383*
X021350Y026967*
Y026833*
X021383Y026800*
X021450*
X021417Y026867D02*
X021483Y026800D01*
X021450D02*
X021483Y026833D01*
X021550Y026967D02*
X021583Y027000D01*
X021650*
X021683Y026967*
Y026933*
X021650Y026900*
X021617*
X021650*
X021683Y026867*
Y026833*
X021650Y026800*
X021583*
X021550Y026833*
X021483Y030783D02*
Y030917D01*
X021450Y030950*
X021383*
X021350Y030917*
Y030783*
X021383Y030750*
X021450*
X021417Y030817D02*
X021483Y030750D01*
X021450D02*
X021483Y030783D01*
X021650Y030750D02*
Y030950D01*
X021550Y030850*
X021683*
X014500Y019850D02*
Y020050D01*
X014600*
X014633Y020017*
Y019950*
X014600Y019917*
X014500*
X014567D02*
X014633Y019850D01*
X014700D02*
X014767D01*
X014733*
Y020050*
X014700Y020017*
X015200Y019850D02*
Y020050D01*
X015300*
X015333Y020017*
Y019950*
X015300Y019917*
X015200*
X015267D02*
X015333Y019850D01*
X015533D02*
X015400D01*
X015533Y019983*
Y020017*
X015500Y020050*
X015433*
X015400Y020017*
X015850Y019850D02*
Y020050D01*
X015950*
X015983Y020017*
Y019950*
X015950Y019917*
X015850*
X015917D02*
X015983Y019850D01*
X016050Y020017D02*
X016083Y020050D01*
X016150*
X016183Y020017*
Y019983*
X016150Y019950*
X016117*
X016150*
X016183Y019917*
Y019883*
X016150Y019850*
X016083*
X016050Y019883*
X016950Y020250D02*
Y020450D01*
X017050*
X017083Y020417*
Y020350*
X017050Y020317*
X016950*
X017017D02*
X017083Y020250D01*
X017250D02*
Y020450D01*
X017150Y020350*
X017283*
X017750Y020250D02*
Y020450D01*
X017850*
X017883Y020417*
Y020350*
X017850Y020317*
X017750*
X017817D02*
X017883Y020250D01*
X018083Y020450D02*
X017950D01*
Y020350*
X018017Y020383*
X018050*
X018083Y020350*
Y020283*
X018050Y020250*
X017983*
X017950Y020283*
X018550Y020250D02*
Y020450D01*
X018650*
X018683Y020417*
Y020350*
X018650Y020317*
X018550*
X018617D02*
X018683Y020250D01*
X018883Y020450D02*
X018817Y020417D01*
X018750Y020350*
Y020283*
X018783Y020250*
X018850*
X018883Y020283*
Y020317*
X018850Y020350*
X018750*
X028650Y021150D02*
Y021350D01*
X028750*
X028783Y021317*
Y021250*
X028750Y021217*
X028650*
X028717D02*
X028783Y021150D01*
X028850Y021350D02*
X028983D01*
Y021317*
X028850Y021183*
Y021150*
X019450Y020250D02*
Y020450D01*
X019550*
X019583Y020417*
Y020350*
X019550Y020317*
X019450*
X019517D02*
X019583Y020250D01*
X019650Y020417D02*
X019683Y020450D01*
X019750*
X019783Y020417*
Y020383*
X019750Y020350*
X019783Y020317*
Y020283*
X019750Y020250*
X019683*
X019650Y020283*
Y020317*
X019683Y020350*
X019650Y020383*
Y020417*
X019683Y020350D02*
X019750D01*
X020300Y020250D02*
Y020450D01*
X020400*
X020433Y020417*
Y020350*
X020400Y020317*
X020300*
X020367D02*
X020433Y020250D01*
X020500Y020283D02*
X020533Y020250D01*
X020600*
X020633Y020283*
Y020417*
X020600Y020450*
X020533*
X020500Y020417*
Y020383*
X020533Y020350*
X020633*
X021050Y020250D02*
Y020450D01*
X021150*
X021183Y020417*
Y020350*
X021150Y020317*
X021050*
X021117D02*
X021183Y020250D01*
X021250D02*
X021317D01*
X021283*
Y020450*
X021250Y020417*
X021417D02*
X021450Y020450D01*
X021517*
X021550Y020417*
Y020283*
X021517Y020250*
X021450*
X021417Y020283*
Y020417*
X021900Y020250D02*
Y020450D01*
X022000*
X022033Y020417*
Y020350*
X022000Y020317*
X021900*
X021967D02*
X022033Y020250D01*
X022100D02*
X022167D01*
X022133*
Y020450*
X022100Y020417*
X022267Y020250D02*
X022333D01*
X022300*
Y020450*
X022267Y020417*
X022700Y020250D02*
Y020450D01*
X022800*
X022833Y020417*
Y020350*
X022800Y020317*
X022700*
X022767D02*
X022833Y020250D01*
X022900D02*
X022967D01*
X022933*
Y020450*
X022900Y020417*
X023200Y020250D02*
X023067D01*
X023200Y020383*
Y020417*
X023167Y020450*
X023100*
X023067Y020417*
X023500Y020250D02*
Y020450D01*
X023600*
X023633Y020417*
Y020350*
X023600Y020317*
X023500*
X023567D02*
X023633Y020250D01*
X023700D02*
X023767D01*
X023733*
Y020450*
X023700Y020417*
X023867D02*
X023900Y020450D01*
X023967*
X024000Y020417*
Y020383*
X023967Y020350*
X023933*
X023967*
X024000Y020317*
Y020283*
X023967Y020250*
X023900*
X023867Y020283*
X024350Y020250D02*
Y020450D01*
X024450*
X024483Y020417*
Y020350*
X024450Y020317*
X024350*
X024417D02*
X024483Y020250D01*
X024550D02*
X024617D01*
X024583*
Y020450*
X024550Y020417*
X024817Y020250D02*
Y020450D01*
X024717Y020350*
X024850*
X025150Y020250D02*
Y020450D01*
X025250*
X025283Y020417*
Y020350*
X025250Y020317*
X025150*
X025217D02*
X025283Y020250D01*
X025350D02*
X025417D01*
X025383*
Y020450*
X025350Y020417*
X025650Y020450D02*
X025517D01*
Y020350*
X025583Y020383*
X025617*
X025650Y020350*
Y020283*
X025617Y020250*
X025550*
X025517Y020283*
X026000Y020250D02*
Y020450D01*
X026100*
X026133Y020417*
Y020350*
X026100Y020317*
X026000*
X026067D02*
X026133Y020250D01*
X026200D02*
X026267D01*
X026233*
Y020450*
X026200Y020417*
X026500Y020450D02*
X026433Y020417D01*
X026367Y020350*
Y020283*
X026400Y020250*
X026467*
X026500Y020283*
Y020317*
X026467Y020350*
X026367*
X026850Y020250D02*
Y020450D01*
X026950*
X026983Y020417*
Y020350*
X026950Y020317*
X026850*
X026917D02*
X026983Y020250D01*
X027050D02*
X027117D01*
X027083*
Y020450*
X027050Y020417*
X027217D02*
X027250Y020450D01*
X027317*
X027350Y020417*
Y020383*
X027317Y020350*
X027350Y020317*
Y020283*
X027317Y020250*
X027250*
X027217Y020283*
Y020317*
X027250Y020350*
X027217Y020383*
Y020417*
X027250Y020350D02*
X027317D01*
X020000Y032700D02*
Y032900D01*
X020100*
X020133Y032867*
Y032800*
X020100Y032767*
X020000*
X020067D02*
X020133Y032700D01*
X020333D02*
X020200D01*
X020333Y032833*
Y032867*
X020300Y032900*
X020233*
X020200Y032867*
X020533Y032900D02*
X020467Y032867D01*
X020400Y032800*
Y032733*
X020433Y032700*
X020500*
X020533Y032733*
Y032767*
X020500Y032800*
X020400*
X022200Y031100D02*
Y031300D01*
X022300*
X022333Y031267*
Y031200*
X022300Y031167*
X022200*
X022267D02*
X022333Y031100D01*
X022533D02*
X022400D01*
X022533Y031233*
Y031267*
X022500Y031300*
X022433*
X022400Y031267*
X022600Y031300D02*
X022733D01*
Y031267*
X022600Y031133*
Y031100*
X030050Y027400D02*
Y027600D01*
X030150*
X030183Y027567*
Y027500*
X030150Y027467*
X030050*
X030117D02*
X030183Y027400D01*
X030383D02*
X030250D01*
X030383Y027533*
Y027567*
X030350Y027600*
X030283*
X030250Y027567*
X030450Y027433D02*
X030483Y027400D01*
X030550*
X030583Y027433*
Y027567*
X030550Y027600*
X030483*
X030450Y027567*
Y027533*
X030483Y027500*
X030583*
X030050Y026500D02*
Y026700D01*
X030150*
X030183Y026667*
Y026600*
X030150Y026567*
X030050*
X030117D02*
X030183Y026500D01*
X030250Y026667D02*
X030283Y026700D01*
X030350*
X030383Y026667*
Y026633*
X030350Y026600*
X030317*
X030350*
X030383Y026567*
Y026533*
X030350Y026500*
X030283*
X030250Y026533*
X030450Y026500D02*
X030517D01*
X030483*
Y026700*
X030450Y026667*
X030050Y025650D02*
Y025850D01*
X030150*
X030183Y025817*
Y025750*
X030150Y025717*
X030050*
X030117D02*
X030183Y025650D01*
X030250Y025817D02*
X030283Y025850D01*
X030350*
X030383Y025817*
Y025783*
X030350Y025750*
X030317*
X030350*
X030383Y025717*
Y025683*
X030350Y025650*
X030283*
X030250Y025683*
X030583Y025650D02*
X030450D01*
X030583Y025783*
Y025817*
X030550Y025850*
X030483*
X030450Y025817*
X030050Y024800D02*
Y025000D01*
X030150*
X030183Y024967*
Y024900*
X030150Y024867*
X030050*
X030117D02*
X030183Y024800D01*
X030250Y024967D02*
X030283Y025000D01*
X030350*
X030383Y024967*
Y024933*
X030350Y024900*
X030317*
X030350*
X030383Y024867*
Y024833*
X030350Y024800*
X030283*
X030250Y024833*
X030550Y024800D02*
Y025000D01*
X030450Y024900*
X030583*
X019950Y026800D02*
Y027000D01*
X020050*
X020083Y026967*
Y026900*
X020050Y026867*
X019950*
X020017D02*
X020083Y026800D01*
X020150Y026967D02*
X020183Y027000D01*
X020250*
X020283Y026967*
Y026933*
X020250Y026900*
X020217*
X020250*
X020283Y026867*
Y026833*
X020250Y026800*
X020183*
X020150Y026833*
X020483Y027000D02*
X020350D01*
Y026900*
X020417Y026933*
X020450*
X020483Y026900*
Y026833*
X020450Y026800*
X020383*
X020350Y026833*
X022050Y026800D02*
Y027000D01*
X022150*
X022183Y026967*
Y026900*
X022150Y026867*
X022050*
X022117D02*
X022183Y026800D01*
X022250Y026967D02*
X022283Y027000D01*
X022350*
X022383Y026967*
Y026933*
X022350Y026900*
X022317*
X022350*
X022383Y026867*
Y026833*
X022350Y026800*
X022283*
X022250Y026833*
X022583Y027000D02*
X022517Y026967D01*
X022450Y026900*
Y026833*
X022483Y026800*
X022550*
X022583Y026833*
Y026867*
X022550Y026900*
X022450*
X030050Y023900D02*
Y024100D01*
X030150*
X030183Y024067*
Y024000*
X030150Y023967*
X030050*
X030117D02*
X030183Y023900D01*
X030250Y024067D02*
X030283Y024100D01*
X030350*
X030383Y024067*
Y024033*
X030350Y024000*
X030317*
X030350*
X030383Y023967*
Y023933*
X030350Y023900*
X030283*
X030250Y023933*
X030450Y024100D02*
X030583D01*
Y024067*
X030450Y023933*
Y023900*
X030050Y023050D02*
Y023250D01*
X030150*
X030183Y023217*
Y023150*
X030150Y023117*
X030050*
X030117D02*
X030183Y023050D01*
X030250Y023217D02*
X030283Y023250D01*
X030350*
X030383Y023217*
Y023183*
X030350Y023150*
X030317*
X030350*
X030383Y023117*
Y023083*
X030350Y023050*
X030283*
X030250Y023083*
X030450Y023217D02*
X030483Y023250D01*
X030550*
X030583Y023217*
Y023183*
X030550Y023150*
X030583Y023117*
Y023083*
X030550Y023050*
X030483*
X030450Y023083*
Y023117*
X030483Y023150*
X030450Y023183*
Y023217*
X030483Y023150D02*
X030550D01*
X020000Y030750D02*
Y030950D01*
X020100*
X020133Y030917*
Y030850*
X020100Y030817*
X020000*
X020067D02*
X020133Y030750D01*
X020300D02*
Y030950D01*
X020200Y030850*
X020333*
X020533Y030750D02*
X020400D01*
X020533Y030883*
Y030917*
X020500Y030950*
X020433*
X020400Y030917*
X022250Y029150D02*
Y029350D01*
X022350*
X022383Y029317*
Y029250*
X022350Y029217*
X022250*
X022317D02*
X022383Y029150D01*
X022550D02*
Y029350D01*
X022450Y029250*
X022583*
X022650Y029317D02*
X022683Y029350D01*
X022750*
X022783Y029317*
Y029283*
X022750Y029250*
X022717*
X022750*
X022783Y029217*
Y029183*
X022750Y029150*
X022683*
X022650Y029183*
X025550Y024650D02*
Y024483D01*
X025583Y024450*
X025650*
X025683Y024483*
Y024650*
X025750Y024450D02*
X025817D01*
X025783*
Y024650*
X025750Y024617*
X027750Y019450D02*
Y019283D01*
X027783Y019250*
X027850*
X027883Y019283*
Y019450*
X028083Y019250D02*
X027950D01*
X028083Y019383*
Y019417*
X028050Y019450*
X027983*
X027950Y019417*
X025550Y029500D02*
Y029333D01*
X025583Y029300*
X025650*
X025683Y029333*
Y029500*
X025750Y029467D02*
X025783Y029500D01*
X025850*
X025883Y029467*
Y029433*
X025850Y029400*
X025817*
X025850*
X025883Y029367*
Y029333*
X025850Y029300*
X025783*
X025750Y029333*
X021600Y021800D02*
Y021633D01*
X021633Y021600*
X021700*
X021733Y021633*
Y021800*
X021900Y021600D02*
Y021800D01*
X021800Y021700*
X021933*
X017100Y033900D02*
Y033733D01*
X017133Y033700*
X017200*
X017233Y033733*
Y033900*
X017433D02*
X017300D01*
Y033800*
X017367Y033833*
X017400*
X017433Y033800*
Y033733*
X017400Y033700*
X017333*
X017300Y033733*
X017100Y024550D02*
Y024383D01*
X017133Y024350*
X017200*
X017233Y024383*
Y024550*
X017433D02*
X017367Y024517D01*
X017300Y024450*
Y024383*
X017333Y024350*
X017400*
X017433Y024383*
Y024417*
X017400Y024450*
X017300*
X022050Y036750D02*
Y036583D01*
X022083Y036550*
X022150*
X022183Y036583*
Y036750*
X022250D02*
X022383D01*
Y036717*
X022250Y036583*
Y036550*
X015650Y039050D02*
Y038883D01*
X015683Y038850*
X015750*
X015783Y038883*
Y039050*
X015850Y039017D02*
X015883Y039050D01*
X015950*
X015983Y039017*
Y038983*
X015950Y038950*
X015983Y038917*
Y038883*
X015950Y038850*
X015883*
X015850Y038883*
Y038917*
X015883Y038950*
X015850Y038983*
Y039017*
X015883Y038950D02*
X015950D01*
X030283Y035150D02*
X030150D01*
Y035050*
X030217*
X030150*
Y034950*
X030350Y035150D02*
Y034950D01*
X030450*
X030483Y034983*
Y035117*
X030450Y035150*
X030350*
X030683Y034950D02*
X030550D01*
X030683Y035083*
Y035117*
X030650Y035150*
X030583*
X030550Y035117*
X021533Y028883D02*
Y029017D01*
X021500Y029050*
X021433*
X021400Y029017*
Y028883*
X021433Y028850*
X021500*
X021467Y028917D02*
X021533Y028850D01*
X021500D02*
X021533Y028883D01*
X021600Y028850D02*
X021667D01*
X021633*
Y029050*
X021600Y029017*
X022050Y027200D02*
Y027400D01*
X022150*
X022183Y027367*
Y027300*
X022150Y027267*
X022050*
X022117D02*
X022183Y027200D01*
X022250D02*
X022317D01*
X022283*
Y027400*
X022250Y027367*
X022417Y027400D02*
X022550D01*
Y027367*
X022417Y027233*
Y027200*
X019950Y028850D02*
Y029050D01*
X020050*
X020083Y029017*
Y028950*
X020050Y028917*
X019950*
X020017D02*
X020083Y028850D01*
X020150D02*
X020217D01*
X020183*
Y029050*
X020150Y029017*
X020317Y028883D02*
X020350Y028850D01*
X020417*
X020450Y028883*
Y029017*
X020417Y029050*
X020350*
X020317Y029017*
Y028983*
X020350Y028950*
X020450*
X028900Y022200D02*
Y022400D01*
X029000*
X029033Y022367*
Y022300*
X029000Y022267*
X028900*
X028967D02*
X029033Y022200D01*
X029200D02*
Y022400D01*
X029100Y022300*
X029233*
X029400Y022200D02*
Y022400D01*
X029300Y022300*
X029433*
G54D38*
X023102Y036515D02*
Y036253D01*
X023233Y036384D02*
X022970D01*
X025452Y036515D02*
Y036253D01*
X025583Y036384D02*
X025320D01*
G54D39*
X028110Y023600D02*
X027900D01*
X028110Y023810*
Y023862*
X028057Y023915*
X027952*
X027900Y023862*
X029200Y023600D02*
X029305D01*
X029252*
Y023915*
X029200Y023862*
X028850Y034300D02*
X028955D01*
X028902*
Y034615*
X028850Y034562*
X029112Y034352D02*
X029165Y034300D01*
X029270*
X029322Y034352*
Y034562*
X029270Y034615*
X029165*
X029112Y034562*
Y034510*
X029165Y034457*
X029322*
X027660Y034300D02*
X027450D01*
X027660Y034510*
Y034562*
X027607Y034615*
X027502*
X027450Y034562*
X027765D02*
X027817Y034615D01*
X027922*
X027975Y034562*
Y034352*
X027922Y034300*
X027817*
X027765Y034352*
Y034562*
M02*