%FSDAX24Y24*%
%MOIN*%
%SFA1B1*%

%IPPOS*%
%ADD11R,0.039400X0.043300*%
%ADD23C,0.059100*%
%ADD24C,0.020000*%
%ADD25C,0.030000*%
%ADD26C,0.010000*%
%ADD27C,0.053100*%
%ADD28R,0.053100X0.053100*%
%ADD29C,0.098400*%
%ADD30R,0.059100X0.059100*%
%ADD31R,0.059100X0.059100*%
%ADD32C,0.030000*%
%ADD33R,0.165000X0.245000*%
%ADD37C,0.005000*%
%ADD64C,0.040000*%
%LNde-260124-1*%
%LPD*%
G54D37*
X026019Y036969D02*
X026039Y036864D01*
X026100Y036773*
X026191Y036713*
X026295Y036692*
X029995*
X029998Y036679*
X029910Y036632*
X029777Y036522*
X029667Y036390*
X029585Y036237*
X029535Y036071*
X029518Y035900*
X029535Y035728*
X029585Y035562*
X029667Y035409*
X029777Y035277*
X029909Y035167*
X030062Y035085*
X030228Y035035*
X030400Y035018*
X030571Y035035*
X030737Y035085*
X030890Y035167*
X031022Y035277*
X031123Y035399*
X031110*
X031137Y035386*
Y033230*
X031120Y033224*
X030996Y033349*
X030907Y033409*
X030802Y033430*
X029305*
X029292Y033448*
X029309Y033490*
X029320Y033575*
X028900*
X028479*
X028490Y033490*
X028507Y033448*
X028494Y033430*
X028447*
X028342Y033409*
X028253Y033349*
X028014Y033109*
X027900Y033125*
X027764Y033107*
X027637Y033054*
X027529Y032970*
X027445Y032862*
X027392Y032735*
X027374Y032600*
X027392Y032464*
X027445Y032337*
X027529Y032229*
X027637Y032145*
X027723Y032110*
Y032089*
X027637Y032054*
X027529Y031970*
X027445Y031862*
X027392Y031735*
X027374Y031600*
X027392Y031464*
X027445Y031337*
X027529Y031229*
X027637Y031145*
X027723Y031110*
Y031089*
X027637Y031054*
X027529Y030970*
X027445Y030862*
X027392Y030735*
X027374Y030600*
X027392Y030464*
X027445Y030337*
X027529Y030229*
X027637Y030145*
X027723Y030110*
Y030089*
X027637Y030054*
X027529Y029970*
X027445Y029862*
X027392Y029735*
X027374Y029600*
X027392Y029464*
X027445Y029337*
X027529Y029229*
X027637Y029145*
X027723Y029110*
Y029089*
X027637Y029054*
X027529Y028970*
X027445Y028862*
X027392Y028735*
X027374Y028600*
X027392Y028464*
X027445Y028337*
X027529Y028229*
X027637Y028145*
X027723Y028110*
Y028089*
X027637Y028054*
X027529Y027970*
X027445Y027862*
X027392Y027735*
X027374Y027600*
X027392Y027464*
X027445Y027337*
X027529Y027229*
X027637Y027145*
X027723Y027110*
Y027089*
X027637Y027054*
X027529Y026970*
X027445Y026862*
X027392Y026735*
X027374Y026600*
X027392Y026464*
X027445Y026337*
X027529Y026229*
X027637Y026145*
X027723Y026110*
Y026089*
X027637Y026054*
X027529Y025970*
X027445Y025862*
X027392Y025735*
X027374Y025599*
X027390Y025485*
X027150Y025245*
X027091Y025157*
X027070Y025052*
Y024497*
X027091Y024392*
X027150Y024304*
X027327Y024127*
X027325Y024109*
X027272Y024039*
X027234Y023947*
X027221Y023850*
X027234Y023752*
X027272Y023660*
X027320Y023598*
Y023201*
X027272Y023139*
X027234Y023047*
X027221Y022949*
X027226Y022912*
X027197Y022880*
X026651*
X026627Y022939*
X026567Y023017*
X026489Y023077*
X026397Y023115*
X026300Y023128*
X026202Y023115*
X026110Y023077*
X026032Y023017*
X025972Y022939*
X025934Y022847*
X025921Y022750*
X025921Y022750*
X025903Y022730*
X025216*
X024213Y023731*
X024221Y023745*
X024224Y023744*
X024332Y023766*
X024423Y023826*
X024483Y023917*
X024500Y024000*
X024250*
Y024050*
X024200*
Y024300*
X024117Y024283*
X024026Y024223*
X023966Y024132*
X023944Y024024*
X023945Y024021*
X023931Y024013*
X023525Y024420*
X023515Y024497*
X023477Y024589*
X023417Y024667*
X023339Y024727*
X023247Y024765*
X023236Y024766*
X023230Y024784*
X023620Y025174*
X023697Y025184*
X023789Y025222*
X023867Y025282*
X023927Y025360*
X023965Y025452*
X023978Y025550*
X023965Y025647*
X023963Y025652*
X023976Y025672*
X024114*
X024772Y025014*
Y024589*
X024772Y024589*
X024734Y024497*
X024721Y024400*
X024734Y024302*
X024772Y024210*
X024832Y024132*
X024910Y024072*
X025002Y024034*
X025100Y024021*
X025197Y024034*
X025289Y024072*
X025367Y024132*
X025427Y024210*
X025465Y024302*
X025478Y024400*
X025465Y024497*
X025427Y024589*
X025428Y024589*
Y025151*
X025416Y025234*
X025383Y025313*
X025332Y025380*
X024480Y026232*
X024452Y026254*
X024457Y026270*
X024502*
X024607Y026290*
X024696Y026350*
X025149Y026804*
X025208Y026892*
X025230Y026997*
Y028897*
X025262Y028926*
X025299Y028921*
X025397Y028934*
X025489Y028972*
X025567Y029032*
X025627Y029110*
X025665Y029202*
X025678Y029300*
X025665Y029397*
X025627Y029489*
X025580Y029551*
Y032148*
X025627Y032210*
X025665Y032302*
X025678Y032400*
X025665Y032497*
X025627Y032589*
X025567Y032667*
X025489Y032727*
X025397Y032765*
X025300Y032778*
X025202Y032765*
X025110Y032727*
X025032Y032667*
X024972Y032589*
X024934Y032497*
X024921Y032400*
X024934Y032302*
X024972Y032210*
X025020Y032148*
Y031347*
X025004Y031341*
X024745Y031599*
X024657Y031658*
X024552Y031680*
X023980*
Y032152*
X023958Y032257*
X023899Y032345*
X022945Y033299*
X022857Y033358*
X022752Y033380*
X022051*
X021989Y033427*
X021897Y033465*
X021800Y033478*
X021702Y033465*
X021610Y033427*
X021532Y033367*
X021472Y033289*
X021434Y033197*
X021421Y033100*
X021434Y033002*
X021472Y032910*
X021532Y032832*
X021610Y032772*
X021702Y032734*
X021800Y032721*
X021897Y032734*
X021989Y032772*
X022051Y032820*
X022172*
X022185Y032800*
X022185Y032797*
X022171Y032700*
X022184Y032602*
X022222Y032510*
X022222Y032510*
Y030989*
X022222Y030989*
X022184Y030897*
X022171Y030800*
X022184Y030702*
X022222Y030610*
X022282Y030532*
X022360Y030472*
X022452Y030434*
X022550Y030421*
X022647Y030434*
X022739Y030472*
X022739Y030472*
X024114*
X024322Y030264*
Y029789*
X024322Y029789*
X024284Y029697*
X024271Y029600*
X024284Y029502*
X024322Y029410*
X024322Y029410*
Y027835*
X023864Y027378*
X023039*
X023039Y027377*
X022947Y027415*
X022850Y027428*
X022752Y027415*
X022721Y027402*
X022702Y027415*
Y029180*
X022681Y029285*
X022638Y029348*
X022647Y029370*
X022798*
X022860Y029322*
X022952Y029284*
X023050Y029271*
X023147Y029284*
X023239Y029322*
X023317Y029382*
X023377Y029460*
X023415Y029552*
X023428Y029650*
X023415Y029747*
X023377Y029839*
X023317Y029917*
X023239Y029977*
X023147Y030015*
X023050Y030028*
X022952Y030015*
X022860Y029977*
X022798Y029930*
X020916*
X020743Y030103*
X020746Y030118*
X020752Y030132*
X020817Y030182*
X020877Y030260*
X020915Y030352*
X020928Y030450*
X020915Y030547*
X020877Y030639*
X020878Y030639*
Y032186*
X020878Y032186*
X020915Y032276*
X020928Y032374*
X020915Y032471*
X020877Y032563*
X020878Y032563*
Y033901*
X020866Y033984*
X020833Y034063*
X020782Y034130*
X020230Y034682*
X020163Y034733*
X020084Y034766*
X020001Y034778*
X019327*
Y039102*
X019317Y039148*
X019291Y039187*
X019137Y039341*
X019098Y039367*
X019052Y039377*
X016523*
X016516Y039434*
X016483Y039513*
X016431Y039581*
X016363Y039633*
X016284Y039666*
X016200Y039678*
X016115Y039666*
X016036Y039633*
X015968Y039581*
X015916Y039513*
X015883Y039434*
X015872Y039351*
Y039294*
X015856Y039288*
X015074Y040071*
Y040497*
X015057Y040582*
X015042Y040605*
X015054Y040629*
X026019*
Y036969*
X015060Y040590D02*
Y040630D01*
X015110Y040050D02*
Y040630D01*
X015160Y040000D02*
Y040630D01*
X015210Y039950D02*
Y040630D01*
X015260Y039900D02*
Y040630D01*
X015310Y039850D02*
Y040630D01*
X015360Y039800D02*
Y040630D01*
X015410Y039750D02*
Y040630D01*
X015460Y039700D02*
Y040630D01*
X015510Y039650D02*
Y040630D01*
X015560Y039600D02*
Y040630D01*
X015610Y039550D02*
Y040630D01*
X015660Y039500D02*
Y040630D01*
X015710Y039450D02*
Y040630D01*
X015760Y039400D02*
Y040630D01*
X015810Y039350D02*
Y040630D01*
X015860Y039300D02*
Y040630D01*
X015910Y039510D02*
Y040630D01*
X015960Y039580D02*
Y040630D01*
X016010Y039620D02*
Y040630D01*
X016060Y039660D02*
Y040630D01*
X016110Y039680D02*
Y040630D01*
X016160Y039690D02*
Y040630D01*
X016210Y039690D02*
Y040630D01*
X016260Y039690D02*
Y040630D01*
X016310Y039670D02*
Y040630D01*
X016360Y039640D02*
Y040630D01*
X016410Y039610D02*
Y040630D01*
X016460Y039550D02*
Y040630D01*
X016510Y039460D02*
Y040630D01*
X016560Y039390D02*
Y040630D01*
X016610Y039390D02*
Y040630D01*
X016660Y039390D02*
Y040630D01*
X016710Y039390D02*
Y040630D01*
X016760Y039390D02*
Y040630D01*
X016810Y039390D02*
Y040630D01*
X016860Y039390D02*
Y040630D01*
X016910Y039390D02*
Y040630D01*
X016960Y039390D02*
Y040630D01*
X017010Y039390D02*
Y040630D01*
X017060Y039390D02*
Y040630D01*
X017110Y039390D02*
Y040630D01*
X017160Y039390D02*
Y040630D01*
X017210Y039390D02*
Y040630D01*
X017260Y039390D02*
Y040630D01*
X017310Y039390D02*
Y040630D01*
X017360Y039390D02*
Y040630D01*
X017410Y039390D02*
Y040630D01*
X017460Y039390D02*
Y040630D01*
X017510Y039390D02*
Y040630D01*
X017560Y039390D02*
Y040630D01*
X017610Y039390D02*
Y040630D01*
X017660Y039390D02*
Y040630D01*
X017710Y039390D02*
Y040630D01*
X017760Y039390D02*
Y040630D01*
X017810Y039390D02*
Y040630D01*
X017860Y039390D02*
Y040630D01*
X017910Y039390D02*
Y040630D01*
X017960Y039390D02*
Y040630D01*
X018010Y039390D02*
Y040630D01*
X018060Y039390D02*
Y040630D01*
X018110Y039390D02*
Y040630D01*
X018160Y039390D02*
Y040630D01*
X018210Y039390D02*
Y040630D01*
X018260Y039390D02*
Y040630D01*
X018310Y039390D02*
Y040630D01*
X018360Y039390D02*
Y040630D01*
X018410Y039390D02*
Y040630D01*
X018460Y039390D02*
Y040630D01*
X018510Y039390D02*
Y040630D01*
X018560Y039390D02*
Y040630D01*
X018610Y039390D02*
Y040630D01*
X018660Y039390D02*
Y040630D01*
X018710Y039390D02*
Y040630D01*
X018760Y039390D02*
Y040630D01*
X018810Y039390D02*
Y040630D01*
X018860Y039390D02*
Y040630D01*
X018910Y039390D02*
Y040630D01*
X018960Y039390D02*
Y040630D01*
X019010Y039390D02*
Y040630D01*
X019060Y039390D02*
Y040630D01*
X019110Y039380D02*
Y040630D01*
X019160Y039330D02*
Y040630D01*
X019210Y039280D02*
Y040630D01*
X019260Y039230D02*
Y040630D01*
X019310Y039180D02*
Y040630D01*
X019360Y034790D02*
Y040630D01*
X019410Y034790D02*
Y040630D01*
X019460Y034790D02*
Y040630D01*
X019510Y034790D02*
Y040630D01*
X019560Y034790D02*
Y040630D01*
X019610Y034790D02*
Y040630D01*
X019660Y034790D02*
Y040630D01*
X019710Y034790D02*
Y040630D01*
X019760Y034790D02*
Y040630D01*
X019810Y034790D02*
Y040630D01*
X019860Y034790D02*
Y040630D01*
X019910Y034790D02*
Y040630D01*
X019960Y034790D02*
Y040630D01*
X020010Y034790D02*
Y040630D01*
X020060Y034790D02*
Y040630D01*
X020110Y034770D02*
Y040630D01*
X020160Y034740D02*
Y040630D01*
X020210Y034710D02*
Y040630D01*
X020260Y034660D02*
Y040630D01*
X020310Y034610D02*
Y040630D01*
X020360Y034560D02*
Y040630D01*
X020410Y034510D02*
Y040630D01*
X020460Y034460D02*
Y040630D01*
X020510Y034410D02*
Y040630D01*
X020560Y034360D02*
Y040630D01*
X020610Y034310D02*
Y040630D01*
X020660Y034260D02*
Y040630D01*
X020710Y034210D02*
Y040630D01*
X020760Y030100D02*
Y030130D01*
Y034160D02*
Y040630D01*
X020810Y030050D02*
Y030170D01*
Y034100D02*
Y040630D01*
X020860Y030000D02*
Y030230D01*
Y034010D02*
Y040630D01*
X020910Y029950D02*
Y030320D01*
Y030590D02*
Y032250D01*
Y032510D02*
Y040630D01*
X020960Y029940D02*
Y040630D01*
X021010Y029940D02*
Y040630D01*
X021060Y029940D02*
Y040630D01*
X021110Y029940D02*
Y040630D01*
X021160Y029940D02*
Y040630D01*
X021210Y029940D02*
Y040630D01*
X021260Y029940D02*
Y040630D01*
X021310Y029940D02*
Y040630D01*
X021360Y029940D02*
Y040630D01*
X021410Y029940D02*
Y040630D01*
X021460Y029940D02*
Y032930D01*
Y033280D02*
Y040630D01*
X021510Y029940D02*
Y032850D01*
Y033360D02*
Y040630D01*
X021560Y029940D02*
Y032800D01*
Y033410D02*
Y040630D01*
X021610Y029940D02*
Y032760D01*
Y033450D02*
Y040630D01*
X021660Y029940D02*
Y032740D01*
Y033470D02*
Y040630D01*
X021710Y029940D02*
Y032720D01*
Y033490D02*
Y040630D01*
X021760Y029940D02*
Y032720D01*
Y033490D02*
Y040630D01*
X021810Y029940D02*
Y032720D01*
Y033490D02*
Y040630D01*
X021860Y029940D02*
Y032720D01*
Y033490D02*
Y040630D01*
X021910Y029940D02*
Y032730D01*
Y033480D02*
Y040630D01*
X021960Y029940D02*
Y032750D01*
Y033460D02*
Y040630D01*
X022010Y029940D02*
Y032780D01*
Y033430D02*
Y040630D01*
X022060Y029940D02*
Y032810D01*
Y033390D02*
Y040630D01*
X022110Y029940D02*
Y032810D01*
Y033390D02*
Y040630D01*
X022160Y029940D02*
Y032810D01*
Y033390D02*
Y040630D01*
X022210Y029940D02*
Y030630D01*
Y030980D02*
Y032530D01*
Y033390D02*
Y040630D01*
X022260Y029940D02*
Y030550D01*
Y033390D02*
Y040630D01*
X022310Y029940D02*
Y030500D01*
Y033390D02*
Y040630D01*
X022360Y029940D02*
Y030460D01*
Y033390D02*
Y040630D01*
X022410Y029940D02*
Y030440D01*
Y033390D02*
Y040630D01*
X022460Y029940D02*
Y030420D01*
Y033390D02*
Y040630D01*
X022510Y029940D02*
Y030420D01*
Y033390D02*
Y040630D01*
X022560Y029940D02*
Y030420D01*
Y033390D02*
Y040630D01*
X022610Y029940D02*
Y030420D01*
Y033390D02*
Y040630D01*
X022660Y029330D02*
Y029360D01*
Y029940D02*
Y030430D01*
Y033390D02*
Y040630D01*
X022710Y027420D02*
Y029360D01*
Y029940D02*
Y030450D01*
Y033390D02*
Y040630D01*
X022760Y027440D02*
Y029360D01*
Y029940D02*
Y030460D01*
Y033390D02*
Y040630D01*
X022810Y027440D02*
Y029360D01*
Y029950D02*
Y030460D01*
Y033380D02*
Y040630D01*
X022860Y027440D02*
Y029310D01*
Y030000D02*
Y030460D01*
Y033370D02*
Y040630D01*
X022910Y027440D02*
Y029290D01*
Y030020D02*
Y030460D01*
Y033340D02*
Y040630D01*
X022960Y027430D02*
Y029270D01*
Y030040D02*
Y030460D01*
Y033300D02*
Y040630D01*
X023010Y027410D02*
Y029270D01*
Y030040D02*
Y030460D01*
Y033250D02*
Y040630D01*
X023060Y027390D02*
Y029270D01*
Y030040D02*
Y030460D01*
Y033200D02*
Y040630D01*
X023110Y027390D02*
Y029270D01*
Y030040D02*
Y030460D01*
Y033150D02*
Y040630D01*
X023160Y027390D02*
Y029280D01*
Y030030D02*
Y030460D01*
Y033100D02*
Y040630D01*
X023210Y027390D02*
Y029300D01*
Y030010D02*
Y030460D01*
Y033050D02*
Y040630D01*
X023260Y024780D02*
Y024810D01*
Y027390D02*
Y029330D01*
Y029980D02*
Y030460D01*
Y033000D02*
Y040630D01*
X023310Y024760D02*
Y024860D01*
Y027390D02*
Y029370D01*
Y029940D02*
Y030460D01*
Y032950D02*
Y040630D01*
X023360Y024730D02*
Y024910D01*
Y027390D02*
Y029430D01*
Y029880D02*
Y030460D01*
Y032900D02*
Y040630D01*
X023410Y024690D02*
Y024960D01*
Y027390D02*
Y029520D01*
Y029790D02*
Y030460D01*
Y032850D02*
Y040630D01*
X023460Y024630D02*
Y025010D01*
Y027390D02*
Y030460D01*
Y032800D02*
Y040630D01*
X023510Y024540D02*
Y025060D01*
Y027390D02*
Y030460D01*
Y032750D02*
Y040630D01*
X023560Y024400D02*
Y025110D01*
Y027390D02*
Y030460D01*
Y032700D02*
Y040630D01*
X023610Y024350D02*
Y025160D01*
Y027390D02*
Y030460D01*
Y032650D02*
Y040630D01*
X023660Y024300D02*
Y025170D01*
Y027390D02*
Y030460D01*
Y032600D02*
Y040630D01*
X023710Y024250D02*
Y025180D01*
Y027390D02*
Y030460D01*
Y032550D02*
Y040630D01*
X023760Y024200D02*
Y025200D01*
Y027390D02*
Y030460D01*
Y032500D02*
Y040630D01*
X023810Y024150D02*
Y025230D01*
Y027390D02*
Y030460D01*
Y032450D02*
Y040630D01*
X023860Y024100D02*
Y025270D01*
Y027400D02*
Y030460D01*
Y032400D02*
Y040630D01*
X023910Y024050D02*
Y025330D01*
Y027450D02*
Y030460D01*
Y032350D02*
Y040630D01*
X023960Y024110D02*
Y025420D01*
Y025660D02*
Y025650D01*
Y027500D02*
Y030460D01*
Y032270D02*
Y040630D01*
X024010Y024210D02*
Y025660D01*
Y027550D02*
Y030460D01*
Y031690D02*
Y040630D01*
X024060Y024260D02*
Y025660D01*
Y027600D02*
Y030460D01*
Y031690D02*
Y040630D01*
X024110Y024290D02*
Y025660D01*
Y027650D02*
Y030460D01*
Y031690D02*
Y040630D01*
X024160Y024310D02*
Y025610D01*
Y027700D02*
Y030410D01*
Y031690D02*
Y040630D01*
X024210Y023740D02*
Y023730D01*
Y024060D02*
Y025560D01*
Y027750D02*
Y030360D01*
Y031690D02*
Y040630D01*
X024260Y023700D02*
Y023750D01*
Y024010D02*
Y025510D01*
Y027800D02*
Y030310D01*
Y031690D02*
Y040630D01*
X024310Y023650D02*
Y023760D01*
Y024010D02*
Y025460D01*
Y027850D02*
Y029430D01*
Y029780D02*
Y030260D01*
Y031690D02*
Y040630D01*
X024360Y023600D02*
Y023790D01*
Y024010D02*
Y025410D01*
Y031690D02*
Y040630D01*
X024410Y023550D02*
Y023820D01*
Y024010D02*
Y025360D01*
Y031690D02*
Y040630D01*
X024460Y023500D02*
Y023890D01*
Y024010D02*
Y025310D01*
Y026260D02*
D01*
Y031690D02*
Y040630D01*
X024510Y023450D02*
Y025260D01*
Y026210D02*
Y026270D01*
Y031690D02*
Y040630D01*
X024560Y023400D02*
Y025210D01*
Y026160D02*
Y026280D01*
Y031690D02*
Y040630D01*
X024610Y023350D02*
Y025160D01*
Y026110D02*
Y026290D01*
Y031680D02*
Y040630D01*
X024660Y023300D02*
Y025110D01*
Y026060D02*
Y026320D01*
Y031670D02*
Y040630D01*
X024710Y023250D02*
Y025060D01*
Y026010D02*
Y026360D01*
Y031640D02*
Y040630D01*
X024760Y023200D02*
Y024230D01*
Y024580D02*
Y025010D01*
Y025960D02*
Y026410D01*
Y031600D02*
Y040630D01*
X024810Y023150D02*
Y024150D01*
Y025910D02*
Y026460D01*
Y031550D02*
Y040630D01*
X024860Y023100D02*
Y024100D01*
Y025860D02*
Y026510D01*
Y031500D02*
Y040630D01*
X024910Y023050D02*
Y024060D01*
Y025810D02*
Y026560D01*
Y031450D02*
Y040630D01*
X024960Y023000D02*
Y024040D01*
Y025760D02*
Y026610D01*
Y031400D02*
Y032230D01*
Y032580D02*
Y040630D01*
X025010Y022950D02*
Y024020D01*
Y025710D02*
Y026660D01*
Y031360D02*
Y032160D01*
Y032660D02*
Y040630D01*
X025060Y022900D02*
Y024020D01*
Y025660D02*
Y026710D01*
Y032710D02*
Y040630D01*
X025110Y022850D02*
Y024020D01*
Y025610D02*
Y026760D01*
Y032750D02*
Y040630D01*
X025160Y022800D02*
Y024020D01*
Y025560D02*
Y026810D01*
Y032770D02*
Y040630D01*
X025210Y022750D02*
Y024030D01*
Y025510D02*
Y026890D01*
Y032790D02*
Y040630D01*
X025260Y022740D02*
Y024050D01*
Y025460D02*
Y028920D01*
Y032790D02*
Y040630D01*
X025310Y022740D02*
Y024080D01*
Y025410D02*
Y028920D01*
Y032790D02*
Y040630D01*
X025360Y022740D02*
Y024120D01*
Y025350D02*
Y028920D01*
Y032790D02*
Y040630D01*
X025410Y022740D02*
Y024180D01*
Y025260D02*
Y028930D01*
Y032780D02*
Y040630D01*
X025460Y022740D02*
Y024270D01*
Y024540D02*
Y028950D01*
Y032760D02*
Y040630D01*
X025510Y022740D02*
Y028980D01*
Y032730D02*
Y040630D01*
X025560Y022740D02*
Y029020D01*
Y032690D02*
Y040630D01*
X025610Y022740D02*
Y029080D01*
Y029530D02*
Y032180D01*
Y032630D02*
Y040630D01*
X025660Y022740D02*
Y029170D01*
Y029440D02*
Y032270D01*
Y032540D02*
Y040630D01*
X025710Y022740D02*
Y040630D01*
X025760Y022740D02*
Y040630D01*
X025810Y022740D02*
Y040630D01*
X025860Y022740D02*
Y040630D01*
X025910Y022760D02*
Y040630D01*
X025960Y022930D02*
Y040630D01*
X026010Y023010D02*
Y040630D01*
X026060Y023060D02*
Y036820D01*
X026110Y023100D02*
Y036760D01*
X026160Y023120D02*
Y036720D01*
X026210Y023140D02*
Y036700D01*
X026260Y023140D02*
Y036690D01*
X026310Y023140D02*
Y036680D01*
X026360Y023140D02*
Y036680D01*
X026410Y023130D02*
Y036680D01*
X026460Y023110D02*
Y036680D01*
X026510Y023080D02*
Y036680D01*
X026560Y023040D02*
Y036680D01*
X026610Y022980D02*
Y036680D01*
X026660Y022890D02*
Y036680D01*
X026710Y022890D02*
Y036680D01*
X026760Y022890D02*
Y036680D01*
X026810Y022890D02*
Y036680D01*
X026860Y022890D02*
Y036680D01*
X026910Y022890D02*
Y036680D01*
X026960Y022890D02*
Y036680D01*
X027010Y022890D02*
Y036680D01*
X027060Y022890D02*
Y036680D01*
X027110Y022890D02*
Y024350D01*
Y025210D02*
Y036680D01*
X027160Y022890D02*
Y024290D01*
Y025280D02*
Y036680D01*
X027210Y022910D02*
Y024240D01*
Y025330D02*
Y036680D01*
X027260Y023130D02*
Y023680D01*
Y024030D02*
Y024190D01*
Y025380D02*
Y036680D01*
X027310Y023200D02*
Y023610D01*
Y024100D02*
Y024140D01*
Y025430D02*
Y036680D01*
X027360Y025480D02*
Y036680D01*
X027410Y025800D02*
Y026410D01*
Y026800D02*
Y027410D01*
Y027800D02*
Y028410D01*
Y028800D02*
Y029410D01*
Y029800D02*
Y030410D01*
Y030800D02*
Y031410D01*
Y031800D02*
Y032410D01*
Y032800D02*
Y036680D01*
X027460Y025890D02*
Y026320D01*
Y026890D02*
Y027320D01*
Y027890D02*
Y028320D01*
Y028890D02*
Y029320D01*
Y029890D02*
Y030320D01*
Y030890D02*
Y031320D01*
Y031890D02*
Y032320D01*
Y032890D02*
Y036680D01*
X027510Y025960D02*
Y026250D01*
Y026960D02*
Y027250D01*
Y027960D02*
Y028250D01*
Y028960D02*
Y029250D01*
Y029960D02*
Y030250D01*
Y030960D02*
Y031250D01*
Y031960D02*
Y032250D01*
Y032960D02*
Y036680D01*
X027560Y026010D02*
Y026200D01*
Y027010D02*
Y027200D01*
Y028010D02*
Y028200D01*
Y029010D02*
Y029200D01*
Y030010D02*
Y030200D01*
Y031010D02*
Y031200D01*
Y032010D02*
Y032200D01*
Y033010D02*
Y036680D01*
X027610Y026040D02*
Y026170D01*
Y027040D02*
Y027170D01*
Y028040D02*
Y028170D01*
Y029040D02*
Y029170D01*
Y030040D02*
Y030170D01*
Y031040D02*
Y031170D01*
Y032040D02*
Y032170D01*
Y033040D02*
Y036680D01*
X027660Y026080D02*
Y026130D01*
Y027080D02*
Y027130D01*
Y028080D02*
Y028130D01*
Y029080D02*
Y029130D01*
Y030080D02*
Y030130D01*
Y031080D02*
Y031130D01*
Y032080D02*
Y032130D01*
Y033080D02*
Y036680D01*
X027710Y026100D02*
Y026110D01*
Y027100D02*
Y027110D01*
Y028100D02*
Y028110D01*
Y029100D02*
Y029110D01*
Y030100D02*
Y030110D01*
Y031100D02*
Y031110D01*
Y032100D02*
Y032110D01*
Y033100D02*
Y036680D01*
X027760Y033130D02*
Y036680D01*
X027810Y033130D02*
Y036680D01*
X027860Y033140D02*
Y036680D01*
X027910Y033140D02*
Y036680D01*
X027960Y033130D02*
Y036680D01*
X028010Y033130D02*
Y036680D01*
X028060Y033180D02*
Y036680D01*
X028110Y033230D02*
Y036680D01*
X028160Y033280D02*
Y036680D01*
X028210Y033330D02*
Y036680D01*
X028260Y033370D02*
Y036680D01*
X028310Y033410D02*
Y036680D01*
X028360Y033430D02*
Y036680D01*
X028410Y033440D02*
Y036680D01*
X028460Y033440D02*
Y036680D01*
X028510Y033580D02*
Y036680D01*
X028560Y033580D02*
Y036680D01*
X028610Y033580D02*
Y036680D01*
X028660Y033580D02*
Y036680D01*
X028710Y033580D02*
Y036680D01*
X028760Y033580D02*
Y036680D01*
X028810Y033580D02*
Y036680D01*
X028860Y033580D02*
Y036680D01*
X028910Y033580D02*
Y036680D01*
X028960Y033580D02*
Y036680D01*
X029010Y033580D02*
Y036680D01*
X029060Y033580D02*
Y036680D01*
X029110Y033580D02*
Y036680D01*
X029160Y033580D02*
Y036680D01*
X029210Y033580D02*
Y036680D01*
X029260Y033580D02*
Y036680D01*
X029310Y033440D02*
Y033490D01*
Y033580D02*
Y036680D01*
X029360Y033440D02*
Y036680D01*
X029410Y033440D02*
Y036680D01*
X029460Y033440D02*
Y036680D01*
X029510Y033440D02*
Y036680D01*
X029560Y033440D02*
Y035660D01*
Y036150D02*
Y036680D01*
X029610Y033440D02*
Y035520D01*
Y036290D02*
Y036680D01*
X029660Y033440D02*
Y035420D01*
Y036390D02*
Y036680D01*
X029710Y033440D02*
Y035360D01*
Y036450D02*
Y036680D01*
X029760Y033440D02*
Y035300D01*
Y036510D02*
Y036680D01*
X029810Y033440D02*
Y035250D01*
Y036560D02*
Y036680D01*
X029860Y033440D02*
Y035210D01*
Y036600D02*
Y036680D01*
X029910Y033440D02*
Y035160D01*
Y036650D02*
Y036680D01*
X029960Y033440D02*
Y035140D01*
Y036670D02*
Y036680D01*
X030010Y033440D02*
Y035110D01*
X030060Y033440D02*
Y035080D01*
X030110Y033440D02*
Y035070D01*
X030160Y033440D02*
Y035060D01*
X030210Y033440D02*
Y035040D01*
X030260Y033440D02*
Y035030D01*
X030310Y033440D02*
Y035030D01*
X030360Y033440D02*
Y035020D01*
X030410Y033440D02*
Y035020D01*
X030460Y033440D02*
Y035020D01*
X030510Y033440D02*
Y035030D01*
X030560Y033440D02*
Y035030D01*
X030610Y033440D02*
Y035050D01*
X030660Y033440D02*
Y035060D01*
X030710Y033440D02*
Y035080D01*
X030760Y033440D02*
Y035100D01*
X030810Y033440D02*
Y035120D01*
X030860Y033430D02*
Y035150D01*
X030910Y033420D02*
Y035180D01*
X030960Y033390D02*
Y035220D01*
X031010Y033350D02*
Y035270D01*
X031060Y033300D02*
Y035320D01*
X031110Y033250D02*
Y035380D01*
X019175Y039089D02*
Y034510D01*
X018839Y034175*
X017460*
X016425Y035210*
Y039225*
X019039*
X019175Y039089*
G54D26*
X019125Y039068D02*
Y034531D01*
X018818Y034225*
X017481*
X016475Y035231*
Y039175*
X019018*
X019125Y039068*
G54D24*
X019025Y039027D02*
Y034572D01*
X018777Y034325*
X017522*
X016575Y035272*
Y039075*
X018977*
X019025Y039027*
G54D64*
X018825Y038944D02*
Y034655D01*
X018694Y034525*
X017605*
X016775Y035355*
Y038875*
X018894*
X018825Y038944*
X016970Y035230D02*
Y038820D01*
X017370Y034830D02*
Y038820D01*
X017770Y034530D02*
Y038820D01*
X018170Y034530D02*
Y038820D01*
X018570Y034530D02*
Y038820D01*
G54D37*
X017772Y033335D02*
Y024698D01*
X017784Y024602*
X017822Y024510*
X017881Y024432*
X017882Y024432*
X017875Y024403*
X017888Y024412*
X017825Y024425*
Y024175*
X018075*
X018062Y024238*
X018053Y024225*
X018083Y024232*
X018433Y023881*
X018510Y023822*
X018602Y023784*
X018700Y023771*
X018797Y023784*
X018889Y023822*
X018889Y023822*
X019161*
X019165Y023807*
X019151Y023797*
X019091Y023707*
X019074Y023625*
X019625*
X019608Y023707*
X019548Y023797*
X019534Y023807*
X019538Y023822*
X020701*
X020784Y023833*
X020863Y023866*
X020930Y023917*
X021132Y024119*
X021183Y024186*
X021216Y024265*
X021228Y024348*
Y024560*
X021227Y024560*
X021265Y024652*
X021278Y024750*
X021265Y024847*
X021227Y024939*
X021167Y025017*
X021089Y025077*
X020997Y025115*
X020900Y025128*
X020802Y025115*
X020710Y025077*
X020632Y025017*
X020572Y024939*
X020553Y024892*
X020532Y024893*
X020536Y024892*
X020505Y024966*
X020445Y025045*
X020366Y025105*
X020275Y025143*
X020280Y025142*
Y026737*
X020308Y026780*
X020330Y026885*
Y027016*
X020324Y027014*
X020348Y027020*
X020410Y026972*
X020502Y026934*
X020600Y026921*
X020697Y026934*
X020789Y026972*
X020851Y027020*
X021533*
X021770Y026783*
Y022767*
X021752Y022765*
X021660Y022727*
X021582Y022667*
X021522Y022589*
X021484Y022497*
X021471Y022400*
X021484Y022302*
X021522Y022210*
X021582Y022132*
X021660Y022072*
X021752Y022034*
X021850Y022021*
X021947Y022034*
X022039Y022072*
X022117Y022132*
X022177Y022210*
X022215Y022302*
X022225Y022379*
X022249Y022404*
X022308Y022492*
X022330Y022597*
Y024335*
X022361Y024357*
X022421Y024349*
X022519Y024362*
X022551Y024375*
X022570Y024362*
Y023297*
X022591Y023192*
X022650Y023104*
X023020Y022733*
Y022387*
X022999Y022370*
X022975Y022374*
Y022100*
Y021825*
X022999Y021829*
X023020Y021812*
Y021605*
X022744Y021330*
X021550*
X021445Y021309*
X021357Y021249*
X021191Y021085*
X020702*
Y021547*
X020685Y021632*
X020634Y021706*
X020560Y021757*
X020475Y021774*
X019880*
X019795Y021757*
X019719Y021706*
X019670Y021632*
X019654Y021547*
Y021085*
X019585*
X019572Y021103*
X019587Y021140*
X019598Y021225*
X019178*
X018757*
X018768Y021140*
X018783Y021103*
X018770Y021085*
X018693*
X018680Y021104*
X018684Y021114*
X018703Y021250*
X018684Y021385*
X018632Y021512*
X018548Y021620*
X018440Y021704*
X018313Y021757*
X018178Y021775*
X018042Y021757*
X017915Y021704*
X017807Y021620*
X017723Y021512*
X017670Y021385*
X017652Y021250*
X017670Y021114*
X017675Y021103*
X017662Y021085*
X016802*
X016697Y021063*
X016608Y021004*
X016445Y020841*
X016430Y020847*
Y021896*
X017349Y022817*
X017408Y022905*
X017430Y023010*
Y028502*
X017450Y028519*
X017450Y028519*
X017557Y028541*
X017647Y028601*
X017709Y028692*
X017725Y028775*
X017475*
Y028825*
X017725*
X017709Y028907*
X017647Y028998*
X017557Y029058*
X017450Y029080*
X017450Y029080*
X017430Y029097*
Y033282*
X017457Y033301*
X017475Y033293*
X017561Y033282*
X017645Y033293*
X017724Y033327*
X017753Y033349*
X017744*
X017772Y033335*
X016450Y020860D02*
Y021920D01*
X016500Y020910D02*
Y021970D01*
X016550Y020960D02*
Y022020D01*
X016600Y021010D02*
Y022070D01*
X016650Y021040D02*
Y022120D01*
X016700Y021080D02*
Y022170D01*
X016750Y021090D02*
Y022220D01*
X016800Y021090D02*
Y022270D01*
X016850Y021090D02*
Y022320D01*
X016900Y021090D02*
Y022370D01*
X016950Y021090D02*
Y022420D01*
X017000Y021090D02*
Y022470D01*
X017050Y021090D02*
Y022520D01*
X017100Y021090D02*
Y022570D01*
X017150Y021090D02*
Y022620D01*
X017200Y021090D02*
Y022670D01*
X017250Y021090D02*
Y022720D01*
X017300Y021090D02*
Y022770D01*
X017350Y021090D02*
Y022820D01*
X017400Y021090D02*
Y022890D01*
X017450Y021090D02*
Y028520D01*
Y029090D02*
Y033290D01*
X017500Y021090D02*
Y028520D01*
Y028780D02*
Y028810D01*
Y029090D02*
Y033280D01*
X017550Y021090D02*
Y028530D01*
Y028780D02*
Y028810D01*
Y029080D02*
Y033280D01*
X017600Y021090D02*
Y028560D01*
Y028780D02*
Y028810D01*
Y029050D02*
Y033280D01*
X017650Y021090D02*
Y021240D01*
Y021270D02*
Y028600D01*
Y028780D02*
Y028810D01*
Y029010D02*
Y033290D01*
X017700Y021480D02*
Y028670D01*
Y028780D02*
Y028810D01*
Y028940D02*
Y033310D01*
X017750Y021560D02*
Y033350D01*
X017800Y021620D02*
Y024550D01*
X017850Y021660D02*
Y024160D01*
Y024440D02*
Y024460D01*
X017900Y021700D02*
Y024160D01*
X017950Y021730D02*
Y024160D01*
X018000Y021760D02*
Y024160D01*
X018050Y021780D02*
Y024160D01*
Y024240D02*
Y024230D01*
X018100Y021780D02*
Y024200D01*
X018150Y021790D02*
Y024150D01*
X018200Y021790D02*
Y024100D01*
X018250Y021780D02*
Y024050D01*
X018300Y021780D02*
Y024000D01*
X018350Y021760D02*
Y023950D01*
X018400Y021730D02*
Y023900D01*
X018450Y021710D02*
Y023860D01*
X018500Y021670D02*
Y023820D01*
X018550Y021630D02*
Y023800D01*
X018600Y021570D02*
Y023770D01*
X018650Y021480D02*
Y023770D01*
X018700Y021090D02*
Y023770D01*
X018750Y021090D02*
Y023770D01*
X018800Y021230D02*
Y023780D01*
X018850Y021230D02*
Y023800D01*
X018900Y021230D02*
Y023810D01*
X018950Y021230D02*
Y023810D01*
X019000Y021230D02*
Y023810D01*
X019050Y021230D02*
Y023810D01*
X019100Y021230D02*
Y023610D01*
Y023740D02*
Y023810D01*
X019150Y021230D02*
Y023610D01*
Y023820D02*
Y023810D01*
X019200Y021230D02*
Y023610D01*
X019250Y021230D02*
Y023610D01*
X019300Y021230D02*
Y023610D01*
X019350Y021230D02*
Y023610D01*
X019400Y021230D02*
Y023610D01*
X019450Y021230D02*
Y023610D01*
X019500Y021230D02*
Y023610D01*
X019550Y021230D02*
Y023610D01*
Y023810D02*
D01*
X019600Y021090D02*
Y023610D01*
Y023740D02*
Y023810D01*
X019650Y021570D02*
Y023810D01*
X019700Y021690D02*
Y023810D01*
X019750Y021740D02*
Y023810D01*
X019800Y021780D02*
Y023810D01*
X019850Y021780D02*
Y023810D01*
X019900Y021780D02*
Y023810D01*
X019950Y021780D02*
Y023810D01*
X020000Y021780D02*
Y023810D01*
X020050Y021780D02*
Y023810D01*
X020100Y021780D02*
Y023810D01*
X020150Y021780D02*
Y023810D01*
X020200Y021780D02*
Y023810D01*
X020250Y021780D02*
Y023810D01*
X020300Y021780D02*
Y023810D01*
Y025150D02*
Y026760D01*
X020350Y021780D02*
Y023810D01*
Y025130D02*
Y027010D01*
X020400Y021780D02*
Y023810D01*
Y025100D02*
Y026970D01*
X020450Y021780D02*
Y023810D01*
Y025060D02*
Y026950D01*
X020500Y021780D02*
Y023810D01*
Y025000D02*
Y026920D01*
X020550Y021780D02*
Y023810D01*
Y024910D02*
Y026920D01*
X020600Y021750D02*
Y023810D01*
Y025000D02*
Y026920D01*
X020650Y021700D02*
Y023810D01*
Y025050D02*
Y026920D01*
X020700Y021090D02*
Y023820D01*
Y025090D02*
Y026930D01*
X020750Y021090D02*
Y023820D01*
Y025110D02*
Y026950D01*
X020800Y021090D02*
Y023840D01*
Y025140D02*
Y026970D01*
X020850Y021090D02*
Y023860D01*
Y025140D02*
Y027010D01*
X020900Y021090D02*
Y023890D01*
Y025140D02*
Y027010D01*
X020950Y021090D02*
Y023940D01*
Y025140D02*
Y027010D01*
X021000Y021090D02*
Y023990D01*
Y025130D02*
Y027010D01*
X021050Y021090D02*
Y024040D01*
Y025110D02*
Y027010D01*
X021100Y021090D02*
Y024090D01*
Y025090D02*
Y027010D01*
X021150Y021090D02*
Y024140D01*
Y025050D02*
Y027010D01*
X021200Y021110D02*
Y024230D01*
Y024990D02*
Y027010D01*
X021250Y021160D02*
Y024600D01*
Y024910D02*
Y027010D01*
X021300Y021210D02*
Y027010D01*
X021350Y021260D02*
Y027010D01*
X021400Y021290D02*
Y027010D01*
X021450Y021330D02*
Y027010D01*
X021500Y021340D02*
Y022250D01*
Y022560D02*
Y027010D01*
X021550Y021340D02*
Y022160D01*
Y022650D02*
Y026990D01*
X021600Y021340D02*
Y022110D01*
Y022700D02*
Y026940D01*
X021650Y021340D02*
Y022070D01*
Y022740D02*
Y026890D01*
X021700Y021340D02*
Y022050D01*
Y022760D02*
Y026840D01*
X021750Y021340D02*
Y022020D01*
Y022780D02*
Y026790D01*
X021800Y021340D02*
Y022020D01*
X021850Y021340D02*
Y022020D01*
X021900Y021340D02*
Y022020D01*
X021950Y021340D02*
Y022030D01*
X022000Y021340D02*
Y022050D01*
X022050Y021340D02*
Y022070D01*
X022100Y021340D02*
Y022110D01*
X022150Y021340D02*
Y022170D01*
X022200Y021340D02*
Y022250D01*
X022250Y021340D02*
Y022400D01*
X022300Y021340D02*
Y022470D01*
X022350Y021340D02*
Y024350D01*
X022400Y021340D02*
Y024350D01*
X022450Y021340D02*
Y024350D01*
X022500Y021340D02*
Y024350D01*
X022550Y021340D02*
Y024370D01*
X022600Y021340D02*
Y023170D01*
X022650Y021340D02*
Y023090D01*
X022700Y021340D02*
Y023040D01*
X022750Y021360D02*
Y022990D01*
X022800Y021410D02*
Y022940D01*
X022850Y021460D02*
Y022890D01*
X022900Y021510D02*
Y022840D01*
X022950Y021560D02*
Y022790D01*
X023000Y021610D02*
Y021820D01*
Y022390D02*
Y022740D01*
X019470Y030383D02*
Y028324D01*
X019448Y028310*
X019448Y028310*
X019375Y028325*
Y028050*
Y027774*
X019448Y027789*
X019448Y027789*
X019470Y027775*
Y027366*
X018916Y026811*
X018900Y026817*
Y028503*
X018918Y028512*
X018926Y028506*
X019010Y028489*
Y028765*
Y029040*
X018927Y029024*
X018918Y029018*
X018900Y029028*
Y029922*
X019051*
X019147Y029934*
X019239Y029972*
X019317Y030032*
X019377Y030110*
X019415Y030202*
X019428Y030300*
X019415Y030397*
X019396Y030444*
X019404Y030449*
X019470Y030383*
X018920Y026830D02*
Y028500D01*
Y029030D02*
Y029910D01*
X018970Y026880D02*
Y028490D01*
Y029050D02*
Y029910D01*
X019020Y026930D02*
Y029910D01*
X019070Y026980D02*
Y029920D01*
X019120Y027030D02*
Y029920D01*
X019170Y027080D02*
Y029930D01*
X019220Y027130D02*
Y029960D01*
X019270Y027180D02*
Y029990D01*
X019320Y027230D02*
Y030030D01*
X019370Y027280D02*
Y027770D01*
Y028340D02*
Y030090D01*
X019420Y027330D02*
Y027780D01*
Y028330D02*
Y030200D01*
Y030410D02*
Y030420D01*
%LNde-260124-2*%
%LPC*%
G36*
X026300Y028850D02*
X026105D01*
X026114Y028802*
X026170Y028720*
X026252Y028665*
X026300Y028655*
Y028850*
G37*
G36*
X023245Y028800D02*
X023050D01*
Y028605*
X023098Y028614*
X023180Y028670*
X023235Y028752*
X023245Y028800*
G37*
G36*
X022950D02*
X022755D01*
X022764Y028752*
X022820Y028670*
X022902Y028614*
X022950Y028605*
Y028800*
G37*
G36*
X026595Y028850D02*
X026400D01*
Y028655*
X026448Y028665*
X026530Y028720*
X026586Y028802*
X026595Y028850*
G37*
G36*
X026300Y029145D02*
X026252Y029135D01*
X026170Y029080*
X026114Y028998*
X026105Y028950*
X026300*
Y029145*
G37*
G36*
X026400D02*
Y028950D01*
X026595*
X026586Y028998*
X026530Y029080*
X026448Y029135*
X026400Y029145*
G37*
G36*
X023700Y029600D02*
X023505D01*
X023514Y029552*
X023570Y029470*
X023652Y029415*
X023700Y029405*
Y029600*
G37*
G36*
X022950Y029095D02*
X022902Y029086D01*
X022820Y029030*
X022764Y028948*
X022755Y028900*
X022950*
Y029095*
G37*
G36*
X023050D02*
Y028900D01*
X023245*
X023235Y028948*
X023180Y029030*
X023098Y029086*
X023050Y029095*
G37*
G36*
X024275Y024270D02*
Y024075D01*
X024470*
X024460Y024123*
X024405Y024205*
X024323Y024260*
X024275Y024270*
G37*
G36*
X025090Y037766D02*
X024550D01*
Y037226*
X024616Y037232*
X024728Y037266*
X024831Y037321*
X024921Y037395*
X024995Y037485*
X025050Y037588*
X025084Y037700*
X025090Y037766*
G37*
G36*
X024450Y038406D02*
X024384Y038399D01*
X024272Y038365*
X024169Y038310*
X024079Y038236*
X024005Y038146*
X023950Y038043*
X023916Y037932*
X023910Y037866*
X024450*
Y038406*
G37*
G36*
X024550D02*
Y037866D01*
X025090*
X025084Y037932*
X025050Y038043*
X024995Y038146*
X024921Y038236*
X024831Y038310*
X024728Y038365*
X024616Y038399*
X024550Y038406*
G37*
G36*
X024450Y037766D02*
X023910D01*
X023916Y037700*
X023950Y037588*
X024005Y037485*
X024079Y037395*
X024169Y037321*
X024272Y037266*
X024384Y037232*
X024450Y037226*
Y037766*
G37*
G36*
X025816Y035813D02*
X025284D01*
X025206Y035798*
X025140Y035754*
X025096Y035687*
X025080Y035609*
Y035078*
X025096Y035000*
X025140Y034934*
X025206Y034890*
X025282Y034875*
X025290Y034862*
X025302Y034827*
X025289Y034817*
X025231Y034741*
X025194Y034652*
X025188Y034606*
X025550*
X025912*
X025906Y034652*
X025869Y034741*
X025811Y034817*
X025798Y034827*
X025810Y034862*
X025818Y034875*
X025894Y034890*
X025960Y034934*
X026004Y035000*
X026020Y035078*
Y035609*
X026004Y035687*
X025960Y035754*
X025894Y035798*
X025816Y035813*
G37*
G36*
X019900Y036850D02*
X019705D01*
X019714Y036802*
X019770Y036720*
X019852Y036665*
X019900Y036655*
Y036850*
G37*
G36*
X021195D02*
X021000D01*
Y036655*
X021048Y036665*
X021130Y036720*
X021186Y036802*
X021195Y036850*
G37*
G36*
X020900Y038945D02*
X020852Y038935D01*
X020770Y038880*
X020714Y038798*
X020705Y038750*
X020900*
Y038945*
G37*
G36*
X021000D02*
Y038750D01*
X021195*
X021186Y038798*
X021130Y038880*
X021048Y038935*
X021000Y038945*
G37*
G36*
X024500Y040480D02*
X024364Y040466D01*
X024234Y040427*
X024114Y040363*
X024008Y040276*
X023922Y040171*
X023857Y040050*
X023818Y039920*
X023805Y039784*
X023818Y039649*
X023857Y039518*
X023922Y039398*
X024008Y039292*
X024114Y039206*
X024234Y039142*
X024364Y039102*
X024500Y039089*
X024636Y039102*
X024766Y039142*
X024886Y039206*
X024992Y039292*
X025078Y039398*
X025143Y039518*
X025182Y039649*
X025195Y039784*
X025182Y039920*
X025143Y040050*
X025078Y040171*
X024992Y040276*
X024886Y040363*
X024766Y040427*
X024636Y040466*
X024500Y040480*
G37*
G36*
X021195Y038650D02*
X020705D01*
X020714Y038602*
X020770Y038520*
X020799Y038500*
Y038450*
X020770Y038430*
X020714Y038348*
X020705Y038300*
X021195*
X021186Y038348*
X021130Y038430*
X021101Y038450*
Y038500*
X021130Y038520*
X021186Y038602*
X021195Y038650*
G37*
G36*
Y038200D02*
X020705D01*
X020714Y038152*
X020770Y038070*
X020799Y038050*
Y038000*
X020770Y037980*
X020721Y037907*
X020683Y037901*
X020664Y037902*
X020633Y037950*
X020550Y038005*
X020502Y038015*
Y037770*
X020402*
Y038015*
X020355Y038005*
X020272Y037950*
X020237Y037897*
X020212*
X020181Y037904*
X020130Y037980*
X020101Y038000*
Y038050*
X020130Y038070*
X020185Y038152*
X020195Y038200*
X019705*
X019714Y038152*
X019770Y038070*
X019799Y038050*
Y038000*
X019770Y037980*
X019714Y037898*
X019705Y037850*
X019950*
Y037750*
X019705*
X019714Y037702*
X019770Y037620*
X019799Y037600*
Y037550*
X019770Y037530*
X019714Y037448*
X019705Y037400*
X019950*
Y037300*
X019705*
X019714Y037252*
X019770Y037170*
X019799Y037150*
Y037100*
X019770Y037080*
X019714Y036998*
X019705Y036950*
X019950*
Y036900*
X020000*
Y036655*
X020048Y036665*
X020130Y036720*
X020172Y036782*
X020228*
X020270Y036720*
X020352Y036665*
X020400Y036655*
Y036900*
X020500*
Y036655*
X020548Y036665*
X020630Y036720*
X020672Y036782*
X020728*
X020770Y036720*
X020852Y036665*
X020900Y036655*
Y036900*
X020950*
Y036950*
X021195*
X021186Y036998*
X021130Y037080*
X021101Y037100*
Y037150*
X021130Y037170*
X021186Y037252*
X021195Y037300*
X020950*
Y037400*
X021195*
X021186Y037448*
X021130Y037530*
X021101Y037550*
Y037600*
X021130Y037620*
X021186Y037702*
X021195Y037750*
X020950*
Y037850*
X021195*
X021186Y037898*
X021130Y037980*
X021101Y038000*
Y038050*
X021130Y038070*
X021186Y038152*
X021195Y038200*
G37*
G36*
X019900Y038495D02*
X019852Y038486D01*
X019770Y038430*
X019714Y038348*
X019705Y038300*
X019900*
Y038495*
G37*
G36*
X020000D02*
Y038300D01*
X020195*
X020185Y038348*
X020130Y038430*
X020048Y038486*
X020000Y038495*
G37*
G36*
X028292Y033550D02*
X027950D01*
Y033208*
X028003Y033215*
X028099Y033255*
X028182Y033318*
X028245Y033401*
X028285Y033497*
X028292Y033550*
G37*
G36*
X027850Y033992D02*
X027797Y033985D01*
X027701Y033945*
X027618Y033882*
X027555Y033799*
X027515Y033703*
X027508Y033650*
X027850*
Y033992*
G37*
G36*
X028850D02*
X028797Y033985D01*
X028701Y033945*
X028618Y033882*
X028555Y033799*
X028515Y033703*
X028508Y033650*
X028850*
Y033992*
G37*
G36*
X027850Y033550D02*
X027508D01*
X027515Y033497*
X027555Y033401*
X027618Y033318*
X027701Y033255*
X027797Y033215*
X027850Y033208*
Y033550*
G37*
G36*
X023995Y029600D02*
X023800D01*
Y029405*
X023848Y029415*
X023930Y029470*
X023986Y029552*
X023995Y029600*
G37*
G36*
X023700Y029895D02*
X023652Y029885D01*
X023570Y029830*
X023514Y029748*
X023505Y029700*
X023700*
Y029895*
G37*
G36*
X023800D02*
Y029700D01*
X023995*
X023986Y029748*
X023930Y029830*
X023848Y029885*
X023800Y029895*
G37*
G36*
X023562Y034506D02*
X023250D01*
Y034194*
X023295Y034200*
X023384Y034237*
X023461Y034295*
X023519Y034372*
X023556Y034461*
X023562Y034506*
G37*
G36*
X025912D02*
X025600D01*
Y034194*
X025645Y034200*
X025734Y034237*
X025811Y034295*
X025869Y034372*
X025906Y034461*
X025912Y034506*
G37*
G36*
X023466Y035813D02*
X022934D01*
X022856Y035798*
X022790Y035754*
X022746Y035687*
X022730Y035609*
Y035078*
X022746Y035000*
X022790Y034934*
X022856Y034890*
X022932Y034875*
X022940Y034862*
X022952Y034827*
X022939Y034817*
X022881Y034741*
X022844Y034652*
X022838Y034606*
X023200*
X023562*
X023556Y034652*
X023519Y034741*
X023461Y034817*
X023448Y034827*
X023460Y034862*
X023468Y034875*
X023544Y034890*
X023610Y034934*
X023654Y035000*
X023670Y035078*
Y035609*
X023654Y035687*
X023610Y035754*
X023544Y035798*
X023466Y035813*
G37*
G36*
X025500Y034506D02*
X025188D01*
X025194Y034461*
X025231Y034372*
X025289Y034295*
X025366Y034237*
X025455Y034200*
X025500Y034194*
Y034506*
G37*
G36*
X027950Y033992D02*
Y033650D01*
X028292*
X028285Y033703*
X028245Y033799*
X028182Y033882*
X028099Y033945*
X028003Y033985*
X027950Y033992*
G37*
G36*
X028950D02*
Y033650D01*
X029292*
X029285Y033703*
X029245Y033799*
X029182Y033882*
X029099Y033945*
X029003Y033985*
X028950Y033992*
G37*
G36*
X023150Y034506D02*
X022838D01*
X022844Y034461*
X022881Y034372*
X022939Y034295*
X023016Y034237*
X023105Y034200*
X023150Y034194*
Y034506*
G37*
G36*
X016700Y021845D02*
X016652Y021835D01*
X016570Y021780*
X016515Y021698*
X016505Y021650*
X016700*
Y021845*
G37*
G36*
X016800D02*
Y021650D01*
X016995*
X016985Y021698*
X016930Y021780*
X016848Y021835*
X016800Y021845*
G37*
G36*
X022900Y022050D02*
X022705D01*
X022715Y022002*
X022770Y021920*
X022852Y021865*
X022900Y021855*
Y022050*
G37*
G36*
X016995Y021550D02*
X016800D01*
Y021355*
X016848Y021365*
X016930Y021420*
X016985Y021502*
X016995Y021550*
G37*
G36*
X019128Y021642D02*
X019075Y021635D01*
X018979Y021595*
X018896Y021532*
X018833Y021449*
X018793Y021353*
X018786Y021300*
X019128*
Y021642*
G37*
G36*
X019228D02*
Y021300D01*
X019570*
X019563Y021353*
X019523Y021449*
X019460Y021532*
X019377Y021595*
X019281Y021635*
X019228Y021642*
G37*
G36*
X016700Y021550D02*
X016505D01*
X016515Y021502*
X016570Y021420*
X016652Y021365*
X016700Y021355*
Y021550*
G37*
G36*
X022900Y022345D02*
X022852Y022336D01*
X022770Y022280*
X022715Y022198*
X022705Y022150*
X022900*
Y022345*
G37*
G36*
X017750Y024395D02*
X017702Y024385D01*
X017620Y024330*
X017565Y024248*
X017555Y024200*
X017750*
Y024395*
G37*
G36*
X018045Y024100D02*
X017850D01*
Y023905*
X017898Y023914*
X017980Y023970*
X018036Y024052*
X018045Y024100*
G37*
G36*
X019300Y023550D02*
X019105D01*
X019115Y023502*
X019170Y023420*
X019252Y023365*
X019300Y023355*
Y023550*
G37*
G36*
X019595D02*
X019400D01*
Y023355*
X019448Y023365*
X019530Y023420*
X019585Y023502*
X019595Y023550*
G37*
G36*
X017750Y024100D02*
X017555D01*
X017565Y024052*
X017620Y023970*
X017702Y023914*
X017750Y023905*
Y024100*
G37*
G36*
X019280Y028715D02*
X019085D01*
Y028520*
X019132Y028530*
X019215Y028585*
X019270Y028668*
X019280Y028715*
G37*
G36*
X019085Y029010D02*
Y028815D01*
X019280*
X019270Y028863*
X019215Y028946*
X019132Y029001*
X019085Y029010*
G37*
G36*
X019300Y028295D02*
X019252Y028286D01*
X019170Y028230*
X019115Y028148*
X019105Y028100*
X019300*
Y028295*
G37*
G36*
Y028000D02*
X019105D01*
X019115Y027952*
X019170Y027870*
X019252Y027815*
X019300Y027805*
Y028000*
G37*
%LNde-260124-3*%
%LPD*%
G54D11*
X027000Y015915D03*
Y016585D03*
X026177Y015915D03*
Y016585D03*
X025353Y015915D03*
Y016585D03*
X024530Y015915D03*
Y016585D03*
X023707Y015915D03*
Y016585D03*
X022883Y015915D03*
Y016585D03*
X022060Y015915D03*
Y016585D03*
X021237Y015915D03*
Y016585D03*
X020413Y015915D03*
Y016585D03*
X019590Y015915D03*
Y016585D03*
X018767Y015915D03*
Y016585D03*
X017943Y015915D03*
Y016585D03*
X017120Y015915D03*
Y016585D03*
X016297Y015915D03*
Y016585D03*
X015473Y015915D03*
Y016585D03*
X014650Y015915D03*
Y016585D03*
G54D23*
X027900Y033600D03*
X028900D03*
X027900Y032600D03*
X028900D03*
X027900Y031600D03*
X028900D03*
X027900Y030600D03*
X028900D03*
X027900Y029600D03*
X028900D03*
X027900Y028600D03*
X028900D03*
X027900Y027600D03*
X028900D03*
X027900Y026600D03*
X028900D03*
X027900Y025600D03*
X028900D03*
X027900Y024600D03*
X018178Y021250D03*
X019178D03*
X014550Y039200D03*
Y038200D03*
Y037200D03*
Y036200D03*
Y035200D03*
Y034200D03*
Y033200D03*
Y032200D03*
Y031200D03*
Y030200D03*
Y029200D03*
Y028200D03*
Y027200D03*
Y026200D03*
Y025200D03*
Y024200D03*
G54D24*
X017550Y033150D02*
Y033621D01*
X022850Y026300D02*
Y027050D01*
Y026300D02*
X023150Y026000D01*
X024250*
X025100Y025150*
Y024400D02*
Y025150D01*
X020700Y024150D02*
X020900Y024350D01*
X018700Y025450D02*
X019050D01*
X020000Y034450D02*
X020550Y033900D01*
X022550Y030800D02*
Y032700D01*
X024650Y029600D02*
Y030400D01*
X024250Y030800D02*
X024650Y030400D01*
X022550Y030800D02*
X024250D01*
X024650Y027700D02*
Y029600D01*
X024000Y027050D02*
X024650Y027700D01*
X022850Y027050D02*
X024000D01*
X020550Y032374D02*
Y033900D01*
Y030450D02*
Y032374D01*
X018800Y034450D02*
X020000D01*
X018700Y024150D02*
X020700D01*
X020900Y024350D02*
Y024750D01*
X016200Y034971D02*
Y039800D01*
Y034971D02*
X017550Y033621D01*
G54D25*
X018522Y030300D02*
Y033672D01*
Y025628D02*
Y030300D01*
X019050*
X018522Y025628D02*
X018700Y025450D01*
X018150Y024700D02*
Y033479D01*
X018122Y033507D02*
X018150Y033479D01*
X018122Y033507D02*
Y034072D01*
X018150Y024700D02*
X018700Y024150D01*
X018500Y034450D02*
X018800D01*
X018122Y034072D02*
X018500Y034450D01*
G54D26*
X019900Y019350D02*
Y019700D01*
X020450Y019400D02*
Y019600D01*
X019900Y032000D02*
X020200Y031700D01*
Y030250D02*
Y031700D01*
Y030250D02*
X020800Y029650D01*
X019700Y031650D02*
X020050Y031300D01*
Y026888D02*
Y031300D01*
X020000Y026838D02*
X020050Y026888D01*
X020000Y024956D02*
Y026838D01*
Y024956D02*
X020178Y024778D01*
X019300Y031400D02*
X019900Y030800D01*
Y026950D02*
Y030800D01*
X019400Y026450D02*
X019900Y026950D01*
X019450Y030800D02*
X019750Y030500D01*
Y027250D02*
Y030500D01*
X019050Y026550D02*
X019750Y027250D01*
X024950Y027000D02*
Y031000D01*
X024550Y031400D02*
X024950Y031000D01*
X023700Y031400D02*
X024550D01*
X024500Y026550D02*
X024950Y027000D01*
X023750Y026550D02*
X024500D01*
X022050Y022600D02*
Y026900D01*
X021650Y027300D02*
X022050Y026900D01*
X020600Y027300D02*
X021650D01*
X021850Y022400D02*
X022050Y022600D01*
X019050Y025950D02*
Y026550D01*
Y030800D02*
X019450D01*
X019300Y031400D02*
Y031650D01*
X020550Y029400D02*
X022200D01*
X022422Y029178*
Y024728D02*
Y029178D01*
X025300Y029300D02*
Y032400D01*
X019500Y032000D02*
X019900D01*
X019300Y031800D02*
X019500Y032000D01*
X019300Y031700D02*
Y031800D01*
X023700Y031400D02*
Y032150D01*
X022750Y033100D02*
X023700Y032150D01*
X021800Y033100D02*
X022750D01*
X027000Y015100D02*
Y015915D01*
X026177Y015100D02*
Y015915D01*
X025353Y015100D02*
Y015915D01*
D01*
X024530Y015100D02*
Y015915D01*
X023707Y015100D02*
Y015915D01*
D01*
X022883Y015100D02*
Y015915D01*
X022060Y015100D02*
Y015915D01*
D01*
X021237Y015100D02*
Y015915D01*
X020413Y015100D02*
Y015915D01*
D01*
X019590Y015100D02*
Y015915D01*
X018767Y015100D02*
Y015915D01*
D01*
X017943Y015100D02*
Y015915D01*
X017120Y015100D02*
Y015915D01*
D01*
X016297Y015100D02*
Y015915D01*
X015473Y015100D02*
Y015915D01*
D01*
X014650Y015100D02*
Y015915D01*
X013900Y024550D02*
X014550Y025200D01*
Y026200D02*
X015050Y025700D01*
Y023883D02*
Y025700D01*
X028450Y033150D02*
X030800D01*
X027900Y032600D02*
X028450Y033150D01*
X028900Y032600D02*
X029250Y032950D01*
X030700*
X027900Y031600D02*
X028450Y032150D01*
X030400*
X028900Y031600D02*
X028967Y031667D01*
X027900Y030600D02*
X028350Y031050D01*
X030100*
X022933Y019400D02*
X023332D01*
X028900Y030600D02*
X030050D01*
X027900Y029600D02*
X028400Y030100D01*
X029650*
X028900Y029600D02*
X029484D01*
X028400Y029100D02*
X029350D01*
X027900Y028600D02*
X028400Y029100D01*
X022110Y019400D02*
X022410Y019700D01*
X028967Y031667D02*
X030083D01*
X028400Y028100D02*
X029188D01*
X027900Y027600D02*
X028400Y028100D01*
X028900Y028600D02*
X029350D01*
X028900Y027600D02*
X029300D01*
X028400Y027100D02*
X029150D01*
X027900Y026600D02*
X028400Y027100D01*
X030800Y033150D02*
X031267Y032683D01*
X030700Y032950D02*
X031117Y032533D01*
X030400Y032150D02*
X030967Y031583D01*
X030083Y031667D02*
X030817Y030933D01*
X030100Y031050D02*
X030667Y030483D01*
X030050Y030600D02*
X030517Y030133D01*
X029650Y030100D02*
X030367Y029383D01*
X029484Y029600D02*
X030217Y028868D01*
X029350Y029100D02*
X030067Y028383D01*
X029350Y028600D02*
X029917Y028033D01*
X029188Y028100D02*
X029767Y027521D01*
X029300Y027600D02*
X029617Y027283D01*
X029150Y027100D02*
X029467Y026783D01*
X014550Y027200D02*
X015200Y026550D01*
X014550Y028200D02*
X015350Y027400D01*
X015200Y023821D02*
Y026550D01*
X015350Y023759D02*
Y027400D01*
X014050Y022883D02*
X015050Y023883D01*
X014200Y022821D02*
X015200Y023821D01*
X014350Y022759D02*
X015350Y023759D01*
X014500Y022696D02*
X015500Y023696D01*
X014650Y022634D02*
X015650Y023634D01*
X014800Y022572D02*
X015800Y023572D01*
X014950Y022510D02*
X015950Y023510D01*
Y030800*
X014550Y032200D02*
X015950Y030800D01*
X015100Y022448D02*
X016100Y023448D01*
X015250Y022386D02*
X016250Y023386D01*
Y032500*
X015400Y022324D02*
X016400Y023324D01*
Y033350*
X015473Y016585D02*
Y016939D01*
X017120Y016585D02*
Y017030D01*
X017943Y016585D02*
Y017207D01*
X018450Y017550D02*
X018767Y017233D01*
Y016585D02*
Y017233D01*
X019590Y016585D02*
Y017310D01*
X016150Y017100D02*
X016297Y016953D01*
Y016585D02*
Y016953D01*
X014550Y035200D02*
X016400Y033350D01*
X014550Y034200D02*
X016250Y032500D01*
X016100Y023448D02*
Y031650D01*
X014550Y033200D02*
X016100Y031650D01*
X015800Y023572D02*
Y029950D01*
X014550Y031200D02*
X015800Y029950D01*
X015650Y023634D02*
Y029100D01*
X014550Y030200D02*
X015650Y029100D01*
X015500Y023696D02*
Y028250D01*
X014550Y029200D02*
X015500Y028250D01*
X028400Y026100D02*
X028900Y026600D01*
X027350Y025050D02*
X027900Y025600D01*
X027950Y022450D02*
X028450Y021950D01*
X027500Y018900D02*
X029664D01*
X031267Y020502*
X026227Y019400D02*
X029952D01*
X031117Y020564*
X025403Y019400D02*
X025703Y019700D01*
X030040*
X030967Y020627*
X024580Y019400D02*
X025030Y019850D01*
X029978*
X030817Y020689*
X023757Y019400D02*
X024357Y020000D01*
X029916*
X030667Y020751*
X029791Y020300D02*
X030367Y020875D01*
X029729Y020450D02*
X030217Y020937D01*
X029667Y020600D02*
X030067Y020999D01*
X029605Y020750D02*
X029917Y021062D01*
X029450Y020900D02*
X029767Y021217D01*
X029300Y021050D02*
X029617Y021367D01*
X029238Y021200D02*
X029467Y021429D01*
X028950Y021350D02*
X029250Y021650D01*
X028600Y021500D02*
X029000Y021900D01*
X027200Y022300D02*
X027550Y021950D01*
X025038Y022300D02*
X027200D01*
X023388Y023950D02*
X025038Y022300D01*
X023150Y023950D02*
X023388D01*
X023150Y024400D02*
X025100Y022450D01*
X027950*
X023626Y023500D02*
X024976Y022150D01*
X027674Y021650D02*
X027974Y021950D01*
X028000*
X020413Y016585D02*
Y016699D01*
X024500Y017800D02*
X025353Y016947D01*
Y016585D02*
Y016947D01*
X025100Y017950D02*
X026177Y016873D01*
Y016585D02*
Y016873D01*
X025800Y018100D02*
X027000Y016900D01*
Y016585D02*
Y016900D01*
X024530Y016585D02*
Y016870D01*
X023750Y017650D02*
X024530Y016870D01*
X023100Y017500D02*
X023707Y016893D01*
Y016585D02*
Y016893D01*
X020400Y017350D02*
X022400D01*
X022883Y016867*
Y016585D02*
Y016867D01*
X020336Y017200D02*
X021700D01*
X022060Y016840*
Y016585D02*
Y016840D01*
X020274Y017050D02*
X021050D01*
X021237Y016863*
Y016585D02*
Y016863D01*
X020462Y017500D02*
X023100D01*
X020524Y017650D02*
X023750D01*
X020586Y017800D02*
X024500D01*
X020649Y017950D02*
X025100D01*
X020711Y018100D02*
X025800D01*
X019697Y018901D02*
X020649Y017950D01*
X019759Y019051D02*
X020711Y018100D01*
X019635Y018751D02*
X020586Y017800D01*
X019573Y018601D02*
X020524Y017650D01*
X019511Y018451D02*
X020462Y017500D01*
X019449Y018301D02*
X020400Y017350D01*
X019385Y018151D02*
X020336Y017200D01*
X019323Y018001D02*
X020274Y017050D01*
X019261Y017851D02*
X020413Y016699D01*
X019200Y017700D02*
X019590Y017310D01*
X016150Y019226D02*
X016326Y019050D01*
X016574*
X016575Y019051*
X016000Y019164D02*
X016264Y018900D01*
X016636*
X016638Y018901*
X015850Y019101D02*
X016201Y018750D01*
X016699*
X016700Y018751*
X015700Y019039D02*
X016139Y018600D01*
X016761*
X016762Y018601*
X015550Y018977D02*
X016077Y018450D01*
X015400Y018915D02*
X016015Y018300D01*
X015250Y018853D02*
X015953Y018150D01*
X015100Y018791D02*
X015891Y018000D01*
X014950Y018729D02*
X015829Y017850D01*
X014800Y018667D02*
X015767Y017700D01*
X014650Y018604D02*
X015704Y017550D01*
X014500Y018542D02*
X015642Y017400D01*
X014350Y018480D02*
X015580Y017250D01*
X014200Y018418D02*
X015518Y017100D01*
X014050Y018356D02*
X015456Y016950D01*
X015462*
X015473Y016939*
X013900Y018294D02*
X014650Y017544D01*
Y016585D02*
Y017544D01*
X016150Y019226D02*
Y022013D01*
X016000Y019164D02*
Y022075D01*
X015850Y019101D02*
Y022137D01*
X015700Y019039D02*
Y022199D01*
X015550Y018977D02*
Y022262D01*
X015400Y018915D02*
Y022324D01*
X015250Y018853D02*
Y022386D01*
X015100Y018791D02*
Y022448D01*
X014950Y018729D02*
Y022510D01*
X014800Y018667D02*
Y022572D01*
X014650Y018604D02*
Y022634D01*
X014500Y018542D02*
Y022696D01*
X014350Y018480D02*
Y022759D01*
X014200Y018418D02*
Y022821D01*
X015518Y017100D02*
X016150D01*
X014050Y018356D02*
Y022883D01*
X013900Y018294D02*
Y024550D01*
X016900Y017250D02*
X017120Y017030D01*
X015580Y017250D02*
X016900D01*
X017750Y017400D02*
X017943Y017207D01*
X015642Y017400D02*
X017750D01*
X015704Y017550D02*
X018450D01*
X015767Y017700D02*
X019200D01*
X017072Y017851D02*
X019261D01*
X017071Y017850D02*
X017072Y017851D01*
X015829Y017850D02*
X017071D01*
X017010Y018001D02*
X019323D01*
X017009Y018000D02*
X017010Y018001D01*
X015891Y018000D02*
X017009D01*
X016948Y018151D02*
X019385D01*
X016947Y018150D02*
X016948Y018151D01*
X015953Y018150D02*
X016947D01*
X016886Y018301D02*
X019449D01*
X016885Y018300D02*
X016886Y018301D01*
X016015Y018300D02*
X016885D01*
X016824Y018451D02*
X019511D01*
X016823Y018450D02*
X016824Y018451D01*
X016077Y018450D02*
X016823D01*
X016762Y018601D02*
X019573D01*
X016700Y018751D02*
X019635D01*
X016638Y018901D02*
X019697D01*
X016575Y019051D02*
X019759D01*
X018000Y019400D02*
Y019600D01*
X024976Y022150D02*
X026850D01*
X027350Y021650*
X027674*
X020800Y029650D02*
X023050D01*
X023150Y023500D02*
X023626D01*
X022850Y023300D02*
X023300Y022850D01*
X022850Y023300D02*
Y024800D01*
X023600Y025550*
X021287Y019400D02*
X021600D01*
X022050Y019850*
X021688Y019700D02*
X021988Y020000D01*
X021680Y019905D02*
X021926Y020150D01*
X021618Y020055D02*
X021864Y020300D01*
X021494Y020355D02*
X021739Y020600D01*
X021432Y020505D02*
X021677Y020750D01*
X021370Y020655D02*
X021615Y020900D01*
X021308Y020805D02*
X021553Y021050D01*
X016500Y019400D02*
X016600Y019500D01*
X018800Y019400D02*
Y019600D01*
X019255Y020055*
X021618*
X019900Y019700D02*
X020105Y019905D01*
X021680*
X020450Y019600D02*
X020550Y019700D01*
X021688*
X017200Y019400D02*
Y019650D01*
X017905Y020355*
X021494*
X016500Y020500D02*
X016805Y020805D01*
X021308*
X016600Y019500D02*
X016624D01*
X016500Y020400D02*
Y020500D01*
Y019900D02*
X017255Y020655D01*
X021370*
X016624Y019500D02*
X017629Y020505D01*
X021432*
X022410Y019700D02*
X023420D01*
X024020Y020300*
X029791*
X022050Y019850D02*
X023358D01*
X023958Y020450*
X029729*
X021988Y020000D02*
X023296D01*
X023896Y020600*
X029667*
X021926Y020150D02*
X023234D01*
X023834Y020750*
X029605*
X021864Y020300D02*
X023172D01*
X023772Y020900*
X029450*
X023710Y021050D02*
X029300D01*
X021739Y020600D02*
X023047D01*
X023647Y021200*
X029238*
X021677Y020750D02*
X022985D01*
X023585Y021350*
X028950*
X021615Y020900D02*
X022923D01*
X023523Y021500*
X028600*
X021553Y021050D02*
X022861D01*
X023300Y021489*
Y022850*
X028400Y024297D02*
Y026100D01*
X027350Y024500D02*
Y025050D01*
X027700Y024150D02*
X028300D01*
X027350Y024500D02*
X027700Y024150D01*
X028300D02*
X029000Y023450D01*
X028400Y024297D02*
X029250Y023447D01*
X027600Y022950D02*
Y023850D01*
X031267Y020502D02*
Y032683D01*
X031117Y020564D02*
Y032533D01*
X030967Y020627D02*
Y031583D01*
X030817Y020689D02*
Y030933D01*
X030667Y020751D02*
Y030483D01*
X030517Y020813D02*
Y030133D01*
X030367Y020875D02*
Y029383D01*
X030217Y020937D02*
Y028868D01*
X030067Y020999D02*
Y028383D01*
X029917Y021062D02*
Y028033D01*
X029767Y021217D02*
Y027521D01*
X029617Y021367D02*
Y027283D01*
X029467Y021429D02*
Y026783D01*
X029250Y021650D02*
Y023447D01*
X029000Y021900D02*
Y023450D01*
X026300Y022750D02*
X026450Y022600D01*
X027950*
X028100Y022750*
X028700*
X014550Y037200D02*
X014750D01*
X015350Y034824D02*
Y036600D01*
X014750Y037200D02*
X015350Y036600D01*
X015550Y034836D02*
Y037200D01*
X014550Y038200D02*
X015550Y037200D01*
X015750Y034849D02*
Y038000D01*
X014550Y039200D02*
X015750Y038000D01*
X015950Y034861D02*
Y038800D01*
X014550Y040200D02*
X015950Y038800D01*
X015550Y022262D02*
X016550Y023262D01*
Y033412*
X015150Y034812D02*
X016550Y033412D01*
X015150Y034812D02*
Y035600D01*
X014550Y036200D02*
X015150Y035600D01*
X015700Y022199D02*
X016700Y023199D01*
Y033474*
X015350Y034824D02*
X016700Y033474D01*
X015850Y022137D02*
X016850Y023137D01*
Y033536*
X015550Y034836D02*
X016850Y033536D01*
X016000Y022075D02*
X017000Y023075D01*
Y033599*
X015750Y034849D02*
X017000Y033599D01*
X016150Y022013D02*
X017150Y023013D01*
Y033661*
X015950Y034861D02*
X017150Y033661D01*
X018000Y019600D02*
X018605Y020205D01*
X021556*
X021801Y020450*
X023110*
X023710Y021050*
X023332Y019400D02*
X024082Y020150D01*
X029854*
X030517Y020813*
G54D27*
X023200Y034556D03*
X025550D03*
G54D28*
X023200Y035344D03*
X025550D03*
G54D29*
X029650Y014516D03*
Y016484D03*
X024500Y037816D03*
Y039784D03*
G54D30*
X028900Y024600D03*
X014550Y040200D03*
G54D31*
X020178Y021250D03*
G54D32*
X025100Y024400D03*
X020900Y024750D03*
X019900Y019350D03*
X020450Y019400D03*
X019350Y023600D03*
X018700Y024150D03*
X018800Y034450D03*
X020550Y030450D03*
Y032374D03*
X022550Y032700D03*
Y030800D03*
X022850Y027050D03*
X024650Y029600D03*
X019050Y025450D03*
X018522Y033672D03*
X019050Y030300D03*
X026350Y028900D03*
X023750Y029650D03*
X019035Y028765D03*
X017450Y028800D03*
X022950Y022100D03*
X020550Y029400D03*
X022422Y024728D03*
X025300Y032400D03*
Y029300D03*
X019400Y026450D03*
X019050Y030800D03*
X019300Y031650D03*
X019050Y025950D03*
X021800Y033100D03*
X014650Y015100D03*
X015473D03*
X016297D03*
X017120D03*
X017943D03*
X018767D03*
X019590D03*
X020413D03*
X021237D03*
X022060D03*
X022883D03*
X023707D03*
X024530D03*
X025353D03*
X026177D03*
X027000D03*
X026227Y019400D03*
X022110D03*
X022933D03*
X023757D03*
X024580D03*
X025403D03*
X021287D03*
X023600Y025550D03*
X028450Y021950D03*
X028000D03*
X027550D03*
X027500Y018900D03*
X023150Y023950D03*
Y024400D03*
X018800Y019400D03*
X016500D03*
X017200D03*
X018000D03*
X023050Y029650D03*
X023700Y031400D03*
Y026550D03*
X023150Y023500D03*
X016500Y019900D03*
Y020400D03*
X020178Y024778D03*
X019700Y031650D03*
X027600Y022950D03*
Y023850D03*
X028700Y022750D03*
X026300D03*
X021850Y022400D03*
X020600Y027300D03*
X017250Y037100D03*
X017650D03*
X018000D03*
X019950Y037800D03*
Y037350D03*
Y036900D03*
Y038250D03*
X020450Y036900D03*
Y037350D03*
X020452Y037770D03*
X020950Y038700D03*
Y038250D03*
Y037800D03*
Y037350D03*
Y036900D03*
X023000Y028850D03*
X019350Y028050D03*
X017800Y024150D03*
X024225Y024025D03*
X016750Y021600D03*
G54D33*
X020475Y037725D03*
M02*