%FSDAX24Y24*%
%MOIN*%
%SFA1B1*%

%IPPOS*%
%ADD17C,0.005000*%
%LNpcb_baseboard-1*%
%LPD*%
G54D17*
X003582Y009662D02*
X003937D01*
X003760Y009485D02*
Y009840D01*
X003582Y008662D02*
X003937D01*
X003760Y008485D02*
Y008840D01*
X002582Y009662D02*
X002937D01*
X002760Y009485D02*
Y009840D01*
X002582Y008662D02*
X002937D01*
X002760Y008485D02*
Y008840D01*
X007712Y009662D02*
X008067D01*
X007890Y009485D02*
Y009840D01*
X007712Y008662D02*
X008067D01*
X007890Y008485D02*
Y008840D01*
X006712Y009662D02*
X007067D01*
X006890Y009485D02*
Y009840D01*
X006712Y008662D02*
X007067D01*
X006890Y008485D02*
Y008840D01*
X015362Y009662D02*
X015717D01*
X015540Y009485D02*
Y009840D01*
X015362Y008662D02*
X015717D01*
X015540Y008485D02*
Y008840D01*
X014362Y009662D02*
X014717D01*
X014540Y009485D02*
Y009840D01*
X014362Y008662D02*
X014717D01*
X014540Y008485D02*
Y008840D01*
X013362Y009662D02*
X013717D01*
X013540Y009485D02*
Y009840D01*
X013362Y008662D02*
X013717D01*
X013540Y008485D02*
Y008840D01*
X012362Y009662D02*
X012717D01*
X012540Y009485D02*
Y009840D01*
X012362Y008662D02*
X012717D01*
X012540Y008485D02*
Y008840D01*
X011362Y009662D02*
X011717D01*
X011540Y009485D02*
Y009840D01*
X011362Y008662D02*
X011717D01*
X011540Y008485D02*
Y008840D01*
X017742Y008662D02*
X018097D01*
X017920Y008485D02*
Y008840D01*
X017742Y009662D02*
X018097D01*
X017920Y009485D02*
Y009840D01*
X018742Y008662D02*
X019097D01*
X018920Y008485D02*
Y008840D01*
X018742Y009662D02*
X019097D01*
X018920Y009485D02*
Y009840D01*
X019742Y008662D02*
X020097D01*
X019920Y008485D02*
Y008840D01*
X019742Y009662D02*
X020097D01*
X019920Y009485D02*
Y009840D01*
X024882Y009662D02*
X025237D01*
X025060Y009485D02*
Y009840D01*
X024882Y008662D02*
X025237D01*
X025060Y008485D02*
Y008840D01*
X023882Y009662D02*
X024237D01*
X024060Y009485D02*
Y009840D01*
X023882Y008662D02*
X024237D01*
X024060Y008485D02*
Y008840D01*
X022882Y009662D02*
X023237D01*
X023060Y009485D02*
Y009840D01*
X022882Y008662D02*
X023237D01*
X023060Y008485D02*
Y008840D01*
X001522Y023802D02*
X001877D01*
X001700Y023625D02*
Y023980D01*
X001522Y024802D02*
X001877D01*
X001700Y024625D02*
Y024980D01*
X002522Y023802D02*
X002877D01*
X002700Y023625D02*
Y023980D01*
X002522Y024802D02*
X002877D01*
X002700Y024625D02*
Y024980D01*
X003522Y023802D02*
X003877D01*
X003700Y023625D02*
Y023980D01*
X003522Y024802D02*
X003877D01*
X003700Y024625D02*
Y024980D01*
X008663Y024802D02*
X009017D01*
X008840Y024625D02*
Y024980D01*
X008663Y023802D02*
X009017D01*
X008840Y023625D02*
Y023980D01*
X007663Y024802D02*
X008017D01*
X007840Y024625D02*
Y024980D01*
X007663Y023802D02*
X008017D01*
X007840Y023625D02*
Y023980D01*
X006663Y024802D02*
X007017D01*
X006840Y024625D02*
Y024980D01*
X006663Y023802D02*
X007017D01*
X006840Y023625D02*
Y023980D01*
X011022Y023802D02*
X011377D01*
X011200Y023625D02*
Y023980D01*
X011022Y024802D02*
X011377D01*
X011200Y024625D02*
Y024980D01*
X012022Y023802D02*
X012377D01*
X012200Y023625D02*
Y023980D01*
X012022Y024802D02*
X012377D01*
X012200Y024625D02*
Y024980D01*
X013022Y023802D02*
X013377D01*
X013200Y023625D02*
Y023980D01*
X013022Y024802D02*
X013377D01*
X013200Y024625D02*
Y024980D01*
X014022Y023802D02*
X014377D01*
X014200Y023625D02*
Y023980D01*
X014022Y024802D02*
X014377D01*
X014200Y024625D02*
Y024980D01*
X015022Y023802D02*
X015377D01*
X015200Y023625D02*
Y023980D01*
X015022Y024802D02*
X015377D01*
X015200Y024625D02*
Y024980D01*
X018662Y023802D02*
X019017D01*
X018840Y023625D02*
Y023980D01*
X018662Y024802D02*
X019017D01*
X018840Y024625D02*
Y024980D01*
X019662Y023802D02*
X020017D01*
X019840Y023625D02*
Y023980D01*
X019662Y024802D02*
X020017D01*
X019840Y024625D02*
Y024980D01*
X022822Y023802D02*
X023177D01*
X023000Y023625D02*
Y023980D01*
X022822Y024802D02*
X023177D01*
X023000Y024625D02*
Y024980D01*
X023822Y023802D02*
X024177D01*
X024000Y023625D02*
Y023980D01*
X023822Y024802D02*
X024177D01*
X024000Y024625D02*
Y024980D01*
X018022Y020450D02*
X018377D01*
X018200Y020272D02*
Y020627D01*
X017022Y021450D02*
X017377D01*
X017200Y021272D02*
Y021627D01*
X017022Y020450D02*
X017377D01*
X017200Y020272D02*
Y020627D01*
X016022Y021450D02*
X016377D01*
X016200Y021272D02*
Y021627D01*
X016022Y020450D02*
X016377D01*
X016200Y020272D02*
Y020627D01*
X015022Y021450D02*
X015377D01*
X015200Y021272D02*
Y021627D01*
X015022Y020450D02*
X015377D01*
X015200Y020272D02*
Y020627D01*
X014022Y021450D02*
X014377D01*
X014200Y021272D02*
Y021627D01*
X014022Y020450D02*
X014377D01*
X014200Y020272D02*
Y020627D01*
X013022Y021450D02*
X013377D01*
X013200Y021272D02*
Y021627D01*
X013022Y020450D02*
X013377D01*
X013200Y020272D02*
Y020627D01*
X012022Y021450D02*
X012377D01*
X012200Y021272D02*
Y021627D01*
X012022Y020450D02*
X012377D01*
X012200Y020272D02*
Y020627D01*
X011022Y021450D02*
X011377D01*
X011200Y021272D02*
Y021627D01*
X011022Y020450D02*
X011377D01*
X011200Y020272D02*
Y020627D01*
X010022Y021450D02*
X010377D01*
X010200Y021272D02*
Y021627D01*
X010022Y020450D02*
X010377D01*
X010200Y020272D02*
Y020627D01*
X018022Y021450D02*
X018377D01*
X018200Y021272D02*
Y021627D01*
X006822Y013800D02*
X007177D01*
X007000Y013622D02*
Y013977D01*
X007822Y013800D02*
X008177D01*
X008000Y013622D02*
Y013977D01*
X008822Y013800D02*
X009177D01*
X009000Y013622D02*
Y013977D01*
X024167Y031065D02*
X024561D01*
X024364Y030868D02*
Y031261D01*
X022198Y031065D02*
X022592D01*
X022395Y030868D02*
Y031261D01*
X016197Y031065D02*
X016591D01*
X016394Y030868D02*
Y031261D01*
X014228Y031065D02*
X014622D01*
X014425Y030868D02*
Y031261D01*
X020167Y031065D02*
X020561D01*
X020364Y030868D02*
Y031261D01*
X018198Y031065D02*
X018592D01*
X018395Y030868D02*
Y031261D01*
X008203Y031065D02*
X008596D01*
X008400Y030868D02*
Y031261D01*
X010203Y031065D02*
X010596D01*
X010400Y030868D02*
Y031261D01*
X012203Y031065D02*
X012596D01*
X012400Y030868D02*
Y031261D01*
X006203Y031065D02*
X006596D01*
X006400Y030868D02*
Y031261D01*
X004203Y031065D02*
X004596D01*
X004400Y030868D02*
Y031261D01*
X002203Y031065D02*
X002596D01*
X002400Y030868D02*
Y031261D01*
X004172Y002400D02*
X004566D01*
X004369Y002203D02*
Y002596D01*
X002203Y002400D02*
X002597D01*
X002400Y002203D02*
Y002596D01*
X008157Y002400D02*
X008551D01*
X008354Y002203D02*
Y002596D01*
X006188Y002400D02*
X006582D01*
X006385Y002203D02*
Y002596D01*
X020173Y002400D02*
X020566D01*
X020370Y002203D02*
Y002596D01*
X018173Y002400D02*
X018566D01*
X018370Y002203D02*
Y002596D01*
X016173Y002400D02*
X016566D01*
X016370Y002203D02*
Y002596D01*
X010163Y002400D02*
X010556D01*
X010360Y002203D02*
Y002596D01*
X012163Y002400D02*
X012556D01*
X012360Y002203D02*
Y002596D01*
X014163Y002400D02*
X014556D01*
X014360Y002203D02*
Y002596D01*
X024157Y002400D02*
X024551D01*
X024354Y002203D02*
Y002596D01*
X022188Y002400D02*
X022582D01*
X022385Y002203D02*
Y002596D01*
X020850Y019550D02*
X020950D01*
X020900Y019500D02*
Y019600D01*
X022350Y029397D02*
X022450D01*
X022400Y029347D02*
Y029447D01*
X003644Y012401D02*
X003744D01*
X003694Y012351D02*
Y012451D01*
X019650Y014000D02*
X019750D01*
X019700Y013950D02*
Y014050D01*
X015544Y018201D02*
X015644D01*
X015594Y018151D02*
Y018251D01*
X014250Y016500D02*
X014350D01*
X014300Y016450D02*
Y016550D01*
X015173Y014497D02*
X015273D01*
X015223Y014447D02*
Y014547D01*
X010350Y018900D02*
X010450D01*
X010400Y018850D02*
Y018950D01*
X004562Y019237D02*
X004662D01*
X004612Y019187D02*
Y019287D01*
X004562Y019637D02*
X004662D01*
X004612Y019587D02*
Y019687D01*
X004450Y014700D02*
X004550D01*
X004500Y014650D02*
Y014750D01*
X004562Y018700D02*
X004662D01*
X004612Y018650D02*
Y018750D01*
X025794Y017951D02*
X025894D01*
X025844Y017901D02*
Y018001D01*
X025400Y018350D02*
X025500D01*
X025450Y018300D02*
Y018400D01*
X018700Y017400D02*
X018800D01*
X018750Y017350D02*
Y017450D01*
X002850Y017800D02*
X002950D01*
X002900Y017750D02*
Y017850D01*
X006500Y019650D02*
X006600D01*
X006550Y019600D02*
Y019700D01*
X007288Y016466D02*
X007388D01*
X007338Y016416D02*
Y016516D01*
X020200Y020150D02*
X020300D01*
X020250Y020100D02*
Y020200D01*
X020550Y019900D02*
X020650D01*
X020600Y019850D02*
Y019950D01*
X019850Y020450D02*
X019950D01*
X019900Y020400D02*
Y020500D01*
X017150Y022750D02*
X017250D01*
X017200Y022700D02*
Y022800D01*
X016154Y022789D02*
X016254D01*
X016204Y022739D02*
Y022839D01*
X006800Y020050D02*
X006900D01*
X006850Y020000D02*
Y020100D01*
X004550Y020050D02*
X004650D01*
X004600Y020000D02*
Y020100D01*
X010950Y014100D02*
X011050D01*
X011000Y014050D02*
Y014150D01*
X011450Y014100D02*
X011550D01*
X011500Y014050D02*
Y014150D01*
X012250Y014100D02*
X012350D01*
X012300Y014050D02*
Y014150D01*
X012653Y014098D02*
X012753D01*
X012703Y014048D02*
Y014148D01*
X011850Y014100D02*
X011950D01*
X011900Y014050D02*
Y014150D01*
X004450Y015200D02*
X004550D01*
X004500Y015150D02*
Y015250D01*
X004450Y015700D02*
X004550D01*
X004500Y015650D02*
Y015750D01*
X004450Y016200D02*
X004550D01*
X004500Y016150D02*
Y016250D01*
X010850Y015600D02*
X010950D01*
X010900Y015550D02*
Y015650D01*
X023955Y012945D02*
X024055D01*
X024005Y012895D02*
Y012995D01*
X023950Y013500D02*
X024050D01*
X024000Y013450D02*
Y013550D01*
M02*