%FSDAX24Y24*%
%MOIN*%
%SFA1B1*%

%IPPOS*%
%ADD10C,0.010000*%
%ADD11C,0.009843*%
%ADD12C,0.005984*%
%ADD13C,0.006000*%
%ADD14C,0.007874*%
%ADD15C,0.008000*%
%ADD16C,0.005905*%
%ADD17C,0.005000*%
%ADD84C,0.005000*%
%ADD85C,0.010000*%
%ADD86C,0.020000*%
%LNpcb_baseboard-1*%
%LPD*%
G54D10*
X019938Y015018D02*
D01*
X019945Y015018*
X019951Y015019*
X019958Y015020*
X019964Y015021*
X019970Y015023*
X019977Y015026*
X019982Y015029*
X019988Y015032*
X019993Y015036*
X019999Y015040*
X020003Y015044*
X020008Y015049*
X020012Y015054*
X020016Y015059*
X020019Y015065*
X020023Y015070*
X020025Y015076*
X020027Y015082*
X020029Y015089*
X020031Y015095*
X020031Y015102*
X020032Y015108*
Y015115*
X020031Y015121*
X020031Y015128*
X020029Y015134*
X020027Y015140*
X020025Y015146*
X020023Y015152*
X020019Y015158*
X020016Y015164*
X020012Y015169*
X020008Y015174*
X020003Y015179*
X019999Y015183*
X019993Y015187*
X019988Y015191*
X019982Y015194*
X019977Y015197*
X019970Y015199*
X019964Y015201*
X019958Y015203*
X019951Y015204*
X019945Y015205*
X019938Y015205*
X003783Y014400D02*
D01*
X003782Y014426*
X003780Y014453*
X003775Y014480*
X003768Y014506*
X003760Y014531*
X003750Y014556*
X003738Y014580*
X003725Y014604*
X003710Y014626*
X003693Y014647*
X003675Y014667*
X003656Y014686*
X003635Y014703*
X003614Y014719*
X003591Y014733*
X003567Y014746*
X003543Y014756*
X003517Y014766*
X003491Y014773*
X003465Y014779*
X003439Y014782*
X003412Y014784*
X003385*
X003358Y014782*
X003331Y014779*
X003305Y014773*
X003279Y014766*
X003254Y014756*
X003230Y014746*
X003206Y014733*
X003183Y014719*
X003161Y014703*
X003141Y014686*
X003121Y014667*
X003103Y014647*
X003087Y014626*
X003072Y014604*
X003058Y014580*
X003047Y014556*
X003037Y014531*
X003028Y014506*
X003022Y014480*
X003017Y014453*
X003014Y014426*
X003013Y014400*
X011475Y017404D02*
D01*
X011475Y017406*
X011475Y017407*
X011475Y017409*
X011475Y017411*
X011474Y017413*
X011473Y017414*
X011473Y017416*
X011472Y017417*
X011471Y017419*
X011470Y017420*
X011468Y017421*
X011467Y017423*
X011466Y017424*
X011464Y017425*
X011463Y017426*
X011461Y017427*
X011460Y017427*
X011458Y017428*
X011456Y017428*
X011455Y017429*
X011453Y017429*
X011451Y017429*
X011449*
X011448Y017429*
X011446Y017429*
X011444Y017428*
X011443Y017428*
X011441Y017427*
X011439Y017427*
X011438Y017426*
X011436Y017425*
X011435Y017424*
X011433Y017423*
X011432Y017421*
X011431Y017420*
X011430Y017419*
X011429Y017417*
X011428Y017416*
X011427Y017414*
X011427Y017413*
X011426Y017411*
X011426Y017409*
X011425Y017407*
X011425Y017406*
X011425Y017404*
X011425Y017402*
X011425Y017400*
X011426Y017399*
X011426Y017397*
X011427Y017395*
X011427Y017394*
X011428Y017392*
X011429Y017391*
X011430Y017389*
X011431Y017388*
X011432Y017386*
X011433Y017385*
X011435Y017384*
X011436Y017383*
X011438Y017382*
X011439Y017381*
X011441Y017381*
X011443Y017380*
X011444Y017379*
X011446Y017379*
X011448Y017379*
X011449Y017379*
X011451*
X011453Y017379*
X011455Y017379*
X011456Y017379*
X011458Y017380*
X011460Y017381*
X011461Y017381*
X011463Y017382*
X011464Y017383*
X011466Y017384*
X011467Y017385*
X011468Y017386*
X011470Y017388*
X011471Y017389*
X011472Y017391*
X011473Y017392*
X011473Y017394*
X011474Y017395*
X011475Y017397*
X011475Y017399*
X011475Y017400*
X011475Y017402*
X011475Y017404*
X019938Y015018D02*
Y015350D01*
Y014870D02*
Y015205D01*
Y014870D02*
X021061D01*
Y015350*
X019938D02*
X021061D01*
X002046Y014400D02*
Y019000D01*
X004746*
Y014400D02*
Y019000D01*
X003794Y014400D02*
X004746D01*
X002046D02*
X003013D01*
X012404Y016601D02*
Y016949D01*
X011711Y016145D02*
X012341D01*
X011719Y017412D02*
X012325D01*
X021380Y032565D02*
X025380D01*
X021380Y029565D02*
Y032565D01*
X025380Y029565D02*
Y032565D01*
X021380Y029565D02*
X025380D01*
X013410Y032565D02*
X017410D01*
X013410Y029565D02*
Y032565D01*
X017410Y029565D02*
Y032565D01*
X013410Y029565D02*
X017410D01*
X017380Y032565D02*
X021380D01*
X017380Y029565D02*
Y032565D01*
X021380Y029565D02*
Y032565D01*
X017380Y029565D02*
X021380D01*
X007400D02*
X013400D01*
X007400Y032565D02*
X013400D01*
X007400Y029565D02*
Y032565D01*
X013400Y029565D02*
Y032565D01*
X001400D02*
X007400D01*
X001400Y029565D02*
X007400D01*
Y032565*
X001400Y029565D02*
Y032565D01*
X001385Y003900D02*
X005385D01*
X001385Y000900D02*
Y003900D01*
X005385Y000900D02*
Y003900D01*
X001385Y000900D02*
X005385D01*
X005370Y003900D02*
X009370D01*
X005370Y000900D02*
Y003900D01*
X009370Y000900D02*
Y003900D01*
X005370Y000900D02*
X009370D01*
X021370D02*
Y003900D01*
X015370Y000900D02*
Y003900D01*
X021370*
X015370Y000900D02*
X021370D01*
X009360D02*
Y003900D01*
X015360Y000900D02*
Y003900D01*
X009360Y000900D02*
X015360D01*
X009360Y003900D02*
X015360D01*
X021370D02*
X025370D01*
X021370Y000900D02*
Y003900D01*
X025370Y000900D02*
Y003900D01*
X021370Y000900D02*
X025370D01*
X006970Y005410D02*
Y005809D01*
X007069*
X007169Y005709*
Y005410*
Y005709*
X007269Y005809*
X007369Y005709*
Y005410*
X007869D02*
X007669D01*
X007569Y005509*
Y005709*
X007669Y005809*
X007869*
X007969Y005709*
Y005609*
X007569*
X008169Y005410D02*
Y005809D01*
X008269*
X008369Y005709*
Y005410*
Y005709*
X008469Y005809*
X008569Y005709*
Y005410*
X008769Y006009D02*
Y005410D01*
X009069*
X009169Y005509*
Y005609*
Y005709*
X009069Y005809*
X008769*
X009669Y005410D02*
X009469D01*
X009369Y005509*
Y005709*
X009469Y005809*
X009669*
X009769Y005709*
Y005609*
X009369*
X009969Y005809D02*
Y005410D01*
Y005609*
X010069Y005709*
X010168Y005809*
X010268*
X011268Y005410D02*
X011468D01*
X011568Y005509*
Y005709*
X011468Y005809*
X011268*
X011168Y005709*
Y005509*
X011268Y005410*
X011868D02*
Y005909D01*
Y005709*
X011768*
X011968*
X011868*
Y005909*
X011968Y006009*
X012868Y005410D02*
X013068D01*
X012968*
Y005809*
X012868*
X013367Y005410D02*
Y006009D01*
X013567Y005809*
X013767Y006009*
Y005410*
X014267D02*
X014067D01*
X013967Y005509*
Y005709*
X014067Y005809*
X014267*
X014367Y005709*
Y005609*
X013967*
X014967Y006009D02*
Y005410D01*
X014667*
X014567Y005509*
Y005709*
X014667Y005809*
X014967*
X015167Y005410D02*
X015367D01*
X015267*
Y005809*
X015167*
X015767D02*
X015967D01*
X016067Y005709*
Y005410*
X015767*
X015667Y005509*
X015767Y005609*
X016067*
X017266Y005909D02*
X017166Y006009D01*
X016966*
X016866Y005909*
Y005509*
X016966Y005410*
X017166*
X017266Y005509*
Y005709*
X017066*
X017466Y005809D02*
Y005410D01*
Y005609*
X017566Y005709*
X017666Y005809*
X017766*
X018166Y005410D02*
X018366D01*
X018466Y005509*
Y005709*
X018366Y005809*
X018166*
X018066Y005709*
Y005509*
X018166Y005410*
X018666Y005809D02*
Y005509D01*
X018766Y005410*
X019066*
Y005809*
X019266Y005210D02*
Y005809D01*
X019565*
X019665Y005709*
Y005509*
X019565Y005410*
X019266*
X009320Y007079D02*
Y006779D01*
X009419Y006680*
X009519Y006779*
X009619Y006680*
X009719Y006779*
Y007079*
X009919D02*
Y006779D01*
X010019Y006680*
X010119Y006779*
X010219Y006680*
X010319Y006779*
Y007079*
X010519D02*
Y006779D01*
X010619Y006680*
X010719Y006779*
X010819Y006680*
X010919Y006779*
Y007079*
X011119Y006680D02*
Y006779D01*
X011219*
Y006680*
X011119*
X011619D02*
X011819D01*
X011719*
Y007079*
X011619*
X012119Y006680D02*
Y007079D01*
X012219*
X012319Y006979*
Y006680*
Y006979*
X012419Y007079*
X012518Y006979*
Y006680*
X013018D02*
X012818D01*
X012718Y006779*
Y006979*
X012818Y007079*
X013018*
X013118Y006979*
Y006879*
X012718*
X013718Y007279D02*
Y006680D01*
X013418*
X013318Y006779*
Y006979*
X013418Y007079*
X013718*
X013918Y006680D02*
X014118D01*
X014018*
Y007079*
X013918*
X014518D02*
X014718D01*
X014818Y006979*
Y006680*
X014518*
X014418Y006779*
X014518Y006879*
X014818*
X015018Y006680D02*
Y006779D01*
X015118*
Y006680*
X015018*
X015517Y007279D02*
Y006680D01*
X015817*
X015917Y006779*
Y006879*
Y006979*
X015817Y007079*
X015517*
X016217D02*
X016417D01*
X016517Y006979*
Y006680*
X016217*
X016117Y006779*
X016217Y006879*
X016517*
X020459Y011819D02*
X020259D01*
X020160Y011719*
Y011319*
X020259Y011220*
X020459*
X020559Y011319*
Y011719*
X020459Y011819*
X021159Y011719D02*
X021059Y011819D01*
X020859*
X020759Y011719*
Y011319*
X020859Y011220*
X021059*
X021159Y011319*
X021359Y011819D02*
X021759D01*
X021559*
Y011220*
X021959D02*
Y011319D01*
X022059*
Y011220*
X021959*
X023458D02*
X023059D01*
X023458Y011619*
Y011719*
X023358Y011819*
X023159*
X023059Y011719*
X023658D02*
X023758Y011819D01*
X023958*
X024058Y011719*
Y011319*
X023958Y011220*
X023758*
X023658Y011319*
Y011719*
X024658Y011220D02*
X024258D01*
X024658Y011619*
Y011719*
X024558Y011819*
X024358*
X024258Y011719*
X025158Y011220D02*
Y011819D01*
X024858Y011519*
X025258*
X025458Y011220D02*
Y011319D01*
X025558*
Y011220*
X025458*
X001799Y028019D02*
X001599D01*
X001699*
Y027519*
X001599Y027420*
X001499*
X001400Y027519*
X001999Y028019D02*
Y027519D01*
X002099Y027420*
X002299*
X002399Y027519*
Y028019*
X002599D02*
Y027420D01*
X002899*
X002999Y027519*
Y027619*
X002899Y027719*
X002599*
X002899*
X002999Y027819*
Y027919*
X002899Y028019*
X002599*
X003599D02*
X003199D01*
Y027420*
X003599*
X003199Y027719D02*
X003399D01*
X003799Y027420D02*
Y028019D01*
X004099*
X004199Y027919*
Y027719*
X004099Y027619*
X003799*
X003999D02*
X004199Y027420D01*
X004399D02*
Y027819D01*
X004598Y028019*
X004798Y027819*
Y027420*
Y027719*
X004399*
X005998Y028019D02*
Y027420D01*
X005698*
X005598Y027519*
Y027719*
X005698Y027819*
X005998*
X006198Y027420D02*
Y027519D01*
X006298*
Y027420*
X006198*
X006798D02*
X006998D01*
X007098Y027519*
Y027719*
X006998Y027819*
X006798*
X006698Y027719*
Y027519*
X006798Y027420*
X007298D02*
Y027519D01*
X007398*
Y027420*
X007298*
X007897D02*
X008097D01*
X008197Y027519*
Y027719*
X008097Y027819*
X007897*
X007797Y027719*
Y027519*
X007897Y027420*
X008397D02*
Y027519D01*
X008497*
Y027420*
X008397*
X009897Y027919D02*
X009797Y028019D01*
X009597*
X009497Y027919*
Y027819*
X009597Y027719*
X009797*
X009897Y027619*
Y027519*
X009797Y027420*
X009597*
X009497Y027519*
X010197Y027819D02*
X010397D01*
X010497Y027719*
Y027420*
X010197*
X010097Y027519*
X010197Y027619*
X010497*
X010697Y027819D02*
Y027420D01*
Y027619*
X010796Y027719*
X010896Y027819*
X010996*
X011396D02*
X011596D01*
X011696Y027719*
Y027420*
X011396*
X011296Y027519*
X011396Y027619*
X011696*
X011896Y027220D02*
X011996D01*
X012096Y027320*
Y027819*
X012796Y027420D02*
X012596D01*
X012496Y027519*
Y027719*
X012596Y027819*
X012796*
X012896Y027719*
Y027619*
X012496*
X013096Y027819D02*
X013296Y027420D01*
X013496Y027819*
X013795Y027420D02*
X013995D01*
X014095Y027519*
Y027719*
X013995Y027819*
X013795*
X013696Y027719*
Y027519*
X013795Y027420*
X001400Y026879D02*
Y026280D01*
X001699*
X001799Y026379*
Y026479*
X001699Y026579*
X001400*
X001699*
X001799Y026679*
Y026779*
X001699Y026879*
X001400*
X002099Y026280D02*
X002299D01*
X002399Y026379*
Y026579*
X002299Y026679*
X002099*
X001999Y026579*
Y026379*
X002099Y026280*
X002599D02*
X002899D01*
X002999Y026379*
X002899Y026479*
X002699*
X002599Y026579*
X002699Y026679*
X002999*
X003199Y026280D02*
Y026679D01*
X003499*
X003599Y026579*
Y026280*
X003899Y026679D02*
X004099D01*
X004199Y026579*
Y026280*
X003899*
X003799Y026379*
X003899Y026479*
X004199*
X004998Y026280D02*
X005198D01*
X005098*
Y026679*
X004998*
X006098Y026879D02*
Y026280D01*
Y026579*
X006498*
Y026879*
Y026280*
X006998D02*
X006798D01*
X006698Y026379*
Y026579*
X006798Y026679*
X006998*
X007098Y026579*
Y026479*
X006698*
X007298Y026679D02*
Y026280D01*
Y026479*
X007398Y026579*
X007498Y026679*
X007597*
X008297D02*
X007997D01*
X007897Y026579*
Y026379*
X007997Y026280*
X008297*
X008797D02*
X008597D01*
X008497Y026379*
Y026579*
X008597Y026679*
X008797*
X008897Y026579*
Y026479*
X008497*
X009297Y026080D02*
X009397D01*
X009497Y026180*
Y026679*
X009197*
X009097Y026579*
Y026379*
X009197Y026280*
X009497*
X009797D02*
X009997D01*
X010097Y026379*
Y026579*
X009997Y026679*
X009797*
X009697Y026579*
Y026379*
X009797Y026280*
X010297Y026679D02*
X010497Y026280D01*
X010697Y026679*
X010896Y026280D02*
X011096D01*
X010996*
Y026679*
X010896*
X011396Y026280D02*
Y026679D01*
X011696*
X011796Y026579*
Y026280*
X012096Y026679D02*
X012296D01*
X012396Y026579*
Y026280*
X012096*
X011996Y026379*
X012096Y026479*
X012396*
X001980Y011819D02*
Y011220D01*
X002279*
X002379Y011319*
Y011719*
X002279Y011819*
X001980*
X002979D02*
X002579D01*
Y011220*
X002979*
X002579Y011519D02*
X002779D01*
X003179D02*
X003579D01*
X004179Y011220D02*
X003779D01*
X004179Y011619*
Y011719*
X004079Y011819*
X003879*
X003779Y011719*
X004379Y011220D02*
X004579D01*
X004479*
Y011819*
X004379Y011719*
X004879Y011220D02*
X005079D01*
X004979*
Y011819*
X004879Y011719*
X005378D02*
X005478Y011819D01*
X005678*
X005778Y011719*
Y011319*
X005678Y011220*
X005478*
X005378Y011319*
Y011719*
X006378Y011220D02*
X005978D01*
X006378Y011619*
Y011719*
X006278Y011819*
X006078*
X005978Y011719*
X006878Y011220D02*
Y011819D01*
X006578Y011519*
X006978*
G54D11*
X014327Y019111D02*
D01*
X014327Y019114*
X014327Y019117*
X014326Y019121*
X014325Y019124*
X014324Y019127*
X014323Y019131*
X014321Y019134*
X014320Y019137*
X014318Y019139*
X014316Y019142*
X014313Y019145*
X014311Y019147*
X014308Y019149*
X014305Y019151*
X014302Y019153*
X014299Y019155*
X014296Y019156*
X014293Y019157*
X014290Y019158*
X014286Y019159*
X014283Y019159*
X014280Y019160*
X014276*
X014273Y019159*
X014269Y019159*
X014266Y019158*
X014263Y019157*
X014259Y019156*
X014256Y019155*
X014253Y019153*
X014250Y019151*
X014248Y019149*
X014245Y019147*
X014242Y019145*
X014240Y019142*
X014238Y019139*
X014236Y019137*
X014234Y019134*
X014233Y019131*
X014232Y019127*
X014231Y019124*
X014230Y019121*
X014229Y019117*
X014229Y019114*
X014229Y019111*
X014229Y019107*
X014229Y019104*
X014230Y019100*
X014231Y019097*
X014232Y019094*
X014233Y019091*
X014234Y019087*
X014236Y019084*
X014238Y019082*
X014240Y019079*
X014242Y019076*
X014245Y019074*
X014248Y019072*
X014250Y019070*
X014253Y019068*
X014256Y019066*
X014259Y019065*
X014263Y019064*
X014266Y019063*
X014269Y019062*
X014273Y019062*
X014276Y019061*
X014280*
X014283Y019062*
X014286Y019062*
X014290Y019063*
X014293Y019064*
X014296Y019065*
X014299Y019066*
X014302Y019068*
X014305Y019070*
X014308Y019072*
X014311Y019074*
X014313Y019076*
X014316Y019079*
X014318Y019082*
X014320Y019084*
X014321Y019087*
X014323Y019091*
X014324Y019094*
X014325Y019097*
X014326Y019100*
X014327Y019104*
X014327Y019107*
X014327Y019111*
G54D12*
X021914Y018615D02*
X023576D01*
X024368D02*
X026030D01*
X024368Y014499D02*
X025188D01*
X022755D02*
X023576D01*
G54D13*
X021914Y015340D02*
Y018615D01*
Y015340D02*
X022755Y014499D01*
X026030Y015340D02*
Y018615D01*
X025188Y014499D02*
X026030Y015340D01*
X017239Y014591D02*
Y015100D01*
X016689Y014041D02*
X017239Y014591D01*
X014580Y014041D02*
X016689D01*
X014580D02*
X014583Y015092D01*
X017233Y015640D02*
X017238Y016150D01*
X016689Y016700D02*
X017238Y016150D01*
X014580Y016700D02*
X016689D01*
X014580D02*
X014588Y015662D01*
X008608Y018940D02*
X009963D01*
Y016315D02*
Y018940D01*
X009280Y015632D02*
X009963Y016315D01*
X008608Y015632D02*
X009280D01*
X006636Y018940D02*
X007991D01*
X006636Y016315D02*
Y018940D01*
Y016315D02*
X007319Y015632D01*
X007991*
X021111Y017737D02*
X021119Y016700D01*
X019010D02*
X021119D01*
X018461Y017249D02*
X019010Y016700D01*
X018461Y017249D02*
X018466Y017759D01*
X021116Y018307D02*
X021119Y019358D01*
X019010D02*
X021119D01*
X018460Y018808D02*
X019010Y019358D01*
X018460Y018299D02*
Y018808D01*
G54D14*
X021169Y016142D02*
Y016457D01*
Y013842D02*
Y014157D01*
X016857Y016886D02*
Y019524D01*
X015400Y016886D02*
X016857D01*
X015400D02*
Y019524D01*
X016857*
X012442Y014730D02*
X012757D01*
X010483Y016325D02*
Y016483D01*
X010404D02*
X010483D01*
X010916D02*
X010995D01*
X010916Y016325D02*
Y016483D01*
X010995Y016325D02*
Y017074D01*
X010404Y016325D02*
Y017074D01*
X010916D02*
X010995D01*
X010916Y016325D02*
X010995D01*
X010404Y017074D02*
X010483D01*
X010404Y016325D02*
X010483D01*
X007130Y014942D02*
Y015257D01*
X002260Y010162D02*
X004260D01*
X002260Y008162D02*
Y010162D01*
X004260Y008162D02*
Y010162D01*
X002260Y008162D02*
X004260D01*
X006390Y010162D02*
X008390D01*
X006390Y008162D02*
Y010162D01*
X008390Y008162D02*
Y010162D01*
X006390Y008162D02*
X008390D01*
X011040D02*
Y010162D01*
X016040Y008162D02*
Y010162D01*
X011040Y008162D02*
X016040D01*
X011040Y010162D02*
X016040D01*
X017420D02*
X019336D01*
X017420D02*
X020420D01*
X017420Y008162D02*
X020420D01*
Y010162*
X017420Y008162D02*
Y010162D01*
X023643Y008162D02*
X025560D01*
X022560D02*
X025560D01*
X022560Y010162D02*
X025560D01*
X022560Y008162D02*
Y010162D01*
X025560Y008162D02*
Y010162D01*
X001200Y025302D02*
X003116D01*
X001200D02*
X004200D01*
X001200Y023302D02*
X004200D01*
Y025302*
X001200Y023302D02*
Y025302D01*
X007424Y023302D02*
X009340D01*
X006340D02*
X009340D01*
X006340Y025302D02*
X009340D01*
X006340Y023302D02*
Y025302D01*
X009340Y023302D02*
Y025302D01*
X015700Y023302D02*
Y025302D01*
X010700Y023302D02*
Y025302D01*
X015700*
X010700Y023302D02*
X015700D01*
X018340D02*
X020340D01*
Y025302*
X018340Y023302D02*
Y025302D01*
X020340*
X022500Y023302D02*
X024500D01*
Y025302*
X022500Y023302D02*
Y025302D01*
X024500*
X009700Y019950D02*
Y021950D01*
X018700Y019950D02*
Y021950D01*
X009700Y019950D02*
X018700D01*
X009700Y021950D02*
X018700D01*
X006500Y013300D02*
X009500D01*
Y014300*
X006500D02*
X009500D01*
X006500Y013300D02*
Y014300D01*
X013642Y019369D02*
X013957D01*
X021342Y015769D02*
X021657D01*
X013642Y016330D02*
X013957D01*
G54D15*
X017996Y016220D02*
Y014645D01*
X019650D02*
Y016220D01*
X001600Y000200D02*
Y000649D01*
X001899Y000200*
Y000649*
X002274D02*
X002124D01*
X002049Y000574*
Y000274*
X002124Y000200*
X002274*
X002349Y000274*
Y000574*
X002274Y000649*
X002724Y000200D02*
Y000649D01*
X002499Y000424*
X002799*
X003699Y000574D02*
X003624Y000649D01*
X003474*
X003399Y000574*
Y000274*
X003474Y000200*
X003624*
X003699Y000274*
X004074Y000649D02*
X003924D01*
X003849Y000574*
Y000274*
X003924Y000200*
X004074*
X004149Y000274*
Y000574*
X004074Y000649*
X004299Y000200D02*
Y000649D01*
X004449Y000499*
X004599Y000649*
Y000200*
X004973D02*
Y000649D01*
X004748Y000424*
X005048*
X005648Y000200D02*
Y000649D01*
X005948Y000200*
Y000649*
X006323D02*
X006173D01*
X006098Y000574*
Y000274*
X006173Y000200*
X006323*
X006398Y000274*
Y000574*
X006323Y000649*
X006548Y000574D02*
X006623Y000649D01*
X006773*
X006848Y000574*
Y000499*
X006773Y000424*
X006698*
X006773*
X006848Y000349*
Y000274*
X006773Y000200*
X006623*
X006548Y000274*
X007748Y000574D02*
X007673Y000649D01*
X007523*
X007448Y000574*
Y000274*
X007523Y000200*
X007673*
X007748Y000274*
X008122Y000649D02*
X007972D01*
X007897Y000574*
Y000274*
X007972Y000200*
X008122*
X008197Y000274*
Y000574*
X008122Y000649*
X008347Y000200D02*
Y000649D01*
X008497Y000499*
X008647Y000649*
Y000200*
X008797Y000574D02*
X008872Y000649D01*
X009022*
X009097Y000574*
Y000499*
X009022Y000424*
X008947*
X009022*
X009097Y000349*
Y000274*
X009022Y000200*
X008872*
X008797Y000274*
X015900Y000200D02*
Y000649D01*
X016199Y000200*
Y000649*
X016649Y000574D02*
X016574Y000649D01*
X016424*
X016349Y000574*
Y000274*
X016424Y000200*
X016574*
X016649Y000274*
X016799Y000200D02*
X016949D01*
X016874*
Y000649*
X016799Y000574*
X017924D02*
X017849Y000649D01*
X017699*
X017624Y000574*
Y000274*
X017699Y000200*
X017849*
X017924Y000274*
X018299Y000649D02*
X018149D01*
X018074Y000574*
Y000274*
X018149Y000200*
X018299*
X018374Y000274*
Y000574*
X018299Y000649*
X018524Y000200D02*
Y000649D01*
X018674Y000499*
X018824Y000649*
Y000200*
X018974D02*
X019123D01*
X019048*
Y000649*
X018974Y000574*
X019798Y000200D02*
Y000649D01*
X020098Y000200*
Y000649*
X020473D02*
X020323D01*
X020248Y000574*
Y000274*
X020323Y000200*
X020473*
X020548Y000274*
Y000574*
X020473Y000649*
X020698Y000200D02*
X020848D01*
X020773*
Y000649*
X020698Y000574*
X021600Y000424D02*
X021899D01*
X021749Y000574D02*
Y000274D01*
X022049Y000200D02*
X022199D01*
X022124*
Y000649*
X022049Y000574*
X022724Y000200D02*
X022424D01*
X022724Y000499*
Y000574*
X022649Y000649*
X022499*
X022424Y000574*
X022874Y000649D02*
Y000349D01*
X023024Y000200*
X023174Y000349*
Y000649*
X024074Y000574D02*
X023999Y000649D01*
X023849*
X023774Y000574*
Y000274*
X023849Y000200*
X023999*
X024074Y000274*
Y000424*
X023924*
X024224Y000200D02*
Y000649D01*
X024524Y000200*
Y000649*
X024674D02*
Y000200D01*
X024898*
X024973Y000274*
Y000574*
X024898Y000649*
X024674*
X009821Y000200D02*
Y000649D01*
X010121Y000200*
Y000649*
X010496D02*
X010346D01*
X010271Y000574*
Y000274*
X010346Y000200*
X010496*
X010571Y000274*
Y000574*
X010496Y000649*
X011021Y000200D02*
X010721D01*
X011021Y000499*
Y000574*
X010946Y000649*
X010796*
X010721Y000574*
X011921D02*
X011846Y000649D01*
X011696*
X011621Y000574*
Y000274*
X011696Y000200*
X011846*
X011921Y000274*
X012295Y000649D02*
X012145D01*
X012071Y000574*
Y000274*
X012145Y000200*
X012295*
X012370Y000274*
Y000574*
X012295Y000649*
X012520Y000200D02*
Y000649D01*
X012670Y000499*
X012820Y000649*
Y000200*
X013270D02*
X012970D01*
X013270Y000499*
Y000574*
X013195Y000649*
X013045*
X012970Y000574*
X013870Y000200D02*
Y000649D01*
X014170Y000200*
Y000649*
X014620Y000574D02*
X014545Y000649D01*
X014395*
X014320Y000574*
Y000274*
X014395Y000200*
X014545*
X014620Y000274*
X015070Y000200D02*
X014770D01*
X015070Y000499*
Y000574*
X014995Y000649*
X014845*
X014770Y000574*
X021100Y033200D02*
Y032750D01*
X020800Y033200*
Y032750*
X020425D02*
X020575D01*
X020650Y032825*
Y033125*
X020575Y033200*
X020425*
X020350Y033125*
Y032825*
X020425Y032750*
X020200Y032825D02*
X020125Y032750D01*
X019975*
X019900Y032825*
Y032900*
X019975Y032975*
X019900Y033050*
Y033125*
X019975Y033200*
X020125*
X020200Y033125*
Y033050*
X020125Y032975*
X020200Y032900*
Y032825*
X020125Y032975D02*
X019975D01*
X019000Y032825D02*
X019075Y032750D01*
X019225*
X019300Y032825*
Y033125*
X019225Y033200*
X019075*
X019000Y033125*
X018625Y032750D02*
X018775D01*
X018850Y032825*
Y033125*
X018775Y033200*
X018625*
X018550Y033125*
Y032825*
X018625Y032750*
X018400Y033200D02*
Y032750D01*
X018250Y032900*
X018100Y032750*
Y033200*
X017951Y032825D02*
X017876Y032750D01*
X017726*
X017651Y032825*
Y032900*
X017726Y032975*
X017651Y033050*
Y033125*
X017726Y033200*
X017876*
X017951Y033125*
Y033050*
X017876Y032975*
X017951Y032900*
Y032825*
X017876Y032975D02*
X017726D01*
X017051Y033200D02*
Y032750D01*
X016751Y033200*
Y032750*
X016376D02*
X016526D01*
X016601Y032825*
Y033125*
X016526Y033200*
X016376*
X016301Y033125*
Y032825*
X016376Y032750*
X016151D02*
X015851D01*
Y032825*
X016151Y033125*
Y033200*
X014951Y032825D02*
X015026Y032750D01*
X015176*
X015251Y032825*
Y033125*
X015176Y033200*
X015026*
X014951Y033125*
X014577Y032750D02*
X014727D01*
X014802Y032825*
Y033125*
X014727Y033200*
X014577*
X014502Y033125*
Y032825*
X014577Y032750*
X014352Y033200D02*
Y032750D01*
X014202Y032900*
X014052Y032750*
Y033200*
X013902Y032750D02*
X013602D01*
Y032825*
X013902Y033125*
Y033200*
X013134D02*
Y032750D01*
X012834Y033200*
Y032750*
X012460D02*
X012610D01*
X012685Y032825*
Y033125*
X012610Y033200*
X012460*
X012385Y033125*
Y032825*
X012460Y032750*
X011935D02*
X012085Y032825D01*
X012235Y032975*
Y033125*
X012160Y033200*
X012010*
X011935Y033125*
Y033050*
X012010Y032975*
X012235*
X011035Y032825D02*
X011110Y032750D01*
X011260*
X011335Y032825*
Y033125*
X011260Y033200*
X011110*
X011035Y033125*
X010660Y032750D02*
X010810D01*
X010885Y032825*
Y033125*
X010810Y033200*
X010660*
X010585Y033125*
Y032825*
X010660Y032750*
X010435Y033200D02*
Y032750D01*
X010285Y032900*
X010135Y032750*
Y033200*
X009685Y032750D02*
X009835Y032825D01*
X009985Y032975*
Y033125*
X009910Y033200*
X009760*
X009685Y033125*
Y033050*
X009760Y032975*
X009985*
X009086Y033200D02*
Y032750D01*
X008786Y033200*
Y032750*
X008336Y032825D02*
X008411Y032750D01*
X008561*
X008636Y032825*
Y033125*
X008561Y033200*
X008411*
X008336Y033125*
X007886Y032750D02*
X008036Y032825D01*
X008186Y032975*
Y033125*
X008111Y033200*
X007961*
X007886Y033125*
Y033050*
X007961Y032975*
X008186*
X007100Y033200D02*
Y032750D01*
X006800Y033200*
Y032750*
X006350Y032825D02*
X006425Y032750D01*
X006575*
X006650Y032825*
Y033125*
X006575Y033200*
X006425*
X006350Y033125*
X005900Y032750D02*
X006200D01*
Y032975*
X006050Y032900*
X005975*
X005900Y032975*
Y033125*
X005975Y033200*
X006125*
X006200Y033125*
X005000Y032825D02*
X005075Y032750D01*
X005225*
X005300Y032825*
Y033125*
X005225Y033200*
X005075*
X005000Y033125*
X004625Y032750D02*
X004775D01*
X004850Y032825*
Y033125*
X004775Y033200*
X004625*
X004550Y033125*
Y032825*
X004625Y032750*
X004400Y033200D02*
Y032750D01*
X004250Y032900*
X004100Y032750*
Y033200*
X003651Y032750D02*
X003951D01*
Y032975*
X003801Y032900*
X003726*
X003651Y032975*
Y033125*
X003726Y033200*
X003876*
X003951Y033125*
X003051Y033200D02*
Y032750D01*
X002751Y033200*
Y032750*
X002376D02*
X002526D01*
X002601Y032825*
Y033125*
X002526Y033200*
X002376*
X002301Y033125*
Y032825*
X002376Y032750*
X001851D02*
X002151D01*
Y032975*
X002001Y032900*
X001926*
X001851Y032975*
Y033125*
X001926Y033200*
X002076*
X002151Y033125*
X025200Y033200D02*
Y032933D01*
X025066Y032800*
X024933Y032933*
Y033200*
Y033000*
X025200*
X024400Y033200D02*
Y032800D01*
X024200*
X024133Y032866*
Y033000*
X024200Y033066*
X024400*
X024266D02*
X024133Y033200D01*
X023733Y032866D02*
X023800Y032800D01*
X023933*
X024000Y032866*
Y032933*
X023933Y033000*
X023800*
X023733Y033066*
Y033133*
X023800Y033200*
X023933*
X024000Y033133*
X023400Y033200D02*
Y032800D01*
X023600Y033000*
X023333*
X023200Y032866D02*
X023134Y032800D01*
X023000*
X022934Y032866*
Y032933*
X023000Y033000*
X022934Y033066*
Y033133*
X023000Y033200*
X023134*
X023200Y033133*
Y033066*
X023134Y033000*
X023200Y032933*
Y032866*
X023134Y033000D02*
X023000D01*
X022534Y032800D02*
X022800D01*
Y033000*
X022667Y032933*
X022600*
X022534Y033000*
Y033133*
X022600Y033200*
X022734*
X022800Y033133*
X022001Y032800D02*
Y033200D01*
X021801*
X021734Y033133*
Y033066*
X021801Y033000*
X022001*
X021801*
X021734Y032933*
Y032866*
X021801Y032800*
X022001*
G54D16*
X011243Y017682D02*
X012621D01*
X011243Y019100D02*
X012621D01*
G54D17*
X002160Y009696D02*
X002126Y009663D01*
X002060*
X002026Y009696*
Y009729*
X002060Y009763*
X002093*
X002060*
X002026Y009796*
Y009829*
X002060Y009862*
X002126*
X002160Y009829*
X002060Y008862D02*
Y008663D01*
X002160Y008763*
X002026*
X004626Y008862D02*
X004760D01*
X004626Y008729*
Y008696*
X004660Y008663*
X004726*
X004760Y008696*
X004560Y009862D02*
X004493D01*
X004526*
Y009663*
X004560Y009696*
X006290D02*
X006256Y009663D01*
X006190*
X006156Y009696*
Y009729*
X006190Y009763*
X006223*
X006190*
X006156Y009796*
Y009829*
X006190Y009862*
X006256*
X006290Y009829*
X006190Y008862D02*
Y008663D01*
X006290Y008763*
X006156*
X008756Y008862D02*
X008890D01*
X008756Y008729*
Y008696*
X008790Y008663*
X008856*
X008890Y008696*
X008690Y009862D02*
X008623D01*
X008656*
Y009663*
X008690Y009696*
X016406Y008862D02*
X016540D01*
X016406Y008729*
Y008696*
X016440Y008663*
X016506*
X016540Y008696*
X016340Y009862D02*
X016273D01*
X016306*
Y009663*
X016340Y009696*
X010940Y009829D02*
X010906Y009862D01*
X010840*
X010806Y009829*
Y009696*
X010840Y009663*
X010906*
X010940Y009696*
Y009729*
X010906Y009763*
X010806*
X010940Y008862D02*
X010873D01*
X010906*
Y008663*
X010940Y008696*
X010773D02*
X010740Y008663D01*
X010673*
X010640Y008696*
Y008829*
X010673Y008862*
X010740*
X010773Y008829*
Y008696*
X020720Y009862D02*
X020653D01*
X020686*
Y009663*
X020720Y009696*
X020786Y008862D02*
X020920D01*
X020786Y008729*
Y008696*
X020820Y008663*
X020886*
X020920Y008696*
X017186Y009663D02*
X017320D01*
Y009763*
X017253Y009729*
X017220*
X017186Y009763*
Y009829*
X017220Y009862*
X017286*
X017320Y009829*
X017186Y008663D02*
X017253Y008696D01*
X017320Y008763*
Y008829*
X017286Y008862*
X017220*
X017186Y008829*
Y008796*
X017220Y008763*
X017320*
X022260Y008462D02*
X022326D01*
X022293*
Y008662*
X022260Y008629*
X022193Y009462D02*
X022060D01*
X022193Y009596*
Y009629*
X022159Y009662*
X022093*
X022060Y009629*
X025793Y008662D02*
X025660D01*
Y008562*
X025726Y008596*
X025759*
X025793Y008562*
Y008496*
X025759Y008462*
X025693*
X025660Y008496*
X025793Y009662D02*
X025726Y009629D01*
X025660Y009562*
Y009496*
X025693Y009462*
X025759*
X025793Y009496*
Y009529*
X025759Y009562*
X025660*
X004500Y025002D02*
X004433D01*
X004466*
Y024803*
X004500Y024836*
X004566Y024002D02*
X004700D01*
X004566Y023869*
Y023836*
X004600Y023803*
X004666*
X004700Y023836*
X000966Y024803D02*
X001100D01*
Y024903*
X001033Y024869*
X001000*
X000966Y024903*
Y024969*
X001000Y025002*
X001066*
X001100Y024969*
X000966Y023803D02*
X001033Y023836D01*
X001100Y023903*
Y023969*
X001066Y024002*
X001000*
X000966Y023969*
Y023936*
X001000Y023903*
X001100*
X006040Y023602D02*
X006107D01*
X006074*
Y023802*
X006040Y023769*
X005974Y024602D02*
X005840D01*
X005974Y024736*
Y024769*
X005940Y024802*
X005874*
X005840Y024769*
X009573Y023802D02*
X009440D01*
Y023702*
X009507Y023736*
X009540*
X009573Y023702*
Y023636*
X009540Y023602*
X009474*
X009440Y023636*
X009573Y024802D02*
X009507Y024769D01*
X009440Y024702*
Y024636*
X009474Y024602*
X009540*
X009573Y024636*
Y024669*
X009540Y024702*
X009440*
X010333Y024602D02*
X010200D01*
X010333Y024736*
Y024769*
X010299Y024802*
X010233*
X010200Y024769*
X010400Y023602D02*
X010466D01*
X010433*
Y023802*
X010400Y023769*
X015800Y023636D02*
X015833Y023602D01*
X015899*
X015933Y023636*
Y023769*
X015899Y023802*
X015833*
X015800Y023769*
Y023736*
X015833Y023702*
X015933*
X015800Y024602D02*
X015866D01*
X015833*
Y024802*
X015800Y024769*
X015966D02*
X015999Y024802D01*
X016066*
X016099Y024769*
Y024636*
X016066Y024602*
X015999*
X015966Y024636*
Y024769*
X020440Y023769D02*
X020473Y023802D01*
X020539*
X020573Y023769*
Y023736*
X020539Y023702*
X020506*
X020539*
X020573Y023669*
Y023636*
X020539Y023602*
X020473*
X020440Y023636*
X020539Y024602D02*
Y024802D01*
X020440Y024702*
X020573*
X017973Y024602D02*
X017840D01*
X017973Y024736*
Y024769*
X017939Y024802*
X017873*
X017840Y024769*
X018040Y023602D02*
X018106D01*
X018073*
Y023802*
X018040Y023769*
X024600D02*
X024633Y023802D01*
X024699*
X024733Y023769*
Y023736*
X024699Y023702*
X024666*
X024699*
X024733Y023669*
Y023636*
X024699Y023602*
X024633*
X024600Y023636*
X024699Y024602D02*
Y024802D01*
X024600Y024702*
X024733*
X022133Y024602D02*
X022000D01*
X022133Y024736*
Y024769*
X022099Y024802*
X022033*
X022000Y024769*
X022200Y023602D02*
X022266D01*
X022233*
Y023802*
X022200Y023769*
X019033Y020300D02*
X018900D01*
X019033Y020433*
Y020466*
X018999Y020499*
X018933*
X018900Y020466*
Y021400D02*
X018966D01*
X018933*
Y021599*
X018900Y021566*
X009200Y021400D02*
X009266D01*
X009233*
Y021599*
X009200Y021566*
X009366Y021599D02*
X009499D01*
Y021566*
X009366Y021433*
Y021400*
X009200Y020400D02*
X009266D01*
X009233*
Y020599*
X009200Y020566*
X009366D02*
X009399Y020599D01*
X009466*
X009499Y020566*
Y020533*
X009466Y020499*
X009499Y020466*
Y020433*
X009466Y020400*
X009399*
X009366Y020433*
Y020466*
X009399Y020499*
X009366Y020533*
Y020566*
X009399Y020499D02*
X009466D01*
X006533Y012900D02*
Y013099D01*
X006633*
X006666Y013066*
Y013000*
X006633Y012966*
X006533*
X006733Y013066D02*
X006766Y013099D01*
X006833*
X006866Y013066*
Y013033*
X006833Y013000*
X006799*
X006833*
X006866Y012966*
Y012933*
X006833Y012900*
X006766*
X006733Y012933*
X016533Y019799D02*
Y019633D01*
X016566Y019600*
X016633*
X016666Y019633*
Y019799*
X016733Y019633D02*
X016766Y019600D01*
X016833*
X016866Y019633*
Y019766*
X016833Y019799*
X016766*
X016733Y019766*
Y019733*
X016766Y019700*
X016866*
X021333Y014399D02*
Y014233D01*
X021366Y014200*
X021433*
X021466Y014233*
Y014399*
X021533Y014366D02*
X021566Y014399D01*
X021633*
X021666Y014366*
Y014333*
X021633Y014300*
X021666Y014266*
Y014233*
X021633Y014200*
X021566*
X021533Y014233*
Y014266*
X021566Y014300*
X021533Y014333*
Y014366*
X021566Y014300D02*
X021633D01*
X013033Y017199D02*
Y017033D01*
X013066Y017000*
X013133*
X013166Y017033*
Y017199*
X013233D02*
X013366D01*
Y017166*
X013233Y017033*
Y017000*
X002133Y014199D02*
Y014033D01*
X002166Y014000*
X002233*
X002266Y014033*
Y014199*
X002466Y014000D02*
X002333D01*
X002466Y014133*
Y014166*
X002433Y014199*
X002366*
X002333Y014166*
X011750Y014400D02*
Y014599D01*
X011850*
X011883Y014566*
Y014500*
X011850Y014466*
X011750*
X011816D02*
X011883Y014400D01*
X011950D02*
X012016D01*
X011983*
Y014599*
X011950Y014566*
X012116Y014599D02*
X012249D01*
Y014566*
X012116Y014433*
Y014400*
X010950D02*
Y014599D01*
X011050*
X011083Y014566*
Y014500*
X011050Y014466*
X010950*
X011016D02*
X011083Y014400D01*
X011150D02*
X011216D01*
X011183*
Y014599*
X011150Y014566*
X011449Y014599D02*
X011383Y014566D01*
X011316Y014500*
Y014433*
X011349Y014400*
X011416*
X011449Y014433*
Y014466*
X011416Y014500*
X011316*
X024133Y029000D02*
Y029199D01*
X024233*
X024266Y029166*
Y029100*
X024233Y029066*
X024133*
X024200D02*
X024266Y029000D01*
X024333Y029166D02*
X024366Y029199D01*
X024433*
X024466Y029166*
Y029133*
X024433Y029100*
X024399*
X024433*
X024466Y029066*
Y029033*
X024433Y029000*
X024366*
X024333Y029033*
X010733Y022900D02*
Y023099D01*
X010833*
X010866Y023066*
Y023000*
X010833Y022966*
X010733*
X010933Y023066D02*
X010966Y023099D01*
X011033*
X011066Y023066*
Y023033*
X011033Y023000*
X011000*
X011033*
X011066Y022966*
Y022933*
X011033Y022900*
X010966*
X010933Y022933*
X011133Y023066D02*
X011166Y023099D01*
X011233*
X011266Y023066*
Y023033*
X011233Y023000*
X011199*
X011233*
X011266Y022966*
Y022933*
X011233Y022900*
X011166*
X011133Y022933*
X017666Y029100D02*
Y029299D01*
X017766*
X017800Y029266*
Y029200*
X017766Y029166*
X017666*
X017866Y029266D02*
X017900Y029299D01*
X017966*
X017999Y029266*
Y029233*
X017966Y029200*
X017933*
X017966*
X017999Y029166*
Y029133*
X017966Y029100*
X017900*
X017866Y029133*
X018066Y029100D02*
X018133D01*
X018099*
Y029299*
X018066Y029266*
X022433Y022900D02*
Y023099D01*
X022533*
X022566Y023066*
Y023000*
X022533Y022966*
X022433*
X022633Y023066D02*
X022666Y023099D01*
X022733*
X022766Y023066*
Y023033*
X022733Y023000*
X022700*
X022733*
X022766Y022966*
Y022933*
X022733Y022900*
X022666*
X022633Y022933*
X022833Y023066D02*
X022866Y023099D01*
X022933*
X022966Y023066*
Y022933*
X022933Y022900*
X022866*
X022833Y022933*
Y023066*
X018333Y022900D02*
Y023099D01*
X018433*
X018466Y023066*
Y023000*
X018433Y022966*
X018333*
X018666Y022900D02*
X018533D01*
X018666Y023033*
Y023066*
X018633Y023099*
X018566*
X018533Y023066*
X018733D02*
X018766Y023099D01*
X018833*
X018866Y023066*
Y023033*
X018833Y023000*
X018866Y022966*
Y022933*
X018833Y022900*
X018766*
X018733Y022933*
Y022966*
X018766Y023000*
X018733Y023033*
Y023066*
X018766Y023000D02*
X018833D01*
X013633Y029100D02*
Y029299D01*
X013733*
X013766Y029266*
Y029200*
X013733Y029166*
X013633*
X013966Y029100D02*
X013833D01*
X013966Y029233*
Y029266*
X013933Y029299*
X013866*
X013833Y029266*
X014033Y029299D02*
X014166D01*
Y029266*
X014033Y029133*
Y029100*
X007533D02*
Y029299D01*
X007633*
X007666Y029266*
Y029200*
X007633Y029166*
X007533*
X007866Y029100D02*
X007733D01*
X007866Y029233*
Y029266*
X007833Y029299*
X007766*
X007733Y029266*
X008066Y029299D02*
X007933D01*
Y029200*
X007999Y029233*
X008033*
X008066Y029200*
Y029133*
X008033Y029100*
X007966*
X007933Y029133*
X006333Y022900D02*
Y023099D01*
X006433*
X006466Y023066*
Y023000*
X006433Y022966*
X006333*
X006666Y022900D02*
X006533D01*
X006666Y023033*
Y023066*
X006633Y023099*
X006566*
X006533Y023066*
X006833Y022900D02*
Y023099D01*
X006733Y023000*
X006866*
X001533Y029100D02*
Y029299D01*
X001633*
X001666Y029266*
Y029200*
X001633Y029166*
X001533*
X001866Y029100D02*
X001733D01*
X001866Y029233*
Y029266*
X001833Y029299*
X001766*
X001733Y029266*
X002066Y029100D02*
X001933D01*
X002066Y029233*
Y029266*
X002033Y029299*
X001966*
X001933Y029266*
X001166Y022900D02*
Y023099D01*
X001266*
X001300Y023066*
Y023000*
X001266Y022966*
X001166*
X001499Y022900D02*
X001366D01*
X001499Y023033*
Y023066*
X001466Y023099*
X001400*
X001366Y023066*
X001566Y022900D02*
X001633D01*
X001599*
Y023099*
X001566Y023066*
X011050Y010400D02*
Y010599D01*
X011150*
X011183Y010566*
Y010500*
X011150Y010466*
X011050*
X011250Y010400D02*
X011316D01*
X011283*
Y010599*
X011250Y010566*
X011416Y010433D02*
X011449Y010400D01*
X011516*
X011549Y010433*
Y010566*
X011516Y010599*
X011449*
X011416Y010566*
Y010533*
X011449Y010500*
X011549*
X001380Y004200D02*
Y004399D01*
X001479*
X001513Y004366*
Y004299*
X001479Y004266*
X001380*
X001579Y004200D02*
X001646D01*
X001613*
Y004399*
X001579Y004366*
X001746Y004399D02*
X001879D01*
Y004366*
X001746Y004233*
Y004200*
X002250Y010400D02*
Y010599D01*
X002350*
X002383Y010566*
Y010500*
X002350Y010466*
X002250*
X002450Y010400D02*
X002516D01*
X002483*
Y010599*
X002450Y010566*
X002749Y010599D02*
X002683Y010566D01*
X002616Y010500*
Y010433*
X002649Y010400*
X002716*
X002749Y010433*
Y010466*
X002716Y010500*
X002616*
X005370Y004200D02*
Y004399D01*
X005469*
X005503Y004366*
Y004299*
X005469Y004266*
X005370*
X005569Y004200D02*
X005636D01*
X005603*
Y004399*
X005569Y004366*
X005836Y004200D02*
Y004399D01*
X005736Y004299*
X005869*
X006350Y010400D02*
Y010599D01*
X006450*
X006483Y010566*
Y010500*
X006450Y010466*
X006350*
X006550Y010400D02*
X006616D01*
X006583*
Y010599*
X006550Y010566*
X006716D02*
X006749Y010599D01*
X006816*
X006849Y010566*
Y010533*
X006816Y010500*
X006783*
X006816*
X006849Y010466*
Y010433*
X006816Y010400*
X006749*
X006716Y010433*
X009360Y004200D02*
Y004399D01*
X009459*
X009493Y004366*
Y004299*
X009459Y004266*
X009360*
X009559Y004200D02*
X009626D01*
X009593*
Y004399*
X009559Y004366*
X009726Y004200D02*
X009793D01*
X009759*
Y004399*
X009726Y004366*
X017450Y010400D02*
Y010599D01*
X017550*
X017583Y010566*
Y010500*
X017550Y010466*
X017450*
X017650Y010400D02*
X017716D01*
X017683*
Y010599*
X017650Y010566*
X017816D02*
X017849Y010599D01*
X017916*
X017949Y010566*
Y010433*
X017916Y010400*
X017849*
X017816Y010433*
Y010566*
X015370Y004200D02*
Y004399D01*
X015469*
X015503Y004366*
Y004299*
X015469Y004266*
X015370*
X015569Y004366D02*
X015603Y004399D01*
X015669*
X015703Y004366*
Y004333*
X015669Y004299*
X015703Y004266*
Y004233*
X015669Y004200*
X015603*
X015569Y004233*
Y004266*
X015603Y004299*
X015569Y004333*
Y004366*
X015603Y004299D02*
X015669D01*
X022533Y010400D02*
Y010599D01*
X022633*
X022666Y010566*
Y010500*
X022633Y010466*
X022533*
X022733Y010599D02*
X022866D01*
Y010566*
X022733Y010433*
Y010400*
X021370Y004200D02*
Y004399D01*
X021469*
X021503Y004366*
Y004299*
X021469Y004266*
X021370*
X021703Y004399D02*
X021569D01*
Y004299*
X021636Y004333*
X021669*
X021703Y004299*
Y004233*
X021669Y004200*
X021603*
X021569Y004233*
X009733Y022200D02*
Y022399D01*
X009833*
X009866Y022366*
Y022300*
X009833Y022266*
X009733*
X010033Y022200D02*
Y022399D01*
X009933Y022300*
X010066*
X021533Y029100D02*
Y029299D01*
X021633*
X021666Y029266*
Y029200*
X021633Y029166*
X021533*
X021866Y029100D02*
X021733D01*
X021866Y029233*
Y029266*
X021833Y029299*
X021766*
X021733Y029266*
X018733Y014099D02*
Y013900D01*
X018866*
X019066D02*
X018933D01*
X019066Y014033*
Y014066*
X019033Y014099*
X018966*
X018933Y014066*
X011266Y019499D02*
Y019300D01*
X011400*
X011466D02*
X011533D01*
X011499*
Y019499*
X011466Y019466*
X010100Y016533D02*
X010299D01*
Y016633*
X010266Y016666*
X010133*
X010100Y016633*
Y016533*
Y016733D02*
Y016866D01*
X010133*
X010266Y016733*
X010299*
X018213Y019806D02*
X018179Y019839D01*
X018113*
X018080Y019806*
Y019673*
X018113Y019640*
X018179*
X018213Y019673*
X018413Y019640D02*
X018279D01*
X018413Y019773*
Y019806*
X018379Y019839*
X018313*
X018279Y019806*
X018479D02*
X018513Y019839D01*
X018579*
X018613Y019806*
Y019673*
X018579Y019640*
X018513*
X018479Y019673*
Y019806*
X013683Y019666D02*
X013650Y019699D01*
X013583*
X013550Y019666*
Y019533*
X013583Y019500*
X013650*
X013683Y019533*
X013750Y019500D02*
X013816D01*
X013783*
Y019699*
X013750Y019666*
X013916Y019533D02*
X013949Y019500D01*
X014016*
X014049Y019533*
Y019666*
X014016Y019699*
X013949*
X013916Y019666*
Y019633*
X013949Y019600*
X014049*
X013743Y018006D02*
X013709Y018039D01*
X013643*
X013610Y018006*
Y017873*
X013643Y017840*
X013709*
X013743Y017873*
X013809Y017840D02*
X013876D01*
X013843*
Y018039*
X013809Y018006*
X013976D02*
X014009Y018039D01*
X014076*
X014109Y018006*
Y017973*
X014076Y017939*
X014109Y017906*
Y017873*
X014076Y017840*
X014009*
X013976Y017873*
Y017906*
X014009Y017939*
X013976Y017973*
Y018006*
X014009Y017939D02*
X014076D01*
X014683Y013866D02*
X014650Y013899D01*
X014583*
X014550Y013866*
Y013733*
X014583Y013700*
X014650*
X014683Y013733*
X014750Y013700D02*
X014816D01*
X014783*
Y013899*
X014750Y013866*
X014916Y013899D02*
X015049D01*
Y013866*
X014916Y013733*
Y013700*
X021483Y014066D02*
X021450Y014099D01*
X021383*
X021350Y014066*
Y013933*
X021383Y013900*
X021450*
X021483Y013933*
X021550Y013900D02*
X021616D01*
X021583*
Y014099*
X021550Y014066*
X021849Y014099D02*
X021783Y014066D01*
X021716Y014000*
Y013933*
X021749Y013900*
X021816*
X021849Y013933*
Y013966*
X021816Y014000*
X021716*
X021443Y016226D02*
X021409Y016259D01*
X021343*
X021310Y016226*
Y016093*
X021343Y016060*
X021409*
X021443Y016093*
X021509Y016060D02*
X021576D01*
X021543*
Y016259*
X021509Y016226*
X021809Y016259D02*
X021676D01*
Y016159*
X021743Y016193*
X021776*
X021809Y016159*
Y016093*
X021776Y016060*
X021709*
X021676Y016093*
X022083Y018966D02*
X022050Y018999D01*
X021983*
X021950Y018966*
Y018833*
X021983Y018800*
X022050*
X022083Y018833*
X022150Y018800D02*
X022216D01*
X022183*
Y018999*
X022150Y018966*
X022416Y018800D02*
Y018999D01*
X022316Y018900*
X022449*
X021456Y016600D02*
X021423Y016633D01*
X021356*
X021323Y016600*
Y016467*
X021356Y016433*
X021423*
X021456Y016467*
X021523Y016433D02*
X021590D01*
X021556*
Y016633*
X021523Y016600*
X021690D02*
X021723Y016633D01*
X021790*
X021823Y016600*
Y016567*
X021790Y016533*
X021756*
X021790*
X021823Y016500*
Y016467*
X021790Y016433*
X021723*
X021690Y016467*
X012583Y014566D02*
X012550Y014599D01*
X012483*
X012450Y014566*
Y014433*
X012483Y014400*
X012550*
X012583Y014433*
X012650Y014400D02*
X012716D01*
X012683*
Y014599*
X012650Y014566*
X012949Y014400D02*
X012816D01*
X012949Y014533*
Y014566*
X012916Y014599*
X012849*
X012816Y014566*
X006616Y015166D02*
X006583Y015199D01*
X006516*
X006483Y015166*
Y015033*
X006516Y015000*
X006583*
X006616Y015033*
X006683Y015000D02*
X006750D01*
X006716*
Y015199*
X006683Y015166*
X006849Y015000D02*
X006916D01*
X006883*
Y015199*
X006849Y015166*
X006883Y019266D02*
X006850Y019299D01*
X006783*
X006750Y019266*
Y019133*
X006783Y019100*
X006850*
X006883Y019133*
X006950Y019100D02*
X007016D01*
X006983*
Y019299*
X006950Y019266*
X007116D02*
X007149Y019299D01*
X007216*
X007249Y019266*
Y019133*
X007216Y019100*
X007149*
X007116Y019133*
Y019266*
G54D84*
X009075Y018445D02*
X009027D01*
Y018787*
X009075*
Y018445*
X009025Y018495D02*
X009077D01*
Y018737*
X009025*
Y018495*
X024940Y018001D02*
X024869D01*
Y018438*
X024940*
Y018001*
G54D85*
X024890Y018051D02*
X024919D01*
Y018388*
X024890*
Y018051*
G54D84*
X020986Y017417D02*
X020724D01*
Y017445*
X020986*
Y017417*
X018738Y017445D02*
X018855D01*
Y017417*
X018738*
Y017196*
X018710*
Y017417*
X018593*
Y017445*
X018710*
Y017666*
X018738*
Y017445*
G54D85*
X018688Y017395D02*
X018805D01*
Y017467*
X018688*
Y017246*
X018760*
Y017467*
X018643*
Y017395*
X018760*
Y017616*
X018688*
Y017395*
X018690Y017260D02*
Y017620D01*
X018790Y017420D02*
Y017450D01*
G54D84*
X014975Y015954D02*
X014713D01*
Y015982*
X014975*
Y015954*
X009075Y015980D02*
X009353D01*
Y015932*
X009075*
Y015785*
X009027*
Y015932*
X008749*
Y015980*
X009027*
Y016127*
X009075*
Y015980*
G54D85*
X009025Y015930D02*
X009303D01*
Y015982*
X009025*
Y015835*
X009077*
Y015982*
X008799*
Y015930*
X009077*
Y016077*
X009025*
Y015930*
G54D86*
X009125Y016030D02*
X009203D01*
Y015882*
X009125*
Y015935*
X008977*
Y015882*
X008899*
Y016030*
X008977*
Y015977*
X009125*
Y016030*
G54D84*
X016989Y015982D02*
X017106D01*
Y015954*
X016989*
Y015733*
X016961*
Y015954*
X016844*
Y015982*
X016961*
Y016203*
X016989*
Y015982*
G54D85*
X016939Y015932D02*
X017056D01*
Y016004*
X016939*
Y015783*
X017011*
Y016004*
X016894*
Y015932*
X017011*
Y016153*
X016939*
Y015932*
X016940Y015790D02*
Y016150D01*
X017040Y015950D02*
Y015980D01*
G54D84*
X004499Y014887D02*
X004553Y014834D01*
X004581Y014765*
Y014690*
X004553Y014620*
X004499Y014568*
X004430Y014539*
X004393Y014539*
X004355Y014539*
X004285Y014568*
X004232Y014620*
X004203Y014690*
Y014765*
X004232Y014834*
X004285Y014887*
X004355Y014915*
X004392Y014915*
X004430Y014915*
X004499Y014887*
G54D85*
X004471Y014844D02*
X004510Y014805D01*
X004531Y014755*
Y014700*
X004510Y014649*
X004471Y014610*
X004420Y014589*
X004393Y014589*
X004364Y014589*
X004313Y014610*
X004274Y014649*
X004253Y014700*
Y014755*
X004274Y014805*
X004313Y014844*
X004364Y014865*
X004392Y014865*
X004420Y014865*
X004471Y014844*
G54D86*
X004415Y014759D02*
X004426Y014748D01*
X004431Y014735*
Y014720*
X004426Y014706*
X004415Y014695*
X004401Y014689*
X004393Y014689*
X004384Y014689*
X004370Y014695*
X004359Y014706*
X004353Y014720*
Y014735*
X004359Y014748*
X004370Y014759*
X004384Y014765*
X004392Y014765*
X004401Y014765*
X004415Y014759*
G54D84*
X024940Y014930D02*
X025285D01*
Y014858*
X024940*
Y014676*
X024869*
Y014858*
X024524*
Y014930*
X024869*
Y015113*
X024940*
Y014930*
G54D85*
X024890Y014880D02*
X025235D01*
Y014908*
X024890*
Y014726*
X024919*
Y014908*
X024574*
Y014880*
X024919*
Y015063*
X024890*
Y014880*
G54D86*
X024990Y014980D02*
X025135D01*
Y014808*
X024990*
Y014826*
X024819*
Y014808*
X024674*
Y014980*
X024819*
Y014963*
X024990*
Y014980*
M02*