%FSDAX24Y24*%
%MOIN*%
%SFA1B1*%

%IPPOS*%
%ADD79C,0.003937*%
%ADD80C,0.001969*%
%ADD81C,0.002000*%
%ADD84C,0.005000*%
%ADD85C,0.010000*%
%ADD86C,0.020000*%
%LNpcb_baseboard-1*%
%LPD*%
G54D79*
X023253Y027555D02*
X023646D01*
X023450Y027358D02*
Y027751D01*
X022367Y026078D02*
Y029031D01*
X024532Y026078D02*
Y029031D01*
X022367D02*
X024532D01*
X022367Y026078D02*
X024532D01*
X023259Y029754D02*
X023652D01*
X023455Y029557D02*
Y029951D01*
X011800Y014803D02*
Y015196D01*
X011603Y015000D02*
X011996D01*
X011625Y018377D02*
Y018770D01*
X011429Y018574D02*
X011822D01*
X008227Y016277D02*
Y016670D01*
X008030Y016474D02*
X008424D01*
X007440Y017182D02*
X009014D01*
X007440Y015765D02*
X009014D01*
Y017182*
X007440Y015765D02*
Y017182D01*
G54D80*
X022924Y029045D02*
Y030462D01*
X023987Y029045D02*
Y030462D01*
X022924D02*
X023987D01*
X022924Y029045D02*
X023987D01*
X009752Y017047D02*
X013847D01*
X009752Y012952D02*
X013847D01*
X009752D02*
Y017047D01*
X013847Y012952D02*
Y017047D01*
X010858Y017885D02*
X012393D01*
X010858Y019262D02*
X012393D01*
X010858Y017885D02*
Y019262D01*
X012393Y017885D02*
Y019262D01*
G54D81*
X021944Y018585D02*
X026000D01*
Y015340D02*
Y018585D01*
X025188Y014529D02*
X026000Y015340D01*
X022755Y014529D02*
X025188D01*
X021944Y015340D02*
X022755Y014529D01*
X021944Y015340D02*
Y018585D01*
X018035Y014645D02*
X019610D01*
X018035D02*
Y016220D01*
X019610*
Y014645D02*
Y016220D01*
X004873Y014426D02*
Y018973D01*
X001920Y018973D02*
X004873Y018973D01*
X001920Y014426D02*
Y018973D01*
Y014426D02*
X004873D01*
X014610Y014071D02*
X016689D01*
X017209Y014591*
Y016150*
X016689Y016670D02*
X017209Y016150D01*
X014610Y016670D02*
X016689D01*
X014610Y014071D02*
Y016670D01*
X011709Y016207D02*
Y017349D01*
Y016207D02*
X012338D01*
Y017349*
X011709D02*
X012338D01*
X011243Y018981D02*
X012621D01*
X011243Y017800D02*
Y018981D01*
Y017800D02*
X012621D01*
Y018981*
X006666Y018920D02*
X009933D01*
Y016315D02*
Y018920D01*
X009280Y015652D02*
X009933Y016315D01*
X007319Y015652D02*
X009280D01*
X006666Y016315D02*
X007319Y015652D01*
X006666Y016315D02*
Y018920D01*
X021089Y016729D02*
Y019328D01*
X019010Y016729D02*
X021089D01*
X018490Y017249D02*
X019010Y016729D01*
X018490Y017249D02*
Y018808D01*
X019010Y019328*
X021089*
G54D84*
X005399Y018646D02*
X004795D01*
Y018753*
X005399*
Y018646*
G54D85*
X005349Y018696D02*
X004845D01*
Y018703*
X005349*
Y018696*
G54D84*
X001997Y018646D02*
X001394D01*
Y018753*
X001997*
Y018646*
G54D85*
X001947Y018696D02*
X001444D01*
Y018703*
X001947*
Y018696*
G54D84*
X005399Y018146D02*
X004795D01*
Y018253*
X005399*
Y018146*
G54D85*
X005349Y018196D02*
X004845D01*
Y018203*
X005349*
Y018196*
G54D84*
X001997Y018146D02*
X001394D01*
Y018253*
X001997*
Y018146*
G54D85*
X001947Y018196D02*
X001444D01*
Y018203*
X001947*
Y018196*
G54D84*
X008452Y017931D02*
X008147D01*
Y019042*
X008452*
Y017931*
G54D85*
X008402Y017981D02*
X008197D01*
Y018992*
X008402*
Y017981*
G54D86*
X008302Y018081D02*
X008297D01*
Y018892*
X008302*
Y018081*
G54D84*
X021208Y017926D02*
X020235D01*
Y018131*
X021208*
Y017926*
G54D85*
X021158Y017976D02*
X020285D01*
Y018081*
X021158*
Y017976*
G54D84*
X019358Y017926D02*
X018384D01*
Y018131*
X019358*
Y017926*
G54D85*
X019308Y017976D02*
X018434D01*
Y018081*
X019308*
Y017976*
G54D84*
X012609Y018968D02*
X012608Y018969D01*
Y018970*
Y018970*
X012596Y018958*
Y017825*
X012174*
Y018956*
X012598*
X012610Y018968*
X012609*
X012190Y017840D02*
Y018960D01*
X012240Y017840D02*
Y018960D01*
X012290Y017840D02*
Y018960D01*
X012340Y017840D02*
Y018960D01*
X012390Y017840D02*
Y018960D01*
X012440Y017840D02*
Y018960D01*
X012490Y017840D02*
Y018960D01*
X012540Y017840D02*
Y018960D01*
X012590Y017840D02*
Y018960D01*
X011691Y017825D02*
X011268D01*
Y018956*
X011691*
Y017825*
G54D85*
X011641Y017875D02*
X011318D01*
Y018906*
X011641*
Y017875*
G54D86*
X011541Y017975D02*
X011418D01*
Y018806*
X011541*
Y017975*
G54D84*
X005399Y017646D02*
X004795D01*
Y017753*
X005399*
Y017646*
G54D85*
X005349Y017696D02*
X004845D01*
Y017703*
X005349*
Y017696*
G54D84*
X001997Y017646D02*
X001394D01*
Y017753*
X001997*
Y017646*
G54D85*
X001947Y017696D02*
X001444D01*
Y017703*
X001947*
Y017696*
G54D84*
X024134Y017487D02*
X023810D01*
Y018756*
X024134*
Y017487*
G54D85*
X024084Y017537D02*
X023860D01*
Y018706*
X024084*
Y017537*
G54D86*
X023984Y017637D02*
X023960D01*
Y018606*
X023984*
Y017637*
G54D84*
X011471Y017349D02*
Y017349D01*
Y017350*
X011472Y017350*
X011473*
X011474Y017350*
Y017349*
Y017349*
X011473Y017348*
X011472*
X011471Y017349*
X005399Y017146D02*
X004795D01*
Y017253*
X005399*
Y017146*
G54D85*
X005349Y017196D02*
X004845D01*
Y017203*
X005349*
Y017196*
G54D84*
X001997Y017146D02*
X001394D01*
Y017253*
X001997*
Y017146*
G54D85*
X001947Y017196D02*
X001444D01*
Y017203*
X001947*
Y017196*
G54D84*
X011687Y017099D02*
X011497D01*
Y017206*
X011687*
Y017099*
G54D85*
X011637Y017149D02*
X011547D01*
Y017156*
X011637*
Y017149*
G54D84*
X012550Y017098D02*
X012360D01*
Y017206*
X012550*
Y017098*
G54D85*
X012500Y017148D02*
X012410D01*
Y017156*
X012500*
Y017148*
G54D84*
X018358Y016728D02*
X018358Y016729D01*
X018358Y016731*
X018359Y016732*
X018360*
X018360Y016731*
X018360Y016730*
X018360Y016728*
X018360Y016727*
X018359*
X018358Y016728*
X011687Y016725D02*
X011497D01*
Y016832*
X011687*
Y016725*
G54D85*
X011637Y016775D02*
X011547D01*
Y016782*
X011637*
Y016775*
G54D84*
X017339Y016668D02*
X017338Y016670D01*
X017339Y016671*
X017339Y016672*
X017340*
X017341Y016671*
X017341Y016670*
X017341Y016668*
X017340Y016667*
X017339*
X017339Y016668*
X005399Y016646D02*
X004795D01*
Y016753*
X005399*
Y016646*
G54D85*
X005349Y016696D02*
X004845D01*
Y016703*
X005349*
Y016696*
G54D84*
X001997Y016646D02*
X001394D01*
Y016753*
X001997*
Y016646*
G54D85*
X001947Y016696D02*
X001444D01*
Y016703*
X001947*
Y016696*
G54D84*
X012550Y016350D02*
X012360D01*
Y016458*
X012550*
Y016350*
G54D85*
X012500Y016400D02*
X012410D01*
Y016408*
X012500*
Y016400*
G54D84*
X011687Y016350D02*
X011497D01*
Y016458*
X011687*
Y016350*
G54D85*
X011637Y016400D02*
X011547D01*
Y016408*
X011637*
Y016400*
G54D84*
X005399Y016146D02*
X004795D01*
Y016253*
X005399*
Y016146*
G54D85*
X005349Y016196D02*
X004845D01*
Y016203*
X005349*
Y016196*
G54D84*
X001997Y016146D02*
X001394D01*
Y016253*
X001997*
Y016146*
G54D85*
X001947Y016196D02*
X001444D01*
Y016203*
X001947*
Y016196*
G54D84*
X019487Y015871D02*
X018159D01*
Y016195*
X019487*
Y015871*
G54D85*
X019437Y015921D02*
X018209D01*
Y016145*
X019437*
Y015921*
G54D86*
X019337Y016021D02*
X018309D01*
Y016045*
X019337*
Y016021*
G54D84*
X005399Y015646D02*
X004795D01*
Y015753*
X005399*
Y015646*
G54D85*
X005349Y015696D02*
X004845D01*
Y015703*
X005349*
Y015696*
G54D84*
X001997Y015646D02*
X001394D01*
Y015753*
X001997*
Y015646*
G54D85*
X001947Y015696D02*
X001444D01*
Y015703*
X001947*
Y015696*
G54D84*
X008452Y015530D02*
X008147D01*
Y016641*
X008452*
Y015530*
G54D85*
X008402Y015580D02*
X008197D01*
Y016591*
X008402*
Y015580*
G54D86*
X008302Y015680D02*
X008297D01*
Y016491*
X008302*
Y015680*
G54D84*
X009932Y015503D02*
X009931Y015504D01*
Y015505*
X009932Y015506*
X009933Y015506*
X009935Y015506*
X009936Y015505*
X009936Y015504*
X009935Y015503*
X009934Y015503*
X009932Y015503*
X017315Y015268D02*
X016341D01*
Y015473*
X017315*
Y015268*
G54D85*
X017265Y015318D02*
X016391D01*
Y015423*
X017265*
Y015318*
G54D84*
X015464Y015268D02*
X014491D01*
Y015473*
X015464*
Y015268*
G54D85*
X015414Y015318D02*
X014541D01*
Y015423*
X015414*
Y015318*
G54D84*
X005399Y015146D02*
X004795D01*
Y015253*
X005399*
Y015146*
G54D85*
X005349Y015196D02*
X004845D01*
Y015203*
X005349*
Y015196*
G54D84*
X001997Y015146D02*
X001394D01*
Y015253*
X001997*
Y015146*
G54D85*
X001947Y015196D02*
X001444D01*
Y015203*
X001947*
Y015196*
G54D84*
X004399Y014703D02*
Y014704D01*
X004400Y014705*
X004400*
X004401*
X004402Y014704*
Y014703*
X004401Y014702*
X004400*
X004400*
X004399Y014703*
X019487Y014670D02*
X018159D01*
Y014994*
X019487*
Y014670*
G54D85*
X019437Y014720D02*
X018209D01*
Y014944*
X019437*
Y014720*
G54D86*
X019337Y014820D02*
X018309D01*
Y014844*
X019337*
Y014820*
G54D84*
X005399Y014646D02*
X004795D01*
Y014753*
X005399*
Y014646*
G54D85*
X005349Y014696D02*
X004845D01*
Y014703*
X005349*
Y014696*
G54D84*
X001997Y014646D02*
X001394D01*
Y014753*
X001997*
Y014646*
G54D85*
X001947Y014696D02*
X001444D01*
Y014703*
X001947*
Y014696*
G54D84*
X019610Y014643D02*
X019609Y014643D01*
X019608Y014644*
Y014645*
X019609Y014646*
X019610Y014646*
X019612Y014645*
X019612Y014645*
Y014644*
X019612Y014643*
X019610Y014643*
X024134Y014358D02*
X023810D01*
Y015626*
X024134*
Y014358*
G54D85*
X024084Y014408D02*
X023860D01*
Y015576*
X024084*
Y014408*
G54D86*
X023984Y014508D02*
X023960D01*
Y015476*
X023984*
Y014508*
G54D84*
X025999Y014331D02*
X025999Y014331D01*
X025998Y014332*
Y014333*
X025999Y014334*
X025999*
X026000*
X026001Y014333*
Y014332*
X026000Y014331*
X026000Y014331*
M02*