%FSDAX24Y24*%
%MOIN*%
%SFA1B1*%

%IPPOS*%
%ADD77C,0.011811*%
%ADD78C,0.009843*%
%ADD84C,0.005000*%
%ADD85C,0.010000*%
%ADD86C,0.020000*%
%LNpcb_baseboard-1*%
%LPD*%
G54D77*
X005640Y014700D02*
D01*
X005640Y014704*
X005640Y014708*
X005639Y014712*
X005638Y014716*
X005637Y014720*
X005635Y014724*
X005633Y014727*
X005631Y014731*
X005629Y014734*
X005627Y014737*
X005624Y014741*
X005621Y014743*
X005618Y014746*
X005614Y014748*
X005611Y014751*
X005607Y014753*
X005603Y014754*
X005600Y014756*
X005596Y014757*
X005592Y014758*
X005587Y014758*
X005583Y014759*
X005579*
X005575Y014758*
X005571Y014758*
X005567Y014757*
X005563Y014756*
X005559Y014754*
X005555Y014753*
X005552Y014751*
X005548Y014748*
X005545Y014746*
X005542Y014743*
X005539Y014741*
X005536Y014737*
X005534Y014734*
X005531Y014731*
X005529Y014727*
X005527Y014724*
X005526Y014720*
X005525Y014716*
X005524Y014712*
X005523Y014708*
X005522Y014704*
X005522Y014700*
X005522Y014695*
X005523Y014691*
X005524Y014687*
X005525Y014683*
X005526Y014679*
X005527Y014675*
X005529Y014672*
X005531Y014668*
X005534Y014665*
X005536Y014662*
X005539Y014658*
X005542Y014656*
X005545Y014653*
X005548Y014651*
X005552Y014648*
X005555Y014646*
X005559Y014645*
X005563Y014643*
X005567Y014642*
X005571Y014641*
X005575Y014641*
X005579Y014640*
X005583*
X005587Y014641*
X005592Y014641*
X005596Y014642*
X005600Y014643*
X005603Y014645*
X005607Y014646*
X005611Y014648*
X005614Y014651*
X005618Y014653*
X005621Y014656*
X005624Y014658*
X005627Y014662*
X005629Y014665*
X005631Y014668*
X005633Y014672*
X005635Y014675*
X005637Y014679*
X005638Y014683*
X005639Y014687*
X005640Y014691*
X005640Y014695*
X005640Y014700*
G54D78*
X011529Y017400D02*
D01*
X011529Y017404*
X011529Y017407*
X011528Y017411*
X011527Y017414*
X011526Y017417*
X011525Y017420*
X011524Y017423*
X011522Y017426*
X011520Y017429*
X011518Y017432*
X011516Y017434*
X011513Y017437*
X011510Y017439*
X011508Y017441*
X011505Y017443*
X011502Y017445*
X011499Y017446*
X011495Y017447*
X011492Y017448*
X011489Y017449*
X011485Y017449*
X011482Y017449*
X011478*
X011475Y017449*
X011472Y017449*
X011468Y017448*
X011465Y017447*
X011462Y017446*
X011459Y017445*
X011456Y017443*
X011453Y017441*
X011450Y017439*
X011447Y017437*
X011445Y017434*
X011442Y017432*
X011440Y017429*
X011438Y017426*
X011437Y017423*
X011435Y017420*
X011434Y017417*
X011433Y017414*
X011432Y017411*
X011431Y017407*
X011431Y017404*
X011431Y017400*
X011431Y017397*
X011431Y017393*
X011432Y017390*
X011433Y017387*
X011434Y017383*
X011435Y017380*
X011437Y017377*
X011438Y017374*
X011440Y017371*
X011442Y017369*
X011445Y017366*
X011447Y017364*
X011450Y017362*
X011453Y017359*
X011456Y017358*
X011459Y017356*
X011462Y017355*
X011465Y017353*
X011468Y017353*
X011472Y017352*
X011475Y017351*
X011478Y017351*
X011482*
X011485Y017351*
X011489Y017352*
X011492Y017353*
X011495Y017353*
X011499Y017355*
X011502Y017356*
X011505Y017358*
X011508Y017359*
X011510Y017362*
X011513Y017364*
X011516Y017366*
X011518Y017369*
X011520Y017371*
X011522Y017374*
X011524Y017377*
X011525Y017380*
X011526Y017383*
X011527Y017387*
X011528Y017390*
X011529Y017393*
X011529Y017397*
X011529Y017400*
G54D84*
X008324Y018445D02*
X008275D01*
Y018787*
X008324*
Y018445*
Y015980D02*
X008601D01*
Y015932*
X008324*
Y015785*
X008275*
Y015932*
X007998*
Y015980*
X008275*
Y016127*
X008324*
Y015980*
G54D85*
X008274Y015930D02*
X008551D01*
Y015982*
X008274*
Y015835*
X008325*
Y015982*
X008048*
Y015930*
X008325*
Y016077*
X008274*
Y015930*
G54D86*
X008374Y016030D02*
X008451D01*
Y015882*
X008374*
Y015935*
X008225*
Y015882*
X008148*
Y016030*
X008225*
Y015977*
X008374*
Y016030*
G54D84*
X014975Y015357D02*
X014713D01*
Y015384*
X014975*
Y015357*
X016991Y015384D02*
X017106D01*
Y015357*
X016991*
Y015136*
X016963*
Y015357*
X016844*
Y015384*
X016963*
Y015605*
X016991*
Y015384*
G54D85*
X016941Y015334D02*
X017056D01*
Y015407*
X016941*
Y015186*
X017013*
Y015407*
X016894*
Y015334*
X017013*
Y015555*
X016941*
Y015334*
X016940Y015200D02*
Y015560D01*
X017040Y015340D02*
Y015390D01*
G54D84*
X018736Y018042D02*
X018855D01*
Y018015*
X018736*
Y017794*
X018708*
Y018015*
X018593*
Y018042*
X018708*
Y018263*
X018736*
Y018042*
G54D85*
X018686Y017992D02*
X018805D01*
Y018065*
X018686*
Y017844*
X018758*
Y018065*
X018643*
Y017992*
X018758*
Y018213*
X018686*
Y017992*
X018690Y017850D02*
Y018210D01*
X018790Y018010D02*
Y018040D01*
G54D84*
X020986Y018042D02*
Y018015D01*
X020724*
Y018042*
X020986*
X024008Y014930D02*
X024352D01*
Y014858*
X024008*
Y014676*
X023936*
Y014858*
X023591*
Y014930*
X023936*
Y015113*
X024008*
Y014930*
G54D85*
X023958Y014880D02*
X024302D01*
Y014908*
X023958*
Y014726*
X023986*
Y014908*
X023641*
Y014880*
X023986*
Y015063*
X023958*
Y014880*
G54D86*
X024058Y014980D02*
X024202D01*
Y014808*
X024058*
Y014826*
X023886*
Y014808*
X023741*
Y014980*
X023886*
Y014963*
X024058*
Y014980*
G54D84*
X023936Y018438D02*
X024008D01*
Y018001*
X023936*
Y018438*
G54D85*
X023986Y018388D02*
X023958D01*
Y018051*
X023986*
Y018388*
M02*