%FSDAX24Y24*%
%MOIN*%
%SFA1B1*%

%IPPOS*%
%ADD18R,0.043307X0.039370*%
%ADD19R,0.064960X0.177165*%
%ADD20R,0.145669X0.074803*%
%ADD21R,0.027559X0.039370*%
%ADD22O,0.082677X0.022047*%
%ADD23R,0.061024X0.043307*%
%ADD24R,0.061024X0.043307*%
%ADD25R,0.061024X0.135827*%
%ADD26R,0.137795X0.047244*%
%ADD27R,0.043307X0.027559*%
%ADD28R,0.039370X0.043307*%
%ADD29R,0.070866X0.122834*%
%ADD30R,0.021654X0.057087*%
%ADD31R,0.055118X0.165354*%
%LNpcb_baseboard-1*%
%LPD*%
G54D18*
X023734Y029100D03*
X023065D03*
X020834Y016300D03*
X020165D03*
X020834Y014000D03*
X020165D03*
X007465Y015100D03*
X008134D03*
G54D19*
X023972Y018329D03*
Y014785D03*
G54D20*
X018823Y014724D03*
Y016141D03*
G54D21*
X020125Y014600D03*
X020500D03*
X020874D03*
X020125Y015623D03*
X020500D03*
X020874D03*
G54D22*
X001507Y018700D03*
Y018200D03*
Y017700D03*
Y017200D03*
Y016700D03*
Y016200D03*
Y015700D03*
Y015200D03*
Y014700D03*
X005286Y018700D03*
Y018200D03*
Y017700D03*
Y017200D03*
Y016700D03*
Y016200D03*
Y015700D03*
Y015200D03*
Y014700D03*
G54D23*
X014800Y019111D03*
G54D24*
X014800Y018205D03*
Y017300D03*
G54D25*
X017457Y018205D03*
G54D26*
X014858Y015370D03*
X016961D03*
X018738Y018029D03*
X020841D03*
G54D27*
X012533Y017152D03*
Y016404D03*
X011514D03*
Y016779D03*
Y017153D03*
G54D28*
X012600Y015065D03*
Y015734D03*
X012000Y015065D03*
Y015734D03*
X011400Y015634D03*
Y014965D03*
X013800Y019034D03*
Y018365D03*
X021500Y014765D03*
Y015434D03*
X013800Y017334D03*
Y016665D03*
G54D29*
X012445Y018391D03*
X011419D03*
G54D30*
X010700Y017162D03*
Y016237D03*
G54D31*
X008300Y016000D03*
Y018572D03*
M02*