%FSDAX24Y24*%
%MOIN*%
%SFA1B1*%

%IPPOS*%
%ADD79C,0.003937*%
%LNpcb_baseboard-1*%
%LPD*%
G54D79*
X024257Y027141D02*
D01*
X024256Y027155*
X024255Y027169*
X024252Y027182*
X024249Y027195*
X024245Y027209*
X024240Y027221*
X024234Y027234*
X024227Y027246*
X024219Y027257*
X024211Y027268*
X024201Y027278*
X024191Y027288*
X024181Y027296*
X024170Y027304*
X024158Y027312*
X024146Y027318*
X024133Y027324*
X024121Y027328*
X024107Y027332*
X024094Y027335*
X024080Y027337*
X024067Y027338*
X024053*
X024039Y027337*
X024026Y027335*
X024012Y027332*
X023999Y027328*
X023986Y027324*
X023973Y027318*
X023961Y027312*
X023950Y027304*
X023939Y027296*
X023928Y027288*
X023918Y027278*
X023909Y027268*
X023900Y027257*
X023893Y027246*
X023886Y027234*
X023880Y027221*
X023875Y027209*
X023871Y027195*
X023867Y027182*
X023865Y027169*
X023863Y027155*
X023863Y027141*
X023863Y027128*
X023865Y027114*
X023867Y027100*
X023871Y027087*
X023875Y027074*
X023880Y027061*
X023886Y027049*
X023893Y027037*
X023900Y027026*
X023909Y027015*
X023918Y027004*
X023928Y026995*
X023939Y026986*
X023950Y026978*
X023961Y026971*
X023973Y026964*
X023986Y026959*
X023999Y026954*
X024012Y026950*
X024026Y026947*
X024039Y026945*
X024053Y026945*
X024067*
X024080Y026945*
X024094Y026947*
X024107Y026950*
X024121Y026954*
X024133Y026959*
X024146Y026964*
X024158Y026971*
X024170Y026978*
X024181Y026986*
X024191Y026995*
X024201Y027004*
X024211Y027015*
X024219Y027026*
X024227Y027037*
X024234Y027049*
X024240Y027061*
X024245Y027074*
X024249Y027087*
X024252Y027100*
X024255Y027114*
X024256Y027128*
X024257Y027141*
X010973Y016023D02*
D01*
X010972Y016037*
X010971Y016051*
X010968Y016064*
X010965Y016077*
X010961Y016090*
X010956Y016103*
X010950Y016116*
X010943Y016127*
X010935Y016139*
X010927Y016150*
X010917Y016160*
X010908Y016169*
X010897Y016178*
X010886Y016186*
X010874Y016194*
X010862Y016200*
X010850Y016206*
X010837Y016210*
X010824Y016214*
X010810Y016217*
X010796Y016219*
X010783Y016220*
X010769*
X010755Y016219*
X010742Y016217*
X010728Y016214*
X010715Y016210*
X010702Y016206*
X010690Y016200*
X010677Y016194*
X010666Y016186*
X010655Y016178*
X010644Y016169*
X010634Y016160*
X010625Y016150*
X010617Y016139*
X010609Y016127*
X010602Y016116*
X010596Y016103*
X010591Y016090*
X010587Y016077*
X010583Y016064*
X010581Y016051*
X010580Y016037*
X010579Y016023*
X010580Y016009*
X010581Y015996*
X010583Y015982*
X010587Y015969*
X010591Y015956*
X010596Y015943*
X010602Y015931*
X010609Y015919*
X010617Y015907*
X010625Y015897*
X010634Y015886*
X010644Y015877*
X010655Y015868*
X010666Y015860*
X010677Y015853*
X010690Y015846*
X010702Y015841*
X010715Y015836*
X010728Y015832*
X010742Y015829*
X010755Y015827*
X010769Y015826*
X010783*
X010796Y015827*
X010810Y015829*
X010824Y015832*
X010837Y015836*
X010850Y015841*
X010862Y015846*
X010874Y015853*
X010886Y015860*
X010897Y015868*
X010908Y015877*
X010917Y015886*
X010927Y015897*
X010935Y015907*
X010943Y015919*
X010950Y015931*
X010956Y015943*
X010961Y015956*
X010965Y015969*
X010968Y015982*
X010971Y015996*
X010972Y016009*
X010973Y016023*
X022485Y026787D02*
Y028322D01*
X024414Y026787D02*
Y028322D01*
X022485D02*
X024414D01*
X022485Y026787D02*
X024414D01*
X023032Y029478D02*
Y030029D01*
X023879Y029478D02*
Y030029D01*
X023032D02*
X023879D01*
X023032Y029478D02*
X023879D01*
X010422Y016377D02*
X013177D01*
X010422Y013622D02*
X013177D01*
X010422D02*
Y016377D01*
X013177Y013622D02*
Y016377D01*
X011350Y017975D02*
X011901D01*
X011350Y019172D02*
X011901D01*
X011350Y017975D02*
Y019172D01*
X011901Y017975D02*
Y019172D01*
X007873Y017084D02*
X008581D01*
X007873Y015863D02*
X008581D01*
Y017084*
X007873Y015863D02*
Y017084D01*
M02*