%FSDAX24Y24*%
%MOIN*%
%SFA1B1*%

%IPPOS*%
%ADD10C,0.010000*%
%LNpcb_baseboard-1*%
%LPD*%
G54D10*
X025151Y031065D02*
D01*
X025149Y031119*
X025143Y031174*
X025134Y031228*
X025121Y031282*
X025104Y031334*
X025083Y031385*
X025059Y031434*
X025032Y031482*
X025001Y031527*
X024967Y031571*
X024930Y031611*
X024891Y031650*
X024849Y031685*
X024804Y031717*
X024757Y031746*
X024709Y031772*
X024659Y031795*
X024607Y031813*
X024554Y031829*
X024500Y031840*
X024446Y031848*
X024391Y031851*
X024336*
X024281Y031848*
X024227Y031840*
X024173Y031829*
X024120Y031813*
X024069Y031795*
X024019Y031772*
X023970Y031746*
X023923Y031717*
X023879Y031685*
X023837Y031650*
X023797Y031611*
X023761Y031571*
X023727Y031527*
X023696Y031482*
X023669Y031434*
X023644Y031385*
X023624Y031334*
X023607Y031282*
X023594Y031228*
X023584Y031174*
X023578Y031119*
X023576Y031065*
X023578Y031010*
X023584Y030955*
X023594Y030901*
X023607Y030847*
X023624Y030795*
X023644Y030744*
X023669Y030695*
X023696Y030647*
X023727Y030602*
X023761Y030558*
X023797Y030518*
X023837Y030479*
X023879Y030444*
X023923Y030412*
X023970Y030383*
X024019Y030357*
X024069Y030334*
X024120Y030316*
X024173Y030300*
X024227Y030289*
X024281Y030281*
X024336Y030278*
X024391*
X024446Y030281*
X024500Y030289*
X024554Y030300*
X024607Y030316*
X024659Y030334*
X024709Y030357*
X024757Y030383*
X024804Y030412*
X024849Y030444*
X024891Y030479*
X024930Y030518*
X024967Y030558*
X025001Y030602*
X025032Y030647*
X025059Y030695*
X025083Y030744*
X025104Y030795*
X025121Y030847*
X025134Y030901*
X025143Y030955*
X025149Y031010*
X025151Y031065*
X023167D02*
D01*
X023165Y031119*
X023159Y031174*
X023150Y031228*
X023136Y031282*
X023119Y031334*
X023099Y031385*
X023075Y031434*
X023047Y031482*
X023017Y031527*
X022983Y031571*
X022946Y031611*
X022906Y031650*
X022864Y031685*
X022820Y031717*
X022773Y031746*
X022725Y031772*
X022674Y031795*
X022623Y031813*
X022570Y031829*
X022516Y031840*
X022462Y031848*
X022407Y031851*
X022352*
X022297Y031848*
X022243Y031840*
X022189Y031829*
X022136Y031813*
X022085Y031795*
X022034Y031772*
X021986Y031746*
X021939Y031717*
X021895Y031685*
X021853Y031650*
X021813Y031611*
X021776Y031571*
X021742Y031527*
X021712Y031482*
X021684Y031434*
X021660Y031385*
X021640Y031334*
X021623Y031282*
X021609Y031228*
X021600Y031174*
X021594Y031119*
X021592Y031065*
X021594Y031010*
X021600Y030955*
X021609Y030901*
X021623Y030847*
X021640Y030795*
X021660Y030744*
X021684Y030695*
X021712Y030647*
X021742Y030602*
X021776Y030558*
X021813Y030518*
X021853Y030479*
X021895Y030444*
X021939Y030412*
X021986Y030383*
X022034Y030357*
X022085Y030334*
X022136Y030316*
X022189Y030300*
X022243Y030289*
X022297Y030281*
X022352Y030278*
X022407*
X022462Y030281*
X022516Y030289*
X022570Y030300*
X022623Y030316*
X022674Y030334*
X022725Y030357*
X022773Y030383*
X022820Y030412*
X022864Y030444*
X022906Y030479*
X022946Y030518*
X022983Y030558*
X023017Y030602*
X023047Y030647*
X023075Y030695*
X023099Y030744*
X023119Y030795*
X023136Y030847*
X023150Y030901*
X023159Y030955*
X023165Y031010*
X023167Y031065*
X017181D02*
D01*
X017179Y031119*
X017173Y031174*
X017164Y031228*
X017151Y031282*
X017134Y031334*
X017113Y031385*
X017089Y031434*
X017062Y031482*
X017031Y031527*
X016997Y031571*
X016960Y031611*
X016921Y031650*
X016879Y031685*
X016834Y031717*
X016787Y031746*
X016739Y031772*
X016689Y031795*
X016637Y031813*
X016584Y031829*
X016530Y031840*
X016476Y031848*
X016421Y031851*
X016366*
X016311Y031848*
X016257Y031840*
X016203Y031829*
X016150Y031813*
X016099Y031795*
X016049Y031772*
X016000Y031746*
X015953Y031717*
X015909Y031685*
X015867Y031650*
X015827Y031611*
X015791Y031571*
X015757Y031527*
X015726Y031482*
X015699Y031434*
X015674Y031385*
X015654Y031334*
X015637Y031282*
X015624Y031228*
X015614Y031174*
X015608Y031119*
X015606Y031065*
X015608Y031010*
X015614Y030955*
X015624Y030901*
X015637Y030847*
X015654Y030795*
X015674Y030744*
X015699Y030695*
X015726Y030647*
X015757Y030602*
X015791Y030558*
X015827Y030518*
X015867Y030479*
X015909Y030444*
X015953Y030412*
X016000Y030383*
X016049Y030357*
X016099Y030334*
X016150Y030316*
X016203Y030300*
X016257Y030289*
X016311Y030281*
X016366Y030278*
X016421*
X016476Y030281*
X016530Y030289*
X016584Y030300*
X016637Y030316*
X016689Y030334*
X016739Y030357*
X016787Y030383*
X016834Y030412*
X016879Y030444*
X016921Y030479*
X016960Y030518*
X016997Y030558*
X017031Y030602*
X017062Y030647*
X017089Y030695*
X017113Y030744*
X017134Y030795*
X017151Y030847*
X017164Y030901*
X017173Y030955*
X017179Y031010*
X017181Y031065*
X015197D02*
D01*
X015195Y031119*
X015189Y031174*
X015180Y031228*
X015166Y031282*
X015149Y031334*
X015129Y031385*
X015105Y031434*
X015077Y031482*
X015047Y031527*
X015013Y031571*
X014976Y031611*
X014936Y031650*
X014894Y031685*
X014850Y031717*
X014803Y031746*
X014755Y031772*
X014704Y031795*
X014653Y031813*
X014600Y031829*
X014546Y031840*
X014492Y031848*
X014437Y031851*
X014382*
X014327Y031848*
X014273Y031840*
X014219Y031829*
X014166Y031813*
X014115Y031795*
X014064Y031772*
X014016Y031746*
X013969Y031717*
X013925Y031685*
X013883Y031650*
X013843Y031611*
X013806Y031571*
X013772Y031527*
X013742Y031482*
X013714Y031434*
X013690Y031385*
X013670Y031334*
X013653Y031282*
X013639Y031228*
X013630Y031174*
X013624Y031119*
X013622Y031065*
X013624Y031010*
X013630Y030955*
X013639Y030901*
X013653Y030847*
X013670Y030795*
X013690Y030744*
X013714Y030695*
X013742Y030647*
X013772Y030602*
X013806Y030558*
X013843Y030518*
X013883Y030479*
X013925Y030444*
X013969Y030412*
X014016Y030383*
X014064Y030357*
X014115Y030334*
X014166Y030316*
X014219Y030300*
X014273Y030289*
X014327Y030281*
X014382Y030278*
X014437*
X014492Y030281*
X014546Y030289*
X014600Y030300*
X014653Y030316*
X014704Y030334*
X014755Y030357*
X014803Y030383*
X014850Y030412*
X014894Y030444*
X014936Y030479*
X014976Y030518*
X015013Y030558*
X015047Y030602*
X015077Y030647*
X015105Y030695*
X015129Y030744*
X015149Y030795*
X015166Y030847*
X015180Y030901*
X015189Y030955*
X015195Y031010*
X015197Y031065*
X021151D02*
D01*
X021149Y031119*
X021143Y031174*
X021134Y031228*
X021121Y031282*
X021104Y031334*
X021083Y031385*
X021059Y031434*
X021032Y031482*
X021001Y031527*
X020967Y031571*
X020930Y031611*
X020891Y031650*
X020849Y031685*
X020804Y031717*
X020757Y031746*
X020709Y031772*
X020659Y031795*
X020607Y031813*
X020554Y031829*
X020500Y031840*
X020446Y031848*
X020391Y031851*
X020336*
X020281Y031848*
X020227Y031840*
X020173Y031829*
X020120Y031813*
X020069Y031795*
X020019Y031772*
X019970Y031746*
X019923Y031717*
X019879Y031685*
X019837Y031650*
X019797Y031611*
X019761Y031571*
X019727Y031527*
X019696Y031482*
X019669Y031434*
X019644Y031385*
X019624Y031334*
X019607Y031282*
X019594Y031228*
X019584Y031174*
X019578Y031119*
X019576Y031065*
X019578Y031010*
X019584Y030955*
X019594Y030901*
X019607Y030847*
X019624Y030795*
X019644Y030744*
X019669Y030695*
X019696Y030647*
X019727Y030602*
X019761Y030558*
X019797Y030518*
X019837Y030479*
X019879Y030444*
X019923Y030412*
X019970Y030383*
X020019Y030357*
X020069Y030334*
X020120Y030316*
X020173Y030300*
X020227Y030289*
X020281Y030281*
X020336Y030278*
X020391*
X020446Y030281*
X020500Y030289*
X020554Y030300*
X020607Y030316*
X020659Y030334*
X020709Y030357*
X020757Y030383*
X020804Y030412*
X020849Y030444*
X020891Y030479*
X020930Y030518*
X020967Y030558*
X021001Y030602*
X021032Y030647*
X021059Y030695*
X021083Y030744*
X021104Y030795*
X021121Y030847*
X021134Y030901*
X021143Y030955*
X021149Y031010*
X021151Y031065*
X019167D02*
D01*
X019165Y031119*
X019159Y031174*
X019150Y031228*
X019136Y031282*
X019119Y031334*
X019099Y031385*
X019075Y031434*
X019047Y031482*
X019017Y031527*
X018983Y031571*
X018946Y031611*
X018906Y031650*
X018864Y031685*
X018820Y031717*
X018773Y031746*
X018725Y031772*
X018674Y031795*
X018623Y031813*
X018570Y031829*
X018516Y031840*
X018462Y031848*
X018407Y031851*
X018352*
X018297Y031848*
X018243Y031840*
X018189Y031829*
X018136Y031813*
X018085Y031795*
X018034Y031772*
X017986Y031746*
X017939Y031717*
X017895Y031685*
X017853Y031650*
X017813Y031611*
X017776Y031571*
X017742Y031527*
X017712Y031482*
X017684Y031434*
X017660Y031385*
X017640Y031334*
X017623Y031282*
X017609Y031228*
X017600Y031174*
X017594Y031119*
X017592Y031065*
X017594Y031010*
X017600Y030955*
X017609Y030901*
X017623Y030847*
X017640Y030795*
X017660Y030744*
X017684Y030695*
X017712Y030647*
X017742Y030602*
X017776Y030558*
X017813Y030518*
X017853Y030479*
X017895Y030444*
X017939Y030412*
X017986Y030383*
X018034Y030357*
X018085Y030334*
X018136Y030316*
X018189Y030300*
X018243Y030289*
X018297Y030281*
X018352Y030278*
X018407*
X018462Y030281*
X018516Y030289*
X018570Y030300*
X018623Y030316*
X018674Y030334*
X018725Y030357*
X018773Y030383*
X018820Y030412*
X018864Y030444*
X018906Y030479*
X018946Y030518*
X018983Y030558*
X019017Y030602*
X019047Y030647*
X019075Y030695*
X019099Y030744*
X019119Y030795*
X019136Y030847*
X019150Y030901*
X019159Y030955*
X019165Y031010*
X019167Y031065*
X009203D02*
D01*
X009201Y031119*
X009195Y031174*
X009185Y031228*
X009172Y031282*
X009155Y031334*
X009135Y031385*
X009110Y031434*
X009083Y031482*
X009052Y031527*
X009018Y031571*
X008982Y031611*
X008942Y031650*
X008900Y031685*
X008856Y031717*
X008809Y031746*
X008760Y031772*
X008710Y031795*
X008659Y031813*
X008606Y031829*
X008552Y031840*
X008498Y031848*
X008443Y031851*
X008388*
X008333Y031848*
X008279Y031840*
X008225Y031829*
X008172Y031813*
X008120Y031795*
X008070Y031772*
X008022Y031746*
X007975Y031717*
X007930Y031685*
X007888Y031650*
X007849Y031611*
X007812Y031571*
X007778Y031527*
X007747Y031482*
X007720Y031434*
X007696Y031385*
X007675Y031334*
X007658Y031282*
X007645Y031228*
X007636Y031174*
X007630Y031119*
X007628Y031065*
X007630Y031010*
X007636Y030955*
X007645Y030901*
X007658Y030847*
X007675Y030795*
X007696Y030744*
X007720Y030695*
X007747Y030647*
X007778Y030602*
X007812Y030558*
X007849Y030518*
X007888Y030479*
X007930Y030444*
X007975Y030412*
X008022Y030383*
X008070Y030357*
X008120Y030334*
X008172Y030316*
X008225Y030300*
X008279Y030289*
X008333Y030281*
X008388Y030278*
X008443*
X008498Y030281*
X008552Y030289*
X008606Y030300*
X008659Y030316*
X008710Y030334*
X008760Y030357*
X008809Y030383*
X008856Y030412*
X008900Y030444*
X008942Y030479*
X008982Y030518*
X009018Y030558*
X009052Y030602*
X009083Y030647*
X009110Y030695*
X009135Y030744*
X009155Y030795*
X009172Y030847*
X009185Y030901*
X009195Y030955*
X009201Y031010*
X009203Y031065*
X013203D02*
D01*
X013201Y031119*
X013195Y031174*
X013185Y031228*
X013172Y031282*
X013155Y031334*
X013135Y031385*
X013110Y031434*
X013083Y031482*
X013052Y031527*
X013018Y031571*
X012982Y031611*
X012942Y031650*
X012900Y031685*
X012856Y031717*
X012809Y031746*
X012760Y031772*
X012710Y031795*
X012659Y031813*
X012606Y031829*
X012552Y031840*
X012498Y031848*
X012443Y031851*
X012388*
X012333Y031848*
X012279Y031840*
X012225Y031829*
X012172Y031813*
X012120Y031795*
X012070Y031772*
X012022Y031746*
X011975Y031717*
X011930Y031685*
X011888Y031650*
X011849Y031611*
X011812Y031571*
X011778Y031527*
X011747Y031482*
X011720Y031434*
X011696Y031385*
X011675Y031334*
X011658Y031282*
X011645Y031228*
X011636Y031174*
X011630Y031119*
X011628Y031065*
X011630Y031010*
X011636Y030955*
X011645Y030901*
X011658Y030847*
X011675Y030795*
X011696Y030744*
X011720Y030695*
X011747Y030647*
X011778Y030602*
X011812Y030558*
X011849Y030518*
X011888Y030479*
X011930Y030444*
X011975Y030412*
X012022Y030383*
X012070Y030357*
X012120Y030334*
X012172Y030316*
X012225Y030300*
X012279Y030289*
X012333Y030281*
X012388Y030278*
X012443*
X012498Y030281*
X012552Y030289*
X012606Y030300*
X012659Y030316*
X012710Y030334*
X012760Y030357*
X012809Y030383*
X012856Y030412*
X012900Y030444*
X012942Y030479*
X012982Y030518*
X013018Y030558*
X013052Y030602*
X013083Y030647*
X013110Y030695*
X013135Y030744*
X013155Y030795*
X013172Y030847*
X013185Y030901*
X013195Y030955*
X013201Y031010*
X013203Y031065*
X011187D02*
D01*
X011185Y031119*
X011179Y031174*
X011170Y031228*
X011156Y031282*
X011139Y031334*
X011119Y031385*
X011095Y031434*
X011067Y031482*
X011037Y031527*
X011003Y031571*
X010966Y031611*
X010926Y031650*
X010884Y031685*
X010840Y031717*
X010793Y031746*
X010745Y031772*
X010694Y031795*
X010643Y031813*
X010590Y031829*
X010536Y031840*
X010482Y031848*
X010427Y031851*
X010372*
X010317Y031848*
X010263Y031840*
X010209Y031829*
X010156Y031813*
X010105Y031795*
X010054Y031772*
X010006Y031746*
X009959Y031717*
X009915Y031685*
X009873Y031650*
X009833Y031611*
X009796Y031571*
X009762Y031527*
X009732Y031482*
X009704Y031434*
X009680Y031385*
X009660Y031334*
X009643Y031282*
X009629Y031228*
X009620Y031174*
X009614Y031119*
X009612Y031065*
X009614Y031010*
X009620Y030955*
X009629Y030901*
X009643Y030847*
X009660Y030795*
X009680Y030744*
X009704Y030695*
X009732Y030647*
X009762Y030602*
X009796Y030558*
X009833Y030518*
X009873Y030479*
X009915Y030444*
X009959Y030412*
X010006Y030383*
X010054Y030357*
X010105Y030334*
X010156Y030316*
X010209Y030300*
X010263Y030289*
X010317Y030281*
X010372Y030278*
X010427*
X010482Y030281*
X010536Y030289*
X010590Y030300*
X010643Y030316*
X010694Y030334*
X010745Y030357*
X010793Y030383*
X010840Y030412*
X010884Y030444*
X010926Y030479*
X010966Y030518*
X011003Y030558*
X011037Y030602*
X011067Y030647*
X011095Y030695*
X011119Y030744*
X011139Y030795*
X011156Y030847*
X011170Y030901*
X011179Y030955*
X011185Y031010*
X011187Y031065*
X007171D02*
D01*
X007169Y031119*
X007163Y031174*
X007154Y031228*
X007141Y031282*
X007124Y031334*
X007103Y031385*
X007079Y031434*
X007052Y031482*
X007021Y031527*
X006987Y031571*
X006950Y031611*
X006911Y031650*
X006869Y031685*
X006824Y031717*
X006777Y031746*
X006729Y031772*
X006679Y031795*
X006627Y031813*
X006574Y031829*
X006520Y031840*
X006466Y031848*
X006411Y031851*
X006356*
X006301Y031848*
X006247Y031840*
X006193Y031829*
X006140Y031813*
X006089Y031795*
X006039Y031772*
X005990Y031746*
X005943Y031717*
X005899Y031685*
X005857Y031650*
X005817Y031611*
X005781Y031571*
X005747Y031527*
X005716Y031482*
X005689Y031434*
X005664Y031385*
X005644Y031334*
X005627Y031282*
X005614Y031228*
X005604Y031174*
X005598Y031119*
X005596Y031065*
X005598Y031010*
X005604Y030955*
X005614Y030901*
X005627Y030847*
X005644Y030795*
X005664Y030744*
X005689Y030695*
X005716Y030647*
X005747Y030602*
X005781Y030558*
X005817Y030518*
X005857Y030479*
X005899Y030444*
X005943Y030412*
X005990Y030383*
X006039Y030357*
X006089Y030334*
X006140Y030316*
X006193Y030300*
X006247Y030289*
X006301Y030281*
X006356Y030278*
X006411*
X006466Y030281*
X006520Y030289*
X006574Y030300*
X006627Y030316*
X006679Y030334*
X006729Y030357*
X006777Y030383*
X006824Y030412*
X006869Y030444*
X006911Y030479*
X006950Y030518*
X006987Y030558*
X007021Y030602*
X007052Y030647*
X007079Y030695*
X007103Y030744*
X007124Y030795*
X007141Y030847*
X007154Y030901*
X007163Y030955*
X007169Y031010*
X007171Y031065*
X003171D02*
D01*
X003169Y031119*
X003163Y031174*
X003154Y031228*
X003141Y031282*
X003124Y031334*
X003103Y031385*
X003079Y031434*
X003052Y031482*
X003021Y031527*
X002987Y031571*
X002950Y031611*
X002911Y031650*
X002869Y031685*
X002824Y031717*
X002777Y031746*
X002729Y031772*
X002679Y031795*
X002627Y031813*
X002574Y031829*
X002520Y031840*
X002466Y031848*
X002411Y031851*
X002356*
X002301Y031848*
X002247Y031840*
X002193Y031829*
X002140Y031813*
X002089Y031795*
X002039Y031772*
X001990Y031746*
X001943Y031717*
X001899Y031685*
X001857Y031650*
X001817Y031611*
X001781Y031571*
X001747Y031527*
X001716Y031482*
X001689Y031434*
X001664Y031385*
X001644Y031334*
X001627Y031282*
X001614Y031228*
X001604Y031174*
X001598Y031119*
X001596Y031065*
X001598Y031010*
X001604Y030955*
X001614Y030901*
X001627Y030847*
X001644Y030795*
X001664Y030744*
X001689Y030695*
X001716Y030647*
X001747Y030602*
X001781Y030558*
X001817Y030518*
X001857Y030479*
X001899Y030444*
X001943Y030412*
X001990Y030383*
X002039Y030357*
X002089Y030334*
X002140Y030316*
X002193Y030300*
X002247Y030289*
X002301Y030281*
X002356Y030278*
X002411*
X002466Y030281*
X002520Y030289*
X002574Y030300*
X002627Y030316*
X002679Y030334*
X002729Y030357*
X002777Y030383*
X002824Y030412*
X002869Y030444*
X002911Y030479*
X002950Y030518*
X002987Y030558*
X003021Y030602*
X003052Y030647*
X003079Y030695*
X003103Y030744*
X003124Y030795*
X003141Y030847*
X003154Y030901*
X003163Y030955*
X003169Y031010*
X003171Y031065*
X005187D02*
D01*
X005185Y031119*
X005179Y031174*
X005170Y031228*
X005156Y031282*
X005139Y031334*
X005119Y031385*
X005095Y031434*
X005067Y031482*
X005037Y031527*
X005003Y031571*
X004966Y031611*
X004926Y031650*
X004884Y031685*
X004840Y031717*
X004793Y031746*
X004745Y031772*
X004694Y031795*
X004643Y031813*
X004590Y031829*
X004536Y031840*
X004482Y031848*
X004427Y031851*
X004372*
X004317Y031848*
X004263Y031840*
X004209Y031829*
X004156Y031813*
X004105Y031795*
X004054Y031772*
X004006Y031746*
X003959Y031717*
X003915Y031685*
X003873Y031650*
X003833Y031611*
X003796Y031571*
X003762Y031527*
X003732Y031482*
X003704Y031434*
X003680Y031385*
X003660Y031334*
X003643Y031282*
X003629Y031228*
X003620Y031174*
X003614Y031119*
X003612Y031065*
X003614Y031010*
X003620Y030955*
X003629Y030901*
X003643Y030847*
X003660Y030795*
X003680Y030744*
X003704Y030695*
X003732Y030647*
X003762Y030602*
X003796Y030558*
X003833Y030518*
X003873Y030479*
X003915Y030444*
X003959Y030412*
X004006Y030383*
X004054Y030357*
X004105Y030334*
X004156Y030316*
X004209Y030300*
X004263Y030289*
X004317Y030281*
X004372Y030278*
X004427*
X004482Y030281*
X004536Y030289*
X004590Y030300*
X004643Y030316*
X004694Y030334*
X004745Y030357*
X004793Y030383*
X004840Y030412*
X004884Y030444*
X004926Y030479*
X004966Y030518*
X005003Y030558*
X005037Y030602*
X005067Y030647*
X005095Y030695*
X005119Y030744*
X005139Y030795*
X005156Y030847*
X005170Y030901*
X005179Y030955*
X005185Y031010*
X005187Y031065*
X005172Y002400D02*
D01*
X005170Y002454*
X005164Y002509*
X005155Y002563*
X005141Y002617*
X005124Y002669*
X005104Y002720*
X005080Y002769*
X005052Y002817*
X005022Y002862*
X004988Y002906*
X004951Y002946*
X004911Y002985*
X004869Y003020*
X004825Y003052*
X004778Y003081*
X004730Y003107*
X004679Y003130*
X004628Y003148*
X004575Y003164*
X004521Y003175*
X004467Y003183*
X004412Y003186*
X004357*
X004302Y003183*
X004248Y003175*
X004194Y003164*
X004141Y003148*
X004090Y003130*
X004039Y003107*
X003991Y003081*
X003944Y003052*
X003900Y003020*
X003858Y002985*
X003818Y002946*
X003781Y002906*
X003747Y002862*
X003717Y002817*
X003689Y002769*
X003665Y002720*
X003645Y002669*
X003628Y002617*
X003614Y002563*
X003605Y002509*
X003599Y002454*
X003597Y002400*
X003599Y002345*
X003605Y002290*
X003614Y002236*
X003628Y002182*
X003645Y002130*
X003665Y002079*
X003689Y002030*
X003717Y001982*
X003747Y001937*
X003781Y001893*
X003818Y001853*
X003858Y001814*
X003900Y001779*
X003944Y001747*
X003991Y001718*
X004039Y001692*
X004090Y001669*
X004141Y001651*
X004194Y001635*
X004248Y001624*
X004302Y001616*
X004357Y001613*
X004412*
X004467Y001616*
X004521Y001624*
X004575Y001635*
X004628Y001651*
X004679Y001669*
X004730Y001692*
X004778Y001718*
X004825Y001747*
X004869Y001779*
X004911Y001814*
X004951Y001853*
X004988Y001893*
X005022Y001937*
X005052Y001982*
X005080Y002030*
X005104Y002079*
X005124Y002130*
X005141Y002182*
X005155Y002236*
X005164Y002290*
X005170Y002345*
X005172Y002400*
X003188D02*
D01*
X003186Y002454*
X003180Y002509*
X003170Y002563*
X003157Y002617*
X003140Y002669*
X003120Y002720*
X003095Y002769*
X003068Y002817*
X003037Y002862*
X003003Y002906*
X002967Y002946*
X002927Y002985*
X002885Y003020*
X002841Y003052*
X002794Y003081*
X002745Y003107*
X002695Y003130*
X002644Y003148*
X002591Y003164*
X002537Y003175*
X002483Y003183*
X002428Y003186*
X002373*
X002318Y003183*
X002264Y003175*
X002210Y003164*
X002157Y003148*
X002105Y003130*
X002055Y003107*
X002007Y003081*
X001960Y003052*
X001915Y003020*
X001873Y002985*
X001834Y002946*
X001797Y002906*
X001763Y002862*
X001732Y002817*
X001705Y002769*
X001681Y002720*
X001660Y002669*
X001643Y002617*
X001630Y002563*
X001621Y002509*
X001615Y002454*
X001613Y002400*
X001615Y002345*
X001621Y002290*
X001630Y002236*
X001643Y002182*
X001660Y002130*
X001681Y002079*
X001705Y002030*
X001732Y001982*
X001763Y001937*
X001797Y001893*
X001834Y001853*
X001873Y001814*
X001915Y001779*
X001960Y001747*
X002007Y001718*
X002055Y001692*
X002105Y001669*
X002157Y001651*
X002210Y001635*
X002264Y001624*
X002318Y001616*
X002373Y001613*
X002428*
X002483Y001616*
X002537Y001624*
X002591Y001635*
X002644Y001651*
X002695Y001669*
X002745Y001692*
X002794Y001718*
X002841Y001747*
X002885Y001779*
X002927Y001814*
X002967Y001853*
X003003Y001893*
X003037Y001937*
X003068Y001982*
X003095Y002030*
X003120Y002079*
X003140Y002130*
X003157Y002182*
X003170Y002236*
X003180Y002290*
X003186Y002345*
X003188Y002400*
X009157D02*
D01*
X009155Y002454*
X009149Y002509*
X009140Y002563*
X009126Y002617*
X009109Y002669*
X009089Y002720*
X009065Y002769*
X009037Y002817*
X009007Y002862*
X008973Y002906*
X008936Y002946*
X008896Y002985*
X008854Y003020*
X008810Y003052*
X008763Y003081*
X008715Y003107*
X008664Y003130*
X008613Y003148*
X008560Y003164*
X008506Y003175*
X008452Y003183*
X008397Y003186*
X008342*
X008287Y003183*
X008233Y003175*
X008179Y003164*
X008126Y003148*
X008075Y003130*
X008024Y003107*
X007976Y003081*
X007929Y003052*
X007885Y003020*
X007843Y002985*
X007803Y002946*
X007766Y002906*
X007732Y002862*
X007702Y002817*
X007674Y002769*
X007650Y002720*
X007630Y002669*
X007613Y002617*
X007599Y002563*
X007590Y002509*
X007584Y002454*
X007582Y002400*
X007584Y002345*
X007590Y002290*
X007599Y002236*
X007613Y002182*
X007630Y002130*
X007650Y002079*
X007674Y002030*
X007702Y001982*
X007732Y001937*
X007766Y001893*
X007803Y001853*
X007843Y001814*
X007885Y001779*
X007929Y001747*
X007976Y001718*
X008024Y001692*
X008075Y001669*
X008126Y001651*
X008179Y001635*
X008233Y001624*
X008287Y001616*
X008342Y001613*
X008397*
X008452Y001616*
X008506Y001624*
X008560Y001635*
X008613Y001651*
X008664Y001669*
X008715Y001692*
X008763Y001718*
X008810Y001747*
X008854Y001779*
X008896Y001814*
X008936Y001853*
X008973Y001893*
X009007Y001937*
X009037Y001982*
X009065Y002030*
X009089Y002079*
X009109Y002130*
X009126Y002182*
X009140Y002236*
X009149Y002290*
X009155Y002345*
X009157Y002400*
X007173D02*
D01*
X007171Y002454*
X007165Y002509*
X007155Y002563*
X007142Y002617*
X007125Y002669*
X007105Y002720*
X007080Y002769*
X007053Y002817*
X007022Y002862*
X006988Y002906*
X006952Y002946*
X006912Y002985*
X006870Y003020*
X006826Y003052*
X006779Y003081*
X006730Y003107*
X006680Y003130*
X006629Y003148*
X006576Y003164*
X006522Y003175*
X006468Y003183*
X006413Y003186*
X006358*
X006303Y003183*
X006249Y003175*
X006195Y003164*
X006142Y003148*
X006090Y003130*
X006040Y003107*
X005992Y003081*
X005945Y003052*
X005900Y003020*
X005858Y002985*
X005819Y002946*
X005782Y002906*
X005748Y002862*
X005717Y002817*
X005690Y002769*
X005666Y002720*
X005645Y002669*
X005628Y002617*
X005615Y002563*
X005606Y002509*
X005600Y002454*
X005598Y002400*
X005600Y002345*
X005606Y002290*
X005615Y002236*
X005628Y002182*
X005645Y002130*
X005666Y002079*
X005690Y002030*
X005717Y001982*
X005748Y001937*
X005782Y001893*
X005819Y001853*
X005858Y001814*
X005900Y001779*
X005945Y001747*
X005992Y001718*
X006040Y001692*
X006090Y001669*
X006142Y001651*
X006195Y001635*
X006249Y001624*
X006303Y001616*
X006358Y001613*
X006413*
X006468Y001616*
X006522Y001624*
X006576Y001635*
X006629Y001651*
X006680Y001669*
X006730Y001692*
X006779Y001718*
X006826Y001747*
X006870Y001779*
X006912Y001814*
X006952Y001853*
X006988Y001893*
X007022Y001937*
X007053Y001982*
X007080Y002030*
X007105Y002079*
X007125Y002130*
X007142Y002182*
X007155Y002236*
X007165Y002290*
X007171Y002345*
X007173Y002400*
X019157D02*
D01*
X019155Y002454*
X019149Y002509*
X019140Y002563*
X019126Y002617*
X019109Y002669*
X019089Y002720*
X019065Y002769*
X019037Y002817*
X019007Y002862*
X018973Y002906*
X018936Y002946*
X018896Y002985*
X018854Y003020*
X018810Y003052*
X018763Y003081*
X018715Y003107*
X018664Y003130*
X018613Y003148*
X018560Y003164*
X018506Y003175*
X018452Y003183*
X018397Y003186*
X018342*
X018287Y003183*
X018233Y003175*
X018179Y003164*
X018126Y003148*
X018075Y003130*
X018024Y003107*
X017976Y003081*
X017929Y003052*
X017885Y003020*
X017843Y002985*
X017803Y002946*
X017766Y002906*
X017732Y002862*
X017702Y002817*
X017674Y002769*
X017650Y002720*
X017630Y002669*
X017613Y002617*
X017599Y002563*
X017590Y002509*
X017584Y002454*
X017582Y002400*
X017584Y002345*
X017590Y002290*
X017599Y002236*
X017613Y002182*
X017630Y002130*
X017650Y002079*
X017674Y002030*
X017702Y001982*
X017732Y001937*
X017766Y001893*
X017803Y001853*
X017843Y001814*
X017885Y001779*
X017929Y001747*
X017976Y001718*
X018024Y001692*
X018075Y001669*
X018126Y001651*
X018179Y001635*
X018233Y001624*
X018287Y001616*
X018342Y001613*
X018397*
X018452Y001616*
X018506Y001624*
X018560Y001635*
X018613Y001651*
X018664Y001669*
X018715Y001692*
X018763Y001718*
X018810Y001747*
X018854Y001779*
X018896Y001814*
X018936Y001853*
X018973Y001893*
X019007Y001937*
X019037Y001982*
X019065Y002030*
X019089Y002079*
X019109Y002130*
X019126Y002182*
X019140Y002236*
X019149Y002290*
X019155Y002345*
X019157Y002400*
X021173D02*
D01*
X021171Y002454*
X021165Y002509*
X021155Y002563*
X021142Y002617*
X021125Y002669*
X021105Y002720*
X021080Y002769*
X021053Y002817*
X021022Y002862*
X020988Y002906*
X020952Y002946*
X020912Y002985*
X020870Y003020*
X020826Y003052*
X020779Y003081*
X020730Y003107*
X020680Y003130*
X020629Y003148*
X020576Y003164*
X020522Y003175*
X020468Y003183*
X020413Y003186*
X020358*
X020303Y003183*
X020249Y003175*
X020195Y003164*
X020142Y003148*
X020090Y003130*
X020040Y003107*
X019992Y003081*
X019945Y003052*
X019900Y003020*
X019858Y002985*
X019819Y002946*
X019782Y002906*
X019748Y002862*
X019717Y002817*
X019690Y002769*
X019666Y002720*
X019645Y002669*
X019628Y002617*
X019615Y002563*
X019606Y002509*
X019600Y002454*
X019598Y002400*
X019600Y002345*
X019606Y002290*
X019615Y002236*
X019628Y002182*
X019645Y002130*
X019666Y002079*
X019690Y002030*
X019717Y001982*
X019748Y001937*
X019782Y001893*
X019819Y001853*
X019858Y001814*
X019900Y001779*
X019945Y001747*
X019992Y001718*
X020040Y001692*
X020090Y001669*
X020142Y001651*
X020195Y001635*
X020249Y001624*
X020303Y001616*
X020358Y001613*
X020413*
X020468Y001616*
X020522Y001624*
X020576Y001635*
X020629Y001651*
X020680Y001669*
X020730Y001692*
X020779Y001718*
X020826Y001747*
X020870Y001779*
X020912Y001814*
X020952Y001853*
X020988Y001893*
X021022Y001937*
X021053Y001982*
X021080Y002030*
X021105Y002079*
X021125Y002130*
X021142Y002182*
X021155Y002236*
X021165Y002290*
X021171Y002345*
X021173Y002400*
X017173D02*
D01*
X017171Y002454*
X017165Y002509*
X017155Y002563*
X017142Y002617*
X017125Y002669*
X017105Y002720*
X017080Y002769*
X017053Y002817*
X017022Y002862*
X016988Y002906*
X016952Y002946*
X016912Y002985*
X016870Y003020*
X016826Y003052*
X016779Y003081*
X016730Y003107*
X016680Y003130*
X016629Y003148*
X016576Y003164*
X016522Y003175*
X016468Y003183*
X016413Y003186*
X016358*
X016303Y003183*
X016249Y003175*
X016195Y003164*
X016142Y003148*
X016090Y003130*
X016040Y003107*
X015992Y003081*
X015945Y003052*
X015900Y003020*
X015858Y002985*
X015819Y002946*
X015782Y002906*
X015748Y002862*
X015717Y002817*
X015690Y002769*
X015666Y002720*
X015645Y002669*
X015628Y002617*
X015615Y002563*
X015606Y002509*
X015600Y002454*
X015598Y002400*
X015600Y002345*
X015606Y002290*
X015615Y002236*
X015628Y002182*
X015645Y002130*
X015666Y002079*
X015690Y002030*
X015717Y001982*
X015748Y001937*
X015782Y001893*
X015819Y001853*
X015858Y001814*
X015900Y001779*
X015945Y001747*
X015992Y001718*
X016040Y001692*
X016090Y001669*
X016142Y001651*
X016195Y001635*
X016249Y001624*
X016303Y001616*
X016358Y001613*
X016413*
X016468Y001616*
X016522Y001624*
X016576Y001635*
X016629Y001651*
X016680Y001669*
X016730Y001692*
X016779Y001718*
X016826Y001747*
X016870Y001779*
X016912Y001814*
X016952Y001853*
X016988Y001893*
X017022Y001937*
X017053Y001982*
X017080Y002030*
X017105Y002079*
X017125Y002130*
X017142Y002182*
X017155Y002236*
X017165Y002290*
X017171Y002345*
X017173Y002400*
X013147D02*
D01*
X013145Y002454*
X013139Y002509*
X013130Y002563*
X013116Y002617*
X013099Y002669*
X013079Y002720*
X013055Y002769*
X013027Y002817*
X012997Y002862*
X012963Y002906*
X012926Y002946*
X012886Y002985*
X012844Y003020*
X012800Y003052*
X012753Y003081*
X012705Y003107*
X012654Y003130*
X012603Y003148*
X012550Y003164*
X012496Y003175*
X012442Y003183*
X012387Y003186*
X012332*
X012277Y003183*
X012223Y003175*
X012169Y003164*
X012116Y003148*
X012065Y003130*
X012014Y003107*
X011966Y003081*
X011919Y003052*
X011875Y003020*
X011833Y002985*
X011793Y002946*
X011756Y002906*
X011722Y002862*
X011692Y002817*
X011664Y002769*
X011640Y002720*
X011620Y002669*
X011603Y002617*
X011589Y002563*
X011580Y002509*
X011574Y002454*
X011572Y002400*
X011574Y002345*
X011580Y002290*
X011589Y002236*
X011603Y002182*
X011620Y002130*
X011640Y002079*
X011664Y002030*
X011692Y001982*
X011722Y001937*
X011756Y001893*
X011793Y001853*
X011833Y001814*
X011875Y001779*
X011919Y001747*
X011966Y001718*
X012014Y001692*
X012065Y001669*
X012116Y001651*
X012169Y001635*
X012223Y001624*
X012277Y001616*
X012332Y001613*
X012387*
X012442Y001616*
X012496Y001624*
X012550Y001635*
X012603Y001651*
X012654Y001669*
X012705Y001692*
X012753Y001718*
X012800Y001747*
X012844Y001779*
X012886Y001814*
X012926Y001853*
X012963Y001893*
X012997Y001937*
X013027Y001982*
X013055Y002030*
X013079Y002079*
X013099Y002130*
X013116Y002182*
X013130Y002236*
X013139Y002290*
X013145Y002345*
X013147Y002400*
X011131D02*
D01*
X011129Y002454*
X011123Y002509*
X011114Y002563*
X011101Y002617*
X011084Y002669*
X011063Y002720*
X011039Y002769*
X011012Y002817*
X010981Y002862*
X010947Y002906*
X010910Y002946*
X010871Y002985*
X010829Y003020*
X010784Y003052*
X010737Y003081*
X010689Y003107*
X010639Y003130*
X010587Y003148*
X010534Y003164*
X010480Y003175*
X010426Y003183*
X010371Y003186*
X010316*
X010261Y003183*
X010207Y003175*
X010153Y003164*
X010100Y003148*
X010049Y003130*
X009999Y003107*
X009950Y003081*
X009903Y003052*
X009859Y003020*
X009817Y002985*
X009777Y002946*
X009741Y002906*
X009707Y002862*
X009676Y002817*
X009649Y002769*
X009624Y002720*
X009604Y002669*
X009587Y002617*
X009574Y002563*
X009564Y002509*
X009558Y002454*
X009556Y002400*
X009558Y002345*
X009564Y002290*
X009574Y002236*
X009587Y002182*
X009604Y002130*
X009624Y002079*
X009649Y002030*
X009676Y001982*
X009707Y001937*
X009741Y001893*
X009777Y001853*
X009817Y001814*
X009859Y001779*
X009903Y001747*
X009950Y001718*
X009999Y001692*
X010049Y001669*
X010100Y001651*
X010153Y001635*
X010207Y001624*
X010261Y001616*
X010316Y001613*
X010371*
X010426Y001616*
X010480Y001624*
X010534Y001635*
X010587Y001651*
X010639Y001669*
X010689Y001692*
X010737Y001718*
X010784Y001747*
X010829Y001779*
X010871Y001814*
X010910Y001853*
X010947Y001893*
X010981Y001937*
X011012Y001982*
X011039Y002030*
X011063Y002079*
X011084Y002130*
X011101Y002182*
X011114Y002236*
X011123Y002290*
X011129Y002345*
X011131Y002400*
X015131D02*
D01*
X015129Y002454*
X015123Y002509*
X015114Y002563*
X015101Y002617*
X015084Y002669*
X015063Y002720*
X015039Y002769*
X015012Y002817*
X014981Y002862*
X014947Y002906*
X014910Y002946*
X014871Y002985*
X014829Y003020*
X014784Y003052*
X014737Y003081*
X014689Y003107*
X014639Y003130*
X014587Y003148*
X014534Y003164*
X014480Y003175*
X014426Y003183*
X014371Y003186*
X014316*
X014261Y003183*
X014207Y003175*
X014153Y003164*
X014100Y003148*
X014049Y003130*
X013999Y003107*
X013950Y003081*
X013903Y003052*
X013859Y003020*
X013817Y002985*
X013777Y002946*
X013741Y002906*
X013707Y002862*
X013676Y002817*
X013649Y002769*
X013624Y002720*
X013604Y002669*
X013587Y002617*
X013574Y002563*
X013564Y002509*
X013558Y002454*
X013556Y002400*
X013558Y002345*
X013564Y002290*
X013574Y002236*
X013587Y002182*
X013604Y002130*
X013624Y002079*
X013649Y002030*
X013676Y001982*
X013707Y001937*
X013741Y001893*
X013777Y001853*
X013817Y001814*
X013859Y001779*
X013903Y001747*
X013950Y001718*
X013999Y001692*
X014049Y001669*
X014100Y001651*
X014153Y001635*
X014207Y001624*
X014261Y001616*
X014316Y001613*
X014371*
X014426Y001616*
X014480Y001624*
X014534Y001635*
X014587Y001651*
X014639Y001669*
X014689Y001692*
X014737Y001718*
X014784Y001747*
X014829Y001779*
X014871Y001814*
X014910Y001853*
X014947Y001893*
X014981Y001937*
X015012Y001982*
X015039Y002030*
X015063Y002079*
X015084Y002130*
X015101Y002182*
X015114Y002236*
X015123Y002290*
X015129Y002345*
X015131Y002400*
X025157D02*
D01*
X025155Y002454*
X025149Y002509*
X025140Y002563*
X025126Y002617*
X025109Y002669*
X025089Y002720*
X025065Y002769*
X025037Y002817*
X025007Y002862*
X024973Y002906*
X024936Y002946*
X024896Y002985*
X024854Y003020*
X024810Y003052*
X024763Y003081*
X024715Y003107*
X024664Y003130*
X024613Y003148*
X024560Y003164*
X024506Y003175*
X024452Y003183*
X024397Y003186*
X024342*
X024287Y003183*
X024233Y003175*
X024179Y003164*
X024126Y003148*
X024075Y003130*
X024024Y003107*
X023976Y003081*
X023929Y003052*
X023885Y003020*
X023843Y002985*
X023803Y002946*
X023766Y002906*
X023732Y002862*
X023702Y002817*
X023674Y002769*
X023650Y002720*
X023630Y002669*
X023613Y002617*
X023599Y002563*
X023590Y002509*
X023584Y002454*
X023582Y002400*
X023584Y002345*
X023590Y002290*
X023599Y002236*
X023613Y002182*
X023630Y002130*
X023650Y002079*
X023674Y002030*
X023702Y001982*
X023732Y001937*
X023766Y001893*
X023803Y001853*
X023843Y001814*
X023885Y001779*
X023929Y001747*
X023976Y001718*
X024024Y001692*
X024075Y001669*
X024126Y001651*
X024179Y001635*
X024233Y001624*
X024287Y001616*
X024342Y001613*
X024397*
X024452Y001616*
X024506Y001624*
X024560Y001635*
X024613Y001651*
X024664Y001669*
X024715Y001692*
X024763Y001718*
X024810Y001747*
X024854Y001779*
X024896Y001814*
X024936Y001853*
X024973Y001893*
X025007Y001937*
X025037Y001982*
X025065Y002030*
X025089Y002079*
X025109Y002130*
X025126Y002182*
X025140Y002236*
X025149Y002290*
X025155Y002345*
X025157Y002400*
X023173D02*
D01*
X023171Y002454*
X023165Y002509*
X023155Y002563*
X023142Y002617*
X023125Y002669*
X023105Y002720*
X023080Y002769*
X023053Y002817*
X023022Y002862*
X022988Y002906*
X022952Y002946*
X022912Y002985*
X022870Y003020*
X022826Y003052*
X022779Y003081*
X022730Y003107*
X022680Y003130*
X022629Y003148*
X022576Y003164*
X022522Y003175*
X022468Y003183*
X022413Y003186*
X022358*
X022303Y003183*
X022249Y003175*
X022195Y003164*
X022142Y003148*
X022090Y003130*
X022040Y003107*
X021992Y003081*
X021945Y003052*
X021900Y003020*
X021858Y002985*
X021819Y002946*
X021782Y002906*
X021748Y002862*
X021717Y002817*
X021690Y002769*
X021666Y002720*
X021645Y002669*
X021628Y002617*
X021615Y002563*
X021606Y002509*
X021600Y002454*
X021598Y002400*
X021600Y002345*
X021606Y002290*
X021615Y002236*
X021628Y002182*
X021645Y002130*
X021666Y002079*
X021690Y002030*
X021717Y001982*
X021748Y001937*
X021782Y001893*
X021819Y001853*
X021858Y001814*
X021900Y001779*
X021945Y001747*
X021992Y001718*
X022040Y001692*
X022090Y001669*
X022142Y001651*
X022195Y001635*
X022249Y001624*
X022303Y001616*
X022358Y001613*
X022413*
X022468Y001616*
X022522Y001624*
X022576Y001635*
X022629Y001651*
X022680Y001669*
X022730Y001692*
X022779Y001718*
X022826Y001747*
X022870Y001779*
X022912Y001814*
X022952Y001853*
X022988Y001893*
X023022Y001937*
X023053Y001982*
X023080Y002030*
X023105Y002079*
X023125Y002130*
X023142Y002182*
X023155Y002236*
X023165Y002290*
X023171Y002345*
X023173Y002400*
X021980Y031715D02*
X023030Y030665D01*
X022830Y030415D02*
Y030465D01*
X021780Y031515D02*
X022830Y030465D01*
X023930Y030415D02*
X025005Y031490D01*
X023780Y030615D02*
X024830Y031665D01*
X014010Y031715D02*
X015060Y030665D01*
X014860Y030415D02*
Y030465D01*
X013810Y031515D02*
X014860Y030465D01*
X015960Y030415D02*
X017035Y031490D01*
X015810Y030615D02*
X016860Y031665D01*
X017980Y031715D02*
X019030Y030665D01*
X018830Y030415D02*
Y030465D01*
X017780Y031515D02*
X018830Y030465D01*
X019930Y030415D02*
X021005Y031490D01*
X019780Y030615D02*
X020830Y031665D01*
X007775Y030640D02*
X008850Y031715D01*
X007950Y030465D02*
X009000Y031515D01*
X011775Y030640D02*
X012850Y031715D01*
X011950Y030465D02*
X013000Y031515D01*
X009750Y031465D02*
X010800Y030415D01*
X009950Y031665D02*
X011000Y030615D01*
X005950Y030415D02*
X007025Y031490D01*
X005800Y030615D02*
X006850Y031665D01*
X001950Y030415D02*
X003025Y031490D01*
X001800Y030615D02*
X002850Y031665D01*
X004000Y031715D02*
X005050Y030665D01*
X003800Y031515D02*
X004850Y030465D01*
X001935Y001800D02*
X002985Y002850D01*
X001760Y001975D02*
X002835Y003050D01*
X003935Y003000D02*
X004985Y001950D01*
X003935Y003000D02*
Y003050D01*
X003735Y002800D02*
X004785Y001750D01*
X005920Y001800D02*
X006970Y002850D01*
X005745Y001975D02*
X006820Y003050D01*
X007920Y003000D02*
X008970Y001950D01*
X007920Y003000D02*
Y003050D01*
X007720Y002800D02*
X008770Y001750D01*
X017920Y003000D02*
X018970Y001950D01*
X017720Y002800D02*
X018770Y001750D01*
X019920Y001800D02*
X020970Y002850D01*
X019745Y001975D02*
X020820Y003050D01*
X015920Y001800D02*
X016970Y002850D01*
X015745Y001975D02*
X016820Y003050D01*
X011760Y002850D02*
X012810Y001800D01*
X011960Y003050D02*
X013010Y002000D01*
X009760Y001950D02*
X010810Y003000D01*
X009910Y001750D02*
X010985Y002825D01*
X013760Y001950D02*
X014810Y003000D01*
X013910Y001750D02*
X014985Y002825D01*
X021920Y001800D02*
X022970Y002850D01*
X021745Y001975D02*
X022820Y003050D01*
X023920Y003000D02*
X024970Y001950D01*
X023920Y003000D02*
Y003050D01*
X023720Y002800D02*
X024770Y001750D01*
M02*