%FSDAX24Y24*%
%MOIN*%
%SFA1B1*%

%IPPOS*%
%ADD9500C,0.010000*%
%ADD9501C,0.035400*%
%ADD9502C,0.039400*%
%LNpcb_baseboard-1*%
%LPD*%
G54D9500*
X034005Y022946D03*
X034000Y023500D03*
X035844Y027951D03*
X035450Y028350D03*
X030900Y029550D03*
X030600Y029900D03*
X030250Y030150D03*
X029900Y030450D03*
X028750Y027400D03*
X025594Y028201D03*
X024300Y026500D03*
X025223Y024498D03*
X022704Y024098D03*
X022300Y024100D03*
X021900D03*
X021500D03*
X021000D03*
X020900Y025600D03*
X020400Y028900D03*
X016550Y029650D03*
X016850Y030050D03*
X017339Y026466D03*
X029700Y024000D03*
X014500Y024700D03*
Y025200D03*
Y025700D03*
Y026200D03*
X014612Y028700D03*
Y029238D03*
Y029638D03*
X014600Y030050D03*
X012900Y027800D03*
X013694Y022401D03*
X026205Y032789D03*
X027200Y032750D03*
X032400Y039397D03*
G54D9501*
X033060Y018663D03*
X034060D03*
X035060D03*
Y019663D03*
X034060D03*
X033060D03*
X029920D03*
X028920D03*
X027920D03*
Y018663D03*
X028920D03*
X029920D03*
X025540D03*
Y019663D03*
X024540D03*
Y018663D03*
X023540D03*
Y019663D03*
X022540D03*
Y018663D03*
X021540D03*
Y019663D03*
X017890D03*
Y018663D03*
X016890D03*
Y019663D03*
X017000Y023800D03*
X018000D03*
X019000D03*
X020200Y030450D03*
X021200D03*
X022200D03*
X023200D03*
X024200D03*
X025200D03*
X026200D03*
X027200D03*
X028200D03*
X013760Y019663D03*
Y018663D03*
X012760D03*
Y019663D03*
X012700Y033803D03*
X011700D03*
Y034803D03*
X012700D03*
X013700D03*
Y033803D03*
X016841D03*
X017841D03*
X018841D03*
Y034803D03*
X017841D03*
X016841D03*
X021200D03*
Y033803D03*
X022200D03*
Y034803D03*
X023200D03*
Y033803D03*
X024200D03*
Y034803D03*
X025200D03*
Y033803D03*
Y031450D03*
X026200D03*
X027200D03*
X028200D03*
X028840Y033803D03*
Y034803D03*
X029840D03*
Y033803D03*
X024200Y031450D03*
X023200D03*
X022200D03*
X021200D03*
X020200D03*
X033000Y033803D03*
Y034803D03*
X034000D03*
Y033803D03*
G54D9502*
X012401Y012400D03*
X014369D03*
X016386D03*
X018354D03*
X020360D03*
X022360D03*
X024360D03*
X026370D03*
X028370D03*
X030370D03*
X032386D03*
X034354D03*
X014400Y041065D03*
X012400D03*
X016400D03*
X018400D03*
X020400D03*
X022400D03*
X024426D03*
X026394D03*
X028396D03*
X030364D03*
X032396D03*
X034364D03*
M02*