%FSDAX24Y24*%
%MOIN*%
%SFA1B1*%

%IPPOS*%
%ADD10C,0.010000*%
%ADD18R,0.043307X0.039370*%
%ADD28R,0.039370X0.043307*%
%ADD50C,0.060000*%
%ADD51C,0.020000*%
%ADD52C,0.030000*%
%ADD56R,0.059055X0.059055*%
%ADD57C,0.059055*%
%ADD58C,0.098425*%
%ADD59C,0.030000*%
%ADD60O,0.023622X0.086614*%
%ADD61R,0.015748X0.051181*%
%ADD62O,0.011811X0.070866*%
%ADD63O,0.070866X0.011811*%
%ADD64R,0.059055X0.023622*%
%ADD65R,0.059055X0.051181*%
%ADD66R,0.043307X0.025591*%
%ADD67R,0.140000X0.150000*%
%ADD68R,0.050000X0.140000*%
%ADD84C,0.005000*%
%ADD85C,0.010000*%
%LNpcb_baseboard-1*%
%LPD*%
G54D84*
X026593Y019135D02*
Y011125D01*
X021878*
Y011272*
X022977Y012371*
X023861*
X023970Y012385*
X024074Y012428*
X024161Y012495*
X024309Y012643*
X024376Y012731*
X024419Y012834*
X024433Y012943*
Y013496*
X024419Y013605*
X024376Y013708*
X024309Y013796*
X024301Y013804*
X024214Y013871*
X024110Y013914*
X024000Y013928*
X023889Y013914*
X023785Y013871*
X023696Y013803*
X023628Y013714*
X023585Y013610*
X023571Y013499*
X023576Y013457*
Y013228*
X022798*
X022689Y013214*
X022585Y013171*
X022498Y013104*
X021145Y011751*
X021078Y011664*
X021035Y011560*
X021021Y011451*
Y011125*
X015592*
X015591Y011129*
X015618Y011135*
X015674Y011172*
X021727Y017225*
X021764Y017281*
X021777Y017347*
Y022475*
X025871*
Y020494*
X019651Y014275*
X019645Y014274*
X019544Y014233*
X019466Y014155*
X019425Y014054*
Y013945*
X019466Y013844*
X019544Y013766*
X019645Y013725*
X019754*
X019855Y013766*
X019933Y013844*
X019975Y013945*
Y013951*
X025217Y019193*
X026263Y020239*
X026311Y020312*
X026328Y020397*
Y022500*
Y028202*
X026311Y028287*
X026263Y028360*
X025925Y028698*
X025853Y028746*
X025767Y028763*
X025221*
Y028876*
X024578*
Y028814*
X024447*
X024447Y028817*
X024429Y028909*
X024375Y028990*
X024340Y029013*
X024359Y029078*
X024718*
X024781*
X024881*
X025476*
Y029417*
X025563Y029505*
X025611Y029577*
X025628Y029662*
Y032002*
X025611Y032087*
X025563Y032160*
X025260Y032463*
X025187Y032511*
X025102Y032528*
X022797*
X022712Y032511*
X022639Y032463*
X022232Y032055*
X022183Y031983*
X022166Y031898*
Y031638*
X022103Y031611*
X022002Y031544*
X021916Y031458*
X021848Y031357*
X021802Y031245*
X021778Y031125*
Y031004*
X021802Y030884*
X021848Y030772*
X021916Y030671*
X022002Y030585*
X022103Y030518*
X022215Y030471*
X022334Y030447*
X022456*
X022575Y030471*
X022688Y030518*
X022789Y030585*
X022875Y030671*
X022942Y030772*
X022989Y030884*
X023012Y031004*
Y031125*
X022989Y031245*
X022942Y031357*
X022875Y031458*
X022789Y031544*
X022688Y031611*
X022624Y031638*
Y031800*
X022894Y032071*
X025005*
X025171Y031905*
Y029785*
X025107Y029721*
X024881*
X024818*
X024718*
X024123*
Y029577*
X023915*
Y029780*
X023659*
Y030033*
X023252*
Y029780*
X022996*
Y029577*
X022608*
X022555Y029630*
X022454Y029672*
X022345*
X022244Y029630*
X022166Y029552*
X022125Y029451*
Y029342*
X022166Y029241*
X022244Y029164*
X022345Y029122*
X022454*
X022555Y029164*
X022613Y029222*
X022996*
Y029044*
X022997Y028982*
X022978Y028968*
X022878Y028985*
X022874Y028989*
X022775Y029058*
Y028525*
X022625*
Y029057*
X022524Y028990*
X022470Y028909*
X022452Y028817*
Y028624*
X022440Y028607*
X022420Y028502*
Y028496*
X022360*
X022255Y028475*
X022166Y028416*
X021926Y028176*
X021727*
X021724Y028250*
X021725Y033286*
X026593*
Y019135*
X015610Y011130D02*
D01*
X015660D02*
Y011160D01*
X015710Y011130D02*
Y011210D01*
X015760Y011130D02*
Y011260D01*
X015810Y011130D02*
Y011310D01*
X015860Y011130D02*
Y011360D01*
X015910Y011130D02*
Y011410D01*
X015960Y011130D02*
Y011460D01*
X016010Y011130D02*
Y011510D01*
X016060Y011130D02*
Y011560D01*
X016110Y011130D02*
Y011610D01*
X016160Y011130D02*
Y011660D01*
X016210Y011130D02*
Y011710D01*
X016260Y011130D02*
Y011760D01*
X016310Y011130D02*
Y011810D01*
X016360Y011130D02*
Y011860D01*
X016410Y011130D02*
Y011910D01*
X016460Y011130D02*
Y011960D01*
X016510Y011130D02*
Y012010D01*
X016560Y011130D02*
Y012060D01*
X016610Y011130D02*
Y012110D01*
X016660Y011130D02*
Y012160D01*
X016710Y011130D02*
Y012210D01*
X016760Y011130D02*
Y012260D01*
X016810Y011130D02*
Y012310D01*
X016860Y011130D02*
Y012360D01*
X016910Y011130D02*
Y012410D01*
X016960Y011130D02*
Y012460D01*
X017010Y011130D02*
Y012510D01*
X017060Y011130D02*
Y012560D01*
X017110Y011130D02*
Y012610D01*
X017160Y011130D02*
Y012660D01*
X017210Y011130D02*
Y012710D01*
X017260Y011130D02*
Y012760D01*
X017310Y011130D02*
Y012810D01*
X017360Y011130D02*
Y012860D01*
X017410Y011130D02*
Y012910D01*
X017460Y011130D02*
Y012960D01*
X017510Y011130D02*
Y013010D01*
X017560Y011130D02*
Y013060D01*
X017610Y011130D02*
Y013110D01*
X017660Y011130D02*
Y013160D01*
X017710Y011130D02*
Y013210D01*
X017760Y011130D02*
Y013260D01*
X017810Y011130D02*
Y013310D01*
X017860Y011130D02*
Y013360D01*
X017910Y011130D02*
Y013410D01*
X017960Y011130D02*
Y013460D01*
X018010Y011130D02*
Y013510D01*
X018060Y011130D02*
Y013560D01*
X018110Y011130D02*
Y013610D01*
X018160Y011130D02*
Y013660D01*
X018210Y011130D02*
Y013710D01*
X018260Y011130D02*
Y013760D01*
X018310Y011130D02*
Y013810D01*
X018360Y011130D02*
Y013860D01*
X018410Y011130D02*
Y013910D01*
X018460Y011130D02*
Y013960D01*
X018510Y011130D02*
Y014010D01*
X018560Y011130D02*
Y014060D01*
X018610Y011130D02*
Y014110D01*
X018660Y011130D02*
Y014160D01*
X018710Y011130D02*
Y014210D01*
X018760Y011130D02*
Y014260D01*
X018810Y011130D02*
Y014310D01*
X018860Y011130D02*
Y014360D01*
X018910Y011130D02*
Y014410D01*
X018960Y011130D02*
Y014460D01*
X019010Y011130D02*
Y014510D01*
X019060Y011130D02*
Y014560D01*
X019110Y011130D02*
Y014610D01*
X019160Y011130D02*
Y014660D01*
X019210Y011130D02*
Y014710D01*
X019260Y011130D02*
Y014760D01*
X019310Y011130D02*
Y014810D01*
X019360Y011130D02*
Y014860D01*
X019410Y011130D02*
Y014910D01*
X019460Y011130D02*
Y013860D01*
Y014150D02*
Y014960D01*
X019510Y011130D02*
Y013790D01*
Y014220D02*
Y015010D01*
X019560Y011130D02*
Y013760D01*
Y014250D02*
Y015060D01*
X019610Y011130D02*
Y013730D01*
Y014270D02*
Y015110D01*
X019660Y011130D02*
Y013710D01*
Y014300D02*
Y015160D01*
X019710Y011130D02*
Y013710D01*
Y014350D02*
Y015210D01*
X019760Y011130D02*
Y013720D01*
Y014400D02*
Y015260D01*
X019810Y011130D02*
Y013740D01*
Y014450D02*
Y015310D01*
X019860Y011130D02*
Y013770D01*
Y014500D02*
Y015360D01*
X019910Y011130D02*
Y013820D01*
Y014550D02*
Y015410D01*
X019960Y011130D02*
Y013920D01*
Y014600D02*
Y015460D01*
X020010Y011130D02*
Y013980D01*
Y014650D02*
Y015510D01*
X020060Y011130D02*
Y014030D01*
Y014700D02*
Y015560D01*
X020110Y011130D02*
Y014080D01*
Y014750D02*
Y015610D01*
X020160Y011130D02*
Y014130D01*
Y014800D02*
Y015660D01*
X020210Y011130D02*
Y014180D01*
Y014850D02*
Y015710D01*
X020260Y011130D02*
Y014230D01*
Y014900D02*
Y015760D01*
X020310Y011130D02*
Y014280D01*
Y014950D02*
Y015810D01*
X020360Y011130D02*
Y014330D01*
Y015000D02*
Y015860D01*
X020410Y011130D02*
Y014380D01*
Y015050D02*
Y015910D01*
X020460Y011130D02*
Y014430D01*
Y015100D02*
Y015960D01*
X020510Y011130D02*
Y014480D01*
Y015150D02*
Y016010D01*
X020560Y011130D02*
Y014530D01*
Y015200D02*
Y016060D01*
X020610Y011130D02*
Y014580D01*
Y015250D02*
Y016110D01*
X020660Y011130D02*
Y014630D01*
Y015300D02*
Y016160D01*
X020710Y011130D02*
Y014680D01*
Y015350D02*
Y016210D01*
X020760Y011130D02*
Y014730D01*
Y015400D02*
Y016260D01*
X020810Y011130D02*
Y014780D01*
Y015450D02*
Y016310D01*
X020860Y011130D02*
Y014830D01*
Y015500D02*
Y016360D01*
X020910Y011130D02*
Y014880D01*
Y015550D02*
Y016410D01*
X020960Y011130D02*
Y014930D01*
Y015600D02*
Y016460D01*
X021010Y011130D02*
Y014980D01*
Y015650D02*
Y016510D01*
X021060Y011630D02*
Y015030D01*
Y015700D02*
Y016560D01*
X021110Y011710D02*
Y015080D01*
Y015750D02*
Y016610D01*
X021160Y011780D02*
Y015130D01*
Y015800D02*
Y016660D01*
X021210Y011830D02*
Y015180D01*
Y015850D02*
Y016710D01*
X021260Y011880D02*
Y015230D01*
Y015900D02*
Y016760D01*
X021310Y011930D02*
Y015280D01*
Y015950D02*
Y016810D01*
X021360Y011980D02*
Y015330D01*
Y016000D02*
Y016860D01*
X021410Y012030D02*
Y015380D01*
Y016050D02*
Y016910D01*
X021460Y012080D02*
Y015430D01*
Y016100D02*
Y016960D01*
X021510Y012130D02*
Y015480D01*
Y016150D02*
Y017010D01*
X021560Y012180D02*
Y015530D01*
Y016200D02*
Y017060D01*
X021610Y012230D02*
Y015580D01*
Y016250D02*
Y017110D01*
X021660Y012280D02*
Y015630D01*
Y016300D02*
Y017160D01*
X021710Y012330D02*
Y015680D01*
Y016350D02*
Y017210D01*
X021760Y012380D02*
Y015730D01*
Y016400D02*
Y017280D01*
Y028190D02*
Y033290D01*
X021810Y012430D02*
Y015780D01*
Y016450D02*
Y022460D01*
Y028190D02*
Y030850D01*
Y031280D02*
Y033290D01*
X021860Y012480D02*
Y015830D01*
Y016500D02*
Y022460D01*
Y028190D02*
Y030750D01*
Y031390D02*
Y033290D01*
X021910Y011130D02*
Y011300D01*
Y012530D02*
Y015880D01*
Y016550D02*
Y022460D01*
Y028190D02*
Y030680D01*
Y031460D02*
Y033290D01*
X021960Y011130D02*
Y011350D01*
Y012580D02*
Y015930D01*
Y016600D02*
Y022460D01*
Y028230D02*
Y030620D01*
Y031520D02*
Y033290D01*
X022010Y011130D02*
Y011400D01*
Y012630D02*
Y015980D01*
Y016650D02*
Y022460D01*
Y028280D02*
Y030580D01*
Y031560D02*
Y033290D01*
X022060Y011130D02*
Y011450D01*
Y012680D02*
Y016030D01*
Y016700D02*
Y022460D01*
Y028330D02*
Y030540D01*
Y031600D02*
Y033290D01*
X022110Y011130D02*
Y011500D01*
Y012730D02*
Y016080D01*
Y016750D02*
Y022460D01*
Y028380D02*
Y030510D01*
Y031630D02*
Y033290D01*
X022160Y011130D02*
Y011550D01*
Y012780D02*
Y016130D01*
Y016800D02*
Y022460D01*
Y028430D02*
Y029250D01*
Y029550D02*
Y030490D01*
Y031650D02*
Y033290D01*
X022210Y011130D02*
Y011600D01*
Y012830D02*
Y016180D01*
Y016850D02*
Y022460D01*
Y028460D02*
Y029190D01*
Y029610D02*
Y030470D01*
Y032040D02*
Y033290D01*
X022260Y011130D02*
Y011650D01*
Y012880D02*
Y016230D01*
Y016900D02*
Y022460D01*
Y028500D02*
Y029150D01*
Y029650D02*
Y030460D01*
Y032100D02*
Y033290D01*
X022310Y011130D02*
Y011700D01*
Y012930D02*
Y016280D01*
Y016950D02*
Y022460D01*
Y028510D02*
Y029130D01*
Y029670D02*
Y030450D01*
Y032150D02*
Y033290D01*
X022360Y011130D02*
Y011750D01*
Y012980D02*
Y016330D01*
Y017000D02*
Y022460D01*
Y028510D02*
Y029110D01*
Y029680D02*
Y030440D01*
Y032200D02*
Y033290D01*
X022410Y011130D02*
Y011800D01*
Y013030D02*
Y016380D01*
Y017050D02*
Y022460D01*
Y028510D02*
Y029110D01*
Y029680D02*
Y030440D01*
Y032250D02*
Y033290D01*
X022460Y011130D02*
Y011850D01*
Y013080D02*
Y016430D01*
Y017100D02*
Y022460D01*
Y028880D02*
Y029120D01*
Y029680D02*
Y030450D01*
Y032300D02*
Y033290D01*
X022510Y011130D02*
Y011900D01*
Y013120D02*
Y016480D01*
Y017150D02*
Y022460D01*
Y028990D02*
Y029140D01*
Y029660D02*
Y030450D01*
Y032350D02*
Y033290D01*
X022560Y011130D02*
Y011950D01*
Y013160D02*
Y016530D01*
Y017200D02*
Y022460D01*
Y029030D02*
Y029160D01*
Y029640D02*
Y030460D01*
Y032400D02*
Y033290D01*
X022610Y011130D02*
Y012000D01*
Y013190D02*
Y016580D01*
Y017250D02*
Y022460D01*
Y029070D02*
Y029210D01*
Y029590D02*
Y030480D01*
Y032450D02*
Y033290D01*
X022660Y011130D02*
Y012050D01*
Y013210D02*
Y016630D01*
Y017300D02*
Y022460D01*
Y028530D02*
Y029210D01*
Y029590D02*
Y030500D01*
Y031640D02*
Y031840D01*
Y032490D02*
Y033290D01*
X022710Y011130D02*
Y012100D01*
Y013230D02*
Y016680D01*
Y017350D02*
Y022460D01*
Y028530D02*
Y029210D01*
Y029590D02*
Y030530D01*
Y031610D02*
Y031890D01*
Y032530D02*
Y033290D01*
X022760Y011130D02*
Y012150D01*
Y013240D02*
Y016730D01*
Y017400D02*
Y022460D01*
Y028530D02*
Y029210D01*
Y029590D02*
Y030560D01*
Y031580D02*
Y031940D01*
Y032540D02*
Y033290D01*
X022810Y011130D02*
Y012200D01*
Y013240D02*
Y016780D01*
Y017450D02*
Y022460D01*
Y029050D02*
Y029210D01*
Y029590D02*
Y030600D01*
Y031540D02*
Y031990D01*
Y032540D02*
Y033290D01*
X022860Y011130D02*
Y012250D01*
Y013240D02*
Y016830D01*
Y017500D02*
Y022460D01*
Y029010D02*
Y029210D01*
Y029590D02*
Y030650D01*
Y031490D02*
Y032040D01*
Y032540D02*
Y033290D01*
X022910Y011130D02*
Y012300D01*
Y013240D02*
Y016880D01*
Y017550D02*
Y022460D01*
Y029000D02*
Y029210D01*
Y029590D02*
Y030720D01*
Y031420D02*
Y032060D01*
Y032540D02*
Y033290D01*
X022960Y011130D02*
Y012350D01*
Y013240D02*
Y016930D01*
Y017600D02*
Y022460D01*
Y028990D02*
Y029210D01*
Y029590D02*
Y030810D01*
Y031330D02*
Y032060D01*
Y032540D02*
Y033290D01*
X023010Y011130D02*
Y012360D01*
Y013240D02*
Y016980D01*
Y017650D02*
Y022460D01*
Y029790D02*
Y032060D01*
Y032540D02*
Y033290D01*
X023060Y011130D02*
Y012360D01*
Y013240D02*
Y017030D01*
Y017700D02*
Y022460D01*
Y029790D02*
Y032060D01*
Y032540D02*
Y033290D01*
X023110Y011130D02*
Y012360D01*
Y013240D02*
Y017080D01*
Y017750D02*
Y022460D01*
Y029790D02*
Y032060D01*
Y032540D02*
Y033290D01*
X023160Y011130D02*
Y012360D01*
Y013240D02*
Y017130D01*
Y017800D02*
Y022460D01*
Y029790D02*
Y032060D01*
Y032540D02*
Y033290D01*
X023210Y011130D02*
Y012360D01*
Y013240D02*
Y017180D01*
Y017850D02*
Y022460D01*
Y029790D02*
Y032060D01*
Y032540D02*
Y033290D01*
X023260Y011130D02*
Y012360D01*
Y013240D02*
Y017230D01*
Y017900D02*
Y022460D01*
Y030040D02*
Y032060D01*
Y032540D02*
Y033290D01*
X023310Y011130D02*
Y012360D01*
Y013240D02*
Y017280D01*
Y017950D02*
Y022460D01*
Y030040D02*
Y032060D01*
Y032540D02*
Y033290D01*
X023360Y011130D02*
Y012360D01*
Y013240D02*
Y017330D01*
Y018000D02*
Y022460D01*
Y030040D02*
Y032060D01*
Y032540D02*
Y033290D01*
X023410Y011130D02*
Y012360D01*
Y013240D02*
Y017380D01*
Y018050D02*
Y022460D01*
Y030040D02*
Y032060D01*
Y032540D02*
Y033290D01*
X023460Y011130D02*
Y012360D01*
Y013240D02*
Y017430D01*
Y018100D02*
Y022460D01*
Y030040D02*
Y032060D01*
Y032540D02*
Y033290D01*
X023510Y011130D02*
Y012360D01*
Y013240D02*
Y017480D01*
Y018150D02*
Y022460D01*
Y030040D02*
Y032060D01*
Y032540D02*
Y033290D01*
X023560Y011130D02*
Y012360D01*
Y013240D02*
Y017530D01*
Y018200D02*
Y022460D01*
Y030040D02*
Y032060D01*
Y032540D02*
Y033290D01*
X023610Y011130D02*
Y012360D01*
Y013680D02*
Y017580D01*
Y018250D02*
Y022460D01*
Y030040D02*
Y032060D01*
Y032540D02*
Y033290D01*
X023660Y011130D02*
Y012360D01*
Y013760D02*
Y017630D01*
Y018300D02*
Y022460D01*
Y029790D02*
Y032060D01*
Y032540D02*
Y033290D01*
X023710Y011130D02*
Y012360D01*
Y013820D02*
Y017680D01*
Y018350D02*
Y022460D01*
Y029790D02*
Y032060D01*
Y032540D02*
Y033290D01*
X023760Y011130D02*
Y012360D01*
Y013860D02*
Y017730D01*
Y018400D02*
Y022460D01*
Y029790D02*
Y032060D01*
Y032540D02*
Y033290D01*
X023810Y011130D02*
Y012360D01*
Y013890D02*
Y017780D01*
Y018450D02*
Y022460D01*
Y029790D02*
Y032060D01*
Y032540D02*
Y033290D01*
X023860Y011130D02*
Y012370D01*
Y013910D02*
Y017830D01*
Y018500D02*
Y022460D01*
Y029790D02*
Y032060D01*
Y032540D02*
Y033290D01*
X023910Y011130D02*
Y012370D01*
Y013930D02*
Y017880D01*
Y018550D02*
Y022460D01*
Y029790D02*
Y032060D01*
Y032540D02*
Y033290D01*
X023960Y011130D02*
Y012380D01*
Y013940D02*
Y017930D01*
Y018600D02*
Y022460D01*
Y029590D02*
Y032060D01*
Y032540D02*
Y033290D01*
X024010Y011130D02*
Y012400D01*
Y013940D02*
Y017980D01*
Y018650D02*
Y022460D01*
Y029590D02*
Y032060D01*
Y032540D02*
Y033290D01*
X024060Y011130D02*
Y012420D01*
Y013930D02*
Y018030D01*
Y018700D02*
Y022460D01*
Y029590D02*
Y032060D01*
Y032540D02*
Y033290D01*
X024110Y011130D02*
Y012460D01*
Y013920D02*
Y018080D01*
Y018750D02*
Y022460D01*
Y029590D02*
Y032060D01*
Y032540D02*
Y033290D01*
X024160Y011130D02*
Y012500D01*
Y013900D02*
Y018130D01*
Y018800D02*
Y022460D01*
Y029730D02*
Y032060D01*
Y032540D02*
Y033290D01*
X024210Y011130D02*
Y012540D01*
Y013880D02*
Y018180D01*
Y018850D02*
Y022460D01*
Y029730D02*
Y032060D01*
Y032540D02*
Y033290D01*
X024260Y011130D02*
Y012590D01*
Y013850D02*
Y018230D01*
Y018900D02*
Y022460D01*
Y029730D02*
Y032060D01*
Y032540D02*
Y033290D01*
X024310Y011130D02*
Y012640D01*
Y013810D02*
Y018280D01*
Y018950D02*
Y022460D01*
Y029730D02*
Y032060D01*
Y032540D02*
Y033290D01*
X024360Y011130D02*
Y012700D01*
Y013750D02*
Y018330D01*
Y019000D02*
Y022460D01*
Y029010D02*
Y029070D01*
Y029730D02*
Y032060D01*
Y032540D02*
Y033290D01*
X024410Y011130D02*
Y012800D01*
Y013650D02*
Y018380D01*
Y019050D02*
Y022460D01*
Y028960D02*
Y029070D01*
Y029730D02*
Y032060D01*
Y032540D02*
Y033290D01*
X024460Y011130D02*
Y018430D01*
Y019100D02*
Y022460D01*
Y028820D02*
Y029070D01*
Y029730D02*
Y032060D01*
Y032540D02*
Y033290D01*
X024510Y011130D02*
Y018480D01*
Y019150D02*
Y022460D01*
Y028820D02*
Y029070D01*
Y029730D02*
Y032060D01*
Y032540D02*
Y033290D01*
X024560Y011130D02*
Y018530D01*
Y019200D02*
Y022460D01*
Y028820D02*
Y029070D01*
Y029730D02*
Y032060D01*
Y032540D02*
Y033290D01*
X024610Y011130D02*
Y018580D01*
Y019250D02*
Y022460D01*
Y028890D02*
Y029070D01*
Y029730D02*
Y032060D01*
Y032540D02*
Y033290D01*
X024660Y011130D02*
Y018630D01*
Y019300D02*
Y022460D01*
Y028890D02*
Y029070D01*
Y029730D02*
Y032060D01*
Y032540D02*
Y033290D01*
X024710Y011130D02*
Y018680D01*
Y019350D02*
Y022460D01*
Y028890D02*
Y029070D01*
Y029730D02*
Y032060D01*
Y032540D02*
Y033290D01*
X024760Y011130D02*
Y018730D01*
Y019400D02*
Y022460D01*
Y028890D02*
Y029070D01*
Y029730D02*
Y032060D01*
Y032540D02*
Y033290D01*
X024810Y011130D02*
Y018780D01*
Y019450D02*
Y022460D01*
Y028890D02*
Y029070D01*
Y029730D02*
Y032060D01*
Y032540D02*
Y033290D01*
X024860Y011130D02*
Y018830D01*
Y019500D02*
Y022460D01*
Y028890D02*
Y029070D01*
Y029730D02*
Y032060D01*
Y032540D02*
Y033290D01*
X024910Y011130D02*
Y018880D01*
Y019550D02*
Y022460D01*
Y028890D02*
Y029070D01*
Y029730D02*
Y032060D01*
Y032540D02*
Y033290D01*
X024960Y011130D02*
Y018930D01*
Y019600D02*
Y022460D01*
Y028890D02*
Y029070D01*
Y029730D02*
Y032060D01*
Y032540D02*
Y033290D01*
X025010Y011130D02*
Y018980D01*
Y019650D02*
Y022460D01*
Y028890D02*
Y029070D01*
Y029730D02*
Y032060D01*
Y032540D02*
Y033290D01*
X025060Y011130D02*
Y019030D01*
Y019700D02*
Y022460D01*
Y028890D02*
Y029070D01*
Y029730D02*
Y032010D01*
Y032540D02*
Y033290D01*
X025110Y011130D02*
Y019080D01*
Y019750D02*
Y022460D01*
Y028890D02*
Y029070D01*
Y029740D02*
Y031960D01*
Y032540D02*
Y033290D01*
X025160Y011130D02*
Y019130D01*
Y019800D02*
Y022460D01*
Y028890D02*
Y029070D01*
Y029790D02*
Y031910D01*
Y032530D02*
Y033290D01*
X025210Y011130D02*
Y019180D01*
Y019850D02*
Y022460D01*
Y028890D02*
Y029070D01*
Y032510D02*
Y033290D01*
X025260Y011130D02*
Y019230D01*
Y019900D02*
Y022460D01*
Y028770D02*
Y029070D01*
Y032470D02*
Y033290D01*
X025310Y011130D02*
Y019280D01*
Y019950D02*
Y022460D01*
Y028770D02*
Y029070D01*
Y032420D02*
Y033290D01*
X025360Y011130D02*
Y019330D01*
Y020000D02*
Y022460D01*
Y028770D02*
Y029070D01*
Y032370D02*
Y033290D01*
X025410Y011130D02*
Y019380D01*
Y020050D02*
Y022460D01*
Y028770D02*
Y029070D01*
Y032320D02*
Y033290D01*
X025460Y011130D02*
Y019430D01*
Y020100D02*
Y022460D01*
Y028770D02*
Y029070D01*
Y032270D02*
Y033290D01*
X025510Y011130D02*
Y019480D01*
Y020150D02*
Y022460D01*
Y028770D02*
Y029450D01*
Y032220D02*
Y033290D01*
X025560Y011130D02*
Y019530D01*
Y020200D02*
Y022460D01*
Y028770D02*
Y029510D01*
Y032170D02*
Y033290D01*
X025610Y011130D02*
Y019580D01*
Y020250D02*
Y022460D01*
Y028770D02*
Y029580D01*
Y032100D02*
Y033290D01*
X025660Y011130D02*
Y019630D01*
Y020300D02*
Y022460D01*
Y028770D02*
Y033290D01*
X025710Y011130D02*
Y019680D01*
Y020350D02*
Y022460D01*
Y028770D02*
Y033290D01*
X025760Y011130D02*
Y019730D01*
Y020400D02*
Y022460D01*
Y028770D02*
Y033290D01*
X025810Y011130D02*
Y019780D01*
Y020450D02*
Y022460D01*
Y028770D02*
Y033290D01*
X025860Y011130D02*
Y019830D01*
Y020500D02*
Y022460D01*
Y028760D02*
Y033290D01*
X025910Y011130D02*
Y019880D01*
Y028730D02*
Y033290D01*
X025960Y011130D02*
Y019930D01*
Y028680D02*
Y033290D01*
X026010Y011130D02*
Y019980D01*
Y028630D02*
Y033290D01*
X026060Y011130D02*
Y020030D01*
Y028580D02*
Y033290D01*
X026110Y011130D02*
Y020080D01*
Y028530D02*
Y033290D01*
X026160Y011130D02*
Y020130D01*
Y028480D02*
Y033290D01*
X026210Y011130D02*
Y020180D01*
Y028430D02*
Y033290D01*
X026260Y011130D02*
Y020240D01*
Y028370D02*
Y033290D01*
X026310Y011130D02*
Y020310D01*
Y028300D02*
Y033290D01*
X026360Y011130D02*
Y033290D01*
X026410Y011130D02*
Y033290D01*
X026460Y011130D02*
Y033290D01*
X026510Y011130D02*
Y033290D01*
X026560Y011130D02*
Y033290D01*
X010862Y021706D02*
X010863Y021708D01*
X010808Y021612*
X010779Y021505*
Y021394*
X010808Y021287*
X010863Y021191*
X010941Y021113*
X011037Y021058*
X011144Y021029*
X011255*
X011344Y021053*
X011522Y020876*
Y020749*
X011502Y020741*
X011458Y020786*
X011362Y020841*
X011275Y020865*
Y020450*
Y020034*
X011362Y020058*
X011458Y020113*
X011502Y020158*
X011522Y020150*
X011522Y020147*
X011535Y020081*
X011572Y020025*
X011805Y019793*
X011798Y019777*
X011073*
X010877Y019973*
Y020150*
X010897Y020158*
X010941Y020113*
X011037Y020058*
X011125Y020034*
Y020450*
Y020865*
X011037Y020841*
X010941Y020786*
X010897Y020741*
X010877Y020749*
Y020902*
X010864Y020968*
X010827Y021024*
X010581Y021270*
X010591Y021287*
X010620Y021394*
Y021505*
X010591Y021612*
X010536Y021708*
X010537Y021706*
X010543Y021722*
X010856*
X010862Y021706*
X010844Y021618D02*
X010633Y021408D01*
X010761Y021631*
X010729Y021511*
Y021388*
X010761Y021268*
X010823Y021161*
X010911Y021073*
X011018Y021011*
X011138Y020979*
X011261*
X011329Y020997*
X011472Y020855*
Y020782*
X011514Y020800*
X011488Y020826*
X011381Y020888*
X011225Y020930*
Y020450*
Y019969*
X011381Y020011*
X011488Y020073*
X011514Y020099*
X011474Y020116*
X011472Y020140*
X011487Y020062*
X011533Y019994*
X011746Y019781*
X011765Y019827*
X011094*
X010927Y019994*
Y020117*
X010885Y020099*
X010911Y020073*
X011018Y020011*
X011175Y019969*
Y020450*
Y020930*
X011018Y020888*
X010911Y020826*
X010885Y020800*
X010927Y020782*
Y020907*
X010911Y020987*
X010866Y021055*
X010643Y021278*
X010638Y021268*
X010670Y021388*
Y021511*
X010638Y021631*
X010766Y021408*
X010555Y021618*
X010577Y021672*
X010822*
X010844Y021618*
X010560Y021680D02*
Y021720D01*
X010610Y021250D02*
Y021350D01*
Y021560D02*
Y021720D01*
X010660Y021200D02*
Y021720D01*
X010710Y021150D02*
Y021720D01*
X010760Y021100D02*
Y021720D01*
X010810Y021050D02*
Y021280D01*
Y021630D02*
Y021720D01*
X010860Y020980D02*
Y021180D01*
X010910Y019950D02*
Y020140D01*
Y020770D02*
Y021130D01*
X010960Y019900D02*
Y020090D01*
Y020820D02*
Y021090D01*
X011010Y019850D02*
Y020070D01*
Y020840D02*
Y021070D01*
X011060Y019800D02*
Y020050D01*
Y020860D02*
Y021050D01*
X011110Y019790D02*
Y020030D01*
Y020880D02*
Y021030D01*
X011160Y019790D02*
Y021020D01*
X011210Y019790D02*
Y021020D01*
X011260Y019790D02*
Y021030D01*
X011310Y019790D02*
Y020040D01*
Y020870D02*
Y021040D01*
X011360Y019790D02*
Y020060D01*
Y020850D02*
Y021030D01*
X011410Y019790D02*
Y020080D01*
Y020830D02*
Y020980D01*
X011460Y019790D02*
Y020110D01*
Y020800D02*
Y020930D01*
X011510Y019790D02*
Y020150D01*
Y020760D02*
Y020880D01*
X011560Y019790D02*
Y020040D01*
X011610Y019790D02*
Y019980D01*
X011660Y019790D02*
Y019930D01*
X011710Y019790D02*
Y019880D01*
X011760Y019790D02*
Y019830D01*
X009862Y021706D02*
X009863Y021708D01*
X009808Y021612*
X009779Y021505*
Y021394*
X009808Y021287*
X009863Y021191*
X009941Y021113*
X010037Y021058*
X010144Y021029*
X010255*
X010305Y021043*
X010522Y020826*
Y020749*
X010502Y020741*
X010458Y020786*
X010362Y020841*
X010275Y020865*
Y020450*
Y020034*
X010362Y020058*
X010458Y020113*
X010502Y020158*
X010522Y020150*
Y019897*
X010535Y019831*
X010572Y019775*
X010753Y019595*
X010746Y019579*
X009297*
X009192Y019559*
X009103Y019499*
X008834Y019230*
X008775Y019141*
X008754Y019037*
Y018521*
X008718*
X008681*
X008023*
Y018377*
X007897*
X007831Y018364*
X007775Y018327*
X006911Y017462*
X006890Y017432*
X006869Y017434*
X006877Y017431*
Y019117*
X006977Y019217*
X007014Y019273*
X007027Y019339*
Y019839*
X007083Y019894*
X007125Y019995*
Y020104*
X007083Y020205*
X007005Y020283*
X006904Y020325*
X006795*
X006694Y020283*
X006616Y020205*
X006575Y020104*
Y019995*
X006595Y019945*
X006594Y019943*
X006576Y019925*
X006495*
X006455Y019908*
X006427Y019927*
Y020276*
X007873Y021722*
X009856*
X009862Y021706*
X006890Y017450D02*
X006900D01*
X006890Y017500D02*
X006940D01*
X006890Y017550D02*
X006990D01*
X006890Y017600D02*
X007040D01*
X006890Y017650D02*
X007090D01*
X006890Y017700D02*
X007140D01*
X006890Y017750D02*
X007190D01*
X006890Y017800D02*
X007240D01*
X006890Y017850D02*
X007290D01*
X006890Y017900D02*
X007340D01*
X006890Y017950D02*
X007390D01*
X006890Y018000D02*
X007440D01*
X006890Y018050D02*
X007490D01*
X006890Y018100D02*
X007540D01*
X006890Y018150D02*
X007590D01*
X006890Y018200D02*
X007640D01*
X006890Y018250D02*
X007690D01*
X006890Y018300D02*
X007740D01*
X006890Y018350D02*
X007810D01*
X006890Y018400D02*
X008010D01*
X006890Y018450D02*
X008010D01*
X006890Y018500D02*
X008010D01*
X006890Y018550D02*
X008740D01*
X006890Y018600D02*
X008740D01*
X006890Y018650D02*
X008740D01*
X006890Y018700D02*
X008740D01*
X006890Y018750D02*
X008740D01*
X006890Y018800D02*
X008740D01*
X006890Y018850D02*
X008740D01*
X006890Y018900D02*
X008740D01*
X006890Y018950D02*
X008740D01*
X006890Y019000D02*
X008740D01*
X006890Y019050D02*
X008750D01*
X006890Y019100D02*
X008760D01*
X006920Y019150D02*
X008780D01*
X006970Y019200D02*
X008810D01*
X007010Y019250D02*
X008840D01*
X007030Y019300D02*
X008890D01*
X007040Y019350D02*
X008940D01*
X007040Y019400D02*
X008990D01*
X007040Y019450D02*
X009040D01*
X007040Y019500D02*
X009090D01*
X007040Y019550D02*
X009170D01*
X007040Y019600D02*
X010750D01*
X007040Y019650D02*
X010690D01*
X007040Y019700D02*
X010640D01*
X007040Y019750D02*
X010590D01*
X007040Y019800D02*
X010550D01*
X007050Y019850D02*
X010530D01*
X007100Y019900D02*
X010510D01*
X006440Y019950D02*
X006590D01*
X007120D02*
X010510D01*
X006440Y020000D02*
X006560D01*
X007130D02*
X010510D01*
X006440Y020050D02*
X006560D01*
X007130D02*
X010260D01*
X010340D02*
X010510D01*
X006440Y020100D02*
X006560D01*
X007130D02*
X010260D01*
X010450D02*
X010510D01*
X006440Y020150D02*
X006590D01*
X007120D02*
X010260D01*
X010510D02*
D01*
X006440Y020200D02*
X006610D01*
X007100D02*
X010260D01*
X006440Y020250D02*
X006650D01*
X007050D02*
X010260D01*
X006460Y020300D02*
X006740D01*
X006970D02*
X010260D01*
X006510Y020350D02*
X010260D01*
X006560Y020400D02*
X010260D01*
X006610Y020450D02*
X010260D01*
X006660Y020500D02*
X010260D01*
X006710Y020550D02*
X010260D01*
X006760Y020600D02*
X010260D01*
X006810Y020650D02*
X010260D01*
X006860Y020700D02*
X010260D01*
X006910Y020750D02*
X010260D01*
X010510D02*
D01*
X006960Y020800D02*
X010260D01*
X010450D02*
X010510D01*
X007010Y020850D02*
X010260D01*
X010340D02*
X010490D01*
X007060Y020900D02*
X010440D01*
X007110Y020950D02*
X010390D01*
X007160Y021000D02*
X010340D01*
X007210Y021050D02*
X010070D01*
X007260Y021100D02*
X009950D01*
X007310Y021150D02*
X009890D01*
X007360Y021200D02*
X009850D01*
X007410Y021250D02*
X009820D01*
X007460Y021300D02*
X009800D01*
X007510Y021350D02*
X009790D01*
X007560Y021400D02*
X009770D01*
X007610Y021450D02*
X009770D01*
X007660Y021500D02*
X009770D01*
X007710Y021550D02*
X009790D01*
X007760Y021600D02*
X009800D01*
X007810Y021650D02*
X009820D01*
X007860Y021700D02*
X009850D01*
X007353Y022304D02*
X005722Y020674D01*
X005685Y020618*
X005672Y020552*
Y015847*
X005685Y015781*
X005722Y015725*
X007208Y014239*
X007201Y014220*
X006579*
Y013379*
X006822*
Y013197*
X006835Y013131*
X006872Y013075*
X007055Y012893*
X007048Y012877*
X006673*
X005377Y014173*
Y015502*
X005364Y015568*
X005327Y015624*
X004775Y016176*
Y016254*
X004733Y016355*
X004655Y016433*
X004554Y016475*
X004445*
X004344Y016433*
X004266Y016355*
X004225Y016254*
Y016145*
X004266Y016044*
X004344Y015966*
X004364Y015958*
Y015941*
X004344Y015933*
X004266Y015855*
X004225Y015754*
Y015645*
X004266Y015544*
X004344Y015466*
X004364Y015458*
Y015441*
X004344Y015433*
X004266Y015355*
X004225Y015254*
Y015145*
X004266Y015044*
X004344Y014966*
X004364Y014958*
Y014941*
X004344Y014933*
X004266Y014855*
X004225Y014754*
Y014645*
X004266Y014544*
X004322Y014489*
Y014051*
X004306Y014044*
X004177Y014173*
Y018726*
X004456Y019004*
X004456Y019004*
X004557Y018962*
X004666*
X004767Y019004*
X004845Y019082*
X004887Y019183*
Y019292*
X004845Y019393*
X004801Y019437*
X004845Y019482*
X004887Y019583*
Y019692*
X004845Y019793*
X004813Y019825*
X004813Y019874*
X004833Y019894*
X004875Y019995*
Y020104*
X004833Y020205*
X004755Y020283*
X004654Y020325*
X004545*
X004444Y020283*
X004389Y020227*
X004347*
X004281Y020214*
X004225Y020177*
X003472Y019424*
X003435Y019368*
X003422Y019302*
Y013897*
X003435Y013831*
X003472Y013775*
X005953Y011295*
X005946Y011279*
X004555*
X003179Y012655*
Y017800*
Y019234*
X006265Y022320*
X007346*
X007353Y022304*
X007294Y022316D02*
X005683Y020705D01*
X005638Y020637*
X005622Y020557*
Y015842*
X005638Y015762*
X005683Y015694*
X007149Y014227*
X007167Y014270*
X006529*
Y013329*
X006772*
Y013192*
X006788Y013112*
X006833Y013044*
X006996Y012881*
X007015Y012927*
X006694*
X005427Y014194*
Y015507*
X005411Y015587*
X005366Y015655*
X004825Y016197*
Y016264*
X004775Y016384*
X004684Y016475*
X004564Y016525*
X004435*
X004315Y016475*
X004224Y016384*
X004175Y016264*
Y016135*
X004224Y016015*
X004315Y015924*
X004314Y015924*
Y015975*
X004315Y015975*
X004224Y015884*
X004175Y015764*
Y015635*
X004224Y015515*
X004315Y015424*
X004314Y015424*
Y015475*
X004315Y015475*
X004224Y015384*
X004175Y015264*
Y015135*
X004224Y015015*
X004315Y014924*
X004314Y014924*
Y014975*
X004315Y014975*
X004224Y014884*
X004175Y014764*
Y014635*
X004224Y014515*
X004272Y014468*
Y014084*
X004318Y014103*
X004227Y014194*
Y018705*
X004468Y018945*
X004547Y018912*
X004676*
X004796Y018962*
X004887Y019053*
X004937Y019173*
Y019302*
X004887Y019421*
X004871Y019437*
X004887Y019453*
X004937Y019573*
Y019702*
X004887Y019821*
X004863Y019845*
Y019854*
X004875Y019865*
X004925Y019985*
Y020114*
X004875Y020234*
X004784Y020325*
X004664Y020375*
X004535*
X004415Y020325*
X004368Y020277*
X004342*
X004262Y020261*
X004194Y020216*
X003433Y019455*
X003388Y019387*
X003372Y019307*
Y013892*
X003388Y013812*
X003433Y013744*
X005894Y011283*
X005913Y011329*
X004576*
X003229Y012676*
Y017800*
Y019213*
X006286Y022270*
X007313*
X007294Y022316*
X003200Y012650D02*
Y019250D01*
X003250Y012600D02*
Y019300D01*
X003300Y012550D02*
Y019350D01*
X003350Y012500D02*
Y019400D01*
X003400Y012450D02*
Y019450D01*
X003450Y012400D02*
Y013810D01*
Y019400D02*
Y019500D01*
X003500Y012350D02*
Y013740D01*
Y019470D02*
Y019550D01*
X003550Y012300D02*
Y013690D01*
Y019520D02*
Y019600D01*
X003600Y012250D02*
Y013640D01*
Y019570D02*
Y019650D01*
X003650Y012200D02*
Y013590D01*
Y019620D02*
Y019700D01*
X003700Y012150D02*
Y013540D01*
Y019670D02*
Y019750D01*
X003750Y012100D02*
Y013490D01*
Y019720D02*
Y019800D01*
X003800Y012050D02*
Y013440D01*
Y019770D02*
Y019850D01*
X003850Y012000D02*
Y013390D01*
Y019820D02*
Y019900D01*
X003900Y011950D02*
Y013340D01*
Y019870D02*
Y019950D01*
X003950Y011900D02*
Y013290D01*
Y019920D02*
Y020000D01*
X004000Y011850D02*
Y013240D01*
Y019970D02*
Y020050D01*
X004050Y011800D02*
Y013190D01*
Y020020D02*
Y020100D01*
X004100Y011750D02*
Y013140D01*
Y020070D02*
Y020150D01*
X004150Y011700D02*
Y013090D01*
Y020120D02*
Y020200D01*
X004200Y011650D02*
Y013040D01*
Y014160D02*
Y018740D01*
Y020170D02*
Y020250D01*
X004250Y011600D02*
Y012990D01*
Y014110D02*
Y014580D01*
Y014830D02*
Y015080D01*
Y015330D02*
Y015580D01*
Y015830D02*
Y016080D01*
Y016330D02*
Y018790D01*
Y020210D02*
Y020300D01*
X004300Y011550D02*
Y012940D01*
Y014060D02*
Y014500D01*
Y014910D02*
Y015000D01*
Y015410D02*
Y015500D01*
Y015910D02*
Y016000D01*
Y016410D02*
Y018840D01*
Y020230D02*
Y020350D01*
X004350Y011500D02*
Y012890D01*
Y014950D02*
Y014960D01*
Y015450D02*
Y015460D01*
Y015950D02*
Y015960D01*
Y016450D02*
Y018890D01*
Y020240D02*
Y020400D01*
X004400Y011450D02*
Y012840D01*
Y016470D02*
Y018940D01*
Y020260D02*
Y020450D01*
X004450Y011400D02*
Y012790D01*
Y016480D02*
Y018990D01*
Y020300D02*
Y020500D01*
X004500Y011350D02*
Y012740D01*
Y016480D02*
Y018980D01*
Y020320D02*
Y020550D01*
X004550Y011300D02*
Y012690D01*
Y016480D02*
Y018960D01*
Y020330D02*
Y020600D01*
X004600Y011290D02*
Y012640D01*
Y016470D02*
Y018950D01*
Y020330D02*
Y020650D01*
X004650Y011290D02*
Y012590D01*
Y016450D02*
Y018950D01*
Y020330D02*
Y020700D01*
X004700Y011290D02*
Y012540D01*
Y016400D02*
Y018970D01*
Y020320D02*
Y020750D01*
X004750Y011290D02*
Y012490D01*
Y016320D02*
Y018990D01*
Y020300D02*
Y020800D01*
X004800Y011290D02*
Y012440D01*
Y016160D02*
Y019030D01*
Y019450D02*
Y019440D01*
Y020250D02*
Y020850D01*
X004850Y011290D02*
Y012390D01*
Y016110D02*
Y019080D01*
Y019400D02*
Y019480D01*
Y019800D02*
Y019940D01*
Y020170D02*
Y020900D01*
X004900Y011290D02*
Y012340D01*
Y016060D02*
Y020950D01*
X004950Y011290D02*
Y012290D01*
Y016010D02*
Y021000D01*
X005000Y011290D02*
Y012240D01*
Y015960D02*
Y021050D01*
X005050Y011290D02*
Y012190D01*
Y015910D02*
Y021100D01*
X005100Y011290D02*
Y012140D01*
Y015860D02*
Y021150D01*
X005150Y011290D02*
Y012090D01*
Y015810D02*
Y021200D01*
X005200Y011290D02*
Y012040D01*
Y015760D02*
Y021250D01*
X005250Y011290D02*
Y011990D01*
Y015710D02*
Y021300D01*
X005300Y011290D02*
Y011940D01*
Y015660D02*
Y021350D01*
X005350Y011290D02*
Y011890D01*
Y015600D02*
Y021400D01*
X005400Y011290D02*
Y011840D01*
Y014160D02*
Y021450D01*
X005450Y011290D02*
Y011790D01*
Y014110D02*
Y021500D01*
X005500Y011290D02*
Y011740D01*
Y014060D02*
Y021550D01*
X005550Y011290D02*
Y011690D01*
Y014010D02*
Y021600D01*
X005600Y011290D02*
Y011640D01*
Y013960D02*
Y021650D01*
X005650Y011290D02*
Y011590D01*
Y013910D02*
Y021700D01*
X005700Y011290D02*
Y011540D01*
Y013860D02*
Y015760D01*
Y020650D02*
Y021750D01*
X005750Y011290D02*
Y011490D01*
Y013810D02*
Y015690D01*
Y020720D02*
Y021800D01*
X005800Y011290D02*
Y011440D01*
Y013760D02*
Y015640D01*
Y020770D02*
Y021850D01*
X005850Y011290D02*
Y011390D01*
Y013710D02*
Y015590D01*
Y020820D02*
Y021900D01*
X005900Y011290D02*
Y011340D01*
Y013660D02*
Y015540D01*
Y020870D02*
Y021950D01*
X005950Y013610D02*
Y015490D01*
Y020920D02*
Y022000D01*
X006000Y013560D02*
Y015440D01*
Y020970D02*
Y022050D01*
X006050Y013510D02*
Y015390D01*
Y021020D02*
Y022100D01*
X006100Y013460D02*
Y015340D01*
Y021070D02*
Y022150D01*
X006150Y013410D02*
Y015290D01*
Y021120D02*
Y022200D01*
X006200Y013360D02*
Y015240D01*
Y021170D02*
Y022250D01*
X006250Y013310D02*
Y015190D01*
Y021220D02*
Y022300D01*
X006300Y013260D02*
Y015140D01*
Y021270D02*
Y022320D01*
X006350Y013210D02*
Y015090D01*
Y021320D02*
Y022320D01*
X006400Y013160D02*
Y015040D01*
Y021370D02*
Y022320D01*
X006450Y013110D02*
Y014990D01*
Y021420D02*
Y022320D01*
X006500Y013060D02*
Y014940D01*
Y021470D02*
Y022320D01*
X006550Y013010D02*
Y014890D01*
Y021520D02*
Y022320D01*
X006600Y012960D02*
Y013370D01*
Y014230D02*
Y014840D01*
Y021570D02*
Y022320D01*
X006650Y012910D02*
Y013370D01*
Y014230D02*
Y014790D01*
Y021620D02*
Y022320D01*
X006700Y012890D02*
Y013370D01*
Y014230D02*
Y014740D01*
Y021670D02*
Y022320D01*
X006750Y012890D02*
Y013370D01*
Y014230D02*
Y014690D01*
Y021720D02*
Y022320D01*
X006800Y012890D02*
Y013370D01*
Y014230D02*
Y014640D01*
Y021770D02*
Y022320D01*
X006850Y012890D02*
Y013110D01*
Y014230D02*
Y014590D01*
Y021820D02*
Y022320D01*
X006900Y012890D02*
Y013040D01*
Y014230D02*
Y014540D01*
Y021870D02*
Y022320D01*
X006950Y012890D02*
Y012990D01*
Y014230D02*
Y014490D01*
Y021920D02*
Y022320D01*
X007000Y012890D02*
Y012940D01*
Y014230D02*
Y014440D01*
Y021970D02*
Y022320D01*
X007050Y012900D02*
Y012890D01*
Y014230D02*
Y014390D01*
Y022020D02*
Y022320D01*
X007100Y014230D02*
Y014340D01*
Y022070D02*
Y022320D01*
X007150Y014230D02*
Y014290D01*
Y022120D02*
Y022320D01*
X007200Y014240D02*
D01*
Y022170D02*
Y022320D01*
X007250Y022220D02*
Y022320D01*
X007300Y022270D02*
Y022320D01*
X013427Y018726D02*
X013421Y018710D01*
X013375*
Y018394*
X013225*
Y018710*
X013046*
X013003*
X012953*
X012775*
Y018394*
X012625*
Y018710*
X012427*
X012420Y018733*
X012420Y019020*
X013134*
X013427Y018726*
G54D85*
X013369Y018714D02*
X013388Y018760D01*
X013325*
Y018444*
X013275*
Y018760*
X013046*
X013003*
X012953*
X012725*
Y018444*
X012675*
Y018760*
X012464*
X012470Y018740*
X012470Y018970*
X013113*
X013369Y018714*
X012680Y018490D02*
X012710D01*
X013280D02*
X013310D01*
X012680Y018590D02*
X012710D01*
X013280D02*
X013310D01*
X012680Y018690D02*
X012710D01*
X013280D02*
X013310D01*
X012480Y018790D02*
X013270D01*
X012480Y018890D02*
X013170D01*
G54D84*
X011579Y018817D02*
X010831D01*
Y018330*
X010987*
Y017921*
X010823*
Y017879*
X010820*
Y017968*
Y017981*
Y018018*
Y018031*
Y018299*
X010425*
Y018399*
X010325*
Y018754*
X009979*
Y018700*
X009975Y018676*
X009954*
X009775*
Y018359*
X009675*
Y018259*
X009378*
Y018031*
Y018018*
Y017981*
Y017968*
Y017906*
X009399Y017907*
X009406Y017904*
X009376Y017939*
Y018521*
X009314*
Y018918*
X009415Y019020*
X011579*
Y018817*
X009390Y017930D02*
X009380D01*
X010830D02*
X010980D01*
X010830Y017980D02*
X010980D01*
X010830Y018030D02*
X010980D01*
X010830Y018080D02*
X010980D01*
X010830Y018130D02*
X010980D01*
X010830Y018180D02*
X010980D01*
X010830Y018230D02*
X010980D01*
X009390Y018280D02*
X009660D01*
X010830D02*
X010980D01*
X009390Y018330D02*
X009660D01*
X010430D02*
X010820D01*
X009390Y018380D02*
X009760D01*
X010430D02*
X010820D01*
X009390Y018430D02*
X009760D01*
X010330D02*
X010820D01*
X009390Y018480D02*
X009760D01*
X010330D02*
X010820D01*
X009320Y018530D02*
X009760D01*
X010330D02*
X010820D01*
X009320Y018580D02*
X009760D01*
X010330D02*
X010820D01*
X009320Y018630D02*
X009760D01*
X010330D02*
X010820D01*
X009320Y018680D02*
X009970D01*
X010330D02*
X010820D01*
X009320Y018730D02*
X009970D01*
X010330D02*
X010820D01*
X009320Y018780D02*
X010820D01*
X009320Y018830D02*
X011580D01*
X009320Y018880D02*
X011580D01*
X009340Y018930D02*
X011580D01*
X009390Y018980D02*
X011580D01*
X019322Y018748D02*
Y017623D01*
X019031Y017333*
X019022Y017338*
X019025Y017345*
Y017372*
X019030Y017400*
X019025Y017427*
Y017454*
X019014Y017480*
X019009Y017507*
X018993Y017530*
X018983Y017555*
X018963Y017575*
X018948Y017598*
X018925Y017613*
X018905Y017633*
X018880Y017643*
X018857Y017659*
X018830Y017664*
X018804Y017675*
X018777*
X018750Y017680*
X018722Y017675*
X018695*
X018669Y017664*
X018642Y017659*
X018619Y017643*
X018594Y017633*
X018574Y017613*
X018553Y017599*
X014640Y013686*
X014621Y013694*
Y013859*
X014325*
Y014009*
X014621*
Y014133*
X014613*
X014679Y014146*
X014735Y014183*
X019306Y018755*
X019322Y018748*
X019272Y018715D02*
Y017644D01*
X019022Y017394*
X019085Y017361*
X019075Y017335*
Y017368*
X019081Y017400*
X019075Y017431*
Y017464*
X019062Y017494*
X019056Y017526*
X019037Y017553*
X019025Y017584*
X019002Y017607*
X018984Y017634*
X018957Y017652*
X018934Y017675*
X018903Y017687*
X018876Y017706*
X018844Y017712*
X018814Y017725*
X018781*
X018750Y017731*
X018718Y017725*
X018685*
X018655Y017712*
X018623Y017706*
X018596Y017687*
X018565Y017675*
X018542Y017652*
X018521Y017638*
X014629Y013745*
X014671Y013728*
Y013909*
X014375*
Y013959*
X014671*
Y014183*
X015121*
X014698Y014099*
X014766Y014144*
X019318Y018696*
X019272Y018715*
X014340Y013870D02*
Y014000D01*
X014390Y013870D02*
Y014000D01*
X014440Y013870D02*
Y014000D01*
X014490Y013870D02*
Y014000D01*
X014540Y013870D02*
Y014000D01*
X014590Y013870D02*
Y014000D01*
X014640Y013710D02*
Y014130D01*
X014690Y013760D02*
Y014150D01*
X014740Y013810D02*
Y014180D01*
X014790Y013860D02*
Y014230D01*
X014840Y013910D02*
Y014280D01*
X014890Y013960D02*
Y014330D01*
X014940Y014010D02*
Y014380D01*
X014990Y014060D02*
Y014430D01*
X015040Y014110D02*
Y014480D01*
X015090Y014160D02*
Y014530D01*
X015140Y014210D02*
Y014580D01*
X015190Y014260D02*
Y014630D01*
X015240Y014310D02*
Y014680D01*
X015290Y014360D02*
Y014730D01*
X015340Y014410D02*
Y014780D01*
X015390Y014460D02*
Y014830D01*
X015440Y014510D02*
Y014880D01*
X015490Y014560D02*
Y014930D01*
X015540Y014610D02*
Y014980D01*
X015590Y014660D02*
Y015030D01*
X015640Y014710D02*
Y015080D01*
X015690Y014760D02*
Y015130D01*
X015740Y014810D02*
Y015180D01*
X015790Y014860D02*
Y015230D01*
X015840Y014910D02*
Y015280D01*
X015890Y014960D02*
Y015330D01*
X015940Y015010D02*
Y015380D01*
X015990Y015060D02*
Y015430D01*
X016040Y015110D02*
Y015480D01*
X016090Y015160D02*
Y015530D01*
X016140Y015210D02*
Y015580D01*
X016190Y015260D02*
Y015630D01*
X016240Y015310D02*
Y015680D01*
X016290Y015360D02*
Y015730D01*
X016340Y015410D02*
Y015780D01*
X016390Y015460D02*
Y015830D01*
X016440Y015510D02*
Y015880D01*
X016490Y015560D02*
Y015930D01*
X016540Y015610D02*
Y015980D01*
X016590Y015660D02*
Y016030D01*
X016640Y015710D02*
Y016080D01*
X016690Y015760D02*
Y016130D01*
X016740Y015810D02*
Y016180D01*
X016790Y015860D02*
Y016230D01*
X016840Y015910D02*
Y016280D01*
X016890Y015960D02*
Y016330D01*
X016940Y016010D02*
Y016380D01*
X016990Y016060D02*
Y016430D01*
X017040Y016110D02*
Y016480D01*
X017090Y016160D02*
Y016530D01*
X017140Y016210D02*
Y016580D01*
X017190Y016260D02*
Y016630D01*
X017240Y016310D02*
Y016680D01*
X017290Y016360D02*
Y016730D01*
X017340Y016410D02*
Y016780D01*
X017390Y016460D02*
Y016830D01*
X017440Y016510D02*
Y016880D01*
X017490Y016560D02*
Y016930D01*
X017540Y016610D02*
Y016980D01*
X017590Y016660D02*
Y017030D01*
X017640Y016710D02*
Y017080D01*
X017690Y016760D02*
Y017130D01*
X017740Y016810D02*
Y017180D01*
X017790Y016860D02*
Y017230D01*
X017840Y016910D02*
Y017280D01*
X017890Y016960D02*
Y017330D01*
X017940Y017010D02*
Y017380D01*
X017990Y017060D02*
Y017430D01*
X018040Y017110D02*
Y017480D01*
X018090Y017160D02*
Y017530D01*
X018140Y017210D02*
Y017580D01*
X018190Y017260D02*
Y017630D01*
X018240Y017310D02*
Y017680D01*
X018290Y017360D02*
Y017730D01*
X018340Y017410D02*
Y017780D01*
X018390Y017460D02*
Y017830D01*
X018440Y017510D02*
Y017880D01*
X018490Y017560D02*
Y017930D01*
X018540Y017610D02*
Y017980D01*
X018590Y017650D02*
Y018030D01*
X018640Y017670D02*
Y018080D01*
X018690Y017680D02*
Y018130D01*
X018740Y017690D02*
Y018180D01*
X018790Y017680D02*
Y018230D01*
X018840Y017670D02*
Y018280D01*
X018890Y017650D02*
Y018330D01*
X018940Y017620D02*
Y018380D01*
X018990Y017540D02*
Y018430D01*
X019040Y017360D02*
Y018480D01*
X019090Y017410D02*
Y018530D01*
X019140Y017460D02*
Y018580D01*
X019190Y017510D02*
Y018630D01*
X019240Y017560D02*
Y018680D01*
X019290Y017610D02*
Y018730D01*
X008023Y017903D02*
Y017896D01*
Y017777*
X007997*
X007931Y017764*
X007875Y017727*
X007672Y017524*
X007635Y017468*
X007622Y017402*
Y017100*
X007413*
Y016620*
Y016549*
X007730*
Y016399*
X007413*
Y016277*
X007213*
X007216Y016274*
Y017264*
X007973Y018022*
X008023*
Y017903*
X007240Y016290D02*
Y017280D01*
X007290Y016290D02*
Y017330D01*
X007340Y016290D02*
Y017380D01*
X007390Y016290D02*
Y017430D01*
X007440Y016410D02*
Y016540D01*
Y017110D02*
Y017480D01*
X007490Y016410D02*
Y016540D01*
Y017110D02*
Y017530D01*
X007540Y016410D02*
Y016540D01*
Y017110D02*
Y017580D01*
X007590Y016410D02*
Y016540D01*
Y017110D02*
Y017630D01*
X007640Y016410D02*
Y016540D01*
Y017490D02*
Y017680D01*
X007690Y016410D02*
Y016540D01*
Y017560D02*
Y017730D01*
X007740Y017610D02*
Y017780D01*
X007790Y017660D02*
Y017830D01*
X007840Y017710D02*
Y017880D01*
X007890Y017750D02*
Y017930D01*
X007940Y017780D02*
Y017980D01*
X007990Y017790D02*
Y018020D01*
X015255Y016706D02*
X014808Y016260D01*
X013738*
X013692Y016269*
X013096*
X013092Y016269*
X013069Y016292*
X013069Y016296*
Y016529*
X013261Y016722*
X015248*
X015255Y016706*
X015196Y016718D02*
X014788Y016310D01*
X013743*
X013697Y016319*
X013091*
X013109Y016323*
X013123Y016309*
X013119Y016291*
Y016509*
X013282Y016672*
X015215*
X015196Y016718*
X013090Y016280D02*
X014820D01*
X013080Y016330D02*
X014870D01*
X013080Y016380D02*
X014920D01*
X013080Y016430D02*
X014970D01*
X013080Y016480D02*
X015020D01*
X013080Y016530D02*
X015070D01*
X013130Y016580D02*
X015120D01*
X013180Y016630D02*
X015170D01*
X013230Y016680D02*
X015220D01*
X012104Y016296D02*
X012118Y016227D01*
X012159Y016166*
X012179Y016152*
X012220Y016125*
X012292Y016111*
X012363Y016125*
X012390Y016143*
X012417Y016125*
X012488Y016111*
X012560Y016125*
X012587Y016143*
X012614Y016125*
X012685Y016111*
X012757Y016125*
X012784Y016143*
X012810Y016125*
X012882Y016111*
X012889Y016112*
X012912Y016089*
X012911Y016082*
X012925Y016010*
X012943Y015984*
X012925Y015957*
X012911Y015885*
X012925Y015814*
X012943Y015787*
X012925Y015760*
X012911Y015689*
X012911Y015690*
X012894Y015670*
X012089*
X012023Y015656*
X011968Y015619*
X011372Y015024*
X011335Y014968*
X011322Y014902*
Y014310*
X011266Y014255*
X011258Y014235*
X011241*
X011233Y014255*
X011155Y014333*
X011054Y014375*
X010945*
X010844Y014333*
X010766Y014255*
X010725Y014154*
Y014045*
X010766Y013944*
X010810Y013900*
X010807Y013870*
X010808Y013870*
X010797Y013868*
X010789Y013874*
X010717Y013888*
X010710Y013887*
X010687Y013910*
X010688Y013917*
X010674Y013989*
X010656Y014015*
X010674Y014042*
X010688Y014114*
X010674Y014185*
X010656Y014212*
X010674Y014239*
X010688Y014311*
X010674Y014382*
X010656Y014409*
X010674Y014436*
X010688Y014507*
X010674Y014579*
X010656Y014606*
X010674Y014632*
X010688Y014704*
X010674Y014776*
X010656Y014803*
X010674Y014829*
X010688Y014901*
X010674Y014973*
X010656Y015000*
X010674Y015026*
X010688Y015098*
X010674Y015170*
X010647Y015210*
X010633Y015231*
X010572Y015271*
X010503Y015285*
X010230*
Y015304*
X010503*
X010572Y015318*
X010633Y015359*
X010647Y015379*
X010674Y015420*
X010688Y015492*
X010674Y015563*
X010656Y015590*
X010674Y015617*
X010688Y015688*
X010674Y015760*
X010647Y015801*
X010633Y015821*
X010572Y015862*
X010503Y015876*
X010230*
Y015895*
X010503*
X010572Y015909*
X010633Y015949*
X010647Y015970*
X010674Y016010*
X010688Y016082*
X010687Y016089*
X010710Y016112*
X010717Y016111*
X010789Y016125*
X010815Y016143*
X010842Y016125*
X010914Y016111*
X010985Y016125*
X011012Y016143*
X011039Y016125*
X011111Y016111*
X011182Y016125*
X011209Y016143*
X011236Y016125*
X011307Y016111*
X011379Y016125*
X011406Y016143*
X011432Y016125*
X011504Y016111*
X011576Y016125*
X011603Y016143*
X011629Y016125*
X011701Y016111*
X011773Y016125*
X011800Y016143*
X011826Y016125*
X011898Y016111*
X011970Y016125*
X012010Y016152*
X012031Y016166*
X012071Y016227*
X012085Y016296*
Y016569*
X012104*
Y016296*
X012054Y016291D02*
X012071Y016207D01*
X012123Y016130*
X012152Y016111*
X012200Y016078*
X012292Y016060*
X012383Y016078*
X012390Y016083*
X012397Y016078*
X012488Y016060*
X012580Y016078*
X012587Y016083*
X012594Y016078*
X012685Y016060*
X012777Y016078*
X012784Y016083*
X012791Y016078*
X012882Y016060*
X012872Y016058*
X012858Y016072*
X012860Y016082*
X012878Y015991*
X012883Y015984*
X012878Y015977*
X012860Y015885*
X012878Y015794*
X012883Y015787*
X012878Y015780*
X012912Y015948*
X012940Y015804*
X012870Y015720*
X012084*
X012004Y015704*
X011936Y015658*
X011333Y015055*
X011288Y014987*
X011272Y014907*
Y014331*
X011224Y014284*
X011224Y014285*
X011275*
X011275Y014284*
X011184Y014375*
X011064Y014425*
X010935*
X010815Y014375*
X010724Y014284*
X010675Y014164*
Y014035*
X010724Y013915*
X010758Y013881*
X010760Y013911*
X010807Y013922*
X010808Y013921*
X010717Y013939*
X010727Y013941*
X010741Y013927*
X010739Y013917*
X010721Y014008*
X010716Y014015*
X010721Y014022*
X010739Y014114*
X010721Y014205*
X010716Y014212*
X010721Y014219*
X010739Y014311*
X010721Y014402*
X010716Y014409*
X010721Y014416*
X010739Y014507*
X010721Y014599*
X010716Y014606*
X010721Y014613*
X010739Y014704*
X010721Y014796*
X010716Y014803*
X010721Y014810*
X010739Y014901*
X010721Y014992*
X010716Y014999*
X010721Y015007*
X010739Y015098*
X010721Y015189*
X010688Y015238*
X010669Y015267*
X010592Y015318*
X010508Y015335*
X010280*
Y015254*
X010508*
X010592Y015271*
X010669Y015323*
X010688Y015352*
X010721Y015400*
X010739Y015492*
X010721Y015583*
X010716Y015590*
X010721Y015597*
X010739Y015688*
X010721Y015780*
X010688Y015829*
X010669Y015857*
X010592Y015909*
X010508Y015926*
X010280*
Y015845*
X010508*
X010592Y015862*
X010669Y015913*
X010688Y015942*
X010721Y015991*
X010739Y016082*
X010741Y016072*
X010727Y016058*
X010717Y016060*
X010808Y016078*
X010815Y016083*
X010822Y016078*
X010914Y016060*
X011005Y016078*
X011012Y016083*
X011019Y016078*
X011111Y016060*
X011202Y016078*
X011209Y016083*
X011216Y016078*
X011307Y016060*
X011399Y016078*
X011406Y016083*
X011413Y016078*
X011504Y016060*
X011596Y016078*
X011603Y016083*
X011610Y016078*
X011701Y016060*
X011792Y016078*
X011799Y016083*
X011807Y016078*
X011898Y016060*
X011989Y016078*
X012038Y016111*
X012067Y016130*
X012118Y016207*
X012135Y016291*
Y016519*
X012054*
Y016291*
X010720Y013890D02*
X010800D01*
X010700Y013940D02*
X010760D01*
X010680Y013990D02*
X010740D01*
X010680Y014040D02*
X010720D01*
X010700Y014090D02*
X010710D01*
X010700Y014140D02*
X010710D01*
X010680Y014190D02*
X010730D01*
X010680Y014240D02*
X010760D01*
X011250D02*
D01*
X010700Y014290D02*
X010790D01*
X011210D02*
X011290D01*
X010700Y014340D02*
X010860D01*
X011150D02*
X011310D01*
X010680Y014390D02*
X011310D01*
X010680Y014440D02*
X011310D01*
X010700Y014490D02*
X011310D01*
X010700Y014540D02*
X011310D01*
X010680Y014590D02*
X011310D01*
X010690Y014640D02*
X011310D01*
X010700Y014690D02*
X011310D01*
X010690Y014740D02*
X011310D01*
X010680Y014790D02*
X011310D01*
X010690Y014840D02*
X011310D01*
X010700Y014890D02*
X011310D01*
X010690Y014940D02*
X011330D01*
X010680Y014990D02*
X011350D01*
X010690Y015040D02*
X011380D01*
X010700Y015090D02*
X011430D01*
X010690Y015140D02*
X011480D01*
X010670Y015190D02*
X011530D01*
X010630Y015240D02*
X011580D01*
X010240Y015290D02*
X011630D01*
X010610Y015340D02*
X011680D01*
X010670Y015390D02*
X011730D01*
X010690Y015440D02*
X011780D01*
X010700Y015490D02*
X011830D01*
X010690Y015540D02*
X011880D01*
X010670Y015590D02*
X011930D01*
X010690Y015640D02*
X011990D01*
X010700Y015690D02*
X012900D01*
X010690Y015740D02*
X012920D01*
X010670Y015790D02*
X012940D01*
X010610Y015840D02*
X012920D01*
X010240Y015890D02*
X012900D01*
X010630Y015940D02*
X012920D01*
X010670Y015990D02*
X012940D01*
X010690Y016040D02*
X012920D01*
X010700Y016090D02*
X012900D01*
X012000Y016140D02*
X012190D01*
X012060Y016190D02*
X012140D01*
X012090Y016240D02*
X012110D01*
X012100Y016290D02*
D01*
Y016340D02*
X012090D01*
X012100Y016390D02*
X012090D01*
X012100Y016440D02*
X012090D01*
X012100Y016490D02*
X012090D01*
X012100Y016540D02*
X012090D01*
X008721Y014115D02*
X008663Y014058D01*
X008608Y013962*
X008579Y013855*
Y013744*
X008608Y013637*
X008663Y013541*
X008741Y013463*
X008837Y013408*
X008944Y013379*
X009055*
X009162Y013408*
X009258Y013463*
X009336Y013541*
X009391Y013637*
X009420Y013744*
Y013739*
X009861*
X009907Y013730*
X010503*
X010507Y013730*
X010530Y013707*
X010530Y013703*
Y013107*
X010532Y013098*
X010515Y013077*
X007373*
X007177Y013273*
Y013379*
X007420*
Y014133*
X007717*
X007721Y014115*
X007663Y014058*
X007608Y013962*
X007584Y013875*
X008415*
X008391Y013962*
X008336Y014058*
X008278Y014115*
X008282Y014133*
X008717*
X008721Y014115*
X008666Y014131D02*
X008623Y014088D01*
X008561Y013981*
X008529Y013861*
Y013738*
X008561Y013618*
X008623Y013511*
X008711Y013423*
X008818Y013361*
X008938Y013329*
X009061*
X009181Y013361*
X009288Y013423*
X009376Y013511*
X009438Y013618*
X009370Y013364*
Y013689*
X009856*
X009902Y013680*
X010508*
X010490Y013676*
X010476Y013690*
X010480Y013708*
Y013102*
X010478Y013111*
X010491Y013127*
X007394*
X007227Y013294*
Y013329*
X007470*
Y014083*
X007677*
X007666Y014131*
X007623Y014088*
X007561Y013981*
X007519Y013825*
X008480*
X008438Y013981*
X008376Y014088*
X008333Y014131*
X008322Y014083*
X008677*
X008666Y014131*
X007360Y013100D02*
X010530D01*
X007310Y013150D02*
X010530D01*
X007260Y013200D02*
X010530D01*
X007210Y013250D02*
X010530D01*
X007190Y013300D02*
X010530D01*
X007190Y013350D02*
X010530D01*
X007430Y013400D02*
X008870D01*
X009140D02*
X010530D01*
X007430Y013450D02*
X008750D01*
X009250D02*
X010530D01*
X007430Y013500D02*
X008690D01*
X009310D02*
X010530D01*
X007430Y013550D02*
X008650D01*
X009360D02*
X010530D01*
X007430Y013600D02*
X008620D01*
X009380D02*
X010530D01*
X007430Y013650D02*
X008600D01*
X009410D02*
X010530D01*
X007430Y013700D02*
X008590D01*
X009420D02*
X010530D01*
X007430Y013750D02*
X008570D01*
X007430Y013800D02*
X008570D01*
X007430Y013850D02*
X008570D01*
X007430Y013900D02*
X007580D01*
X008420D02*
X008590D01*
X007430Y013950D02*
X007600D01*
X008410D02*
X008600D01*
X007430Y014000D02*
X007620D01*
X008380D02*
X008620D01*
X007430Y014050D02*
X007650D01*
X008360D02*
X008650D01*
X007430Y014100D02*
X007690D01*
X008310D02*
X008690D01*
%LNpcb_baseboard-2*%
%LPC*%
G36*
X024422Y031657D02*
X024305D01*
X024191Y031634*
X024083Y031589*
X023986Y031524*
X023904Y031442*
X023839Y031345*
X023794Y031237*
X023772Y031123*
Y031006*
X023794Y030892*
X023839Y030784*
X023904Y030687*
X023986Y030605*
X024083Y030540*
X024191Y030495*
X024305Y030472*
X024422*
X024536Y030495*
X024644Y030540*
X024741Y030605*
X024824Y030687*
X024888Y030784*
X024933Y030892*
X024956Y031006*
Y031123*
X024933Y031237*
X024888Y031345*
X024824Y031442*
X024741Y031524*
X024644Y031589*
X024536Y031634*
X024422Y031657*
G37*
G36*
X023634Y030464D02*
X023555D01*
Y030208*
X023634*
Y030464*
G37*
G36*
X023355D02*
X023277D01*
Y030208*
X023355*
Y030464*
G37*
G36*
X010100Y020832D02*
X010047Y020818D01*
X009957Y020766*
X009883Y020692*
X009831Y020602*
X009817Y020550*
X010100*
Y020832*
G37*
G36*
Y020350D02*
X009817D01*
X009831Y020297*
X009883Y020207*
X009957Y020133*
X010047Y020081*
X010100Y020067*
Y020350*
G37*
G36*
X010795Y018729D02*
X010500D01*
Y018474*
X010795*
Y018729*
G37*
G36*
X009600Y018651D02*
X009403D01*
Y018434*
X009600*
Y018651*
G37*
G36*
X008382Y013700D02*
X008100D01*
Y013417*
X008152Y013431*
X008242Y013483*
X008316Y013557*
X008368Y013647*
X008382Y013700*
G37*
G36*
X007900D02*
X007617D01*
X007631Y013647*
X007683Y013557*
X007757Y013483*
X007847Y013431*
X007900Y013417*
Y013700*
G37*
%LNpcb_baseboard-3*%
%LPD*%
G54D10*
X021400Y017400D02*
Y026200D01*
X021810Y026610D02*
X022700D01*
X021400Y026200D02*
X021810Y026610D01*
X021950Y025850D02*
X025200D01*
X021600Y017350D02*
Y025500D01*
X021950Y025850*
X021200Y017450D02*
Y026700D01*
X021665Y027165*
X022000*
X015550Y011300D02*
X021600Y017350D01*
X015500Y011500D02*
X021400Y017400D01*
X020100Y018700D02*
X020900Y019500D01*
X015450Y011700D02*
X021200Y017450D01*
X020900Y019500D02*
Y019550D01*
X022400Y029400D02*
X023200D01*
X006700Y019191D02*
X006850Y019341D01*
Y020050*
X006700Y016200D02*
X007801Y015098D01*
X006700Y016200D02*
Y019191D01*
X025500Y026150D02*
Y027165D01*
X025200Y025850D02*
X025500Y026150D01*
X016100Y019900D02*
X016900Y019100D01*
Y017500D02*
Y019100D01*
X015088Y015688D02*
X016900Y017500D01*
X016000Y019700D02*
X016700Y019000D01*
X014985Y015885D02*
X016700Y017600D01*
Y019000*
X016000Y019900D02*
X016100D01*
X014404Y014704D02*
X018865Y019165D01*
Y021085*
X013394Y014704D02*
X014404D01*
X013394Y015688D02*
X015088D01*
X013394Y015885D02*
X014985D01*
X014882Y016082D02*
X016500Y017700D01*
X013394Y016082D02*
X014882D01*
X016500Y017700D02*
Y018900D01*
X015400Y016900D02*
X016300Y017800D01*
Y018800*
X013188Y016900D02*
X015400D01*
X015300Y017100D02*
X016100Y017900D01*
Y018700*
X012725Y017100D02*
X015300D01*
X012600Y017300D02*
X015200D01*
X015900Y018000D02*
Y018600D01*
X015200Y017300D02*
X015900Y018000D01*
X013394Y014507D02*
X014507D01*
X019100Y019100D02*
Y021600D01*
X014507Y014507D02*
X019100Y019100D01*
X015200Y019700D02*
X016000D01*
X015900Y019500D02*
X016500Y018900D01*
X014300Y019500D02*
X015900D01*
X015800Y019300D02*
X016300Y018800D01*
X012882Y016594D02*
X013188Y016900D01*
X014200Y019300D02*
X015800D01*
X015700Y019100D02*
X016100Y018700D01*
X014150Y019100D02*
X015700D01*
X015600Y018900D02*
X015900Y018600D01*
X012685Y016594D02*
Y017060D01*
X012725Y017100*
X012488Y017188D02*
X012600Y017300D01*
X014100Y018900D02*
X015600D01*
X010150Y021450D02*
X010700Y020900D01*
X013400Y019600D02*
X014100Y018900D01*
X013700Y020100D02*
X014300Y019500D01*
X014700Y020200D02*
X015200Y019700D01*
X014700Y020200D02*
Y020850D01*
X015700Y020200D02*
X016000Y019900D01*
X013394Y014311D02*
X014611D01*
X019300Y019000D02*
Y021700D01*
X014611Y014311D02*
X019300Y019000D01*
X015700Y020200D02*
Y020950D01*
X015200Y021450D02*
X015700Y020950D01*
X018700Y022000D02*
X019100Y021600D01*
X018540Y021409D02*
X018865Y021085D01*
X005850Y015850D02*
X007388Y014311D01*
X010205*
X005850Y015850D02*
Y020550D01*
X004600Y019226D02*
X004612Y019237D01*
X004000Y014100D02*
Y018800D01*
X004426Y019226D02*
X004600D01*
X004000Y018800D02*
X004426Y019226D01*
Y019626D02*
X004600D01*
X003800Y014000D02*
Y019000D01*
X004600Y019626D02*
X004612Y019637D01*
X003800Y019000D02*
X004426Y019626D01*
X003600Y013900D02*
Y019300D01*
X004350Y020050D02*
X004600D01*
X003600Y019300D02*
X004350Y020050D01*
X005200Y014100D02*
Y015500D01*
X006600Y012700D02*
X011300D01*
X005200Y014100D02*
X006600Y012700D01*
X005000Y014000D02*
X006500Y012500D01*
X005000Y014000D02*
Y015200D01*
X006500Y012500D02*
X011400D01*
X006400Y012300D02*
X011500D01*
X004800Y013900D02*
X006400Y012300D01*
X004800Y013900D02*
Y014900D01*
X006300Y012100D02*
X011600D01*
X004500Y013900D02*
Y014700D01*
Y013900D02*
X006300Y012100D01*
X004500Y016200D02*
X005200Y015500D01*
X004500Y015700D02*
X005000Y015200D01*
X004500D02*
X004800Y014900D01*
X007492Y014507D02*
X010205D01*
X006050Y015950D02*
X007492Y014507D01*
X006050Y015950D02*
Y020450D01*
X007595Y014704D02*
X010205D01*
X006250Y016050D02*
X007595Y014704D01*
X006250Y016050D02*
Y020350D01*
X006550Y016050D02*
Y019650D01*
X007698Y014901D02*
X010205D01*
X006550Y016050D02*
X007698Y014901D01*
X007801Y015098D02*
X010205D01*
X014650Y012700D02*
X019500Y017550D01*
X005850Y020550D02*
X007600Y022300D01*
X014400*
X014800Y022700*
X015050Y022100D02*
X016650D01*
X016950Y022400*
X018900*
X016350Y022300D02*
X016800Y022750D01*
X014950Y022300D02*
X016350D01*
X016800Y022750D02*
X017200D01*
X014850Y022500D02*
X015900D01*
X016200Y022800*
X019500Y017550D02*
Y021800D01*
X018900Y022400D02*
X019500Y021800D01*
X017900Y022000D02*
X018700D01*
X017700Y021800D02*
X017900Y022000D01*
X018240Y021409D02*
X018540D01*
X018200Y021450D02*
X018240Y021409D01*
X006050Y020450D02*
X007700Y022100D01*
X006250Y020350D02*
X007800Y021900D01*
X007038Y016200D02*
Y017338D01*
X007900Y018200*
X007038Y016200D02*
X007139Y016100D01*
X007751Y016470D02*
X007755Y016474D01*
X007139Y016100D02*
X007755D01*
X007338Y016466D02*
X007342Y016470D01*
X007751*
X011600Y012100D02*
X012095Y012595D01*
X011500Y012300D02*
X011898Y012698D01*
X011400Y012500D02*
X011701Y012801D01*
X011300Y012700D02*
X011500Y012900D01*
X011111Y012961D02*
Y013405D01*
X011050Y012900D02*
X011111Y012961D01*
X007300Y012900D02*
X011050D01*
X007000Y013200D02*
X007300Y012900D01*
X007000Y013200D02*
Y013800D01*
X020100Y017400D02*
Y018700D01*
X019700Y019600D02*
X020250Y020150D01*
X019700Y017500D02*
Y019600D01*
X019900Y017450D02*
Y019200D01*
X020600Y019900*
X014800Y012100D02*
X020100Y017400D01*
X014750Y012300D02*
X019900Y017450D01*
X014700Y012500D02*
X019700Y017500D01*
X019900Y020450D02*
Y022200D01*
X019000Y023100D02*
X019900Y022200D01*
X016000Y023100D02*
X019000D01*
X017150Y022200D02*
X018800D01*
X019300Y021700*
X016700Y021750D02*
X017150Y022200D01*
X015600Y022700D02*
X016000Y023100D01*
X014800Y022700D02*
X015600D01*
X007700Y022100D02*
X014450D01*
X014850Y022500*
X014550Y021900D02*
X014950Y022300D01*
X007800Y021900D02*
X014550D01*
X016700Y020950D02*
Y021750D01*
X014700D02*
X015050Y022100D01*
X014700Y021250D02*
Y021750D01*
X006200Y011300D02*
X015550D01*
X006300Y011500D02*
X015500D01*
X003800Y014000D02*
X006300Y011500D01*
X004000Y014100D02*
X006400Y011700D01*
X015450*
X003600Y013900D02*
X006200Y011300D01*
X022000Y027165D02*
X022265D01*
X022950Y027350D02*
X023200Y027100D01*
X022450Y027350D02*
X022950D01*
X023200Y026610D02*
Y027100D01*
X022265Y027165D02*
X022450Y027350D01*
X023200Y026610D02*
X023700D01*
X025469Y027134D02*
X025500Y027165D01*
X024900Y027134D02*
X025469D01*
X011304Y013408D02*
Y013795D01*
Y013408D02*
X011307Y013405D01*
X011000Y014100D02*
X011304Y013795D01*
X012292Y012657D02*
X012850Y012100D01*
X014800*
X012488Y012711D02*
X012900Y012300D01*
X014750*
X012950Y012500D02*
X014700D01*
X012685Y012764D02*
Y013405D01*
Y012764D02*
X012950Y012500D01*
X012488Y012711D02*
Y013405D01*
X012292Y012657D02*
Y013405D01*
X013100Y012700D02*
X014650D01*
X014200Y021350D02*
X014700Y020850D01*
X014200Y021350D02*
Y021450D01*
X014700Y021250D02*
X015106Y020843D01*
Y020543D02*
Y020843D01*
Y020543D02*
X015200Y020450D01*
X016200D02*
X016700Y020950D01*
X017200Y020450D02*
X017700Y020950D01*
Y021800*
X013200Y021450D02*
X013700Y020950D01*
Y020100D02*
Y020950D01*
X012200Y021450D02*
X012700Y020950D01*
Y020250D02*
Y020950D01*
Y020250D02*
X012950Y020000D01*
X013500*
X011200Y021450D02*
X011700Y020950D01*
Y020150D02*
X012050Y019800D01*
X011700Y020150D02*
Y020950D01*
X010700Y019900D02*
Y020900D01*
Y019900D02*
X011000Y019600D01*
X013400*
X013450Y019800D02*
X014150Y019100D01*
X012050Y019800D02*
X013450D01*
X013500Y020000D02*
X014200Y019300D01*
X025134Y029400D02*
X025170Y029435D01*
X024365Y029400D02*
X024400Y029365D01*
X023711Y029400D02*
X024365D01*
X023705Y028505D02*
Y029394D01*
X023700Y028500D02*
X023705Y028505D01*
Y029394D02*
X023711Y029400D01*
X023200Y028500D02*
Y029400D01*
X024262Y026465D02*
X024900D01*
X024200Y026528D02*
Y026610D01*
Y026528D02*
X024262Y026465D01*
X011500Y014100D02*
Y014900D01*
X012092Y015492*
X012488Y016594D02*
Y017188D01*
X012882Y012917D02*
X013100Y012700D01*
X012882Y012917D02*
Y013405D01*
X009000Y013917D02*
X010205D01*
X008107Y015492D02*
X010205D01*
X008200Y015900D02*
X008411Y015688D01*
X010205*
X007755Y015844D02*
X008107Y015492D01*
X008200Y015900D02*
Y016800D01*
X012092Y015492D02*
X013394D01*
X011900Y014100D02*
Y014900D01*
X012295Y015295D02*
X013394D01*
X011900Y014900D02*
X012295Y015295D01*
X012300Y014100D02*
Y014700D01*
X012698Y015098D02*
X013394D01*
X012300Y014700D02*
X012698Y015098D01*
X012700Y014101D02*
Y014700D01*
Y014101D02*
X012703Y014098D01*
X012700Y014700D02*
X012901Y014901D01*
X013394*
X009659Y015885D02*
X010205D01*
X009400Y016145D02*
X009659Y015885D01*
X009400Y016145D02*
Y016165D01*
X010814Y015885D02*
X010900Y015800D01*
Y015600D02*
Y015800D01*
X010205Y015885D02*
X010814D01*
X010900Y015334D02*
Y015600D01*
X010860Y015295D02*
X010900Y015334D01*
X010205Y015295D02*
X010860D01*
X010900Y015600D02*
X011600D01*
X012095Y016095D02*
Y016594D01*
X011600Y015600D02*
X012095Y016095D01*
X007800Y016848D02*
X008151D01*
X007755D02*
X007800D01*
X007755Y015844D02*
Y016100D01*
X007900Y018200D02*
X008365D01*
X008151Y016848D02*
X008200Y016800D01*
X007755Y016848D02*
X007800Y016892D01*
Y017400D02*
X008000Y017600D01*
X007800Y016892D02*
Y017400D01*
X008000Y017600D02*
X008365D01*
X013394Y014114D02*
X013885D01*
X014045Y013954D02*
X014280D01*
X013885Y014114D02*
X014045Y013954D01*
X014280D02*
X014300Y013934D01*
X013394Y013505D02*
X013400Y013500D01*
X013394Y013505D02*
Y013917D01*
X012292Y017292D02*
X012533Y017533D01*
X012553*
X012292Y016594D02*
Y017292D01*
X012553Y017533D02*
X012700Y017680D01*
Y017700*
X011834Y017600D02*
X011898Y017536D01*
Y016594D02*
Y017536D01*
X010300Y016500D02*
X010394Y016594D01*
X010205Y016405D02*
X010300Y016500D01*
X011165Y018505D02*
X011233Y018574D01*
X011251*
X011165Y017600D02*
Y018505D01*
X010205Y016082D02*
Y016405D01*
X010394Y016594D02*
X010717D01*
X012095Y012595D02*
Y013405D01*
X011898Y012698D02*
Y013405D01*
X011701Y012801D02*
Y013405D01*
X011500Y013400D02*
X011504Y013404D01*
X011500Y012900D02*
Y013092D01*
Y013400D02*
X011501Y013398D01*
X011504Y013404D02*
Y013405D01*
X011501Y013093D02*
Y013398D01*
X011500Y013092D02*
X011501Y013093D01*
G54D18*
X025134Y029400D03*
X024465D03*
X011834Y017600D03*
X011165D03*
X008365D03*
X009034D03*
X008365Y018200D03*
X009034D03*
G54D28*
X025500Y027165D03*
Y027834D03*
X024900Y028534D03*
Y027865D03*
Y027134D03*
Y026465D03*
X022000Y027834D03*
Y027165D03*
X013900Y017700D03*
Y018369D03*
X009700Y017665D03*
Y018334D03*
X009400Y016165D03*
Y016834D03*
X014300Y013934D03*
Y013265D03*
X012700Y018369D03*
Y017700D03*
X013300Y018369D03*
Y017700D03*
G54D50*
X022385Y002400D02*
Y004114D01*
X021450Y005050D02*
Y011450D01*
Y005050D02*
X022385Y004114D01*
X024354Y004054D02*
X026250Y005950D01*
X024350Y004050D02*
X024354Y004054D01*
Y002400D02*
Y004054D01*
X026250Y005950D02*
Y017750D01*
X026046Y017953D02*
X026250Y017750D01*
X025846Y017953D02*
X026046D01*
X021450Y011450D02*
X022800Y012800D01*
X024000Y013500D02*
X024005Y013494D01*
Y012945D02*
Y013494D01*
X023859Y012800D02*
X024005Y012945D01*
X022800Y012800D02*
X023859D01*
G54D51*
X025190Y029435D02*
X025251Y029496D01*
Y029516*
X025400Y029665D02*
Y032000D01*
X025170Y029435D02*
X025190D01*
X025251Y029516D02*
X025400Y029665D01*
X025100Y032300D02*
X025400Y032000D01*
X022800Y032300D02*
X025100D01*
X022395Y031895D02*
X022800Y032300D01*
X022395Y031065D02*
Y031895D01*
X025765Y028534D02*
X026100Y028200D01*
X019700Y014000D02*
X026100Y020400D01*
Y028200*
X024900Y028534D02*
X025765D01*
X010427Y018900D02*
X010475Y018948D01*
X010400Y018374D02*
Y018900D01*
X010475Y018948D02*
X012000D01*
X010400Y018900D02*
X010427D01*
X008727Y016127D02*
X009362D01*
X008700Y016100D02*
X008727Y016127D01*
X009362D02*
X009400Y016165D01*
X010380Y018354D02*
X010400Y018374D01*
X011951Y017716D02*
X012000Y017765D01*
X011951Y017696D02*
Y017716D01*
X011854Y017600D02*
X011951Y017696D01*
X011834Y017600D02*
X011854D01*
X012000Y017765D02*
Y018200D01*
X012700Y017700D02*
X013300D01*
X013900*
X012700Y018369D02*
Y018700D01*
X012008Y018939D02*
X012460D01*
X012700Y018700*
Y018369D02*
X013300D01*
X012000Y018948D02*
X012008Y018939D01*
G54D52*
X004400Y011000D02*
X010950D01*
X002900Y012500D02*
Y017800D01*
Y012500D02*
X004400Y011000D01*
X010950D02*
X011550Y010400D01*
X013900Y018369D02*
X015426D01*
X009446Y016901D02*
X009466D01*
X015426Y018369D02*
X015594Y018201D01*
X014615Y013265D02*
X018750Y017400D01*
X013634Y013265D02*
X014300D01*
X014615*
X024231Y028534D02*
X024900D01*
X022015Y027850D02*
X024884D01*
X024900Y027865*
X022000Y027834D02*
X022015Y027850D01*
X024915D02*
X025484D01*
X024900Y027865D02*
X024915Y027850D01*
X025484D02*
X025500Y027834D01*
X022000Y027854D02*
X022362Y028216D01*
X022668*
X022700Y028248*
Y028500*
X002900Y017800D02*
Y019350D01*
X006150Y022600*
X013997*
X015200Y023802*
X011540Y008662D02*
Y009662D01*
X011550Y009672D02*
Y010400D01*
X011540Y009662D02*
X011550Y009672D01*
X015200Y023802D02*
Y024802D01*
X013250Y019300D02*
X013877Y018672D01*
X009034Y019034D02*
X009300Y019300D01*
X013250*
X013877Y018392D02*
X013900Y018369D01*
X013877Y018392D02*
Y018672D01*
X009034Y018200D02*
Y019034D01*
X009700Y018334D02*
X009719Y018354D01*
X010380*
X009034Y017600D02*
Y018200D01*
X013400Y013500D02*
X013634Y013265D01*
X009965Y016834D02*
X010300Y016500D01*
X009400Y016834D02*
X009965D01*
X009386Y016848D02*
X009400Y016834D01*
X008700Y016848D02*
X009386D01*
X009700Y017134D02*
Y017646D01*
X009466Y016901D02*
X009700Y017134D01*
X009653Y017600D02*
X009700Y017646D01*
X009034Y017600D02*
X009653D01*
X009739Y017625D02*
X010400D01*
X009700Y017665D02*
X009739Y017625D01*
X010425Y017600D02*
X011165D01*
X010400Y017625D02*
X010425Y017600D01*
G54D56*
X003760Y009662D03*
X007890D03*
X015540D03*
X019920D03*
X023060Y008662D03*
X003700Y024802D03*
X006840Y023802D03*
X011200D03*
X018840D03*
X023000D03*
X018200Y021450D03*
X007000Y013800D03*
G54D57*
X003760Y008662D03*
X002760Y009662D03*
Y008662D03*
X007890D03*
X006890Y009662D03*
Y008662D03*
X015540D03*
X014540Y009662D03*
Y008662D03*
X013540Y009662D03*
Y008662D03*
X012540Y009662D03*
Y008662D03*
X011540Y009662D03*
Y008662D03*
X017920D03*
Y009662D03*
X018920Y008662D03*
Y009662D03*
X019920Y008662D03*
X025060Y009662D03*
Y008662D03*
X024060Y009662D03*
Y008662D03*
X023060Y009662D03*
X001700Y023802D03*
Y024802D03*
X002700Y023802D03*
Y024802D03*
X003700Y023802D03*
X008840Y024802D03*
Y023802D03*
X007840Y024802D03*
Y023802D03*
X006840Y024802D03*
X011200D03*
X012200Y023802D03*
Y024802D03*
X013200Y023802D03*
Y024802D03*
X014200Y023802D03*
Y024802D03*
X015200Y023802D03*
Y024802D03*
X018840D03*
X019840Y023802D03*
Y024802D03*
X023000D03*
X024000Y023802D03*
Y024802D03*
X018200Y020450D03*
X017200Y021450D03*
Y020450D03*
X016200Y021450D03*
Y020450D03*
X015200Y021450D03*
Y020450D03*
X014200Y021450D03*
Y020450D03*
X013200Y021450D03*
Y020450D03*
X012200Y021450D03*
Y020450D03*
X011200Y021450D03*
Y020450D03*
X010200Y021450D03*
Y020450D03*
X008000Y013800D03*
X009000D03*
G54D58*
X024364Y031065D03*
X022395D03*
X016394D03*
X014425D03*
X020364D03*
X018395D03*
X008400D03*
X010400D03*
X012400D03*
X006400D03*
X004400D03*
X002400D03*
X004369Y002400D03*
X002400D03*
X008354D03*
X006385D03*
X020370D03*
X018370D03*
X016370D03*
X010360D03*
X012360D03*
X014360D03*
X024354D03*
X022385D03*
G54D59*
X020900Y019550D03*
X022400Y029397D03*
X003694Y012401D03*
X019700Y014000D03*
X015594Y018201D03*
X014300Y016500D03*
X015223Y014497D03*
X010400Y018900D03*
X004612Y019237D03*
Y019637D03*
X004500Y014700D03*
X004612Y018700D03*
X025844Y017951D03*
X025450Y018350D03*
X018750Y017400D03*
X002900Y017800D03*
X006550Y019650D03*
X007338Y016466D03*
X020250Y020150D03*
X020600Y019900D03*
X019900Y020450D03*
X017200Y022750D03*
X016204Y022789D03*
X006850Y020050D03*
X004600D03*
X011000Y014100D03*
X011500D03*
X012300D03*
X012703Y014098D03*
X011900Y014100D03*
X004500Y015200D03*
Y015700D03*
Y016200D03*
X010900Y015600D03*
X024005Y012945D03*
X024000Y013500D03*
G54D60*
X022700Y028500D03*
X023200D03*
X023700D03*
X024200D03*
X022700Y026610D03*
X023200D03*
X023700D03*
X024200D03*
G54D61*
X023455Y030108D03*
X023200Y029400D03*
X023711D03*
G54D62*
X010717Y016594D03*
X010914D03*
X011111D03*
X011307D03*
X011504D03*
X011701D03*
X011898D03*
X012095D03*
X012292D03*
X012488D03*
X012685D03*
X012882D03*
Y013405D03*
X012685D03*
X012488D03*
X012292D03*
X012095D03*
X011898D03*
X011701D03*
X011504D03*
X011307D03*
X011111D03*
X010914D03*
X010717D03*
G54D63*
X013394Y016082D03*
Y015885D03*
Y015688D03*
Y015492D03*
Y015295D03*
Y015098D03*
Y014901D03*
Y014704D03*
Y014507D03*
Y014311D03*
Y014114D03*
Y013917D03*
X010205D03*
Y014114D03*
Y014311D03*
Y014507D03*
Y014704D03*
Y014901D03*
Y015098D03*
Y015295D03*
Y015492D03*
Y015688D03*
Y015885D03*
Y016082D03*
G54D64*
X011251Y018574D03*
X012000Y018200D03*
Y018948D03*
G54D65*
X010400Y017625D03*
Y018374D03*
G54D66*
X008700Y016100D03*
Y016848D03*
X007755D03*
Y016474D03*
Y016100D03*
G54D67*
X025850Y018200D03*
G54D68*
X010950Y015300D03*
M02*