%FSDAX24Y24*%
%MOIN*%
%SFA1B1*%

%IPPOS*%
%ADD17C,0.005000*%
%ADD82C,0.006665*%
%LNpcb_baseboard-1*%
%LPD*%
G54D17*
X024164Y030865D02*
Y031265D01*
X024564*
Y030865*
X024164*
X022195D02*
Y031265D01*
X022595*
Y030865*
X022195*
X016194D02*
Y031265D01*
X016594*
Y030865*
X016194*
X014225D02*
Y031265D01*
X014625*
Y030865*
X014225*
X020164D02*
Y031265D01*
X020564*
Y030865*
X020164*
X018195D02*
Y031265D01*
X018595*
Y030865*
X018195*
X008200D02*
Y031265D01*
X008600*
Y030865*
X008200*
X010200D02*
Y031265D01*
X010600*
Y030865*
X010200*
X012200D02*
Y031265D01*
X012600*
Y030865*
X012200*
X006200D02*
Y031265D01*
X006600*
Y030865*
X006200*
X004200D02*
Y031265D01*
X004600*
Y030865*
X004200*
X002200D02*
Y031265D01*
X002600*
Y030865*
X002200*
X004169Y002200D02*
Y002600D01*
X004569*
Y002200*
X004169*
X002200D02*
Y002600D01*
X002600*
Y002200*
X002200*
X008154D02*
Y002600D01*
X008554*
Y002200*
X008154*
X006185D02*
Y002600D01*
X006585*
Y002200*
X006185*
X020170D02*
Y002600D01*
X020570*
Y002200*
X020170*
X018170D02*
Y002600D01*
X018570*
Y002200*
X018170*
X016170D02*
Y002600D01*
X016570*
Y002200*
X016170*
X010160D02*
Y002600D01*
X010560*
Y002200*
X010160*
X012160D02*
Y002600D01*
X012560*
Y002200*
X012160*
X014160D02*
Y002600D01*
X014560*
Y002200*
X014160*
X024154D02*
Y002600D01*
X024554*
Y002200*
X024154*
X022185D02*
Y002600D01*
X022585*
Y002200*
X022185*
X020700Y019350D02*
X020800Y019550D01*
X020700Y019750*
X020900Y019650*
X021100Y019750*
X021000Y019550*
X021100Y019350*
X020900Y019450*
X020700Y019350*
X022200Y029197D02*
X022300Y029397D01*
X022200Y029597*
X022400Y029497*
X022600Y029597*
X022500Y029397*
X022600Y029197*
X022400Y029297*
X022200Y029197*
X003494Y012201D02*
X003594Y012401D01*
X003494Y012601*
X003694Y012501*
X003894Y012601*
X003794Y012401*
X003894Y012201*
X003694Y012301*
X003494Y012201*
X019500Y013800D02*
X019600Y014000D01*
X019500Y014200*
X019700Y014100*
X019900Y014200*
X019800Y014000*
X019900Y013800*
X019700Y013900*
X019500Y013800*
X015394Y018001D02*
X015494Y018201D01*
X015394Y018401*
X015594Y018301*
X015794Y018401*
X015694Y018201*
X015794Y018001*
X015594Y018101*
X015394Y018001*
X014100Y016300D02*
X014200Y016500D01*
X014100Y016700*
X014300Y016600*
X014500Y016700*
X014400Y016500*
X014500Y016300*
X014300Y016400*
X014100Y016300*
X015023Y014297D02*
X015123Y014497D01*
X015023Y014697*
X015223Y014597*
X015423Y014697*
X015323Y014497*
X015423Y014297*
X015223Y014397*
X015023Y014297*
X010200Y018700D02*
X010300Y018900D01*
X010200Y019100*
X010400Y019000*
X010600Y019100*
X010500Y018900*
X010600Y018700*
X010400Y018800*
X010200Y018700*
X004412Y019037D02*
X004512Y019237D01*
X004412Y019437*
X004612Y019337*
X004812Y019437*
X004712Y019237*
X004812Y019037*
X004612Y019137*
X004412Y019037*
Y019437D02*
X004512Y019637D01*
X004412Y019837*
X004612Y019737*
X004812Y019837*
X004712Y019637*
X004812Y019437*
X004612Y019537*
X004412Y019437*
X004300Y014500D02*
X004400Y014700D01*
X004300Y014900*
X004500Y014800*
X004700Y014900*
X004600Y014700*
X004700Y014500*
X004500Y014600*
X004300Y014500*
X004412Y018500D02*
X004512Y018700D01*
X004412Y018900*
X004612Y018800*
X004812Y018900*
X004712Y018700*
X004812Y018500*
X004612Y018600*
X004412Y018500*
X025644Y017751D02*
X025744Y017951D01*
X025644Y018151*
X025844Y018051*
X026044Y018151*
X025944Y017951*
X026044Y017751*
X025844Y017851*
X025644Y017751*
X025250Y018150D02*
X025350Y018350D01*
X025250Y018550*
X025450Y018450*
X025650Y018550*
X025550Y018350*
X025650Y018150*
X025450Y018250*
X025250Y018150*
X018550Y017200D02*
X018650Y017400D01*
X018550Y017600*
X018750Y017500*
X018950Y017600*
X018850Y017400*
X018950Y017200*
X018750Y017300*
X018550Y017200*
X002700Y017600D02*
X002800Y017800D01*
X002700Y018000*
X002900Y017900*
X003100Y018000*
X003000Y017800*
X003100Y017600*
X002900Y017700*
X002700Y017600*
X006350Y019450D02*
X006450Y019650D01*
X006350Y019850*
X006550Y019750*
X006750Y019850*
X006650Y019650*
X006750Y019450*
X006550Y019550*
X006350Y019450*
X007138Y016266D02*
X007238Y016466D01*
X007138Y016666*
X007338Y016566*
X007538Y016666*
X007438Y016466*
X007538Y016266*
X007338Y016366*
X007138Y016266*
X020050Y019950D02*
X020150Y020150D01*
X020050Y020350*
X020250Y020250*
X020450Y020350*
X020350Y020150*
X020450Y019950*
X020250Y020050*
X020050Y019950*
X020400Y019700D02*
X020500Y019900D01*
X020400Y020100*
X020600Y020000*
X020800Y020100*
X020700Y019900*
X020800Y019700*
X020600Y019800*
X020400Y019700*
X019700Y020250D02*
X019800Y020450D01*
X019700Y020650*
X019900Y020550*
X020100Y020650*
X020000Y020450*
X020100Y020250*
X019900Y020350*
X019700Y020250*
X017000Y022550D02*
X017100Y022750D01*
X017000Y022950*
X017200Y022850*
X017400Y022950*
X017300Y022750*
X017400Y022550*
X017200Y022650*
X017000Y022550*
X016004Y022589D02*
X016104Y022789D01*
X016004Y022989*
X016204Y022889*
X016404Y022989*
X016304Y022789*
X016404Y022589*
X016204Y022689*
X016004Y022589*
X006650Y019850D02*
X006750Y020050D01*
X006650Y020250*
X006850Y020150*
X007050Y020250*
X006950Y020050*
X007050Y019850*
X006850Y019950*
X006650Y019850*
X004400D02*
X004500Y020050D01*
X004400Y020250*
X004600Y020150*
X004800Y020250*
X004700Y020050*
X004800Y019850*
X004600Y019950*
X004400Y019850*
X010800Y013900D02*
X010900Y014100D01*
X010800Y014300*
X011000Y014200*
X011200Y014300*
X011100Y014100*
X011200Y013900*
X011000Y014000*
X010800Y013900*
X011300D02*
X011400Y014100D01*
X011300Y014300*
X011500Y014200*
X011700Y014300*
X011600Y014100*
X011700Y013900*
X011500Y014000*
X011300Y013900*
X012100D02*
X012200Y014100D01*
X012100Y014300*
X012300Y014200*
X012500Y014300*
X012400Y014100*
X012500Y013900*
X012300Y014000*
X012100Y013900*
X012503Y013898D02*
X012603Y014098D01*
X012503Y014298*
X012703Y014198*
X012903Y014298*
X012803Y014098*
X012903Y013898*
X012703Y013998*
X012503Y013898*
X011700Y013900D02*
X011800Y014100D01*
X011700Y014300*
X011900Y014200*
X012100Y014300*
X012000Y014100*
X012100Y013900*
X011900Y014000*
X011700Y013900*
X004300Y015000D02*
X004400Y015200D01*
X004300Y015400*
X004500Y015300*
X004700Y015400*
X004600Y015200*
X004700Y015000*
X004500Y015100*
X004300Y015000*
Y015500D02*
X004400Y015700D01*
X004300Y015900*
X004500Y015800*
X004700Y015900*
X004600Y015700*
X004700Y015500*
X004500Y015600*
X004300Y015500*
Y016000D02*
X004400Y016200D01*
X004300Y016400*
X004500Y016300*
X004700Y016400*
X004600Y016200*
X004700Y016000*
X004500Y016100*
X004300Y016000*
X010700Y015400D02*
X010800Y015600D01*
X010700Y015800*
X010900Y015700*
X011100Y015800*
X011000Y015600*
X011100Y015400*
X010900Y015500*
X010700Y015400*
X023805Y012745D02*
X023905Y012945D01*
X023805Y013145*
X024005Y013045*
X024205Y013145*
X024105Y012945*
X024205Y012745*
X024005Y012845*
X023805Y012745*
X023800Y013300D02*
X023900Y013500D01*
X023800Y013700*
X024000Y013600*
X024200Y013700*
X024100Y013500*
X024200Y013300*
X024000Y013400*
X023800Y013300*
G54D82*
X003960Y009662D02*
D01*
X003959Y009676*
X003958Y009690*
X003955Y009704*
X003952Y009718*
X003947Y009731*
X003942Y009744*
X003936Y009756*
X003929Y009768*
X003921Y009780*
X003913Y009791*
X003903Y009801*
X003893Y009811*
X003883Y009820*
X003871Y009828*
X003860Y009836*
X003847Y009842*
X003834Y009848*
X003821Y009853*
X003808Y009857*
X003794Y009859*
X003780Y009861*
X003766Y009862*
X003753*
X003739Y009861*
X003725Y009859*
X003711Y009857*
X003698Y009853*
X003685Y009848*
X003672Y009842*
X003660Y009836*
X003648Y009828*
X003636Y009820*
X003626Y009811*
X003616Y009801*
X003606Y009791*
X003598Y009780*
X003590Y009768*
X003583Y009756*
X003577Y009744*
X003572Y009731*
X003567Y009718*
X003564Y009704*
X003561Y009690*
X003560Y009676*
X003560Y009662*
X003560Y009649*
X003561Y009635*
X003564Y009621*
X003567Y009607*
X003572Y009594*
X003577Y009581*
X003583Y009569*
X003590Y009557*
X003598Y009545*
X003606Y009534*
X003616Y009524*
X003626Y009514*
X003636Y009505*
X003648Y009497*
X003660Y009489*
X003672Y009483*
X003685Y009477*
X003698Y009472*
X003711Y009468*
X003725Y009466*
X003739Y009464*
X003753Y009463*
X003766*
X003780Y009464*
X003794Y009466*
X003808Y009468*
X003821Y009472*
X003834Y009477*
X003847Y009483*
X003860Y009489*
X003871Y009497*
X003883Y009505*
X003893Y009514*
X003903Y009524*
X003913Y009534*
X003921Y009545*
X003929Y009557*
X003936Y009569*
X003942Y009581*
X003947Y009594*
X003952Y009607*
X003955Y009621*
X003958Y009635*
X003959Y009649*
X003960Y009662*
Y008662D02*
D01*
X003959Y008676*
X003958Y008690*
X003955Y008704*
X003952Y008718*
X003947Y008731*
X003942Y008744*
X003936Y008756*
X003929Y008768*
X003921Y008780*
X003913Y008791*
X003903Y008801*
X003893Y008811*
X003883Y008820*
X003871Y008828*
X003860Y008836*
X003847Y008842*
X003834Y008848*
X003821Y008853*
X003808Y008857*
X003794Y008859*
X003780Y008861*
X003766Y008862*
X003753*
X003739Y008861*
X003725Y008859*
X003711Y008857*
X003698Y008853*
X003685Y008848*
X003672Y008842*
X003660Y008836*
X003648Y008828*
X003636Y008820*
X003626Y008811*
X003616Y008801*
X003606Y008791*
X003598Y008780*
X003590Y008768*
X003583Y008756*
X003577Y008744*
X003572Y008731*
X003567Y008718*
X003564Y008704*
X003561Y008690*
X003560Y008676*
X003560Y008662*
X003560Y008649*
X003561Y008635*
X003564Y008621*
X003567Y008607*
X003572Y008594*
X003577Y008581*
X003583Y008569*
X003590Y008557*
X003598Y008545*
X003606Y008534*
X003616Y008524*
X003626Y008514*
X003636Y008505*
X003648Y008497*
X003660Y008489*
X003672Y008483*
X003685Y008477*
X003698Y008472*
X003711Y008468*
X003725Y008466*
X003739Y008464*
X003753Y008463*
X003766*
X003780Y008464*
X003794Y008466*
X003808Y008468*
X003821Y008472*
X003834Y008477*
X003847Y008483*
X003860Y008489*
X003871Y008497*
X003883Y008505*
X003893Y008514*
X003903Y008524*
X003913Y008534*
X003921Y008545*
X003929Y008557*
X003936Y008569*
X003942Y008581*
X003947Y008594*
X003952Y008607*
X003955Y008621*
X003958Y008635*
X003959Y008649*
X003960Y008662*
X002960Y009662D02*
D01*
X002959Y009676*
X002958Y009690*
X002955Y009704*
X002952Y009718*
X002947Y009731*
X002942Y009744*
X002936Y009756*
X002929Y009768*
X002921Y009780*
X002913Y009791*
X002903Y009801*
X002893Y009811*
X002883Y009820*
X002871Y009828*
X002860Y009836*
X002847Y009842*
X002834Y009848*
X002821Y009853*
X002808Y009857*
X002794Y009859*
X002780Y009861*
X002766Y009862*
X002753*
X002739Y009861*
X002725Y009859*
X002711Y009857*
X002698Y009853*
X002685Y009848*
X002672Y009842*
X002660Y009836*
X002648Y009828*
X002636Y009820*
X002626Y009811*
X002616Y009801*
X002606Y009791*
X002598Y009780*
X002590Y009768*
X002583Y009756*
X002577Y009744*
X002572Y009731*
X002567Y009718*
X002564Y009704*
X002561Y009690*
X002560Y009676*
X002560Y009662*
X002560Y009649*
X002561Y009635*
X002564Y009621*
X002567Y009607*
X002572Y009594*
X002577Y009581*
X002583Y009569*
X002590Y009557*
X002598Y009545*
X002606Y009534*
X002616Y009524*
X002626Y009514*
X002636Y009505*
X002648Y009497*
X002660Y009489*
X002672Y009483*
X002685Y009477*
X002698Y009472*
X002711Y009468*
X002725Y009466*
X002739Y009464*
X002753Y009463*
X002766*
X002780Y009464*
X002794Y009466*
X002808Y009468*
X002821Y009472*
X002834Y009477*
X002847Y009483*
X002860Y009489*
X002871Y009497*
X002883Y009505*
X002893Y009514*
X002903Y009524*
X002913Y009534*
X002921Y009545*
X002929Y009557*
X002936Y009569*
X002942Y009581*
X002947Y009594*
X002952Y009607*
X002955Y009621*
X002958Y009635*
X002959Y009649*
X002960Y009662*
Y008662D02*
D01*
X002959Y008676*
X002958Y008690*
X002955Y008704*
X002952Y008718*
X002947Y008731*
X002942Y008744*
X002936Y008756*
X002929Y008768*
X002921Y008780*
X002913Y008791*
X002903Y008801*
X002893Y008811*
X002883Y008820*
X002871Y008828*
X002860Y008836*
X002847Y008842*
X002834Y008848*
X002821Y008853*
X002808Y008857*
X002794Y008859*
X002780Y008861*
X002766Y008862*
X002753*
X002739Y008861*
X002725Y008859*
X002711Y008857*
X002698Y008853*
X002685Y008848*
X002672Y008842*
X002660Y008836*
X002648Y008828*
X002636Y008820*
X002626Y008811*
X002616Y008801*
X002606Y008791*
X002598Y008780*
X002590Y008768*
X002583Y008756*
X002577Y008744*
X002572Y008731*
X002567Y008718*
X002564Y008704*
X002561Y008690*
X002560Y008676*
X002560Y008662*
X002560Y008649*
X002561Y008635*
X002564Y008621*
X002567Y008607*
X002572Y008594*
X002577Y008581*
X002583Y008569*
X002590Y008557*
X002598Y008545*
X002606Y008534*
X002616Y008524*
X002626Y008514*
X002636Y008505*
X002648Y008497*
X002660Y008489*
X002672Y008483*
X002685Y008477*
X002698Y008472*
X002711Y008468*
X002725Y008466*
X002739Y008464*
X002753Y008463*
X002766*
X002780Y008464*
X002794Y008466*
X002808Y008468*
X002821Y008472*
X002834Y008477*
X002847Y008483*
X002860Y008489*
X002871Y008497*
X002883Y008505*
X002893Y008514*
X002903Y008524*
X002913Y008534*
X002921Y008545*
X002929Y008557*
X002936Y008569*
X002942Y008581*
X002947Y008594*
X002952Y008607*
X002955Y008621*
X002958Y008635*
X002959Y008649*
X002960Y008662*
X008090Y009662D02*
D01*
X008089Y009676*
X008088Y009690*
X008085Y009704*
X008082Y009718*
X008077Y009731*
X008072Y009744*
X008066Y009756*
X008059Y009768*
X008051Y009780*
X008043Y009791*
X008033Y009801*
X008023Y009811*
X008013Y009820*
X008001Y009828*
X007990Y009836*
X007977Y009842*
X007964Y009848*
X007951Y009853*
X007938Y009857*
X007924Y009859*
X007910Y009861*
X007896Y009862*
X007883*
X007869Y009861*
X007855Y009859*
X007841Y009857*
X007828Y009853*
X007815Y009848*
X007802Y009842*
X007790Y009836*
X007778Y009828*
X007766Y009820*
X007756Y009811*
X007746Y009801*
X007736Y009791*
X007728Y009780*
X007720Y009768*
X007713Y009756*
X007707Y009744*
X007702Y009731*
X007697Y009718*
X007694Y009704*
X007691Y009690*
X007690Y009676*
X007690Y009662*
X007690Y009649*
X007691Y009635*
X007694Y009621*
X007697Y009607*
X007702Y009594*
X007707Y009581*
X007713Y009569*
X007720Y009557*
X007728Y009545*
X007736Y009534*
X007746Y009524*
X007756Y009514*
X007766Y009505*
X007778Y009497*
X007790Y009489*
X007802Y009483*
X007815Y009477*
X007828Y009472*
X007841Y009468*
X007855Y009466*
X007869Y009464*
X007883Y009463*
X007896*
X007910Y009464*
X007924Y009466*
X007938Y009468*
X007951Y009472*
X007964Y009477*
X007977Y009483*
X007990Y009489*
X008001Y009497*
X008013Y009505*
X008023Y009514*
X008033Y009524*
X008043Y009534*
X008051Y009545*
X008059Y009557*
X008066Y009569*
X008072Y009581*
X008077Y009594*
X008082Y009607*
X008085Y009621*
X008088Y009635*
X008089Y009649*
X008090Y009662*
Y008662D02*
D01*
X008089Y008676*
X008088Y008690*
X008085Y008704*
X008082Y008718*
X008077Y008731*
X008072Y008744*
X008066Y008756*
X008059Y008768*
X008051Y008780*
X008043Y008791*
X008033Y008801*
X008023Y008811*
X008013Y008820*
X008001Y008828*
X007990Y008836*
X007977Y008842*
X007964Y008848*
X007951Y008853*
X007938Y008857*
X007924Y008859*
X007910Y008861*
X007896Y008862*
X007883*
X007869Y008861*
X007855Y008859*
X007841Y008857*
X007828Y008853*
X007815Y008848*
X007802Y008842*
X007790Y008836*
X007778Y008828*
X007766Y008820*
X007756Y008811*
X007746Y008801*
X007736Y008791*
X007728Y008780*
X007720Y008768*
X007713Y008756*
X007707Y008744*
X007702Y008731*
X007697Y008718*
X007694Y008704*
X007691Y008690*
X007690Y008676*
X007690Y008662*
X007690Y008649*
X007691Y008635*
X007694Y008621*
X007697Y008607*
X007702Y008594*
X007707Y008581*
X007713Y008569*
X007720Y008557*
X007728Y008545*
X007736Y008534*
X007746Y008524*
X007756Y008514*
X007766Y008505*
X007778Y008497*
X007790Y008489*
X007802Y008483*
X007815Y008477*
X007828Y008472*
X007841Y008468*
X007855Y008466*
X007869Y008464*
X007883Y008463*
X007896*
X007910Y008464*
X007924Y008466*
X007938Y008468*
X007951Y008472*
X007964Y008477*
X007977Y008483*
X007990Y008489*
X008001Y008497*
X008013Y008505*
X008023Y008514*
X008033Y008524*
X008043Y008534*
X008051Y008545*
X008059Y008557*
X008066Y008569*
X008072Y008581*
X008077Y008594*
X008082Y008607*
X008085Y008621*
X008088Y008635*
X008089Y008649*
X008090Y008662*
X007090Y009662D02*
D01*
X007089Y009676*
X007088Y009690*
X007085Y009704*
X007082Y009718*
X007077Y009731*
X007072Y009744*
X007066Y009756*
X007059Y009768*
X007051Y009780*
X007043Y009791*
X007033Y009801*
X007023Y009811*
X007013Y009820*
X007001Y009828*
X006990Y009836*
X006977Y009842*
X006964Y009848*
X006951Y009853*
X006938Y009857*
X006924Y009859*
X006910Y009861*
X006896Y009862*
X006883*
X006869Y009861*
X006855Y009859*
X006841Y009857*
X006828Y009853*
X006815Y009848*
X006802Y009842*
X006790Y009836*
X006778Y009828*
X006766Y009820*
X006756Y009811*
X006746Y009801*
X006736Y009791*
X006728Y009780*
X006720Y009768*
X006713Y009756*
X006707Y009744*
X006702Y009731*
X006697Y009718*
X006694Y009704*
X006691Y009690*
X006690Y009676*
X006690Y009662*
X006690Y009649*
X006691Y009635*
X006694Y009621*
X006697Y009607*
X006702Y009594*
X006707Y009581*
X006713Y009569*
X006720Y009557*
X006728Y009545*
X006736Y009534*
X006746Y009524*
X006756Y009514*
X006766Y009505*
X006778Y009497*
X006790Y009489*
X006802Y009483*
X006815Y009477*
X006828Y009472*
X006841Y009468*
X006855Y009466*
X006869Y009464*
X006883Y009463*
X006896*
X006910Y009464*
X006924Y009466*
X006938Y009468*
X006951Y009472*
X006964Y009477*
X006977Y009483*
X006990Y009489*
X007001Y009497*
X007013Y009505*
X007023Y009514*
X007033Y009524*
X007043Y009534*
X007051Y009545*
X007059Y009557*
X007066Y009569*
X007072Y009581*
X007077Y009594*
X007082Y009607*
X007085Y009621*
X007088Y009635*
X007089Y009649*
X007090Y009662*
Y008662D02*
D01*
X007089Y008676*
X007088Y008690*
X007085Y008704*
X007082Y008718*
X007077Y008731*
X007072Y008744*
X007066Y008756*
X007059Y008768*
X007051Y008780*
X007043Y008791*
X007033Y008801*
X007023Y008811*
X007013Y008820*
X007001Y008828*
X006990Y008836*
X006977Y008842*
X006964Y008848*
X006951Y008853*
X006938Y008857*
X006924Y008859*
X006910Y008861*
X006896Y008862*
X006883*
X006869Y008861*
X006855Y008859*
X006841Y008857*
X006828Y008853*
X006815Y008848*
X006802Y008842*
X006790Y008836*
X006778Y008828*
X006766Y008820*
X006756Y008811*
X006746Y008801*
X006736Y008791*
X006728Y008780*
X006720Y008768*
X006713Y008756*
X006707Y008744*
X006702Y008731*
X006697Y008718*
X006694Y008704*
X006691Y008690*
X006690Y008676*
X006690Y008662*
X006690Y008649*
X006691Y008635*
X006694Y008621*
X006697Y008607*
X006702Y008594*
X006707Y008581*
X006713Y008569*
X006720Y008557*
X006728Y008545*
X006736Y008534*
X006746Y008524*
X006756Y008514*
X006766Y008505*
X006778Y008497*
X006790Y008489*
X006802Y008483*
X006815Y008477*
X006828Y008472*
X006841Y008468*
X006855Y008466*
X006869Y008464*
X006883Y008463*
X006896*
X006910Y008464*
X006924Y008466*
X006938Y008468*
X006951Y008472*
X006964Y008477*
X006977Y008483*
X006990Y008489*
X007001Y008497*
X007013Y008505*
X007023Y008514*
X007033Y008524*
X007043Y008534*
X007051Y008545*
X007059Y008557*
X007066Y008569*
X007072Y008581*
X007077Y008594*
X007082Y008607*
X007085Y008621*
X007088Y008635*
X007089Y008649*
X007090Y008662*
X015740Y009662D02*
D01*
X015739Y009676*
X015738Y009690*
X015735Y009704*
X015732Y009718*
X015727Y009731*
X015722Y009744*
X015716Y009756*
X015709Y009768*
X015701Y009780*
X015693Y009791*
X015683Y009801*
X015673Y009811*
X015663Y009820*
X015651Y009828*
X015640Y009836*
X015627Y009842*
X015614Y009848*
X015601Y009853*
X015588Y009857*
X015574Y009859*
X015560Y009861*
X015546Y009862*
X015533*
X015519Y009861*
X015505Y009859*
X015491Y009857*
X015478Y009853*
X015465Y009848*
X015452Y009842*
X015440Y009836*
X015428Y009828*
X015416Y009820*
X015406Y009811*
X015396Y009801*
X015386Y009791*
X015378Y009780*
X015370Y009768*
X015363Y009756*
X015357Y009744*
X015352Y009731*
X015347Y009718*
X015344Y009704*
X015341Y009690*
X015340Y009676*
X015340Y009662*
X015340Y009649*
X015341Y009635*
X015344Y009621*
X015347Y009607*
X015352Y009594*
X015357Y009581*
X015363Y009569*
X015370Y009557*
X015378Y009545*
X015386Y009534*
X015396Y009524*
X015406Y009514*
X015416Y009505*
X015428Y009497*
X015440Y009489*
X015452Y009483*
X015465Y009477*
X015478Y009472*
X015491Y009468*
X015505Y009466*
X015519Y009464*
X015533Y009463*
X015546*
X015560Y009464*
X015574Y009466*
X015588Y009468*
X015601Y009472*
X015614Y009477*
X015627Y009483*
X015640Y009489*
X015651Y009497*
X015663Y009505*
X015673Y009514*
X015683Y009524*
X015693Y009534*
X015701Y009545*
X015709Y009557*
X015716Y009569*
X015722Y009581*
X015727Y009594*
X015732Y009607*
X015735Y009621*
X015738Y009635*
X015739Y009649*
X015740Y009662*
Y008662D02*
D01*
X015739Y008676*
X015738Y008690*
X015735Y008704*
X015732Y008718*
X015727Y008731*
X015722Y008744*
X015716Y008756*
X015709Y008768*
X015701Y008780*
X015693Y008791*
X015683Y008801*
X015673Y008811*
X015663Y008820*
X015651Y008828*
X015640Y008836*
X015627Y008842*
X015614Y008848*
X015601Y008853*
X015588Y008857*
X015574Y008859*
X015560Y008861*
X015546Y008862*
X015533*
X015519Y008861*
X015505Y008859*
X015491Y008857*
X015478Y008853*
X015465Y008848*
X015452Y008842*
X015440Y008836*
X015428Y008828*
X015416Y008820*
X015406Y008811*
X015396Y008801*
X015386Y008791*
X015378Y008780*
X015370Y008768*
X015363Y008756*
X015357Y008744*
X015352Y008731*
X015347Y008718*
X015344Y008704*
X015341Y008690*
X015340Y008676*
X015340Y008662*
X015340Y008649*
X015341Y008635*
X015344Y008621*
X015347Y008607*
X015352Y008594*
X015357Y008581*
X015363Y008569*
X015370Y008557*
X015378Y008545*
X015386Y008534*
X015396Y008524*
X015406Y008514*
X015416Y008505*
X015428Y008497*
X015440Y008489*
X015452Y008483*
X015465Y008477*
X015478Y008472*
X015491Y008468*
X015505Y008466*
X015519Y008464*
X015533Y008463*
X015546*
X015560Y008464*
X015574Y008466*
X015588Y008468*
X015601Y008472*
X015614Y008477*
X015627Y008483*
X015640Y008489*
X015651Y008497*
X015663Y008505*
X015673Y008514*
X015683Y008524*
X015693Y008534*
X015701Y008545*
X015709Y008557*
X015716Y008569*
X015722Y008581*
X015727Y008594*
X015732Y008607*
X015735Y008621*
X015738Y008635*
X015739Y008649*
X015740Y008662*
X014740Y009662D02*
D01*
X014739Y009676*
X014738Y009690*
X014735Y009704*
X014732Y009718*
X014727Y009731*
X014722Y009744*
X014716Y009756*
X014709Y009768*
X014701Y009780*
X014693Y009791*
X014683Y009801*
X014673Y009811*
X014663Y009820*
X014651Y009828*
X014640Y009836*
X014627Y009842*
X014614Y009848*
X014601Y009853*
X014588Y009857*
X014574Y009859*
X014560Y009861*
X014546Y009862*
X014533*
X014519Y009861*
X014505Y009859*
X014491Y009857*
X014478Y009853*
X014465Y009848*
X014452Y009842*
X014440Y009836*
X014428Y009828*
X014416Y009820*
X014406Y009811*
X014396Y009801*
X014386Y009791*
X014378Y009780*
X014370Y009768*
X014363Y009756*
X014357Y009744*
X014352Y009731*
X014347Y009718*
X014344Y009704*
X014341Y009690*
X014340Y009676*
X014340Y009662*
X014340Y009649*
X014341Y009635*
X014344Y009621*
X014347Y009607*
X014352Y009594*
X014357Y009581*
X014363Y009569*
X014370Y009557*
X014378Y009545*
X014386Y009534*
X014396Y009524*
X014406Y009514*
X014416Y009505*
X014428Y009497*
X014440Y009489*
X014452Y009483*
X014465Y009477*
X014478Y009472*
X014491Y009468*
X014505Y009466*
X014519Y009464*
X014533Y009463*
X014546*
X014560Y009464*
X014574Y009466*
X014588Y009468*
X014601Y009472*
X014614Y009477*
X014627Y009483*
X014640Y009489*
X014651Y009497*
X014663Y009505*
X014673Y009514*
X014683Y009524*
X014693Y009534*
X014701Y009545*
X014709Y009557*
X014716Y009569*
X014722Y009581*
X014727Y009594*
X014732Y009607*
X014735Y009621*
X014738Y009635*
X014739Y009649*
X014740Y009662*
Y008662D02*
D01*
X014739Y008676*
X014738Y008690*
X014735Y008704*
X014732Y008718*
X014727Y008731*
X014722Y008744*
X014716Y008756*
X014709Y008768*
X014701Y008780*
X014693Y008791*
X014683Y008801*
X014673Y008811*
X014663Y008820*
X014651Y008828*
X014640Y008836*
X014627Y008842*
X014614Y008848*
X014601Y008853*
X014588Y008857*
X014574Y008859*
X014560Y008861*
X014546Y008862*
X014533*
X014519Y008861*
X014505Y008859*
X014491Y008857*
X014478Y008853*
X014465Y008848*
X014452Y008842*
X014440Y008836*
X014428Y008828*
X014416Y008820*
X014406Y008811*
X014396Y008801*
X014386Y008791*
X014378Y008780*
X014370Y008768*
X014363Y008756*
X014357Y008744*
X014352Y008731*
X014347Y008718*
X014344Y008704*
X014341Y008690*
X014340Y008676*
X014340Y008662*
X014340Y008649*
X014341Y008635*
X014344Y008621*
X014347Y008607*
X014352Y008594*
X014357Y008581*
X014363Y008569*
X014370Y008557*
X014378Y008545*
X014386Y008534*
X014396Y008524*
X014406Y008514*
X014416Y008505*
X014428Y008497*
X014440Y008489*
X014452Y008483*
X014465Y008477*
X014478Y008472*
X014491Y008468*
X014505Y008466*
X014519Y008464*
X014533Y008463*
X014546*
X014560Y008464*
X014574Y008466*
X014588Y008468*
X014601Y008472*
X014614Y008477*
X014627Y008483*
X014640Y008489*
X014651Y008497*
X014663Y008505*
X014673Y008514*
X014683Y008524*
X014693Y008534*
X014701Y008545*
X014709Y008557*
X014716Y008569*
X014722Y008581*
X014727Y008594*
X014732Y008607*
X014735Y008621*
X014738Y008635*
X014739Y008649*
X014740Y008662*
X013740Y009662D02*
D01*
X013739Y009676*
X013738Y009690*
X013735Y009704*
X013732Y009718*
X013727Y009731*
X013722Y009744*
X013716Y009756*
X013709Y009768*
X013701Y009780*
X013693Y009791*
X013683Y009801*
X013673Y009811*
X013663Y009820*
X013651Y009828*
X013640Y009836*
X013627Y009842*
X013614Y009848*
X013601Y009853*
X013588Y009857*
X013574Y009859*
X013560Y009861*
X013546Y009862*
X013533*
X013519Y009861*
X013505Y009859*
X013491Y009857*
X013478Y009853*
X013465Y009848*
X013452Y009842*
X013440Y009836*
X013428Y009828*
X013416Y009820*
X013406Y009811*
X013396Y009801*
X013386Y009791*
X013378Y009780*
X013370Y009768*
X013363Y009756*
X013357Y009744*
X013352Y009731*
X013347Y009718*
X013344Y009704*
X013341Y009690*
X013340Y009676*
X013340Y009662*
X013340Y009649*
X013341Y009635*
X013344Y009621*
X013347Y009607*
X013352Y009594*
X013357Y009581*
X013363Y009569*
X013370Y009557*
X013378Y009545*
X013386Y009534*
X013396Y009524*
X013406Y009514*
X013416Y009505*
X013428Y009497*
X013440Y009489*
X013452Y009483*
X013465Y009477*
X013478Y009472*
X013491Y009468*
X013505Y009466*
X013519Y009464*
X013533Y009463*
X013546*
X013560Y009464*
X013574Y009466*
X013588Y009468*
X013601Y009472*
X013614Y009477*
X013627Y009483*
X013640Y009489*
X013651Y009497*
X013663Y009505*
X013673Y009514*
X013683Y009524*
X013693Y009534*
X013701Y009545*
X013709Y009557*
X013716Y009569*
X013722Y009581*
X013727Y009594*
X013732Y009607*
X013735Y009621*
X013738Y009635*
X013739Y009649*
X013740Y009662*
Y008662D02*
D01*
X013739Y008676*
X013738Y008690*
X013735Y008704*
X013732Y008718*
X013727Y008731*
X013722Y008744*
X013716Y008756*
X013709Y008768*
X013701Y008780*
X013693Y008791*
X013683Y008801*
X013673Y008811*
X013663Y008820*
X013651Y008828*
X013640Y008836*
X013627Y008842*
X013614Y008848*
X013601Y008853*
X013588Y008857*
X013574Y008859*
X013560Y008861*
X013546Y008862*
X013533*
X013519Y008861*
X013505Y008859*
X013491Y008857*
X013478Y008853*
X013465Y008848*
X013452Y008842*
X013440Y008836*
X013428Y008828*
X013416Y008820*
X013406Y008811*
X013396Y008801*
X013386Y008791*
X013378Y008780*
X013370Y008768*
X013363Y008756*
X013357Y008744*
X013352Y008731*
X013347Y008718*
X013344Y008704*
X013341Y008690*
X013340Y008676*
X013340Y008662*
X013340Y008649*
X013341Y008635*
X013344Y008621*
X013347Y008607*
X013352Y008594*
X013357Y008581*
X013363Y008569*
X013370Y008557*
X013378Y008545*
X013386Y008534*
X013396Y008524*
X013406Y008514*
X013416Y008505*
X013428Y008497*
X013440Y008489*
X013452Y008483*
X013465Y008477*
X013478Y008472*
X013491Y008468*
X013505Y008466*
X013519Y008464*
X013533Y008463*
X013546*
X013560Y008464*
X013574Y008466*
X013588Y008468*
X013601Y008472*
X013614Y008477*
X013627Y008483*
X013640Y008489*
X013651Y008497*
X013663Y008505*
X013673Y008514*
X013683Y008524*
X013693Y008534*
X013701Y008545*
X013709Y008557*
X013716Y008569*
X013722Y008581*
X013727Y008594*
X013732Y008607*
X013735Y008621*
X013738Y008635*
X013739Y008649*
X013740Y008662*
X012740Y009662D02*
D01*
X012739Y009676*
X012738Y009690*
X012735Y009704*
X012732Y009718*
X012727Y009731*
X012722Y009744*
X012716Y009756*
X012709Y009768*
X012701Y009780*
X012693Y009791*
X012683Y009801*
X012673Y009811*
X012663Y009820*
X012651Y009828*
X012640Y009836*
X012627Y009842*
X012614Y009848*
X012601Y009853*
X012588Y009857*
X012574Y009859*
X012560Y009861*
X012546Y009862*
X012533*
X012519Y009861*
X012505Y009859*
X012491Y009857*
X012478Y009853*
X012465Y009848*
X012452Y009842*
X012440Y009836*
X012428Y009828*
X012416Y009820*
X012406Y009811*
X012396Y009801*
X012386Y009791*
X012378Y009780*
X012370Y009768*
X012363Y009756*
X012357Y009744*
X012352Y009731*
X012347Y009718*
X012344Y009704*
X012341Y009690*
X012340Y009676*
X012340Y009662*
X012340Y009649*
X012341Y009635*
X012344Y009621*
X012347Y009607*
X012352Y009594*
X012357Y009581*
X012363Y009569*
X012370Y009557*
X012378Y009545*
X012386Y009534*
X012396Y009524*
X012406Y009514*
X012416Y009505*
X012428Y009497*
X012440Y009489*
X012452Y009483*
X012465Y009477*
X012478Y009472*
X012491Y009468*
X012505Y009466*
X012519Y009464*
X012533Y009463*
X012546*
X012560Y009464*
X012574Y009466*
X012588Y009468*
X012601Y009472*
X012614Y009477*
X012627Y009483*
X012640Y009489*
X012651Y009497*
X012663Y009505*
X012673Y009514*
X012683Y009524*
X012693Y009534*
X012701Y009545*
X012709Y009557*
X012716Y009569*
X012722Y009581*
X012727Y009594*
X012732Y009607*
X012735Y009621*
X012738Y009635*
X012739Y009649*
X012740Y009662*
Y008662D02*
D01*
X012739Y008676*
X012738Y008690*
X012735Y008704*
X012732Y008718*
X012727Y008731*
X012722Y008744*
X012716Y008756*
X012709Y008768*
X012701Y008780*
X012693Y008791*
X012683Y008801*
X012673Y008811*
X012663Y008820*
X012651Y008828*
X012640Y008836*
X012627Y008842*
X012614Y008848*
X012601Y008853*
X012588Y008857*
X012574Y008859*
X012560Y008861*
X012546Y008862*
X012533*
X012519Y008861*
X012505Y008859*
X012491Y008857*
X012478Y008853*
X012465Y008848*
X012452Y008842*
X012440Y008836*
X012428Y008828*
X012416Y008820*
X012406Y008811*
X012396Y008801*
X012386Y008791*
X012378Y008780*
X012370Y008768*
X012363Y008756*
X012357Y008744*
X012352Y008731*
X012347Y008718*
X012344Y008704*
X012341Y008690*
X012340Y008676*
X012340Y008662*
X012340Y008649*
X012341Y008635*
X012344Y008621*
X012347Y008607*
X012352Y008594*
X012357Y008581*
X012363Y008569*
X012370Y008557*
X012378Y008545*
X012386Y008534*
X012396Y008524*
X012406Y008514*
X012416Y008505*
X012428Y008497*
X012440Y008489*
X012452Y008483*
X012465Y008477*
X012478Y008472*
X012491Y008468*
X012505Y008466*
X012519Y008464*
X012533Y008463*
X012546*
X012560Y008464*
X012574Y008466*
X012588Y008468*
X012601Y008472*
X012614Y008477*
X012627Y008483*
X012640Y008489*
X012651Y008497*
X012663Y008505*
X012673Y008514*
X012683Y008524*
X012693Y008534*
X012701Y008545*
X012709Y008557*
X012716Y008569*
X012722Y008581*
X012727Y008594*
X012732Y008607*
X012735Y008621*
X012738Y008635*
X012739Y008649*
X012740Y008662*
X011740Y009662D02*
D01*
X011739Y009676*
X011738Y009690*
X011735Y009704*
X011732Y009718*
X011727Y009731*
X011722Y009744*
X011716Y009756*
X011709Y009768*
X011701Y009780*
X011693Y009791*
X011683Y009801*
X011673Y009811*
X011663Y009820*
X011651Y009828*
X011640Y009836*
X011627Y009842*
X011614Y009848*
X011601Y009853*
X011588Y009857*
X011574Y009859*
X011560Y009861*
X011546Y009862*
X011533*
X011519Y009861*
X011505Y009859*
X011491Y009857*
X011478Y009853*
X011465Y009848*
X011452Y009842*
X011440Y009836*
X011428Y009828*
X011416Y009820*
X011406Y009811*
X011396Y009801*
X011386Y009791*
X011378Y009780*
X011370Y009768*
X011363Y009756*
X011357Y009744*
X011352Y009731*
X011347Y009718*
X011344Y009704*
X011341Y009690*
X011340Y009676*
X011340Y009662*
X011340Y009649*
X011341Y009635*
X011344Y009621*
X011347Y009607*
X011352Y009594*
X011357Y009581*
X011363Y009569*
X011370Y009557*
X011378Y009545*
X011386Y009534*
X011396Y009524*
X011406Y009514*
X011416Y009505*
X011428Y009497*
X011440Y009489*
X011452Y009483*
X011465Y009477*
X011478Y009472*
X011491Y009468*
X011505Y009466*
X011519Y009464*
X011533Y009463*
X011546*
X011560Y009464*
X011574Y009466*
X011588Y009468*
X011601Y009472*
X011614Y009477*
X011627Y009483*
X011640Y009489*
X011651Y009497*
X011663Y009505*
X011673Y009514*
X011683Y009524*
X011693Y009534*
X011701Y009545*
X011709Y009557*
X011716Y009569*
X011722Y009581*
X011727Y009594*
X011732Y009607*
X011735Y009621*
X011738Y009635*
X011739Y009649*
X011740Y009662*
Y008662D02*
D01*
X011739Y008676*
X011738Y008690*
X011735Y008704*
X011732Y008718*
X011727Y008731*
X011722Y008744*
X011716Y008756*
X011709Y008768*
X011701Y008780*
X011693Y008791*
X011683Y008801*
X011673Y008811*
X011663Y008820*
X011651Y008828*
X011640Y008836*
X011627Y008842*
X011614Y008848*
X011601Y008853*
X011588Y008857*
X011574Y008859*
X011560Y008861*
X011546Y008862*
X011533*
X011519Y008861*
X011505Y008859*
X011491Y008857*
X011478Y008853*
X011465Y008848*
X011452Y008842*
X011440Y008836*
X011428Y008828*
X011416Y008820*
X011406Y008811*
X011396Y008801*
X011386Y008791*
X011378Y008780*
X011370Y008768*
X011363Y008756*
X011357Y008744*
X011352Y008731*
X011347Y008718*
X011344Y008704*
X011341Y008690*
X011340Y008676*
X011340Y008662*
X011340Y008649*
X011341Y008635*
X011344Y008621*
X011347Y008607*
X011352Y008594*
X011357Y008581*
X011363Y008569*
X011370Y008557*
X011378Y008545*
X011386Y008534*
X011396Y008524*
X011406Y008514*
X011416Y008505*
X011428Y008497*
X011440Y008489*
X011452Y008483*
X011465Y008477*
X011478Y008472*
X011491Y008468*
X011505Y008466*
X011519Y008464*
X011533Y008463*
X011546*
X011560Y008464*
X011574Y008466*
X011588Y008468*
X011601Y008472*
X011614Y008477*
X011627Y008483*
X011640Y008489*
X011651Y008497*
X011663Y008505*
X011673Y008514*
X011683Y008524*
X011693Y008534*
X011701Y008545*
X011709Y008557*
X011716Y008569*
X011722Y008581*
X011727Y008594*
X011732Y008607*
X011735Y008621*
X011738Y008635*
X011739Y008649*
X011740Y008662*
X018120D02*
D01*
X018119Y008676*
X018118Y008690*
X018115Y008704*
X018112Y008718*
X018107Y008731*
X018102Y008744*
X018096Y008756*
X018089Y008768*
X018081Y008780*
X018073Y008791*
X018063Y008801*
X018053Y008811*
X018043Y008820*
X018031Y008828*
X018020Y008836*
X018007Y008842*
X017994Y008848*
X017981Y008853*
X017968Y008857*
X017954Y008859*
X017940Y008861*
X017926Y008862*
X017913*
X017899Y008861*
X017885Y008859*
X017871Y008857*
X017858Y008853*
X017845Y008848*
X017832Y008842*
X017820Y008836*
X017808Y008828*
X017796Y008820*
X017786Y008811*
X017776Y008801*
X017766Y008791*
X017758Y008780*
X017750Y008768*
X017743Y008756*
X017737Y008744*
X017732Y008731*
X017727Y008718*
X017724Y008704*
X017721Y008690*
X017720Y008676*
X017720Y008662*
X017720Y008649*
X017721Y008635*
X017724Y008621*
X017727Y008607*
X017732Y008594*
X017737Y008581*
X017743Y008569*
X017750Y008557*
X017758Y008545*
X017766Y008534*
X017776Y008524*
X017786Y008514*
X017796Y008505*
X017808Y008497*
X017820Y008489*
X017832Y008483*
X017845Y008477*
X017858Y008472*
X017871Y008468*
X017885Y008466*
X017899Y008464*
X017913Y008463*
X017926*
X017940Y008464*
X017954Y008466*
X017968Y008468*
X017981Y008472*
X017994Y008477*
X018007Y008483*
X018020Y008489*
X018031Y008497*
X018043Y008505*
X018053Y008514*
X018063Y008524*
X018073Y008534*
X018081Y008545*
X018089Y008557*
X018096Y008569*
X018102Y008581*
X018107Y008594*
X018112Y008607*
X018115Y008621*
X018118Y008635*
X018119Y008649*
X018120Y008662*
Y009662D02*
D01*
X018119Y009676*
X018118Y009690*
X018115Y009704*
X018112Y009718*
X018107Y009731*
X018102Y009744*
X018096Y009756*
X018089Y009768*
X018081Y009780*
X018073Y009791*
X018063Y009801*
X018053Y009811*
X018043Y009820*
X018031Y009828*
X018020Y009836*
X018007Y009842*
X017994Y009848*
X017981Y009853*
X017968Y009857*
X017954Y009859*
X017940Y009861*
X017926Y009862*
X017913*
X017899Y009861*
X017885Y009859*
X017871Y009857*
X017858Y009853*
X017845Y009848*
X017832Y009842*
X017820Y009836*
X017808Y009828*
X017796Y009820*
X017786Y009811*
X017776Y009801*
X017766Y009791*
X017758Y009780*
X017750Y009768*
X017743Y009756*
X017737Y009744*
X017732Y009731*
X017727Y009718*
X017724Y009704*
X017721Y009690*
X017720Y009676*
X017720Y009662*
X017720Y009649*
X017721Y009635*
X017724Y009621*
X017727Y009607*
X017732Y009594*
X017737Y009581*
X017743Y009569*
X017750Y009557*
X017758Y009545*
X017766Y009534*
X017776Y009524*
X017786Y009514*
X017796Y009505*
X017808Y009497*
X017820Y009489*
X017832Y009483*
X017845Y009477*
X017858Y009472*
X017871Y009468*
X017885Y009466*
X017899Y009464*
X017913Y009463*
X017926*
X017940Y009464*
X017954Y009466*
X017968Y009468*
X017981Y009472*
X017994Y009477*
X018007Y009483*
X018020Y009489*
X018031Y009497*
X018043Y009505*
X018053Y009514*
X018063Y009524*
X018073Y009534*
X018081Y009545*
X018089Y009557*
X018096Y009569*
X018102Y009581*
X018107Y009594*
X018112Y009607*
X018115Y009621*
X018118Y009635*
X018119Y009649*
X018120Y009662*
X019120Y008662D02*
D01*
X019119Y008676*
X019118Y008690*
X019115Y008704*
X019112Y008718*
X019107Y008731*
X019102Y008744*
X019096Y008756*
X019089Y008768*
X019081Y008780*
X019073Y008791*
X019063Y008801*
X019053Y008811*
X019043Y008820*
X019031Y008828*
X019020Y008836*
X019007Y008842*
X018994Y008848*
X018981Y008853*
X018968Y008857*
X018954Y008859*
X018940Y008861*
X018926Y008862*
X018913*
X018899Y008861*
X018885Y008859*
X018871Y008857*
X018858Y008853*
X018845Y008848*
X018832Y008842*
X018820Y008836*
X018808Y008828*
X018796Y008820*
X018786Y008811*
X018776Y008801*
X018766Y008791*
X018758Y008780*
X018750Y008768*
X018743Y008756*
X018737Y008744*
X018732Y008731*
X018727Y008718*
X018724Y008704*
X018721Y008690*
X018720Y008676*
X018720Y008662*
X018720Y008649*
X018721Y008635*
X018724Y008621*
X018727Y008607*
X018732Y008594*
X018737Y008581*
X018743Y008569*
X018750Y008557*
X018758Y008545*
X018766Y008534*
X018776Y008524*
X018786Y008514*
X018796Y008505*
X018808Y008497*
X018820Y008489*
X018832Y008483*
X018845Y008477*
X018858Y008472*
X018871Y008468*
X018885Y008466*
X018899Y008464*
X018913Y008463*
X018926*
X018940Y008464*
X018954Y008466*
X018968Y008468*
X018981Y008472*
X018994Y008477*
X019007Y008483*
X019020Y008489*
X019031Y008497*
X019043Y008505*
X019053Y008514*
X019063Y008524*
X019073Y008534*
X019081Y008545*
X019089Y008557*
X019096Y008569*
X019102Y008581*
X019107Y008594*
X019112Y008607*
X019115Y008621*
X019118Y008635*
X019119Y008649*
X019120Y008662*
Y009662D02*
D01*
X019119Y009676*
X019118Y009690*
X019115Y009704*
X019112Y009718*
X019107Y009731*
X019102Y009744*
X019096Y009756*
X019089Y009768*
X019081Y009780*
X019073Y009791*
X019063Y009801*
X019053Y009811*
X019043Y009820*
X019031Y009828*
X019020Y009836*
X019007Y009842*
X018994Y009848*
X018981Y009853*
X018968Y009857*
X018954Y009859*
X018940Y009861*
X018926Y009862*
X018913*
X018899Y009861*
X018885Y009859*
X018871Y009857*
X018858Y009853*
X018845Y009848*
X018832Y009842*
X018820Y009836*
X018808Y009828*
X018796Y009820*
X018786Y009811*
X018776Y009801*
X018766Y009791*
X018758Y009780*
X018750Y009768*
X018743Y009756*
X018737Y009744*
X018732Y009731*
X018727Y009718*
X018724Y009704*
X018721Y009690*
X018720Y009676*
X018720Y009662*
X018720Y009649*
X018721Y009635*
X018724Y009621*
X018727Y009607*
X018732Y009594*
X018737Y009581*
X018743Y009569*
X018750Y009557*
X018758Y009545*
X018766Y009534*
X018776Y009524*
X018786Y009514*
X018796Y009505*
X018808Y009497*
X018820Y009489*
X018832Y009483*
X018845Y009477*
X018858Y009472*
X018871Y009468*
X018885Y009466*
X018899Y009464*
X018913Y009463*
X018926*
X018940Y009464*
X018954Y009466*
X018968Y009468*
X018981Y009472*
X018994Y009477*
X019007Y009483*
X019020Y009489*
X019031Y009497*
X019043Y009505*
X019053Y009514*
X019063Y009524*
X019073Y009534*
X019081Y009545*
X019089Y009557*
X019096Y009569*
X019102Y009581*
X019107Y009594*
X019112Y009607*
X019115Y009621*
X019118Y009635*
X019119Y009649*
X019120Y009662*
X020120Y008662D02*
D01*
X020119Y008676*
X020118Y008690*
X020115Y008704*
X020112Y008718*
X020107Y008731*
X020102Y008744*
X020096Y008756*
X020089Y008768*
X020081Y008780*
X020073Y008791*
X020063Y008801*
X020053Y008811*
X020043Y008820*
X020031Y008828*
X020020Y008836*
X020007Y008842*
X019994Y008848*
X019981Y008853*
X019968Y008857*
X019954Y008859*
X019940Y008861*
X019926Y008862*
X019913*
X019899Y008861*
X019885Y008859*
X019871Y008857*
X019858Y008853*
X019845Y008848*
X019832Y008842*
X019820Y008836*
X019808Y008828*
X019796Y008820*
X019786Y008811*
X019776Y008801*
X019766Y008791*
X019758Y008780*
X019750Y008768*
X019743Y008756*
X019737Y008744*
X019732Y008731*
X019727Y008718*
X019724Y008704*
X019721Y008690*
X019720Y008676*
X019720Y008662*
X019720Y008649*
X019721Y008635*
X019724Y008621*
X019727Y008607*
X019732Y008594*
X019737Y008581*
X019743Y008569*
X019750Y008557*
X019758Y008545*
X019766Y008534*
X019776Y008524*
X019786Y008514*
X019796Y008505*
X019808Y008497*
X019820Y008489*
X019832Y008483*
X019845Y008477*
X019858Y008472*
X019871Y008468*
X019885Y008466*
X019899Y008464*
X019913Y008463*
X019926*
X019940Y008464*
X019954Y008466*
X019968Y008468*
X019981Y008472*
X019994Y008477*
X020007Y008483*
X020020Y008489*
X020031Y008497*
X020043Y008505*
X020053Y008514*
X020063Y008524*
X020073Y008534*
X020081Y008545*
X020089Y008557*
X020096Y008569*
X020102Y008581*
X020107Y008594*
X020112Y008607*
X020115Y008621*
X020118Y008635*
X020119Y008649*
X020120Y008662*
Y009662D02*
D01*
X020119Y009676*
X020118Y009690*
X020115Y009704*
X020112Y009718*
X020107Y009731*
X020102Y009744*
X020096Y009756*
X020089Y009768*
X020081Y009780*
X020073Y009791*
X020063Y009801*
X020053Y009811*
X020043Y009820*
X020031Y009828*
X020020Y009836*
X020007Y009842*
X019994Y009848*
X019981Y009853*
X019968Y009857*
X019954Y009859*
X019940Y009861*
X019926Y009862*
X019913*
X019899Y009861*
X019885Y009859*
X019871Y009857*
X019858Y009853*
X019845Y009848*
X019832Y009842*
X019820Y009836*
X019808Y009828*
X019796Y009820*
X019786Y009811*
X019776Y009801*
X019766Y009791*
X019758Y009780*
X019750Y009768*
X019743Y009756*
X019737Y009744*
X019732Y009731*
X019727Y009718*
X019724Y009704*
X019721Y009690*
X019720Y009676*
X019720Y009662*
X019720Y009649*
X019721Y009635*
X019724Y009621*
X019727Y009607*
X019732Y009594*
X019737Y009581*
X019743Y009569*
X019750Y009557*
X019758Y009545*
X019766Y009534*
X019776Y009524*
X019786Y009514*
X019796Y009505*
X019808Y009497*
X019820Y009489*
X019832Y009483*
X019845Y009477*
X019858Y009472*
X019871Y009468*
X019885Y009466*
X019899Y009464*
X019913Y009463*
X019926*
X019940Y009464*
X019954Y009466*
X019968Y009468*
X019981Y009472*
X019994Y009477*
X020007Y009483*
X020020Y009489*
X020031Y009497*
X020043Y009505*
X020053Y009514*
X020063Y009524*
X020073Y009534*
X020081Y009545*
X020089Y009557*
X020096Y009569*
X020102Y009581*
X020107Y009594*
X020112Y009607*
X020115Y009621*
X020118Y009635*
X020119Y009649*
X020120Y009662*
X025260D02*
D01*
X025259Y009676*
X025258Y009690*
X025255Y009704*
X025252Y009718*
X025247Y009731*
X025242Y009744*
X025236Y009756*
X025229Y009768*
X025221Y009780*
X025213Y009791*
X025203Y009801*
X025193Y009811*
X025183Y009820*
X025171Y009828*
X025160Y009836*
X025147Y009842*
X025134Y009848*
X025121Y009853*
X025108Y009857*
X025094Y009859*
X025080Y009861*
X025066Y009862*
X025053*
X025039Y009861*
X025025Y009859*
X025011Y009857*
X024998Y009853*
X024985Y009848*
X024972Y009842*
X024960Y009836*
X024948Y009828*
X024936Y009820*
X024926Y009811*
X024916Y009801*
X024906Y009791*
X024898Y009780*
X024890Y009768*
X024883Y009756*
X024877Y009744*
X024872Y009731*
X024867Y009718*
X024864Y009704*
X024861Y009690*
X024860Y009676*
X024860Y009662*
X024860Y009649*
X024861Y009635*
X024864Y009621*
X024867Y009607*
X024872Y009594*
X024877Y009581*
X024883Y009569*
X024890Y009557*
X024898Y009545*
X024906Y009534*
X024916Y009524*
X024926Y009514*
X024936Y009505*
X024948Y009497*
X024960Y009489*
X024972Y009483*
X024985Y009477*
X024998Y009472*
X025011Y009468*
X025025Y009466*
X025039Y009464*
X025053Y009463*
X025066*
X025080Y009464*
X025094Y009466*
X025108Y009468*
X025121Y009472*
X025134Y009477*
X025147Y009483*
X025160Y009489*
X025171Y009497*
X025183Y009505*
X025193Y009514*
X025203Y009524*
X025213Y009534*
X025221Y009545*
X025229Y009557*
X025236Y009569*
X025242Y009581*
X025247Y009594*
X025252Y009607*
X025255Y009621*
X025258Y009635*
X025259Y009649*
X025260Y009662*
Y008662D02*
D01*
X025259Y008676*
X025258Y008690*
X025255Y008704*
X025252Y008718*
X025247Y008731*
X025242Y008744*
X025236Y008756*
X025229Y008768*
X025221Y008780*
X025213Y008791*
X025203Y008801*
X025193Y008811*
X025183Y008820*
X025171Y008828*
X025160Y008836*
X025147Y008842*
X025134Y008848*
X025121Y008853*
X025108Y008857*
X025094Y008859*
X025080Y008861*
X025066Y008862*
X025053*
X025039Y008861*
X025025Y008859*
X025011Y008857*
X024998Y008853*
X024985Y008848*
X024972Y008842*
X024960Y008836*
X024948Y008828*
X024936Y008820*
X024926Y008811*
X024916Y008801*
X024906Y008791*
X024898Y008780*
X024890Y008768*
X024883Y008756*
X024877Y008744*
X024872Y008731*
X024867Y008718*
X024864Y008704*
X024861Y008690*
X024860Y008676*
X024860Y008662*
X024860Y008649*
X024861Y008635*
X024864Y008621*
X024867Y008607*
X024872Y008594*
X024877Y008581*
X024883Y008569*
X024890Y008557*
X024898Y008545*
X024906Y008534*
X024916Y008524*
X024926Y008514*
X024936Y008505*
X024948Y008497*
X024960Y008489*
X024972Y008483*
X024985Y008477*
X024998Y008472*
X025011Y008468*
X025025Y008466*
X025039Y008464*
X025053Y008463*
X025066*
X025080Y008464*
X025094Y008466*
X025108Y008468*
X025121Y008472*
X025134Y008477*
X025147Y008483*
X025160Y008489*
X025171Y008497*
X025183Y008505*
X025193Y008514*
X025203Y008524*
X025213Y008534*
X025221Y008545*
X025229Y008557*
X025236Y008569*
X025242Y008581*
X025247Y008594*
X025252Y008607*
X025255Y008621*
X025258Y008635*
X025259Y008649*
X025260Y008662*
X024260Y009662D02*
D01*
X024259Y009676*
X024258Y009690*
X024255Y009704*
X024252Y009718*
X024247Y009731*
X024242Y009744*
X024236Y009756*
X024229Y009768*
X024221Y009780*
X024213Y009791*
X024203Y009801*
X024193Y009811*
X024183Y009820*
X024171Y009828*
X024160Y009836*
X024147Y009842*
X024134Y009848*
X024121Y009853*
X024108Y009857*
X024094Y009859*
X024080Y009861*
X024066Y009862*
X024053*
X024039Y009861*
X024025Y009859*
X024011Y009857*
X023998Y009853*
X023985Y009848*
X023972Y009842*
X023960Y009836*
X023948Y009828*
X023936Y009820*
X023926Y009811*
X023916Y009801*
X023906Y009791*
X023898Y009780*
X023890Y009768*
X023883Y009756*
X023877Y009744*
X023872Y009731*
X023867Y009718*
X023864Y009704*
X023861Y009690*
X023860Y009676*
X023860Y009662*
X023860Y009649*
X023861Y009635*
X023864Y009621*
X023867Y009607*
X023872Y009594*
X023877Y009581*
X023883Y009569*
X023890Y009557*
X023898Y009545*
X023906Y009534*
X023916Y009524*
X023926Y009514*
X023936Y009505*
X023948Y009497*
X023960Y009489*
X023972Y009483*
X023985Y009477*
X023998Y009472*
X024011Y009468*
X024025Y009466*
X024039Y009464*
X024053Y009463*
X024066*
X024080Y009464*
X024094Y009466*
X024108Y009468*
X024121Y009472*
X024134Y009477*
X024147Y009483*
X024160Y009489*
X024171Y009497*
X024183Y009505*
X024193Y009514*
X024203Y009524*
X024213Y009534*
X024221Y009545*
X024229Y009557*
X024236Y009569*
X024242Y009581*
X024247Y009594*
X024252Y009607*
X024255Y009621*
X024258Y009635*
X024259Y009649*
X024260Y009662*
Y008662D02*
D01*
X024259Y008676*
X024258Y008690*
X024255Y008704*
X024252Y008718*
X024247Y008731*
X024242Y008744*
X024236Y008756*
X024229Y008768*
X024221Y008780*
X024213Y008791*
X024203Y008801*
X024193Y008811*
X024183Y008820*
X024171Y008828*
X024160Y008836*
X024147Y008842*
X024134Y008848*
X024121Y008853*
X024108Y008857*
X024094Y008859*
X024080Y008861*
X024066Y008862*
X024053*
X024039Y008861*
X024025Y008859*
X024011Y008857*
X023998Y008853*
X023985Y008848*
X023972Y008842*
X023960Y008836*
X023948Y008828*
X023936Y008820*
X023926Y008811*
X023916Y008801*
X023906Y008791*
X023898Y008780*
X023890Y008768*
X023883Y008756*
X023877Y008744*
X023872Y008731*
X023867Y008718*
X023864Y008704*
X023861Y008690*
X023860Y008676*
X023860Y008662*
X023860Y008649*
X023861Y008635*
X023864Y008621*
X023867Y008607*
X023872Y008594*
X023877Y008581*
X023883Y008569*
X023890Y008557*
X023898Y008545*
X023906Y008534*
X023916Y008524*
X023926Y008514*
X023936Y008505*
X023948Y008497*
X023960Y008489*
X023972Y008483*
X023985Y008477*
X023998Y008472*
X024011Y008468*
X024025Y008466*
X024039Y008464*
X024053Y008463*
X024066*
X024080Y008464*
X024094Y008466*
X024108Y008468*
X024121Y008472*
X024134Y008477*
X024147Y008483*
X024160Y008489*
X024171Y008497*
X024183Y008505*
X024193Y008514*
X024203Y008524*
X024213Y008534*
X024221Y008545*
X024229Y008557*
X024236Y008569*
X024242Y008581*
X024247Y008594*
X024252Y008607*
X024255Y008621*
X024258Y008635*
X024259Y008649*
X024260Y008662*
X023260Y009662D02*
D01*
X023259Y009676*
X023258Y009690*
X023255Y009704*
X023252Y009718*
X023247Y009731*
X023242Y009744*
X023236Y009756*
X023229Y009768*
X023221Y009780*
X023213Y009791*
X023203Y009801*
X023193Y009811*
X023183Y009820*
X023171Y009828*
X023160Y009836*
X023147Y009842*
X023134Y009848*
X023121Y009853*
X023108Y009857*
X023094Y009859*
X023080Y009861*
X023066Y009862*
X023053*
X023039Y009861*
X023025Y009859*
X023011Y009857*
X022998Y009853*
X022985Y009848*
X022972Y009842*
X022960Y009836*
X022948Y009828*
X022936Y009820*
X022926Y009811*
X022916Y009801*
X022906Y009791*
X022898Y009780*
X022890Y009768*
X022883Y009756*
X022877Y009744*
X022872Y009731*
X022867Y009718*
X022864Y009704*
X022861Y009690*
X022860Y009676*
X022860Y009662*
X022860Y009649*
X022861Y009635*
X022864Y009621*
X022867Y009607*
X022872Y009594*
X022877Y009581*
X022883Y009569*
X022890Y009557*
X022898Y009545*
X022906Y009534*
X022916Y009524*
X022926Y009514*
X022936Y009505*
X022948Y009497*
X022960Y009489*
X022972Y009483*
X022985Y009477*
X022998Y009472*
X023011Y009468*
X023025Y009466*
X023039Y009464*
X023053Y009463*
X023066*
X023080Y009464*
X023094Y009466*
X023108Y009468*
X023121Y009472*
X023134Y009477*
X023147Y009483*
X023160Y009489*
X023171Y009497*
X023183Y009505*
X023193Y009514*
X023203Y009524*
X023213Y009534*
X023221Y009545*
X023229Y009557*
X023236Y009569*
X023242Y009581*
X023247Y009594*
X023252Y009607*
X023255Y009621*
X023258Y009635*
X023259Y009649*
X023260Y009662*
Y008662D02*
D01*
X023259Y008676*
X023258Y008690*
X023255Y008704*
X023252Y008718*
X023247Y008731*
X023242Y008744*
X023236Y008756*
X023229Y008768*
X023221Y008780*
X023213Y008791*
X023203Y008801*
X023193Y008811*
X023183Y008820*
X023171Y008828*
X023160Y008836*
X023147Y008842*
X023134Y008848*
X023121Y008853*
X023108Y008857*
X023094Y008859*
X023080Y008861*
X023066Y008862*
X023053*
X023039Y008861*
X023025Y008859*
X023011Y008857*
X022998Y008853*
X022985Y008848*
X022972Y008842*
X022960Y008836*
X022948Y008828*
X022936Y008820*
X022926Y008811*
X022916Y008801*
X022906Y008791*
X022898Y008780*
X022890Y008768*
X022883Y008756*
X022877Y008744*
X022872Y008731*
X022867Y008718*
X022864Y008704*
X022861Y008690*
X022860Y008676*
X022860Y008662*
X022860Y008649*
X022861Y008635*
X022864Y008621*
X022867Y008607*
X022872Y008594*
X022877Y008581*
X022883Y008569*
X022890Y008557*
X022898Y008545*
X022906Y008534*
X022916Y008524*
X022926Y008514*
X022936Y008505*
X022948Y008497*
X022960Y008489*
X022972Y008483*
X022985Y008477*
X022998Y008472*
X023011Y008468*
X023025Y008466*
X023039Y008464*
X023053Y008463*
X023066*
X023080Y008464*
X023094Y008466*
X023108Y008468*
X023121Y008472*
X023134Y008477*
X023147Y008483*
X023160Y008489*
X023171Y008497*
X023183Y008505*
X023193Y008514*
X023203Y008524*
X023213Y008534*
X023221Y008545*
X023229Y008557*
X023236Y008569*
X023242Y008581*
X023247Y008594*
X023252Y008607*
X023255Y008621*
X023258Y008635*
X023259Y008649*
X023260Y008662*
X001900Y023802D02*
D01*
X001899Y023816*
X001898Y023830*
X001895Y023844*
X001892Y023858*
X001887Y023871*
X001882Y023884*
X001876Y023896*
X001869Y023908*
X001861Y023920*
X001853Y023931*
X001843Y023941*
X001833Y023951*
X001823Y023960*
X001811Y023968*
X001800Y023976*
X001787Y023982*
X001774Y023988*
X001761Y023993*
X001748Y023997*
X001734Y023999*
X001720Y024001*
X001706Y024002*
X001693*
X001679Y024001*
X001665Y023999*
X001651Y023997*
X001638Y023993*
X001625Y023988*
X001612Y023982*
X001599Y023976*
X001588Y023968*
X001576Y023960*
X001566Y023951*
X001556Y023941*
X001546Y023931*
X001538Y023920*
X001530Y023908*
X001523Y023896*
X001517Y023884*
X001512Y023871*
X001507Y023858*
X001504Y023844*
X001501Y023830*
X001500Y023816*
X001500Y023802*
X001500Y023789*
X001501Y023775*
X001504Y023761*
X001507Y023747*
X001512Y023734*
X001517Y023721*
X001523Y023709*
X001530Y023697*
X001538Y023685*
X001546Y023674*
X001556Y023664*
X001566Y023654*
X001576Y023645*
X001588Y023637*
X001600Y023629*
X001612Y023623*
X001625Y023617*
X001638Y023612*
X001651Y023608*
X001665Y023606*
X001679Y023604*
X001693Y023603*
X001706*
X001720Y023604*
X001734Y023606*
X001748Y023608*
X001761Y023612*
X001774Y023617*
X001787Y023623*
X001800Y023629*
X001811Y023637*
X001823Y023645*
X001833Y023654*
X001843Y023664*
X001853Y023674*
X001861Y023685*
X001869Y023697*
X001876Y023709*
X001882Y023721*
X001887Y023734*
X001892Y023747*
X001895Y023761*
X001898Y023775*
X001899Y023789*
X001900Y023802*
Y024802D02*
D01*
X001899Y024816*
X001898Y024830*
X001895Y024844*
X001892Y024858*
X001887Y024871*
X001882Y024884*
X001876Y024896*
X001869Y024908*
X001861Y024920*
X001853Y024931*
X001843Y024941*
X001833Y024951*
X001823Y024960*
X001811Y024968*
X001800Y024976*
X001787Y024982*
X001774Y024988*
X001761Y024993*
X001748Y024997*
X001734Y024999*
X001720Y025001*
X001706Y025002*
X001693*
X001679Y025001*
X001665Y024999*
X001651Y024997*
X001638Y024993*
X001625Y024988*
X001612Y024982*
X001599Y024976*
X001588Y024968*
X001576Y024960*
X001566Y024951*
X001556Y024941*
X001546Y024931*
X001538Y024920*
X001530Y024908*
X001523Y024896*
X001517Y024884*
X001512Y024871*
X001507Y024858*
X001504Y024844*
X001501Y024830*
X001500Y024816*
X001500Y024802*
X001500Y024789*
X001501Y024775*
X001504Y024761*
X001507Y024747*
X001512Y024734*
X001517Y024721*
X001523Y024709*
X001530Y024697*
X001538Y024685*
X001546Y024674*
X001556Y024664*
X001566Y024654*
X001576Y024645*
X001588Y024637*
X001600Y024629*
X001612Y024623*
X001625Y024617*
X001638Y024612*
X001651Y024608*
X001665Y024606*
X001679Y024604*
X001693Y024603*
X001706*
X001720Y024604*
X001734Y024606*
X001748Y024608*
X001761Y024612*
X001774Y024617*
X001787Y024623*
X001800Y024629*
X001811Y024637*
X001823Y024645*
X001833Y024654*
X001843Y024664*
X001853Y024674*
X001861Y024685*
X001869Y024697*
X001876Y024709*
X001882Y024721*
X001887Y024734*
X001892Y024747*
X001895Y024761*
X001898Y024775*
X001899Y024789*
X001900Y024802*
X002900Y023802D02*
D01*
X002899Y023816*
X002898Y023830*
X002895Y023844*
X002892Y023858*
X002887Y023871*
X002882Y023884*
X002876Y023896*
X002869Y023908*
X002861Y023920*
X002853Y023931*
X002843Y023941*
X002833Y023951*
X002823Y023960*
X002811Y023968*
X002800Y023976*
X002787Y023982*
X002774Y023988*
X002761Y023993*
X002748Y023997*
X002734Y023999*
X002720Y024001*
X002706Y024002*
X002693*
X002679Y024001*
X002665Y023999*
X002651Y023997*
X002638Y023993*
X002625Y023988*
X002612Y023982*
X002600Y023976*
X002588Y023968*
X002576Y023960*
X002566Y023951*
X002556Y023941*
X002546Y023931*
X002538Y023920*
X002530Y023908*
X002523Y023896*
X002517Y023884*
X002512Y023871*
X002507Y023858*
X002504Y023844*
X002501Y023830*
X002500Y023816*
X002500Y023802*
X002500Y023789*
X002501Y023775*
X002504Y023761*
X002507Y023747*
X002512Y023734*
X002517Y023721*
X002523Y023709*
X002530Y023697*
X002538Y023685*
X002546Y023674*
X002556Y023664*
X002566Y023654*
X002576Y023645*
X002588Y023637*
X002600Y023629*
X002612Y023623*
X002625Y023617*
X002638Y023612*
X002651Y023608*
X002665Y023606*
X002679Y023604*
X002693Y023603*
X002706*
X002720Y023604*
X002734Y023606*
X002748Y023608*
X002761Y023612*
X002774Y023617*
X002787Y023623*
X002800Y023629*
X002811Y023637*
X002823Y023645*
X002833Y023654*
X002843Y023664*
X002853Y023674*
X002861Y023685*
X002869Y023697*
X002876Y023709*
X002882Y023721*
X002887Y023734*
X002892Y023747*
X002895Y023761*
X002898Y023775*
X002899Y023789*
X002900Y023802*
Y024802D02*
D01*
X002899Y024816*
X002898Y024830*
X002895Y024844*
X002892Y024858*
X002887Y024871*
X002882Y024884*
X002876Y024896*
X002869Y024908*
X002861Y024920*
X002853Y024931*
X002843Y024941*
X002833Y024951*
X002823Y024960*
X002811Y024968*
X002800Y024976*
X002787Y024982*
X002774Y024988*
X002761Y024993*
X002748Y024997*
X002734Y024999*
X002720Y025001*
X002706Y025002*
X002693*
X002679Y025001*
X002665Y024999*
X002651Y024997*
X002638Y024993*
X002625Y024988*
X002612Y024982*
X002600Y024976*
X002588Y024968*
X002576Y024960*
X002566Y024951*
X002556Y024941*
X002546Y024931*
X002538Y024920*
X002530Y024908*
X002523Y024896*
X002517Y024884*
X002512Y024871*
X002507Y024858*
X002504Y024844*
X002501Y024830*
X002500Y024816*
X002500Y024802*
X002500Y024789*
X002501Y024775*
X002504Y024761*
X002507Y024747*
X002512Y024734*
X002517Y024721*
X002523Y024709*
X002530Y024697*
X002538Y024685*
X002546Y024674*
X002556Y024664*
X002566Y024654*
X002576Y024645*
X002588Y024637*
X002600Y024629*
X002612Y024623*
X002625Y024617*
X002638Y024612*
X002651Y024608*
X002665Y024606*
X002679Y024604*
X002693Y024603*
X002706*
X002720Y024604*
X002734Y024606*
X002748Y024608*
X002761Y024612*
X002774Y024617*
X002787Y024623*
X002800Y024629*
X002811Y024637*
X002823Y024645*
X002833Y024654*
X002843Y024664*
X002853Y024674*
X002861Y024685*
X002869Y024697*
X002876Y024709*
X002882Y024721*
X002887Y024734*
X002892Y024747*
X002895Y024761*
X002898Y024775*
X002899Y024789*
X002900Y024802*
X003900Y023802D02*
D01*
X003899Y023816*
X003898Y023830*
X003895Y023844*
X003892Y023858*
X003887Y023871*
X003882Y023884*
X003876Y023896*
X003869Y023908*
X003861Y023920*
X003853Y023931*
X003843Y023941*
X003833Y023951*
X003823Y023960*
X003811Y023968*
X003800Y023976*
X003787Y023982*
X003774Y023988*
X003761Y023993*
X003748Y023997*
X003734Y023999*
X003720Y024001*
X003706Y024002*
X003693*
X003679Y024001*
X003665Y023999*
X003651Y023997*
X003638Y023993*
X003625Y023988*
X003612Y023982*
X003600Y023976*
X003588Y023968*
X003576Y023960*
X003566Y023951*
X003556Y023941*
X003546Y023931*
X003538Y023920*
X003530Y023908*
X003523Y023896*
X003517Y023884*
X003512Y023871*
X003507Y023858*
X003504Y023844*
X003501Y023830*
X003500Y023816*
X003500Y023802*
X003500Y023789*
X003501Y023775*
X003504Y023761*
X003507Y023747*
X003512Y023734*
X003517Y023721*
X003523Y023709*
X003530Y023697*
X003538Y023685*
X003546Y023674*
X003556Y023664*
X003566Y023654*
X003576Y023645*
X003588Y023637*
X003600Y023629*
X003612Y023623*
X003625Y023617*
X003638Y023612*
X003651Y023608*
X003665Y023606*
X003679Y023604*
X003693Y023603*
X003706*
X003720Y023604*
X003734Y023606*
X003748Y023608*
X003761Y023612*
X003774Y023617*
X003787Y023623*
X003800Y023629*
X003811Y023637*
X003823Y023645*
X003833Y023654*
X003843Y023664*
X003853Y023674*
X003861Y023685*
X003869Y023697*
X003876Y023709*
X003882Y023721*
X003887Y023734*
X003892Y023747*
X003895Y023761*
X003898Y023775*
X003899Y023789*
X003900Y023802*
Y024802D02*
D01*
X003899Y024816*
X003898Y024830*
X003895Y024844*
X003892Y024858*
X003887Y024871*
X003882Y024884*
X003876Y024896*
X003869Y024908*
X003861Y024920*
X003853Y024931*
X003843Y024941*
X003833Y024951*
X003823Y024960*
X003811Y024968*
X003800Y024976*
X003787Y024982*
X003774Y024988*
X003761Y024993*
X003748Y024997*
X003734Y024999*
X003720Y025001*
X003706Y025002*
X003693*
X003679Y025001*
X003665Y024999*
X003651Y024997*
X003638Y024993*
X003625Y024988*
X003612Y024982*
X003600Y024976*
X003588Y024968*
X003576Y024960*
X003566Y024951*
X003556Y024941*
X003546Y024931*
X003538Y024920*
X003530Y024908*
X003523Y024896*
X003517Y024884*
X003512Y024871*
X003507Y024858*
X003504Y024844*
X003501Y024830*
X003500Y024816*
X003500Y024802*
X003500Y024789*
X003501Y024775*
X003504Y024761*
X003507Y024747*
X003512Y024734*
X003517Y024721*
X003523Y024709*
X003530Y024697*
X003538Y024685*
X003546Y024674*
X003556Y024664*
X003566Y024654*
X003576Y024645*
X003588Y024637*
X003600Y024629*
X003612Y024623*
X003625Y024617*
X003638Y024612*
X003651Y024608*
X003665Y024606*
X003679Y024604*
X003693Y024603*
X003706*
X003720Y024604*
X003734Y024606*
X003748Y024608*
X003761Y024612*
X003774Y024617*
X003787Y024623*
X003800Y024629*
X003811Y024637*
X003823Y024645*
X003833Y024654*
X003843Y024664*
X003853Y024674*
X003861Y024685*
X003869Y024697*
X003876Y024709*
X003882Y024721*
X003887Y024734*
X003892Y024747*
X003895Y024761*
X003898Y024775*
X003899Y024789*
X003900Y024802*
X009040D02*
D01*
X009040Y024816*
X009038Y024830*
X009036Y024844*
X009032Y024858*
X009028Y024871*
X009023Y024884*
X009017Y024896*
X009010Y024908*
X009002Y024920*
X008993Y024931*
X008984Y024941*
X008974Y024951*
X008963Y024960*
X008952Y024968*
X008940Y024976*
X008928Y024982*
X008915Y024988*
X008902Y024993*
X008889Y024997*
X008875Y024999*
X008861Y025001*
X008847Y025002*
X008833*
X008819Y025001*
X008805Y024999*
X008792Y024997*
X008778Y024993*
X008765Y024988*
X008753Y024982*
X008740Y024976*
X008728Y024968*
X008717Y024960*
X008706Y024951*
X008696Y024941*
X008687Y024931*
X008678Y024920*
X008671Y024908*
X008664Y024896*
X008657Y024884*
X008652Y024871*
X008648Y024858*
X008645Y024844*
X008642Y024830*
X008641Y024816*
X008640Y024802*
X008641Y024789*
X008642Y024775*
X008645Y024761*
X008648Y024747*
X008652Y024734*
X008657Y024721*
X008664Y024709*
X008671Y024697*
X008678Y024685*
X008687Y024674*
X008696Y024664*
X008706Y024654*
X008717Y024645*
X008728Y024637*
X008740Y024629*
X008753Y024623*
X008765Y024617*
X008778Y024612*
X008792Y024608*
X008805Y024606*
X008819Y024604*
X008833Y024603*
X008847*
X008861Y024604*
X008875Y024606*
X008889Y024608*
X008902Y024612*
X008915Y024617*
X008928Y024623*
X008940Y024629*
X008952Y024637*
X008963Y024645*
X008974Y024654*
X008984Y024664*
X008993Y024674*
X009002Y024685*
X009010Y024697*
X009017Y024709*
X009023Y024721*
X009028Y024734*
X009032Y024747*
X009036Y024761*
X009038Y024775*
X009040Y024789*
X009040Y024802*
Y023802D02*
D01*
X009040Y023816*
X009038Y023830*
X009036Y023844*
X009032Y023858*
X009028Y023871*
X009023Y023884*
X009017Y023896*
X009010Y023908*
X009002Y023920*
X008993Y023931*
X008984Y023941*
X008974Y023951*
X008963Y023960*
X008952Y023968*
X008940Y023976*
X008928Y023982*
X008915Y023988*
X008902Y023993*
X008889Y023997*
X008875Y023999*
X008861Y024001*
X008847Y024002*
X008833*
X008819Y024001*
X008805Y023999*
X008792Y023997*
X008778Y023993*
X008765Y023988*
X008753Y023982*
X008740Y023976*
X008728Y023968*
X008717Y023960*
X008706Y023951*
X008696Y023941*
X008687Y023931*
X008678Y023920*
X008671Y023908*
X008664Y023896*
X008657Y023884*
X008652Y023871*
X008648Y023858*
X008645Y023844*
X008642Y023830*
X008641Y023816*
X008640Y023802*
X008641Y023789*
X008642Y023775*
X008645Y023761*
X008648Y023747*
X008652Y023734*
X008657Y023721*
X008664Y023709*
X008671Y023697*
X008678Y023685*
X008687Y023674*
X008696Y023664*
X008706Y023654*
X008717Y023645*
X008728Y023637*
X008740Y023629*
X008753Y023623*
X008765Y023617*
X008778Y023612*
X008792Y023608*
X008805Y023606*
X008819Y023604*
X008833Y023603*
X008847*
X008861Y023604*
X008875Y023606*
X008889Y023608*
X008902Y023612*
X008915Y023617*
X008928Y023623*
X008940Y023629*
X008952Y023637*
X008963Y023645*
X008974Y023654*
X008984Y023664*
X008993Y023674*
X009002Y023685*
X009010Y023697*
X009017Y023709*
X009023Y023721*
X009028Y023734*
X009032Y023747*
X009036Y023761*
X009038Y023775*
X009040Y023789*
X009040Y023802*
X008040Y024802D02*
D01*
X008040Y024816*
X008038Y024830*
X008036Y024844*
X008032Y024858*
X008028Y024871*
X008023Y024884*
X008017Y024896*
X008010Y024908*
X008002Y024920*
X007993Y024931*
X007984Y024941*
X007974Y024951*
X007963Y024960*
X007952Y024968*
X007940Y024976*
X007928Y024982*
X007915Y024988*
X007902Y024993*
X007889Y024997*
X007875Y024999*
X007861Y025001*
X007847Y025002*
X007833*
X007819Y025001*
X007805Y024999*
X007792Y024997*
X007778Y024993*
X007765Y024988*
X007753Y024982*
X007740Y024976*
X007728Y024968*
X007717Y024960*
X007706Y024951*
X007696Y024941*
X007687Y024931*
X007678Y024920*
X007671Y024908*
X007664Y024896*
X007657Y024884*
X007652Y024871*
X007648Y024858*
X007645Y024844*
X007642Y024830*
X007641Y024816*
X007640Y024802*
X007641Y024789*
X007642Y024775*
X007645Y024761*
X007648Y024747*
X007652Y024734*
X007657Y024721*
X007664Y024709*
X007671Y024697*
X007678Y024685*
X007687Y024674*
X007696Y024664*
X007706Y024654*
X007717Y024645*
X007728Y024637*
X007740Y024629*
X007753Y024623*
X007765Y024617*
X007778Y024612*
X007792Y024608*
X007805Y024606*
X007819Y024604*
X007833Y024603*
X007847*
X007861Y024604*
X007875Y024606*
X007889Y024608*
X007902Y024612*
X007915Y024617*
X007928Y024623*
X007940Y024629*
X007952Y024637*
X007963Y024645*
X007974Y024654*
X007984Y024664*
X007993Y024674*
X008002Y024685*
X008010Y024697*
X008017Y024709*
X008023Y024721*
X008028Y024734*
X008032Y024747*
X008036Y024761*
X008038Y024775*
X008040Y024789*
X008040Y024802*
Y023802D02*
D01*
X008040Y023816*
X008038Y023830*
X008036Y023844*
X008032Y023858*
X008028Y023871*
X008023Y023884*
X008017Y023896*
X008010Y023908*
X008002Y023920*
X007993Y023931*
X007984Y023941*
X007974Y023951*
X007963Y023960*
X007952Y023968*
X007940Y023976*
X007928Y023982*
X007915Y023988*
X007902Y023993*
X007889Y023997*
X007875Y023999*
X007861Y024001*
X007847Y024002*
X007833*
X007819Y024001*
X007805Y023999*
X007792Y023997*
X007778Y023993*
X007765Y023988*
X007753Y023982*
X007740Y023976*
X007728Y023968*
X007717Y023960*
X007706Y023951*
X007696Y023941*
X007687Y023931*
X007678Y023920*
X007671Y023908*
X007664Y023896*
X007657Y023884*
X007652Y023871*
X007648Y023858*
X007645Y023844*
X007642Y023830*
X007641Y023816*
X007640Y023802*
X007641Y023789*
X007642Y023775*
X007645Y023761*
X007648Y023747*
X007652Y023734*
X007657Y023721*
X007664Y023709*
X007671Y023697*
X007678Y023685*
X007687Y023674*
X007696Y023664*
X007706Y023654*
X007717Y023645*
X007728Y023637*
X007740Y023629*
X007753Y023623*
X007765Y023617*
X007778Y023612*
X007792Y023608*
X007805Y023606*
X007819Y023604*
X007833Y023603*
X007847*
X007861Y023604*
X007875Y023606*
X007889Y023608*
X007902Y023612*
X007915Y023617*
X007928Y023623*
X007940Y023629*
X007952Y023637*
X007963Y023645*
X007974Y023654*
X007984Y023664*
X007993Y023674*
X008002Y023685*
X008010Y023697*
X008017Y023709*
X008023Y023721*
X008028Y023734*
X008032Y023747*
X008036Y023761*
X008038Y023775*
X008040Y023789*
X008040Y023802*
X007040Y024802D02*
D01*
X007040Y024816*
X007038Y024830*
X007036Y024844*
X007032Y024858*
X007028Y024871*
X007023Y024884*
X007017Y024896*
X007010Y024908*
X007002Y024920*
X006993Y024931*
X006984Y024941*
X006974Y024951*
X006963Y024960*
X006952Y024968*
X006940Y024976*
X006928Y024982*
X006915Y024988*
X006902Y024993*
X006889Y024997*
X006875Y024999*
X006861Y025001*
X006847Y025002*
X006833*
X006819Y025001*
X006805Y024999*
X006792Y024997*
X006778Y024993*
X006765Y024988*
X006753Y024982*
X006740Y024976*
X006728Y024968*
X006717Y024960*
X006706Y024951*
X006696Y024941*
X006687Y024931*
X006678Y024920*
X006671Y024908*
X006664Y024896*
X006657Y024884*
X006652Y024871*
X006648Y024858*
X006645Y024844*
X006642Y024830*
X006641Y024816*
X006640Y024802*
X006641Y024789*
X006642Y024775*
X006645Y024761*
X006648Y024747*
X006652Y024734*
X006657Y024721*
X006664Y024709*
X006671Y024697*
X006678Y024685*
X006687Y024674*
X006696Y024664*
X006706Y024654*
X006717Y024645*
X006728Y024637*
X006740Y024629*
X006753Y024623*
X006765Y024617*
X006778Y024612*
X006792Y024608*
X006805Y024606*
X006819Y024604*
X006833Y024603*
X006847*
X006861Y024604*
X006875Y024606*
X006889Y024608*
X006902Y024612*
X006915Y024617*
X006928Y024623*
X006940Y024629*
X006952Y024637*
X006963Y024645*
X006974Y024654*
X006984Y024664*
X006993Y024674*
X007002Y024685*
X007010Y024697*
X007017Y024709*
X007023Y024721*
X007028Y024734*
X007032Y024747*
X007036Y024761*
X007038Y024775*
X007040Y024789*
X007040Y024802*
Y023802D02*
D01*
X007040Y023816*
X007038Y023830*
X007036Y023844*
X007032Y023858*
X007028Y023871*
X007023Y023884*
X007017Y023896*
X007010Y023908*
X007002Y023920*
X006993Y023931*
X006984Y023941*
X006974Y023951*
X006963Y023960*
X006952Y023968*
X006940Y023976*
X006928Y023982*
X006915Y023988*
X006902Y023993*
X006889Y023997*
X006875Y023999*
X006861Y024001*
X006847Y024002*
X006833*
X006819Y024001*
X006805Y023999*
X006792Y023997*
X006778Y023993*
X006765Y023988*
X006753Y023982*
X006740Y023976*
X006728Y023968*
X006717Y023960*
X006706Y023951*
X006696Y023941*
X006687Y023931*
X006678Y023920*
X006671Y023908*
X006664Y023896*
X006657Y023884*
X006652Y023871*
X006648Y023858*
X006645Y023844*
X006642Y023830*
X006641Y023816*
X006640Y023802*
X006641Y023789*
X006642Y023775*
X006645Y023761*
X006648Y023747*
X006652Y023734*
X006657Y023721*
X006664Y023709*
X006671Y023697*
X006678Y023685*
X006687Y023674*
X006696Y023664*
X006706Y023654*
X006717Y023645*
X006728Y023637*
X006740Y023629*
X006753Y023623*
X006765Y023617*
X006778Y023612*
X006792Y023608*
X006805Y023606*
X006819Y023604*
X006833Y023603*
X006847*
X006861Y023604*
X006875Y023606*
X006889Y023608*
X006902Y023612*
X006915Y023617*
X006928Y023623*
X006940Y023629*
X006952Y023637*
X006963Y023645*
X006974Y023654*
X006984Y023664*
X006993Y023674*
X007002Y023685*
X007010Y023697*
X007017Y023709*
X007023Y023721*
X007028Y023734*
X007032Y023747*
X007036Y023761*
X007038Y023775*
X007040Y023789*
X007040Y023802*
X011400D02*
D01*
X011399Y023816*
X011398Y023830*
X011395Y023844*
X011392Y023858*
X011387Y023871*
X011382Y023884*
X011376Y023896*
X011369Y023908*
X011361Y023920*
X011353Y023931*
X011343Y023941*
X011333Y023951*
X011323Y023960*
X011311Y023968*
X011300Y023976*
X011287Y023982*
X011274Y023988*
X011261Y023993*
X011248Y023997*
X011234Y023999*
X011220Y024001*
X011206Y024002*
X011193*
X011179Y024001*
X011165Y023999*
X011151Y023997*
X011138Y023993*
X011125Y023988*
X011112Y023982*
X011100Y023976*
X011088Y023968*
X011076Y023960*
X011066Y023951*
X011056Y023941*
X011046Y023931*
X011038Y023920*
X011030Y023908*
X011023Y023896*
X011017Y023884*
X011012Y023871*
X011007Y023858*
X011004Y023844*
X011001Y023830*
X011000Y023816*
X011000Y023802*
X011000Y023789*
X011001Y023775*
X011004Y023761*
X011007Y023747*
X011012Y023734*
X011017Y023721*
X011023Y023709*
X011030Y023697*
X011038Y023685*
X011046Y023674*
X011056Y023664*
X011066Y023654*
X011076Y023645*
X011088Y023637*
X011100Y023629*
X011112Y023623*
X011125Y023617*
X011138Y023612*
X011151Y023608*
X011165Y023606*
X011179Y023604*
X011193Y023603*
X011206*
X011220Y023604*
X011234Y023606*
X011248Y023608*
X011261Y023612*
X011274Y023617*
X011287Y023623*
X011300Y023629*
X011311Y023637*
X011323Y023645*
X011333Y023654*
X011343Y023664*
X011353Y023674*
X011361Y023685*
X011369Y023697*
X011376Y023709*
X011382Y023721*
X011387Y023734*
X011392Y023747*
X011395Y023761*
X011398Y023775*
X011399Y023789*
X011400Y023802*
Y024802D02*
D01*
X011399Y024816*
X011398Y024830*
X011395Y024844*
X011392Y024858*
X011387Y024871*
X011382Y024884*
X011376Y024896*
X011369Y024908*
X011361Y024920*
X011353Y024931*
X011343Y024941*
X011333Y024951*
X011323Y024960*
X011311Y024968*
X011300Y024976*
X011287Y024982*
X011274Y024988*
X011261Y024993*
X011248Y024997*
X011234Y024999*
X011220Y025001*
X011206Y025002*
X011193*
X011179Y025001*
X011165Y024999*
X011151Y024997*
X011138Y024993*
X011125Y024988*
X011112Y024982*
X011100Y024976*
X011088Y024968*
X011076Y024960*
X011066Y024951*
X011056Y024941*
X011046Y024931*
X011038Y024920*
X011030Y024908*
X011023Y024896*
X011017Y024884*
X011012Y024871*
X011007Y024858*
X011004Y024844*
X011001Y024830*
X011000Y024816*
X011000Y024802*
X011000Y024789*
X011001Y024775*
X011004Y024761*
X011007Y024747*
X011012Y024734*
X011017Y024721*
X011023Y024709*
X011030Y024697*
X011038Y024685*
X011046Y024674*
X011056Y024664*
X011066Y024654*
X011076Y024645*
X011088Y024637*
X011100Y024629*
X011112Y024623*
X011125Y024617*
X011138Y024612*
X011151Y024608*
X011165Y024606*
X011179Y024604*
X011193Y024603*
X011206*
X011220Y024604*
X011234Y024606*
X011248Y024608*
X011261Y024612*
X011274Y024617*
X011287Y024623*
X011300Y024629*
X011311Y024637*
X011323Y024645*
X011333Y024654*
X011343Y024664*
X011353Y024674*
X011361Y024685*
X011369Y024697*
X011376Y024709*
X011382Y024721*
X011387Y024734*
X011392Y024747*
X011395Y024761*
X011398Y024775*
X011399Y024789*
X011400Y024802*
X012400Y023802D02*
D01*
X012399Y023816*
X012398Y023830*
X012395Y023844*
X012392Y023858*
X012387Y023871*
X012382Y023884*
X012376Y023896*
X012369Y023908*
X012361Y023920*
X012353Y023931*
X012343Y023941*
X012333Y023951*
X012323Y023960*
X012311Y023968*
X012300Y023976*
X012287Y023982*
X012274Y023988*
X012261Y023993*
X012248Y023997*
X012234Y023999*
X012220Y024001*
X012206Y024002*
X012193*
X012179Y024001*
X012165Y023999*
X012151Y023997*
X012138Y023993*
X012125Y023988*
X012112Y023982*
X012100Y023976*
X012088Y023968*
X012076Y023960*
X012066Y023951*
X012056Y023941*
X012046Y023931*
X012038Y023920*
X012030Y023908*
X012023Y023896*
X012017Y023884*
X012012Y023871*
X012007Y023858*
X012004Y023844*
X012001Y023830*
X012000Y023816*
X012000Y023802*
X012000Y023789*
X012001Y023775*
X012004Y023761*
X012007Y023747*
X012012Y023734*
X012017Y023721*
X012023Y023709*
X012030Y023697*
X012038Y023685*
X012046Y023674*
X012056Y023664*
X012066Y023654*
X012076Y023645*
X012088Y023637*
X012100Y023629*
X012112Y023623*
X012125Y023617*
X012138Y023612*
X012151Y023608*
X012165Y023606*
X012179Y023604*
X012193Y023603*
X012206*
X012220Y023604*
X012234Y023606*
X012248Y023608*
X012261Y023612*
X012274Y023617*
X012287Y023623*
X012300Y023629*
X012311Y023637*
X012323Y023645*
X012333Y023654*
X012343Y023664*
X012353Y023674*
X012361Y023685*
X012369Y023697*
X012376Y023709*
X012382Y023721*
X012387Y023734*
X012392Y023747*
X012395Y023761*
X012398Y023775*
X012399Y023789*
X012400Y023802*
Y024802D02*
D01*
X012399Y024816*
X012398Y024830*
X012395Y024844*
X012392Y024858*
X012387Y024871*
X012382Y024884*
X012376Y024896*
X012369Y024908*
X012361Y024920*
X012353Y024931*
X012343Y024941*
X012333Y024951*
X012323Y024960*
X012311Y024968*
X012300Y024976*
X012287Y024982*
X012274Y024988*
X012261Y024993*
X012248Y024997*
X012234Y024999*
X012220Y025001*
X012206Y025002*
X012193*
X012179Y025001*
X012165Y024999*
X012151Y024997*
X012138Y024993*
X012125Y024988*
X012112Y024982*
X012100Y024976*
X012088Y024968*
X012076Y024960*
X012066Y024951*
X012056Y024941*
X012046Y024931*
X012038Y024920*
X012030Y024908*
X012023Y024896*
X012017Y024884*
X012012Y024871*
X012007Y024858*
X012004Y024844*
X012001Y024830*
X012000Y024816*
X012000Y024802*
X012000Y024789*
X012001Y024775*
X012004Y024761*
X012007Y024747*
X012012Y024734*
X012017Y024721*
X012023Y024709*
X012030Y024697*
X012038Y024685*
X012046Y024674*
X012056Y024664*
X012066Y024654*
X012076Y024645*
X012088Y024637*
X012100Y024629*
X012112Y024623*
X012125Y024617*
X012138Y024612*
X012151Y024608*
X012165Y024606*
X012179Y024604*
X012193Y024603*
X012206*
X012220Y024604*
X012234Y024606*
X012248Y024608*
X012261Y024612*
X012274Y024617*
X012287Y024623*
X012300Y024629*
X012311Y024637*
X012323Y024645*
X012333Y024654*
X012343Y024664*
X012353Y024674*
X012361Y024685*
X012369Y024697*
X012376Y024709*
X012382Y024721*
X012387Y024734*
X012392Y024747*
X012395Y024761*
X012398Y024775*
X012399Y024789*
X012400Y024802*
X013400Y023802D02*
D01*
X013399Y023816*
X013398Y023830*
X013395Y023844*
X013392Y023858*
X013387Y023871*
X013382Y023884*
X013376Y023896*
X013369Y023908*
X013361Y023920*
X013353Y023931*
X013343Y023941*
X013333Y023951*
X013323Y023960*
X013311Y023968*
X013300Y023976*
X013287Y023982*
X013274Y023988*
X013261Y023993*
X013248Y023997*
X013234Y023999*
X013220Y024001*
X013206Y024002*
X013193*
X013179Y024001*
X013165Y023999*
X013151Y023997*
X013138Y023993*
X013125Y023988*
X013112Y023982*
X013100Y023976*
X013088Y023968*
X013076Y023960*
X013066Y023951*
X013056Y023941*
X013046Y023931*
X013038Y023920*
X013030Y023908*
X013023Y023896*
X013017Y023884*
X013012Y023871*
X013007Y023858*
X013004Y023844*
X013001Y023830*
X013000Y023816*
X013000Y023802*
X013000Y023789*
X013001Y023775*
X013004Y023761*
X013007Y023747*
X013012Y023734*
X013017Y023721*
X013023Y023709*
X013030Y023697*
X013038Y023685*
X013046Y023674*
X013056Y023664*
X013066Y023654*
X013076Y023645*
X013088Y023637*
X013100Y023629*
X013112Y023623*
X013125Y023617*
X013138Y023612*
X013151Y023608*
X013165Y023606*
X013179Y023604*
X013193Y023603*
X013206*
X013220Y023604*
X013234Y023606*
X013248Y023608*
X013261Y023612*
X013274Y023617*
X013287Y023623*
X013300Y023629*
X013311Y023637*
X013323Y023645*
X013333Y023654*
X013343Y023664*
X013353Y023674*
X013361Y023685*
X013369Y023697*
X013376Y023709*
X013382Y023721*
X013387Y023734*
X013392Y023747*
X013395Y023761*
X013398Y023775*
X013399Y023789*
X013400Y023802*
Y024802D02*
D01*
X013399Y024816*
X013398Y024830*
X013395Y024844*
X013392Y024858*
X013387Y024871*
X013382Y024884*
X013376Y024896*
X013369Y024908*
X013361Y024920*
X013353Y024931*
X013343Y024941*
X013333Y024951*
X013323Y024960*
X013311Y024968*
X013300Y024976*
X013287Y024982*
X013274Y024988*
X013261Y024993*
X013248Y024997*
X013234Y024999*
X013220Y025001*
X013206Y025002*
X013193*
X013179Y025001*
X013165Y024999*
X013151Y024997*
X013138Y024993*
X013125Y024988*
X013112Y024982*
X013100Y024976*
X013088Y024968*
X013076Y024960*
X013066Y024951*
X013056Y024941*
X013046Y024931*
X013038Y024920*
X013030Y024908*
X013023Y024896*
X013017Y024884*
X013012Y024871*
X013007Y024858*
X013004Y024844*
X013001Y024830*
X013000Y024816*
X013000Y024802*
X013000Y024789*
X013001Y024775*
X013004Y024761*
X013007Y024747*
X013012Y024734*
X013017Y024721*
X013023Y024709*
X013030Y024697*
X013038Y024685*
X013046Y024674*
X013056Y024664*
X013066Y024654*
X013076Y024645*
X013088Y024637*
X013100Y024629*
X013112Y024623*
X013125Y024617*
X013138Y024612*
X013151Y024608*
X013165Y024606*
X013179Y024604*
X013193Y024603*
X013206*
X013220Y024604*
X013234Y024606*
X013248Y024608*
X013261Y024612*
X013274Y024617*
X013287Y024623*
X013300Y024629*
X013311Y024637*
X013323Y024645*
X013333Y024654*
X013343Y024664*
X013353Y024674*
X013361Y024685*
X013369Y024697*
X013376Y024709*
X013382Y024721*
X013387Y024734*
X013392Y024747*
X013395Y024761*
X013398Y024775*
X013399Y024789*
X013400Y024802*
X014400Y023802D02*
D01*
X014399Y023816*
X014398Y023830*
X014395Y023844*
X014392Y023858*
X014387Y023871*
X014382Y023884*
X014376Y023896*
X014369Y023908*
X014361Y023920*
X014353Y023931*
X014343Y023941*
X014333Y023951*
X014323Y023960*
X014311Y023968*
X014300Y023976*
X014287Y023982*
X014274Y023988*
X014261Y023993*
X014248Y023997*
X014234Y023999*
X014220Y024001*
X014206Y024002*
X014193*
X014179Y024001*
X014165Y023999*
X014151Y023997*
X014138Y023993*
X014125Y023988*
X014112Y023982*
X014100Y023976*
X014088Y023968*
X014076Y023960*
X014066Y023951*
X014056Y023941*
X014046Y023931*
X014038Y023920*
X014030Y023908*
X014023Y023896*
X014017Y023884*
X014012Y023871*
X014007Y023858*
X014004Y023844*
X014001Y023830*
X014000Y023816*
X014000Y023802*
X014000Y023789*
X014001Y023775*
X014004Y023761*
X014007Y023747*
X014012Y023734*
X014017Y023721*
X014023Y023709*
X014030Y023697*
X014038Y023685*
X014046Y023674*
X014056Y023664*
X014066Y023654*
X014076Y023645*
X014088Y023637*
X014100Y023629*
X014112Y023623*
X014125Y023617*
X014138Y023612*
X014151Y023608*
X014165Y023606*
X014179Y023604*
X014193Y023603*
X014206*
X014220Y023604*
X014234Y023606*
X014248Y023608*
X014261Y023612*
X014274Y023617*
X014287Y023623*
X014300Y023629*
X014311Y023637*
X014323Y023645*
X014333Y023654*
X014343Y023664*
X014353Y023674*
X014361Y023685*
X014369Y023697*
X014376Y023709*
X014382Y023721*
X014387Y023734*
X014392Y023747*
X014395Y023761*
X014398Y023775*
X014399Y023789*
X014400Y023802*
Y024802D02*
D01*
X014399Y024816*
X014398Y024830*
X014395Y024844*
X014392Y024858*
X014387Y024871*
X014382Y024884*
X014376Y024896*
X014369Y024908*
X014361Y024920*
X014353Y024931*
X014343Y024941*
X014333Y024951*
X014323Y024960*
X014311Y024968*
X014300Y024976*
X014287Y024982*
X014274Y024988*
X014261Y024993*
X014248Y024997*
X014234Y024999*
X014220Y025001*
X014206Y025002*
X014193*
X014179Y025001*
X014165Y024999*
X014151Y024997*
X014138Y024993*
X014125Y024988*
X014112Y024982*
X014100Y024976*
X014088Y024968*
X014076Y024960*
X014066Y024951*
X014056Y024941*
X014046Y024931*
X014038Y024920*
X014030Y024908*
X014023Y024896*
X014017Y024884*
X014012Y024871*
X014007Y024858*
X014004Y024844*
X014001Y024830*
X014000Y024816*
X014000Y024802*
X014000Y024789*
X014001Y024775*
X014004Y024761*
X014007Y024747*
X014012Y024734*
X014017Y024721*
X014023Y024709*
X014030Y024697*
X014038Y024685*
X014046Y024674*
X014056Y024664*
X014066Y024654*
X014076Y024645*
X014088Y024637*
X014100Y024629*
X014112Y024623*
X014125Y024617*
X014138Y024612*
X014151Y024608*
X014165Y024606*
X014179Y024604*
X014193Y024603*
X014206*
X014220Y024604*
X014234Y024606*
X014248Y024608*
X014261Y024612*
X014274Y024617*
X014287Y024623*
X014300Y024629*
X014311Y024637*
X014323Y024645*
X014333Y024654*
X014343Y024664*
X014353Y024674*
X014361Y024685*
X014369Y024697*
X014376Y024709*
X014382Y024721*
X014387Y024734*
X014392Y024747*
X014395Y024761*
X014398Y024775*
X014399Y024789*
X014400Y024802*
X015400Y023802D02*
D01*
X015399Y023816*
X015398Y023830*
X015395Y023844*
X015392Y023858*
X015387Y023871*
X015382Y023884*
X015376Y023896*
X015369Y023908*
X015361Y023920*
X015353Y023931*
X015343Y023941*
X015333Y023951*
X015323Y023960*
X015311Y023968*
X015300Y023976*
X015287Y023982*
X015274Y023988*
X015261Y023993*
X015248Y023997*
X015234Y023999*
X015220Y024001*
X015206Y024002*
X015193*
X015179Y024001*
X015165Y023999*
X015151Y023997*
X015138Y023993*
X015125Y023988*
X015112Y023982*
X015100Y023976*
X015088Y023968*
X015076Y023960*
X015066Y023951*
X015056Y023941*
X015046Y023931*
X015038Y023920*
X015030Y023908*
X015023Y023896*
X015017Y023884*
X015012Y023871*
X015007Y023858*
X015004Y023844*
X015001Y023830*
X015000Y023816*
X015000Y023802*
X015000Y023789*
X015001Y023775*
X015004Y023761*
X015007Y023747*
X015012Y023734*
X015017Y023721*
X015023Y023709*
X015030Y023697*
X015038Y023685*
X015046Y023674*
X015056Y023664*
X015066Y023654*
X015076Y023645*
X015088Y023637*
X015100Y023629*
X015112Y023623*
X015125Y023617*
X015138Y023612*
X015151Y023608*
X015165Y023606*
X015179Y023604*
X015193Y023603*
X015206*
X015220Y023604*
X015234Y023606*
X015248Y023608*
X015261Y023612*
X015274Y023617*
X015287Y023623*
X015300Y023629*
X015311Y023637*
X015323Y023645*
X015333Y023654*
X015343Y023664*
X015353Y023674*
X015361Y023685*
X015369Y023697*
X015376Y023709*
X015382Y023721*
X015387Y023734*
X015392Y023747*
X015395Y023761*
X015398Y023775*
X015399Y023789*
X015400Y023802*
Y024802D02*
D01*
X015399Y024816*
X015398Y024830*
X015395Y024844*
X015392Y024858*
X015387Y024871*
X015382Y024884*
X015376Y024896*
X015369Y024908*
X015361Y024920*
X015353Y024931*
X015343Y024941*
X015333Y024951*
X015323Y024960*
X015311Y024968*
X015300Y024976*
X015287Y024982*
X015274Y024988*
X015261Y024993*
X015248Y024997*
X015234Y024999*
X015220Y025001*
X015206Y025002*
X015193*
X015179Y025001*
X015165Y024999*
X015151Y024997*
X015138Y024993*
X015125Y024988*
X015112Y024982*
X015100Y024976*
X015088Y024968*
X015076Y024960*
X015066Y024951*
X015056Y024941*
X015046Y024931*
X015038Y024920*
X015030Y024908*
X015023Y024896*
X015017Y024884*
X015012Y024871*
X015007Y024858*
X015004Y024844*
X015001Y024830*
X015000Y024816*
X015000Y024802*
X015000Y024789*
X015001Y024775*
X015004Y024761*
X015007Y024747*
X015012Y024734*
X015017Y024721*
X015023Y024709*
X015030Y024697*
X015038Y024685*
X015046Y024674*
X015056Y024664*
X015066Y024654*
X015076Y024645*
X015088Y024637*
X015100Y024629*
X015112Y024623*
X015125Y024617*
X015138Y024612*
X015151Y024608*
X015165Y024606*
X015179Y024604*
X015193Y024603*
X015206*
X015220Y024604*
X015234Y024606*
X015248Y024608*
X015261Y024612*
X015274Y024617*
X015287Y024623*
X015300Y024629*
X015311Y024637*
X015323Y024645*
X015333Y024654*
X015343Y024664*
X015353Y024674*
X015361Y024685*
X015369Y024697*
X015376Y024709*
X015382Y024721*
X015387Y024734*
X015392Y024747*
X015395Y024761*
X015398Y024775*
X015399Y024789*
X015400Y024802*
X019040Y023802D02*
D01*
X019039Y023816*
X019038Y023830*
X019035Y023844*
X019032Y023858*
X019027Y023871*
X019022Y023884*
X019016Y023896*
X019009Y023908*
X019001Y023920*
X018993Y023931*
X018983Y023941*
X018973Y023951*
X018963Y023960*
X018951Y023968*
X018940Y023976*
X018927Y023982*
X018914Y023988*
X018901Y023993*
X018888Y023997*
X018874Y023999*
X018860Y024001*
X018846Y024002*
X018833*
X018819Y024001*
X018805Y023999*
X018791Y023997*
X018778Y023993*
X018765Y023988*
X018752Y023982*
X018740Y023976*
X018728Y023968*
X018716Y023960*
X018706Y023951*
X018696Y023941*
X018686Y023931*
X018678Y023920*
X018670Y023908*
X018663Y023896*
X018657Y023884*
X018652Y023871*
X018647Y023858*
X018644Y023844*
X018641Y023830*
X018640Y023816*
X018640Y023802*
X018640Y023789*
X018641Y023775*
X018644Y023761*
X018647Y023747*
X018652Y023734*
X018657Y023721*
X018663Y023709*
X018670Y023697*
X018678Y023685*
X018686Y023674*
X018696Y023664*
X018706Y023654*
X018716Y023645*
X018728Y023637*
X018740Y023629*
X018752Y023623*
X018765Y023617*
X018778Y023612*
X018791Y023608*
X018805Y023606*
X018819Y023604*
X018833Y023603*
X018846*
X018860Y023604*
X018874Y023606*
X018888Y023608*
X018901Y023612*
X018914Y023617*
X018927Y023623*
X018940Y023629*
X018951Y023637*
X018963Y023645*
X018973Y023654*
X018983Y023664*
X018993Y023674*
X019001Y023685*
X019009Y023697*
X019016Y023709*
X019022Y023721*
X019027Y023734*
X019032Y023747*
X019035Y023761*
X019038Y023775*
X019039Y023789*
X019040Y023802*
Y024802D02*
D01*
X019039Y024816*
X019038Y024830*
X019035Y024844*
X019032Y024858*
X019027Y024871*
X019022Y024884*
X019016Y024896*
X019009Y024908*
X019001Y024920*
X018993Y024931*
X018983Y024941*
X018973Y024951*
X018963Y024960*
X018951Y024968*
X018940Y024976*
X018927Y024982*
X018914Y024988*
X018901Y024993*
X018888Y024997*
X018874Y024999*
X018860Y025001*
X018846Y025002*
X018833*
X018819Y025001*
X018805Y024999*
X018791Y024997*
X018778Y024993*
X018765Y024988*
X018752Y024982*
X018740Y024976*
X018728Y024968*
X018716Y024960*
X018706Y024951*
X018696Y024941*
X018686Y024931*
X018678Y024920*
X018670Y024908*
X018663Y024896*
X018657Y024884*
X018652Y024871*
X018647Y024858*
X018644Y024844*
X018641Y024830*
X018640Y024816*
X018640Y024802*
X018640Y024789*
X018641Y024775*
X018644Y024761*
X018647Y024747*
X018652Y024734*
X018657Y024721*
X018663Y024709*
X018670Y024697*
X018678Y024685*
X018686Y024674*
X018696Y024664*
X018706Y024654*
X018716Y024645*
X018728Y024637*
X018740Y024629*
X018752Y024623*
X018765Y024617*
X018778Y024612*
X018791Y024608*
X018805Y024606*
X018819Y024604*
X018833Y024603*
X018846*
X018860Y024604*
X018874Y024606*
X018888Y024608*
X018901Y024612*
X018914Y024617*
X018927Y024623*
X018940Y024629*
X018951Y024637*
X018963Y024645*
X018973Y024654*
X018983Y024664*
X018993Y024674*
X019001Y024685*
X019009Y024697*
X019016Y024709*
X019022Y024721*
X019027Y024734*
X019032Y024747*
X019035Y024761*
X019038Y024775*
X019039Y024789*
X019040Y024802*
X020040Y023802D02*
D01*
X020039Y023816*
X020038Y023830*
X020035Y023844*
X020032Y023858*
X020027Y023871*
X020022Y023884*
X020016Y023896*
X020009Y023908*
X020001Y023920*
X019993Y023931*
X019983Y023941*
X019973Y023951*
X019963Y023960*
X019951Y023968*
X019940Y023976*
X019927Y023982*
X019914Y023988*
X019901Y023993*
X019888Y023997*
X019874Y023999*
X019860Y024001*
X019846Y024002*
X019833*
X019819Y024001*
X019805Y023999*
X019791Y023997*
X019778Y023993*
X019765Y023988*
X019752Y023982*
X019740Y023976*
X019728Y023968*
X019716Y023960*
X019706Y023951*
X019696Y023941*
X019686Y023931*
X019678Y023920*
X019670Y023908*
X019663Y023896*
X019657Y023884*
X019652Y023871*
X019647Y023858*
X019644Y023844*
X019641Y023830*
X019640Y023816*
X019640Y023802*
X019640Y023789*
X019641Y023775*
X019644Y023761*
X019647Y023747*
X019652Y023734*
X019657Y023721*
X019663Y023709*
X019670Y023697*
X019678Y023685*
X019686Y023674*
X019696Y023664*
X019706Y023654*
X019716Y023645*
X019728Y023637*
X019740Y023629*
X019752Y023623*
X019765Y023617*
X019778Y023612*
X019791Y023608*
X019805Y023606*
X019819Y023604*
X019833Y023603*
X019846*
X019860Y023604*
X019874Y023606*
X019888Y023608*
X019901Y023612*
X019914Y023617*
X019927Y023623*
X019940Y023629*
X019951Y023637*
X019963Y023645*
X019973Y023654*
X019983Y023664*
X019993Y023674*
X020001Y023685*
X020009Y023697*
X020016Y023709*
X020022Y023721*
X020027Y023734*
X020032Y023747*
X020035Y023761*
X020038Y023775*
X020039Y023789*
X020040Y023802*
Y024802D02*
D01*
X020039Y024816*
X020038Y024830*
X020035Y024844*
X020032Y024858*
X020027Y024871*
X020022Y024884*
X020016Y024896*
X020009Y024908*
X020001Y024920*
X019993Y024931*
X019983Y024941*
X019973Y024951*
X019963Y024960*
X019951Y024968*
X019940Y024976*
X019927Y024982*
X019914Y024988*
X019901Y024993*
X019888Y024997*
X019874Y024999*
X019860Y025001*
X019846Y025002*
X019833*
X019819Y025001*
X019805Y024999*
X019791Y024997*
X019778Y024993*
X019765Y024988*
X019752Y024982*
X019740Y024976*
X019728Y024968*
X019716Y024960*
X019706Y024951*
X019696Y024941*
X019686Y024931*
X019678Y024920*
X019670Y024908*
X019663Y024896*
X019657Y024884*
X019652Y024871*
X019647Y024858*
X019644Y024844*
X019641Y024830*
X019640Y024816*
X019640Y024802*
X019640Y024789*
X019641Y024775*
X019644Y024761*
X019647Y024747*
X019652Y024734*
X019657Y024721*
X019663Y024709*
X019670Y024697*
X019678Y024685*
X019686Y024674*
X019696Y024664*
X019706Y024654*
X019716Y024645*
X019728Y024637*
X019740Y024629*
X019752Y024623*
X019765Y024617*
X019778Y024612*
X019791Y024608*
X019805Y024606*
X019819Y024604*
X019833Y024603*
X019846*
X019860Y024604*
X019874Y024606*
X019888Y024608*
X019901Y024612*
X019914Y024617*
X019927Y024623*
X019940Y024629*
X019951Y024637*
X019963Y024645*
X019973Y024654*
X019983Y024664*
X019993Y024674*
X020001Y024685*
X020009Y024697*
X020016Y024709*
X020022Y024721*
X020027Y024734*
X020032Y024747*
X020035Y024761*
X020038Y024775*
X020039Y024789*
X020040Y024802*
X023200Y023802D02*
D01*
X023199Y023816*
X023198Y023830*
X023195Y023844*
X023192Y023858*
X023187Y023871*
X023182Y023884*
X023176Y023896*
X023169Y023908*
X023161Y023920*
X023153Y023931*
X023143Y023941*
X023133Y023951*
X023123Y023960*
X023111Y023968*
X023100Y023976*
X023087Y023982*
X023074Y023988*
X023061Y023993*
X023048Y023997*
X023034Y023999*
X023020Y024001*
X023006Y024002*
X022993*
X022979Y024001*
X022965Y023999*
X022951Y023997*
X022938Y023993*
X022925Y023988*
X022912Y023982*
X022900Y023976*
X022888Y023968*
X022876Y023960*
X022866Y023951*
X022856Y023941*
X022846Y023931*
X022838Y023920*
X022830Y023908*
X022823Y023896*
X022817Y023884*
X022812Y023871*
X022807Y023858*
X022804Y023844*
X022801Y023830*
X022800Y023816*
X022800Y023802*
X022800Y023789*
X022801Y023775*
X022804Y023761*
X022807Y023747*
X022812Y023734*
X022817Y023721*
X022823Y023709*
X022830Y023697*
X022838Y023685*
X022846Y023674*
X022856Y023664*
X022866Y023654*
X022876Y023645*
X022888Y023637*
X022900Y023629*
X022912Y023623*
X022925Y023617*
X022938Y023612*
X022951Y023608*
X022965Y023606*
X022979Y023604*
X022993Y023603*
X023006*
X023020Y023604*
X023034Y023606*
X023048Y023608*
X023061Y023612*
X023074Y023617*
X023087Y023623*
X023100Y023629*
X023111Y023637*
X023123Y023645*
X023133Y023654*
X023143Y023664*
X023153Y023674*
X023161Y023685*
X023169Y023697*
X023176Y023709*
X023182Y023721*
X023187Y023734*
X023192Y023747*
X023195Y023761*
X023198Y023775*
X023199Y023789*
X023200Y023802*
Y024802D02*
D01*
X023199Y024816*
X023198Y024830*
X023195Y024844*
X023192Y024858*
X023187Y024871*
X023182Y024884*
X023176Y024896*
X023169Y024908*
X023161Y024920*
X023153Y024931*
X023143Y024941*
X023133Y024951*
X023123Y024960*
X023111Y024968*
X023100Y024976*
X023087Y024982*
X023074Y024988*
X023061Y024993*
X023048Y024997*
X023034Y024999*
X023020Y025001*
X023006Y025002*
X022993*
X022979Y025001*
X022965Y024999*
X022951Y024997*
X022938Y024993*
X022925Y024988*
X022912Y024982*
X022900Y024976*
X022888Y024968*
X022876Y024960*
X022866Y024951*
X022856Y024941*
X022846Y024931*
X022838Y024920*
X022830Y024908*
X022823Y024896*
X022817Y024884*
X022812Y024871*
X022807Y024858*
X022804Y024844*
X022801Y024830*
X022800Y024816*
X022800Y024802*
X022800Y024789*
X022801Y024775*
X022804Y024761*
X022807Y024747*
X022812Y024734*
X022817Y024721*
X022823Y024709*
X022830Y024697*
X022838Y024685*
X022846Y024674*
X022856Y024664*
X022866Y024654*
X022876Y024645*
X022888Y024637*
X022900Y024629*
X022912Y024623*
X022925Y024617*
X022938Y024612*
X022951Y024608*
X022965Y024606*
X022979Y024604*
X022993Y024603*
X023006*
X023020Y024604*
X023034Y024606*
X023048Y024608*
X023061Y024612*
X023074Y024617*
X023087Y024623*
X023100Y024629*
X023111Y024637*
X023123Y024645*
X023133Y024654*
X023143Y024664*
X023153Y024674*
X023161Y024685*
X023169Y024697*
X023176Y024709*
X023182Y024721*
X023187Y024734*
X023192Y024747*
X023195Y024761*
X023198Y024775*
X023199Y024789*
X023200Y024802*
X024200Y023802D02*
D01*
X024199Y023816*
X024198Y023830*
X024195Y023844*
X024192Y023858*
X024187Y023871*
X024182Y023884*
X024176Y023896*
X024169Y023908*
X024161Y023920*
X024153Y023931*
X024143Y023941*
X024133Y023951*
X024123Y023960*
X024111Y023968*
X024100Y023976*
X024087Y023982*
X024074Y023988*
X024061Y023993*
X024048Y023997*
X024034Y023999*
X024020Y024001*
X024006Y024002*
X023993*
X023979Y024001*
X023965Y023999*
X023951Y023997*
X023938Y023993*
X023925Y023988*
X023912Y023982*
X023900Y023976*
X023888Y023968*
X023876Y023960*
X023866Y023951*
X023856Y023941*
X023846Y023931*
X023838Y023920*
X023830Y023908*
X023823Y023896*
X023817Y023884*
X023812Y023871*
X023807Y023858*
X023804Y023844*
X023801Y023830*
X023800Y023816*
X023800Y023802*
X023800Y023789*
X023801Y023775*
X023804Y023761*
X023807Y023747*
X023812Y023734*
X023817Y023721*
X023823Y023709*
X023830Y023697*
X023838Y023685*
X023846Y023674*
X023856Y023664*
X023866Y023654*
X023876Y023645*
X023888Y023637*
X023900Y023629*
X023912Y023623*
X023925Y023617*
X023938Y023612*
X023951Y023608*
X023965Y023606*
X023979Y023604*
X023993Y023603*
X024006*
X024020Y023604*
X024034Y023606*
X024048Y023608*
X024061Y023612*
X024074Y023617*
X024087Y023623*
X024100Y023629*
X024111Y023637*
X024123Y023645*
X024133Y023654*
X024143Y023664*
X024153Y023674*
X024161Y023685*
X024169Y023697*
X024176Y023709*
X024182Y023721*
X024187Y023734*
X024192Y023747*
X024195Y023761*
X024198Y023775*
X024199Y023789*
X024200Y023802*
Y024802D02*
D01*
X024199Y024816*
X024198Y024830*
X024195Y024844*
X024192Y024858*
X024187Y024871*
X024182Y024884*
X024176Y024896*
X024169Y024908*
X024161Y024920*
X024153Y024931*
X024143Y024941*
X024133Y024951*
X024123Y024960*
X024111Y024968*
X024100Y024976*
X024087Y024982*
X024074Y024988*
X024061Y024993*
X024048Y024997*
X024034Y024999*
X024020Y025001*
X024006Y025002*
X023993*
X023979Y025001*
X023965Y024999*
X023951Y024997*
X023938Y024993*
X023925Y024988*
X023912Y024982*
X023900Y024976*
X023888Y024968*
X023876Y024960*
X023866Y024951*
X023856Y024941*
X023846Y024931*
X023838Y024920*
X023830Y024908*
X023823Y024896*
X023817Y024884*
X023812Y024871*
X023807Y024858*
X023804Y024844*
X023801Y024830*
X023800Y024816*
X023800Y024802*
X023800Y024789*
X023801Y024775*
X023804Y024761*
X023807Y024747*
X023812Y024734*
X023817Y024721*
X023823Y024709*
X023830Y024697*
X023838Y024685*
X023846Y024674*
X023856Y024664*
X023866Y024654*
X023876Y024645*
X023888Y024637*
X023900Y024629*
X023912Y024623*
X023925Y024617*
X023938Y024612*
X023951Y024608*
X023965Y024606*
X023979Y024604*
X023993Y024603*
X024006*
X024020Y024604*
X024034Y024606*
X024048Y024608*
X024061Y024612*
X024074Y024617*
X024087Y024623*
X024100Y024629*
X024111Y024637*
X024123Y024645*
X024133Y024654*
X024143Y024664*
X024153Y024674*
X024161Y024685*
X024169Y024697*
X024176Y024709*
X024182Y024721*
X024187Y024734*
X024192Y024747*
X024195Y024761*
X024198Y024775*
X024199Y024789*
X024200Y024802*
X018400Y020450D02*
D01*
X018399Y020463*
X018398Y020477*
X018395Y020491*
X018392Y020505*
X018387Y020518*
X018382Y020531*
X018376Y020543*
X018369Y020555*
X018361Y020567*
X018353Y020578*
X018343Y020588*
X018333Y020598*
X018323Y020607*
X018311Y020615*
X018300Y020623*
X018287Y020629*
X018274Y020635*
X018261Y020640*
X018248Y020644*
X018234Y020646*
X018220Y020648*
X018206Y020649*
X018193*
X018179Y020648*
X018165Y020646*
X018151Y020644*
X018138Y020640*
X018125Y020635*
X018112Y020629*
X018100Y020623*
X018088Y020615*
X018076Y020607*
X018066Y020598*
X018056Y020588*
X018046Y020578*
X018038Y020567*
X018030Y020555*
X018023Y020543*
X018017Y020531*
X018012Y020518*
X018007Y020505*
X018004Y020491*
X018001Y020477*
X018000Y020463*
X018000Y020450*
X018000Y020436*
X018001Y020422*
X018004Y020408*
X018007Y020394*
X018012Y020381*
X018017Y020368*
X018023Y020356*
X018030Y020344*
X018038Y020332*
X018046Y020321*
X018056Y020311*
X018066Y020301*
X018076Y020292*
X018088Y020284*
X018100Y020276*
X018112Y020270*
X018125Y020264*
X018138Y020259*
X018151Y020255*
X018165Y020253*
X018179Y020251*
X018193Y020250*
X018206*
X018220Y020251*
X018234Y020253*
X018248Y020255*
X018261Y020259*
X018274Y020264*
X018287Y020270*
X018300Y020276*
X018311Y020284*
X018323Y020292*
X018333Y020301*
X018343Y020311*
X018353Y020321*
X018361Y020332*
X018369Y020344*
X018376Y020356*
X018382Y020368*
X018387Y020381*
X018392Y020394*
X018395Y020408*
X018398Y020422*
X018399Y020436*
X018400Y020450*
X017400Y021450D02*
D01*
X017399Y021463*
X017398Y021477*
X017395Y021491*
X017392Y021505*
X017387Y021518*
X017382Y021531*
X017376Y021543*
X017369Y021555*
X017361Y021567*
X017353Y021578*
X017343Y021588*
X017333Y021598*
X017323Y021607*
X017311Y021615*
X017300Y021623*
X017287Y021629*
X017274Y021635*
X017261Y021640*
X017248Y021644*
X017234Y021646*
X017220Y021648*
X017206Y021649*
X017193*
X017179Y021648*
X017165Y021646*
X017151Y021644*
X017138Y021640*
X017125Y021635*
X017112Y021629*
X017100Y021623*
X017088Y021615*
X017076Y021607*
X017066Y021598*
X017056Y021588*
X017046Y021578*
X017038Y021567*
X017030Y021555*
X017023Y021543*
X017017Y021531*
X017012Y021518*
X017007Y021505*
X017004Y021491*
X017001Y021477*
X017000Y021463*
X017000Y021450*
X017000Y021436*
X017001Y021422*
X017004Y021408*
X017007Y021394*
X017012Y021381*
X017017Y021368*
X017023Y021356*
X017030Y021344*
X017038Y021332*
X017046Y021321*
X017056Y021311*
X017066Y021301*
X017076Y021292*
X017088Y021284*
X017100Y021276*
X017112Y021270*
X017125Y021264*
X017138Y021259*
X017151Y021255*
X017165Y021253*
X017179Y021251*
X017193Y021250*
X017206*
X017220Y021251*
X017234Y021253*
X017248Y021255*
X017261Y021259*
X017274Y021264*
X017287Y021270*
X017300Y021276*
X017311Y021284*
X017323Y021292*
X017333Y021301*
X017343Y021311*
X017353Y021321*
X017361Y021332*
X017369Y021344*
X017376Y021356*
X017382Y021368*
X017387Y021381*
X017392Y021394*
X017395Y021408*
X017398Y021422*
X017399Y021436*
X017400Y021450*
Y020450D02*
D01*
X017399Y020463*
X017398Y020477*
X017395Y020491*
X017392Y020505*
X017387Y020518*
X017382Y020531*
X017376Y020543*
X017369Y020555*
X017361Y020567*
X017353Y020578*
X017343Y020588*
X017333Y020598*
X017323Y020607*
X017311Y020615*
X017300Y020623*
X017287Y020629*
X017274Y020635*
X017261Y020640*
X017248Y020644*
X017234Y020646*
X017220Y020648*
X017206Y020649*
X017193*
X017179Y020648*
X017165Y020646*
X017151Y020644*
X017138Y020640*
X017125Y020635*
X017112Y020629*
X017100Y020623*
X017088Y020615*
X017076Y020607*
X017066Y020598*
X017056Y020588*
X017046Y020578*
X017038Y020567*
X017030Y020555*
X017023Y020543*
X017017Y020531*
X017012Y020518*
X017007Y020505*
X017004Y020491*
X017001Y020477*
X017000Y020463*
X017000Y020450*
X017000Y020436*
X017001Y020422*
X017004Y020408*
X017007Y020394*
X017012Y020381*
X017017Y020368*
X017023Y020356*
X017030Y020344*
X017038Y020332*
X017046Y020321*
X017056Y020311*
X017066Y020301*
X017076Y020292*
X017088Y020284*
X017100Y020276*
X017112Y020270*
X017125Y020264*
X017138Y020259*
X017151Y020255*
X017165Y020253*
X017179Y020251*
X017193Y020250*
X017206*
X017220Y020251*
X017234Y020253*
X017248Y020255*
X017261Y020259*
X017274Y020264*
X017287Y020270*
X017300Y020276*
X017311Y020284*
X017323Y020292*
X017333Y020301*
X017343Y020311*
X017353Y020321*
X017361Y020332*
X017369Y020344*
X017376Y020356*
X017382Y020368*
X017387Y020381*
X017392Y020394*
X017395Y020408*
X017398Y020422*
X017399Y020436*
X017400Y020450*
X016400Y021450D02*
D01*
X016399Y021463*
X016398Y021477*
X016395Y021491*
X016392Y021505*
X016387Y021518*
X016382Y021531*
X016376Y021543*
X016369Y021555*
X016361Y021567*
X016353Y021578*
X016343Y021588*
X016333Y021598*
X016323Y021607*
X016311Y021615*
X016300Y021623*
X016287Y021629*
X016274Y021635*
X016261Y021640*
X016248Y021644*
X016234Y021646*
X016220Y021648*
X016206Y021649*
X016193*
X016179Y021648*
X016165Y021646*
X016151Y021644*
X016138Y021640*
X016125Y021635*
X016112Y021629*
X016100Y021623*
X016088Y021615*
X016076Y021607*
X016066Y021598*
X016056Y021588*
X016046Y021578*
X016038Y021567*
X016030Y021555*
X016023Y021543*
X016017Y021531*
X016012Y021518*
X016007Y021505*
X016004Y021491*
X016001Y021477*
X016000Y021463*
X016000Y021450*
X016000Y021436*
X016001Y021422*
X016004Y021408*
X016007Y021394*
X016012Y021381*
X016017Y021368*
X016023Y021356*
X016030Y021344*
X016038Y021332*
X016046Y021321*
X016056Y021311*
X016066Y021301*
X016076Y021292*
X016088Y021284*
X016100Y021276*
X016112Y021270*
X016125Y021264*
X016138Y021259*
X016151Y021255*
X016165Y021253*
X016179Y021251*
X016193Y021250*
X016206*
X016220Y021251*
X016234Y021253*
X016248Y021255*
X016261Y021259*
X016274Y021264*
X016287Y021270*
X016300Y021276*
X016311Y021284*
X016323Y021292*
X016333Y021301*
X016343Y021311*
X016353Y021321*
X016361Y021332*
X016369Y021344*
X016376Y021356*
X016382Y021368*
X016387Y021381*
X016392Y021394*
X016395Y021408*
X016398Y021422*
X016399Y021436*
X016400Y021450*
Y020450D02*
D01*
X016399Y020463*
X016398Y020477*
X016395Y020491*
X016392Y020505*
X016387Y020518*
X016382Y020531*
X016376Y020543*
X016369Y020555*
X016361Y020567*
X016353Y020578*
X016343Y020588*
X016333Y020598*
X016323Y020607*
X016311Y020615*
X016300Y020623*
X016287Y020629*
X016274Y020635*
X016261Y020640*
X016248Y020644*
X016234Y020646*
X016220Y020648*
X016206Y020649*
X016193*
X016179Y020648*
X016165Y020646*
X016151Y020644*
X016138Y020640*
X016125Y020635*
X016112Y020629*
X016100Y020623*
X016088Y020615*
X016076Y020607*
X016066Y020598*
X016056Y020588*
X016046Y020578*
X016038Y020567*
X016030Y020555*
X016023Y020543*
X016017Y020531*
X016012Y020518*
X016007Y020505*
X016004Y020491*
X016001Y020477*
X016000Y020463*
X016000Y020450*
X016000Y020436*
X016001Y020422*
X016004Y020408*
X016007Y020394*
X016012Y020381*
X016017Y020368*
X016023Y020356*
X016030Y020344*
X016038Y020332*
X016046Y020321*
X016056Y020311*
X016066Y020301*
X016076Y020292*
X016088Y020284*
X016100Y020276*
X016112Y020270*
X016125Y020264*
X016138Y020259*
X016151Y020255*
X016165Y020253*
X016179Y020251*
X016193Y020250*
X016206*
X016220Y020251*
X016234Y020253*
X016248Y020255*
X016261Y020259*
X016274Y020264*
X016287Y020270*
X016300Y020276*
X016311Y020284*
X016323Y020292*
X016333Y020301*
X016343Y020311*
X016353Y020321*
X016361Y020332*
X016369Y020344*
X016376Y020356*
X016382Y020368*
X016387Y020381*
X016392Y020394*
X016395Y020408*
X016398Y020422*
X016399Y020436*
X016400Y020450*
X015400Y021450D02*
D01*
X015399Y021463*
X015398Y021477*
X015395Y021491*
X015392Y021505*
X015387Y021518*
X015382Y021531*
X015376Y021543*
X015369Y021555*
X015361Y021567*
X015353Y021578*
X015343Y021588*
X015333Y021598*
X015323Y021607*
X015311Y021615*
X015300Y021623*
X015287Y021629*
X015274Y021635*
X015261Y021640*
X015248Y021644*
X015234Y021646*
X015220Y021648*
X015206Y021649*
X015193*
X015179Y021648*
X015165Y021646*
X015151Y021644*
X015138Y021640*
X015125Y021635*
X015112Y021629*
X015100Y021623*
X015088Y021615*
X015076Y021607*
X015066Y021598*
X015056Y021588*
X015046Y021578*
X015038Y021567*
X015030Y021555*
X015023Y021543*
X015017Y021531*
X015012Y021518*
X015007Y021505*
X015004Y021491*
X015001Y021477*
X015000Y021463*
X015000Y021450*
X015000Y021436*
X015001Y021422*
X015004Y021408*
X015007Y021394*
X015012Y021381*
X015017Y021368*
X015023Y021356*
X015030Y021344*
X015038Y021332*
X015046Y021321*
X015056Y021311*
X015066Y021301*
X015076Y021292*
X015088Y021284*
X015100Y021276*
X015112Y021270*
X015125Y021264*
X015138Y021259*
X015151Y021255*
X015165Y021253*
X015179Y021251*
X015193Y021250*
X015206*
X015220Y021251*
X015234Y021253*
X015248Y021255*
X015261Y021259*
X015274Y021264*
X015287Y021270*
X015300Y021276*
X015311Y021284*
X015323Y021292*
X015333Y021301*
X015343Y021311*
X015353Y021321*
X015361Y021332*
X015369Y021344*
X015376Y021356*
X015382Y021368*
X015387Y021381*
X015392Y021394*
X015395Y021408*
X015398Y021422*
X015399Y021436*
X015400Y021450*
Y020450D02*
D01*
X015399Y020463*
X015398Y020477*
X015395Y020491*
X015392Y020505*
X015387Y020518*
X015382Y020531*
X015376Y020543*
X015369Y020555*
X015361Y020567*
X015353Y020578*
X015343Y020588*
X015333Y020598*
X015323Y020607*
X015311Y020615*
X015300Y020623*
X015287Y020629*
X015274Y020635*
X015261Y020640*
X015248Y020644*
X015234Y020646*
X015220Y020648*
X015206Y020649*
X015193*
X015179Y020648*
X015165Y020646*
X015151Y020644*
X015138Y020640*
X015125Y020635*
X015112Y020629*
X015100Y020623*
X015088Y020615*
X015076Y020607*
X015066Y020598*
X015056Y020588*
X015046Y020578*
X015038Y020567*
X015030Y020555*
X015023Y020543*
X015017Y020531*
X015012Y020518*
X015007Y020505*
X015004Y020491*
X015001Y020477*
X015000Y020463*
X015000Y020450*
X015000Y020436*
X015001Y020422*
X015004Y020408*
X015007Y020394*
X015012Y020381*
X015017Y020368*
X015023Y020356*
X015030Y020344*
X015038Y020332*
X015046Y020321*
X015056Y020311*
X015066Y020301*
X015076Y020292*
X015088Y020284*
X015100Y020276*
X015112Y020270*
X015125Y020264*
X015138Y020259*
X015151Y020255*
X015165Y020253*
X015179Y020251*
X015193Y020250*
X015206*
X015220Y020251*
X015234Y020253*
X015248Y020255*
X015261Y020259*
X015274Y020264*
X015287Y020270*
X015300Y020276*
X015311Y020284*
X015323Y020292*
X015333Y020301*
X015343Y020311*
X015353Y020321*
X015361Y020332*
X015369Y020344*
X015376Y020356*
X015382Y020368*
X015387Y020381*
X015392Y020394*
X015395Y020408*
X015398Y020422*
X015399Y020436*
X015400Y020450*
X014400Y021450D02*
D01*
X014399Y021463*
X014398Y021477*
X014395Y021491*
X014392Y021505*
X014387Y021518*
X014382Y021531*
X014376Y021543*
X014369Y021555*
X014361Y021567*
X014353Y021578*
X014343Y021588*
X014333Y021598*
X014323Y021607*
X014311Y021615*
X014300Y021623*
X014287Y021629*
X014274Y021635*
X014261Y021640*
X014248Y021644*
X014234Y021646*
X014220Y021648*
X014206Y021649*
X014193*
X014179Y021648*
X014165Y021646*
X014151Y021644*
X014138Y021640*
X014125Y021635*
X014112Y021629*
X014100Y021623*
X014088Y021615*
X014076Y021607*
X014066Y021598*
X014056Y021588*
X014046Y021578*
X014038Y021567*
X014030Y021555*
X014023Y021543*
X014017Y021531*
X014012Y021518*
X014007Y021505*
X014004Y021491*
X014001Y021477*
X014000Y021463*
X014000Y021450*
X014000Y021436*
X014001Y021422*
X014004Y021408*
X014007Y021394*
X014012Y021381*
X014017Y021368*
X014023Y021356*
X014030Y021344*
X014038Y021332*
X014046Y021321*
X014056Y021311*
X014066Y021301*
X014076Y021292*
X014088Y021284*
X014100Y021276*
X014112Y021270*
X014125Y021264*
X014138Y021259*
X014151Y021255*
X014165Y021253*
X014179Y021251*
X014193Y021250*
X014206*
X014220Y021251*
X014234Y021253*
X014248Y021255*
X014261Y021259*
X014274Y021264*
X014287Y021270*
X014300Y021276*
X014311Y021284*
X014323Y021292*
X014333Y021301*
X014343Y021311*
X014353Y021321*
X014361Y021332*
X014369Y021344*
X014376Y021356*
X014382Y021368*
X014387Y021381*
X014392Y021394*
X014395Y021408*
X014398Y021422*
X014399Y021436*
X014400Y021450*
Y020450D02*
D01*
X014399Y020463*
X014398Y020477*
X014395Y020491*
X014392Y020505*
X014387Y020518*
X014382Y020531*
X014376Y020543*
X014369Y020555*
X014361Y020567*
X014353Y020578*
X014343Y020588*
X014333Y020598*
X014323Y020607*
X014311Y020615*
X014300Y020623*
X014287Y020629*
X014274Y020635*
X014261Y020640*
X014248Y020644*
X014234Y020646*
X014220Y020648*
X014206Y020649*
X014193*
X014179Y020648*
X014165Y020646*
X014151Y020644*
X014138Y020640*
X014125Y020635*
X014112Y020629*
X014100Y020623*
X014088Y020615*
X014076Y020607*
X014066Y020598*
X014056Y020588*
X014046Y020578*
X014038Y020567*
X014030Y020555*
X014023Y020543*
X014017Y020531*
X014012Y020518*
X014007Y020505*
X014004Y020491*
X014001Y020477*
X014000Y020463*
X014000Y020450*
X014000Y020436*
X014001Y020422*
X014004Y020408*
X014007Y020394*
X014012Y020381*
X014017Y020368*
X014023Y020356*
X014030Y020344*
X014038Y020332*
X014046Y020321*
X014056Y020311*
X014066Y020301*
X014076Y020292*
X014088Y020284*
X014100Y020276*
X014112Y020270*
X014125Y020264*
X014138Y020259*
X014151Y020255*
X014165Y020253*
X014179Y020251*
X014193Y020250*
X014206*
X014220Y020251*
X014234Y020253*
X014248Y020255*
X014261Y020259*
X014274Y020264*
X014287Y020270*
X014300Y020276*
X014311Y020284*
X014323Y020292*
X014333Y020301*
X014343Y020311*
X014353Y020321*
X014361Y020332*
X014369Y020344*
X014376Y020356*
X014382Y020368*
X014387Y020381*
X014392Y020394*
X014395Y020408*
X014398Y020422*
X014399Y020436*
X014400Y020450*
X013400Y021450D02*
D01*
X013399Y021463*
X013398Y021477*
X013395Y021491*
X013392Y021505*
X013387Y021518*
X013382Y021531*
X013376Y021543*
X013369Y021555*
X013361Y021567*
X013353Y021578*
X013343Y021588*
X013333Y021598*
X013323Y021607*
X013311Y021615*
X013300Y021623*
X013287Y021629*
X013274Y021635*
X013261Y021640*
X013248Y021644*
X013234Y021646*
X013220Y021648*
X013206Y021649*
X013193*
X013179Y021648*
X013165Y021646*
X013151Y021644*
X013138Y021640*
X013125Y021635*
X013112Y021629*
X013100Y021623*
X013088Y021615*
X013076Y021607*
X013066Y021598*
X013056Y021588*
X013046Y021578*
X013038Y021567*
X013030Y021555*
X013023Y021543*
X013017Y021531*
X013012Y021518*
X013007Y021505*
X013004Y021491*
X013001Y021477*
X013000Y021463*
X013000Y021450*
X013000Y021436*
X013001Y021422*
X013004Y021408*
X013007Y021394*
X013012Y021381*
X013017Y021368*
X013023Y021356*
X013030Y021344*
X013038Y021332*
X013046Y021321*
X013056Y021311*
X013066Y021301*
X013076Y021292*
X013088Y021284*
X013100Y021276*
X013112Y021270*
X013125Y021264*
X013138Y021259*
X013151Y021255*
X013165Y021253*
X013179Y021251*
X013193Y021250*
X013206*
X013220Y021251*
X013234Y021253*
X013248Y021255*
X013261Y021259*
X013274Y021264*
X013287Y021270*
X013300Y021276*
X013311Y021284*
X013323Y021292*
X013333Y021301*
X013343Y021311*
X013353Y021321*
X013361Y021332*
X013369Y021344*
X013376Y021356*
X013382Y021368*
X013387Y021381*
X013392Y021394*
X013395Y021408*
X013398Y021422*
X013399Y021436*
X013400Y021450*
Y020450D02*
D01*
X013399Y020463*
X013398Y020477*
X013395Y020491*
X013392Y020505*
X013387Y020518*
X013382Y020531*
X013376Y020543*
X013369Y020555*
X013361Y020567*
X013353Y020578*
X013343Y020588*
X013333Y020598*
X013323Y020607*
X013311Y020615*
X013300Y020623*
X013287Y020629*
X013274Y020635*
X013261Y020640*
X013248Y020644*
X013234Y020646*
X013220Y020648*
X013206Y020649*
X013193*
X013179Y020648*
X013165Y020646*
X013151Y020644*
X013138Y020640*
X013125Y020635*
X013112Y020629*
X013100Y020623*
X013088Y020615*
X013076Y020607*
X013066Y020598*
X013056Y020588*
X013046Y020578*
X013038Y020567*
X013030Y020555*
X013023Y020543*
X013017Y020531*
X013012Y020518*
X013007Y020505*
X013004Y020491*
X013001Y020477*
X013000Y020463*
X013000Y020450*
X013000Y020436*
X013001Y020422*
X013004Y020408*
X013007Y020394*
X013012Y020381*
X013017Y020368*
X013023Y020356*
X013030Y020344*
X013038Y020332*
X013046Y020321*
X013056Y020311*
X013066Y020301*
X013076Y020292*
X013088Y020284*
X013100Y020276*
X013112Y020270*
X013125Y020264*
X013138Y020259*
X013151Y020255*
X013165Y020253*
X013179Y020251*
X013193Y020250*
X013206*
X013220Y020251*
X013234Y020253*
X013248Y020255*
X013261Y020259*
X013274Y020264*
X013287Y020270*
X013300Y020276*
X013311Y020284*
X013323Y020292*
X013333Y020301*
X013343Y020311*
X013353Y020321*
X013361Y020332*
X013369Y020344*
X013376Y020356*
X013382Y020368*
X013387Y020381*
X013392Y020394*
X013395Y020408*
X013398Y020422*
X013399Y020436*
X013400Y020450*
X012400Y021450D02*
D01*
X012399Y021463*
X012398Y021477*
X012395Y021491*
X012392Y021505*
X012387Y021518*
X012382Y021531*
X012376Y021543*
X012369Y021555*
X012361Y021567*
X012353Y021578*
X012343Y021588*
X012333Y021598*
X012323Y021607*
X012311Y021615*
X012300Y021623*
X012287Y021629*
X012274Y021635*
X012261Y021640*
X012248Y021644*
X012234Y021646*
X012220Y021648*
X012206Y021649*
X012193*
X012179Y021648*
X012165Y021646*
X012151Y021644*
X012138Y021640*
X012125Y021635*
X012112Y021629*
X012100Y021623*
X012088Y021615*
X012076Y021607*
X012066Y021598*
X012056Y021588*
X012046Y021578*
X012038Y021567*
X012030Y021555*
X012023Y021543*
X012017Y021531*
X012012Y021518*
X012007Y021505*
X012004Y021491*
X012001Y021477*
X012000Y021463*
X012000Y021450*
X012000Y021436*
X012001Y021422*
X012004Y021408*
X012007Y021394*
X012012Y021381*
X012017Y021368*
X012023Y021356*
X012030Y021344*
X012038Y021332*
X012046Y021321*
X012056Y021311*
X012066Y021301*
X012076Y021292*
X012088Y021284*
X012100Y021276*
X012112Y021270*
X012125Y021264*
X012138Y021259*
X012151Y021255*
X012165Y021253*
X012179Y021251*
X012193Y021250*
X012206*
X012220Y021251*
X012234Y021253*
X012248Y021255*
X012261Y021259*
X012274Y021264*
X012287Y021270*
X012300Y021276*
X012311Y021284*
X012323Y021292*
X012333Y021301*
X012343Y021311*
X012353Y021321*
X012361Y021332*
X012369Y021344*
X012376Y021356*
X012382Y021368*
X012387Y021381*
X012392Y021394*
X012395Y021408*
X012398Y021422*
X012399Y021436*
X012400Y021450*
Y020450D02*
D01*
X012399Y020463*
X012398Y020477*
X012395Y020491*
X012392Y020505*
X012387Y020518*
X012382Y020531*
X012376Y020543*
X012369Y020555*
X012361Y020567*
X012353Y020578*
X012343Y020588*
X012333Y020598*
X012323Y020607*
X012311Y020615*
X012300Y020623*
X012287Y020629*
X012274Y020635*
X012261Y020640*
X012248Y020644*
X012234Y020646*
X012220Y020648*
X012206Y020649*
X012193*
X012179Y020648*
X012165Y020646*
X012151Y020644*
X012138Y020640*
X012125Y020635*
X012112Y020629*
X012100Y020623*
X012088Y020615*
X012076Y020607*
X012066Y020598*
X012056Y020588*
X012046Y020578*
X012038Y020567*
X012030Y020555*
X012023Y020543*
X012017Y020531*
X012012Y020518*
X012007Y020505*
X012004Y020491*
X012001Y020477*
X012000Y020463*
X012000Y020450*
X012000Y020436*
X012001Y020422*
X012004Y020408*
X012007Y020394*
X012012Y020381*
X012017Y020368*
X012023Y020356*
X012030Y020344*
X012038Y020332*
X012046Y020321*
X012056Y020311*
X012066Y020301*
X012076Y020292*
X012088Y020284*
X012100Y020276*
X012112Y020270*
X012125Y020264*
X012138Y020259*
X012151Y020255*
X012165Y020253*
X012179Y020251*
X012193Y020250*
X012206*
X012220Y020251*
X012234Y020253*
X012248Y020255*
X012261Y020259*
X012274Y020264*
X012287Y020270*
X012300Y020276*
X012311Y020284*
X012323Y020292*
X012333Y020301*
X012343Y020311*
X012353Y020321*
X012361Y020332*
X012369Y020344*
X012376Y020356*
X012382Y020368*
X012387Y020381*
X012392Y020394*
X012395Y020408*
X012398Y020422*
X012399Y020436*
X012400Y020450*
X011400Y021450D02*
D01*
X011399Y021463*
X011398Y021477*
X011395Y021491*
X011392Y021505*
X011387Y021518*
X011382Y021531*
X011376Y021543*
X011369Y021555*
X011361Y021567*
X011353Y021578*
X011343Y021588*
X011333Y021598*
X011323Y021607*
X011311Y021615*
X011300Y021623*
X011287Y021629*
X011274Y021635*
X011261Y021640*
X011248Y021644*
X011234Y021646*
X011220Y021648*
X011206Y021649*
X011193*
X011179Y021648*
X011165Y021646*
X011151Y021644*
X011138Y021640*
X011125Y021635*
X011112Y021629*
X011100Y021623*
X011088Y021615*
X011076Y021607*
X011066Y021598*
X011056Y021588*
X011046Y021578*
X011038Y021567*
X011030Y021555*
X011023Y021543*
X011017Y021531*
X011012Y021518*
X011007Y021505*
X011004Y021491*
X011001Y021477*
X011000Y021463*
X011000Y021450*
X011000Y021436*
X011001Y021422*
X011004Y021408*
X011007Y021394*
X011012Y021381*
X011017Y021368*
X011023Y021356*
X011030Y021344*
X011038Y021332*
X011046Y021321*
X011056Y021311*
X011066Y021301*
X011076Y021292*
X011088Y021284*
X011100Y021276*
X011112Y021270*
X011125Y021264*
X011138Y021259*
X011151Y021255*
X011165Y021253*
X011179Y021251*
X011193Y021250*
X011206*
X011220Y021251*
X011234Y021253*
X011248Y021255*
X011261Y021259*
X011274Y021264*
X011287Y021270*
X011300Y021276*
X011311Y021284*
X011323Y021292*
X011333Y021301*
X011343Y021311*
X011353Y021321*
X011361Y021332*
X011369Y021344*
X011376Y021356*
X011382Y021368*
X011387Y021381*
X011392Y021394*
X011395Y021408*
X011398Y021422*
X011399Y021436*
X011400Y021450*
Y020450D02*
D01*
X011399Y020463*
X011398Y020477*
X011395Y020491*
X011392Y020505*
X011387Y020518*
X011382Y020531*
X011376Y020543*
X011369Y020555*
X011361Y020567*
X011353Y020578*
X011343Y020588*
X011333Y020598*
X011323Y020607*
X011311Y020615*
X011300Y020623*
X011287Y020629*
X011274Y020635*
X011261Y020640*
X011248Y020644*
X011234Y020646*
X011220Y020648*
X011206Y020649*
X011193*
X011179Y020648*
X011165Y020646*
X011151Y020644*
X011138Y020640*
X011125Y020635*
X011112Y020629*
X011100Y020623*
X011088Y020615*
X011076Y020607*
X011066Y020598*
X011056Y020588*
X011046Y020578*
X011038Y020567*
X011030Y020555*
X011023Y020543*
X011017Y020531*
X011012Y020518*
X011007Y020505*
X011004Y020491*
X011001Y020477*
X011000Y020463*
X011000Y020450*
X011000Y020436*
X011001Y020422*
X011004Y020408*
X011007Y020394*
X011012Y020381*
X011017Y020368*
X011023Y020356*
X011030Y020344*
X011038Y020332*
X011046Y020321*
X011056Y020311*
X011066Y020301*
X011076Y020292*
X011088Y020284*
X011100Y020276*
X011112Y020270*
X011125Y020264*
X011138Y020259*
X011151Y020255*
X011165Y020253*
X011179Y020251*
X011193Y020250*
X011206*
X011220Y020251*
X011234Y020253*
X011248Y020255*
X011261Y020259*
X011274Y020264*
X011287Y020270*
X011300Y020276*
X011311Y020284*
X011323Y020292*
X011333Y020301*
X011343Y020311*
X011353Y020321*
X011361Y020332*
X011369Y020344*
X011376Y020356*
X011382Y020368*
X011387Y020381*
X011392Y020394*
X011395Y020408*
X011398Y020422*
X011399Y020436*
X011400Y020450*
X010400Y021450D02*
D01*
X010399Y021463*
X010398Y021477*
X010395Y021491*
X010392Y021505*
X010387Y021518*
X010382Y021531*
X010376Y021543*
X010369Y021555*
X010361Y021567*
X010353Y021578*
X010343Y021588*
X010333Y021598*
X010323Y021607*
X010311Y021615*
X010300Y021623*
X010287Y021629*
X010274Y021635*
X010261Y021640*
X010248Y021644*
X010234Y021646*
X010220Y021648*
X010206Y021649*
X010193*
X010179Y021648*
X010165Y021646*
X010151Y021644*
X010138Y021640*
X010125Y021635*
X010112Y021629*
X010100Y021623*
X010088Y021615*
X010076Y021607*
X010066Y021598*
X010056Y021588*
X010046Y021578*
X010038Y021567*
X010030Y021555*
X010023Y021543*
X010017Y021531*
X010012Y021518*
X010007Y021505*
X010004Y021491*
X010001Y021477*
X010000Y021463*
X010000Y021450*
X010000Y021436*
X010001Y021422*
X010004Y021408*
X010007Y021394*
X010012Y021381*
X010017Y021368*
X010023Y021356*
X010030Y021344*
X010038Y021332*
X010046Y021321*
X010056Y021311*
X010066Y021301*
X010076Y021292*
X010088Y021284*
X010100Y021276*
X010112Y021270*
X010125Y021264*
X010138Y021259*
X010151Y021255*
X010165Y021253*
X010179Y021251*
X010193Y021250*
X010206*
X010220Y021251*
X010234Y021253*
X010248Y021255*
X010261Y021259*
X010274Y021264*
X010287Y021270*
X010300Y021276*
X010311Y021284*
X010323Y021292*
X010333Y021301*
X010343Y021311*
X010353Y021321*
X010361Y021332*
X010369Y021344*
X010376Y021356*
X010382Y021368*
X010387Y021381*
X010392Y021394*
X010395Y021408*
X010398Y021422*
X010399Y021436*
X010400Y021450*
Y020450D02*
D01*
X010399Y020463*
X010398Y020477*
X010395Y020491*
X010392Y020505*
X010387Y020518*
X010382Y020531*
X010376Y020543*
X010369Y020555*
X010361Y020567*
X010353Y020578*
X010343Y020588*
X010333Y020598*
X010323Y020607*
X010311Y020615*
X010300Y020623*
X010287Y020629*
X010274Y020635*
X010261Y020640*
X010248Y020644*
X010234Y020646*
X010220Y020648*
X010206Y020649*
X010193*
X010179Y020648*
X010165Y020646*
X010151Y020644*
X010138Y020640*
X010125Y020635*
X010112Y020629*
X010100Y020623*
X010088Y020615*
X010076Y020607*
X010066Y020598*
X010056Y020588*
X010046Y020578*
X010038Y020567*
X010030Y020555*
X010023Y020543*
X010017Y020531*
X010012Y020518*
X010007Y020505*
X010004Y020491*
X010001Y020477*
X010000Y020463*
X010000Y020450*
X010000Y020436*
X010001Y020422*
X010004Y020408*
X010007Y020394*
X010012Y020381*
X010017Y020368*
X010023Y020356*
X010030Y020344*
X010038Y020332*
X010046Y020321*
X010056Y020311*
X010066Y020301*
X010076Y020292*
X010088Y020284*
X010100Y020276*
X010112Y020270*
X010125Y020264*
X010138Y020259*
X010151Y020255*
X010165Y020253*
X010179Y020251*
X010193Y020250*
X010206*
X010220Y020251*
X010234Y020253*
X010248Y020255*
X010261Y020259*
X010274Y020264*
X010287Y020270*
X010300Y020276*
X010311Y020284*
X010323Y020292*
X010333Y020301*
X010343Y020311*
X010353Y020321*
X010361Y020332*
X010369Y020344*
X010376Y020356*
X010382Y020368*
X010387Y020381*
X010392Y020394*
X010395Y020408*
X010398Y020422*
X010399Y020436*
X010400Y020450*
X018400Y021450D02*
D01*
X018399Y021463*
X018398Y021477*
X018395Y021491*
X018392Y021505*
X018387Y021518*
X018382Y021531*
X018376Y021543*
X018369Y021555*
X018361Y021567*
X018353Y021578*
X018343Y021588*
X018333Y021598*
X018323Y021607*
X018311Y021615*
X018300Y021623*
X018287Y021629*
X018274Y021635*
X018261Y021640*
X018248Y021644*
X018234Y021646*
X018220Y021648*
X018206Y021649*
X018193*
X018179Y021648*
X018165Y021646*
X018151Y021644*
X018138Y021640*
X018125Y021635*
X018112Y021629*
X018100Y021623*
X018088Y021615*
X018076Y021607*
X018066Y021598*
X018056Y021588*
X018046Y021578*
X018038Y021567*
X018030Y021555*
X018023Y021543*
X018017Y021531*
X018012Y021518*
X018007Y021505*
X018004Y021491*
X018001Y021477*
X018000Y021463*
X018000Y021450*
X018000Y021436*
X018001Y021422*
X018004Y021408*
X018007Y021394*
X018012Y021381*
X018017Y021368*
X018023Y021356*
X018030Y021344*
X018038Y021332*
X018046Y021321*
X018056Y021311*
X018066Y021301*
X018076Y021292*
X018088Y021284*
X018100Y021276*
X018112Y021270*
X018125Y021264*
X018138Y021259*
X018151Y021255*
X018165Y021253*
X018179Y021251*
X018193Y021250*
X018206*
X018220Y021251*
X018234Y021253*
X018248Y021255*
X018261Y021259*
X018274Y021264*
X018287Y021270*
X018300Y021276*
X018311Y021284*
X018323Y021292*
X018333Y021301*
X018343Y021311*
X018353Y021321*
X018361Y021332*
X018369Y021344*
X018376Y021356*
X018382Y021368*
X018387Y021381*
X018392Y021394*
X018395Y021408*
X018398Y021422*
X018399Y021436*
X018400Y021450*
X007200Y013800D02*
D01*
X007199Y013813*
X007198Y013827*
X007195Y013841*
X007192Y013855*
X007187Y013868*
X007182Y013881*
X007176Y013893*
X007169Y013905*
X007161Y013917*
X007153Y013928*
X007143Y013938*
X007133Y013948*
X007123Y013957*
X007111Y013965*
X007100Y013973*
X007087Y013979*
X007074Y013985*
X007061Y013990*
X007048Y013994*
X007034Y013996*
X007020Y013998*
X007006Y013999*
X006993*
X006979Y013998*
X006965Y013996*
X006951Y013994*
X006938Y013990*
X006925Y013985*
X006912Y013979*
X006900Y013973*
X006888Y013965*
X006876Y013957*
X006866Y013948*
X006856Y013938*
X006846Y013928*
X006838Y013917*
X006830Y013905*
X006823Y013893*
X006817Y013881*
X006812Y013868*
X006807Y013855*
X006804Y013841*
X006801Y013827*
X006800Y013813*
X006800Y013800*
X006800Y013786*
X006801Y013772*
X006804Y013758*
X006807Y013744*
X006812Y013731*
X006817Y013718*
X006823Y013706*
X006830Y013694*
X006838Y013682*
X006846Y013671*
X006856Y013661*
X006866Y013651*
X006876Y013642*
X006888Y013634*
X006900Y013626*
X006912Y013620*
X006925Y013614*
X006938Y013609*
X006951Y013605*
X006965Y013603*
X006979Y013601*
X006993Y013600*
X007006*
X007020Y013601*
X007034Y013603*
X007048Y013605*
X007061Y013609*
X007074Y013614*
X007087Y013620*
X007100Y013626*
X007111Y013634*
X007123Y013642*
X007133Y013651*
X007143Y013661*
X007153Y013671*
X007161Y013682*
X007169Y013694*
X007176Y013706*
X007182Y013718*
X007187Y013731*
X007192Y013744*
X007195Y013758*
X007198Y013772*
X007199Y013786*
X007200Y013800*
X008200D02*
D01*
X008199Y013813*
X008198Y013827*
X008195Y013841*
X008192Y013855*
X008187Y013868*
X008182Y013881*
X008176Y013893*
X008169Y013905*
X008161Y013917*
X008153Y013928*
X008143Y013938*
X008133Y013948*
X008123Y013957*
X008111Y013965*
X008100Y013973*
X008087Y013979*
X008074Y013985*
X008061Y013990*
X008048Y013994*
X008034Y013996*
X008020Y013998*
X008006Y013999*
X007993*
X007979Y013998*
X007965Y013996*
X007951Y013994*
X007938Y013990*
X007925Y013985*
X007912Y013979*
X007900Y013973*
X007888Y013965*
X007876Y013957*
X007866Y013948*
X007856Y013938*
X007846Y013928*
X007838Y013917*
X007830Y013905*
X007823Y013893*
X007817Y013881*
X007812Y013868*
X007807Y013855*
X007804Y013841*
X007801Y013827*
X007800Y013813*
X007800Y013800*
X007800Y013786*
X007801Y013772*
X007804Y013758*
X007807Y013744*
X007812Y013731*
X007817Y013718*
X007823Y013706*
X007830Y013694*
X007838Y013682*
X007846Y013671*
X007856Y013661*
X007866Y013651*
X007876Y013642*
X007888Y013634*
X007900Y013626*
X007912Y013620*
X007925Y013614*
X007938Y013609*
X007951Y013605*
X007965Y013603*
X007979Y013601*
X007993Y013600*
X008006*
X008020Y013601*
X008034Y013603*
X008048Y013605*
X008061Y013609*
X008074Y013614*
X008087Y013620*
X008100Y013626*
X008111Y013634*
X008123Y013642*
X008133Y013651*
X008143Y013661*
X008153Y013671*
X008161Y013682*
X008169Y013694*
X008176Y013706*
X008182Y013718*
X008187Y013731*
X008192Y013744*
X008195Y013758*
X008198Y013772*
X008199Y013786*
X008200Y013800*
X009200D02*
D01*
X009199Y013813*
X009198Y013827*
X009195Y013841*
X009192Y013855*
X009187Y013868*
X009182Y013881*
X009176Y013893*
X009169Y013905*
X009161Y013917*
X009153Y013928*
X009143Y013938*
X009133Y013948*
X009123Y013957*
X009111Y013965*
X009100Y013973*
X009087Y013979*
X009074Y013985*
X009061Y013990*
X009048Y013994*
X009034Y013996*
X009020Y013998*
X009006Y013999*
X008993*
X008979Y013998*
X008965Y013996*
X008951Y013994*
X008938Y013990*
X008925Y013985*
X008912Y013979*
X008900Y013973*
X008888Y013965*
X008876Y013957*
X008866Y013948*
X008856Y013938*
X008846Y013928*
X008838Y013917*
X008830Y013905*
X008823Y013893*
X008817Y013881*
X008812Y013868*
X008807Y013855*
X008804Y013841*
X008801Y013827*
X008800Y013813*
X008800Y013800*
X008800Y013786*
X008801Y013772*
X008804Y013758*
X008807Y013744*
X008812Y013731*
X008817Y013718*
X008823Y013706*
X008830Y013694*
X008838Y013682*
X008846Y013671*
X008856Y013661*
X008866Y013651*
X008876Y013642*
X008888Y013634*
X008900Y013626*
X008912Y013620*
X008925Y013614*
X008938Y013609*
X008951Y013605*
X008965Y013603*
X008979Y013601*
X008993Y013600*
X009006*
X009020Y013601*
X009034Y013603*
X009048Y013605*
X009061Y013609*
X009074Y013614*
X009087Y013620*
X009100Y013626*
X009111Y013634*
X009123Y013642*
X009133Y013651*
X009143Y013661*
X009153Y013671*
X009161Y013682*
X009169Y013694*
X009176Y013706*
X009182Y013718*
X009187Y013731*
X009192Y013744*
X009195Y013758*
X009198Y013772*
X009199Y013786*
X009200Y013800*
M02*