%FSDAX24Y24*%
%MOIN*%
%SFA1B1*%

%IPPOS*%
%ADD62C,0.002000*%
%ADD63C,0.002700*%
%LNde-260124-1*%
%LPD*%
G54D62*
X023120Y034476D02*
Y034636D01*
X023280*
Y034476*
X023120*
Y035264D02*
Y035424D01*
X023280*
Y035264*
X023120*
X025470Y034476D02*
Y034636D01*
X025630*
Y034476*
X025470*
Y035264D02*
Y035424D01*
X025630*
Y035264*
X025470*
X027900Y033520D02*
X027820Y033680D01*
X027980*
X027900Y033520*
X028900D02*
X028820Y033680D01*
X028980*
X028900Y033520*
X027900Y032520D02*
X027820Y032680D01*
X027980*
X027900Y032520*
X028900D02*
X028820Y032680D01*
X028980*
X028900Y032520*
X027900Y031520D02*
X027820Y031680D01*
X027980*
X027900Y031520*
X028900D02*
X028820Y031680D01*
X028980*
X028900Y031520*
X027900Y030520D02*
X027820Y030680D01*
X027980*
X027900Y030520*
X028900D02*
X028820Y030680D01*
X028980*
X028900Y030520*
X027900Y029520D02*
X027820Y029680D01*
X027980*
X027900Y029520*
X028900D02*
X028820Y029680D01*
X028980*
X028900Y029520*
X027900Y028520D02*
X027820Y028680D01*
X027980*
X027900Y028520*
X028900D02*
X028820Y028680D01*
X028980*
X028900Y028520*
X027900Y027520D02*
X027820Y027680D01*
X027980*
X027900Y027520*
X028900D02*
X028820Y027680D01*
X028980*
X028900Y027520*
X027900Y026520D02*
X027820Y026680D01*
X027980*
X027900Y026520*
X028900D02*
X028820Y026680D01*
X028980*
X028900Y026520*
X027900Y025520D02*
X027820Y025680D01*
X027980*
X027900Y025520*
X028900D02*
X028820Y025680D01*
X028980*
X028900Y025520*
X027900Y024520D02*
X027820Y024680D01*
X027980*
X027900Y024520*
X028900D02*
X028820Y024680D01*
X028980*
X028900Y024520*
X018178Y021170D02*
X018098Y021330D01*
X018258*
X018178Y021170*
X019178D02*
X019098Y021330D01*
X019258*
X019178Y021170*
X020178D02*
X020098Y021330D01*
X020258*
X020178Y021170*
X014550Y039120D02*
X014470Y039280D01*
X014630*
X014550Y039120*
Y038120D02*
X014470Y038280D01*
X014630*
X014550Y038120*
Y037120D02*
X014470Y037280D01*
X014630*
X014550Y037120*
Y036120D02*
X014470Y036280D01*
X014630*
X014550Y036120*
Y035120D02*
X014470Y035280D01*
X014630*
X014550Y035120*
Y034120D02*
X014470Y034280D01*
X014630*
X014550Y034120*
Y033120D02*
X014470Y033280D01*
X014630*
X014550Y033120*
Y032120D02*
X014470Y032280D01*
X014630*
X014550Y032120*
Y031120D02*
X014470Y031280D01*
X014630*
X014550Y031120*
Y030120D02*
X014470Y030280D01*
X014630*
X014550Y030120*
Y029120D02*
X014470Y029280D01*
X014630*
X014550Y029120*
Y028120D02*
X014470Y028280D01*
X014630*
X014550Y028120*
Y027120D02*
X014470Y027280D01*
X014630*
X014550Y027120*
Y026120D02*
X014470Y026280D01*
X014630*
X014550Y026120*
Y025120D02*
X014470Y025280D01*
X014630*
X014550Y025120*
Y024120D02*
X014470Y024280D01*
X014630*
X014550Y024120*
Y040120D02*
X014470Y040280D01*
X014630*
X014550Y040120*
X025100Y024320D02*
X025140Y024360D01*
X025180*
X025140Y024400*
X025180Y024440*
X025140*
X025100Y024480*
X025060Y024440*
X025020*
X025060Y024400*
X025020Y024360*
X025060*
X025100Y024320*
X020900Y024670D02*
X020940Y024710D01*
X020980*
X020940Y024750*
X020980Y024790*
X020940*
X020900Y024830*
X020860Y024790*
X020820*
X020860Y024750*
X020820Y024710*
X020860*
X020900Y024670*
X019900Y019270D02*
X019940Y019310D01*
X019980*
X019940Y019350*
X019980Y019390*
X019940*
X019900Y019430*
X019860Y019390*
X019820*
X019860Y019350*
X019820Y019310*
X019860*
X019900Y019270*
X020450Y019320D02*
X020490Y019360D01*
X020530*
X020490Y019400*
X020530Y019440*
X020490*
X020450Y019480*
X020410Y019440*
X020370*
X020410Y019400*
X020370Y019360*
X020410*
X020450Y019320*
X019350Y023520D02*
X019390Y023560D01*
X019430*
X019390Y023600*
X019430Y023640*
X019390*
X019350Y023680*
X019310Y023640*
X019270*
X019310Y023600*
X019270Y023560*
X019310*
X019350Y023520*
X018700Y024070D02*
X018740Y024110D01*
X018780*
X018740Y024150*
X018780Y024190*
X018740*
X018700Y024230*
X018660Y024190*
X018620*
X018660Y024150*
X018620Y024110*
X018660*
X018700Y024070*
X018800Y034370D02*
X018840Y034410D01*
X018880*
X018840Y034450*
X018880Y034490*
X018840*
X018800Y034530*
X018760Y034490*
X018720*
X018760Y034450*
X018720Y034410*
X018760*
X018800Y034370*
X020550Y030370D02*
X020590Y030410D01*
X020630*
X020590Y030450*
X020630Y030490*
X020590*
X020550Y030530*
X020510Y030490*
X020470*
X020510Y030450*
X020470Y030410*
X020510*
X020550Y030370*
Y032294D02*
X020590Y032334D01*
X020630*
X020590Y032374*
X020630Y032414*
X020590*
X020550Y032454*
X020510Y032414*
X020470*
X020510Y032374*
X020470Y032334*
X020510*
X020550Y032294*
X022550Y032620D02*
X022590Y032660D01*
X022630*
X022590Y032700*
X022630Y032740*
X022590*
X022550Y032780*
X022510Y032740*
X022470*
X022510Y032700*
X022470Y032660*
X022510*
X022550Y032620*
Y030720D02*
X022590Y030760D01*
X022630*
X022590Y030800*
X022630Y030840*
X022590*
X022550Y030880*
X022510Y030840*
X022470*
X022510Y030800*
X022470Y030760*
X022510*
X022550Y030720*
X022850Y026970D02*
X022890Y027010D01*
X022930*
X022890Y027050*
X022930Y027090*
X022890*
X022850Y027130*
X022810Y027090*
X022770*
X022810Y027050*
X022770Y027010*
X022810*
X022850Y026970*
X024650Y029520D02*
X024690Y029560D01*
X024730*
X024690Y029600*
X024730Y029640*
X024690*
X024650Y029680*
X024610Y029640*
X024570*
X024610Y029600*
X024570Y029560*
X024610*
X024650Y029520*
X019050Y025370D02*
X019090Y025410D01*
X019130*
X019090Y025450*
X019130Y025490*
X019090*
X019050Y025530*
X019010Y025490*
X018970*
X019010Y025450*
X018970Y025410*
X019010*
X019050Y025370*
X018522Y033592D02*
X018562Y033632D01*
X018602*
X018562Y033672*
X018602Y033712*
X018562*
X018522Y033752*
X018482Y033712*
X018442*
X018482Y033672*
X018442Y033632*
X018482*
X018522Y033592*
X019050Y030220D02*
X019090Y030260D01*
X019130*
X019090Y030300*
X019130Y030340*
X019090*
X019050Y030380*
X019010Y030340*
X018970*
X019010Y030300*
X018970Y030260*
X019010*
X019050Y030220*
X026350Y028820D02*
X026390Y028860D01*
X026430*
X026390Y028900*
X026430Y028940*
X026390*
X026350Y028980*
X026310Y028940*
X026270*
X026310Y028900*
X026270Y028860*
X026310*
X026350Y028820*
X023750Y029570D02*
X023790Y029610D01*
X023830*
X023790Y029650*
X023830Y029690*
X023790*
X023750Y029730*
X023710Y029690*
X023670*
X023710Y029650*
X023670Y029610*
X023710*
X023750Y029570*
X019035Y028685D02*
X019075Y028725D01*
X019115*
X019075Y028765*
X019115Y028805*
X019075*
X019035Y028845*
X018995Y028805*
X018955*
X018995Y028765*
X018955Y028725*
X018995*
X019035Y028685*
X017450Y028720D02*
X017490Y028760D01*
X017530*
X017490Y028800*
X017530Y028840*
X017490*
X017450Y028880*
X017410Y028840*
X017370*
X017410Y028800*
X017370Y028760*
X017410*
X017450Y028720*
X022950Y022020D02*
X022990Y022060D01*
X023030*
X022990Y022100*
X023030Y022140*
X022990*
X022950Y022180*
X022910Y022140*
X022870*
X022910Y022100*
X022870Y022060*
X022910*
X022950Y022020*
X020550Y029320D02*
X020590Y029360D01*
X020630*
X020590Y029400*
X020630Y029440*
X020590*
X020550Y029480*
X020510Y029440*
X020470*
X020510Y029400*
X020470Y029360*
X020510*
X020550Y029320*
X022422Y024648D02*
X022462Y024688D01*
X022502*
X022462Y024728*
X022502Y024768*
X022462*
X022422Y024808*
X022382Y024768*
X022342*
X022382Y024728*
X022342Y024688*
X022382*
X022422Y024648*
X025300Y032320D02*
X025340Y032360D01*
X025380*
X025340Y032400*
X025380Y032440*
X025340*
X025300Y032480*
X025260Y032440*
X025220*
X025260Y032400*
X025220Y032360*
X025260*
X025300Y032320*
Y029220D02*
X025340Y029260D01*
X025380*
X025340Y029300*
X025380Y029340*
X025340*
X025300Y029380*
X025260Y029340*
X025220*
X025260Y029300*
X025220Y029260*
X025260*
X025300Y029220*
X019400Y026370D02*
X019440Y026410D01*
X019480*
X019440Y026450*
X019480Y026490*
X019440*
X019400Y026530*
X019360Y026490*
X019320*
X019360Y026450*
X019320Y026410*
X019360*
X019400Y026370*
X019050Y030720D02*
X019090Y030760D01*
X019130*
X019090Y030800*
X019130Y030840*
X019090*
X019050Y030880*
X019010Y030840*
X018970*
X019010Y030800*
X018970Y030760*
X019010*
X019050Y030720*
X019300Y031570D02*
X019340Y031610D01*
X019380*
X019340Y031650*
X019380Y031690*
X019340*
X019300Y031730*
X019260Y031690*
X019220*
X019260Y031650*
X019220Y031610*
X019260*
X019300Y031570*
X019050Y025870D02*
X019090Y025910D01*
X019130*
X019090Y025950*
X019130Y025990*
X019090*
X019050Y026030*
X019010Y025990*
X018970*
X019010Y025950*
X018970Y025910*
X019010*
X019050Y025870*
X021800Y033020D02*
X021840Y033060D01*
X021880*
X021840Y033100*
X021880Y033140*
X021840*
X021800Y033180*
X021760Y033140*
X021720*
X021760Y033100*
X021720Y033060*
X021760*
X021800Y033020*
X014650Y015020D02*
X014690Y015060D01*
X014730*
X014690Y015100*
X014730Y015140*
X014690*
X014650Y015180*
X014610Y015140*
X014570*
X014610Y015100*
X014570Y015060*
X014610*
X014650Y015020*
X015473D02*
X015513Y015060D01*
X015553*
X015513Y015100*
X015553Y015140*
X015513*
X015473Y015180*
X015433Y015140*
X015393*
X015433Y015100*
X015393Y015060*
X015433*
X015473Y015020*
X016297D02*
X016337Y015060D01*
X016377*
X016337Y015100*
X016377Y015140*
X016337*
X016297Y015180*
X016257Y015140*
X016217*
X016257Y015100*
X016217Y015060*
X016257*
X016297Y015020*
X017120D02*
X017160Y015060D01*
X017200*
X017160Y015100*
X017200Y015140*
X017160*
X017120Y015180*
X017080Y015140*
X017040*
X017080Y015100*
X017040Y015060*
X017080*
X017120Y015020*
X017943D02*
X017983Y015060D01*
X018023*
X017983Y015100*
X018023Y015140*
X017983*
X017943Y015180*
X017903Y015140*
X017863*
X017903Y015100*
X017863Y015060*
X017903*
X017943Y015020*
X018767D02*
X018807Y015060D01*
X018847*
X018807Y015100*
X018847Y015140*
X018807*
X018767Y015180*
X018727Y015140*
X018687*
X018727Y015100*
X018687Y015060*
X018727*
X018767Y015020*
X019590D02*
X019630Y015060D01*
X019670*
X019630Y015100*
X019670Y015140*
X019630*
X019590Y015180*
X019550Y015140*
X019510*
X019550Y015100*
X019510Y015060*
X019550*
X019590Y015020*
X020413D02*
X020453Y015060D01*
X020493*
X020453Y015100*
X020493Y015140*
X020453*
X020413Y015180*
X020373Y015140*
X020333*
X020373Y015100*
X020333Y015060*
X020373*
X020413Y015020*
X021237D02*
X021277Y015060D01*
X021317*
X021277Y015100*
X021317Y015140*
X021277*
X021237Y015180*
X021197Y015140*
X021157*
X021197Y015100*
X021157Y015060*
X021197*
X021237Y015020*
X022060D02*
X022100Y015060D01*
X022140*
X022100Y015100*
X022140Y015140*
X022100*
X022060Y015180*
X022020Y015140*
X021980*
X022020Y015100*
X021980Y015060*
X022020*
X022060Y015020*
X022883D02*
X022923Y015060D01*
X022963*
X022923Y015100*
X022963Y015140*
X022923*
X022883Y015180*
X022843Y015140*
X022803*
X022843Y015100*
X022803Y015060*
X022843*
X022883Y015020*
X023707D02*
X023747Y015060D01*
X023787*
X023747Y015100*
X023787Y015140*
X023747*
X023707Y015180*
X023667Y015140*
X023627*
X023667Y015100*
X023627Y015060*
X023667*
X023707Y015020*
X024530D02*
X024570Y015060D01*
X024610*
X024570Y015100*
X024610Y015140*
X024570*
X024530Y015180*
X024490Y015140*
X024450*
X024490Y015100*
X024450Y015060*
X024490*
X024530Y015020*
X025353D02*
X025393Y015060D01*
X025433*
X025393Y015100*
X025433Y015140*
X025393*
X025353Y015180*
X025313Y015140*
X025273*
X025313Y015100*
X025273Y015060*
X025313*
X025353Y015020*
X026177D02*
X026217Y015060D01*
X026257*
X026217Y015100*
X026257Y015140*
X026217*
X026177Y015180*
X026137Y015140*
X026097*
X026137Y015100*
X026097Y015060*
X026137*
X026177Y015020*
X027000D02*
X027040Y015060D01*
X027080*
X027040Y015100*
X027080Y015140*
X027040*
X027000Y015180*
X026960Y015140*
X026920*
X026960Y015100*
X026920Y015060*
X026960*
X027000Y015020*
X026227Y019320D02*
X026267Y019360D01*
X026307*
X026267Y019400*
X026307Y019440*
X026267*
X026227Y019480*
X026187Y019440*
X026147*
X026187Y019400*
X026147Y019360*
X026187*
X026227Y019320*
X022110D02*
X022150Y019360D01*
X022190*
X022150Y019400*
X022190Y019440*
X022150*
X022110Y019480*
X022070Y019440*
X022030*
X022070Y019400*
X022030Y019360*
X022070*
X022110Y019320*
X022933D02*
X022973Y019360D01*
X023013*
X022973Y019400*
X023013Y019440*
X022973*
X022933Y019480*
X022893Y019440*
X022853*
X022893Y019400*
X022853Y019360*
X022893*
X022933Y019320*
X023757D02*
X023797Y019360D01*
X023837*
X023797Y019400*
X023837Y019440*
X023797*
X023757Y019480*
X023717Y019440*
X023677*
X023717Y019400*
X023677Y019360*
X023717*
X023757Y019320*
X024580D02*
X024620Y019360D01*
X024660*
X024620Y019400*
X024660Y019440*
X024620*
X024580Y019480*
X024540Y019440*
X024500*
X024540Y019400*
X024500Y019360*
X024540*
X024580Y019320*
X025403D02*
X025443Y019360D01*
X025483*
X025443Y019400*
X025483Y019440*
X025443*
X025403Y019480*
X025363Y019440*
X025323*
X025363Y019400*
X025323Y019360*
X025363*
X025403Y019320*
X021287D02*
X021327Y019360D01*
X021367*
X021327Y019400*
X021367Y019440*
X021327*
X021287Y019480*
X021247Y019440*
X021207*
X021247Y019400*
X021207Y019360*
X021247*
X021287Y019320*
X023600Y025470D02*
X023640Y025510D01*
X023680*
X023640Y025550*
X023680Y025590*
X023640*
X023600Y025630*
X023560Y025590*
X023520*
X023560Y025550*
X023520Y025510*
X023560*
X023600Y025470*
X028450Y021870D02*
X028490Y021910D01*
X028530*
X028490Y021950*
X028530Y021990*
X028490*
X028450Y022030*
X028410Y021990*
X028370*
X028410Y021950*
X028370Y021910*
X028410*
X028450Y021870*
X028000D02*
X028040Y021910D01*
X028080*
X028040Y021950*
X028080Y021990*
X028040*
X028000Y022030*
X027960Y021990*
X027920*
X027960Y021950*
X027920Y021910*
X027960*
X028000Y021870*
X027550D02*
X027590Y021910D01*
X027630*
X027590Y021950*
X027630Y021990*
X027590*
X027550Y022030*
X027510Y021990*
X027470*
X027510Y021950*
X027470Y021910*
X027510*
X027550Y021870*
X027500Y018820D02*
X027540Y018860D01*
X027580*
X027540Y018900*
X027580Y018940*
X027540*
X027500Y018980*
X027460Y018940*
X027420*
X027460Y018900*
X027420Y018860*
X027460*
X027500Y018820*
X023150Y023870D02*
X023190Y023910D01*
X023230*
X023190Y023950*
X023230Y023990*
X023190*
X023150Y024030*
X023110Y023990*
X023070*
X023110Y023950*
X023070Y023910*
X023110*
X023150Y023870*
Y024320D02*
X023190Y024360D01*
X023230*
X023190Y024400*
X023230Y024440*
X023190*
X023150Y024480*
X023110Y024440*
X023070*
X023110Y024400*
X023070Y024360*
X023110*
X023150Y024320*
X018800Y019320D02*
X018840Y019360D01*
X018880*
X018840Y019400*
X018880Y019440*
X018840*
X018800Y019480*
X018760Y019440*
X018720*
X018760Y019400*
X018720Y019360*
X018760*
X018800Y019320*
X016500D02*
X016540Y019360D01*
X016580*
X016540Y019400*
X016580Y019440*
X016540*
X016500Y019480*
X016460Y019440*
X016420*
X016460Y019400*
X016420Y019360*
X016460*
X016500Y019320*
X017200D02*
X017240Y019360D01*
X017280*
X017240Y019400*
X017280Y019440*
X017240*
X017200Y019480*
X017160Y019440*
X017120*
X017160Y019400*
X017120Y019360*
X017160*
X017200Y019320*
X018000D02*
X018040Y019360D01*
X018080*
X018040Y019400*
X018080Y019440*
X018040*
X018000Y019480*
X017960Y019440*
X017920*
X017960Y019400*
X017920Y019360*
X017960*
X018000Y019320*
X023050Y029570D02*
X023090Y029610D01*
X023130*
X023090Y029650*
X023130Y029690*
X023090*
X023050Y029730*
X023010Y029690*
X022970*
X023010Y029650*
X022970Y029610*
X023010*
X023050Y029570*
X023700Y031320D02*
X023740Y031360D01*
X023780*
X023740Y031400*
X023780Y031440*
X023740*
X023700Y031480*
X023660Y031440*
X023620*
X023660Y031400*
X023620Y031360*
X023660*
X023700Y031320*
Y026470D02*
X023740Y026510D01*
X023780*
X023740Y026550*
X023780Y026590*
X023740*
X023700Y026630*
X023660Y026590*
X023620*
X023660Y026550*
X023620Y026510*
X023660*
X023700Y026470*
X023150Y023420D02*
X023190Y023460D01*
X023230*
X023190Y023500*
X023230Y023540*
X023190*
X023150Y023580*
X023110Y023540*
X023070*
X023110Y023500*
X023070Y023460*
X023110*
X023150Y023420*
X016500Y019820D02*
X016540Y019860D01*
X016580*
X016540Y019900*
X016580Y019940*
X016540*
X016500Y019980*
X016460Y019940*
X016420*
X016460Y019900*
X016420Y019860*
X016460*
X016500Y019820*
Y020320D02*
X016540Y020360D01*
X016580*
X016540Y020400*
X016580Y020440*
X016540*
X016500Y020480*
X016460Y020440*
X016420*
X016460Y020400*
X016420Y020360*
X016460*
X016500Y020320*
X020178Y024698D02*
X020218Y024738D01*
X020258*
X020218Y024778*
X020258Y024818*
X020218*
X020178Y024858*
X020138Y024818*
X020098*
X020138Y024778*
X020098Y024738*
X020138*
X020178Y024698*
X019700Y031570D02*
X019740Y031610D01*
X019780*
X019740Y031650*
X019780Y031690*
X019740*
X019700Y031730*
X019660Y031690*
X019620*
X019660Y031650*
X019620Y031610*
X019660*
X019700Y031570*
X027600Y022870D02*
X027640Y022910D01*
X027680*
X027640Y022950*
X027680Y022990*
X027640*
X027600Y023030*
X027560Y022990*
X027520*
X027560Y022950*
X027520Y022910*
X027560*
X027600Y022870*
Y023770D02*
X027640Y023810D01*
X027680*
X027640Y023850*
X027680Y023890*
X027640*
X027600Y023930*
X027560Y023890*
X027520*
X027560Y023850*
X027520Y023810*
X027560*
X027600Y023770*
X028700Y022670D02*
X028740Y022710D01*
X028780*
X028740Y022750*
X028780Y022790*
X028740*
X028700Y022830*
X028660Y022790*
X028620*
X028660Y022750*
X028620Y022710*
X028660*
X028700Y022670*
X026300D02*
X026340Y022710D01*
X026380*
X026340Y022750*
X026380Y022790*
X026340*
X026300Y022830*
X026260Y022790*
X026220*
X026260Y022750*
X026220Y022710*
X026260*
X026300Y022670*
X021850Y022320D02*
X021890Y022360D01*
X021930*
X021890Y022400*
X021930Y022440*
X021890*
X021850Y022480*
X021810Y022440*
X021770*
X021810Y022400*
X021770Y022360*
X021810*
X021850Y022320*
X020600Y027220D02*
X020640Y027260D01*
X020680*
X020640Y027300*
X020680Y027340*
X020640*
X020600Y027380*
X020560Y027340*
X020520*
X020560Y027300*
X020520Y027260*
X020560*
X020600Y027220*
X017250Y037020D02*
X017290Y037060D01*
X017330*
X017290Y037100*
X017330Y037140*
X017290*
X017250Y037180*
X017210Y037140*
X017170*
X017210Y037100*
X017170Y037060*
X017210*
X017250Y037020*
X017650D02*
X017690Y037060D01*
X017730*
X017690Y037100*
X017730Y037140*
X017690*
X017650Y037180*
X017610Y037140*
X017570*
X017610Y037100*
X017570Y037060*
X017610*
X017650Y037020*
X018000D02*
X018040Y037060D01*
X018080*
X018040Y037100*
X018080Y037140*
X018040*
X018000Y037180*
X017960Y037140*
X017920*
X017960Y037100*
X017920Y037060*
X017960*
X018000Y037020*
X019950Y037720D02*
X019990Y037760D01*
X020030*
X019990Y037800*
X020030Y037840*
X019990*
X019950Y037880*
X019910Y037840*
X019870*
X019910Y037800*
X019870Y037760*
X019910*
X019950Y037720*
Y037270D02*
X019990Y037310D01*
X020030*
X019990Y037350*
X020030Y037390*
X019990*
X019950Y037430*
X019910Y037390*
X019870*
X019910Y037350*
X019870Y037310*
X019910*
X019950Y037270*
Y036820D02*
X019990Y036860D01*
X020030*
X019990Y036900*
X020030Y036940*
X019990*
X019950Y036980*
X019910Y036940*
X019870*
X019910Y036900*
X019870Y036860*
X019910*
X019950Y036820*
Y038170D02*
X019990Y038210D01*
X020030*
X019990Y038250*
X020030Y038290*
X019990*
X019950Y038330*
X019910Y038290*
X019870*
X019910Y038250*
X019870Y038210*
X019910*
X019950Y038170*
X020450Y036820D02*
X020490Y036860D01*
X020530*
X020490Y036900*
X020530Y036940*
X020490*
X020450Y036980*
X020410Y036940*
X020370*
X020410Y036900*
X020370Y036860*
X020410*
X020450Y036820*
Y037270D02*
X020490Y037310D01*
X020530*
X020490Y037350*
X020530Y037390*
X020490*
X020450Y037430*
X020410Y037390*
X020370*
X020410Y037350*
X020370Y037310*
X020410*
X020450Y037270*
X020452Y037690D02*
X020492Y037730D01*
X020532*
X020492Y037770*
X020532Y037810*
X020492*
X020452Y037850*
X020412Y037810*
X020372*
X020412Y037770*
X020372Y037730*
X020412*
X020452Y037690*
X020950Y038620D02*
X020990Y038660D01*
X021030*
X020990Y038700*
X021030Y038740*
X020990*
X020950Y038780*
X020910Y038740*
X020870*
X020910Y038700*
X020870Y038660*
X020910*
X020950Y038620*
Y038170D02*
X020990Y038210D01*
X021030*
X020990Y038250*
X021030Y038290*
X020990*
X020950Y038330*
X020910Y038290*
X020870*
X020910Y038250*
X020870Y038210*
X020910*
X020950Y038170*
Y037720D02*
X020990Y037760D01*
X021030*
X020990Y037800*
X021030Y037840*
X020990*
X020950Y037880*
X020910Y037840*
X020870*
X020910Y037800*
X020870Y037760*
X020910*
X020950Y037720*
Y037270D02*
X020990Y037310D01*
X021030*
X020990Y037350*
X021030Y037390*
X020990*
X020950Y037430*
X020910Y037390*
X020870*
X020910Y037350*
X020870Y037310*
X020910*
X020950Y037270*
Y036820D02*
X020990Y036860D01*
X021030*
X020990Y036900*
X021030Y036940*
X020990*
X020950Y036980*
X020910Y036940*
X020870*
X020910Y036900*
X020870Y036860*
X020910*
X020950Y036820*
X023000Y028770D02*
X023040Y028810D01*
X023080*
X023040Y028850*
X023080Y028890*
X023040*
X023000Y028930*
X022960Y028890*
X022920*
X022960Y028850*
X022920Y028810*
X022960*
X023000Y028770*
X019350Y027970D02*
X019390Y028010D01*
X019430*
X019390Y028050*
X019430Y028090*
X019390*
X019350Y028130*
X019310Y028090*
X019270*
X019310Y028050*
X019270Y028010*
X019310*
X019350Y027970*
X017800Y024070D02*
X017840Y024110D01*
X017880*
X017840Y024150*
X017880Y024190*
X017840*
X017800Y024230*
X017760Y024190*
X017720*
X017760Y024150*
X017720Y024110*
X017760*
X017800Y024070*
X024225Y023945D02*
X024265Y023985D01*
X024305*
X024265Y024025*
X024305Y024065*
X024265*
X024225Y024105*
X024185Y024065*
X024145*
X024185Y024025*
X024145Y023985*
X024185*
X024225Y023945*
X016750Y021520D02*
X016790Y021560D01*
X016830*
X016790Y021600*
X016830Y021640*
X016790*
X016750Y021680*
X016710Y021640*
X016670*
X016710Y021600*
X016670Y021560*
X016710*
X016750Y021520*
G54D63*
X029730Y014516D02*
D01*
X029729Y014521*
X029729Y014527*
X029728Y014532*
X029726Y014538*
X029725Y014543*
X029723Y014548*
X029720Y014553*
X029717Y014558*
X029714Y014563*
X029711Y014567*
X029707Y014571*
X029703Y014575*
X029699Y014579*
X029694Y014582*
X029690Y014585*
X029685Y014587*
X029679Y014590*
X029674Y014592*
X029669Y014593*
X029663Y014594*
X029658Y014595*
X029652Y014595*
X029647*
X029641Y014595*
X029636Y014594*
X029630Y014593*
X029625Y014592*
X029620Y014590*
X029614Y014587*
X029610Y014585*
X029605Y014582*
X029600Y014579*
X029596Y014575*
X029592Y014571*
X029588Y014567*
X029585Y014563*
X029582Y014558*
X029579Y014553*
X029576Y014548*
X029574Y014543*
X029573Y014538*
X029571Y014532*
X029570Y014527*
X029570Y014521*
X029570Y014516*
X029570Y014510*
X029570Y014504*
X029571Y014499*
X029573Y014493*
X029574Y014488*
X029576Y014483*
X029579Y014478*
X029582Y014473*
X029585Y014468*
X029588Y014464*
X029592Y014460*
X029596Y014456*
X029600Y014452*
X029605Y014449*
X029610Y014446*
X029614Y014444*
X029620Y014441*
X029625Y014439*
X029630Y014438*
X029636Y014437*
X029641Y014436*
X029647Y014436*
X029652*
X029658Y014436*
X029663Y014437*
X029669Y014438*
X029674Y014439*
X029679Y014441*
X029685Y014444*
X029690Y014446*
X029694Y014449*
X029699Y014452*
X029703Y014456*
X029707Y014460*
X029711Y014464*
X029714Y014468*
X029717Y014473*
X029720Y014478*
X029723Y014483*
X029725Y014488*
X029726Y014493*
X029728Y014499*
X029729Y014504*
X029729Y014510*
X029730Y014516*
Y016484D02*
D01*
X029729Y016489*
X029729Y016495*
X029728Y016500*
X029726Y016506*
X029725Y016511*
X029723Y016516*
X029720Y016521*
X029717Y016526*
X029714Y016531*
X029711Y016535*
X029707Y016539*
X029703Y016543*
X029699Y016547*
X029694Y016550*
X029690Y016553*
X029685Y016555*
X029679Y016558*
X029674Y016560*
X029669Y016561*
X029663Y016562*
X029658Y016563*
X029652Y016563*
X029647*
X029641Y016563*
X029636Y016562*
X029630Y016561*
X029625Y016560*
X029620Y016558*
X029614Y016555*
X029610Y016553*
X029605Y016550*
X029600Y016547*
X029596Y016543*
X029592Y016539*
X029588Y016535*
X029585Y016531*
X029582Y016526*
X029579Y016521*
X029576Y016516*
X029574Y016511*
X029573Y016506*
X029571Y016500*
X029570Y016495*
X029570Y016489*
X029570Y016484*
X029570Y016478*
X029570Y016472*
X029571Y016467*
X029573Y016461*
X029574Y016456*
X029576Y016451*
X029579Y016446*
X029582Y016441*
X029585Y016436*
X029588Y016432*
X029592Y016428*
X029596Y016424*
X029600Y016420*
X029605Y016417*
X029610Y016414*
X029614Y016412*
X029620Y016409*
X029625Y016407*
X029630Y016406*
X029636Y016405*
X029641Y016404*
X029647Y016404*
X029652*
X029658Y016404*
X029663Y016405*
X029669Y016406*
X029674Y016407*
X029679Y016409*
X029685Y016412*
X029690Y016414*
X029694Y016417*
X029699Y016420*
X029703Y016424*
X029707Y016428*
X029711Y016432*
X029714Y016436*
X029717Y016441*
X029720Y016446*
X029723Y016451*
X029725Y016456*
X029726Y016461*
X029728Y016467*
X029729Y016472*
X029729Y016478*
X029730Y016484*
X024580Y037816D02*
D01*
X024579Y037821*
X024579Y037827*
X024578Y037832*
X024576Y037838*
X024575Y037843*
X024573Y037848*
X024570Y037853*
X024567Y037858*
X024564Y037863*
X024561Y037867*
X024557Y037871*
X024553Y037875*
X024549Y037879*
X024544Y037882*
X024540Y037885*
X024535Y037887*
X024529Y037890*
X024524Y037892*
X024519Y037893*
X024513Y037894*
X024508Y037895*
X024502Y037895*
X024497*
X024491Y037895*
X024486Y037894*
X024480Y037893*
X024475Y037892*
X024470Y037890*
X024464Y037887*
X024460Y037885*
X024455Y037882*
X024450Y037879*
X024446Y037875*
X024442Y037871*
X024438Y037867*
X024435Y037863*
X024432Y037858*
X024429Y037853*
X024426Y037848*
X024424Y037843*
X024423Y037838*
X024421Y037832*
X024420Y037827*
X024420Y037821*
X024420Y037816*
X024420Y037810*
X024420Y037804*
X024421Y037799*
X024423Y037793*
X024424Y037788*
X024426Y037783*
X024429Y037778*
X024432Y037773*
X024435Y037768*
X024438Y037764*
X024442Y037760*
X024446Y037756*
X024450Y037752*
X024455Y037749*
X024460Y037746*
X024464Y037744*
X024470Y037741*
X024475Y037739*
X024480Y037738*
X024486Y037737*
X024491Y037736*
X024497Y037736*
X024502*
X024508Y037736*
X024513Y037737*
X024519Y037738*
X024524Y037739*
X024529Y037741*
X024535Y037744*
X024540Y037746*
X024544Y037749*
X024549Y037752*
X024553Y037756*
X024557Y037760*
X024561Y037764*
X024564Y037768*
X024567Y037773*
X024570Y037778*
X024573Y037783*
X024575Y037788*
X024576Y037793*
X024578Y037799*
X024579Y037804*
X024579Y037810*
X024580Y037816*
Y039784D02*
D01*
X024579Y039789*
X024579Y039795*
X024578Y039800*
X024576Y039806*
X024575Y039811*
X024573Y039816*
X024570Y039821*
X024567Y039826*
X024564Y039831*
X024561Y039835*
X024557Y039839*
X024553Y039843*
X024549Y039847*
X024544Y039850*
X024540Y039853*
X024535Y039855*
X024529Y039858*
X024524Y039860*
X024519Y039861*
X024513Y039862*
X024508Y039863*
X024502Y039863*
X024497*
X024491Y039863*
X024486Y039862*
X024480Y039861*
X024475Y039860*
X024470Y039858*
X024464Y039855*
X024460Y039853*
X024455Y039850*
X024450Y039847*
X024446Y039843*
X024442Y039839*
X024438Y039835*
X024435Y039831*
X024432Y039826*
X024429Y039821*
X024426Y039816*
X024424Y039811*
X024423Y039806*
X024421Y039800*
X024420Y039795*
X024420Y039789*
X024420Y039784*
X024420Y039778*
X024420Y039772*
X024421Y039767*
X024423Y039761*
X024424Y039756*
X024426Y039751*
X024429Y039746*
X024432Y039741*
X024435Y039736*
X024438Y039732*
X024442Y039728*
X024446Y039724*
X024450Y039720*
X024455Y039717*
X024460Y039714*
X024464Y039712*
X024470Y039709*
X024475Y039707*
X024480Y039706*
X024486Y039705*
X024491Y039704*
X024497Y039704*
X024502*
X024508Y039704*
X024513Y039705*
X024519Y039706*
X024524Y039707*
X024529Y039709*
X024535Y039712*
X024540Y039714*
X024544Y039717*
X024549Y039720*
X024553Y039724*
X024557Y039728*
X024561Y039732*
X024564Y039736*
X024567Y039741*
X024570Y039746*
X024573Y039751*
X024575Y039756*
X024576Y039761*
X024578Y039767*
X024579Y039772*
X024579Y039778*
X024580Y039784*
M02*