%FSDAX24Y24*%
%MOIN*%
%SFA1B1*%

%IPPOS*%
%ADD9500C,0.010000*%
%ADD9501C,0.030000*%
%ADD9502C,0.031500*%
%ADD9503C,0.035400*%
%LNde-260124-1*%
%LPD*%
G54D9500*
X014650Y015100D03*
X015473D03*
X016297D03*
X017120D03*
X017943D03*
X018767D03*
X019590D03*
X020413D03*
X021237D03*
X022060D03*
X022883D03*
X023707D03*
X024530D03*
X025353D03*
X026177D03*
X027000D03*
X027500Y018900D03*
X026227Y019400D03*
X025403D03*
X024580D03*
X023757D03*
X022933D03*
X022110D03*
X021287D03*
X020450D03*
X019900Y019350D03*
X018800Y019400D03*
X018000D03*
X017200D03*
X016500D03*
Y019900D03*
Y020400D03*
X016750Y021600D03*
X017800Y024150D03*
X018700D03*
X019350Y023600D03*
X020178Y024778D03*
X020900Y024750D03*
X022422Y024728D03*
X023150Y024400D03*
Y023950D03*
Y023500D03*
X022950Y022100D03*
X021850Y022400D03*
X024225Y024025D03*
X025100Y024400D03*
X023600Y025550D03*
X023700Y026550D03*
X022850Y027050D03*
X023000Y028850D03*
X023050Y029650D03*
X023750D03*
X024650Y029600D03*
X025300Y029300D03*
X026350Y028900D03*
X022550Y030800D03*
X020550Y030450D03*
Y029400D03*
X019035Y028765D03*
X019350Y028050D03*
X019400Y026450D03*
X019050Y025950D03*
Y025450D03*
X020600Y027300D03*
X019050Y030300D03*
Y030800D03*
X017450Y028800D03*
X026300Y022750D03*
X027600Y022950D03*
Y023850D03*
X027550Y021950D03*
X028000D03*
X028450D03*
X028700Y022750D03*
X025300Y032400D03*
X023700Y031400D03*
X022550Y032700D03*
X021800Y033100D03*
X020550Y032374D03*
X019700Y031650D03*
X019300D03*
X018522Y033672D03*
X018800Y034450D03*
X018000Y037100D03*
X017650D03*
X017250D03*
X019950Y036900D03*
Y037350D03*
Y037800D03*
Y038250D03*
X020452Y037770D03*
X020450Y037350D03*
Y036900D03*
X020950D03*
Y037350D03*
Y037800D03*
Y038250D03*
Y038700D03*
G54D9501*
X029650Y014516D03*
Y016484D03*
X024500Y037816D03*
Y039784D03*
G54D9502*
X023200Y034556D03*
Y035344D03*
X025550D03*
Y034556D03*
G54D9503*
X018178Y021250D03*
X019178D03*
X020178D03*
X027900Y024600D03*
Y025600D03*
Y026600D03*
Y027600D03*
Y028600D03*
Y029600D03*
Y030600D03*
X028900D03*
Y029600D03*
Y028600D03*
Y027600D03*
Y026600D03*
Y025600D03*
Y024600D03*
X014550Y024200D03*
Y025200D03*
Y026200D03*
Y027200D03*
Y028200D03*
Y029200D03*
Y030200D03*
Y031200D03*
Y032200D03*
Y033200D03*
Y034200D03*
Y035200D03*
Y036200D03*
Y037200D03*
Y038200D03*
Y039200D03*
Y040200D03*
X027900Y033600D03*
X028900D03*
Y032600D03*
X027900D03*
Y031600D03*
X028900D03*
M02*