%FSDAX24Y24*%
%MOIN*%
%SFA1B1*%

%IPPOS*%
%ADD38C,0.003900*%
%ADD61C,0.002000*%
%LNde-260124-1*%
%LPD*%
G54D38*
X020632Y031311D02*
Y032689D01*
X022168Y031311D02*
Y032689D01*
X020632D02*
X022168D01*
X020632Y031311D02*
X022168D01*
X021203Y032000D02*
X021597D01*
X021400Y031803D02*
Y032197D01*
X020619Y025361D02*
Y026739D01*
X022154Y025361D02*
Y026739D01*
X020619D02*
X022154D01*
X020619Y025361D02*
X022154D01*
X021190Y026050D02*
X021583D01*
X021387Y025853D02*
Y026247D01*
X020632Y029361D02*
Y030739D01*
X022168Y029361D02*
Y030739D01*
X020632D02*
X022168D01*
X020632Y029361D02*
X022168D01*
X021203Y030050D02*
X021597D01*
X021400Y029853D02*
Y030247D01*
X025405Y026603D02*
Y026997D01*
X025208Y026800D02*
X025602D01*
X023929Y028867D02*
X026881D01*
X023929Y024733D02*
X026881D01*
X023929D02*
Y028867D01*
X026881Y024733D02*
Y028867D01*
X029053Y019100D02*
X029447D01*
X029250Y018903D02*
Y019297D01*
X028226Y017761D02*
Y020439D01*
X030274Y017761D02*
Y020439D01*
X028226Y017761D02*
X030274D01*
X028226Y020439D02*
X030274D01*
X025395Y031453D02*
Y031847D01*
X025198Y031650D02*
X025592D01*
X023918Y033717D02*
X026871D01*
X023918Y029583D02*
X026871D01*
X023918D02*
Y033717D01*
X026871Y029583D02*
Y033717D01*
X021103Y023300D02*
X021497D01*
X021300Y023103D02*
Y023497D01*
X017400Y031357D02*
Y031750D01*
X017203Y031554D02*
X017597D01*
X015924Y029487D02*
X018876D01*
X015924Y033620D02*
X018876D01*
Y029487D02*
Y033620D01*
X015924Y029487D02*
Y033620D01*
X017405Y026507D02*
Y026900D01*
X017208Y026704D02*
X017602D01*
X015929Y024637D02*
X018881D01*
X015929Y028770D02*
X018881D01*
Y024637D02*
Y028770D01*
X015929Y024637D02*
Y028770D01*
X020502Y038430D02*
Y038824D01*
X020306Y038627D02*
X020699D01*
X020619Y027411D02*
Y028789D01*
X022154Y027411D02*
Y028789D01*
X020619D02*
X022154D01*
X020619Y027411D02*
X022154D01*
X021190Y028100D02*
X021583D01*
X021387Y027903D02*
Y028297D01*
G54D61*
X022865Y021902D02*
Y024698D01*
X019735Y021902D02*
Y024698D01*
Y021902D02*
X022865D01*
X019735Y024698D02*
X022865D01*
X019105Y040812D02*
X021900D01*
X019105Y036442D02*
X021900D01*
Y040812*
X019105Y036442D02*
Y040812D01*
M02*