%FSDAX24Y24*%
%MOIN*%
%SFA1B1*%

%IPPOS*%
%ADD62C,0.002000*%
%LNde-260124-1*%
%LPD*%
G54D62*
X023043Y034556D02*
X023357D01*
X023200Y034399D02*
Y034714D01*
X023043Y035344D02*
X023357D01*
X023200Y035186D02*
Y035501D01*
X025393Y034556D02*
X025707D01*
X025550Y034399D02*
Y034714D01*
X025393Y035344D02*
X025707D01*
X025550Y035186D02*
Y035501D01*
X029500Y014516D02*
X029800D01*
X029650Y014366D02*
Y014666D01*
X029500Y016484D02*
X029800D01*
X029650Y016334D02*
Y016634D01*
X027723Y033600D02*
X028077D01*
X027900Y033423D02*
Y033777D01*
X028723Y033600D02*
X029077D01*
X028900Y033423D02*
Y033777D01*
X027723Y032600D02*
X028077D01*
X027900Y032423D02*
Y032777D01*
X028723Y032600D02*
X029077D01*
X028900Y032423D02*
Y032777D01*
X027723Y031600D02*
X028077D01*
X027900Y031423D02*
Y031777D01*
X028723Y031600D02*
X029077D01*
X028900Y031423D02*
Y031777D01*
X027723Y030600D02*
X028077D01*
X027900Y030423D02*
Y030777D01*
X028723Y030600D02*
X029077D01*
X028900Y030423D02*
Y030777D01*
X027723Y029600D02*
X028077D01*
X027900Y029423D02*
Y029777D01*
X028723Y029600D02*
X029077D01*
X028900Y029423D02*
Y029777D01*
X027723Y028600D02*
X028077D01*
X027900Y028423D02*
Y028777D01*
X028723Y028600D02*
X029077D01*
X028900Y028423D02*
Y028777D01*
X027723Y027600D02*
X028077D01*
X027900Y027423D02*
Y027777D01*
X028723Y027600D02*
X029077D01*
X028900Y027423D02*
Y027777D01*
X027723Y026600D02*
X028077D01*
X027900Y026423D02*
Y026777D01*
X028723Y026600D02*
X029077D01*
X028900Y026423D02*
Y026777D01*
X027723Y025600D02*
X028077D01*
X027900Y025423D02*
Y025777D01*
X028723Y025600D02*
X029077D01*
X028900Y025423D02*
Y025777D01*
X027723Y024600D02*
X028077D01*
X027900Y024423D02*
Y024777D01*
X028723Y024600D02*
X029077D01*
X028900Y024423D02*
Y024777D01*
X018001Y021250D02*
X018355D01*
X018178Y021073D02*
Y021427D01*
X019001Y021250D02*
X019355D01*
X019178Y021073D02*
Y021427D01*
X020001Y021250D02*
X020355D01*
X020178Y021073D02*
Y021427D01*
X014373Y039200D02*
X014727D01*
X014550Y039023D02*
Y039377D01*
X014373Y038200D02*
X014727D01*
X014550Y038023D02*
Y038377D01*
X014373Y037200D02*
X014727D01*
X014550Y037023D02*
Y037377D01*
X014373Y036200D02*
X014727D01*
X014550Y036023D02*
Y036377D01*
X014373Y035200D02*
X014727D01*
X014550Y035023D02*
Y035377D01*
X014373Y034200D02*
X014727D01*
X014550Y034023D02*
Y034377D01*
X014373Y033200D02*
X014727D01*
X014550Y033023D02*
Y033377D01*
X014373Y032200D02*
X014727D01*
X014550Y032023D02*
Y032377D01*
X014373Y031200D02*
X014727D01*
X014550Y031023D02*
Y031377D01*
X014373Y030200D02*
X014727D01*
X014550Y030023D02*
Y030377D01*
X014373Y029200D02*
X014727D01*
X014550Y029023D02*
Y029377D01*
X014373Y028200D02*
X014727D01*
X014550Y028023D02*
Y028377D01*
X014373Y027200D02*
X014727D01*
X014550Y027023D02*
Y027377D01*
X014373Y026200D02*
X014727D01*
X014550Y026023D02*
Y026377D01*
X014373Y025200D02*
X014727D01*
X014550Y025023D02*
Y025377D01*
X014373Y024200D02*
X014727D01*
X014550Y024023D02*
Y024377D01*
X014373Y040200D02*
X014727D01*
X014550Y040023D02*
Y040377D01*
X024350Y037816D02*
X024650D01*
X024500Y037666D02*
Y037966D01*
X024350Y039784D02*
X024650D01*
X024500Y039634D02*
Y039934D01*
X025050Y024400D02*
X025150D01*
X025100Y024350D02*
Y024450D01*
X020850Y024750D02*
X020950D01*
X020900Y024700D02*
Y024800D01*
X019850Y019350D02*
X019950D01*
X019900Y019300D02*
Y019400D01*
X020400D02*
X020500D01*
X020450Y019350D02*
Y019450D01*
X019300Y023600D02*
X019400D01*
X019350Y023550D02*
Y023650D01*
X018650Y024150D02*
X018750D01*
X018700Y024100D02*
Y024200D01*
X018750Y034450D02*
X018850D01*
X018800Y034400D02*
Y034500D01*
X020500Y030450D02*
X020600D01*
X020550Y030400D02*
Y030500D01*
X020500Y032374D02*
X020600D01*
X020550Y032324D02*
Y032424D01*
X022500Y032700D02*
X022600D01*
X022550Y032650D02*
Y032750D01*
X022500Y030800D02*
X022600D01*
X022550Y030750D02*
Y030850D01*
X022800Y027050D02*
X022900D01*
X022850Y027000D02*
Y027100D01*
X024600Y029600D02*
X024700D01*
X024650Y029550D02*
Y029650D01*
X019000Y025450D02*
X019100D01*
X019050Y025400D02*
Y025500D01*
X018472Y033672D02*
X018572D01*
X018522Y033622D02*
Y033722D01*
X019000Y030300D02*
X019100D01*
X019050Y030250D02*
Y030350D01*
X026300Y028900D02*
X026400D01*
X026350Y028850D02*
Y028950D01*
X023700Y029650D02*
X023800D01*
X023750Y029600D02*
Y029700D01*
X018985Y028765D02*
X019085D01*
X019035Y028715D02*
Y028815D01*
X017400Y028800D02*
X017500D01*
X017450Y028750D02*
Y028850D01*
X022900Y022100D02*
X023000D01*
X022950Y022050D02*
Y022150D01*
X020500Y029400D02*
X020600D01*
X020550Y029350D02*
Y029450D01*
X022372Y024728D02*
X022472D01*
X022422Y024678D02*
Y024778D01*
X025250Y032400D02*
X025350D01*
X025300Y032350D02*
Y032450D01*
X025250Y029300D02*
X025350D01*
X025300Y029250D02*
Y029350D01*
X019350Y026450D02*
X019450D01*
X019400Y026400D02*
Y026500D01*
X019000Y030800D02*
X019100D01*
X019050Y030750D02*
Y030850D01*
X019250Y031650D02*
X019350D01*
X019300Y031600D02*
Y031700D01*
X019000Y025950D02*
X019100D01*
X019050Y025900D02*
Y026000D01*
X021750Y033100D02*
X021850D01*
X021800Y033050D02*
Y033150D01*
X014600Y015100D02*
X014700D01*
X014650Y015050D02*
Y015150D01*
X015423Y015100D02*
X015523D01*
X015473Y015050D02*
Y015150D01*
X016247Y015100D02*
X016347D01*
X016297Y015050D02*
Y015150D01*
X017070Y015100D02*
X017170D01*
X017120Y015050D02*
Y015150D01*
X017893Y015100D02*
X017993D01*
X017943Y015050D02*
Y015150D01*
X018717Y015100D02*
X018817D01*
X018767Y015050D02*
Y015150D01*
X019540Y015100D02*
X019640D01*
X019590Y015050D02*
Y015150D01*
X020363Y015100D02*
X020463D01*
X020413Y015050D02*
Y015150D01*
X021187Y015100D02*
X021287D01*
X021237Y015050D02*
Y015150D01*
X022010Y015100D02*
X022110D01*
X022060Y015050D02*
Y015150D01*
X022833Y015100D02*
X022933D01*
X022883Y015050D02*
Y015150D01*
X023657Y015100D02*
X023757D01*
X023707Y015050D02*
Y015150D01*
X024480Y015100D02*
X024580D01*
X024530Y015050D02*
Y015150D01*
X025303Y015100D02*
X025403D01*
X025353Y015050D02*
Y015150D01*
X026127Y015100D02*
X026227D01*
X026177Y015050D02*
Y015150D01*
X026950Y015100D02*
X027050D01*
X027000Y015050D02*
Y015150D01*
X026177Y019400D02*
X026277D01*
X026227Y019350D02*
Y019450D01*
X022060Y019400D02*
X022160D01*
X022110Y019350D02*
Y019450D01*
X022883Y019400D02*
X022983D01*
X022933Y019350D02*
Y019450D01*
X023707Y019400D02*
X023807D01*
X023757Y019350D02*
Y019450D01*
X024530Y019400D02*
X024630D01*
X024580Y019350D02*
Y019450D01*
X025353Y019400D02*
X025453D01*
X025403Y019350D02*
Y019450D01*
X021237Y019400D02*
X021337D01*
X021287Y019350D02*
Y019450D01*
X023550Y025550D02*
X023650D01*
X023600Y025500D02*
Y025600D01*
X028400Y021950D02*
X028500D01*
X028450Y021900D02*
Y022000D01*
X027950Y021950D02*
X028050D01*
X028000Y021900D02*
Y022000D01*
X027500Y021950D02*
X027600D01*
X027550Y021900D02*
Y022000D01*
X027450Y018900D02*
X027550D01*
X027500Y018850D02*
Y018950D01*
X023100Y023950D02*
X023200D01*
X023150Y023900D02*
Y024000D01*
X023100Y024400D02*
X023200D01*
X023150Y024350D02*
Y024450D01*
X018750Y019400D02*
X018850D01*
X018800Y019350D02*
Y019450D01*
X016450Y019400D02*
X016550D01*
X016500Y019350D02*
Y019450D01*
X017150Y019400D02*
X017250D01*
X017200Y019350D02*
Y019450D01*
X017950Y019400D02*
X018050D01*
X018000Y019350D02*
Y019450D01*
X023000Y029650D02*
X023100D01*
X023050Y029600D02*
Y029700D01*
X023650Y031400D02*
X023750D01*
X023700Y031350D02*
Y031450D01*
X023650Y026550D02*
X023750D01*
X023700Y026500D02*
Y026600D01*
X023100Y023500D02*
X023200D01*
X023150Y023450D02*
Y023550D01*
X016450Y019900D02*
X016550D01*
X016500Y019850D02*
Y019950D01*
X016450Y020400D02*
X016550D01*
X016500Y020350D02*
Y020450D01*
X020128Y024778D02*
X020228D01*
X020178Y024728D02*
Y024828D01*
X019650Y031650D02*
X019750D01*
X019700Y031600D02*
Y031700D01*
X027550Y022950D02*
X027650D01*
X027600Y022900D02*
Y023000D01*
X027550Y023850D02*
X027650D01*
X027600Y023800D02*
Y023900D01*
X028650Y022750D02*
X028750D01*
X028700Y022700D02*
Y022800D01*
X026250Y022750D02*
X026350D01*
X026300Y022700D02*
Y022800D01*
X021800Y022400D02*
X021900D01*
X021850Y022350D02*
Y022450D01*
X020550Y027300D02*
X020650D01*
X020600Y027250D02*
Y027350D01*
X017200Y037100D02*
X017300D01*
X017250Y037050D02*
Y037150D01*
X017600Y037100D02*
X017700D01*
X017650Y037050D02*
Y037150D01*
X017950Y037100D02*
X018050D01*
X018000Y037050D02*
Y037150D01*
X019900Y037800D02*
X020000D01*
X019950Y037750D02*
Y037850D01*
X019900Y037350D02*
X020000D01*
X019950Y037300D02*
Y037400D01*
X019900Y036900D02*
X020000D01*
X019950Y036850D02*
Y036950D01*
X019900Y038250D02*
X020000D01*
X019950Y038200D02*
Y038300D01*
X020400Y036900D02*
X020500D01*
X020450Y036850D02*
Y036950D01*
X020400Y037350D02*
X020500D01*
X020450Y037300D02*
Y037400D01*
X020402Y037770D02*
X020502D01*
X020452Y037720D02*
Y037820D01*
X020900Y038700D02*
X021000D01*
X020950Y038650D02*
Y038750D01*
X020900Y038250D02*
X021000D01*
X020950Y038200D02*
Y038300D01*
X020900Y037800D02*
X021000D01*
X020950Y037750D02*
Y037850D01*
X020900Y037350D02*
X021000D01*
X020950Y037300D02*
Y037400D01*
X020900Y036900D02*
X021000D01*
X020950Y036850D02*
Y036950D01*
X022950Y028850D02*
X023050D01*
X023000Y028800D02*
Y028900D01*
X019300Y028050D02*
X019400D01*
X019350Y028000D02*
Y028100D01*
X017750Y024150D02*
X017850D01*
X017800Y024100D02*
Y024200D01*
X024175Y024025D02*
X024275D01*
X024225Y023975D02*
Y024075D01*
X016700Y021600D02*
X016800D01*
X016750Y021550D02*
Y021650D01*
M02*