%FSDAX24Y24*%
%MOIN*%
%SFA1B1*%

%IPPOS*%
%ADD24C,0.020000*%
%ADD25C,0.060000*%
%ADD26R,0.059055X0.059055*%
%ADD27C,0.059055*%
%ADD28R,0.059055X0.059055*%
%ADD29C,0.059055*%
%LNpcb_controlboard-1*%
%LPD*%
G54D24*
X018900Y008120D02*
Y010820D01*
X017900Y007120D02*
X018900Y008120D01*
X018300Y011420D02*
X018900Y010820D01*
X018100Y011120D02*
X018500Y010720D01*
X017800Y007520D02*
X018500Y008220D01*
Y010720*
X017800Y010820D02*
X018100Y010520D01*
X017600Y007820D02*
X018100Y008320D01*
Y010520*
X013400Y011120D02*
X018100D01*
X015600Y007120D02*
X017900D01*
X013200Y004720D02*
X015600Y007120D01*
X013200Y003320D02*
Y004720D01*
X012900Y004920D02*
X015500Y007520D01*
X017800*
X012900Y002920D02*
Y004920D01*
X015300Y007820D02*
X017600D01*
X012600Y005120D02*
X015300Y007820D01*
X012600Y002720D02*
Y005120D01*
X013200Y003320D02*
X013600Y002920D01*
X012900D02*
X013300Y002520D01*
X012600Y002720D02*
X013200Y002120D01*
X017330Y002920D02*
X018980Y001270D01*
X013600Y002920D02*
X017330D01*
X012400Y011420D02*
X018300D01*
X011674Y010694D02*
X012400Y011420D01*
X012700Y010420D02*
X013400Y011120D01*
X011674Y009694D02*
Y010694D01*
X011200Y009220D02*
X011674Y009694D01*
X016730Y002520D02*
X017980Y001270D01*
X013300Y002520D02*
X016730D01*
X013200Y002120D02*
X016100D01*
X016200Y002020D02*
X016230D01*
X016980Y001270*
X016100Y002120D02*
X016200Y002020D01*
X013900Y010820D02*
X017800D01*
X012700Y009720D02*
Y010420D01*
X012200Y009220D02*
X012700Y009720D01*
X013674Y010594D02*
X013900Y010820D01*
X013674Y009694D02*
Y010594D01*
X013200Y009220D02*
X013674Y009694D01*
X012300Y002120D02*
X013150Y001270D01*
X013980*
X012300Y002120D02*
Y005320D01*
X011700Y006720D02*
X014200Y009220D01*
X011700Y001720D02*
Y006720D01*
Y001720D02*
X013000Y000420D01*
X012000Y006020D02*
X015200Y009220D01*
X012000Y001920D02*
Y006020D01*
Y001920D02*
X013200Y000720D01*
X013000Y000420D02*
X015130D01*
X013200Y000720D02*
X014430D01*
X015130Y000420D02*
X015980Y001270D01*
X014430Y000720D02*
X014980Y001270D01*
X012300Y005320D02*
X016200Y009220D01*
G54D25*
X001994Y007555D03*
X003765D03*
X001994Y005784D03*
X003765D03*
X001994Y003655D03*
X003765D03*
X001994Y001884D03*
X003765D03*
G54D26*
X017200Y010220D03*
G54D27*
X009200Y009220D03*
Y010220D03*
X010200Y009220D03*
Y010220D03*
X011200Y009220D03*
Y010220D03*
X012200Y009220D03*
Y010220D03*
X013200Y009220D03*
Y010220D03*
X014200Y009220D03*
Y010220D03*
X015200Y009220D03*
Y010220D03*
X016200Y009220D03*
Y010220D03*
X017200Y009220D03*
X018980Y001270D03*
X013980Y004270D03*
X014980D03*
X015980D03*
X016980D03*
X017980D03*
X018980D03*
G54D28*
X013980Y001270D03*
G54D29*
X014980Y001270D03*
X015980D03*
X016980D03*
X017980D03*
M02*