%FSDAX24Y24*%
%MOIN*%
%SFA1B1*%

%IPPOS*%
%ADD10C,0.010000*%
%ADD11C,0.007874*%
%ADD12C,0.005000*%
%LNpcb_controlboard-1*%
%LPD*%
G54D10*
X003411Y006670D02*
D01*
X003410Y006707*
X003406Y006743*
X003399Y006780*
X003390Y006816*
X003379Y006851*
X003365Y006886*
X003349Y006919*
X003330Y006951*
X003309Y006982*
X003287Y007011*
X003262Y007039*
X003235Y007064*
X003207Y007088*
X003177Y007110*
X003145Y007130*
X003112Y007147*
X003079Y007162*
X003044Y007175*
X003008Y007185*
X002972Y007193*
X002935Y007198*
X002898Y007201*
X002861*
X002824Y007198*
X002787Y007193*
X002751Y007185*
X002715Y007175*
X002680Y007162*
X002647Y007147*
X002614Y007130*
X002582Y007110*
X002552Y007088*
X002524Y007064*
X002497Y007039*
X002472Y007011*
X002450Y006982*
X002429Y006951*
X002410Y006919*
X002394Y006886*
X002380Y006851*
X002369Y006816*
X002360Y006780*
X002353Y006743*
X002349Y006707*
X002348Y006670*
X002349Y006632*
X002353Y006596*
X002360Y006559*
X002369Y006523*
X002380Y006488*
X002394Y006453*
X002410Y006420*
X002429Y006388*
X002450Y006357*
X002472Y006328*
X002497Y006300*
X002524Y006275*
X002552Y006251*
X002582Y006229*
X002614Y006209*
X002647Y006192*
X002680Y006177*
X002715Y006164*
X002751Y006154*
X002787Y006146*
X002824Y006141*
X002861Y006138*
X002898*
X002935Y006141*
X002972Y006146*
X003008Y006154*
X003044Y006164*
X003079Y006177*
X003112Y006192*
X003145Y006209*
X003177Y006229*
X003207Y006251*
X003235Y006275*
X003262Y006300*
X003287Y006328*
X003309Y006357*
X003330Y006388*
X003349Y006420*
X003365Y006453*
X003379Y006488*
X003390Y006523*
X003399Y006559*
X003406Y006596*
X003410Y006632*
X003411Y006670*
Y002770D02*
D01*
X003410Y002807*
X003406Y002843*
X003399Y002880*
X003390Y002916*
X003379Y002951*
X003365Y002986*
X003349Y003019*
X003330Y003051*
X003309Y003082*
X003287Y003111*
X003262Y003139*
X003235Y003164*
X003207Y003188*
X003177Y003210*
X003145Y003230*
X003112Y003247*
X003079Y003262*
X003044Y003275*
X003008Y003285*
X002972Y003293*
X002935Y003298*
X002898Y003301*
X002861*
X002824Y003298*
X002787Y003293*
X002751Y003285*
X002715Y003275*
X002680Y003262*
X002647Y003247*
X002614Y003230*
X002582Y003210*
X002552Y003188*
X002524Y003164*
X002497Y003139*
X002472Y003111*
X002450Y003082*
X002429Y003051*
X002410Y003019*
X002394Y002986*
X002380Y002951*
X002369Y002916*
X002360Y002880*
X002353Y002843*
X002349Y002807*
X002348Y002770*
X002349Y002732*
X002353Y002696*
X002360Y002659*
X002369Y002623*
X002380Y002588*
X002394Y002553*
X002410Y002520*
X002429Y002488*
X002450Y002457*
X002472Y002428*
X002497Y002400*
X002524Y002375*
X002552Y002351*
X002582Y002329*
X002614Y002309*
X002647Y002292*
X002680Y002277*
X002715Y002264*
X002751Y002254*
X002787Y002246*
X002824Y002241*
X002861Y002238*
X002898*
X002935Y002241*
X002972Y002246*
X003008Y002254*
X003044Y002264*
X003079Y002277*
X003112Y002292*
X003145Y002309*
X003177Y002329*
X003207Y002351*
X003235Y002375*
X003262Y002400*
X003287Y002428*
X003309Y002457*
X003330Y002488*
X003349Y002520*
X003365Y002553*
X003379Y002588*
X003390Y002623*
X003399Y002659*
X003406Y002696*
X003410Y002732*
X003411Y002770*
X003980Y005620D02*
Y007770D01*
X001730D02*
X003980D01*
X001730Y005620D02*
Y007770D01*
Y005620D02*
X003980D01*
Y001720D02*
Y003870D01*
X001730D02*
X003980D01*
X001730Y001720D02*
Y003870D01*
Y001720D02*
X003980D01*
G54D11*
X013161Y002520D02*
D01*
X013178Y002520*
X013195Y002522*
X013213Y002525*
X013230Y002529*
X013246Y002535*
X013262Y002541*
X013278Y002549*
X013293Y002557*
X013308Y002567*
X013321Y002578*
X013334Y002590*
X013346Y002602*
X013358Y002616*
X013368Y002630*
X013377Y002645*
X013385Y002660*
X013392Y002676*
X013398Y002692*
X013403Y002709*
X013407Y002726*
X013409Y002743*
X013410Y002761*
Y002778*
X013409Y002796*
X013407Y002813*
X013403Y002830*
X013398Y002847*
X013392Y002863*
X013385Y002879*
X013377Y002895*
X013368Y002909*
X013358Y002923*
X013346Y002937*
X013334Y002949*
X013321Y002961*
X013308Y002972*
X013293Y002982*
X013278Y002990*
X013262Y002998*
X013246Y003004*
X013230Y003010*
X013213Y003014*
X013195Y003017*
X013178Y003019*
X013161Y003020*
X003549Y008112D02*
Y008427D01*
Y004212D02*
Y004527D01*
X008700Y010720D02*
X017700D01*
X008700Y008720D02*
X017700D01*
Y010720*
X008700Y008720D02*
Y010720D01*
X013161Y001726D02*
Y002520D01*
Y003020D02*
Y003813D01*
X019791Y001726D02*
Y003813D01*
X013161Y001726D02*
X019791D01*
X013161Y003813D02*
X019791D01*
X007394Y006079D02*
Y006473D01*
X006765Y006079D02*
X006922Y005882D01*
X007237D02*
X007394Y006079D01*
X006765D02*
Y006473D01*
X006922Y005882D02*
X007237D01*
X006765Y007221D02*
X007394D01*
Y006748D02*
Y007221D01*
X006765Y006748D02*
Y007221D01*
X009194Y006079D02*
Y006473D01*
X008565Y006079D02*
X008722Y005882D01*
X009037D02*
X009194Y006079D01*
X008565D02*
Y006473D01*
X008722Y005882D02*
X009037D01*
X008565Y007221D02*
X009194D01*
Y006748D02*
Y007221D01*
X008565Y006748D02*
Y007221D01*
X010994Y006079D02*
Y006473D01*
X010365Y006079D02*
X010522Y005882D01*
X010837D02*
X010994Y006079D01*
X010365D02*
Y006473D01*
X010522Y005882D02*
X010837D01*
X010365Y007221D02*
X010994D01*
Y006748D02*
Y007221D01*
X010365Y006748D02*
Y007221D01*
X012794Y006079D02*
Y006473D01*
X012165Y006079D02*
X012322Y005882D01*
X012637D02*
X012794Y006079D01*
X012165D02*
Y006473D01*
X012322Y005882D02*
X012637D01*
X012165Y007221D02*
X012794D01*
Y006748D02*
Y007221D01*
X012165Y006748D02*
Y007221D01*
X014594Y006079D02*
Y006473D01*
X013965Y006079D02*
X014122Y005882D01*
X014437D02*
X014594Y006079D01*
X013965D02*
Y006473D01*
X014122Y005882D02*
X014437D01*
X013965Y007221D02*
X014594D01*
Y006748D02*
Y007221D01*
X013965Y006748D02*
Y007221D01*
X016394Y006079D02*
Y006473D01*
X015765Y006079D02*
X015922Y005882D01*
X016237D02*
X016394Y006079D01*
X015765D02*
Y006473D01*
X015922Y005882D02*
X016237D01*
X015765Y007221D02*
X016394D01*
Y006748D02*
Y007221D01*
X015765Y006748D02*
Y007221D01*
X018194Y006079D02*
Y006473D01*
X017565Y006079D02*
X017722Y005882D01*
X018037D02*
X018194Y006079D01*
X017565D02*
Y006473D01*
X017722Y005882D02*
X018037D01*
X017565Y007221D02*
X018194D01*
Y006748D02*
Y007221D01*
X017565Y006748D02*
Y007221D01*
X019994Y006079D02*
Y006473D01*
X019365Y006079D02*
X019522Y005882D01*
X019837D02*
X019994Y006079D01*
X019365D02*
Y006473D01*
X019522Y005882D02*
X019837D01*
X019365Y007221D02*
X019994D01*
Y006748D02*
Y007221D01*
X019365Y006748D02*
Y007221D01*
G54D12*
X008400Y009420D02*
X008333D01*
X008366*
Y009220*
X008400Y009253*
X008233D02*
X008200Y009220D01*
X008133*
X008100Y009253*
Y009286*
X008133Y009320*
X008100Y009353*
Y009386*
X008133Y009420*
X008200*
X008233Y009386*
Y009353*
X008200Y009320*
X008233Y009286*
Y009253*
X008200Y009320D02*
X008133D01*
X008400Y010420D02*
X008333D01*
X008366*
Y010220*
X008400Y010253*
X008233Y010220D02*
X008100D01*
Y010253*
X008233Y010386*
Y010420*
X018200D02*
X018133D01*
X018166*
Y010220*
X018200Y010253*
X018266Y009420D02*
X018400D01*
X018266Y009286*
Y009253*
X018300Y009220*
X018366*
X018400Y009253*
X013303Y005026D02*
X013269Y005059D01*
X013203*
X013170Y005026*
Y004993*
X013203Y004959*
X013269*
X013303Y004926*
Y004893*
X013269Y004860*
X013203*
X013170Y004893*
X013369Y005026D02*
X013403Y005059D01*
X013469*
X013503Y005026*
Y004993*
X013469Y004959*
X013436*
X013469*
X013503Y004926*
Y004893*
X013469Y004860*
X013403*
X013369Y004893*
X001833Y004416D02*
X001799Y004449D01*
X001733*
X001700Y004416*
Y004383*
X001733Y004349*
X001799*
X001833Y004316*
Y004283*
X001799Y004250*
X001733*
X001700Y004283*
X002033Y004250D02*
X001899D01*
X002033Y004383*
Y004416*
X001999Y004449*
X001933*
X001899Y004416*
X001833Y008316D02*
X001799Y008349D01*
X001733*
X001700Y008316*
Y008283*
X001733Y008249*
X001799*
X001833Y008216*
Y008183*
X001799Y008150*
X001733*
X001700Y008183*
X001899Y008150D02*
X001966D01*
X001933*
Y008349*
X001899Y008316*
X018790Y008110D02*
Y008309D01*
X018889*
X018923Y008276*
Y008209*
X018889Y008176*
X018790*
X018856D02*
X018923Y008110D01*
X018989D02*
X019056D01*
X019023*
Y008309*
X018989Y008276*
X019156Y008143D02*
X019189Y008110D01*
X019256*
X019289Y008143*
Y008276*
X019256Y008309*
X019189*
X019156Y008276*
Y008243*
X019189Y008209*
X019289*
X016990Y008110D02*
Y008309D01*
X017089*
X017123Y008276*
Y008209*
X017089Y008176*
X016990*
X017056D02*
X017123Y008110D01*
X017189D02*
X017256D01*
X017223*
Y008309*
X017189Y008276*
X017356D02*
X017389Y008309D01*
X017456*
X017489Y008276*
Y008243*
X017456Y008209*
X017489Y008176*
Y008143*
X017456Y008110*
X017389*
X017356Y008143*
Y008176*
X017389Y008209*
X017356Y008243*
Y008276*
X017389Y008209D02*
X017456D01*
X015190Y008110D02*
Y008309D01*
X015289*
X015323Y008276*
Y008209*
X015289Y008176*
X015190*
X015256D02*
X015323Y008110D01*
X015389D02*
X015456D01*
X015423*
Y008309*
X015389Y008276*
X015689Y008309D02*
X015556D01*
Y008209*
X015623Y008243*
X015656*
X015689Y008209*
Y008143*
X015656Y008110*
X015589*
X015556Y008143*
X013390Y008110D02*
Y008309D01*
X013489*
X013523Y008276*
Y008209*
X013489Y008176*
X013390*
X013456D02*
X013523Y008110D01*
X013589D02*
X013656D01*
X013623*
Y008309*
X013589Y008276*
X013856Y008110D02*
Y008309D01*
X013756Y008209*
X013889*
X011510Y008160D02*
Y008359D01*
X011609*
X011643Y008326*
Y008259*
X011609Y008226*
X011510*
X011576D02*
X011643Y008160D01*
X011709D02*
X011776D01*
X011743*
Y008359*
X011709Y008326*
X011876D02*
X011909Y008359D01*
X011976*
X012009Y008326*
Y008293*
X011976Y008259*
X011943*
X011976*
X012009Y008226*
Y008193*
X011976Y008160*
X011909*
X011876Y008193*
X009790Y008110D02*
Y008309D01*
X009889*
X009923Y008276*
Y008209*
X009889Y008176*
X009790*
X009856D02*
X009923Y008110D01*
X009989D02*
X010056D01*
X010023*
Y008309*
X009989Y008276*
X010156D02*
X010189Y008309D01*
X010256*
X010289Y008276*
Y008143*
X010256Y008110*
X010189*
X010156Y008143*
Y008276*
X007990Y008110D02*
Y008309D01*
X008089*
X008123Y008276*
Y008209*
X008089Y008176*
X007990*
X008056D02*
X008123Y008110D01*
X008189Y008276D02*
X008223Y008309D01*
X008289*
X008323Y008276*
Y008243*
X008289Y008209*
X008323Y008176*
Y008143*
X008289Y008110*
X008223*
X008189Y008143*
Y008176*
X008223Y008209*
X008189Y008243*
Y008276*
X008223Y008209D02*
X008289D01*
X006190Y008110D02*
Y008309D01*
X006289*
X006323Y008276*
Y008209*
X006289Y008176*
X006190*
X006256D02*
X006323Y008110D01*
X006389Y008309D02*
X006523D01*
Y008276*
X006389Y008143*
Y008110*
X008100Y011010D02*
Y011209D01*
X008199*
X008233Y011176*
Y011109*
X008199Y011076*
X008100*
X008299Y011010D02*
X008366D01*
X008333*
Y011209*
X008299Y011176*
X019380Y007709D02*
Y007510D01*
X019479*
X019513Y007543*
Y007676*
X019479Y007709*
X019380*
X019579Y007543D02*
X019613Y007510D01*
X019679*
X019713Y007543*
Y007676*
X019679Y007709*
X019613*
X019579Y007676*
Y007643*
X019613Y007609*
X019713*
X017580Y007709D02*
Y007510D01*
X017679*
X017713Y007543*
Y007676*
X017679Y007709*
X017580*
X017779Y007676D02*
X017813Y007709D01*
X017879*
X017913Y007676*
Y007643*
X017879Y007609*
X017913Y007576*
Y007543*
X017879Y007510*
X017813*
X017779Y007543*
Y007576*
X017813Y007609*
X017779Y007643*
Y007676*
X017813Y007609D02*
X017879D01*
X015780Y007709D02*
Y007510D01*
X015879*
X015913Y007543*
Y007676*
X015879Y007709*
X015780*
X016113D02*
X016046Y007676D01*
X015979Y007609*
Y007543*
X016013Y007510*
X016079*
X016113Y007543*
Y007576*
X016079Y007609*
X015979*
X013980Y007709D02*
Y007510D01*
X014079*
X014113Y007543*
Y007676*
X014079Y007709*
X013980*
X014313D02*
X014179D01*
Y007609*
X014246Y007643*
X014279*
X014313Y007609*
Y007543*
X014279Y007510*
X014213*
X014179Y007543*
X012180Y007709D02*
Y007510D01*
X012279*
X012313Y007543*
Y007676*
X012279Y007709*
X012180*
X012479Y007510D02*
Y007709D01*
X012379Y007609*
X012513*
X010380Y007709D02*
Y007510D01*
X010479*
X010513Y007543*
Y007676*
X010479Y007709*
X010380*
X010579Y007676D02*
X010613Y007709D01*
X010679*
X010713Y007676*
Y007643*
X010679Y007609*
X010646*
X010679*
X010713Y007576*
Y007543*
X010679Y007510*
X010613*
X010579Y007543*
X008580Y007709D02*
Y007510D01*
X008679*
X008713Y007543*
Y007676*
X008679Y007709*
X008580*
X008913Y007510D02*
X008779D01*
X008913Y007643*
Y007676*
X008879Y007709*
X008813*
X008779Y007676*
X006780Y007709D02*
Y007510D01*
X006879*
X006913Y007543*
Y007676*
X006879Y007709*
X006780*
X006979Y007510D02*
X007046D01*
X007013*
Y007709*
X006979Y007676*
X002473Y005026D02*
X002439Y005059D01*
X002373*
X002340Y005026*
Y004893*
X002373Y004860*
X002439*
X002473Y004893*
X002673Y004860D02*
X002539D01*
X002673Y004993*
Y005026*
X002639Y005059*
X002573*
X002539Y005026*
X002473Y008926D02*
X002439Y008959D01*
X002373*
X002340Y008926*
Y008793*
X002373Y008760*
X002439*
X002473Y008793*
X002539Y008760D02*
X002606D01*
X002573*
Y008959*
X002539Y008926*
M02*