%FSDAX24Y24*%
%MOIN*%
%SFA1B1*%

%IPPOS*%
%ADD12C,0.005000*%
%ADD31C,0.006665*%
%LNpcb_controlboard-1*%
%LPD*%
G54D12*
X001994Y007355D02*
X002094Y007455D01*
X002194*
X002094Y007555*
X002194Y007655*
X002094*
X001994Y007755*
X001894Y007655*
X001794*
X001894Y007555*
X001794Y007455*
X001894*
X001994Y007355*
X003765D02*
X003865Y007455D01*
X003965*
X003865Y007555*
X003965Y007655*
X003865*
X003765Y007755*
X003665Y007655*
X003565*
X003665Y007555*
X003565Y007455*
X003665*
X003765Y007355*
X001994Y005584D02*
X002094Y005684D01*
X002194*
X002094Y005784*
X002194Y005884*
X002094*
X001994Y005984*
X001894Y005884*
X001794*
X001894Y005784*
X001794Y005684*
X001894*
X001994Y005584*
X003765D02*
X003865Y005684D01*
X003965*
X003865Y005784*
X003965Y005884*
X003865*
X003765Y005984*
X003665Y005884*
X003565*
X003665Y005784*
X003565Y005684*
X003665*
X003765Y005584*
X001994Y003455D02*
X002094Y003555D01*
X002194*
X002094Y003655*
X002194Y003755*
X002094*
X001994Y003855*
X001894Y003755*
X001794*
X001894Y003655*
X001794Y003555*
X001894*
X001994Y003455*
X003765D02*
X003865Y003555D01*
X003965*
X003865Y003655*
X003965Y003755*
X003865*
X003765Y003855*
X003665Y003755*
X003565*
X003665Y003655*
X003565Y003555*
X003665*
X003765Y003455*
X001994Y001684D02*
X002094Y001784D01*
X002194*
X002094Y001884*
X002194Y001984*
X002094*
X001994Y002084*
X001894Y001984*
X001794*
X001894Y001884*
X001794Y001784*
X001894*
X001994Y001684*
X003765D02*
X003865Y001784D01*
X003965*
X003865Y001884*
X003965Y001984*
X003865*
X003765Y002084*
X003665Y001984*
X003565*
X003665Y001884*
X003565Y001784*
X003665*
X003765Y001684*
G54D31*
X017400Y010220D02*
D01*
X017399Y010233*
X017398Y010247*
X017395Y010261*
X017392Y010275*
X017387Y010288*
X017382Y010301*
X017376Y010313*
X017369Y010325*
X017361Y010337*
X017353Y010348*
X017343Y010358*
X017333Y010368*
X017323Y010377*
X017311Y010385*
X017300Y010393*
X017287Y010399*
X017274Y010405*
X017261Y010410*
X017248Y010414*
X017234Y010416*
X017220Y010418*
X017206Y010419*
X017193*
X017179Y010418*
X017165Y010416*
X017151Y010414*
X017138Y010410*
X017125Y010405*
X017112Y010399*
X017100Y010393*
X017088Y010385*
X017076Y010377*
X017066Y010368*
X017056Y010358*
X017046Y010348*
X017038Y010337*
X017030Y010325*
X017023Y010313*
X017017Y010301*
X017012Y010288*
X017007Y010275*
X017004Y010261*
X017001Y010247*
X017000Y010233*
X017000Y010220*
X017000Y010206*
X017001Y010192*
X017004Y010178*
X017007Y010164*
X017012Y010151*
X017017Y010138*
X017023Y010126*
X017030Y010114*
X017038Y010102*
X017046Y010091*
X017056Y010081*
X017066Y010071*
X017076Y010062*
X017088Y010054*
X017100Y010046*
X017112Y010040*
X017125Y010034*
X017138Y010029*
X017151Y010025*
X017165Y010023*
X017179Y010021*
X017193Y010020*
X017206*
X017220Y010021*
X017234Y010023*
X017248Y010025*
X017261Y010029*
X017274Y010034*
X017287Y010040*
X017300Y010046*
X017311Y010054*
X017323Y010062*
X017333Y010071*
X017343Y010081*
X017353Y010091*
X017361Y010102*
X017369Y010114*
X017376Y010126*
X017382Y010138*
X017387Y010151*
X017392Y010164*
X017395Y010178*
X017398Y010192*
X017399Y010206*
X017400Y010220*
X009400Y009220D02*
D01*
X009399Y009233*
X009398Y009247*
X009395Y009261*
X009392Y009275*
X009387Y009288*
X009382Y009301*
X009376Y009313*
X009369Y009325*
X009361Y009337*
X009353Y009348*
X009343Y009358*
X009333Y009368*
X009323Y009377*
X009311Y009385*
X009300Y009393*
X009287Y009399*
X009274Y009405*
X009261Y009410*
X009248Y009414*
X009234Y009416*
X009220Y009418*
X009206Y009419*
X009193*
X009179Y009418*
X009165Y009416*
X009151Y009414*
X009138Y009410*
X009125Y009405*
X009112Y009399*
X009100Y009393*
X009088Y009385*
X009076Y009377*
X009066Y009368*
X009056Y009358*
X009046Y009348*
X009038Y009337*
X009030Y009325*
X009023Y009313*
X009017Y009301*
X009012Y009288*
X009007Y009275*
X009004Y009261*
X009001Y009247*
X009000Y009233*
X009000Y009220*
X009000Y009206*
X009001Y009192*
X009004Y009178*
X009007Y009164*
X009012Y009151*
X009017Y009138*
X009023Y009126*
X009030Y009114*
X009038Y009102*
X009046Y009091*
X009056Y009081*
X009066Y009071*
X009076Y009062*
X009088Y009054*
X009100Y009046*
X009112Y009040*
X009125Y009034*
X009138Y009029*
X009151Y009025*
X009165Y009023*
X009179Y009021*
X009193Y009020*
X009206*
X009220Y009021*
X009234Y009023*
X009248Y009025*
X009261Y009029*
X009274Y009034*
X009287Y009040*
X009300Y009046*
X009311Y009054*
X009323Y009062*
X009333Y009071*
X009343Y009081*
X009353Y009091*
X009361Y009102*
X009369Y009114*
X009376Y009126*
X009382Y009138*
X009387Y009151*
X009392Y009164*
X009395Y009178*
X009398Y009192*
X009399Y009206*
X009400Y009220*
Y010220D02*
D01*
X009399Y010233*
X009398Y010247*
X009395Y010261*
X009392Y010275*
X009387Y010288*
X009382Y010301*
X009376Y010313*
X009369Y010325*
X009361Y010337*
X009353Y010348*
X009343Y010358*
X009333Y010368*
X009323Y010377*
X009311Y010385*
X009300Y010393*
X009287Y010399*
X009274Y010405*
X009261Y010410*
X009248Y010414*
X009234Y010416*
X009220Y010418*
X009206Y010419*
X009193*
X009179Y010418*
X009165Y010416*
X009151Y010414*
X009138Y010410*
X009125Y010405*
X009112Y010399*
X009100Y010393*
X009088Y010385*
X009076Y010377*
X009066Y010368*
X009056Y010358*
X009046Y010348*
X009038Y010337*
X009030Y010325*
X009023Y010313*
X009017Y010301*
X009012Y010288*
X009007Y010275*
X009004Y010261*
X009001Y010247*
X009000Y010233*
X009000Y010220*
X009000Y010206*
X009001Y010192*
X009004Y010178*
X009007Y010164*
X009012Y010151*
X009017Y010138*
X009023Y010126*
X009030Y010114*
X009038Y010102*
X009046Y010091*
X009056Y010081*
X009066Y010071*
X009076Y010062*
X009088Y010054*
X009100Y010046*
X009112Y010040*
X009125Y010034*
X009138Y010029*
X009151Y010025*
X009165Y010023*
X009179Y010021*
X009193Y010020*
X009206*
X009220Y010021*
X009234Y010023*
X009248Y010025*
X009261Y010029*
X009274Y010034*
X009287Y010040*
X009300Y010046*
X009311Y010054*
X009323Y010062*
X009333Y010071*
X009343Y010081*
X009353Y010091*
X009361Y010102*
X009369Y010114*
X009376Y010126*
X009382Y010138*
X009387Y010151*
X009392Y010164*
X009395Y010178*
X009398Y010192*
X009399Y010206*
X009400Y010220*
X010400Y009220D02*
D01*
X010399Y009233*
X010398Y009247*
X010395Y009261*
X010392Y009275*
X010387Y009288*
X010382Y009301*
X010376Y009313*
X010369Y009325*
X010361Y009337*
X010353Y009348*
X010343Y009358*
X010333Y009368*
X010323Y009377*
X010311Y009385*
X010300Y009393*
X010287Y009399*
X010274Y009405*
X010261Y009410*
X010248Y009414*
X010234Y009416*
X010220Y009418*
X010206Y009419*
X010193*
X010179Y009418*
X010165Y009416*
X010151Y009414*
X010138Y009410*
X010125Y009405*
X010112Y009399*
X010100Y009393*
X010088Y009385*
X010076Y009377*
X010066Y009368*
X010056Y009358*
X010046Y009348*
X010038Y009337*
X010030Y009325*
X010023Y009313*
X010017Y009301*
X010012Y009288*
X010007Y009275*
X010004Y009261*
X010001Y009247*
X010000Y009233*
X010000Y009220*
X010000Y009206*
X010001Y009192*
X010004Y009178*
X010007Y009164*
X010012Y009151*
X010017Y009138*
X010023Y009126*
X010030Y009114*
X010038Y009102*
X010046Y009091*
X010056Y009081*
X010066Y009071*
X010076Y009062*
X010088Y009054*
X010100Y009046*
X010112Y009040*
X010125Y009034*
X010138Y009029*
X010151Y009025*
X010165Y009023*
X010179Y009021*
X010193Y009020*
X010206*
X010220Y009021*
X010234Y009023*
X010248Y009025*
X010261Y009029*
X010274Y009034*
X010287Y009040*
X010300Y009046*
X010311Y009054*
X010323Y009062*
X010333Y009071*
X010343Y009081*
X010353Y009091*
X010361Y009102*
X010369Y009114*
X010376Y009126*
X010382Y009138*
X010387Y009151*
X010392Y009164*
X010395Y009178*
X010398Y009192*
X010399Y009206*
X010400Y009220*
Y010220D02*
D01*
X010399Y010233*
X010398Y010247*
X010395Y010261*
X010392Y010275*
X010387Y010288*
X010382Y010301*
X010376Y010313*
X010369Y010325*
X010361Y010337*
X010353Y010348*
X010343Y010358*
X010333Y010368*
X010323Y010377*
X010311Y010385*
X010300Y010393*
X010287Y010399*
X010274Y010405*
X010261Y010410*
X010248Y010414*
X010234Y010416*
X010220Y010418*
X010206Y010419*
X010193*
X010179Y010418*
X010165Y010416*
X010151Y010414*
X010138Y010410*
X010125Y010405*
X010112Y010399*
X010100Y010393*
X010088Y010385*
X010076Y010377*
X010066Y010368*
X010056Y010358*
X010046Y010348*
X010038Y010337*
X010030Y010325*
X010023Y010313*
X010017Y010301*
X010012Y010288*
X010007Y010275*
X010004Y010261*
X010001Y010247*
X010000Y010233*
X010000Y010220*
X010000Y010206*
X010001Y010192*
X010004Y010178*
X010007Y010164*
X010012Y010151*
X010017Y010138*
X010023Y010126*
X010030Y010114*
X010038Y010102*
X010046Y010091*
X010056Y010081*
X010066Y010071*
X010076Y010062*
X010088Y010054*
X010100Y010046*
X010112Y010040*
X010125Y010034*
X010138Y010029*
X010151Y010025*
X010165Y010023*
X010179Y010021*
X010193Y010020*
X010206*
X010220Y010021*
X010234Y010023*
X010248Y010025*
X010261Y010029*
X010274Y010034*
X010287Y010040*
X010300Y010046*
X010311Y010054*
X010323Y010062*
X010333Y010071*
X010343Y010081*
X010353Y010091*
X010361Y010102*
X010369Y010114*
X010376Y010126*
X010382Y010138*
X010387Y010151*
X010392Y010164*
X010395Y010178*
X010398Y010192*
X010399Y010206*
X010400Y010220*
X011400Y009220D02*
D01*
X011399Y009233*
X011398Y009247*
X011395Y009261*
X011392Y009275*
X011387Y009288*
X011382Y009301*
X011376Y009313*
X011369Y009325*
X011361Y009337*
X011353Y009348*
X011343Y009358*
X011333Y009368*
X011323Y009377*
X011311Y009385*
X011300Y009393*
X011287Y009399*
X011274Y009405*
X011261Y009410*
X011248Y009414*
X011234Y009416*
X011220Y009418*
X011206Y009419*
X011193*
X011179Y009418*
X011165Y009416*
X011151Y009414*
X011138Y009410*
X011125Y009405*
X011112Y009399*
X011100Y009393*
X011088Y009385*
X011076Y009377*
X011066Y009368*
X011056Y009358*
X011046Y009348*
X011038Y009337*
X011030Y009325*
X011023Y009313*
X011017Y009301*
X011012Y009288*
X011007Y009275*
X011004Y009261*
X011001Y009247*
X011000Y009233*
X011000Y009220*
X011000Y009206*
X011001Y009192*
X011004Y009178*
X011007Y009164*
X011012Y009151*
X011017Y009138*
X011023Y009126*
X011030Y009114*
X011038Y009102*
X011046Y009091*
X011056Y009081*
X011066Y009071*
X011076Y009062*
X011088Y009054*
X011100Y009046*
X011112Y009040*
X011125Y009034*
X011138Y009029*
X011151Y009025*
X011165Y009023*
X011179Y009021*
X011193Y009020*
X011206*
X011220Y009021*
X011234Y009023*
X011248Y009025*
X011261Y009029*
X011274Y009034*
X011287Y009040*
X011300Y009046*
X011311Y009054*
X011323Y009062*
X011333Y009071*
X011343Y009081*
X011353Y009091*
X011361Y009102*
X011369Y009114*
X011376Y009126*
X011382Y009138*
X011387Y009151*
X011392Y009164*
X011395Y009178*
X011398Y009192*
X011399Y009206*
X011400Y009220*
Y010220D02*
D01*
X011399Y010233*
X011398Y010247*
X011395Y010261*
X011392Y010275*
X011387Y010288*
X011382Y010301*
X011376Y010313*
X011369Y010325*
X011361Y010337*
X011353Y010348*
X011343Y010358*
X011333Y010368*
X011323Y010377*
X011311Y010385*
X011300Y010393*
X011287Y010399*
X011274Y010405*
X011261Y010410*
X011248Y010414*
X011234Y010416*
X011220Y010418*
X011206Y010419*
X011193*
X011179Y010418*
X011165Y010416*
X011151Y010414*
X011138Y010410*
X011125Y010405*
X011112Y010399*
X011100Y010393*
X011088Y010385*
X011076Y010377*
X011066Y010368*
X011056Y010358*
X011046Y010348*
X011038Y010337*
X011030Y010325*
X011023Y010313*
X011017Y010301*
X011012Y010288*
X011007Y010275*
X011004Y010261*
X011001Y010247*
X011000Y010233*
X011000Y010220*
X011000Y010206*
X011001Y010192*
X011004Y010178*
X011007Y010164*
X011012Y010151*
X011017Y010138*
X011023Y010126*
X011030Y010114*
X011038Y010102*
X011046Y010091*
X011056Y010081*
X011066Y010071*
X011076Y010062*
X011088Y010054*
X011100Y010046*
X011112Y010040*
X011125Y010034*
X011138Y010029*
X011151Y010025*
X011165Y010023*
X011179Y010021*
X011193Y010020*
X011206*
X011220Y010021*
X011234Y010023*
X011248Y010025*
X011261Y010029*
X011274Y010034*
X011287Y010040*
X011300Y010046*
X011311Y010054*
X011323Y010062*
X011333Y010071*
X011343Y010081*
X011353Y010091*
X011361Y010102*
X011369Y010114*
X011376Y010126*
X011382Y010138*
X011387Y010151*
X011392Y010164*
X011395Y010178*
X011398Y010192*
X011399Y010206*
X011400Y010220*
X012400Y009220D02*
D01*
X012399Y009233*
X012398Y009247*
X012395Y009261*
X012392Y009275*
X012387Y009288*
X012382Y009301*
X012376Y009313*
X012369Y009325*
X012361Y009337*
X012353Y009348*
X012343Y009358*
X012333Y009368*
X012323Y009377*
X012311Y009385*
X012300Y009393*
X012287Y009399*
X012274Y009405*
X012261Y009410*
X012248Y009414*
X012234Y009416*
X012220Y009418*
X012206Y009419*
X012193*
X012179Y009418*
X012165Y009416*
X012151Y009414*
X012138Y009410*
X012125Y009405*
X012112Y009399*
X012100Y009393*
X012088Y009385*
X012076Y009377*
X012066Y009368*
X012056Y009358*
X012046Y009348*
X012038Y009337*
X012030Y009325*
X012023Y009313*
X012017Y009301*
X012012Y009288*
X012007Y009275*
X012004Y009261*
X012001Y009247*
X012000Y009233*
X012000Y009220*
X012000Y009206*
X012001Y009192*
X012004Y009178*
X012007Y009164*
X012012Y009151*
X012017Y009138*
X012023Y009126*
X012030Y009114*
X012038Y009102*
X012046Y009091*
X012056Y009081*
X012066Y009071*
X012076Y009062*
X012088Y009054*
X012100Y009046*
X012112Y009040*
X012125Y009034*
X012138Y009029*
X012151Y009025*
X012165Y009023*
X012179Y009021*
X012193Y009020*
X012206*
X012220Y009021*
X012234Y009023*
X012248Y009025*
X012261Y009029*
X012274Y009034*
X012287Y009040*
X012300Y009046*
X012311Y009054*
X012323Y009062*
X012333Y009071*
X012343Y009081*
X012353Y009091*
X012361Y009102*
X012369Y009114*
X012376Y009126*
X012382Y009138*
X012387Y009151*
X012392Y009164*
X012395Y009178*
X012398Y009192*
X012399Y009206*
X012400Y009220*
Y010220D02*
D01*
X012399Y010233*
X012398Y010247*
X012395Y010261*
X012392Y010275*
X012387Y010288*
X012382Y010301*
X012376Y010313*
X012369Y010325*
X012361Y010337*
X012353Y010348*
X012343Y010358*
X012333Y010368*
X012323Y010377*
X012311Y010385*
X012300Y010393*
X012287Y010399*
X012274Y010405*
X012261Y010410*
X012248Y010414*
X012234Y010416*
X012220Y010418*
X012206Y010419*
X012193*
X012179Y010418*
X012165Y010416*
X012151Y010414*
X012138Y010410*
X012125Y010405*
X012112Y010399*
X012100Y010393*
X012088Y010385*
X012076Y010377*
X012066Y010368*
X012056Y010358*
X012046Y010348*
X012038Y010337*
X012030Y010325*
X012023Y010313*
X012017Y010301*
X012012Y010288*
X012007Y010275*
X012004Y010261*
X012001Y010247*
X012000Y010233*
X012000Y010220*
X012000Y010206*
X012001Y010192*
X012004Y010178*
X012007Y010164*
X012012Y010151*
X012017Y010138*
X012023Y010126*
X012030Y010114*
X012038Y010102*
X012046Y010091*
X012056Y010081*
X012066Y010071*
X012076Y010062*
X012088Y010054*
X012100Y010046*
X012112Y010040*
X012125Y010034*
X012138Y010029*
X012151Y010025*
X012165Y010023*
X012179Y010021*
X012193Y010020*
X012206*
X012220Y010021*
X012234Y010023*
X012248Y010025*
X012261Y010029*
X012274Y010034*
X012287Y010040*
X012300Y010046*
X012311Y010054*
X012323Y010062*
X012333Y010071*
X012343Y010081*
X012353Y010091*
X012361Y010102*
X012369Y010114*
X012376Y010126*
X012382Y010138*
X012387Y010151*
X012392Y010164*
X012395Y010178*
X012398Y010192*
X012399Y010206*
X012400Y010220*
X013400Y009220D02*
D01*
X013399Y009233*
X013398Y009247*
X013395Y009261*
X013392Y009275*
X013387Y009288*
X013382Y009301*
X013376Y009313*
X013369Y009325*
X013361Y009337*
X013353Y009348*
X013343Y009358*
X013333Y009368*
X013323Y009377*
X013311Y009385*
X013300Y009393*
X013287Y009399*
X013274Y009405*
X013261Y009410*
X013248Y009414*
X013234Y009416*
X013220Y009418*
X013206Y009419*
X013193*
X013179Y009418*
X013165Y009416*
X013151Y009414*
X013138Y009410*
X013125Y009405*
X013112Y009399*
X013100Y009393*
X013088Y009385*
X013076Y009377*
X013066Y009368*
X013056Y009358*
X013046Y009348*
X013038Y009337*
X013030Y009325*
X013023Y009313*
X013017Y009301*
X013012Y009288*
X013007Y009275*
X013004Y009261*
X013001Y009247*
X013000Y009233*
X013000Y009220*
X013000Y009206*
X013001Y009192*
X013004Y009178*
X013007Y009164*
X013012Y009151*
X013017Y009138*
X013023Y009126*
X013030Y009114*
X013038Y009102*
X013046Y009091*
X013056Y009081*
X013066Y009071*
X013076Y009062*
X013088Y009054*
X013100Y009046*
X013112Y009040*
X013125Y009034*
X013138Y009029*
X013151Y009025*
X013165Y009023*
X013179Y009021*
X013193Y009020*
X013206*
X013220Y009021*
X013234Y009023*
X013248Y009025*
X013261Y009029*
X013274Y009034*
X013287Y009040*
X013300Y009046*
X013311Y009054*
X013323Y009062*
X013333Y009071*
X013343Y009081*
X013353Y009091*
X013361Y009102*
X013369Y009114*
X013376Y009126*
X013382Y009138*
X013387Y009151*
X013392Y009164*
X013395Y009178*
X013398Y009192*
X013399Y009206*
X013400Y009220*
Y010220D02*
D01*
X013399Y010233*
X013398Y010247*
X013395Y010261*
X013392Y010275*
X013387Y010288*
X013382Y010301*
X013376Y010313*
X013369Y010325*
X013361Y010337*
X013353Y010348*
X013343Y010358*
X013333Y010368*
X013323Y010377*
X013311Y010385*
X013300Y010393*
X013287Y010399*
X013274Y010405*
X013261Y010410*
X013248Y010414*
X013234Y010416*
X013220Y010418*
X013206Y010419*
X013193*
X013179Y010418*
X013165Y010416*
X013151Y010414*
X013138Y010410*
X013125Y010405*
X013112Y010399*
X013100Y010393*
X013088Y010385*
X013076Y010377*
X013066Y010368*
X013056Y010358*
X013046Y010348*
X013038Y010337*
X013030Y010325*
X013023Y010313*
X013017Y010301*
X013012Y010288*
X013007Y010275*
X013004Y010261*
X013001Y010247*
X013000Y010233*
X013000Y010220*
X013000Y010206*
X013001Y010192*
X013004Y010178*
X013007Y010164*
X013012Y010151*
X013017Y010138*
X013023Y010126*
X013030Y010114*
X013038Y010102*
X013046Y010091*
X013056Y010081*
X013066Y010071*
X013076Y010062*
X013088Y010054*
X013100Y010046*
X013112Y010040*
X013125Y010034*
X013138Y010029*
X013151Y010025*
X013165Y010023*
X013179Y010021*
X013193Y010020*
X013206*
X013220Y010021*
X013234Y010023*
X013248Y010025*
X013261Y010029*
X013274Y010034*
X013287Y010040*
X013300Y010046*
X013311Y010054*
X013323Y010062*
X013333Y010071*
X013343Y010081*
X013353Y010091*
X013361Y010102*
X013369Y010114*
X013376Y010126*
X013382Y010138*
X013387Y010151*
X013392Y010164*
X013395Y010178*
X013398Y010192*
X013399Y010206*
X013400Y010220*
X014400Y009220D02*
D01*
X014399Y009233*
X014398Y009247*
X014395Y009261*
X014392Y009275*
X014387Y009288*
X014382Y009301*
X014376Y009313*
X014369Y009325*
X014361Y009337*
X014353Y009348*
X014343Y009358*
X014333Y009368*
X014323Y009377*
X014311Y009385*
X014300Y009393*
X014287Y009399*
X014274Y009405*
X014261Y009410*
X014248Y009414*
X014234Y009416*
X014220Y009418*
X014206Y009419*
X014193*
X014179Y009418*
X014165Y009416*
X014151Y009414*
X014138Y009410*
X014125Y009405*
X014112Y009399*
X014100Y009393*
X014088Y009385*
X014076Y009377*
X014066Y009368*
X014056Y009358*
X014046Y009348*
X014038Y009337*
X014030Y009325*
X014023Y009313*
X014017Y009301*
X014012Y009288*
X014007Y009275*
X014004Y009261*
X014001Y009247*
X014000Y009233*
X014000Y009220*
X014000Y009206*
X014001Y009192*
X014004Y009178*
X014007Y009164*
X014012Y009151*
X014017Y009138*
X014023Y009126*
X014030Y009114*
X014038Y009102*
X014046Y009091*
X014056Y009081*
X014066Y009071*
X014076Y009062*
X014088Y009054*
X014100Y009046*
X014112Y009040*
X014125Y009034*
X014138Y009029*
X014151Y009025*
X014165Y009023*
X014179Y009021*
X014193Y009020*
X014206*
X014220Y009021*
X014234Y009023*
X014248Y009025*
X014261Y009029*
X014274Y009034*
X014287Y009040*
X014300Y009046*
X014311Y009054*
X014323Y009062*
X014333Y009071*
X014343Y009081*
X014353Y009091*
X014361Y009102*
X014369Y009114*
X014376Y009126*
X014382Y009138*
X014387Y009151*
X014392Y009164*
X014395Y009178*
X014398Y009192*
X014399Y009206*
X014400Y009220*
Y010220D02*
D01*
X014399Y010233*
X014398Y010247*
X014395Y010261*
X014392Y010275*
X014387Y010288*
X014382Y010301*
X014376Y010313*
X014369Y010325*
X014361Y010337*
X014353Y010348*
X014343Y010358*
X014333Y010368*
X014323Y010377*
X014311Y010385*
X014300Y010393*
X014287Y010399*
X014274Y010405*
X014261Y010410*
X014248Y010414*
X014234Y010416*
X014220Y010418*
X014206Y010419*
X014193*
X014179Y010418*
X014165Y010416*
X014151Y010414*
X014138Y010410*
X014125Y010405*
X014112Y010399*
X014100Y010393*
X014088Y010385*
X014076Y010377*
X014066Y010368*
X014056Y010358*
X014046Y010348*
X014038Y010337*
X014030Y010325*
X014023Y010313*
X014017Y010301*
X014012Y010288*
X014007Y010275*
X014004Y010261*
X014001Y010247*
X014000Y010233*
X014000Y010220*
X014000Y010206*
X014001Y010192*
X014004Y010178*
X014007Y010164*
X014012Y010151*
X014017Y010138*
X014023Y010126*
X014030Y010114*
X014038Y010102*
X014046Y010091*
X014056Y010081*
X014066Y010071*
X014076Y010062*
X014088Y010054*
X014100Y010046*
X014112Y010040*
X014125Y010034*
X014138Y010029*
X014151Y010025*
X014165Y010023*
X014179Y010021*
X014193Y010020*
X014206*
X014220Y010021*
X014234Y010023*
X014248Y010025*
X014261Y010029*
X014274Y010034*
X014287Y010040*
X014300Y010046*
X014311Y010054*
X014323Y010062*
X014333Y010071*
X014343Y010081*
X014353Y010091*
X014361Y010102*
X014369Y010114*
X014376Y010126*
X014382Y010138*
X014387Y010151*
X014392Y010164*
X014395Y010178*
X014398Y010192*
X014399Y010206*
X014400Y010220*
X015400Y009220D02*
D01*
X015399Y009233*
X015398Y009247*
X015395Y009261*
X015392Y009275*
X015387Y009288*
X015382Y009301*
X015376Y009313*
X015369Y009325*
X015361Y009337*
X015353Y009348*
X015343Y009358*
X015333Y009368*
X015323Y009377*
X015311Y009385*
X015300Y009393*
X015287Y009399*
X015274Y009405*
X015261Y009410*
X015248Y009414*
X015234Y009416*
X015220Y009418*
X015206Y009419*
X015193*
X015179Y009418*
X015165Y009416*
X015151Y009414*
X015138Y009410*
X015125Y009405*
X015112Y009399*
X015100Y009393*
X015088Y009385*
X015076Y009377*
X015066Y009368*
X015056Y009358*
X015046Y009348*
X015038Y009337*
X015030Y009325*
X015023Y009313*
X015017Y009301*
X015012Y009288*
X015007Y009275*
X015004Y009261*
X015001Y009247*
X015000Y009233*
X015000Y009220*
X015000Y009206*
X015001Y009192*
X015004Y009178*
X015007Y009164*
X015012Y009151*
X015017Y009138*
X015023Y009126*
X015030Y009114*
X015038Y009102*
X015046Y009091*
X015056Y009081*
X015066Y009071*
X015076Y009062*
X015088Y009054*
X015100Y009046*
X015112Y009040*
X015125Y009034*
X015138Y009029*
X015151Y009025*
X015165Y009023*
X015179Y009021*
X015193Y009020*
X015206*
X015220Y009021*
X015234Y009023*
X015248Y009025*
X015261Y009029*
X015274Y009034*
X015287Y009040*
X015300Y009046*
X015311Y009054*
X015323Y009062*
X015333Y009071*
X015343Y009081*
X015353Y009091*
X015361Y009102*
X015369Y009114*
X015376Y009126*
X015382Y009138*
X015387Y009151*
X015392Y009164*
X015395Y009178*
X015398Y009192*
X015399Y009206*
X015400Y009220*
Y010220D02*
D01*
X015399Y010233*
X015398Y010247*
X015395Y010261*
X015392Y010275*
X015387Y010288*
X015382Y010301*
X015376Y010313*
X015369Y010325*
X015361Y010337*
X015353Y010348*
X015343Y010358*
X015333Y010368*
X015323Y010377*
X015311Y010385*
X015300Y010393*
X015287Y010399*
X015274Y010405*
X015261Y010410*
X015248Y010414*
X015234Y010416*
X015220Y010418*
X015206Y010419*
X015193*
X015179Y010418*
X015165Y010416*
X015151Y010414*
X015138Y010410*
X015125Y010405*
X015112Y010399*
X015100Y010393*
X015088Y010385*
X015076Y010377*
X015066Y010368*
X015056Y010358*
X015046Y010348*
X015038Y010337*
X015030Y010325*
X015023Y010313*
X015017Y010301*
X015012Y010288*
X015007Y010275*
X015004Y010261*
X015001Y010247*
X015000Y010233*
X015000Y010220*
X015000Y010206*
X015001Y010192*
X015004Y010178*
X015007Y010164*
X015012Y010151*
X015017Y010138*
X015023Y010126*
X015030Y010114*
X015038Y010102*
X015046Y010091*
X015056Y010081*
X015066Y010071*
X015076Y010062*
X015088Y010054*
X015100Y010046*
X015112Y010040*
X015125Y010034*
X015138Y010029*
X015151Y010025*
X015165Y010023*
X015179Y010021*
X015193Y010020*
X015206*
X015220Y010021*
X015234Y010023*
X015248Y010025*
X015261Y010029*
X015274Y010034*
X015287Y010040*
X015300Y010046*
X015311Y010054*
X015323Y010062*
X015333Y010071*
X015343Y010081*
X015353Y010091*
X015361Y010102*
X015369Y010114*
X015376Y010126*
X015382Y010138*
X015387Y010151*
X015392Y010164*
X015395Y010178*
X015398Y010192*
X015399Y010206*
X015400Y010220*
X016400Y009220D02*
D01*
X016399Y009233*
X016398Y009247*
X016395Y009261*
X016392Y009275*
X016387Y009288*
X016382Y009301*
X016376Y009313*
X016369Y009325*
X016361Y009337*
X016353Y009348*
X016343Y009358*
X016333Y009368*
X016323Y009377*
X016311Y009385*
X016300Y009393*
X016287Y009399*
X016274Y009405*
X016261Y009410*
X016248Y009414*
X016234Y009416*
X016220Y009418*
X016206Y009419*
X016193*
X016179Y009418*
X016165Y009416*
X016151Y009414*
X016138Y009410*
X016125Y009405*
X016112Y009399*
X016100Y009393*
X016088Y009385*
X016076Y009377*
X016066Y009368*
X016056Y009358*
X016046Y009348*
X016038Y009337*
X016030Y009325*
X016023Y009313*
X016017Y009301*
X016012Y009288*
X016007Y009275*
X016004Y009261*
X016001Y009247*
X016000Y009233*
X016000Y009220*
X016000Y009206*
X016001Y009192*
X016004Y009178*
X016007Y009164*
X016012Y009151*
X016017Y009138*
X016023Y009126*
X016030Y009114*
X016038Y009102*
X016046Y009091*
X016056Y009081*
X016066Y009071*
X016076Y009062*
X016088Y009054*
X016100Y009046*
X016112Y009040*
X016125Y009034*
X016138Y009029*
X016151Y009025*
X016165Y009023*
X016179Y009021*
X016193Y009020*
X016206*
X016220Y009021*
X016234Y009023*
X016248Y009025*
X016261Y009029*
X016274Y009034*
X016287Y009040*
X016300Y009046*
X016311Y009054*
X016323Y009062*
X016333Y009071*
X016343Y009081*
X016353Y009091*
X016361Y009102*
X016369Y009114*
X016376Y009126*
X016382Y009138*
X016387Y009151*
X016392Y009164*
X016395Y009178*
X016398Y009192*
X016399Y009206*
X016400Y009220*
Y010220D02*
D01*
X016399Y010233*
X016398Y010247*
X016395Y010261*
X016392Y010275*
X016387Y010288*
X016382Y010301*
X016376Y010313*
X016369Y010325*
X016361Y010337*
X016353Y010348*
X016343Y010358*
X016333Y010368*
X016323Y010377*
X016311Y010385*
X016300Y010393*
X016287Y010399*
X016274Y010405*
X016261Y010410*
X016248Y010414*
X016234Y010416*
X016220Y010418*
X016206Y010419*
X016193*
X016179Y010418*
X016165Y010416*
X016151Y010414*
X016138Y010410*
X016125Y010405*
X016112Y010399*
X016100Y010393*
X016088Y010385*
X016076Y010377*
X016066Y010368*
X016056Y010358*
X016046Y010348*
X016038Y010337*
X016030Y010325*
X016023Y010313*
X016017Y010301*
X016012Y010288*
X016007Y010275*
X016004Y010261*
X016001Y010247*
X016000Y010233*
X016000Y010220*
X016000Y010206*
X016001Y010192*
X016004Y010178*
X016007Y010164*
X016012Y010151*
X016017Y010138*
X016023Y010126*
X016030Y010114*
X016038Y010102*
X016046Y010091*
X016056Y010081*
X016066Y010071*
X016076Y010062*
X016088Y010054*
X016100Y010046*
X016112Y010040*
X016125Y010034*
X016138Y010029*
X016151Y010025*
X016165Y010023*
X016179Y010021*
X016193Y010020*
X016206*
X016220Y010021*
X016234Y010023*
X016248Y010025*
X016261Y010029*
X016274Y010034*
X016287Y010040*
X016300Y010046*
X016311Y010054*
X016323Y010062*
X016333Y010071*
X016343Y010081*
X016353Y010091*
X016361Y010102*
X016369Y010114*
X016376Y010126*
X016382Y010138*
X016387Y010151*
X016392Y010164*
X016395Y010178*
X016398Y010192*
X016399Y010206*
X016400Y010220*
X017400Y009220D02*
D01*
X017399Y009233*
X017398Y009247*
X017395Y009261*
X017392Y009275*
X017387Y009288*
X017382Y009301*
X017376Y009313*
X017369Y009325*
X017361Y009337*
X017353Y009348*
X017343Y009358*
X017333Y009368*
X017323Y009377*
X017311Y009385*
X017300Y009393*
X017287Y009399*
X017274Y009405*
X017261Y009410*
X017248Y009414*
X017234Y009416*
X017220Y009418*
X017206Y009419*
X017193*
X017179Y009418*
X017165Y009416*
X017151Y009414*
X017138Y009410*
X017125Y009405*
X017112Y009399*
X017100Y009393*
X017088Y009385*
X017076Y009377*
X017066Y009368*
X017056Y009358*
X017046Y009348*
X017038Y009337*
X017030Y009325*
X017023Y009313*
X017017Y009301*
X017012Y009288*
X017007Y009275*
X017004Y009261*
X017001Y009247*
X017000Y009233*
X017000Y009220*
X017000Y009206*
X017001Y009192*
X017004Y009178*
X017007Y009164*
X017012Y009151*
X017017Y009138*
X017023Y009126*
X017030Y009114*
X017038Y009102*
X017046Y009091*
X017056Y009081*
X017066Y009071*
X017076Y009062*
X017088Y009054*
X017100Y009046*
X017112Y009040*
X017125Y009034*
X017138Y009029*
X017151Y009025*
X017165Y009023*
X017179Y009021*
X017193Y009020*
X017206*
X017220Y009021*
X017234Y009023*
X017248Y009025*
X017261Y009029*
X017274Y009034*
X017287Y009040*
X017300Y009046*
X017311Y009054*
X017323Y009062*
X017333Y009071*
X017343Y009081*
X017353Y009091*
X017361Y009102*
X017369Y009114*
X017376Y009126*
X017382Y009138*
X017387Y009151*
X017392Y009164*
X017395Y009178*
X017398Y009192*
X017399Y009206*
X017400Y009220*
X014180Y001270D02*
D01*
X014179Y001283*
X014178Y001297*
X014175Y001311*
X014172Y001325*
X014167Y001338*
X014162Y001351*
X014156Y001363*
X014149Y001375*
X014141Y001387*
X014133Y001398*
X014123Y001408*
X014113Y001418*
X014103Y001427*
X014091Y001435*
X014080Y001443*
X014067Y001449*
X014054Y001455*
X014041Y001460*
X014028Y001464*
X014014Y001466*
X014000Y001468*
X013986Y001469*
X013973*
X013959Y001468*
X013945Y001466*
X013931Y001464*
X013918Y001460*
X013905Y001455*
X013892Y001449*
X013880Y001443*
X013868Y001435*
X013856Y001427*
X013846Y001418*
X013836Y001408*
X013826Y001398*
X013818Y001387*
X013810Y001375*
X013803Y001363*
X013797Y001351*
X013792Y001338*
X013787Y001325*
X013784Y001311*
X013781Y001297*
X013780Y001283*
X013780Y001270*
X013780Y001256*
X013781Y001242*
X013784Y001228*
X013787Y001214*
X013792Y001201*
X013797Y001188*
X013803Y001176*
X013810Y001164*
X013818Y001152*
X013826Y001141*
X013836Y001131*
X013846Y001121*
X013856Y001112*
X013868Y001104*
X013880Y001096*
X013892Y001090*
X013905Y001084*
X013918Y001079*
X013931Y001075*
X013945Y001073*
X013959Y001071*
X013973Y001070*
X013986*
X014000Y001071*
X014014Y001073*
X014028Y001075*
X014041Y001079*
X014054Y001084*
X014067Y001090*
X014080Y001096*
X014091Y001104*
X014103Y001112*
X014113Y001121*
X014123Y001131*
X014133Y001141*
X014141Y001152*
X014149Y001164*
X014156Y001176*
X014162Y001188*
X014167Y001201*
X014172Y001214*
X014175Y001228*
X014178Y001242*
X014179Y001256*
X014180Y001270*
X015180D02*
D01*
X015179Y001283*
X015178Y001297*
X015175Y001311*
X015172Y001325*
X015167Y001338*
X015162Y001351*
X015156Y001363*
X015149Y001375*
X015141Y001387*
X015133Y001398*
X015123Y001408*
X015113Y001418*
X015103Y001427*
X015091Y001435*
X015080Y001443*
X015067Y001449*
X015054Y001455*
X015041Y001460*
X015028Y001464*
X015014Y001466*
X015000Y001468*
X014986Y001469*
X014973*
X014959Y001468*
X014945Y001466*
X014931Y001464*
X014918Y001460*
X014905Y001455*
X014892Y001449*
X014880Y001443*
X014868Y001435*
X014856Y001427*
X014846Y001418*
X014836Y001408*
X014826Y001398*
X014818Y001387*
X014810Y001375*
X014803Y001363*
X014797Y001351*
X014792Y001338*
X014787Y001325*
X014784Y001311*
X014781Y001297*
X014780Y001283*
X014780Y001270*
X014780Y001256*
X014781Y001242*
X014784Y001228*
X014787Y001214*
X014792Y001201*
X014797Y001188*
X014803Y001176*
X014810Y001164*
X014818Y001152*
X014826Y001141*
X014836Y001131*
X014846Y001121*
X014856Y001112*
X014868Y001104*
X014880Y001096*
X014892Y001090*
X014905Y001084*
X014918Y001079*
X014931Y001075*
X014945Y001073*
X014959Y001071*
X014973Y001070*
X014986*
X015000Y001071*
X015014Y001073*
X015028Y001075*
X015041Y001079*
X015054Y001084*
X015067Y001090*
X015080Y001096*
X015091Y001104*
X015103Y001112*
X015113Y001121*
X015123Y001131*
X015133Y001141*
X015141Y001152*
X015149Y001164*
X015156Y001176*
X015162Y001188*
X015167Y001201*
X015172Y001214*
X015175Y001228*
X015178Y001242*
X015179Y001256*
X015180Y001270*
X016180D02*
D01*
X016179Y001283*
X016178Y001297*
X016175Y001311*
X016172Y001325*
X016167Y001338*
X016162Y001351*
X016156Y001363*
X016149Y001375*
X016141Y001387*
X016133Y001398*
X016123Y001408*
X016113Y001418*
X016103Y001427*
X016091Y001435*
X016080Y001443*
X016067Y001449*
X016054Y001455*
X016041Y001460*
X016028Y001464*
X016014Y001466*
X016000Y001468*
X015986Y001469*
X015973*
X015959Y001468*
X015945Y001466*
X015931Y001464*
X015918Y001460*
X015905Y001455*
X015892Y001449*
X015880Y001443*
X015868Y001435*
X015856Y001427*
X015846Y001418*
X015836Y001408*
X015826Y001398*
X015818Y001387*
X015810Y001375*
X015803Y001363*
X015797Y001351*
X015792Y001338*
X015787Y001325*
X015784Y001311*
X015781Y001297*
X015780Y001283*
X015780Y001270*
X015780Y001256*
X015781Y001242*
X015784Y001228*
X015787Y001214*
X015792Y001201*
X015797Y001188*
X015803Y001176*
X015810Y001164*
X015818Y001152*
X015826Y001141*
X015836Y001131*
X015846Y001121*
X015856Y001112*
X015868Y001104*
X015880Y001096*
X015892Y001090*
X015905Y001084*
X015918Y001079*
X015931Y001075*
X015945Y001073*
X015959Y001071*
X015973Y001070*
X015986*
X016000Y001071*
X016014Y001073*
X016028Y001075*
X016041Y001079*
X016054Y001084*
X016067Y001090*
X016080Y001096*
X016091Y001104*
X016103Y001112*
X016113Y001121*
X016123Y001131*
X016133Y001141*
X016141Y001152*
X016149Y001164*
X016156Y001176*
X016162Y001188*
X016167Y001201*
X016172Y001214*
X016175Y001228*
X016178Y001242*
X016179Y001256*
X016180Y001270*
X017180D02*
D01*
X017179Y001283*
X017178Y001297*
X017175Y001311*
X017172Y001325*
X017167Y001338*
X017162Y001351*
X017156Y001363*
X017149Y001375*
X017141Y001387*
X017133Y001398*
X017123Y001408*
X017113Y001418*
X017103Y001427*
X017091Y001435*
X017080Y001443*
X017067Y001449*
X017054Y001455*
X017041Y001460*
X017028Y001464*
X017014Y001466*
X017000Y001468*
X016986Y001469*
X016973*
X016959Y001468*
X016945Y001466*
X016931Y001464*
X016918Y001460*
X016905Y001455*
X016892Y001449*
X016880Y001443*
X016868Y001435*
X016856Y001427*
X016846Y001418*
X016836Y001408*
X016826Y001398*
X016818Y001387*
X016810Y001375*
X016803Y001363*
X016797Y001351*
X016792Y001338*
X016787Y001325*
X016784Y001311*
X016781Y001297*
X016780Y001283*
X016780Y001270*
X016780Y001256*
X016781Y001242*
X016784Y001228*
X016787Y001214*
X016792Y001201*
X016797Y001188*
X016803Y001176*
X016810Y001164*
X016818Y001152*
X016826Y001141*
X016836Y001131*
X016846Y001121*
X016856Y001112*
X016868Y001104*
X016880Y001096*
X016892Y001090*
X016905Y001084*
X016918Y001079*
X016931Y001075*
X016945Y001073*
X016959Y001071*
X016973Y001070*
X016986*
X017000Y001071*
X017014Y001073*
X017028Y001075*
X017041Y001079*
X017054Y001084*
X017067Y001090*
X017080Y001096*
X017091Y001104*
X017103Y001112*
X017113Y001121*
X017123Y001131*
X017133Y001141*
X017141Y001152*
X017149Y001164*
X017156Y001176*
X017162Y001188*
X017167Y001201*
X017172Y001214*
X017175Y001228*
X017178Y001242*
X017179Y001256*
X017180Y001270*
X018180D02*
D01*
X018179Y001283*
X018178Y001297*
X018175Y001311*
X018172Y001325*
X018167Y001338*
X018162Y001351*
X018156Y001363*
X018149Y001375*
X018141Y001387*
X018133Y001398*
X018123Y001408*
X018113Y001418*
X018103Y001427*
X018091Y001435*
X018080Y001443*
X018067Y001449*
X018054Y001455*
X018041Y001460*
X018028Y001464*
X018014Y001466*
X018000Y001468*
X017986Y001469*
X017973*
X017959Y001468*
X017945Y001466*
X017931Y001464*
X017918Y001460*
X017905Y001455*
X017892Y001449*
X017880Y001443*
X017868Y001435*
X017856Y001427*
X017846Y001418*
X017836Y001408*
X017826Y001398*
X017818Y001387*
X017810Y001375*
X017803Y001363*
X017797Y001351*
X017792Y001338*
X017787Y001325*
X017784Y001311*
X017781Y001297*
X017780Y001283*
X017780Y001270*
X017780Y001256*
X017781Y001242*
X017784Y001228*
X017787Y001214*
X017792Y001201*
X017797Y001188*
X017803Y001176*
X017810Y001164*
X017818Y001152*
X017826Y001141*
X017836Y001131*
X017846Y001121*
X017856Y001112*
X017868Y001104*
X017880Y001096*
X017892Y001090*
X017905Y001084*
X017918Y001079*
X017931Y001075*
X017945Y001073*
X017959Y001071*
X017973Y001070*
X017986*
X018000Y001071*
X018014Y001073*
X018028Y001075*
X018041Y001079*
X018054Y001084*
X018067Y001090*
X018080Y001096*
X018091Y001104*
X018103Y001112*
X018113Y001121*
X018123Y001131*
X018133Y001141*
X018141Y001152*
X018149Y001164*
X018156Y001176*
X018162Y001188*
X018167Y001201*
X018172Y001214*
X018175Y001228*
X018178Y001242*
X018179Y001256*
X018180Y001270*
X019180D02*
D01*
X019179Y001283*
X019178Y001297*
X019175Y001311*
X019172Y001325*
X019167Y001338*
X019162Y001351*
X019156Y001363*
X019149Y001375*
X019141Y001387*
X019133Y001398*
X019123Y001408*
X019113Y001418*
X019103Y001427*
X019091Y001435*
X019080Y001443*
X019067Y001449*
X019054Y001455*
X019041Y001460*
X019028Y001464*
X019014Y001466*
X019000Y001468*
X018986Y001469*
X018973*
X018959Y001468*
X018945Y001466*
X018931Y001464*
X018918Y001460*
X018905Y001455*
X018892Y001449*
X018880Y001443*
X018868Y001435*
X018856Y001427*
X018846Y001418*
X018836Y001408*
X018826Y001398*
X018818Y001387*
X018810Y001375*
X018803Y001363*
X018797Y001351*
X018792Y001338*
X018787Y001325*
X018784Y001311*
X018781Y001297*
X018780Y001283*
X018780Y001270*
X018780Y001256*
X018781Y001242*
X018784Y001228*
X018787Y001214*
X018792Y001201*
X018797Y001188*
X018803Y001176*
X018810Y001164*
X018818Y001152*
X018826Y001141*
X018836Y001131*
X018846Y001121*
X018856Y001112*
X018868Y001104*
X018880Y001096*
X018892Y001090*
X018905Y001084*
X018918Y001079*
X018931Y001075*
X018945Y001073*
X018959Y001071*
X018973Y001070*
X018986*
X019000Y001071*
X019014Y001073*
X019028Y001075*
X019041Y001079*
X019054Y001084*
X019067Y001090*
X019080Y001096*
X019091Y001104*
X019103Y001112*
X019113Y001121*
X019123Y001131*
X019133Y001141*
X019141Y001152*
X019149Y001164*
X019156Y001176*
X019162Y001188*
X019167Y001201*
X019172Y001214*
X019175Y001228*
X019178Y001242*
X019179Y001256*
X019180Y001270*
X014180Y004270D02*
D01*
X014179Y004283*
X014178Y004297*
X014175Y004311*
X014172Y004325*
X014167Y004338*
X014162Y004351*
X014156Y004363*
X014149Y004375*
X014141Y004387*
X014133Y004398*
X014123Y004408*
X014113Y004418*
X014103Y004427*
X014091Y004435*
X014080Y004443*
X014067Y004449*
X014054Y004455*
X014041Y004460*
X014028Y004464*
X014014Y004466*
X014000Y004468*
X013986Y004469*
X013973*
X013959Y004468*
X013945Y004466*
X013931Y004464*
X013918Y004460*
X013905Y004455*
X013892Y004449*
X013880Y004443*
X013868Y004435*
X013856Y004427*
X013846Y004418*
X013836Y004408*
X013826Y004398*
X013818Y004387*
X013810Y004375*
X013803Y004363*
X013797Y004351*
X013792Y004338*
X013787Y004325*
X013784Y004311*
X013781Y004297*
X013780Y004283*
X013780Y004270*
X013780Y004256*
X013781Y004242*
X013784Y004228*
X013787Y004214*
X013792Y004201*
X013797Y004188*
X013803Y004176*
X013810Y004164*
X013818Y004152*
X013826Y004141*
X013836Y004131*
X013846Y004121*
X013856Y004112*
X013868Y004104*
X013880Y004096*
X013892Y004090*
X013905Y004084*
X013918Y004079*
X013931Y004075*
X013945Y004073*
X013959Y004071*
X013973Y004070*
X013986*
X014000Y004071*
X014014Y004073*
X014028Y004075*
X014041Y004079*
X014054Y004084*
X014067Y004090*
X014080Y004096*
X014091Y004104*
X014103Y004112*
X014113Y004121*
X014123Y004131*
X014133Y004141*
X014141Y004152*
X014149Y004164*
X014156Y004176*
X014162Y004188*
X014167Y004201*
X014172Y004214*
X014175Y004228*
X014178Y004242*
X014179Y004256*
X014180Y004270*
X015180D02*
D01*
X015179Y004283*
X015178Y004297*
X015175Y004311*
X015172Y004325*
X015167Y004338*
X015162Y004351*
X015156Y004363*
X015149Y004375*
X015141Y004387*
X015133Y004398*
X015123Y004408*
X015113Y004418*
X015103Y004427*
X015091Y004435*
X015080Y004443*
X015067Y004449*
X015054Y004455*
X015041Y004460*
X015028Y004464*
X015014Y004466*
X015000Y004468*
X014986Y004469*
X014973*
X014959Y004468*
X014945Y004466*
X014931Y004464*
X014918Y004460*
X014905Y004455*
X014892Y004449*
X014880Y004443*
X014868Y004435*
X014856Y004427*
X014846Y004418*
X014836Y004408*
X014826Y004398*
X014818Y004387*
X014810Y004375*
X014803Y004363*
X014797Y004351*
X014792Y004338*
X014787Y004325*
X014784Y004311*
X014781Y004297*
X014780Y004283*
X014780Y004270*
X014780Y004256*
X014781Y004242*
X014784Y004228*
X014787Y004214*
X014792Y004201*
X014797Y004188*
X014803Y004176*
X014810Y004164*
X014818Y004152*
X014826Y004141*
X014836Y004131*
X014846Y004121*
X014856Y004112*
X014868Y004104*
X014880Y004096*
X014892Y004090*
X014905Y004084*
X014918Y004079*
X014931Y004075*
X014945Y004073*
X014959Y004071*
X014973Y004070*
X014986*
X015000Y004071*
X015014Y004073*
X015028Y004075*
X015041Y004079*
X015054Y004084*
X015067Y004090*
X015080Y004096*
X015091Y004104*
X015103Y004112*
X015113Y004121*
X015123Y004131*
X015133Y004141*
X015141Y004152*
X015149Y004164*
X015156Y004176*
X015162Y004188*
X015167Y004201*
X015172Y004214*
X015175Y004228*
X015178Y004242*
X015179Y004256*
X015180Y004270*
X016180D02*
D01*
X016179Y004283*
X016178Y004297*
X016175Y004311*
X016172Y004325*
X016167Y004338*
X016162Y004351*
X016156Y004363*
X016149Y004375*
X016141Y004387*
X016133Y004398*
X016123Y004408*
X016113Y004418*
X016103Y004427*
X016091Y004435*
X016080Y004443*
X016067Y004449*
X016054Y004455*
X016041Y004460*
X016028Y004464*
X016014Y004466*
X016000Y004468*
X015986Y004469*
X015973*
X015959Y004468*
X015945Y004466*
X015931Y004464*
X015918Y004460*
X015905Y004455*
X015892Y004449*
X015880Y004443*
X015868Y004435*
X015856Y004427*
X015846Y004418*
X015836Y004408*
X015826Y004398*
X015818Y004387*
X015810Y004375*
X015803Y004363*
X015797Y004351*
X015792Y004338*
X015787Y004325*
X015784Y004311*
X015781Y004297*
X015780Y004283*
X015780Y004270*
X015780Y004256*
X015781Y004242*
X015784Y004228*
X015787Y004214*
X015792Y004201*
X015797Y004188*
X015803Y004176*
X015810Y004164*
X015818Y004152*
X015826Y004141*
X015836Y004131*
X015846Y004121*
X015856Y004112*
X015868Y004104*
X015880Y004096*
X015892Y004090*
X015905Y004084*
X015918Y004079*
X015931Y004075*
X015945Y004073*
X015959Y004071*
X015973Y004070*
X015986*
X016000Y004071*
X016014Y004073*
X016028Y004075*
X016041Y004079*
X016054Y004084*
X016067Y004090*
X016080Y004096*
X016091Y004104*
X016103Y004112*
X016113Y004121*
X016123Y004131*
X016133Y004141*
X016141Y004152*
X016149Y004164*
X016156Y004176*
X016162Y004188*
X016167Y004201*
X016172Y004214*
X016175Y004228*
X016178Y004242*
X016179Y004256*
X016180Y004270*
X017180D02*
D01*
X017179Y004283*
X017178Y004297*
X017175Y004311*
X017172Y004325*
X017167Y004338*
X017162Y004351*
X017156Y004363*
X017149Y004375*
X017141Y004387*
X017133Y004398*
X017123Y004408*
X017113Y004418*
X017103Y004427*
X017091Y004435*
X017080Y004443*
X017067Y004449*
X017054Y004455*
X017041Y004460*
X017028Y004464*
X017014Y004466*
X017000Y004468*
X016986Y004469*
X016973*
X016959Y004468*
X016945Y004466*
X016931Y004464*
X016918Y004460*
X016905Y004455*
X016892Y004449*
X016880Y004443*
X016868Y004435*
X016856Y004427*
X016846Y004418*
X016836Y004408*
X016826Y004398*
X016818Y004387*
X016810Y004375*
X016803Y004363*
X016797Y004351*
X016792Y004338*
X016787Y004325*
X016784Y004311*
X016781Y004297*
X016780Y004283*
X016780Y004270*
X016780Y004256*
X016781Y004242*
X016784Y004228*
X016787Y004214*
X016792Y004201*
X016797Y004188*
X016803Y004176*
X016810Y004164*
X016818Y004152*
X016826Y004141*
X016836Y004131*
X016846Y004121*
X016856Y004112*
X016868Y004104*
X016880Y004096*
X016892Y004090*
X016905Y004084*
X016918Y004079*
X016931Y004075*
X016945Y004073*
X016959Y004071*
X016973Y004070*
X016986*
X017000Y004071*
X017014Y004073*
X017028Y004075*
X017041Y004079*
X017054Y004084*
X017067Y004090*
X017080Y004096*
X017091Y004104*
X017103Y004112*
X017113Y004121*
X017123Y004131*
X017133Y004141*
X017141Y004152*
X017149Y004164*
X017156Y004176*
X017162Y004188*
X017167Y004201*
X017172Y004214*
X017175Y004228*
X017178Y004242*
X017179Y004256*
X017180Y004270*
X018180D02*
D01*
X018179Y004283*
X018178Y004297*
X018175Y004311*
X018172Y004325*
X018167Y004338*
X018162Y004351*
X018156Y004363*
X018149Y004375*
X018141Y004387*
X018133Y004398*
X018123Y004408*
X018113Y004418*
X018103Y004427*
X018091Y004435*
X018080Y004443*
X018067Y004449*
X018054Y004455*
X018041Y004460*
X018028Y004464*
X018014Y004466*
X018000Y004468*
X017986Y004469*
X017973*
X017959Y004468*
X017945Y004466*
X017931Y004464*
X017918Y004460*
X017905Y004455*
X017892Y004449*
X017880Y004443*
X017868Y004435*
X017856Y004427*
X017846Y004418*
X017836Y004408*
X017826Y004398*
X017818Y004387*
X017810Y004375*
X017803Y004363*
X017797Y004351*
X017792Y004338*
X017787Y004325*
X017784Y004311*
X017781Y004297*
X017780Y004283*
X017780Y004270*
X017780Y004256*
X017781Y004242*
X017784Y004228*
X017787Y004214*
X017792Y004201*
X017797Y004188*
X017803Y004176*
X017810Y004164*
X017818Y004152*
X017826Y004141*
X017836Y004131*
X017846Y004121*
X017856Y004112*
X017868Y004104*
X017880Y004096*
X017892Y004090*
X017905Y004084*
X017918Y004079*
X017931Y004075*
X017945Y004073*
X017959Y004071*
X017973Y004070*
X017986*
X018000Y004071*
X018014Y004073*
X018028Y004075*
X018041Y004079*
X018054Y004084*
X018067Y004090*
X018080Y004096*
X018091Y004104*
X018103Y004112*
X018113Y004121*
X018123Y004131*
X018133Y004141*
X018141Y004152*
X018149Y004164*
X018156Y004176*
X018162Y004188*
X018167Y004201*
X018172Y004214*
X018175Y004228*
X018178Y004242*
X018179Y004256*
X018180Y004270*
X019180D02*
D01*
X019179Y004283*
X019178Y004297*
X019175Y004311*
X019172Y004325*
X019167Y004338*
X019162Y004351*
X019156Y004363*
X019149Y004375*
X019141Y004387*
X019133Y004398*
X019123Y004408*
X019113Y004418*
X019103Y004427*
X019091Y004435*
X019080Y004443*
X019067Y004449*
X019054Y004455*
X019041Y004460*
X019028Y004464*
X019014Y004466*
X019000Y004468*
X018986Y004469*
X018973*
X018959Y004468*
X018945Y004466*
X018931Y004464*
X018918Y004460*
X018905Y004455*
X018892Y004449*
X018880Y004443*
X018868Y004435*
X018856Y004427*
X018846Y004418*
X018836Y004408*
X018826Y004398*
X018818Y004387*
X018810Y004375*
X018803Y004363*
X018797Y004351*
X018792Y004338*
X018787Y004325*
X018784Y004311*
X018781Y004297*
X018780Y004283*
X018780Y004270*
X018780Y004256*
X018781Y004242*
X018784Y004228*
X018787Y004214*
X018792Y004201*
X018797Y004188*
X018803Y004176*
X018810Y004164*
X018818Y004152*
X018826Y004141*
X018836Y004131*
X018846Y004121*
X018856Y004112*
X018868Y004104*
X018880Y004096*
X018892Y004090*
X018905Y004084*
X018918Y004079*
X018931Y004075*
X018945Y004073*
X018959Y004071*
X018973Y004070*
X018986*
X019000Y004071*
X019014Y004073*
X019028Y004075*
X019041Y004079*
X019054Y004084*
X019067Y004090*
X019080Y004096*
X019091Y004104*
X019103Y004112*
X019113Y004121*
X019123Y004131*
X019133Y004141*
X019141Y004152*
X019149Y004164*
X019156Y004176*
X019162Y004188*
X019167Y004201*
X019172Y004214*
X019175Y004228*
X019178Y004242*
X019179Y004256*
X019180Y004270*
M02*