%FSDAX24Y24*%
%MOIN*%
%SFA1B1*%

%IPPOS*%
%ADD13R,0.043307X0.039370*%
%ADD14R,0.031496X0.031496*%
%ADD15R,0.039370X0.043307*%
%ADD24C,0.020000*%
%ADD25C,0.060000*%
%ADD26R,0.059055X0.059055*%
%ADD27C,0.059055*%
%ADD28R,0.059055X0.059055*%
%ADD29C,0.059055*%
%LNpcb_controlboard-1*%
%LPD*%
G54D13*
X002545Y008270D03*
X003214D03*
X002545Y004370D03*
X003214D03*
G54D14*
X007080Y006906D03*
Y006315D03*
X008880Y006906D03*
Y006315D03*
X010680Y006906D03*
Y006315D03*
X012480Y006906D03*
Y006315D03*
X014280Y006906D03*
Y006315D03*
X016080Y006906D03*
Y006315D03*
X017880Y006906D03*
Y006315D03*
X019680Y006906D03*
Y006315D03*
G54D15*
X006380Y006935D03*
Y007604D03*
X008180Y006935D03*
Y007604D03*
X009980Y006935D03*
Y007604D03*
X011700Y006985D03*
Y007654D03*
X013580Y006935D03*
Y007604D03*
X015380Y006935D03*
Y007604D03*
X017180Y006935D03*
Y007604D03*
X018980Y006935D03*
Y007604D03*
G54D24*
X004500Y005104D02*
Y009820D01*
X005800Y011120*
X016300*
X003765Y009585D02*
X005600Y011420D01*
X016700*
X003765Y008281D02*
Y009585D01*
X016300Y011120D02*
X016700Y010720D01*
X003225Y008281D02*
X003765D01*
X016700Y009720D02*
Y010720D01*
Y009720D02*
X017200Y009220D01*
Y010220D02*
Y010920D01*
X016700Y011420D02*
X017200Y010920D01*
X013700Y009720D02*
X014200Y010220D01*
X013700Y008420D02*
Y009720D01*
X015800Y008120D02*
X016315Y007604D01*
X015200Y008120D02*
X015800D01*
X017500D02*
X018015Y007604D01*
X016315D02*
X017180D01*
X016400Y008120D02*
X017500D01*
X015700Y008820D02*
X016400Y008120D01*
X018015Y007604D02*
X018980D01*
X009200Y008420D02*
Y009220D01*
Y008420D02*
X009500Y008120D01*
Y006315D02*
X010680D01*
X008880D02*
X009500D01*
Y008120*
X009200Y009220D02*
X010200D01*
X007080Y002800D02*
Y006315D01*
X005300Y001020D02*
X007080Y002800D01*
X002400Y001020D02*
X005300D01*
X001994Y001425D02*
X002400Y001020D01*
X001994Y001425D02*
Y001884D01*
X011700Y007554D02*
Y009720D01*
X015015Y007604D02*
X015380D01*
X014000Y008120D02*
X014500D01*
X015015Y007604*
X013700Y008420D02*
X014000Y008120D01*
X015700Y008820D02*
Y009720D01*
X016200Y010220*
X006380Y007604D02*
Y008000D01*
X008600Y010220*
X009200*
X003765Y004370D02*
X004500Y005104D01*
X003765Y003915D02*
Y004370D01*
Y003655D02*
Y003732D01*
X003214Y004370D02*
X003750D01*
X003765Y003732D02*
Y003915D01*
X003750Y004370D02*
X003765Y004354D01*
Y007555D02*
Y008281D01*
Y005784D02*
Y007555D01*
X014700Y008620D02*
X015200Y008120D01*
X014700Y008620D02*
Y009720D01*
X015200Y010220*
X013100Y007620D02*
X013564D01*
X013580Y007604*
X012700Y008020D02*
X013100Y007620D01*
X012700Y009720D02*
X013200Y010220D01*
X012700Y008020D02*
Y009720D01*
X011700D02*
X012200Y010220D01*
X009980Y007604D02*
Y008100D01*
X010700Y008820*
Y009720*
X011200Y010220*
X008180Y007604D02*
Y009200D01*
X008700Y009720D02*
X009700D01*
X008180Y009200D02*
X008700Y009720D01*
X009700D02*
X010200Y010220D01*
X019680Y004970D02*
Y006315D01*
X018980Y004270D02*
X019680Y004970D01*
X017980Y004270D02*
X018980D01*
X016980D02*
X017980D01*
X015980D02*
X016980D01*
X014980D02*
X015980D01*
X013980D02*
X014980D01*
X003765Y001884D02*
Y003655D01*
X003689Y003732D02*
X003765Y003655D01*
X001994Y005784D02*
Y007555D01*
X002150Y004370D02*
X002545D01*
X001994Y004525D02*
Y005784D01*
Y004525D02*
X002150Y004370D01*
X002002Y004022D02*
X002263Y004283D01*
X002458D02*
X002545Y004370D01*
X001994Y003655D02*
X002002Y003663D01*
Y004022*
X002263Y004283D02*
X002458D01*
X001994Y001884D02*
Y003655D01*
X002070Y007632D02*
Y007815D01*
X002525Y008270D02*
X002545D01*
X002070Y007815D02*
X002525Y008270D01*
X001994Y007555D02*
X002070Y007632D01*
X017880Y006315D02*
X019680D01*
X016080D02*
X017880D01*
X014280D02*
X016080D01*
X012480D02*
X014280D01*
X010680D02*
X012480D01*
X007080D02*
X008880D01*
X018994Y006920D02*
X019665D01*
X018980Y006935D02*
X018994Y006920D01*
X019665D02*
X019680Y006906D01*
X017865Y006920D02*
X017880Y006906D01*
X017180Y006935D02*
X017194Y006920D01*
X017865*
X015394D02*
X016065D01*
X016080Y006906*
X015380Y006935D02*
X015394Y006920D01*
X013594D02*
X014265D01*
X013580Y006935D02*
X013594Y006920D01*
X014265D02*
X014280Y006906D01*
X011794Y006920D02*
X012465D01*
X011780Y006935D02*
X011794Y006920D01*
X012465D02*
X012480Y006906D01*
X009980Y006935D02*
X009994Y006920D01*
X010665*
X010680Y006906*
X008194Y006920D02*
X008865D01*
X008180Y006935D02*
X008194Y006920D01*
X008865D02*
X008880Y006906D01*
X006394Y006920D02*
X007065D01*
X006380Y006935D02*
X006394Y006920D01*
X007065D02*
X007080Y006906D01*
G54D25*
X001994Y007555D03*
X003765D03*
X001994Y005784D03*
X003765D03*
X001994Y003655D03*
X003765D03*
X001994Y001884D03*
X003765D03*
G54D26*
X017200Y010220D03*
G54D27*
X009200Y009220D03*
Y010220D03*
X010200Y009220D03*
Y010220D03*
X011200Y009220D03*
Y010220D03*
X012200Y009220D03*
Y010220D03*
X013200Y009220D03*
Y010220D03*
X014200Y009220D03*
Y010220D03*
X015200Y009220D03*
Y010220D03*
X016200Y009220D03*
Y010220D03*
X017200Y009220D03*
X018980Y001270D03*
X013980Y004270D03*
X014980D03*
X015980D03*
X016980D03*
X017980D03*
X018980D03*
G54D28*
X013980Y001270D03*
G54D29*
X014980Y001270D03*
X015980D03*
X016980D03*
X017980D03*
M02*